<svg viewBox="0 0 16 16"><path d="M2.87 11.3V4.14H1.7L0 5.38v1.14l1.64-1.18h.06v5.96h1.17ZM6.1 6.2v-.06c0-.61.44-1.16 1.2-1.16.67 0 1.17.44 1.17 1.1 0 .63-.42 1.1-.81 1.53L5 10.55v.75h4.78v-1H6.64v-.06l1.77-1.99c.65-.72 1.24-1.33 1.24-2.27C9.65 4.85 8.72 4 7.3 4 5.74 4 4.95 5.06 4.95 6.15v.06h1.14Zm6.56 1.89h.78c.82 0 1.37.48 1.38 1.18.01.7-.55 1.22-1.42 1.2-.77 0-1.33-.41-1.38-.94h-1.1c.05 1.05.94 1.91 2.47 1.91 1.48 0 2.64-.84 2.62-2.14a1.72 1.72 0 0 0-1.55-1.71v-.07a1.68 1.68 0 0 0 1.32-1.68C15.75 4.8 14.84 4 13.41 4c-1.5 0-2.31.88-2.34 1.9h1.11c.04-.5.5-.95 1.2-.95.71 0 1.21.44 1.21 1.07.01.64-.5 1.11-1.2 1.11h-.75v.96Z"/></svg>