<svg xmlns="http://www.w3.org/2000/svg" width="16" height="16" viewBox="0 0 16 16" id="icon"><path d="M7.92 8.41h-.88V7.34h.84c.78 0 1.35-.52 1.34-1.24 0-.7-.56-1.19-1.35-1.19s-1.31.5-1.35 1.05H5.28c.03-1.13.95-2.11 2.62-2.12 1.6 0 2.6.89 2.64 2.07a1.9 1.9 0 0 1-1.48 1.87v.07c.7.07 1.7.64 1.73 1.92.02 1.46-1.28 2.4-2.93 2.4-1.7 0-2.7-.97-2.75-2.15h1.22c.06.6.68 1.06 1.54 1.07.97 0 1.6-.57 1.59-1.36 0-.78-.62-1.32-1.54-1.32"/><path d="M16 8A8 8 0 1 1 0 8a8 8 0 0 1 16 0M1 8a7 7 0 1 0 14 0A7 7 0 0 0 1 8"/></svg>