<svg xmlns="http://www.w3.org/2000/svg" width="16" height="16" viewBox="0 0 16 16"><path d="M8.21 3.86c1.61 0 2.52.99 2.57 1.9H9.5c-.1-.36-.5-.82-1.3-.82-1.09 0-1.82 1.09-1.81 3.03h.08c.23-.54.85-1.15 1.98-1.15 1.25 0 2.5.88 2.5 2.55 0 1.78-1.21 2.79-2.84 2.79-.93 0-1.84-.33-2.4-1.26q-.58-.89-.6-2.64c0-3.01 1.24-4.4 3.11-4.4m-.1 4a1.5 1.5 0 0 0-1.56 1.58c0 1.03.7 1.63 1.56 1.63s1.55-.53 1.55-1.63a1.5 1.5 0 0 0-1.55-1.58"/><path d="M0 2a2 2 0 0 1 2-2h12a2 2 0 0 1 2 2v12a2 2 0 0 1-2 2H2a2 2 0 0 1-2-2zm15 0a1 1 0 0 0-1-1H2a1 1 0 0 0-1 1v12a1 1 0 0 0 1 1h12a1 1 0 0 0 1-1z"/></svg>