<svg viewBox="0 0 16 16"><path d="M1 8a7 7 0 1 0 14 0A7 7 0 0 0 1 8Zm15 0A8 8 0 1 1 0 8a8 8 0 0 1 16 0Zm-5.03 1.8c0 1.4-1.22 2.36-2.99 2.36-1.76 0-2.95-.96-2.95-2.35 0-1.27.95-1.85 1.65-2v-.06a1.81 1.81 0 0 1-1.33-1.78c0-1.23 1.09-2.13 2.66-2.13s2.65.9 2.65 2.12c0 1.07-.74 1.6-1.34 1.79v.06c.7.15 1.65.75 1.65 2ZM6.62 6.1c0 .73.59 1.25 1.39 1.25s1.37-.52 1.37-1.26c0-.73-.58-1.23-1.37-1.23s-1.39.5-1.39 1.23Zm-.28 3.64c0 .84.72 1.41 1.67 1.41.94 0 1.65-.57 1.65-1.41S8.95 8.3 8.01 8.3c-.95 0-1.67.58-1.67 1.43Z"/></svg>