<svg xmlns="http://www.w3.org/2000/svg" width="16" height="16" viewBox="0 0 16 16" id="icon"><path d="M16 8A8 8 0 1 1 0 8a8 8 0 0 1 16 0m-5.03 1.8a2 2 0 0 0-1.65-1.99v-.06c.6-.2 1.34-.72 1.34-1.78 0-1.23-1.08-2.13-2.65-2.13s-2.66.9-2.66 2.12c0 1.05.7 1.6 1.33 1.79v.06c-.7.15-1.65.73-1.65 2 0 1.4 1.19 2.35 2.95 2.35s3-.96 3-2.36M6.62 6.1c0 .73.59 1.25 1.39 1.25s1.37-.52 1.37-1.26c0-.73-.58-1.23-1.37-1.23s-1.39.5-1.39 1.23Zm-.28 3.64c0 .84.72 1.41 1.67 1.41.94 0 1.65-.57 1.65-1.41S8.95 8.3 8.01 8.3c-.95 0-1.67.58-1.67 1.43"/></svg>