<svg xmlns="http://www.w3.org/2000/svg" width="16" height="16" viewBox="0 0 16 16"><path d="M7.78 12.15c-1.6 0-2.43-.9-2.52-1.8h1.3c.1.36.53.72 1.24.72 1.36 0 1.88-1.35 1.84-3.02h-.08c-.24.62-.87 1.18-1.94 1.18-1.39 0-2.56-.96-2.56-2.67 0-1.7 1.24-2.73 2.87-2.73 1.51 0 2.97.87 2.97 4.02 0 2.83-1.02 4.3-3.12 4.3m.11-3.98c.81 0 1.54-.52 1.54-1.59S8.76 4.9 7.87 4.9c-.84 0-1.52.62-1.52 1.66 0 1.08.71 1.61 1.54 1.61"/><path d="M0 2a2 2 0 0 1 2-2h12a2 2 0 0 1 2 2v12a2 2 0 0 1-2 2H2a2 2 0 0 1-2-2zm15 0a1 1 0 0 0-1-1H2a1 1 0 0 0-1 1v12a1 1 0 0 0 1 1h12a1 1 0 0 0 1-1z"/></svg>