<svg xmlns="http://www.w3.org/2000/svg" width="16" height="16" viewBox="0 0 16 16"><path d="M8 0c-.79 0-1.3.6-1.57 1.15A4 4 0 0 0 6 3v3.7l-2 1v-.2a.5.5 0 0 0-.5-.5h-1a.5.5 0 0 0-.5.5v1.2l-1.17.58A1.5 1.5 0 0 0 0 10.62V12a.5.5 0 0 0 .58.5l1.63-.28.32.94a.5.5 0 0 0 .94 0l.4-1.22 2.22-.37.37 2.26-1.31 1.32a.5.5 0 0 0 .35.85h5a.5.5 0 0 0 .35-.85l-1.31-1.32.37-2.25 2.21.36.4 1.22a.5.5 0 0 0 .95 0l.32-.94 1.63.27A.5.5 0 0 0 16 12v-1.38a1.5 1.5 0 0 0-.83-1.34L14 8.69V7.5a.5.5 0 0 0-.5-.5h-1a.5.5 0 0 0-.5.5v.2l-2-1V3c0-.57-.14-1.27-.43-1.85C9.3.6 8.8 0 8 0"/></svg>