<svg xmlns="http://www.w3.org/2000/svg" viewBox="0 0 16 16"><path d="M8 0c-.79 0-1.3.6-1.57 1.15A4.35 4.35 0 0 0 6 3v3.7l-2 1v-.2a.5.5 0 0 0-.5-.5h-1a.5.5 0 0 0-.5.5v1.2l-1.17.58A1.5 1.5 0 0 0 0 10.62V12a.5.5 0 0 0 .58.5l1.63-.28.32.94a.5.5 0 0 0 .94 0l.4-1.22 2.22-.37.37 2.26-1.31 1.32a.5.5 0 0 0 .35.85h5a.5.5 0 0 0 .35-.85l-1.31-1.32.37-2.25 2.21.36.4 1.22a.5.5 0 0 0 .95 0l.32-.94 1.63.27A.5.5 0 0 0 16 12v-1.38a1.5 1.5 0 0 0-.83-1.34L14 8.69V7.5a.5.5 0 0 0-.5-.5h-1a.5.5 0 0 0-.5.5v.2l-2-1V3c0-.57-.14-1.27-.43-1.85C9.3.6 8.8 0 8 0ZM7 3c0-.43.11-.98.32-1.4.22-.44.47-.6.68-.6.21 0 .46.16.68.6.2.42.32.97.32 1.4v4a.5.5 0 0 0 .28.45l5.44 2.72a.5.5 0 0 1 .28.45v.79l-5.42-.9a.5.5 0 0 0-.57.4l-.5 3a.5.5 0 0 0 .14.44l.64.65H6.71l.64-.65a.5.5 0 0 0 .14-.43l-.5-3a.5.5 0 0 0-.57-.41L1 11.4v-.8a.5.5 0 0 1 .28-.44l5.44-2.72A.5.5 0 0 0 7 7V3Z"/></svg>