<svg xmlns="http://www.w3.org/2000/svg" width="16" height="16" viewBox="0 0 16 16"><path d="M6.43 1.15C6.7.6 7.2 0 8 0s1.3.6 1.57 1.15c.3.58.43 1.28.43 1.85v3.7l5.17 2.58a1.5 1.5 0 0 1 .83 1.34V12a.5.5 0 0 1-.58.5l-5.5-.92-.38 2.25 1.31 1.32a.5.5 0 0 1-.35.85h-5a.5.5 0 0 1-.35-.85l1.31-1.32-.37-2.25-5.5.91A.5.5 0 0 1 0 12v-1.38a1.5 1.5 0 0 1 .83-1.34L6 6.69V3c0-.57.14-1.27.43-1.85m.9.45C7.1 2.02 7 2.57 7 3v4a.5.5 0 0 1-.28.45l-5.44 2.72a.5.5 0 0 0-.28.45v.79l5.42-.9a.5.5 0 0 1 .57.4l.5 3a.5.5 0 0 1-.14.44l-.64.65h2.58l-.64-.65a.5.5 0 0 1-.14-.43l.5-3a.5.5 0 0 1 .57-.41l5.42.9v-.8a.5.5 0 0 0-.28-.44L9.28 7.45A.5.5 0 0 1 9 7V3c0-.43-.11-.98-.32-1.4C8.46 1.16 8.2 1 8 1s-.46.16-.68.6"/></svg>