<svg xmlns="http://www.w3.org/2000/svg" width="16" height="16" viewBox="0 0 16 16"><path d="M8.5 5.5a.5.5 0 0 0-1 0v3.36l-1.43 2.38a.5.5 0 1 0 .86.52l1.5-2.5L8.5 9z"/><path d="M6.5 0a.5.5 0 0 0 0 1H7v1.07a7 7 0 0 0-3.27 12.47l-.6.6a.5.5 0 0 0 .7.71l.75-.74A7 7 0 0 0 8 16a7 7 0 0 0 3.42-.9l.75.75a.5.5 0 0 0 .7-.7l-.6-.6A7 7 0 0 0 9 2.06V1h.5a.5.5 0 0 0 0-1zm1.04 3.02a6 6 0 0 1 .92 0 6 6 0 1 1-.92 0M0 3.5c0 .75.33 1.43.86 1.89a8 8 0 0 1 3.53-3.53A2.5 2.5 0 0 0 0 3.5M13.5 1a2.5 2.5 0 0 0-1.89.86 8 8 0 0 1 3.53 3.53A2.5 2.5 0 0 0 13.5 1"/></svg>