<svg xmlns="http://www.w3.org/2000/svg" viewBox="0 0 16 16"><path d="M8.5 5.5a.5.5 0 0 0-1 0v3.36l-1.43 2.38a.5.5 0 1 0 .86.52l1.5-2.5A.5.5 0 0 0 8.5 9V5.5z"/><path d="M6.5 0a.5.5 0 0 0 0 1H7v1.07a7 7 0 0 0-3.27 12.47l-.6.6a.5.5 0 0 0 .7.71l.75-.74A6.97 6.97 0 0 0 8 16a6.97 6.97 0 0 0 3.42-.9l.75.75a.5.5 0 0 0 .7-.7l-.6-.6A7 7 0 0 0 9 2.06V1h.5a.5.5 0 0 0 0-1h-3zm1.04 3.02a6.1 6.1 0 0 1 .92 0 6 6 0 1 1-.92 0zM0 3.5c0 .75.33 1.43.86 1.89a8.04 8.04 0 0 1 3.53-3.53A2.5 2.5 0 0 0 0 3.5zM13.5 1a2.5 2.5 0 0 0-1.89.86 8.04 8.04 0 0 1 3.53 3.53A2.5 2.5 0 0 0 13.5 1z"/></svg>