<svg xmlns="http://www.w3.org/2000/svg" width="16" height="16" viewBox="0 0 16 16"><path d="M2.54 0H13.5a2.55 2.55 0 0 1 2.54 2.56v8.3s-.53-.05-2.98-.81l-1.48-.54-.95-.35a13 13 0 0 0 1.32-3.37H8.82V4.65h3.83V4H8.82V2.13H7.26c-.27 0-.27.27-.27.27v1.63H3.1v.63h3.88V5.8h-3.2v.63h6.2q-.35 1.19-.9 2.2c-2-.67-4.15-1.21-5.5-.88-.87.22-1.42.6-1.75 1-1.5 1.84-.42 4.63 2.74 4.63 1.87 0 3.68-1.05 5.07-2.78 2.08 1 6.37 2.74 6.39 2.74v.1A2.55 2.55 0 0 1 13.5 16H2.54A2.55 2.55 0 0 1 0 13.44V2.56A2.55 2.55 0 0 1 2.54 0"/><path d="M2.3 9.27c-1.2 1.07-.47 3.03 2 3.03 1.43 0 2.87-.92 4-2.4-1.61-.8-2.97-1.36-4.43-1.2a3 3 0 0 0-1.55.57"/></svg>