<svg xmlns="http://www.w3.org/2000/svg" width="16" height="16" viewBox="0 0 16 16" id="icon"><path d="M1.23 10.88H0l2.06-6.26h1.42l2.04 6.26H4.23l-.48-1.61H1.71zm1.53-5.06h-.05l-.75 2.53H3.5zm3.22 5.06V4.62h2.56c1.09 0 1.8.58 1.8 1.54 0 .76-.44 1.22-1.04 1.37v.06c.73.07 1.36.58 1.36 1.53 0 1.11-.89 1.76-2.13 1.76zm1.2-5.33v1.68h.8c.81 0 1.17-.31 1.17-.86 0-.5-.33-.82-.9-.82zm0 2.54v1.86h.9c.95 0 1.35-.31 1.35-.9s-.39-.96-1.1-.96zm5.09-.71v.77c0 1.16.49 1.8 1.35 1.8.7 0 1.16-.45 1.2-1.1H16v.13c-.06 1.2-1.05 2.02-2.4 2.02-1.64 0-2.57-1.07-2.57-2.85v-.78c0-1.77.94-2.87 2.58-2.87 1.34 0 2.34.85 2.39 2.09v.11h-1.17c-.05-.66-.52-1.15-1.21-1.15-.85 0-1.35.67-1.35 1.83"/></svg>