<svg xmlns="http://www.w3.org/2000/svg" width="16" height="16" viewBox="0 0 16 16" id="icon"><path d="M2.2 11.08c.77 0 1.2-.36 1.41-.74h.06V11h1.22V7.52c0-1.31-.95-1.78-2.11-1.78-1.42 0-2.03.68-2.09 1.53h1.22c.06-.32.3-.55.84-.55s.86.25.86.77v.46H2.35C1.15 7.95.5 8.57.5 9.5c0 .97.7 1.58 1.7 1.58m.42-.95c-.44 0-.84-.23-.84-.72 0-.4.27-.68.84-.68h.99v.54c0 .5-.44.86-.99.86m5.6.94c1.21 0 1.94-.87 1.94-2.31v-.7c0-1.44-.72-2.3-1.92-2.3-.75 0-1.33.34-1.5.88h-.07V3.98H5.38V11h1.27v-.8h.07c.2.54.77.87 1.5.87m-.43-1.03c-.66 0-1.12-.51-1.12-1.28v-.64c0-.82.42-1.34 1.1-1.34s1.08.51 1.08 1.41v.45c0 .9-.39 1.4-1.06 1.4m2.83-1.32c0 1.47.87 2.37 2.3 2.37s2.14-.77 2.16-1.76H13.9c-.06.43-.32.73-.94.73-.66 0-1.05-.51-1.05-1.35v-.62c0-.81.38-1.33 1.05-1.33.63 0 .88.42.92.77h1.18c-.02-.98-.78-1.8-2.14-1.8-1.4 0-2.3.92-2.3 2.34z"/></svg>