<svg xmlns="http://www.w3.org/2000/svg" width="16" height="16" viewBox="0 0 16 16" id="icon"><path d="M10.81 11.97c.16.08.36.07.5-.05l1.63-1.4c.17-.14.14-.37 0-.56l-.12-.18c-.34-.46-.67-.9-.67-1.79V4.36c0-1.27.01-2.42-.93-3.3C10.4.26 9.06 0 8.03 0 6.02 0 3.77.75 3.3 3.24c-.05.26.14.4.31.44l2.06.22c.19 0 .33-.2.36-.38.18-.86.9-1.27 1.7-1.27.44 0 .93.16 1.2.55s.25.9.25 1.37v.43l-.62.07c-1.11.11-2.4.24-3.36.67A3.6 3.6 0 0 0 2.94 8.8c0 2.2 1.39 3.3 3.17 3.3 1.5 0 2.33-.36 3.49-1.54l.16.24c.28.4.46.68 1.05 1.17M6.03 8.43c0-1.8 1.62-2.13 3.15-2.13v.57c0 .78 0 1.43-.4 2.13-.34.6-.87.96-1.46.96-.82 0-1.29-.62-1.29-1.53m-5.6 3.74c2.63 1.6 6.7 4.09 13.19 1 .28-.12.47.08.2.43-.28.36-2.5 2.4-6.25 2.4S.97 13.45.09 12.39c-.24-.28.04-.4.2-.3z"/><path d="M13.83 11.94c.56-.07 1.47-.02 1.64.2.14.18 0 .97-.23 1.54-.23.56-.57.96-.76 1.12s-.34.09-.23-.14c.1-.23.68-1.67.45-1.97-.21-.27-1.17-.17-1.62-.12h-.1l-.23.03c-.19.02-.24.02-.27-.03-.07-.21.78-.56 1.35-.63"/></svg>