<svg xmlns="http://www.w3.org/2000/svg" width="16" height="16" viewBox="0 0 16 16"><path d="m10.21 1.47.7-1.26q.06-.12-.05-.2-.13-.05-.2.07l-.7 1.27a5 5 0 0 0-1.95-.4q-1.04 0-1.96.4L5.35.06q-.07-.1-.2-.05-.11.07-.05.2l.7 1.25a4 4 0 0 0-1.68 1.48 3.7 3.7 0 0 0-.62 2.07h9q0-1.12-.62-2.07a4.3 4.3 0 0 0-1.67-1.48M6.22 3.3a.4.4 0 0 1-.27.11.4.4 0 0 1-.26-.1.4.4 0 0 1-.1-.27.4.4 0 0 1 .1-.27.4.4 0 0 1 .26-.1q.16 0 .27.1a.4.4 0 0 1 .11.27.4.4 0 0 1-.11.26m4.1 0a.4.4 0 0 1-.26.11.4.4 0 0 1-.27-.1.4.4 0 0 1-.11-.27q0-.16.11-.27a.4.4 0 0 1 .27-.1q.15 0 .26.1a.4.4 0 0 1 .1.27q0 .15-.1.26M3.5 11.77q0 .44.31.75.31.3.76.3h.76v2.19q0 .41.3.7a1 1 0 0 0 .7.29 1 1 0 0 0 .71-.29 1 1 0 0 0 .3-.7v-2.18h1.34V15q0 .41.29.7a1 1 0 0 0 .7.29 1 1 0 0 0 .72-.29 1 1 0 0 0 .29-.7v-2.18h.76q.44 0 .75-.31.3-.3.31-.75v-6.4h-9zM14 5.18a1 1 0 0 0-.7.28 1 1 0 0 0-.3.69v4.06q0 .4.3.69a1 1 0 0 0 .7.28q.41 0 .7-.28a1 1 0 0 0 .3-.7V6.16a1 1 0 0 0-.3-.69 1 1 0 0 0-.7-.28m-12.7.29a1 1 0 0 1 .7-.29q.41 0 .7.29a1 1 0 0 1 .3.68v4.06a1 1 0 0 1-.29.69 1 1 0 0 1-.7.28 1 1 0 0 1-.72-.28 1 1 0 0 1-.29-.7V6.16q0-.4.3-.68"/></svg>