<svg viewBox="0 0 16 16"><path d="m10.21 1.47.7-1.26c.04-.08.02-.15-.05-.2-.09-.03-.15-.01-.2.07l-.7 1.27A4.83 4.83 0 0 0 8 .95c-.68 0-1.33.13-1.95.4L5.35.06C5.3 0 5.24-.02 5.15.02c-.07.05-.09.11-.05.2l.7 1.25a4.25 4.25 0 0 0-1.68 1.48 3.7 3.7 0 0 0-.62 2.07h9c0-.75-.2-1.44-.62-2.07a4.27 4.27 0 0 0-1.67-1.48ZM6.22 3.3a.37.37 0 0 1-.27.11.35.35 0 0 1-.26-.1.37.37 0 0 1-.1-.27.37.37 0 0 1 .1-.27.35.35 0 0 1 .26-.1c.1 0 .2.03.27.1a.36.36 0 0 1 .11.27.36.36 0 0 1-.11.26Zm4.1 0a.35.35 0 0 1-.26.11.37.37 0 0 1-.27-.1.36.36 0 0 1-.11-.27c0-.1.04-.2.11-.27a.37.37 0 0 1 .27-.1c.1 0 .19.03.26.1a.37.37 0 0 1 .1.27c0 .1-.03.19-.1.26ZM3.5 11.77a1.04 1.04 0 0 0 1.07 1.05h.76v2.19c0 .28.1.5.3.7a.96.96 0 0 0 .7.29.97.97 0 0 0 .71-.29.95.95 0 0 0 .3-.7v-2.18h1.34V15c0 .28.1.5.29.7a.97.97 0 0 0 .7.29.97.97 0 0 0 .72-.29.95.95 0 0 0 .29-.7v-2.18h.76a1 1 0 0 0 .75-.31c.2-.2.31-.46.31-.75v-6.4h-9v6.4ZM14 5.18a.98.98 0 0 0-.7.28.91.91 0 0 0-.3.69v4.06c0 .27.1.5.3.69a.97.97 0 0 0 .7.28 1 1 0 0 0 .7-.28.92.92 0 0 0 .3-.7V6.16a.91.91 0 0 0-.3-.69 1 1 0 0 0-.7-.28Zm-12.7.29a.98.98 0 0 1 .7-.29c.28 0 .51.1.7.29a.91.91 0 0 1 .3.68v4.06a.93.93 0 0 1-.29.69.97.97 0 0 1-.7.28.99.99 0 0 1-.72-.28.92.92 0 0 1-.29-.7V6.16c0-.27.1-.5.3-.68Z"/></svg>