<svg xmlns="http://www.w3.org/2000/svg" width="16" height="16" viewBox="0 0 16 16"><path d="M11.18 0c-.03-.03-1.26.02-2.32 1.18-1.07 1.16-.9 2.48-.88 2.52s1.52.08 2.47-1.26.77-2.4.73-2.43m3.32 11.73c-.05-.1-2.33-1.23-2.12-3.42s1.68-2.79 1.7-2.86-.6-.79-1.25-1.15a4 4 0 0 0-1.57-.44c-.1 0-.48-.1-1.25.12-.5.14-1.65.59-1.97.6-.31.02-1.25-.52-2.26-.66a3.4 3.4 0 0 0-1.83.33c-.49.2-1.42.75-2.07 2.24-.65 1.48-.31 3.83-.07 4.56s.63 1.92 1.27 2.8c.58.98 1.34 1.66 1.66 1.9s1.22.38 1.85.06c.5-.3 1.4-.49 1.76-.47a5 5 0 0 1 1.78.54c.57.2 1.11.11 1.66-.1.54-.23 1.32-1.07 2.23-2.77q.52-1.18.48-1.28"/><path d="M11.18 0c-.03-.03-1.26.02-2.32 1.18-1.07 1.16-.9 2.48-.88 2.52s1.52.08 2.47-1.26.77-2.4.73-2.43m3.32 11.73c-.05-.1-2.33-1.23-2.12-3.42s1.68-2.79 1.7-2.86-.6-.79-1.25-1.15a4 4 0 0 0-1.57-.44c-.1 0-.48-.1-1.25.12-.5.14-1.65.59-1.97.6-.31.02-1.25-.52-2.26-.66a3.4 3.4 0 0 0-1.83.33c-.49.2-1.42.75-2.07 2.24-.65 1.48-.31 3.83-.07 4.56s.63 1.92 1.27 2.8c.58.98 1.34 1.66 1.66 1.9s1.22.38 1.85.06c.5-.3 1.4-.49 1.76-.47a5 5 0 0 1 1.78.54c.57.2 1.11.11 1.66-.1.54-.23 1.32-1.07 2.23-2.77q.52-1.18.48-1.28"/></svg>