<svg xmlns="http://www.w3.org/2000/svg" width="16" height="16" viewBox="0 0 16 16" id="icon"><path fill-rule="evenodd" d="M11 0h1.05a7 7 0 0 1 1.05.1q.52.09 1 .33a3.4 3.4 0 0 1 1.47 1.47q.24.48.33 1 .08.52.1 1.05v8.1q-.02.53-.1 1.05a4 4 0 0 1-.33 1 3.4 3.4 0 0 1-1.47 1.47 4 4 0 0 1-1 .33 7 7 0 0 1-1.05.1h-8.1a7 7 0 0 1-1.05-.1 4 4 0 0 1-1-.33A3.4 3.4 0 0 1 .43 14.1a4 4 0 0 1-.33-1 7 7 0 0 1-.1-1.05v-8.1q.02-.52.1-1.05a4 4 0 0 1 .33-1A3.4 3.4 0 0 1 1.9.43a4 4 0 0 1 1-.33A7 7 0 0 1 3.95 0h1.06zm-.11 2.52-4.76.96a1 1 0 0 0-.3.13.5.5 0 0 0-.16.31v6.11q.01.21-.11.4-.14.14-.35.17l-.3.06c-.4.08-.66.14-.89.23a1.4 1.4 0 0 0-.52.33 1.3 1.3 0 0 0-.33 1 1.25 1.25 0 0 0 .97 1.08c.24.05.5.03.86-.04q.3-.05.56-.2a1.4 1.4 0 0 0 .43-.41 2 2 0 0 0 .24-.55q.05-.3.05-.59V6.35c0-.28.08-.35.3-.4l4.14-.84q.38-.09.38.3v3.52c0 .14 0 .28-.1.4q-.15.14-.35.17l-.3.06c-.4.08-.66.14-.89.23a1.4 1.4 0 0 0-.52.33 1.3 1.3 0 0 0-.34 1q.06.46.4.79a1 1 0 0 0 .58.3c.24.04.5.02.86-.05q.3-.05.56-.2a1.4 1.4 0 0 0 .43-.41q.18-.25.24-.55a3 3 0 0 0 .04-.59V2.87c0-.28-.14-.45-.4-.42z"/></svg>