<svg viewBox="0 0 16 16"><path d="M11.18 0c-.03-.03-1.26.02-2.32 1.18a3.19 3.19 0 0 0-.88 2.52 2.9 2.9 0 0 0 2.47-1.26c.96-1.35.77-2.4.73-2.43Zm3.32 11.74c-.05-.1-2.33-1.23-2.12-3.42.22-2.19 1.68-2.79 1.7-2.86a3.8 3.8 0 0 0-1.25-1.15 3.7 3.7 0 0 0-1.57-.44c-.1 0-.48-.1-1.25.12-.5.14-1.65.59-1.97.6-.31.02-1.25-.52-2.26-.66a3.38 3.38 0 0 0-1.83.33c-.49.2-1.42.75-2.07 2.24-.65 1.48-.31 3.83-.07 4.56.24.73.63 1.92 1.27 2.8a6.76 6.76 0 0 0 1.66 1.9 2.1 2.1 0 0 0 1.85.06c.5-.3 1.4-.49 1.76-.47a4.5 4.5 0 0 1 1.78.54c.57.2 1.11.11 1.66-.1.54-.23 1.32-1.07 2.23-2.77.35-.79.5-1.21.48-1.28Z"/><path d="M11.18 0c-.03-.03-1.26.02-2.32 1.18a3.19 3.19 0 0 0-.88 2.52 2.9 2.9 0 0 0 2.47-1.26c.96-1.35.77-2.4.73-2.43Zm3.32 11.74c-.05-.1-2.33-1.23-2.12-3.42.22-2.19 1.68-2.79 1.7-2.86a3.8 3.8 0 0 0-1.25-1.15 3.7 3.7 0 0 0-1.57-.44c-.1 0-.48-.1-1.25.12-.5.14-1.65.59-1.97.6-.31.02-1.25-.52-2.26-.66a3.38 3.38 0 0 0-1.83.33c-.49.2-1.42.75-2.07 2.24-.65 1.48-.31 3.83-.07 4.56.24.73.63 1.92 1.27 2.8a6.76 6.76 0 0 0 1.66 1.9 2.1 2.1 0 0 0 1.85.06c.5-.3 1.4-.49 1.76-.47a4.5 4.5 0 0 1 1.78.54c.57.2 1.11.11 1.66-.1.54-.23 1.32-1.07 2.23-2.77.35-.79.5-1.21.48-1.28Z"/></svg>