<svg xmlns="http://www.w3.org/2000/svg" width="16" height="16" viewBox="0 0 16 16" id="icon"><path fill-rule="evenodd" d="M2.85 15.85A.5.5 0 0 1 2 15.5V14H.5a.5.5 0 0 1-.35-.85l1.5-1.5A.5.5 0 0 1 2 11.5h1.8l3.1-3.1a.5.5 0 1 1 .7.7l-3.1 3.1V14a.5.5 0 0 1-.15.35zM16 3.5a.5.5 0 0 1-.85.35L14 2.71l-1 1q.34.37.6.85c.56 1.1.58 2.52-.22 4.09s-2.4 3.29-5.1 5.08l-.28.18-.28-.18a24 24 0 0 1-1.92-1.4L8.31 9.8a1.5 1.5 0 0 0-2.12-2.12l-2.53 2.53a9 9 0 0 1-1.04-1.57c-.8-1.58-.78-3-.21-4.1C3.43 2.58 6.18 1.82 8 3.24a3.7 3.7 0 0 1 4.21-.15L13.3 2 12.15.85A.5.5 0 0 1 12.5 0h3a.5.5 0 0 1 .5.5z"/></svg>