<svg xmlns="http://www.w3.org/2000/svg" width="16" height="16" viewBox="0 0 16 16"><path fill-rule="evenodd" d="M7.65.15a.5.5 0 0 1 .7 0l2 2a.5.5 0 0 1-.7.7L8.5 1.71V5.5a.5.5 0 0 1-1 0V1.7L6.35 2.86a.5.5 0 1 1-.7-.7zM8 10a.5.5 0 0 1 .5.5v3.8l1.15-1.15a.5.5 0 0 1 .7.7l-2 2a.5.5 0 0 1-.7 0l-2-2a.5.5 0 0 1 .7-.7l1.15 1.14V10.5A.5.5 0 0 1 8 10M.15 8.35a.5.5 0 0 1 0-.7l2-2a.5.5 0 1 1 .7.7L1.71 7.5H5.5a.5.5 0 0 1 0 1H1.7l1.15 1.15a.5.5 0 0 1-.7.7zM10 8a.5.5 0 0 1 .5-.5h3.8l-1.15-1.15a.5.5 0 0 1 .7-.7l2 2a.5.5 0 0 1 0 .7l-2 2a.5.5 0 0 1-.7-.7l1.14-1.15H10.5A.5.5 0 0 1 10 8"/></svg>