<svg xmlns="http://www.w3.org/2000/svg" width="16" height="16" viewBox="0 0 16 16"><path fill-rule="evenodd" d="M2.85 15.85A.5.5 0 0 1 2 15.5V14H.5a.5.5 0 0 1-.35-.85l1.5-1.5A.5.5 0 0 1 2 11.5h1.8l.52-.53a10 10 0 0 1-1.7-2.32c-.8-1.57-.78-3-.21-4.1C3.43 2.58 6.18 1.82 8 3.24a3.7 3.7 0 0 1 4.21-.15L13.3 2 12.15.85A.5.5 0 0 1 12.5 0h3a.5.5 0 0 1 .5.5v3a.5.5 0 0 1-.85.35L14 2.71l-1 1q.34.37.6.85c.56 1.1.58 2.52-.22 4.09s-2.4 3.29-5.1 5.08l-.28.18-.28-.18a22 22 0 0 1-2.68-2.06l-.54.54V14a.5.5 0 0 1-.15.35zm2.9-4.89A20 20 0 0 0 8 12.71c2.46-1.67 3.83-3.2 4.49-4.51.68-1.34.6-2.42.21-3.19-.81-1.6-3.08-2.05-4.34-.76L8 4.62l-.36-.37c-1.26-1.3-3.53-.83-4.34.76-.4.77-.47 1.85.21 3.19a9 9 0 0 0 1.52 2.06L6.9 8.4a.5.5 0 1 1 .7.7z"/></svg>