<svg xmlns="http://www.w3.org/2000/svg" width="16" height="16" viewBox="0 0 16 16" id="icon"><path fill-rule="evenodd" d="M5.83 10.17a.5.5 0 0 0-.7 0l-4.1 4.1V11.5a.5.5 0 0 0-1 0v3.98a.5.5 0 0 0 .5.5H4.5a.5.5 0 0 0 0-1H1.73l4.1-4.1a.5.5 0 0 0 0-.7m4.34 0a.5.5 0 0 1 .7 0l4.1 4.09V11.5a.5.5 0 1 1 1 0v3.98a.5.5 0 0 1-.5.5H11.5a.5.5 0 0 1 0-1h2.77l-4.1-4.1a.5.5 0 0 1 0-.7m0-4.35a.5.5 0 0 0 .7 0l4.1-4.1V4.5a.5.5 0 1 0 1 0V.53a.5.5 0 0 0-.5-.5H11.5a.5.5 0 0 0 0 1h2.77l-4.1 4.1a.5.5 0 0 0 0 .7m-4.34 0a.5.5 0 0 1-.7 0l-4.1-4.1V4.5a.5.5 0 0 1-1 0V.53a.5.5 0 0 1 .5-.5H4.5a.5.5 0 0 1 0 1H1.73l4.1 4.1a.5.5 0 0 1 0 .7"/></svg>