<svg xmlns="http://www.w3.org/2000/svg" width="16" height="16" viewBox="0 0 16 16"><path d="M13.1 7.22c0-2.96-2.24-5.03-5.48-5.03-3.35 0-5.64 2.32-5.64 5.7 0 3.5 2.23 5.71 5.76 5.71a7 7 0 0 0 2.3-.33v-.87c-.43.2-1.35.33-2.29.33-2.92 0-4.8-1.88-4.8-4.8 0-2.84 1.91-4.88 4.58-4.88 2.74 0 4.61 1.69 4.61 4.16 0 1.68-.55 2.77-1.41 2.77q-.76-.02-.78-.76V5.2H8.92v.83h-.1a1.7 1.7 0 0 0-1.6-.96c-1.4 0-2.38 1.16-2.38 2.82 0 1.74.95 2.9 2.37 2.9.8 0 1.42-.38 1.71-1.08h.11c.08.67.7 1.15 1.5 1.15 1.58 0 2.58-1.42 2.58-3.65zm-7.17.7c0-1.2.54-1.9 1.46-1.9.93 0 1.52.74 1.52 1.9s-.6 1.92-1.54 1.92c-.9 0-1.44-.72-1.44-1.91"/></svg>