<svg xmlns="http://www.w3.org/2000/svg" width="16" height="16" viewBox="0 0 16 16"><path d="M5 13h6v-3h-1v.5a.5.5 0 0 1-1 0V10H5z"/><path d="M6 2v.34A6 6 0 0 0 2 8v1.2l-1.17.58A1.5 1.5 0 0 0 0 11.12v2.38A1.5 1.5 0 0 0 1.5 15h1c.46.6 1.18 1 2 1h7c.82 0 1.54-.4 2-1h1a1.5 1.5 0 0 0 1.5-1.5v-2.38a1.5 1.5 0 0 0-.83-1.34L14 9.19V8a6 6 0 0 0-4-5.66V2a2 2 0 1 0-4 0m2-1a1 1 0 0 1 1 1v.08a6 6 0 0 0-2 0V2a1 1 0 0 1 1-1m0 3a4 4 0 0 1 3.96 3.43.5.5 0 1 1-.99.14 3 3 0 0 0-5.94 0 .5.5 0 1 1-.99-.14A4 4 0 0 1 8 4M4.5 9h7a.5.5 0 0 1 .5.5v4a.5.5 0 0 1-.5.5h-7a.5.5 0 0 1-.5-.5v-4a.5.5 0 0 1 .5-.5"/></svg>