<svg xmlns="http://www.w3.org/2000/svg" width="16" height="16" viewBox="0 0 16 16" id="icon"><path d="M4.04 7.43a4 4 0 0 1 7.92 0 .5.5 0 1 1-.99.14 3 3 0 0 0-5.94 0 .5.5 0 1 1-.99-.14"/><path fill-rule="evenodd" d="M4 9.5a.5.5 0 0 1 .5-.5h7a.5.5 0 0 1 .5.5v4a.5.5 0 0 1-.5.5h-7a.5.5 0 0 1-.5-.5zm1 .5v3h6v-3h-1v.5a.5.5 0 0 1-1 0V10z"/><path d="M6 2.34V2a2 2 0 1 1 4 0v.34A6 6 0 0 1 14 8v1.2l1.17.58a1.5 1.5 0 0 1 .83 1.34v2.38a1.5 1.5 0 0 1-1.5 1.5h-1c-.46.6-1.18 1-2 1h-7a2.5 2.5 0 0 1-2-1h-1A1.5 1.5 0 0 1 0 13.5v-2.38a1.5 1.5 0 0 1 .83-1.34L2 9.19V8a6 6 0 0 1 4-5.66M7 2v.08a6 6 0 0 1 2 0V2a1 1 0 0 0-2 0M3 13.5A1.5 1.5 0 0 0 4.5 15h7a1.5 1.5 0 0 0 1.5-1.5V8A5 5 0 0 0 3 8zm-1-3.19-.72.36a.5.5 0 0 0-.28.45v2.38a.5.5 0 0 0 .5.5H2zm12 0V14h.5a.5.5 0 0 0 .5-.5v-2.38a.5.5 0 0 0-.28-.45z"/></svg>