<svg xmlns="http://www.w3.org/2000/svg" width="16" height="16" viewBox="0 0 16 16"><path d="M4 9.5a.5.5 0 0 1 .5-.5h7a.5.5 0 0 1 .5.5v4a.5.5 0 0 1-.5.5h-7a.5.5 0 0 1-.5-.5zm1 .5v3h6v-3h-1v.5a.5.5 0 0 1-1 0V10z"/><path d="M8 0a2 2 0 0 0-2 2H3.5a2 2 0 0 0-2 2v1c0 .52.2 1 .52 1.35L2 6.5V14a2 2 0 0 0 2 2h8a2 2 0 0 0 2-2V6.5l-.02-.15A2 2 0 0 0 14.5 5V4a2 2 0 0 0-2-2H10a2 2 0 0 0-2-2m0 1a1 1 0 0 0-1 1h2a1 1 0 0 0-1-1M3 14V6.94q.24.06.5.06h4v.5a.5.5 0 0 0 1 0V7h4q.26 0 .5-.06V14a1 1 0 0 1-1 1H4a1 1 0 0 1-1-1m9.5-11a1 1 0 0 1 1 1v1a1 1 0 0 1-1 1h-9a1 1 0 0 1-1-1V4a1 1 0 0 1 1-1z"/></svg>