<svg xmlns="http://www.w3.org/2000/svg" width="16" height="16" viewBox="0 0 16 16" id="icon"><path d="M4.04 7.43a4 4 0 0 1 7.92 0 .5.5 0 1 1-.99.14 3 3 0 0 0-5.94 0 .5.5 0 1 1-.99-.14M4 9.5a.5.5 0 0 1 .5-.5h7a.5.5 0 0 1 .5.5v4a.5.5 0 0 1-.5.5h-7a.5.5 0 0 1-.5-.5zm1 .5v3h6v-3h-1v.5a.5.5 0 0 1-1 0V10z"/><path d="M6 2.34V2a2 2 0 1 1 4 0v.34q.7.26 1.3.65l.42-1.24a1 1 0 0 1 1.75-.29l.77 1.03a1 1 0 0 1 .15.92l-.8 2.4q.4 1.03.41 2.19v5.5a2.5 2.5 0 0 1-2.5 2.5h-7A2.5 2.5 0 0 1 2 13.5V8a6 6 0 0 1 .41-2.19l-.8-2.4a1 1 0 0 1 .15-.92l.77-1.03a1 1 0 0 1 1.75.29l.41 1.24A6 6 0 0 1 6 2.34M7 2v.08a6 6 0 0 1 2 0V2a1 1 0 1 0-2 0m5.94 2.6.5-1.51-.77-1.03-.53 1.6q.45.43.8.94m-9.08-.94-.53-1.6-.77 1.03.5 1.5q.35-.5.8-.93M8 3a5 5 0 0 0-5 5v5.5A1.5 1.5 0 0 0 4.5 15h7a1.5 1.5 0 0 0 1.5-1.5V8a5 5 0 0 0-5-5"/></svg>