<svg xmlns="http://www.w3.org/2000/svg" viewBox="0 0 16 16"><path fill-rule="evenodd" d="M8.48 10.9A5.94 5.94 0 0 0 13 5 5 5 0 0 0 3 5a5.94 5.94 0 0 0 4.52 5.9l-.24.49a.25.25 0 1 0 .44.22l.04-.08c.01.17.03.32.06.45.06.35.2.62.44 1.1l.02.03c.2.42.18.85.05 1.25-.14.4-.37.75-.54 1a.25.25 0 0 0 .42.28c.17-.26.43-.65.59-1.12.16-.48.21-1.05-.08-1.63a4 4 0 0 1-.42-1 2.38 2.38 0 0 1-.03-.3v.02a.25.25 0 1 0 .45-.22l-.24-.49ZM4.35 3.36A4 4 0 0 1 7.5 1.03c.27-.03.5.2.5.47 0 .28-.23.5-.5.54a3 3 0 0 0-2.17 1.62.6.6 0 0 1-.53.34c-.35 0-.6-.33-.46-.64Z"/></svg>