<svg xmlns="http://www.w3.org/2000/svg" viewBox="0 0 16 16"><path fill-rule="evenodd" d="m8 2.42-.72-.74C6.15.52 4.04.91 3.28 2.4c-.36.69-.46 1.71.23 3.06.65 1.3 2.01 2.86 4.49 4.58 2.48-1.72 3.84-3.29 4.5-4.57.68-1.36.58-2.38.23-3.07C11.96.9 9.85.52 8.72 1.68L8 2.42Zm-.49 8.5c-10.78-7.44-3-13.15.36-10.06L8 .99l.13-.13c3.36-3.1 11.14 2.62.36 10.06l.23.47a.25.25 0 1 1-.44.22l-.01-.01c0 .1.02.2.04.29.05.26.16.48.41 1 .3.58.24 1.15.08 1.63-.16.47-.42.86-.59 1.11a.25.25 0 1 1-.42-.27c.17-.25.4-.6.54-1 .13-.4.16-.83-.05-1.25l-.02-.03c-.24-.48-.38-.75-.44-1.1a3.18 3.18 0 0 1-.06-.45l-.04.08a.25.25 0 1 1-.44-.22l.23-.47Zm-1.5-8.86a1.62 1.62 0 0 0-1.85.8c-.13.26-.24.69-.08 1.33.07.25.42.2.49-.04.21-.7.63-1.45 1.36-1.7.22-.06.3-.33.08-.39Z"/></svg>