<svg xmlns="http://www.w3.org/2000/svg" width="16" height="16" viewBox="0 0 16 16" id="icon"><path fill-rule="evenodd" d="M8.49 10.92C19.41 3.38 11.28-2.38 8 .99c-3.28-3.38-11.41 2.4-.49 9.93l-.23.47a.25.25 0 1 0 .44.22l.04-.08q.01.25.06.45c.06.35.2.62.44 1.1l.02.03c.2.42.18.85.05 1.25-.14.4-.37.75-.54 1a.25.25 0 0 0 .42.28c.17-.26.43-.65.59-1.12s.21-1.05-.08-1.63a4 4 0 0 1-.42-1l-.03-.3v.02a.25.25 0 1 0 .45-.22zM6.73 1.27A2.6 2.6 0 0 0 3.27 2.4a2.8 2.8 0 0 0-.2 1.85c.06.27.47.2.53-.07.28-1.25 1.17-2.46 2.99-2.52.23-.01.34-.28.14-.4"/></svg>