<svg xmlns="http://www.w3.org/2000/svg" viewBox="0 0 16 16"><path fill-rule="evenodd" d="M8 9.98c2.4-.47 4-2.5 4-4.98a4 4 0 0 0-8 0c0 2.48 1.6 4.5 4 4.98ZM13 5a5.94 5.94 0 0 1-4.52 5.9l.24.49a.25.25 0 1 1-.44.22l-.01-.01c0 .1.02.2.04.29.05.26.16.48.41 1 .3.58.24 1.15.08 1.63-.16.47-.42.86-.59 1.11a.25.25 0 1 1-.42-.27c.17-.25.4-.6.54-1 .13-.4.16-.83-.05-1.25l-.02-.03c-.24-.48-.38-.75-.44-1.1a3.18 3.18 0 0 1-.06-.45l-.04.08a.25.25 0 1 1-.44-.22l.24-.49A5.94 5.94 0 0 1 3 5a5 5 0 0 1 10 0Zm-6.94-.5a2 2 0 0 1 1.45-1.44C7.77 3 8 2.78 8 2.5s-.23-.5-.5-.46A3 3 0 0 0 5.04 4.5c-.04.27.18.5.46.5s.5-.23.56-.5Z"/></svg>