<svg xmlns="http://www.w3.org/2000/svg" viewBox="0 0 16 16"><path d="M14.12 1.88a3 3 0 0 0-4.24 0L8.73 3.03 13 7.29l1.13-1.17a3 3 0 0 0 0-4.24ZM12.3 8 8.03 3.73l-4.3 4.3L8 12.3 12.3 8Zm-5 5L3.03 8.73 1.88 9.88a3 3 0 0 0 4.24 4.24l1.17-1.13ZM2.68 7.67l6.5-6.5a4 4 0 0 1 5.65 5.65l-1.48 1.52-5 5.01-1.53 1.47a4 4 0 0 1-5.65-5.66l1.5-1.5Z"/><path d="M5.56 7.65a.5.5 0 1 1-.7.7.5.5 0 0 1 .7-.7Zm1.42-1.42a.5.5 0 1 1-.71.7.5.5 0 0 1 .7-.7Zm1.41-1.41a.5.5 0 1 1-.7.7.5.5 0 0 1 .7-.7Zm0 5.65a.5.5 0 1 1-.7.71.5.5 0 0 1 .7-.7ZM9.8 9.06a.5.5 0 1 1-.7.7.5.5 0 0 1 .7-.7Zm1.42-1.41a.5.5 0 1 1-.7.7.5.5 0 0 1 .7-.7ZM6.97 9.06a.5.5 0 1 1-.7.7.5.5 0 0 1 .7-.7ZM8.4 7.65a.5.5 0 1 1-.7.7.5.5 0 0 1 .7-.7Zm1.4-1.42a.5.5 0 1 1-.7.7.5.5 0 0 1 .7-.7Z"/></svg>