<svg xmlns="http://www.w3.org/2000/svg" width="16" height="16" viewBox="0 0 16 16"><path d="M14.12 1.88a3 3 0 0 0-4.24 0L8.73 3.03 13 7.29l1.13-1.17a3 3 0 0 0 0-4.24M12.3 8 8.03 3.73l-4.3 4.3L8 12.3zm-5 5L3.03 8.73 1.88 9.88a3 3 0 0 0 4.24 4.24zM2.68 7.67l6.5-6.5a4 4 0 0 1 5.65 5.65l-1.48 1.52-5 5.01-1.53 1.47a4 4 0 0 1-5.65-5.66z"/><path d="M5.56 7.65a.5.5 0 1 1-.7.7.5.5 0 0 1 .7-.7m1.42-1.42a.5.5 0 1 1-.71.7.5.5 0 0 1 .7-.7M8.4 4.82a.5.5 0 1 1-.7.7.5.5 0 0 1 .7-.7m0 5.65a.5.5 0 1 1-.7.71.5.5 0 0 1 .7-.7m1.4-1.41a.5.5 0 1 1-.7.7.5.5 0 0 1 .7-.7m1.42-1.41a.5.5 0 1 1-.7.7.5.5 0 0 1 .7-.7m-4.25 1.4a.5.5 0 1 1-.7.7.5.5 0 0 1 .7-.7M8.4 7.65a.5.5 0 1 1-.7.7.5.5 0 0 1 .7-.7m1.4-1.42a.5.5 0 1 1-.7.7.5.5 0 0 1 .7-.7"/></svg>