<svg xmlns="http://www.w3.org/2000/svg" width="16" height="16" viewBox="0 0 16 16" id="icon"><path d="m2.68 7.68 6.49-6.5a4 4 0 0 1 5.66 5.65l-1.48 1.52-5 5.01-1.53 1.47a4 4 0 0 1-5.65-5.66zm5.71-2.86a.5.5 0 1 0-.7.7.5.5 0 0 0 .7-.7M6.97 6.94a.5.5 0 1 0-.7-.7.5.5 0 0 0 .7.7M5.56 8.35a.5.5 0 1 0-.7-.7.5.5 0 0 0 .7.7m2.83 2.83a.5.5 0 1 0-.7-.7.5.5 0 0 0 .7.7M9.8 9.06a.5.5 0 1 0-.7.7.5.5 0 0 0 .7-.7m1.42-.7a.5.5 0 1 0-.71-.71.5.5 0 0 0 .7.7Zm-4.25.7a.5.5 0 1 0-.7.7.5.5 0 0 0 .7-.7m1.42-.7a.5.5 0 1 0-.7-.71.5.5 0 0 0 .7.7M9.8 6.23a.5.5 0 1 0-.7.7.5.5 0 0 0 .7-.7M8.65 3.35l4 4 .7-.7-4-4zm-1.3 9.3-4-4-.7.7 4 4z"/></svg>