<svg xmlns="http://www.w3.org/2000/svg" viewBox="0 0 16 16"><path d="M5.07 1.24a.5.5 0 0 1 .86.52L3.38 6h9.24l-2.55-4.24a.5.5 0 1 1 .86-.52L13.78 6h1.72a.5.5 0 0 1 .5.5v2a.5.5 0 0 1-.5.5H15v5a2 2 0 0 1-2 2H3a2 2 0 0 1-2-2V9H.5a.5.5 0 0 1-.5-.5v-2A.5.5 0 0 1 .5 6h1.72l2.85-4.76zM3.5 10.5a.5.5 0 1 0-1 0v3a.5.5 0 0 0 1 0v-3zm2.5 0a.5.5 0 1 0-1 0v3a.5.5 0 0 0 1 0v-3zm2.5 0a.5.5 0 1 0-1 0v3a.5.5 0 0 0 1 0v-3zm2.5 0a.5.5 0 1 0-1 0v3a.5.5 0 0 0 1 0v-3zm2.5 0a.5.5 0 1 0-1 0v3a.5.5 0 0 0 1 0v-3z"/></svg>