<svg xmlns="http://www.w3.org/2000/svg" viewBox="0 0 16 16"><path d="M9.59 2.57a.5.5 0 0 1 .22.58L8.68 6.83h1.99a.5.5 0 0 1 .36.84L5.7 13.34a.5.5 0 0 1-.84-.49l1.13-3.68H4a.5.5 0 0 1-.36-.85l5.33-5.66a.5.5 0 0 1 .62-.1z"/><path d="M2 4h4.33L5.4 5H2a1 1 0 0 0-1 1v4a1 1 0 0 0 1 1h2.38l-.3 1H2a2 2 0 0 1-2-2V6a2 2 0 0 1 2-2z"/><path d="M2 6h2.45L2.91 7.64A1.5 1.5 0 0 0 3.3 10H2V6zm8.6-2-.31 1H12a1 1 0 0 1 1 1v4a1 1 0 0 1-1 1H9.28l-.95 1H12a2 2 0 0 0 2-2V6a2 2 0 0 0-2-2h-1.4z"/><path d="M12 10h-1.78l1.54-1.64c.1-.1.18-.22.24-.34V10zm0-3.35V6h-.65a1.5 1.5 0 0 1 .65.65zM16 8a1.5 1.5 0 0 1-1.5 1.5v-3A1.5 1.5 0 0 1 16 8z"/></svg>