<svg xmlns="http://www.w3.org/2000/svg" width="16" height="16" viewBox="0 0 16 16" id="icon"><path d="M9.5 3a.5.5 0 0 0 0 1H13V3zm2 2a.5.5 0 0 0 0 1H13V5zm-2 2a.5.5 0 0 0 0 1H13V7zm2 2a.5.5 0 0 0 0 1H13V9zm-2 2a.5.5 0 0 0 0 1H13v-1zm2 2a.5.5 0 0 0 0 1H13v-1z"/><path d="M.5 0a.5.5 0 0 0-.35.85l.12.12A2.5 2.5 0 0 1 1 2.74V14a2 2 0 0 0 2 2h10a2 2 0 0 0 2-2V2.74a2.5 2.5 0 0 1 .73-1.76l.12-.13A.5.5 0 0 0 15.5 0zM2 2.74A3.5 3.5 0 0 0 1.53 1h12.93A3.5 3.5 0 0 0 14 2.74V14a1 1 0 0 1-1 1H3a1 1 0 0 1-1-1z"/></svg>