<svg xmlns="http://www.w3.org/2000/svg" viewBox="0 0 16 16"><path d="M4.65 3c.46 0 .9.04 1.28.14.4.07.71.22 1 .4.28.17.5.42.64.74s.22.7.22 1.14c0 .5-.11.92-.36 1.24-.22.32-.57.6-1 .81.6.18 1.07.5 1.35.93.28.42.46.95.46 1.56 0 .5-.1.92-.28 1.28a2.32 2.32 0 0 1-.79.88c-.32.22-.7.4-1.13.5a5.33 5.33 0 0 1-1.28.18H0V3h4.65zm-.28 3.98c.39 0 .7-.1.96-.29.24-.18.35-.5.35-.88 0-.22-.03-.43-.1-.57a.98.98 0 0 0-.32-.36 1.84 1.84 0 0 0-.47-.17c-.17-.04-.35-.04-.56-.04H2.17v2.31h2.2zm.1 4.2c.22 0 .43-.04.61-.08.18-.03.36-.1.5-.22s.25-.21.35-.39c.07-.17.14-.39.14-.64 0-.5-.14-.85-.42-1.1a1.87 1.87 0 0 0-1.14-.32H2.17v2.74h2.3zm6.86-.04c.29.28.71.42 1.28.42.39 0 .75-.1 1.03-.28.29-.22.46-.43.53-.64h1.74a3.5 3.5 0 0 1-1.28 1.84c-.56.36-1.24.57-2.06.57a4.13 4.13 0 0 1-1.52-.28 2.83 2.83 0 0 1-1.14-.79 2.85 2.85 0 0 1-.71-1.17 4.22 4.22 0 0 1-.25-1.53 3.87 3.87 0 0 1 1-2.7c.32-.32.7-.6 1.13-.78a4.02 4.02 0 0 1 1.5-.28c.6 0 1.13.1 1.6.35a3 3 0 0 1 1.1.96c.28.39.5.85.64 1.35.07.5.1 1 .07 1.56h-5.15a2 2 0 0 0 .5 1.4zm2.24-3.74a1.53 1.53 0 0 0-1.1-.39c-.32 0-.57.07-.78.18-.22.1-.36.25-.5.39a.96.96 0 0 0-.25.5c-.03.17-.07.32-.07.46h3.2a1.9 1.9 0 0 0-.5-1.14zm-3.12-3.72h3.97v.95h-3.98v-.95z"/></svg>