<svg xmlns="http://www.w3.org/2000/svg" width="16" height="16" viewBox="0 0 16 16"><path d="M4.65 3q.7 0 1.28.14.58.12 1 .4c.42.27.5.42.64.74q.21.48.22 1.14 0 .76-.36 1.24-.34.49-1 .81.92.28 1.35.93c.43.65.46.95.46 1.56q0 .74-.28 1.28a2.3 2.3 0 0 1-.79.88q-.48.34-1.13.5a5 5 0 0 1-1.28.18H0V3zm-.28 3.98q.58 0 .96-.29c.24-.18.35-.5.35-.88q0-.34-.1-.57a1 1 0 0 0-.32-.36 2 2 0 0 0-.47-.17q-.25-.05-.56-.04H2.17v2.31zm.1 4.2q.34-.01.61-.08.28-.04.5-.22c.22-.18.25-.21.35-.39q.12-.26.14-.64 0-.74-.42-1.1a2 2 0 0 0-1.14-.32H2.17v2.74h2.3zm6.86-.04q.43.42 1.28.42.6 0 1.03-.28.43-.32.53-.64h1.74a3.5 3.5 0 0 1-1.28 1.84q-.83.55-2.06.57a4 4 0 0 1-1.52-.28 3 3 0 0 1-1.14-.79 3 3 0 0 1-.71-1.17 4 4 0 0 1-.25-1.53q-.01-.8.25-1.49t.75-1.2q.48-.5 1.13-.79a4 4 0 0 1 1.5-.28q.9-.01 1.6.35a3 3 0 0 1 1.1.96q.42.6.64 1.35.11.73.07 1.56h-5.15a2 2 0 0 0 .5 1.4m2.23-3.74q-.4-.38-1.1-.39-.47 0-.78.18c-.31.18-.36.25-.5.39a1 1 0 0 0-.25.5q-.06.25-.07.46h3.2a2 2 0 0 0-.5-1.14m-3.12-3.72h3.97v.95h-3.97z"/></svg>