<svg xmlns="http://www.w3.org/2000/svg" viewBox="0 0 16 16"><path fill-rule="evenodd" d="M1 2.5A1.5 1.5 0 0 1 2.5 1h1A1.5 1.5 0 0 1 5 2.5h4.13a1 1 0 1 1 0 1h-2c.17.18.33.38.48.6.64 1 .89 2.36.89 3.9 0 2 .26 3.1.71 3.7.36.48.9.72 1.79.78A1.5 1.5 0 0 1 12.5 11h1a1.5 1.5 0 0 1 1.5 1.5v1a1.5 1.5 0 0 1-1.5 1.5h-1a1.5 1.5 0 0 1-1.5-1.5H6.87a1 1 0 1 1 0-1h1.7a2.84 2.84 0 0 1-.16-.2C7.74 11.4 7.5 10 7.5 8a6.3 6.3 0 0 0-.73-3.35c-.4-.61-.95-1-1.77-1.12A1.5 1.5 0 0 1 3.5 5h-1A1.5 1.5 0 0 1 1 3.5v-1zM2.5 2a.5.5 0 0 0-.5.5v1a.5.5 0 0 0 .5.5h1a.5.5 0 0 0 .5-.5v-1a.5.5 0 0 0-.5-.5h-1zm10 10a.5.5 0 0 0-.5.5v1a.5.5 0 0 0 .5.5h1a.5.5 0 0 0 .5-.5v-1a.5.5 0 0 0-.5-.5h-1z"/></svg>