<svg xmlns="http://www.w3.org/2000/svg" viewBox="0 0 16 16"><path fill-rule="evenodd" d="M0 10.5A1.5 1.5 0 0 1 1.5 9h1A1.5 1.5 0 0 1 4 10.5v1A1.5 1.5 0 0 1 2.5 13h-1A1.5 1.5 0 0 1 0 11.5v-1zm1.5-.5a.5.5 0 0 0-.5.5v1a.5.5 0 0 0 .5.5h1a.5.5 0 0 0 .5-.5v-1a.5.5 0 0 0-.5-.5h-1zm10.5.5A1.5 1.5 0 0 1 13.5 9h1a1.5 1.5 0 0 1 1.5 1.5v1a1.5 1.5 0 0 1-1.5 1.5h-1a1.5 1.5 0 0 1-1.5-1.5v-1zm1.5-.5a.5.5 0 0 0-.5.5v1a.5.5 0 0 0 .5.5h1a.5.5 0 0 0 .5-.5v-1a.5.5 0 0 0-.5-.5h-1zM6 4.5A1.5 1.5 0 0 1 7.5 3h1A1.5 1.5 0 0 1 10 4.5v1A1.5 1.5 0 0 1 8.5 7h-1A1.5 1.5 0 0 1 6 5.5v-1zM7.5 4a.5.5 0 0 0-.5.5v1a.5.5 0 0 0 .5.5h1a.5.5 0 0 0 .5-.5v-1a.5.5 0 0 0-.5-.5h-1z"/><path d="M6 4.5H1.87a1 1 0 1 0 0 1h2.66A6.52 6.52 0 0 0 1.81 9h.69c.12 0 .24.01.36.04a5.52 5.52 0 0 1 3.18-3.18A1.5 1.5 0 0 1 6 5.5v-1zm3.96 1.36A1.5 1.5 0 0 0 10 5.5v-1h4.13a1 1 0 1 1 0 1h-2.66A6.52 6.52 0 0 1 14.19 9h-.69c-.12 0-.24.01-.36.04a5.52 5.52 0 0 0-3.18-3.18z"/></svg>