<svg xmlns="http://www.w3.org/2000/svg" width="16" height="16" viewBox="0 0 16 16"><path fill-rule="evenodd" d="M0 10.5A1.5 1.5 0 0 1 1.5 9h1A1.5 1.5 0 0 1 4 10.5v1A1.5 1.5 0 0 1 2.5 13h-1A1.5 1.5 0 0 1 0 11.5zm1.5-.5a.5.5 0 0 0-.5.5v1a.5.5 0 0 0 .5.5h1a.5.5 0 0 0 .5-.5v-1a.5.5 0 0 0-.5-.5zm10.5.5A1.5 1.5 0 0 1 13.5 9h1a1.5 1.5 0 0 1 1.5 1.5v1a1.5 1.5 0 0 1-1.5 1.5h-1a1.5 1.5 0 0 1-1.5-1.5zm1.5-.5a.5.5 0 0 0-.5.5v1a.5.5 0 0 0 .5.5h1a.5.5 0 0 0 .5-.5v-1a.5.5 0 0 0-.5-.5zM6 4.5A1.5 1.5 0 0 1 7.5 3h1A1.5 1.5 0 0 1 10 4.5v1A1.5 1.5 0 0 1 8.5 7h-1A1.5 1.5 0 0 1 6 5.5zM7.5 4a.5.5 0 0 0-.5.5v1a.5.5 0 0 0 .5.5h1a.5.5 0 0 0 .5-.5v-1a.5.5 0 0 0-.5-.5z"/><path d="M6 4.5H1.87a1 1 0 1 0 0 1h2.66A6.5 6.5 0 0 0 1.81 9h.69q.19 0 .36.04a5.5 5.5 0 0 1 3.18-3.18L6 5.5zm3.96 1.36L10 5.5v-1h4.13a1 1 0 1 1 0 1h-2.66A6.5 6.5 0 0 1 14.19 9h-.69q-.18 0-.36.04a5.5 5.5 0 0 0-3.18-3.18"/></svg>