<svg xmlns="http://www.w3.org/2000/svg" viewBox="0 0 16 16"><path d="M4 4.5a.5.5 0 0 1 .5-.5H6a.5.5 0 0 1 0 1v.5h4.14l.39-1.16A.5.5 0 0 1 11 4h1a.5.5 0 0 1 0 1h-.64l-.31.94.8 1.29a3 3 0 1 1-.84.53l-.51-.82-2.08 3.33a.5.5 0 0 1-.42.23H5.96a3 3 0 1 1-1.82-3.27L5 5.86V5h-.5a.5.5 0 0 1-.5-.5zm1.5 2.44-.5.82a3 3 0 0 1 .96 1.74H7.1L5.5 6.94zM8 9.06 9.6 6.5H6.4L8 9.06zm-3.06.44a2 2 0 0 0-.49-.88l-.55.88h1.04zM3.6 8.1a2 2 0 1 0 1.34 2.4H3a.5.5 0 0 1-.42-.77L3.6 8.1zm7.95.52a2 2 0 1 0 .85-.53l1.02 1.65a.5.5 0 1 1-.84.53l-1.03-1.65z"/></svg>