<svg xmlns="http://www.w3.org/2000/svg" width="16" height="16" viewBox="0 0 16 16" id="icon"><path d="M8.35 5.05a.6.6 0 0 0-.54.57c0 .13 0 .14.29.9l.86 2.2q.1.22.28.4.1.12.24.2a3 3 0 0 0 .95.35c.66.2 1.02.33 1.34.49q.6.3.86.7a2.4 2.4 0 0 1 .3 1.46q-.07.4-.26.68-.1.14.06-.04c.27-.35.56-.94.7-1.47a4.4 4.4 0 0 0-2.14-5.03l-.89-.47-.53-.27-.35-.19-.34-.18-.57-.28-.2-.03z"/><path d="m9.15 11.5-.13.08-1.52.93-.8.5-.87.54a2 2 0 0 1-.73.26h-.47a2 2 0 0 1-.89-.36 3 3 0 0 1-.36-.37 2 2 0 0 1-.34-.76L3 12.2l.02.22.1.5a4.1 4.1 0 0 0 2.49 2.79 4 4 0 0 0 1.83.28 4 4 0 0 0 1.96-.66l.23-.15.4-.24.25-.17 1.17-.73a4 4 0 0 0 1.15-.95l.06-.1a2 2 0 0 0 .25-.67c.02-.13.02-.43 0-.57a3 3 0 0 0-.21-.76q-.23-.47-.93-.83l-.27-.12-.95.58-1.11.69z"/><path d="m3 12.18.03.13q.13.58.52.97a1.8 1.8 0 0 0 1.31.54q.52 0 1-.29l.47-.29.37-.23V2.81a1.8 1.8 0 0 0-.54-1.17 3 3 0 0 0-.43-.33L4.18.24a1 1 0 0 0-.33-.2.63.63 0 0 0-.84.46v11.7Z"/></svg>