<svg xmlns="http://www.w3.org/2000/svg" viewBox="0 0 16 16"><path d="M4.5 1A1.5 1.5 0 0 0 3 2.5V3h4v-.5A1.5 1.5 0 0 0 5.5 1h-1zM7 4v1h2V4h4v.88a.5.5 0 0 0 .28.45l.9.45A1.5 1.5 0 0 1 15 7.12V13H9v-1.5a.5.5 0 0 1 .15-.35l.85-.86V9.5a.5.5 0 0 0-.5-.5h-3a.5.5 0 0 0-.5.5v.8l.85.85a.5.5 0 0 1 .15.35V13H1V7.12a1.5 1.5 0 0 1 .83-1.34l.9-.45A.5.5 0 0 0 3 4.88V4h4zM1 14v.5A1.5 1.5 0 0 0 2.5 16h3A1.5 1.5 0 0 0 7 14.5V14H1zm8 0v.5a1.5 1.5 0 0 0 1.5 1.5h3a1.5 1.5 0 0 0 1.5-1.5V14H9zm4-11H9v-.5A1.5 1.5 0 0 1 10.5 1h1A1.5 1.5 0 0 1 13 2.5V3z"/></svg>