<svg viewBox="0 0 16 16"><path d="M3 2.5A1.5 1.5 0 0 1 4.5 1h1A1.5 1.5 0 0 1 7 2.5V5h2V2.5A1.5 1.5 0 0 1 10.5 1h1A1.5 1.5 0 0 1 13 2.5v2.38a.5.5 0 0 0 .28.45l.9.45A1.5 1.5 0 0 1 15 7.12v7.38a1.5 1.5 0 0 1-1.5 1.5h-3A1.5 1.5 0 0 1 9 14.5v-3a.5.5 0 0 1 .15-.35l.85-.86V9.5a.5.5 0 0 0-.5-.5h-3a.5.5 0 0 0-.5.5v.8l.85.85a.5.5 0 0 1 .15.35v3A1.5 1.5 0 0 1 5.5 16h-3A1.5 1.5 0 0 1 1 14.5V7.12a1.5 1.5 0 0 1 .83-1.34l.9-.45A.5.5 0 0 0 3 4.88V2.5zM4.5 2a.5.5 0 0 0-.5.5V3h2v-.5a.5.5 0 0 0-.5-.5h-1zM6 4H4v.88a1.5 1.5 0 0 1-.83 1.34l-.9.45a.5.5 0 0 0-.27.45V13h4v-1.3l-.85-.85A.5.5 0 0 1 5 10.5v-1A1.5 1.5 0 0 1 6.5 8h3A1.5 1.5 0 0 1 11 9.5v1a.5.5 0 0 1-.15.35l-.85.86V13h4V7.12a.5.5 0 0 0-.28-.45l-.9-.45A1.5 1.5 0 0 1 12 4.88V4h-2v1.5a.5.5 0 0 1-.5.5h-3a.5.5 0 0 1-.5-.5V4zm4-1h2v-.5a.5.5 0 0 0-.5-.5h-1a.5.5 0 0 0-.5.5V3zm4 11h-4v.5a.5.5 0 0 0 .5.5h3a.5.5 0 0 0 .5-.5V14zm-8 0H2v.5a.5.5 0 0 0 .5.5h3a.5.5 0 0 0 .5-.5V14z"/></svg>