<svg xmlns="http://www.w3.org/2000/svg" width="16" height="16" viewBox="0 0 16 16"><path d="M2.5 3a.5.5 0 0 0 0 1h11a.5.5 0 0 0 0-1zm0 3a.5.5 0 0 0 0 1h6a.5.5 0 0 0 0-1zm0 3a.5.5 0 0 0 0 1h6a.5.5 0 0 0 0-1zm0 3a.5.5 0 0 0 0 1h11a.5.5 0 0 0 0-1zm10.11-5.37-.44-.28.2-.35q.2.11.46.29.27.17.51.42t.4.57.16.69q0 .54-.21.87-.22.33-.72.33-.33 0-.5-.21a.7.7 0 0 1-.2-.46q0-.35.21-.53t.57-.18h.28a2 2 0 0 0-.12-.5 1 1 0 0 0-.25-.37 2 2 0 0 0-.35-.3m-2.16 0L10 6.36l.21-.35.45.29q.27.17.51.42t.4.57.16.69q0 .54-.21.87-.22.33-.72.33-.33 0-.5-.21a.7.7 0 0 1-.2-.46q0-.35.22-.52.2-.19.57-.19h.28a2 2 0 0 0-.12-.49 1 1 0 0 0-.26-.37 2 2 0 0 0-.34-.3"/></svg>