<svg viewBox="0 0 16 16"><path d="M2.5 3a.5.5 0 0 0 0 1h11a.5.5 0 0 0 0-1h-11zm5 3a.5.5 0 0 0 0 1h6a.5.5 0 0 0 0-1h-6zm0 3a.5.5 0 0 0 0 1h6a.5.5 0 0 0 0-1h-6zm-5 3a.5.5 0 0 0 0 1h11a.5.5 0 0 0 0-1h-11zm.79-5.37.44-.28-.2-.35c-.13.07-.28.17-.46.29-.18.11-.35.26-.5.42a2.42 2.42 0 0 0-.4.57c-.12.2-.17.43-.17.69 0 .36.07.65.22.87.14.22.38.33.72.33.21 0 .38-.07.5-.21a.7.7 0 0 0 .19-.46c0-.23-.07-.4-.21-.52a.83.83 0 0 0-.57-.19h-.28c.02-.2.06-.37.12-.5a1.38 1.38 0 0 1 .25-.37 1.94 1.94 0 0 1 .35-.3zm2.17 0 .44-.28L5.7 6c-.13.07-.28.17-.46.29-.18.11-.35.26-.51.42a2.42 2.42 0 0 0-.4.57c-.1.2-.16.43-.16.69 0 .36.07.65.22.87.14.22.38.33.72.33.21 0 .38-.07.5-.21a.7.7 0 0 0 .19-.46c0-.23-.07-.4-.21-.52a.83.83 0 0 0-.57-.19h-.28a1.75 1.75 0 0 1 .11-.49c.06-.13.15-.25.26-.37a1.94 1.94 0 0 1 .35-.3z"/></svg>