<svg xmlns="http://www.w3.org/2000/svg" viewBox="0 0 16 16"><path d="M2.5 3a.5.5 0 0 0 0 1h11a.5.5 0 0 0 0-1h-11zm0 3a.5.5 0 0 0 0 1h6a.5.5 0 0 0 0-1h-6zm0 3a.5.5 0 0 0 0 1h6a.5.5 0 0 0 0-1h-6zm0 3a.5.5 0 0 0 0 1h11a.5.5 0 0 0 0-1h-11zm10.11-5.37a6.59 6.59 0 0 0-.44-.28l.2-.35c.13.07.28.17.46.29a2.85 2.85 0 0 1 .9.99c.12.2.17.43.17.69 0 .36-.07.65-.21.87-.15.22-.39.33-.72.33a.63.63 0 0 1-.5-.21.7.7 0 0 1-.2-.46c0-.23.07-.4.21-.53a.83.83 0 0 1 .57-.18h.28a1.69 1.69 0 0 0-.12-.5 1.38 1.38 0 0 0-.25-.37 1.94 1.94 0 0 0-.35-.3zm-2.17 0a6.59 6.59 0 0 0-.44-.28l.21-.35.45.29a2.85 2.85 0 0 1 .91.99c.11.2.16.43.16.69 0 .36-.07.65-.21.87-.15.22-.39.33-.72.33a.63.63 0 0 1-.5-.21.7.7 0 0 1-.2-.46c0-.23.08-.4.22-.52a.83.83 0 0 1 .57-.19h.28a1.75 1.75 0 0 0-.12-.49 1.4 1.4 0 0 0-.26-.37 1.94 1.94 0 0 0-.34-.3z"/></svg>