<svg xmlns="http://www.w3.org/2000/svg" width="16" height="16" viewBox="0 0 16 16" id="icon"><path d="M2.5 3a.5.5 0 0 0 0 1h11a.5.5 0 0 0 0-1zm5 3a.5.5 0 0 0 0 1h6a.5.5 0 0 0 0-1zm0 3a.5.5 0 0 0 0 1h6a.5.5 0 0 0 0-1zm-5 3a.5.5 0 0 0 0 1h11a.5.5 0 0 0 0-1zm.79-5.37.44-.28-.2-.35-.46.29q-.27.17-.5.42a2 2 0 0 0-.4.57q-.17.3-.17.69 0 .54.22.87.21.33.72.33.32 0 .5-.21a.7.7 0 0 0 .19-.46q0-.35-.21-.52-.2-.19-.57-.19h-.28q.03-.3.12-.5a1 1 0 0 1 .25-.37 2 2 0 0 1 .35-.3m2.17 0 .44-.28L5.7 6q-.2.11-.46.29-.27.17-.51.42a2 2 0 0 0-.4.57q-.16.3-.16.69 0 .54.22.87.21.33.72.33.32 0 .5-.21a.7.7 0 0 0 .19-.46q0-.35-.21-.52-.2-.19-.57-.19h-.28a2 2 0 0 1 .11-.49q.1-.2.26-.37a2 2 0 0 1 .35-.3"/></svg>