<svg xmlns="http://www.w3.org/2000/svg" width="16" height="16" viewBox="0 0 16 16"><path d="M1 2.83c.89-.37 2.15-.77 3.39-.9C5.72 1.8 6.85 2 7.5 2.7v9.74a5.5 5.5 0 0 0-3.21-.49c-1.18.12-2.37.46-3.29.81zm7.5-.14c.65-.7 1.78-.89 3.11-.76 1.24.13 2.5.53 3.39.9v9.92c-.92-.35-2.1-.7-3.29-.8a5.5 5.5 0 0 0-3.21.48zm-.5-.9C7.01.93 5.59.8 4.29.93a14 14 0 0 0-4 1.1.5.5 0 0 0-.29.47v11a.5.5 0 0 0 .7.46c.89-.4 2.31-.89 3.69-1.03 1.4-.14 2.59.1 3.22.88a.5.5 0 0 0 .78 0c.63-.79 1.81-1.02 3.22-.87 1.38.13 2.8.62 3.68 1.02a.5.5 0 0 0 .71-.46v-11a.5.5 0 0 0-.3-.45c-.94-.44-2.47-.96-3.99-1.11-1.3-.13-2.73 0-3.71.84"/></svg>