<svg viewBox="0 0 16 16"><path d="M7.84 4.1a.18.18 0 0 1 .32 0l.63 1.28a.18.18 0 0 0 .14.1l1.42.2c.14.03.2.2.1.31L9.42 7a.18.18 0 0 0-.05.16l.24 1.42a.18.18 0 0 1-.26.18l-1.27-.67a.18.18 0 0 0-.16 0l-1.27.67a.18.18 0 0 1-.26-.18l.24-1.42A.18.18 0 0 0 6.58 7L5.55 6a.18.18 0 0 1 .1-.3l1.42-.2a.18.18 0 0 0 .14-.1l.63-1.29z"/><path d="M2 2a2 2 0 0 1 2-2h8a2 2 0 0 1 2 2v13.5a.5.5 0 0 1-.78.42L8 13.1l-5.22 2.82A.5.5 0 0 1 2 15.5V2zm2-1a1 1 0 0 0-1 1v12.57l4.72-2.49a.5.5 0 0 1 .56 0L13 14.57V2a1 1 0 0 0-1-1H4z"/></svg>