<svg xmlns="http://www.w3.org/2000/svg" viewBox="0 0 16 16"><path d="M.97 0H0v.97h.5V1h.47V.97H1V.5H.97V0zm.94 1h.93V0h-.93v1zm1.87 0h.94V0h-.94v1zm1.88 0h.93V0h-.93v1zM8.5 16h-1V0h1v16zm.9-15h.94V0h-.93v1zm1.88 0h.94V0h-.94v1zm1.88 0h.93V0h-.93v1zm1.87 0h.47V.97h.5V0h-.97v.5H15v.47h.03V1zM1 2.84v-.93H0v.93h1zm14-.93v.93h1v-.93h-1zM1 4.7v-.93H0v.94h1zm14-.93v.94h1v-.94h-1zM1 6.6v-.93H0v.93h1zm14-.93v.93h1v-.93h-1zM.5 8.5h.47v-.03H1v-.94H.97V7.5H.5v.03H0v.94h.5v.03zm1.4 0h.94v-1h-.93v1zm1.88 0h.94v-1h-.94v1zm1.88 0h.93v-1h-.93v1zm3.75 0h.93v-1h-.93v1zm1.87 0h.94v-1h-.94v1zm1.88 0h.93v-1h-.93v1zm1.87 0h.47v-.03h.5v-.94h-.5V7.5h-.47v.03H15v.94h.03v.03zM0 9.4v.94h1v-.93H0zm16 .94v-.93h-1v.93h1zm-16 .94v.94h1v-.94H0zm16 .94v-.94h-1v.94h1zm-16 .94v.93h1v-.93H0zm16 .93v-.93h-1v.93h1zM0 16h.97v-.5H1v-.47H.97V15H.5v.03H0V16zm1.9 0h.94v-1h-.93v1zm1.88 0h.94v-1h-.94v1zm1.88 0h.93v-1h-.93v1zm3.75 0h.93v-1h-.93v1zm1.87 0h.94v-1h-.94v1zm1.88 0h.93v-1h-.93v1zm1.87-.5v.5H16v-.97h-.5V15h-.47v.03H15v.47h.03z"/></svg>