<svg xmlns="http://www.w3.org/2000/svg" width="16" height="16" viewBox="0 0 16 16"><path d="M0 0h.97v.5H1v.47H.97V1H.5V.97H0zm2.84 1h-.93V0h.93zm1.88 0h-.94V0h.94zm1.87 0h-.93V0h.93zm.94 0V.97H7.5V.5h.03V0h.94v.5h.03v.47h-.03V1zm2.81 0h-.93V0h.93zm1.88 0h-.94V0h.94zm1.87 0h-.93V0h.93zm1.41 0h-.47V.97H15V.5h.03V0H16v.97h-.5zM1 1.9v.94H0v-.93zm6.5.94v-.93h1v.93zm7.5 0v-.93h1v.93zM1 3.78v.94H0v-.94zm6.5.94v-.94h1v.94zm7.5 0v-.94h1v.94zM1 5.66v.93H0v-.93zm6.5.93v-.93h1v.93zm7.5 0v-.93h1v.93zM.97 8.5H.5v-.03H0v-.94h.5V7.5h.47v.03H1v.94H.97zm1.87 0h-.93v-1h.93zm1.88 0h-.94v-1h.94zm1.87 0h-.93v-1h.93zm1.88-.03v.03h-.94v-.03H7.5v-.94h.03V7.5h.94v.03h.03v.94zm1.87.03h-.93v-1h.93zm1.88 0h-.94v-1h.94zm1.87 0h-.93v-1h.93zm1.41 0h-.47v-.03H15v-.94h.03V7.5h.47v.03h.5v.94h-.5zM0 10.34v-.93h1v.93zm7.5 0v-.93h1v.93zm8.5-.93v.93h-1v-.93zM0 12.22v-.94h1v.94zm7.5 0v-.94h1v.94zm8.5-.94v.94h-1v-.94zM0 14.1v-.93h1v.93zm7.5 0v-.93h1v.93zm8.5-.93v.93h-1v-.93zM.97 16H0v-.97h.5V15h.47v.03H1v.47H.97zm1.87 0h-.93v-1h.93zm1.88 0h-.94v-1h.94zm1.87 0h-.93v-1h.93zm.94 0v-.5H7.5v-.47h.03V15h.94v.03h.03v.47h-.03v.5zm2.81 0h-.93v-1h.93zm1.88 0h-.94v-1h.94zm1.87 0h-.93v-1h.93zm.94 0v-.5H15v-.47h.03V15h.47v.03h.5V16z"/></svg>