<svg xmlns="http://www.w3.org/2000/svg" viewBox="0 0 16 16"><path d="M0 0v16h1V0H0zm1.9 1h.94V0h-.93v1zm1.88 0h.94V0h-.94v1zm1.88 0h.93V0h-.93v1zM7.53.97V1h.94V.97h.03V.5h-.03V0h-.94v.5H7.5v.47h.03zM9.41 1h.93V0h-.93v1zm1.87 0h.94V0h-.94v1zm1.88 0h.93V0h-.93v1zm1.87 0h.47V.97h.5V0h-.97v.5H15v.47h.03V1zm-7.53.9v.94h1v-.93h-1zm7.5 0v.94h1v-.93h-1zM7.5 3.79v.94h1v-.94h-1zm7.5 0v.94h1v-.94h-1zM7.5 5.66v.93h1v-.93h-1zm7.5 0v.93h1v-.93h-1zM1.9 8.5h.94v-1h-.93v1zm1.88 0h.94v-1h-.94v1zm1.88 0h.93v-1h-.93v1zm2.8 0v-.03h.04v-.94h-.03V7.5h-.94v.03H7.5v.94h.03v.03h.94zm.95 0h.93v-1h-.93v1zm1.87 0h.94v-1h-.94v1zm1.88 0h.93v-1h-.93v1zm1.87 0h.47v-.03h.5v-.94h-.5V7.5h-.47v.03H15v.94h.03v.03zm-7.53.9v.94h1v-.93h-1zm8.5.94v-.93h-1v.93h1zm-8.5.94v.94h1v-.94h-1zm8.5.94v-.94h-1v.94h1zm-8.5.94v.93h1v-.93h-1zm8.5.93v-.93h-1v.93h1zM1.9 16h.94v-1h-.93v1zm1.88 0h.94v-1h-.94v1zm1.88 0h.93v-1h-.93v1zm1.87-.5v.5h.94v-.5h.03v-.47h-.03V15h-.94v.03H7.5v.47h.03zm1.88.5h.93v-1h-.93v1zm1.87 0h.94v-1h-.94v1zm1.88 0h.93v-1h-.93v1zm1.87-.5v.5H16v-.97h-.5V15h-.47v.03H15v.47h.03z"/></svg>