<svg xmlns="http://www.w3.org/2000/svg" width="16" height="16" viewBox="0 0 16 16" id="icon"><path d="M.97 0H0v.97h.5V1h.47V.97H1V.5H.97zm.94 1h.93V0h-.93zm1.87 0h.94V0h-.94zm1.88 0h.93V0h-.93zM7.53.97V1h.94V.97h.03V.5h-.03V0h-.94v.5H7.5v.47zM9.41 1h.93V0h-.93zm1.87 0h.94V0h-.94zm1.88 0h.93V0h-.93zm1.87 0h.47V.97h.5V0h-.97v.5H15v.47h.03zM1 2.84v-.93H0v.93zm6.5-.93v.93h1v-.93zm7.5 0v.93h1v-.93zM1 4.7v-.93H0v.94zm6.5-.93v.94h1v-.94zm7.5 0v.94h1v-.94zM1 6.6v-.93H0v.93zm6.5-.93v.93h1v-.93zm7.5 0v.93h1v-.93zM.5 8.5h.47v-.03H1v-.94H.97V7.5H.5v.03H0v.94h.5zm1.4 0h.94v-1h-.93zm1.88 0h.94v-1h-.94zm1.88 0h.93v-1h-.93zm2.8 0v-.03h.04v-.94h-.03V7.5h-.94v.03H7.5v.94h.03v.03zm.95 0h.93v-1h-.93zm1.87 0h.94v-1h-.94zm1.88 0h.93v-1h-.93zm1.87 0h.47v-.03h.5v-.94h-.5V7.5h-.47v.03H15v.94h.03zM0 9.4v.94h1v-.93zm7.5 0v.94h1v-.93zm8.5.94v-.93h-1v.93zm-16 .94v.94h1v-.94zm7.5 0v.94h1v-.94zm8.5.94v-.94h-1v.94zm-16 .94v.93h1v-.93zm7.5 0v.93h1v-.93zm8.5.93v-.93h-1v.93zM0 15h16v1H0z"/></svg>