<svg viewBox="0 0 16 16"><path d="M0 0h.97v.5H1v.47H.97V1H.5V.97H0V0zm2.84 1h-.93V0h.93v1zm1.88 0h-.94V0h.94v1zm1.87 0h-.93V0h.93v1zm.94 0V.97H7.5V.5h.03V0h.94v.5h.03v.47h-.03V1h-.94zm2.81 0h-.93V0h.93v1zm1.88 0h-.94V0h.94v1zm1.87 0h-.93V0h.93v1zm1.41 0h-.47V.97H15V.5h.03V0H16v.97h-.5V1zM1 1.9v.94H0v-.93h1zm6.5.94v-.93h1v.93h-1zm7.5 0v-.93h1v.93h-1zM1 3.78v.94H0v-.94h1zm6.5.94v-.94h1v.94h-1zm7.5 0v-.94h1v.94h-1zM1 5.66v.93H0v-.93h1zm6.5.93v-.93h1v.93h-1zm7.5 0v-.93h1v.93h-1zM.97 8.5H.5v-.03H0v-.94h.5V7.5h.47v.03H1v.94H.97v.03zm1.87 0h-.93v-1h.93v1zm1.88 0h-.94v-1h.94v1zm1.87 0h-.93v-1h.93v1zm1.88-.03v.03h-.94v-.03H7.5v-.94h.03V7.5h.94v.03h.03v.94h-.03zm1.87.03h-.93v-1h.93v1zm1.88 0h-.94v-1h.94v1zm1.87 0h-.93v-1h.93v1zm1.41 0h-.47v-.03H15v-.94h.03V7.5h.47v.03h.5v.94h-.5v.03zM0 10.34v-.93h1v.93H0zm7.5 0v-.93h1v.93h-1zm8.5-.93v.93h-1v-.93h1zM0 12.22v-.94h1v.94H0zm7.5 0v-.94h1v.94h-1zm8.5-.94v.94h-1v-.94h1zM0 14.1v-.93h1v.93H0zm7.5 0v-.93h1v.93h-1zm8.5-.93v.93h-1v-.93h1zM.97 16H0v-.97h.5V15h.47v.03H1v.47H.97v.5zm1.87 0h-.93v-1h.93v1zm1.88 0h-.94v-1h.94v1zm1.87 0h-.93v-1h.93v1zm.94 0v-.5H7.5v-.47h.03V15h.94v.03h.03v.47h-.03v.5h-.94zm2.81 0h-.93v-1h.93v1zm1.88 0h-.94v-1h.94v1zm1.87 0h-.93v-1h.93v1zm.94 0v-.5H15v-.47h.03V15h.47v.03h.5V16h-.97z"/></svg>