<svg xmlns="http://www.w3.org/2000/svg" width="16" height="16" viewBox="0 0 16 16" id="icon"><path d="M.97 0H0v.97h.5V1h.47V.97H1V.5H.97zm.94 1h.93V0h-.93zm1.87 0h.94V0h-.94zm1.88 0h.93V0h-.93z"/><path d="M8.5 7.5H16v1H8.5V16h-1V8.5H0v-1h7.5V0h1z"/><path d="M9.4 1h.94V0h-.93zm1.88 0h.94V0h-.94zm1.88 0h.93V0h-.93zm1.87 0h.47V.97h.5V0h-.97v.5H15v.47h.03zM1 2.84v-.93H0v.93zm14-.93v.93h1v-.93zM1 4.7v-.93H0v.94zm14-.93v.94h1v-.94zM1 6.6v-.93H0v.93zm14-.93v.93h1v-.93zM0 9.4v.93h1V9.4zm16 .93V9.4h-1v.93zm-16 .94v.94h1v-.94zm16 .94v-.94h-1v.94zm-16 .94v.93h1v-.93zm16 .93v-.93h-1v.93zM0 16h.97v-.5H1v-.47H.97V15H.5v.03H0zm1.9 0h.94v-1h-.93zm1.88 0h.94v-1h-.94zm1.88 0h.93v-1h-.93zm3.75 0h.93v-1h-.93zm1.87 0h.94v-1h-.94zm1.88 0h.93v-1h-.93zm1.87-.5v.5H16v-.97h-.5V15h-.47v.03H15v.47z"/></svg>