<svg viewBox="0 0 16 16"><path d="M.97 0H0v.97h.5V1h.47V.97H1V.5H.97V0zm.94 1h.93V0h-.93v1zm1.87 0h.94V0h-.94v1zm1.88 0h.93V0h-.93v1zM7.53.97V1h.94V.97h.03V.5h-.03V0h-.94v.5H7.5v.47h.03zM9.41 1h.93V0h-.93v1zm1.87 0h.94V0h-.94v1zm1.88 0h.93V0h-.93v1zm1.87 0h.47V.97h.5V0h-.97v.5H15v.47h.03V1zM1 2.84v-.93H0v.93h1zm6.5-.93v.93h1v-.93h-1zm7.5 0v.93h1v-.93h-1zM1 4.7v-.93H0v.94h1zm6.5-.93v.94h1v-.94h-1zm7.5 0v.94h1v-.94h-1zM1 6.6v-.93H0v.93h1zm6.5-.93v.93h1v-.93h-1zm7.5 0v.93h1v-.93h-1zM0 8.5v-1h16v1H0zm0 .9v.94h1v-.93H0zm7.5 0v.94h1v-.93h-1zm8.5.94v-.93h-1v.93h1zm-16 .94v.94h1v-.94H0zm7.5 0v.94h1v-.94h-1zm8.5.94v-.94h-1v.94h1zm-16 .94v.93h1v-.93H0zm7.5 0v.93h1v-.93h-1zm8.5.93v-.93h-1v.93h1zM0 16h.97v-.5H1v-.47H.97V15H.5v.03H0V16zm1.9 0h.94v-1h-.93v1zm1.88 0h.94v-1h-.94v1zm1.88 0h.93v-1h-.93v1zm1.87-.5v.5h.94v-.5h.03v-.47h-.03V15h-.94v.03H7.5v.47h.03zm1.88.5h.93v-1h-.93v1zm1.87 0h.94v-1h-.94v1zm1.88 0h.93v-1h-.93v1zm1.87-.5v.5H16v-.97h-.5V15h-.47v.03H15v.47h.03z"/></svg>