<svg xmlns="http://www.w3.org/2000/svg" viewBox="0 0 16 16"><path d="M7.75.07a.5.5 0 0 1 .5 0L12 2.2a.5.5 0 0 1 .25.43v4l3.5 2a.5.5 0 0 1 .25.43v4.29a.5.5 0 0 1-.25.43L12 15.93a.5.5 0 0 1-.5 0l-3.5-2-3.5 2a.5.5 0 0 1-.5 0L.25 13.8a.5.5 0 0 1-.25-.43v-4.3a.5.5 0 0 1 .25-.43l3.5-2v-4A.5.5 0 0 1 4 2.21L7.75.07ZM4.25 7.5 1.51 9.07l2.74 1.57 2.74-1.57L4.25 7.5ZM7.5 9.93 4.75 11.5v3.14l2.75-1.57V9.93Zm1 3.14 2.75 1.57V11.5L8.5 9.93v3.14Zm.5-4 2.75 1.57 2.74-1.57-2.74-1.57-2.74 1.57Zm2.25-2.43V3.5L8.5 5.08V8.2l2.75-1.57ZM7.5 8.2V5.08L4.75 3.5v3.14L7.5 8.2ZM5.26 2.64 8 4.21l2.74-1.57L8 1.08 5.26 2.64ZM15 9.94l-2.75 1.56v3.14L15 13.07V9.93Zm-11.25 4.7V11.5L1 9.93v3.14l2.75 1.57Z"/></svg>