<svg viewBox="0 0 16 16"><path fill-rule="evenodd" d="M1.11 8.06V7.9c1-.1 1.5-.61 1.5-1.6V4.5c0-1.1.4-1.53 1.36-1.53h.27V2h-.38C2.25 2 1.5 2.76 1.5 4.35v1.53c0 1.09-.38 1.45-1.49 1.45v1.3c1.11 0 1.49.36 1.49 1.46v1.52c0 1.6.76 2.35 2.37 2.35h.38V13h-.28c-.96 0-1.35-.44-1.35-1.54v-1.8c0-.98-.5-1.5-1.5-1.6ZM14.9 7.9v.16c-1 .1-1.5.62-1.5 1.6v1.8c0 1.1-.4 1.54-1.36 1.54h-.27v.96h.38c1.61 0 2.37-.76 2.37-2.35V10.1c0-1.1.38-1.46 1.49-1.46v-1.3c-1.11 0-1.49-.36-1.49-1.45V4.35c0-1.6-.76-2.35-2.37-2.35h-.38v.96h.28c.96 0 1.35.45 1.35 1.54v1.8c0 .98.5 1.5 1.5 1.6Zm-7.4 3.6V9.2l-1.62 1.63-.7-.7 1.6-1.63H4.5v-1h2.3L5.16 5.88l.7-.7 1.64 1.6V4.5h1v2.3l1.62-1.63.7.7-1.6 1.63h2.29v1H9.2l1.63 1.62-.7.7-1.63-1.6v2.29h-1Z"/></svg>