<svg xmlns="http://www.w3.org/2000/svg" viewBox="0 0 16 16"><path d="M2.11 8.06V7.9c1-.1 1.5-.61 1.5-1.6V4.5c0-1.1.4-1.53 1.35-1.53h.28V2h-.38C3.25 2 2.5 2.76 2.5 4.35v1.53c0 1.09-.38 1.45-1.49 1.45v1.3c1.11 0 1.49.36 1.49 1.46v1.52c0 1.6.76 2.35 2.37 2.35h.38V13h-.27C4 13 3.6 12.56 3.6 11.46v-1.8c0-.98-.5-1.5-1.5-1.6zM13.9 7.9v.16c-1 .1-1.5.62-1.5 1.6v1.8c0 1.1-.4 1.54-1.36 1.54h-.27v.96h.38c1.61 0 2.37-.76 2.37-2.35V10.1c0-1.1.38-1.46 1.49-1.46v-1.3c-1.11 0-1.49-.36-1.49-1.45V4.35c0-1.6-.76-2.35-2.37-2.35h-.38v.96h.28c.96 0 1.35.45 1.35 1.54v1.8c0 .98.5 1.5 1.5 1.6z"/></svg>