<svg xmlns="http://www.w3.org/2000/svg" width="16" height="16" viewBox="0 0 16 16" id="icon"><path d="M12 8a4 4 0 1 1-8 0 4 4 0 0 1 8 0M8 0a.5.5 0 0 1 .5.5v2a.5.5 0 0 1-1 0v-2A.5.5 0 0 1 8 0m0 13a.5.5 0 0 1 .5.5v2a.5.5 0 0 1-1 0v-2A.5.5 0 0 1 8 13m8-5a.5.5 0 0 1-.5.5h-2a.5.5 0 0 1 0-1h2a.5.5 0 0 1 .5.5M3 8a.5.5 0 0 1-.5.5h-2a.5.5 0 0 1 0-1h2A.5.5 0 0 1 3 8m10.66-5.66a.5.5 0 0 1 0 .71l-1.42 1.42a.5.5 0 1 1-.7-.71l1.41-1.42a.5.5 0 0 1 .7 0m-9.19 9.2a.5.5 0 0 1 0 .7l-1.41 1.42a.5.5 0 0 1-.7-.71l1.4-1.41a.5.5 0 0 1 .71 0m9.2 2.12a.5.5 0 0 1-.71 0l-1.41-1.42a.5.5 0 0 1 .7-.7l1.42 1.41a.5.5 0 0 1 0 .7m-9.2-9.18a.5.5 0 0 1-.7 0L2.34 3.05a.5.5 0 1 1 .71-.7l1.41 1.4a.5.5 0 0 1 0 .71"/></svg>