<svg xmlns="http://www.w3.org/2000/svg" viewBox="0 0 16 16"><path d="M13.38 3.4a4.34 4.34 0 0 1 1.56 1.97 7.98 7.98 0 0 1 .5 3.9v.08a8.53 8.53 0 0 1-.03.22A7.76 7.76 0 0 1 0 8.26v-.04a9.12 9.12 0 0 1 .2-1.57l.01-.05a6.55 6.55 0 0 1 1.04-2.35 6.85 6.85 0 0 1 1.48-1.52A1.5 1.5 0 0 1 3 2.59c-.01.27-.04 1.55.27 1.94A5.74 5.74 0 0 1 5.15 3.1 3.6 3.6 0 0 0 5.17 5c.07.04.14.1.2.15.11.09.23.2.46.43l.07.06v.01a1.93 1.93 0 0 0 .22.18c.38.3.94.57 1.3.74.2.1.35.17.36.2 0 .2-.69.86-.93.86-2.2 0-2.56 1.34-2.56 1.34a3.2 3.2 0 0 0 1.52 2.36 3.72 3.72 0 0 0 .44.24l.22.1c.33.1.67.17 1.01.18 3.05.15 4.16-2.8 3.13-4.74a3 3 0 0 0-.73-.9 2.94 2.94 0 0 0-.57-.37 2.68 2.68 0 0 1 1.87.45 3.92 3.92 0 0 0-3.4-1.98h-.23l-.04.01a3.88 3.88 0 0 0-.8.14 6.45 6.45 0 0 0-.34-.31 2.32 2.32 0 0 0-.2-.16 3.6 3.6 0 0 1-.08-.38 4.88 4.88 0 0 1 1.35-.29h.05l.2-.01A5.6 5.6 0 0 1 10.17 0a.03.03 0 0 1 .02 0 .02.02 0 0 1 .01 0 2.4 2.4 0 0 0 .2.49l.2.3c.48.77 1.02 1.37 1.54 1.96a9.98 9.98 0 0 1 2.03 3.02 8.06 8.06 0 0 0-.79-2.36Z"/></svg>