<svg xmlns="http://www.w3.org/2000/svg" width="16" height="16" viewBox="0 0 16 16" id="icon"><path d="M8 16A8 8 0 1 0 8 0a8 8 0 0 0 0 16m.25-14.75v1.5a.25.25 0 0 1-.5 0v-1.5a.25.25 0 0 1 .5 0m0 12v1.5a.25.25 0 1 1-.5 0v-1.5a.25.25 0 1 1 .5 0M4.5 1.94a.25.25 0 0 1 .34.09l.75 1.3a.25.25 0 0 1-.43.25l-.75-1.3a.25.25 0 0 1 .09-.34m6 10.39a.25.25 0 0 1 .34.1l.75 1.3a.25.25 0 1 1-.43.24l-.75-1.3a.25.25 0 0 1 .09-.34M2.28 4.41l1.3.75a.25.25 0 0 1-.25.43l-1.3-.75a.25.25 0 0 1 .25-.43m10.4 6 1.3.75a.25.25 0 1 1-.26.43l-1.3-.75a.25.25 0 0 1 .25-.43ZM1 8a.25.25 0 0 1 .25-.25h1.5a.25.25 0 0 1 0 .5h-1.5A.25.25 0 0 1 1 8m12 0a.25.25 0 0 1 .25-.25h1.5a.25.25 0 1 1 0 .5h-1.5A.25.25 0 0 1 13 8M2.03 11.16l1.3-.75a.25.25 0 0 1 .25.43l-1.3.75a.25.25 0 0 1-.25-.43m10.4-6 1.3-.75a.25.25 0 1 1 .24.43l-1.3.75a.25.25 0 0 1-.25-.43Zm-7.93 8.9a.25.25 0 0 1-.1-.34l.76-1.3a.25.25 0 0 1 .43.25l-.75 1.3a.25.25 0 0 1-.34.1m6-10.4a.25.25 0 0 1-.1-.34l.76-1.3a.25.25 0 1 1 .43.25l-.75 1.3a.25.25 0 0 1-.34.09m-4-2.25.12.48a.25.25 0 1 1-.48.13l-.13-.48a.25.25 0 0 1 .48-.14m3.37 12.56.13.48a.25.25 0 1 1-.48.13l-.13-.48a.25.25 0 0 1 .48-.13M3.05 3.05a.25.25 0 0 1 .35 0l.36.35a.25.25 0 0 1-.36.36l-.35-.36a.25.25 0 0 1 0-.35m9.2 9.2a.25.25 0 0 1 .35 0l.35.35a.25.25 0 1 1-.35.35l-.36-.35a.25.25 0 0 1 0-.36M1.54 6.01l.49.13a.25.25 0 1 1-.13.48l-.48-.13a.25.25 0 1 1 .13-.48M14.1 9.38l.49.12a.25.25 0 1 1-.13.49l-.49-.13a.25.25 0 1 1 .13-.48M1.24 9.8a.25.25 0 0 1 .18-.3l.48-.13a.25.25 0 1 1 .13.48l-.48.13a.25.25 0 0 1-.31-.18M13.8 6.45a.25.25 0 0 1 .17-.31l.49-.13a.25.25 0 1 1 .13.48l-.49.13a.25.25 0 0 1-.3-.17m-10.75 6.5a.3.3 0 0 1-.03-.38l3.9-5.6.06-.06 5.6-3.88a.28.28 0 0 1 .39.4l-3.88 5.6-.07.06-5.59 3.9a.3.3 0 0 1-.38-.04m3.14 1.81a.25.25 0 0 1-.18-.3l.13-.49a.25.25 0 0 1 .48.13l-.13.49a.25.25 0 0 1-.3.17M9.55 2.2a.25.25 0 0 1-.17-.3l.13-.48a.25.25 0 1 1 .48.13l-.13.48a.25.25 0 0 1-.3.17"/></svg>