<svg xmlns="http://www.w3.org/2000/svg" width="16" height="16" viewBox="0 0 16 16"><path d="M9.48 9.34c-.07.06-.17.15-.17.31q0 .25.3.46c.88.6 2.52.54 2.6.53a3.7 3.7 0 0 0 1.89-.52 3.8 3.8 0 0 0 1.9-3.3 5.4 5.4 0 0 0-.67-2.67l-.04-.08C13.96 1.5 11.11 0 8 0A8 8 0 0 0 .47 5.29 5.9 5.9 0 0 1 5 3.26c2.83 0 5.01 1.89 5.01 4.8 0 .34-.17.83-.5 1.24h.02z"/><path d="M.01 7.75a8 8 0 0 0 .75 3.64 8 8 0 0 0 6.5 4.57 5 5 0 0 1-.79-.38l-.13-.07a6 6 0 0 1-1.56-1.47A5.54 5.54 0 0 1 6.81 5.8h.01l.02-.02c.21-.1.62-.29 1.17-.28q.2 0 .39.03a4 4 0 0 0-1-.7A5.5 5.5 0 0 0 5 4.26C2.56 4.26.18 5.9.01 7.76m10.26 7.9.27-.08-.3.09z"/><path d="m10.23 15.67.3-.09.08-.02a8 8 0 0 0 4.17-3.3.25.25 0 0 0-.34-.35q-.32.16-.66.29a6 6 0 0 1-2.24.4C8.58 12.6 6 10.57 6 7.96q0-.2.04-.4a4.54 4.54 0 0 0-.46 5.9q.48.67 1.16 1.12l.15.1a5 5 0 0 0 3.33.99"/></svg>