<svg xmlns="http://www.w3.org/2000/svg" width="16" height="16" viewBox="0 0 16 16" id="icon"><path d="M13.38 3.4a4.3 4.3 0 0 1 1.56 1.97 8 8 0 0 1 .5 3.9v.08l-.03.22A7.76 7.76 0 0 1 0 8.26v-.04q.02-.55.11-1.09l.09-.48.01-.05a7 7 0 0 1 1.04-2.35q.33-.47.73-.87.35-.36.75-.65L3 2.59c-.01.27-.04 1.55.27 1.94A6 6 0 0 1 5.15 3.1 3.6 3.6 0 0 0 5.17 5q.1.06.2.15c.11.09.23.2.46.43l.07.06v.01l.22.18c.38.3.94.57 1.3.74.2.1.35.17.36.2 0 .2-.69.86-.93.86-2.2 0-2.56 1.34-2.56 1.34a3.2 3.2 0 0 0 1.52 2.36l.44.24.22.1q.5.16 1.01.18c3.05.15 4.16-2.8 3.13-4.74a3 3 0 0 0-.73-.9 3 3 0 0 0-.57-.37 2.7 2.7 0 0 1 1.87.45 3.9 3.9 0 0 0-3.4-1.98h-.23l-.04.01a4 4 0 0 0-.8.14l-.34-.31-.2-.16-.08-.38a5 5 0 0 1 1.35-.29h.05l.2-.01A5.6 5.6 0 0 1 10.17 0h.03a2 2 0 0 0 .2.49l.2.3c.48.77 1.02 1.37 1.54 1.96a10 10 0 0 1 2.03 3.02 8 8 0 0 0-.79-2.36"/></svg>