<svg viewBox="0 0 16 16"><path d="M9.48 9.34c-.07.06-.17.15-.17.31s.1.32.3.46c.88.6 2.52.54 2.6.53a3.7 3.7 0 0 0 1.89-.52 3.84 3.84 0 0 0 1.9-3.3 5.4 5.4 0 0 0-.67-2.67l-.04-.08C13.96 1.5 11.11 0 8 0A8 8 0 0 0 .47 5.29 5.88 5.88 0 0 1 5 3.26c2.83 0 5.01 1.89 5.01 4.8 0 .34-.17.83-.5 1.24h.02a.6.6 0 0 1-.05.04Z"/><path d="M.01 7.75a8.14 8.14 0 0 0 .75 3.64 8 8 0 0 0 6.5 4.57 5.21 5.21 0 0 1-.79-.38l-.13-.07a5.45 5.45 0 0 1-1.56-1.47A5.54 5.54 0 0 1 6.81 5.8h.01l.02-.02a2.58 2.58 0 0 1 1.56-.25 4.04 4.04 0 0 0-1-.7A5.54 5.54 0 0 0 5 4.26C2.56 4.26.18 5.9.01 7.76Zm10.26 7.92.27-.09-.3.09h.03Z"/><path d="M10.23 15.67a5.21 5.21 0 0 0 .3-.09l.08-.02a8.02 8.02 0 0 0 4.17-3.3.25.25 0 0 0-.34-.35c-.21.1-.43.2-.66.29a6.37 6.37 0 0 1-2.24.4C8.58 12.6 6 10.57 6 7.96c0-.14.01-.27.04-.4a4.54 4.54 0 0 0-.46 5.9c.32.44.71.82 1.16 1.12l.15.1a5.03 5.03 0 0 0 3.33.99Z"/></svg>