<svg xmlns="http://www.w3.org/2000/svg" viewBox="0 0 16 16"><path d="M15.82.12a.5.5 0 0 1 .14.58 45.02 45.02 0 0 1-7.1 10.64 6.07 6.07 0 0 1-2.37 1.54c-.02.23-.06.54-.16.87a2.4 2.4 0 0 1-1.7 1.74 8.12 8.12 0 0 1-3.09.13 3.66 3.66 0 0 1-.56-.14 1.38 1.38 0 0 1-.47-.24.71.71 0 0 1-.2-.3.62.62 0 0 1 0-.43.9.9 0 0 1 .47-.46c.39-.2.62-.45.86-.82l.29-.47.12-.2c.15-.26.32-.54.54-.85a1.96 1.96 0 0 1 2.1-.85l.23-.6a8.6 8.6 0 0 1 1.2-2.08 46.02 46.02 0 0 1 9.1-8.1.5.5 0 0 1 .6.04zM4.7 11.92a1.23 1.23 0 0 0-.41-.1c-.25-.02-.58.04-.88.47-.2.28-.36.53-.5.78l-.1.17-.33.53a3.39 3.39 0 0 1-.76.86c.7.12 1.74.11 2.66-.12.56-.13.84-.56 1-1.06a3.12 3.12 0 0 0 .12-.75l-.8-.79zm1.44.02.46-.18a5.07 5.07 0 0 0 1.54-1.1c1.9-2 4.41-5.57 6.05-8.64a45.38 45.38 0 0 0-7.3 6.8 7.82 7.82 0 0 0-1.32 2.54l.58.58zm-4.97 3.04zm3.58-3.04z"/></svg>