<svg viewBox="0 0 16 16"><path d="M4.98.85a.5.5 0 1 0-.96.3l.41 1.35A4.99 4.99 0 0 0 3 6h10a4.99 4.99 0 0 0-1.43-3.5l.4-1.36a.5.5 0 1 0-.95-.29l-.29.96A4.98 4.98 0 0 0 8 1a4.98 4.98 0 0 0-2.73.81l-.3-.96z"/><path d="M13 6v1H8.5v8.97A5 5 0 0 0 13 11h.5a.5.5 0 0 1 .5.5v.5a.5.5 0 1 0 1 0v-.5a1.5 1.5 0 0 0-1.5-1.5H13V9h1.5a.5.5 0 0 0 0-1H13V7h.5A1.5 1.5 0 0 0 15 5.5V5a.5.5 0 0 0-1 0v.5a.5.5 0 0 1-.5.5H13zm-5.5 9.97V7H3V6h-.5a.5.5 0 0 1-.5-.5V5a.5.5 0 0 0-1 0v.5A1.5 1.5 0 0 0 2.5 7H3v1H1.5a.5.5 0 0 0 0 1H3v1h-.5A1.5 1.5 0 0 0 1 11.5v.5a.5.5 0 1 0 1 0v-.5a.5.5 0 0 1 .5-.5H3a5 5 0 0 0 4.5 4.97z"/></svg>