<svg xmlns="http://www.w3.org/2000/svg" viewBox="0 0 16 16"><path d="M4.36.52a.5.5 0 0 1 .62.34l.29.95A4.98 4.98 0 0 1 8 1a5 5 0 0 1 2.73.81l.3-.96a.5.5 0 1 1 .95.3l-.41 1.35A4.99 4.99 0 0 1 13 6h.5a.5.5 0 0 0 .5-.5V5a.5.5 0 0 1 1 0v.5A1.5 1.5 0 0 1 13.5 7H13v1h1.5a.5.5 0 0 1 0 1H13v1h.5a1.5 1.5 0 0 1 1.5 1.5v.5a.5.5 0 1 1-1 0v-.5a.5.5 0 0 0-.5-.5H13a5 5 0 0 1-10 0h-.5a.5.5 0 0 0-.5.5v.5a.5.5 0 1 1-1 0v-.5A1.5 1.5 0 0 1 2.5 10H3V9H1.5a.5.5 0 0 1 0-1H3V7h-.5A1.5 1.5 0 0 1 1 5.5V5a.5.5 0 0 1 1 0v.5a.5.5 0 0 0 .5.5H3a5 5 0 0 1 1.43-3.5l-.4-1.36a.5.5 0 0 1 .33-.62zM4 7v4a4 4 0 0 0 3.5 3.97V7H4zm4.5 0v7.97A4 4 0 0 0 12 11V7H8.5zM12 6a3.99 3.99 0 0 0-1.33-2.98A3.98 3.98 0 0 0 8 2a3.98 3.98 0 0 0-2.67 1.02A3.99 3.99 0 0 0 4 6h8z"/></svg>