<svg xmlns="http://www.w3.org/2000/svg" viewBox="0 0 16 16"><path d="M2 1a1 1 0 0 1 1-1h10a1 1 0 0 1 1 1v7.26A4.5 4.5 0 0 0 12.5 8a4.5 4.5 0 0 0-3.59 1.79A.5.5 0 0 0 9 9.5v-1a.5.5 0 0 0-.5-.5h-1a.5.5 0 0 0-.5.5v1a.5.5 0 0 0 .5.5h1a.5.5 0 0 0 .39-.19A4.48 4.48 0 0 0 8.03 12H6.5a.5.5 0 0 0-.5.5V16H3a1 1 0 0 1-1-1V1Zm2 1.5v1a.5.5 0 0 0 .5.5h1a.5.5 0 0 0 .5-.5v-1a.5.5 0 0 0-.5-.5h-1a.5.5 0 0 0-.5.5Zm3 0v1a.5.5 0 0 0 .5.5h1a.5.5 0 0 0 .5-.5v-1a.5.5 0 0 0-.5-.5h-1a.5.5 0 0 0-.5.5Zm3.5-.5a.5.5 0 0 0-.5.5v1a.5.5 0 0 0 .5.5h1a.5.5 0 0 0 .5-.5v-1a.5.5 0 0 0-.5-.5h-1ZM4 5.5v1a.5.5 0 0 0 .5.5h1a.5.5 0 0 0 .5-.5v-1a.5.5 0 0 0-.5-.5h-1a.5.5 0 0 0-.5.5ZM7.5 5a.5.5 0 0 0-.5.5v1a.5.5 0 0 0 .5.5h1a.5.5 0 0 0 .5-.5v-1a.5.5 0 0 0-.5-.5h-1Zm2.5.5v1a.5.5 0 0 0 .5.5h1a.5.5 0 0 0 .5-.5v-1a.5.5 0 0 0-.5-.5h-1a.5.5 0 0 0-.5.5ZM4.5 8a.5.5 0 0 0-.5.5v1a.5.5 0 0 0 .5.5h1a.5.5 0 0 0 .5-.5v-1a.5.5 0 0 0-.5-.5h-1Z"/><path d="M11.89 9.46a.64.64 0 0 1 1.22 0l.05.15a.64.64 0 0 0 .92.38l.13-.07a.64.64 0 0 1 .87.87l-.07.13a.64.64 0 0 0 .38.92l.15.05a.64.64 0 0 1 0 1.22l-.15.05a.64.64 0 0 0-.38.92l.07.13a.64.64 0 0 1-.87.87l-.13-.07a.64.64 0 0 0-.92.38l-.05.15c-.18.61-1.04.61-1.23 0l-.04-.15a.64.64 0 0 0-.92-.38l-.14.07c-.56.31-1.17-.3-.87-.87l.08-.13a.64.64 0 0 0-.38-.92l-.15-.05c-.61-.18-.61-1.04 0-1.23l.15-.04a.64.64 0 0 0 .38-.92l-.07-.14c-.31-.56.3-1.17.86-.87l.14.08a.64.64 0 0 0 .92-.38l.05-.15ZM14 12.5a1.5 1.5 0 1 0-3 0 1.5 1.5 0 0 0 3 0Z"/></svg>