<svg xmlns="http://www.w3.org/2000/svg" width="16" height="16" viewBox="0 0 16 16"><path d="M14.76.08A.5.5 0 0 1 15 .5v15a.5.5 0 0 1-.5.5h-3a.5.5 0 0 1-.5-.5V14h-1v1.5a.5.5 0 0 1-.5.5h-9a.5.5 0 0 1-.5-.5V10a.5.5 0 0 1 .34-.47L6 7.64V4.5a.5.5 0 0 1 .28-.45l8-4a.5.5 0 0 1 .48.02M6 8.7l-5 1.67V15h5zM7 15h2v-1.5a.5.5 0 0 1 .5-.5h2a.5.5 0 0 1 .5.5V15h2V1.3L7 4.8z"/><path d="M2 11h1v1H2zm2 0h1v1H4zm-2 2h1v1H2zm2 0h1v1H4zm4-4h1v1H8zm2 0h1v1h-1zm-2 2h1v1H8zm2 0h1v1h-1zm2-2h1v1h-1zm0 2h1v1h-1zM8 7h1v1H8zm2 0h1v1h-1zm2 0h1v1h-1zM8 5h1v1H8zm2 0h1v1h-1zm2 0h1v1h-1zm0-2h1v1h-1z"/></svg>