<svg xmlns="http://www.w3.org/2000/svg" width="16" height="16" viewBox="0 0 16 16"><path d="M5 11a1 1 0 1 1-2 0 1 1 0 0 1 2 0m8 0a1 1 0 1 1-2 0 1 1 0 0 1 2 0m-6-1a1 1 0 1 0 0 2h2a1 1 0 1 0 0-2zm1-6c-1.88 0-3.43.1-4.55.23a.5.5 0 0 0-.45.5v3.55a.5.5 0 0 0 .45.5 44 44 0 0 0 9.1 0 .5.5 0 0 0 .45-.5V4.72a.5.5 0 0 0-.45-.5A44 44 0 0 0 8 4m0-1c-1.84 0-3.35.1-4.45.22a.5.5 0 1 1-.1-1A44 44 0 0 1 8 2c1.88 0 3.43.1 4.55.23a.5.5 0 1 1-.1.99A43 43 0 0 0 8 3"/><path d="M15 8a1 1 0 0 0 1-1V5a1 1 0 0 0-1-1V2.64c0-1.19-.84-2.23-2.06-2.37A44 44 0 0 0 8 0C5.9 0 4.2.14 3.06.27A2.35 2.35 0 0 0 1 2.64V4a1 1 0 0 0-1 1v2a1 1 0 0 0 1 1v3.5c0 .82.4 1.54 1 2v2a.5.5 0 0 0 .5.5h2a.5.5 0 0 0 .5-.5V14h6v1.5a.5.5 0 0 0 .5.5h2a.5.5 0 0 0 .5-.5v-2c.6-.46 1-1.18 1-2zM8 1c2.06 0 3.71.13 4.82.26.68.08 1.18.66 1.18 1.38v8.86a1.5 1.5 0 0 1-1.5 1.5h-9A1.5 1.5 0 0 1 2 11.5V2.64c0-.72.5-1.3 1.18-1.38A43 43 0 0 1 8 1"/></svg>