<svg viewBox="0 0 16 16"><path d="M16 7a1 1 0 0 1-1 1v3.5c0 .82-.4 1.54-1 2v2a.5.5 0 0 1-.5.5h-2a.5.5 0 0 1-.5-.5V14H5v1.5a.5.5 0 0 1-.5.5h-2a.5.5 0 0 1-.5-.5v-2a2.5 2.5 0 0 1-1-2V8a1 1 0 0 1-1-1V5a1 1 0 0 1 1-1V2.64C1 1.45 1.84.41 3.06.27A43.6 43.6 0 0 1 8 0c2.1 0 3.8.14 4.94.27A2.35 2.35 0 0 1 15 2.64V4a1 1 0 0 1 1 1v2ZM3.55 3.22A43.3 43.3 0 0 1 8 3c1.84 0 3.35.1 4.45.22a.5.5 0 0 0 .1-1A44.3 44.3 0 0 0 8 2c-1.88 0-3.43.1-4.55.23a.5.5 0 1 0 .1.99ZM8 4c-1.88 0-3.43.1-4.55.23a.5.5 0 0 0-.45.5v3.55a.5.5 0 0 0 .45.5 44.3 44.3 0 0 0 9.1 0 .5.5 0 0 0 .45-.5V4.72a.5.5 0 0 0-.45-.5A44.3 44.3 0 0 0 8 4Zm-3 7a1 1 0 1 0-2 0 1 1 0 0 0 2 0Zm8 0a1 1 0 1 0-2 0 1 1 0 0 0 2 0Zm-7 0a1 1 0 0 0 1 1h2a1 1 0 1 0 0-2H7a1 1 0 0 0-1 1Z"/></svg>