<svg xmlns="http://www.w3.org/2000/svg" width="16" height="16" viewBox="0 0 16 16" id="icon"><path d="m8 .01-.6.8a.75.75 0 0 0 .1 1V4H5a2 2 0 0 0-2 2v3H2a2 2 0 0 0-2 2v4a1 1 0 0 0 1 1h14a1 1 0 0 0 1-1v-4a2 2 0 0 0-2-2h-1V6a2 2 0 0 0-2-2H8.5V1.8a.75.75 0 0 0 .1-1zM4 6a1 1 0 0 1 1-1h6a1 1 0 0 1 1 1v.41a1 1 0 0 1-.65-.26 1.9 1.9 0 0 0-2.7 0 .9.9 0 0 1-1.3 0 1.9 1.9 0 0 0-2.7 0A1 1 0 0 1 4 6.4zm0 1.41c.49 0 .98-.18 1.35-.56a.9.9 0 0 1 1.3 0 1.9 1.9 0 0 0 2.7 0 .9.9 0 0 1 1.3 0c.37.38.86.56 1.35.56V9H4zM1 11a1 1 0 0 1 1-1h12a1 1 0 0 1 1 1v.8l-.35.35a.9.9 0 0 1-1.3 0 1.9 1.9 0 0 0-2.7 0 .9.9 0 0 1-1.3 0 1.9 1.9 0 0 0-2.7 0 .9.9 0 0 1-1.3 0 1.9 1.9 0 0 0-2.7 0 .9.9 0 0 1-1.3 0L1 11.79zm11.65 1.85a1.9 1.9 0 0 0 2.35.28V15H1v-1.87c.74.45 1.72.36 2.35-.28a.9.9 0 0 1 1.3 0 1.9 1.9 0 0 0 2.7 0 .9.9 0 0 1 1.3 0 1.9 1.9 0 0 0 2.7 0 .9.9 0 0 1 1.3 0"/></svg>