<svg xmlns="http://www.w3.org/2000/svg" width="16" height="16" viewBox="0 0 16 16"><path d="m3.5.01-.6.8a.75.75 0 0 0 .1 1V4.5l-.43.1q-1.07.3-1.75.7C.41 5.56 0 5.95 0 6.5v7c0 .55.4.94.82 1.2.44.28 1.05.51 1.75.7 1.4.37 3.33.6 5.43.6s4.02-.23 5.43-.6q1.06-.28 1.75-.7c.41-.26.82-.65.82-1.2v-7c0-.55-.4-.94-.82-1.2a6 6 0 0 0-1.75-.7L13 4.5V1.8a.75.75 0 0 0 .1-1l-.6-.79-.6.8a.75.75 0 0 0 .1 1V4.3a22 22 0 0 0-2-.23V1.81a.75.75 0 0 0 .1-1L9.5 0l-.6.8a.75.75 0 0 0 .1 1V4a29 29 0 0 0-2 0V1.8a.75.75 0 0 0 .1-1L6.5 0l-.6.8a.75.75 0 0 0 .1 1v2.26q-1.07.08-2 .23V1.8a.75.75 0 0 0 .1-1zm-.67 5.56L3 5.52v.97q.47.11 1 .2V5.32a21 21 0 0 1 2-.25v1.86l1 .05V5.02a28 28 0 0 1 2 0v1.96l1-.05V5.07q1.09.09 2 .25v1.37q.53-.09 1-.2v-.97l.18.05q.98.26 1.46.57c.35.22.36.35.36.36s-.01.14-.36.36q-.48.3-1.47.57A21 21 0 0 1 8 8a21 21 0 0 1-5.17-.57 6 6 0 0 1-1.47-.57C1 6.64 1 6.5 1 6.5s.01-.14.36-.36q.47-.3 1.47-.57M15 7.8v1.02l-.68.91a.94.94 0 0 1-1.17.28 1.9 1.9 0 0 0-2.24.36l-.34.35a1 1 0 0 1-1.31.09l-.06-.04a2 2 0 0 0-2.4 0l-.06.04a1 1 0 0 1-1.3-.1l-.36-.34A1.9 1.9 0 0 0 2.85 10a.94.94 0 0 1-1.17-.27L1 8.82V7.81q.64.34 1.57.59C3.97 8.77 5.9 9 8 9s4.02-.23 5.43-.6A7 7 0 0 0 15 7.8m0 2.69v3.01s-.01.14-.36.36q-.48.3-1.47.57A21 21 0 0 1 8 15a21 21 0 0 1-5.17-.57 6 6 0 0 1-1.47-.57C1 13.64 1 13.5 1 13.5v-3.02a1.94 1.94 0 0 0 2.3.43.9.9 0 0 1 1.08.18l.35.34a2 2 0 0 0 2.61.19l.06-.04a1 1 0 0 1 1.2 0l.06.04a2 2 0 0 0 2.61-.19l.35-.34a.9.9 0 0 1 1.08-.18c.78.4 1.72.2 2.3-.42"/></svg>