<svg xmlns="http://www.w3.org/2000/svg" width="16" height="16" viewBox="0 0 16 16"><path d="M7.4.8 8 .01l.6.8a.75.75 0 0 1-.1 1V4H11a2 2 0 0 1 2 2v3h1a2 2 0 0 1 2 2v4a1 1 0 0 1-1 1H1a1 1 0 0 1-1-1v-4a2 2 0 0 1 2-2h1V6a2 2 0 0 1 2-2h2.5V1.81a.75.75 0 0 1-.1-1ZM12 6.41a1 1 0 0 1-.65-.26 1.9 1.9 0 0 0-2.7 0 .9.9 0 0 1-1.3 0 1.9 1.9 0 0 0-2.7 0A1 1 0 0 1 4 6.4v1c.49 0 .98-.18 1.35-.56a.9.9 0 0 1 1.3 0 1.9 1.9 0 0 0 2.7 0 .9.9 0 0 1 1.3 0c.37.38.86.56 1.35.56zm2.65 5.74a.9.9 0 0 1-1.3 0 1.9 1.9 0 0 0-2.7 0 .9.9 0 0 1-1.3 0 1.9 1.9 0 0 0-2.7 0 .9.9 0 0 1-1.3 0 1.9 1.9 0 0 0-2.7 0 .9.9 0 0 1-1.3 0L1 11.79v1.34c.74.45 1.72.36 2.35-.28a.9.9 0 0 1 1.3 0 1.9 1.9 0 0 0 2.7 0 .9.9 0 0 1 1.3 0 1.9 1.9 0 0 0 2.7 0 .9.9 0 0 1 1.3 0 1.9 1.9 0 0 0 2.35.28V11.8z"/></svg>