<svg xmlns="http://www.w3.org/2000/svg" width="16" height="16" viewBox="0 0 16 16" id="icon"><path d="m2.9.8.6-.79.6.8a.75.75 0 0 1-.1 1v4.88q-.53-.09-1-.2V1.81a.75.75 0 0 1-.1-1Zm10.1 1v4.7l-1 .2V1.8a.75.75 0 0 1-.1-1l.6-.8.6.8a.75.75 0 0 1-.1 1m-3 0a.75.75 0 0 0 .1-1L9.5 0l-.6.8a.75.75 0 0 0 .1 1v5.17l1-.05zm-3 0v5.17l-1-.05V1.8a.75.75 0 0 1-.1-1l.6-.8.6.8a.75.75 0 0 1-.1 1"/><path d="M4.5 6.99V4.23l1-.12v3.05c0 .13.1.24.23.25l.23.02 1.02.05.26.01a.25.25 0 0 0 .26-.25V4h1v3.24a.25.25 0 0 0 .26.25h.26l1.02-.06.23-.02a.25.25 0 0 0 .23-.25V4.1q.52.05 1 .12v2.76a.25.25 0 0 0 .3.24l.28-.05q.55-.09 1.04-.2l.19-.05a.25.25 0 0 0 .19-.24V4.62q1.02.28 1.68.68c.41.26.82.65.82 1.2v7c0 .55-.4.94-.82 1.2q-.68.42-1.75.7c-1.4.37-3.33.6-5.43.6s-4.02-.23-5.43-.6q-1.06-.28-1.75-.7c-.41-.26-.82-.65-.82-1.2v-7c0-.55.4-.94.82-1.2q.65-.4 1.68-.68V6.7q.01.18.2.24l.18.05q.49.11 1.04.2l.29.06A.25.25 0 0 0 4.5 7M1 8.82v1.66a1.94 1.94 0 0 0 2.3.43.9.9 0 0 1 1.08.17l.35.35a2 2 0 0 0 2.61.19l.06-.05a1 1 0 0 1 1.2 0l.06.05a2 2 0 0 0 2.61-.19l.35-.34a.9.9 0 0 1 1.08-.18c.78.39 1.72.2 2.3-.43V8.83l-.68.91a.94.94 0 0 1-1.17.28 1.9 1.9 0 0 0-2.24.36l-.34.35a1 1 0 0 1-1.31.09l-.06-.04a2 2 0 0 0-2.4 0l-.06.04a1 1 0 0 1-1.3-.1l-.36-.34A1.9 1.9 0 0 0 2.85 10a.94.94 0 0 1-1.17-.27z"/></svg>