<svg xmlns="http://www.w3.org/2000/svg" width="16" height="16" viewBox="0 0 16 16" id="icon"><path d="m2.56 12.33.54-1.6h1.98l.54 1.6h.72L4.44 7h-.7l-1.89 5.33zM4.1 7.81l.8 2.37H3.28l.8-2.37zm5.75.42h-.68v2.54c0 .65-.41 1.02-1 1.02-.54 0-.98-.24-.98-1V8.22h-.68v2.74c0 .94.61 1.43 1.46 1.43.65 0 1.04-.28 1.19-.6h.02v.53h.67zm2.26 5.04c-.56 0-.91-.3-.99-.63h-.68c.09.68.62 1.2 1.66 1.2.93 0 1.75-.53 1.75-1.58V8.23h-.65v.57h-.02a1.4 1.4 0 0 0-1.2-.64c-.96 0-1.63.68-1.63 1.9v.33c0 1.23.68 1.9 1.64 1.9.55 0 1-.29 1.17-.65h.02v.61c0 .64-.42 1.02-1.07 1.02m0-4.53c.65 0 1.07.53 1.07 1.36v.25c0 .85-.4 1.37-1.06 1.37-.7 0-1.1-.51-1.1-1.37v-.25c0-.87.4-1.36 1.1-1.36"/><path d="M3.5 0a.5.5 0 0 1 .5.5V1h8V.5a.5.5 0 0 1 1 0V1h1a2 2 0 0 1 2 2v11a2 2 0 0 1-2 2H2a2 2 0 0 1-2-2V3a2 2 0 0 1 2-2h1V.5a.5.5 0 0 1 .5-.5M2 2a1 1 0 0 0-1 1v11a1 1 0 0 0 1 1h12a1 1 0 0 0 1-1V3a1 1 0 0 0-1-1z"/><path d="M2.5 4a.5.5 0 0 1 .5-.5h10a.5.5 0 0 1 .5.5v1a.5.5 0 0 1-.5.5H3a.5.5 0 0 1-.5-.5z"/></svg>