<svg xmlns="http://www.w3.org/2000/svg" viewBox="0 0 16 16"><path d="M10.85 8.15a.5.5 0 0 1 0 .7l-3 3a.5.5 0 0 1-.7 0l-1.5-1.5a.5.5 0 0 1 .7-.7l1.15 1.14 2.65-2.64a.5.5 0 0 1 .7 0z"/><path d="M3.5 0a.5.5 0 0 1 .5.5V1h8V.5a.5.5 0 0 1 1 0V1h1a2 2 0 0 1 2 2v11a2 2 0 0 1-2 2H2a2 2 0 0 1-2-2V3a2 2 0 0 1 2-2h1V.5a.5.5 0 0 1 .5-.5zM2 2a1 1 0 0 0-1 1v11a1 1 0 0 0 1 1h12a1 1 0 0 0 1-1V3a1 1 0 0 0-1-1H2z"/><path d="M2.5 4a.5.5 0 0 1 .5-.5h10a.5.5 0 0 1 .5.5v1a.5.5 0 0 1-.5.5H3a.5.5 0 0 1-.5-.5V4z"/></svg>