<svg xmlns="http://www.w3.org/2000/svg" width="16" height="16" viewBox="0 0 16 16"><path d="m4.1 7.8.8 2.38H3.28l.8-2.37zm9.08 2.3c0-.83-.42-1.36-1.06-1.36-.7 0-1.1.5-1.1 1.36v.26c0 .85.4 1.36 1.1 1.36.67 0 1.06-.52 1.06-1.36z"/><path d="M3.5 0a.5.5 0 0 1 .5.5V1h8V.5a.5.5 0 0 1 1 0V1h1a2 2 0 0 1 2 2v11a2 2 0 0 1-2 2H2a2 2 0 0 1-2-2V3a2 2 0 0 1 2-2h1V.5a.5.5 0 0 1 .5-.5m9.95 3H2.55c-.3 0-.55.22-.55.5v1c0 .28.24.5.55.5h10.9c.3 0 .55-.22.55-.5v-1c0-.28-.24-.5-.55-.5M2.56 12.33l.54-1.6h1.98l.54 1.6h.72L4.44 7h-.7l-1.89 5.33zm7.29-4.1h-.68v2.54c0 .65-.41 1.02-1 1.02-.54 0-.98-.24-.98-1V8.22h-.68v2.74c0 .94.61 1.43 1.46 1.43.65 0 1.04-.28 1.18-.6h.03v.53h.67zm1.27 4.4h-.68c.09.69.62 1.2 1.66 1.2.93 0 1.75-.52 1.75-1.57V8.23h-.65v.57h-.02a1.4 1.4 0 0 0-1.2-.64c-.96 0-1.63.68-1.63 1.9v.33c0 1.23.68 1.9 1.64 1.9.55 0 1-.29 1.17-.65h.02v.61c0 .64-.42 1.02-1.07 1.02-.56 0-.91-.3-.99-.63"/></svg>