<svg xmlns="http://www.w3.org/2000/svg" viewBox="0 0 16 16"><path d="M6.15 8.15a.5.5 0 0 1 .7 0L8 9.29l1.15-1.14a.5.5 0 1 1 .7.7L8.71 10l1.14 1.15a.5.5 0 0 1-.7.7L8 10.71l-1.15 1.14a.5.5 0 0 1-.7-.7L7.29 10 6.15 8.85a.5.5 0 0 1 0-.7z"/><path d="M3.5 0a.5.5 0 0 1 .5.5V1h8V.5a.5.5 0 0 1 1 0V1h1a2 2 0 0 1 2 2v11a2 2 0 0 1-2 2H2a2 2 0 0 1-2-2V3a2 2 0 0 1 2-2h1V.5a.5.5 0 0 1 .5-.5zM2 2a1 1 0 0 0-1 1v11a1 1 0 0 0 1 1h12a1 1 0 0 0 1-1V3a1 1 0 0 0-1-1H2z"/><path d="M2.5 4a.5.5 0 0 1 .5-.5h10a.5.5 0 0 1 .5.5v1a.5.5 0 0 1-.5.5H3a.5.5 0 0 1-.5-.5V4z"/></svg>