<svg xmlns="http://www.w3.org/2000/svg" width="16" height="16" viewBox="0 0 16 16" id="icon"><path d="M9.4 10.25c.63 0 1.19-.49 1.19-1.18 0-.84-.53-1.23-1.16-1.23-.59 0-1.17.38-1.17 1.2s.54 1.2 1.14 1.2"/><path d="M3.5 0a.5.5 0 0 1 .5.5V1h8V.5a.5.5 0 0 1 1 0V1h1a2 2 0 0 1 2 2v11a2 2 0 0 1-2 2H2a2 2 0 0 1-2-2V3a2 2 0 0 1 2-2h1V.5a.5.5 0 0 1 .5-.5m9.95 3H2.55c-.3 0-.55.22-.55.5v1c0 .28.24.5.55.5h10.9c.3 0 .55-.22.55-.5v-1c0-.28-.24-.5-.55-.5m-4.11 9.79c1.25 0 2-1.07 2-2.87 0-1.94-.78-2.67-1.96-2.67-.92 0-1.8.67-1.8 1.8 0 1.17.83 1.78 1.68 1.78.75 0 1.23-.38 1.39-.8h.02c0 1.32-.46 2.17-1.3 2.17-.67 0-1.01-.45-1.05-.82h-.69c.05.64.6 1.4 1.7 1.4zm-2.9-5.43h-.63a13 13 0 0 0-1.31.8v.7c.38-.26.97-.62 1.26-.78h.01v4.6h.68z"/></svg>