<svg xmlns="http://www.w3.org/2000/svg" width="16" height="16" viewBox="0 0 16 16" id="icon"><path d="M6.45 12.69V7.35H5.8a13 13 0 0 0-1.31.81v.7c.38-.26.97-.62 1.26-.78h.01v4.6zm1.18-1.3c.05.63.6 1.4 1.7 1.4 1.26 0 2-1.07 2-2.87 0-1.94-.77-2.67-1.95-2.67-.92 0-1.8.67-1.8 1.8 0 1.17.83 1.78 1.68 1.78.75 0 1.23-.38 1.39-.8h.02c0 1.33-.46 2.17-1.3 2.17-.67 0-1.01-.45-1.05-.82zm2.96-2.32c0 .7-.56 1.18-1.19 1.18-.6 0-1.14-.39-1.14-1.2 0-.83.58-1.21 1.17-1.21.63 0 1.16.4 1.16 1.23"/><path d="M3.5 0a.5.5 0 0 1 .5.5V1h8V.5a.5.5 0 0 1 1 0V1h1a2 2 0 0 1 2 2v11a2 2 0 0 1-2 2H2a2 2 0 0 1-2-2V3a2 2 0 0 1 2-2h1V.5a.5.5 0 0 1 .5-.5M2 2a1 1 0 0 0-1 1v11a1 1 0 0 0 1 1h12a1 1 0 0 0 1-1V3a1 1 0 0 0-1-1z"/><path d="M2.5 4a.5.5 0 0 1 .5-.5h10a.5.5 0 0 1 .5.5v1a.5.5 0 0 1-.5.5H3a.5.5 0 0 1-.5-.5z"/></svg>