<svg xmlns="http://www.w3.org/2000/svg" width="16" height="16" viewBox="0 0 16 16" id="icon"><path d="M4.68 12.52v-2.3h2.27v-.6H4.68V7.8h2.47v-.6H4v5.32zm3.3 0h.68V9.98c0-.55.22-1 .95-1h.33v-.6l-.26-.02c-.58 0-.89.32-1 .56h-.03v-.5h-.67zm2.8-5.09c0 .24.2.43.44.43a.43.43 0 1 0 0-.86.43.43 0 0 0-.44.43m.1 5.1h.67V8.41h-.67z"/><path d="M3.5 0a.5.5 0 0 1 .5.5V1h8V.5a.5.5 0 0 1 1 0V1h1a2 2 0 0 1 2 2v11a2 2 0 0 1-2 2H2a2 2 0 0 1-2-2V3a2 2 0 0 1 2-2h1V.5a.5.5 0 0 1 .5-.5M2 2a1 1 0 0 0-1 1v11a1 1 0 0 0 1 1h12a1 1 0 0 0 1-1V3a1 1 0 0 0-1-1z"/><path d="M2.5 4a.5.5 0 0 1 .5-.5h10a.5.5 0 0 1 .5.5v1a.5.5 0 0 1-.5.5H3a.5.5 0 0 1-.5-.5z"/></svg>