<svg xmlns="http://www.w3.org/2000/svg" width="16" height="16" viewBox="0 0 16 16"><path d="M4 .5a.5.5 0 0 0-1 0V1H2a2 2 0 0 0-2 2v1h16V3a2 2 0 0 0-2-2h-1V.5a.5.5 0 0 0-1 0V1H4zm5.4 9.75c.63 0 1.19-.49 1.19-1.18 0-.84-.53-1.23-1.16-1.23-.59 0-1.17.38-1.17 1.2s.54 1.2 1.14 1.2"/><path d="M16 14V5H0v9a2 2 0 0 0 2 2h12a2 2 0 0 0 2-2m-6.66-1.21c-1.11 0-1.66-.77-1.7-1.4h.68c.04.36.38.81 1.05.81.84 0 1.3-.84 1.3-2.16h-.02c-.16.41-.64.79-1.39.79-.85 0-1.67-.61-1.67-1.77 0-1.14.87-1.81 1.8-1.81 1.17 0 1.95.73 1.95 2.67 0 1.8-.75 2.87-2 2.87m-2.9-5.43v5.33h-.67V8.08h-.01a17 17 0 0 0-1.26.78v-.7a13 13 0 0 1 1.31-.8z"/></svg>