<svg xmlns="http://www.w3.org/2000/svg" width="16" height="16" viewBox="0 0 16 16"><path d="M4 .5a.5.5 0 0 0-1 0V1H2a2 2 0 0 0-2 2v1h16V3a2 2 0 0 0-2-2h-1V.5a.5.5 0 0 0-1 0V1H4zm.1 7.3.8 2.38H3.28l.8-2.37zm9.08 2.3c0-.83-.42-1.36-1.06-1.36-.7 0-1.1.5-1.1 1.36v.26c0 .85.4 1.36 1.1 1.36.67 0 1.06-.52 1.06-1.36z"/><path d="M16 14V5H0v9a2 2 0 0 0 2 2h12a2 2 0 0 0 2-2M2.56 12.33h-.71L3.75 7h.7l1.9 5.33h-.73l-.54-1.6H3.1zm7.29-4.1v4.1h-.67v-.54h-.02c-.15.33-.54.6-1.2.6-.84 0-1.45-.48-1.45-1.42V8.23h.68v2.55c0 .77.44 1.01.98 1.01.59 0 1-.37 1-1.02V8.23zm1.27 4.4c.08.34.43.64.99.64.65 0 1.07-.37 1.07-1.02v-.6h-.02c-.16.35-.61.64-1.17.64-.96 0-1.64-.67-1.64-1.9v-.34c0-1.2.67-1.89 1.64-1.89.56 0 1 .3 1.2.64h.01v-.57h.65v4.03c0 1.05-.82 1.58-1.75 1.58-1.04 0-1.57-.52-1.66-1.2z"/></svg>