<svg viewBox="0 0 16 16"><path d="M3.5 0a.5.5 0 0 1 .5.5V1h8V.5a.5.5 0 0 1 1 0V1h1a2 2 0 0 1 2 2v11a2 2 0 0 1-2 2H2a2 2 0 0 1-2-2V3a2 2 0 0 1 2-2h1V.5a.5.5 0 0 1 .5-.5zm9.95 3H2.55c-.3 0-.55.22-.55.5v1c0 .28.24.5.55.5h10.9c.3 0 .55-.22.55-.5v-1c0-.28-.24-.5-.55-.5zm-2.24 4.86a.43.43 0 1 0 0-.86.43.43 0 0 0-.43.43c0 .24.2.42.44.42zm.34.56h-.67v4.1h.67v-4.1zm-6.87 4.1v-2.3h2.27v-.6H4.68V7.8h2.47v-.6H4v5.32h.68zm3.3 0h.68V9.98c0-.55.22-1 .95-1h.33v-.6a1.8 1.8 0 0 0-.26-.02c-.58 0-.89.32-1 .56h-.03v-.5h-.67v4.1z"/></svg>