<svg xmlns="http://www.w3.org/2000/svg" width="16" height="16" viewBox="0 0 16 16"><path d="M15 12a1 1 0 0 1-1 1H2a1 1 0 0 1-1-1V6a1 1 0 0 1 1-1h1.17a3 3 0 0 0 2.12-.88l.83-.83a1 1 0 0 1 .7-.29h2.35a1 1 0 0 1 .7.3l.84.82a3 3 0 0 0 2.12.88H14a1 1 0 0 1 1 1zM2 4a2 2 0 0 0-2 2v6a2 2 0 0 0 2 2h12a2 2 0 0 0 2-2V6a2 2 0 0 0-2-2h-1.17a2 2 0 0 1-1.42-.59l-.82-.82A2 2 0 0 0 9.17 2H6.83a2 2 0 0 0-1.42.59l-.82.82A2 2 0 0 1 3.17 4z"/><path d="M8 11a2.5 2.5 0 1 1 0-5 2.5 2.5 0 0 1 0 5m0 1a3.5 3.5 0 1 0 0-7 3.5 3.5 0 0 0 0 7M3 6.5a.5.5 0 1 1-1 0 .5.5 0 0 1 1 0"/></svg>