<svg xmlns="http://www.w3.org/2000/svg" width="16" height="16" viewBox="0 0 16 16"><path d="M2.52 3.52A2.5 2.5 0 0 1 4.82 2h6.36c1 0 1.9.6 2.3 1.52l.8 1.84a1 1 0 0 0 .37.4c.5.26.86.72.97 1.27l.33 1.68q.05.24.05.49v.41a2.5 2.5 0 0 1-1 2v1.89a.5.5 0 0 1-.5.5h-2a.5.5 0 0 1-.5-.5v-1.34c-1.3.05-2.74.09-4 .09s-2.7-.04-4-.09v1.34a.5.5 0 0 1-.5.5h-2a.5.5 0 0 1-.5-.5v-1.9c-.6-.45-1-1.17-1-1.99V9.2a3 3 0 0 1 .05-.5l.34-1.67a1.8 1.8 0 0 1 .96-1.26.8.8 0 0 0 .38-.4zM3 10a1 1 0 1 0 0-2 1 1 0 0 0 0 2m10 0a1 1 0 1 0 0-2 1 1 0 0 0 0 2M6 8a1 1 0 0 0 0 2h4a1 1 0 1 0 0-2zM2.9 5.19a.51.51 0 0 0 .5.73c.91-.07 3.35-.17 4.6-.17s3.69.1 4.6.17a.51.51 0 0 0 .5-.73l-.96-1.91a.5.5 0 0 0-.45-.28H4.31a.5.5 0 0 0-.45.28z"/></svg>