<svg xmlns="http://www.w3.org/2000/svg" width="16" height="16" viewBox="0 0 16 16" id="icon"><path d="M4 9a1 1 0 1 1-2 0 1 1 0 0 1 2 0m10 0a1 1 0 1 1-2 0 1 1 0 0 1 2 0M6 8a1 1 0 0 0 0 2h4a1 1 0 1 0 0-2zM4.86 4.28l-.95 1.91a.51.51 0 0 0 .5.73c.9-.07 2.34-.17 3.59-.17s2.69.1 3.6.17a.51.51 0 0 0 .5-.73l-.96-1.91a.5.5 0 0 0-.45-.28H5.31a.5.5 0 0 0-.45.28"/><path d="M2.52 3.52A2.5 2.5 0 0 1 4.82 2h6.36c1 0 1.9.6 2.3 1.52l.8 1.84a1 1 0 0 0 .37.4c.5.26.86.72.97 1.27l.33 1.68q.05.24.05.49v.41a2.5 2.5 0 0 1-1 2v1.89a.5.5 0 0 1-.5.5h-2a.5.5 0 0 1-.5-.5v-1.34c-1.3.05-2.74.09-4 .09s-2.7-.04-4-.09v1.34a.5.5 0 0 1-.5.5h-2a.5.5 0 0 1-.5-.5v-1.9c-.6-.45-1-1.17-1-1.99V9.2a3 3 0 0 1 .05-.5l.34-1.67a1.8 1.8 0 0 1 .96-1.26.8.8 0 0 0 .38-.4zM4.82 3a1.5 1.5 0 0 0-1.38.91l-.8 1.85a1.8 1.8 0 0 1-.84.9.8.8 0 0 0-.43.56L1.03 8.9 1 9.2v.41c0 .8.62 1.45 1.4 1.49 1.56.07 3.8.15 5.6.15s4.04-.08 5.6-.15A1.5 1.5 0 0 0 15 9.6v-.4q0-.15-.03-.3l-.33-1.68a.8.8 0 0 0-.44-.56 1.8 1.8 0 0 1-.85-.9l-.79-1.85A1.5 1.5 0 0 0 11.18 3z"/></svg>