<svg xmlns="http://www.w3.org/2000/svg" viewBox="0 0 16 16"><path d="M14.5 3a.5.5 0 0 1 .5.5v9a.5.5 0 0 1-.5.5h-13a.5.5 0 0 1-.5-.5v-9a.5.5 0 0 1 .5-.5h13zm-13-1A1.5 1.5 0 0 0 0 3.5v9A1.5 1.5 0 0 0 1.5 14h13a1.5 1.5 0 0 0 1.5-1.5v-9A1.5 1.5 0 0 0 14.5 2h-13z"/><path d="M7 5.5a.5.5 0 0 1 .5-.5h5a.5.5 0 0 1 0 1h-5a.5.5 0 0 1-.5-.5zm-1.5-.85a.5.5 0 0 1 0 .7L4 6.85a.5.5 0 0 1-.7 0l-.5-.5a.5.5 0 1 1 .7-.7l.15.14L4.8 4.65a.5.5 0 0 1 .7 0zM7 9.5a.5.5 0 0 1 .5-.5h5a.5.5 0 0 1 0 1h-5a.5.5 0 0 1-.5-.5zm-1.5-.85a.5.5 0 0 1 0 .7L4 10.85a.5.5 0 0 1-.7 0l-.5-.5a.5.5 0 0 1 .7-.7l.15.14L4.8 8.65a.5.5 0 0 1 .7 0z"/></svg>