<svg xmlns="http://www.w3.org/2000/svg" width="16" height="16" viewBox="0 0 16 16" id="icon"><path d="M7.35 5.65a.5.5 0 1 0-.7.7L7.79 7.5 6.65 8.65a.5.5 0 1 0 .7.7L8.5 8.21l1.15 1.14a.5.5 0 0 0 .7-.7L9.21 7.5l1.14-1.15a.5.5 0 0 0-.7-.7L8.5 6.79z"/><path d="M.5 1a.5.5 0 0 0 0 1h1.11l.4 1.6 1.5 8A.5.5 0 0 0 4 12h1a2 2 0 1 0 0 4 2 2 0 0 0 0-4h7a2 2 0 1 0 0 4 2 2 0 0 0 0-4h1a.5.5 0 0 0 .5-.4l1.5-8a.5.5 0 0 0-.5-.6H2.89l-.4-1.62A.5.5 0 0 0 2 1zm3.92 10L3.1 4h10.8l-1.32 7zM6 14a1 1 0 1 1-2 0 1 1 0 0 1 2 0m7 0a1 1 0 1 1-2 0 1 1 0 0 1 2 0"/></svg>