<svg xmlns="http://www.w3.org/2000/svg" width="16" height="16" viewBox="0 0 16 16"><path fill-rule="evenodd" d="M11 15a4 4 0 1 0 0-8 4 4 0 0 0 0 8m5-4a5 5 0 1 1-10 0 5 5 0 0 1 10 0"/><path d="M9.44 11.94c.05.6.52 1.06 1.36 1.12v.44h.38v-.44c.87-.06 1.38-.53 1.38-1.21 0-.62-.39-.94-1.09-1.1l-.3-.07v-1.2c.38.04.62.25.68.53h.65c-.04-.57-.54-1.02-1.32-1.07V8.5h-.38v.45c-.75.07-1.25.52-1.25 1.16 0 .56.37.92 1 1.06l.25.06v1.28q-.59-.1-.7-.57zm1.36-1.35q-.56-.12-.57-.52.02-.47.57-.58zm.43.75q.67.13.66.57c0 .33-.26.57-.71.6v-1.19z"/><path d="M1 0a1 1 0 0 0-1 1v8a1 1 0 0 0 1 1h4.08q.1-.52.26-1H3a2 2 0 0 0-2-2V3a2 2 0 0 0 2-2h10a2 2 0 0 0 2 2v3.53q.58.51 1 1.15V1a1 1 0 0 0-1-1z"/><path d="M10 5.08V5a2 2 0 1 0-3.13 1.65A6 6 0 0 1 10 5.08"/></svg>