<svg xmlns="http://www.w3.org/2000/svg" width="16" height="16" viewBox="0 0 16 16"><path d="M16 8A8 8 0 1 1 0 8a8 8 0 0 1 16 0M5.4 5.89c.69 0 1.15.47 1.2 1.1h1.14v-.1c-.05-1.19-1.02-2-2.34-2-1.6 0-2.52 1.05-2.52 2.75v.75c0 1.7.9 2.72 2.52 2.72 1.31 0 2.28-.79 2.34-1.93v-.12H6.6c-.04.62-.5 1.05-1.18 1.05-.84 0-1.32-.62-1.32-1.72v-.75c0-1.1.49-1.75 1.32-1.75Zm5.41 0c.68 0 1.14.47 1.19 1.1h1.15v-.1c-.06-1.19-1.03-2-2.35-2-1.6 0-2.51 1.05-2.51 2.75v.75c0 1.7.9 2.72 2.51 2.72 1.32 0 2.29-.79 2.35-1.93v-.12H12c-.05.62-.5 1.05-1.19 1.05-.84 0-1.32-.62-1.32-1.72v-.75c0-1.1.5-1.75 1.32-1.75"/></svg>