<svg xmlns="http://www.w3.org/2000/svg" viewBox="0 0 16 16"><path fill-rule="evenodd" d="M15 2a1 1 0 0 0-1-1H2a1 1 0 0 0-1 1v12a1 1 0 0 0 1 1h12a1 1 0 0 0 1-1V2ZM0 2a2 2 0 0 1 2-2h12a2 2 0 0 1 2 2v12a2 2 0 0 1-2 2H2a2 2 0 0 1-2-2V2Zm5.4 3.89c-.82 0-1.31.64-1.31 1.75v.75c0 1.1.48 1.72 1.32 1.72.69 0 1.14-.43 1.18-1.05h1.15v.12c-.06 1.14-1.03 1.93-2.34 1.93-1.61 0-2.52-1.02-2.52-2.72v-.75c0-1.7.92-2.75 2.52-2.75 1.32 0 2.29.81 2.34 2v.1H6.6c-.04-.63-.5-1.1-1.18-1.1Zm5.41 0c-.83 0-1.32.64-1.32 1.75v.75c0 1.1.48 1.72 1.32 1.72.7 0 1.14-.43 1.19-1.05h1.15v.12c-.06 1.14-1.03 1.93-2.35 1.93-1.61 0-2.51-1.02-2.51-2.72v-.75c0-1.7.9-2.75 2.51-2.75 1.32 0 2.3.81 2.35 2v.1H12c-.05-.63-.5-1.1-1.19-1.1Z"/><path fill-rule="evenodd" d="M15 2a1 1 0 0 0-1-1H2a1 1 0 0 0-1 1v12a1 1 0 0 0 1 1h12a1 1 0 0 0 1-1V2ZM0 2a2 2 0 0 1 2-2h12a2 2 0 0 1 2 2v12a2 2 0 0 1-2 2H2a2 2 0 0 1-2-2V2Zm5.4 3.89c-.82 0-1.31.64-1.31 1.75v.75c0 1.1.48 1.72 1.32 1.72.69 0 1.14-.43 1.18-1.05h1.15v.12c-.06 1.14-1.03 1.93-2.34 1.93-1.61 0-2.52-1.02-2.52-2.72v-.75c0-1.7.92-2.75 2.52-2.75 1.32 0 2.29.81 2.34 2v.1H6.6c-.04-.63-.5-1.1-1.18-1.1Zm5.41 0c-.83 0-1.32.64-1.32 1.75v.75c0 1.1.48 1.72 1.32 1.72.7 0 1.14-.43 1.19-1.05h1.15v.12c-.06 1.14-1.03 1.93-2.35 1.93-1.61 0-2.51-1.02-2.51-2.72v-.75c0-1.7.9-2.75 2.51-2.75 1.32 0 2.3.81 2.35 2v.1H12c-.05-.63-.5-1.1-1.19-1.1Z"/></svg>