<svg xmlns="http://www.w3.org/2000/svg" width="16" height="16" viewBox="0 0 16 16"><path d="M14 1a1 1 0 0 1 1 1v8a1 1 0 0 1-1 1H4.41a2 2 0 0 0-1.41.59l-2 2V2a1 1 0 0 1 1-1zM2 0a2 2 0 0 0-2 2v12.8a.5.5 0 0 0 .85.35l2.86-2.86a1 1 0 0 1 .7-.29H14a2 2 0 0 0 2-2V2a2 2 0 0 0-2-2z"/><path d="M7.07 4.76a1.67 1.67 0 0 0-3.07.9 1.67 1.67 0 0 0 2.56 1.41q-.18.6-.78 1.22a.42.42 0 1 0 .6.58c1.49-1.54 1.3-3.21.69-4.1zm4 0a1.67 1.67 0 0 0-3.07.9 1.67 1.67 0 0 0 2.56 1.41q-.18.6-.78 1.22a.42.42 0 1 0 .6.58c1.49-1.54 1.3-3.21.69-4.1z"/></svg>