<svg xmlns="http://www.w3.org/2000/svg" width="16" height="16" viewBox="0 0 16 16" id="icon"><path d="M2.68 11.9a1 1 0 0 1 .28.8 11 11 0 0 1-.4 2c1.4-.33 2.25-.7 2.64-.9a1 1 0 0 1 .71-.07A8 8 0 0 0 8 14c4 0 7-2.8 7-6s-3-6-7-6-7 2.8-7 6a5.5 5.5 0 0 0 1.68 3.9m-.5 3.9-.7.13c-.2.03-.36-.18-.28-.36l.24-.64v-.01c.25-.72.46-1.55.53-2.32A6.5 6.5 0 0 1 0 8c0-3.87 3.58-7 8-7s8 3.13 8 7-3.58 7-8 7a9 9 0 0 1-2.35-.3c-.52.26-1.64.74-3.46 1.1"/><path d="M7.07 6.76a1.67 1.67 0 0 0-3.07.9 1.67 1.67 0 0 0 2.56 1.41q-.18.6-.78 1.22a.42.42 0 0 0 .6.58c1.49-1.54 1.3-3.21.69-4.1zm4 0a1.67 1.67 0 0 0-3.07.9 1.67 1.67 0 0 0 2.56 1.41q-.18.6-.78 1.22a.42.42 0 0 0 .6.58c1.49-1.54 1.3-3.21.69-4.1z"/></svg>