<svg viewBox="0 0 16 16"><path fill-rule="evenodd" d="M2.96 12.7a1 1 0 0 0-.28-.8A5.5 5.5 0 0 1 1 8c0-3.2 3-6 7-6s7 2.8 7 6-3 6-7 6a8.06 8.06 0 0 1-2.09-.27 1 1 0 0 0-.7.07c-.4.2-1.25.57-2.64.9a10.97 10.97 0 0 0 .4-2Zm-.8 3.1h.02c1.83-.36 2.95-.84 3.47-1.1A9.06 9.06 0 0 0 8 15c4.42 0 8-3.13 8-7s-3.58-7-8-7-8 3.13-8 7a6.5 6.5 0 0 0 1.97 4.6 10.44 10.44 0 0 1-.52 2.32 10.72 10.72 0 0 1-.25.65c-.08.18.07.39.27.36a21.67 21.67 0 0 0 .7-.13ZM8 6c1.66-1.72 5.83 1.28 0 5.13-5.83-3.86-1.66-6.85 0-5.14Z"/></svg>