<svg viewBox="0 0 16 16"><path d="M0 2a2 2 0 0 1 2-2h12a2 2 0 0 1 2 2v8a2 2 0 0 1-2 2H4.41a1 1 0 0 0-.7.3L.85 15.14a.5.5 0 0 1-.85-.36V2zm7.2 2.77a1.69 1.69 0 0 0-.23-.28 1.47 1.47 0 0 0-.47-.32h-.01A1.78 1.78 0 0 0 5.73 4 1.7 1.7 0 0 0 4 5.67c0 .92.78 1.66 1.73 1.66.35 0 .67-.1.93-.26-.13.4-.39.8-.8 1.22a.4.4 0 0 0 0 .6c.18.15.45.15.62-.02 1.33-1.33 1.37-2.75.94-3.7a2.46 2.46 0 0 0-.23-.4zm3.8 2.3c-.14.4-.39.8-.81 1.22a.4.4 0 0 0 .01.6c.17.15.45.15.62-.02 1.33-1.33 1.36-2.75.94-3.7a2.47 2.47 0 0 0-.23-.4 1.69 1.69 0 0 0-.23-.28 1.47 1.47 0 0 0-.47-.32 1.78 1.78 0 0 0-.76-.17 1.7 1.7 0 0 0-1.73 1.67c0 .92.77 1.66 1.73 1.66.34 0 .66-.1.93-.26z"/></svg>