<svg xmlns="http://www.w3.org/2000/svg" width="16" height="16" viewBox="0 0 16 16" id="icon"><path d="M0 2a2 2 0 0 1 2-2h12a2 2 0 0 1 2 2v8a2 2 0 0 1-2 2H4.41a1 1 0 0 0-.7.3L.85 15.14a.5.5 0 0 1-.85-.36zm7.2 2.77-.23-.28a2 2 0 0 0-.47-.32h-.01A2 2 0 0 0 5.73 4 1.7 1.7 0 0 0 4 5.67c0 .92.78 1.66 1.73 1.66q.53-.01.93-.26-.19.6-.8 1.22a.4.4 0 0 0 0 .6c.18.15.45.15.62-.02 1.33-1.33 1.37-2.75.94-3.7l-.23-.4zm3.8 2.3q-.2.6-.81 1.22a.4.4 0 0 0 .01.6c.17.15.45.15.62-.02 1.33-1.33 1.36-2.75.94-3.7l-.23-.4-.23-.28a2 2 0 0 0-.47-.32 2 2 0 0 0-.76-.17 1.7 1.7 0 0 0-1.73 1.67c0 .92.77 1.66 1.73 1.66q.52-.01.93-.26"/></svg>