<svg xmlns="http://www.w3.org/2000/svg" viewBox="0 0 16 16"><path d="M16 8c0 3.87-3.58 7-8 7a9.06 9.06 0 0 1-2.35-.3c-.58.29-1.92.86-4.18 1.23-.2.03-.35-.18-.27-.36.35-.84.67-1.95.77-2.97A6.5 6.5 0 0 1 0 8c0-3.87 3.58-7 8-7s8 3.13 8 7zM7.2 6.77a1.69 1.69 0 0 0-.23-.28 1.47 1.47 0 0 0-.47-.32h-.01A1.78 1.78 0 0 0 5.73 6 1.7 1.7 0 0 0 4 7.67c0 .92.78 1.66 1.73 1.66.35 0 .67-.1.93-.26-.13.4-.39.8-.8 1.22a.4.4 0 0 0 0 .6c.18.15.45.15.62-.02 1.33-1.33 1.37-2.75.94-3.7a2.46 2.46 0 0 0-.23-.4zm3.8 2.3c-.14.4-.39.8-.81 1.22a.4.4 0 0 0 .01.6c.17.15.45.15.62-.02 1.33-1.33 1.36-2.75.94-3.7a2.47 2.47 0 0 0-.23-.4 1.69 1.69 0 0 0-.23-.28 1.47 1.47 0 0 0-.47-.32 1.78 1.78 0 0 0-.76-.17 1.7 1.7 0 0 0-1.73 1.67c0 .92.77 1.66 1.73 1.66.34 0 .66-.1.93-.26z"/></svg>