<svg xmlns="http://www.w3.org/2000/svg" width="16" height="16" viewBox="0 0 16 16"><path d="M16 2a2 2 0 0 0-2-2H2a2 2 0 0 0-2 2v8a2 2 0 0 0 2 2h9.59a1 1 0 0 1 .7.3l2.86 2.85a.5.5 0 0 0 .85-.36zM7.2 4.77q.12.18.22.4c.43.94.4 2.37-.94 3.7a.45.45 0 0 1-.61.01.4.4 0 0 1-.01-.59q.61-.63.8-1.22-.4.26-.93.26C4.78 7.33 4 6.6 4 5.67S4.78 4 5.73 4q.41 0 .76.17.27.1.48.32.13.13.22.28M11 7.07q-.41.26-.93.26c-.96 0-1.73-.74-1.73-1.66S9.1 4 10.07 4q.41 0 .76.17.26.1.47.32.13.13.23.28.13.18.23.4c.42.94.39 2.37-.94 3.7a.45.45 0 0 1-.62.01.4.4 0 0 1 0-.59q.6-.63.8-1.22"/></svg>