<svg xmlns="http://www.w3.org/2000/svg" width="16" height="16" viewBox="0 0 16 16" id="icon"><path d="M16 8c0 3.87-3.58 7-8 7a9 9 0 0 1-2.35-.3c-.58.29-1.92.86-4.18 1.23-.2.03-.35-.18-.27-.36.35-.84.67-1.95.77-2.97A6.5 6.5 0 0 1 0 8c0-3.87 3.58-7 8-7s8 3.13 8 7M7.2 6.77l-.23-.28a2 2 0 0 0-.47-.32h-.01A2 2 0 0 0 5.73 6 1.7 1.7 0 0 0 4 7.67c0 .92.78 1.66 1.73 1.66q.53-.01.93-.26-.19.6-.8 1.22a.4.4 0 0 0 0 .6c.18.15.45.15.62-.02 1.33-1.33 1.37-2.75.94-3.7l-.23-.4zm3.8 2.3q-.2.6-.81 1.22a.4.4 0 0 0 .01.6c.17.15.45.15.62-.02 1.33-1.33 1.36-2.75.94-3.7l-.23-.4-.23-.28a2 2 0 0 0-.47-.32 2 2 0 0 0-.76-.17 1.7 1.7 0 0 0-1.73 1.67c0 .92.77 1.66 1.73 1.66q.52-.01.93-.26"/></svg>