<svg xmlns="http://www.w3.org/2000/svg" viewBox="0 0 16 16"><path d="M16 2a2 2 0 0 0-2-2H2a2 2 0 0 0-2 2v8a2 2 0 0 0 2 2h9.59a1 1 0 0 1 .7.3l2.86 2.85a.5.5 0 0 0 .85-.36V2zM7.2 4.77c.08.12.16.26.22.4.43.94.4 2.37-.94 3.7a.45.45 0 0 1-.61.01.4.4 0 0 1-.01-.59c.41-.41.67-.83.8-1.22-.26.17-.58.26-.93.26A1.7 1.7 0 0 1 4 5.67C4 4.75 4.78 4 5.73 4c.27 0 .53.06.76.17a1.4 1.4 0 0 1 .7.6zm3.8 2.3c-.27.17-.59.26-.93.26a1.7 1.7 0 0 1-1.74-1.66c0-.92.78-1.67 1.74-1.67.27 0 .53.06.76.17a1.73 1.73 0 0 1 .7.6c.09.12.16.26.23.4.42.94.39 2.37-.95 3.7a.45.45 0 0 1-.6.01.4.4 0 0 1-.02-.59c.42-.41.67-.83.81-1.22z"/></svg>