<svg viewBox="0 0 16 16"><path d="M14 1a1 1 0 0 1 1 1v8a1 1 0 0 1-1 1h-2.5a2 2 0 0 0-1.6.8L8 14.33 6.1 11.8a2 2 0 0 0-1.6-.8H2a1 1 0 0 1-1-1V2a1 1 0 0 1 1-1h12zM2 0a2 2 0 0 0-2 2v8a2 2 0 0 0 2 2h2.5a1 1 0 0 1 .8.4l1.9 2.53a1 1 0 0 0 1.6 0l1.9-2.53a1 1 0 0 1 .8-.4H14a2 2 0 0 0 2-2V2a2 2 0 0 0-2-2H2z"/><path d="M7.07 4.76a1.67 1.67 0 0 0-3.07.9 1.67 1.67 0 0 0 2.56 1.41c-.13.4-.37.8-.78 1.22a.42.42 0 1 0 .6.58c1.49-1.54 1.3-3.21.69-4.1zm4 0a1.67 1.67 0 0 0-3.07.9 1.67 1.67 0 0 0 2.56 1.41c-.13.4-.37.8-.78 1.22a.42.42 0 1 0 .6.58c1.49-1.54 1.3-3.21.69-4.1z"/></svg>