<svg xmlns="http://www.w3.org/2000/svg" width="16" height="16" viewBox="0 0 16 16" id="icon"><path fill-rule="evenodd" d="M2.97 12.7a1 1 0 0 0-.3-.8A5.5 5.5 0 0 1 1 8c0-3.2 3-6 7-6s7 2.8 7 6-3 6-7 6a8 8 0 0 1-2.09-.27 1 1 0 0 0-.7.07c-.4.2-1.25.57-2.64.9a11 11 0 0 0 .4-2m-.8 3.1h.02c1.83-.36 2.94-.84 3.46-1.1A9 9 0 0 0 8 15c4.42 0 8-3.13 8-7s-3.58-7-8-7-8 3.13-8 7a6.5 6.5 0 0 0 1.97 4.6 10 10 0 0 1-.52 2.32l-.25.65c-.08.18.07.39.27.36zM8 6c1.66-1.72 5.83 1.28 0 5.13-5.82-3.86-1.66-6.85 0-5.14"/></svg>