<svg xmlns="http://www.w3.org/2000/svg" width="16" height="16" viewBox="0 0 16 16"><path d="M10.06.5a.5.5 0 0 0-.5-.5H6.58a.5.5 0 0 0-.5.5.5.5 0 0 1-.5.5.5.5 0 0 0-.5.5V2a.5.5 0 0 0 .5.5h4.97a.5.5 0 0 0 .5-.5v-.5a.5.5 0 0 0-.5-.5.5.5 0 0 1-.5-.5"/><path d="M3.6 2a.5.5 0 0 0-.5.5v12a.5.5 0 0 0 .5.5h9a.5.5 0 0 0 .5-.5v-12a.5.5 0 0 0-.5-.5h-.5a.5.5 0 0 1 0-1h.5a1.5 1.5 0 0 1 1.5 1.5v12a1.5 1.5 0 0 1-1.5 1.5h-9a1.5 1.5 0 0 1-1.5-1.5v-12A1.5 1.5 0 0 1 3.6 1h.5a.5.5 0 0 1 0 1z"/><path d="M8.07 6.48c1.65-1.67 5.8 1.26 0 5.02-5.8-3.76-1.66-6.69 0-5.02"/></svg>