<svg xmlns="http://www.w3.org/2000/svg" width="16" height="16" viewBox="0 0 16 16" id="icon"><path d="M10 .5a.5.5 0 0 0-.5-.5h-3a.5.5 0 0 0-.5.5.5.5 0 0 1-.5.5.5.5 0 0 0-.5.5V2a.5.5 0 0 0 .5.5h5A.5.5 0 0 0 11 2v-.5a.5.5 0 0 0-.5-.5.5.5 0 0 1-.5-.5"/><path d="M4.09 1H3.5A1.5 1.5 0 0 0 2 2.5v12A1.5 1.5 0 0 0 3.5 16h9a1.5 1.5 0 0 0 1.5-1.5v-12A1.5 1.5 0 0 0 12.5 1h-.58q.08.24.08.5V2a1.5 1.5 0 0 1-1.5 1.5h-5A1.5 1.5 0 0 1 4 2v-.5q0-.26.09-.5m5.89 4.36 1.4 4.64h.12a.5.5 0 0 1 0 1H11a.5.5 0 0 1-.48-.36l-.94-3.13-1.1 5.1a.5.5 0 0 1-.96.03L6.38 8.85l-.93 1.87A.5.5 0 0 1 5 11h-.5a.5.5 0 0 1 0-1h.2l1.35-2.72a.5.5 0 0 1 .93.08l.94 3.13 1.1-5.1a.5.5 0 0 1 .96-.03"/></svg>