<svg xmlns="http://www.w3.org/2000/svg" viewBox="0 0 16 16"><path fill-rule="evenodd" d="M10.06.5a.5.5 0 0 0-.5-.5H6.58a.5.5 0 0 0-.5.5.5.5 0 0 1-.5.5.5.5 0 0 0-.5.5V2a.5.5 0 0 0 .5.5h4.97a.5.5 0 0 0 .5-.5v-.5a.5.5 0 0 0-.5-.5.5.5 0 0 1-.5-.5Z"/><path fill-rule="evenodd" d="M4.17 1H3.6a1.5 1.5 0 0 0-1.5 1.5v12A1.5 1.5 0 0 0 3.6 16h9a1.5 1.5 0 0 0 1.5-1.5v-12A1.5 1.5 0 0 0 12.6 1h-.64c.06.16.09.33.09.5V2c0 .83-.67 1.5-1.5 1.5H5.59A1.5 1.5 0 0 1 4.1 2v-.5c0-.17.03-.34.09-.5Zm3.9 5.48c1.65-1.67 5.8 1.26 0 5.02-5.8-3.76-1.66-6.69 0-5.02Z"/></svg>