<svg xmlns="http://www.w3.org/2000/svg" width="16" height="16" viewBox="0 0 16 16"><path d="M10 .5a.5.5 0 0 0-.5-.5h-3a.5.5 0 0 0-.5.5.5.5 0 0 1-.5.5.5.5 0 0 0-.5.5V2a.5.5 0 0 0 .5.5h5A.5.5 0 0 0 11 2v-.5a.5.5 0 0 0-.5-.5.5.5 0 0 1-.5-.5"/><path d="M4.09 1H3.5A1.5 1.5 0 0 0 2 2.5v12A1.5 1.5 0 0 0 3.5 16h9a1.5 1.5 0 0 0 1.5-1.5v-12A1.5 1.5 0 0 0 12.5 1h-.58q.08.24.08.5V2a1.5 1.5 0 0 1-1.5 1.5h-5A1.5 1.5 0 0 1 4 2v-.5q0-.26.09-.5m6.76 6.85-3 3a.5.5 0 0 1-.7 0l-1.5-1.5a.5.5 0 1 1 .7-.7L7.5 9.79l2.65-2.64a.5.5 0 0 1 .7.7"/></svg>