<svg xmlns="http://www.w3.org/2000/svg" viewBox="0 0 16 16"><path fill-rule="evenodd" d="M10 1.5a.5.5 0 0 0-.5-.5h-3a.5.5 0 0 0-.5.5v1a.5.5 0 0 0 .5.5h3a.5.5 0 0 0 .5-.5v-1Zm-5 0A1.5 1.5 0 0 1 6.5 0h3A1.5 1.5 0 0 1 11 1.5v1A1.5 1.5 0 0 1 9.5 4h-3A1.5 1.5 0 0 1 5 2.5v-1Zm-2 0h1v1H3a1 1 0 0 0-1 1V14a1 1 0 0 0 1 1h10a1 1 0 0 0 1-1V3.5a1 1 0 0 0-1-1h-1v-1h1a2 2 0 0 1 2 2V14a2 2 0 0 1-2 2H3a2 2 0 0 1-2-2V3.5a2 2 0 0 1 2-2Zm6.98 3.86A.5.5 0 0 0 9 5.4l-1.09 5.09-.94-3.13a.5.5 0 0 0-.9-.14L4.24 10H3.5a.5.5 0 0 0 0 1h1a.5.5 0 0 0 .42-.22l1.4-2.12 1.2 3.98a.5.5 0 0 0 .97-.04l1.09-5.09.94 3.13A.5.5 0 0 0 11 11h1.5a.5.5 0 0 0 0-1h-1.13l-1.4-4.64Z"/></svg>