<svg xmlns="http://www.w3.org/2000/svg" width="16" height="16" viewBox="0 0 16 16" id="icon"><path d="M9.5 0a.5.5 0 0 1 .5.5.5.5 0 0 0 .5.5.5.5 0 0 1 .5.5V2a.5.5 0 0 1-.5.5h-5A.5.5 0 0 1 5 2v-.5a.5.5 0 0 1 .5-.5.5.5 0 0 0 .5-.5.5.5 0 0 1 .5-.5z"/><path d="M3 2.5a.5.5 0 0 1 .5-.5H4a.5.5 0 0 0 0-1h-.5A1.5 1.5 0 0 0 2 2.5v12A1.5 1.5 0 0 0 3.5 16h9a1.5 1.5 0 0 0 1.5-1.5v-12A1.5 1.5 0 0 0 12.5 1H12a.5.5 0 0 0 0 1h.5a.5.5 0 0 1 .5.5v12a.5.5 0 0 1-.5.5h-9a.5.5 0 0 1-.5-.5z"/><path d="M9.98 5.36A.5.5 0 0 0 9 5.4l-1.09 5.09-.94-3.13a.5.5 0 0 0-.93-.08L4.7 10h-.2a.5.5 0 0 0 0 1H5a.5.5 0 0 0 .45-.28l.93-1.87 1.14 3.8a.5.5 0 0 0 .97-.05l1.09-5.09.94 3.14A.5.5 0 0 0 11 11h.5a.5.5 0 0 0 0-1h-.13z"/></svg>