<svg xmlns="http://www.w3.org/2000/svg" viewBox="0 0 16 16"><path d="M10 .5a.5.5 0 0 0-.5-.5h-3a.5.5 0 0 0-.5.5.5.5 0 0 1-.5.5.5.5 0 0 0-.5.5V2a.5.5 0 0 0 .5.5h5A.5.5 0 0 0 11 2v-.5a.5.5 0 0 0-.5-.5.5.5 0 0 1-.5-.5Z"/><path d="M4.08 1H3.5A1.5 1.5 0 0 0 2 2.5v12A1.5 1.5 0 0 0 3.5 16h9a1.5 1.5 0 0 0 1.5-1.5v-12A1.5 1.5 0 0 0 12.5 1h-.58c.05.16.08.33.08.5V2a1.5 1.5 0 0 1-1.5 1.5h-5A1.5 1.5 0 0 1 4 2v-.5c0-.17.03-.34.09-.5ZM8 8.3l1.15-1.15a.5.5 0 1 1 .7.7L8.71 9l1.14 1.15a.5.5 0 0 1-.7.7L8 9.71l-1.15 1.14a.5.5 0 0 1-.7-.7L7.29 9 6.15 7.85a.5.5 0 1 1 .7-.7L8 8.29Z"/></svg>