<svg viewBox="0 0 16 16"><path d="M8.52 1.02A7 7 0 0 0 8 1V0a8 8 0 0 1 .59.02l-.07 1zm2 .45a7 7 0 0 0-.99-.3l.22-.98c.39.09.76.2 1.13.35l-.36.93zm1.37.7a7.01 7.01 0 0 0-.44-.26l.5-.87a8.03 8.03 0 0 1 .97.65l-.61.8a7 7 0 0 0-.42-.31zm1.83 1.8a6.99 6.99 0 0 0-.65-.8l.72-.69c.27.29.52.6.75.91l-.82.58zm.75 1.35a7.08 7.08 0 0 0-.22-.47l.9-.45a7.98 7.98 0 0 1 .45 1.1l-.95.3a7.02 7.02 0 0 0-.18-.48zm.53 2.5a7 7 0 0 0-.1-1.02l.98-.17c.07.39.1.78.12 1.17l-1 .03zm-.13 1.55.08-.51.99.12a7.96 7.96 0 0 1-.23 1.15l-.96-.26.12-.5zm-.96 2.38c.19-.3.35-.6.49-.91l.91.4c-.16.36-.34.7-.55 1.04l-.85-.54zm-.96 1.2.35-.38.76.65a8.07 8.07 0 0 1-.4.44l-.71-.71z"/><path d="M8 1a7 7 0 1 0 4.95 11.95l.7.7A8 8 0 1 1 8 0v1z"/><path d="M7.5 3a.5.5 0 0 1 .5.5v5.21l3.25 1.86a.5.5 0 0 1-.5.86l-3.5-2A.5.5 0 0 1 7 9V3.5a.5.5 0 0 1 .5-.5z"/></svg>