<svg xmlns="http://www.w3.org/2000/svg" width="16" height="16" viewBox="0 0 16 16"><path d="M8.52 1.02 8 1V0l.59.02zm2 .45a7 7 0 0 0-.99-.3l.22-.98q.58.13 1.13.35zm1.37.7-.44-.26.5-.87a8 8 0 0 1 .97.65l-.61.8zm1.83 1.8a7 7 0 0 0-.65-.8l.72-.69q.41.43.75.91zm.75 1.35-.22-.47.9-.45a8 8 0 0 1 .45 1.1l-.95.3zm.53 2.5a7 7 0 0 0-.1-1.02l.98-.17q.1.58.12 1.17zm-.13 1.55.08-.51.99.12a8 8 0 0 1-.23 1.15l-.96-.26zm-.96 2.38q.28-.44.49-.91l.91.4q-.24.54-.55 1.04zm-.96 1.2q.18-.18.35-.38l.76.65-.4.44z"/><path d="M8 1a7 7 0 1 0 4.95 11.95l.7.7A8 8 0 1 1 8 0z"/><path d="M7.5 3a.5.5 0 0 1 .5.5v5.21l3.25 1.86a.5.5 0 0 1-.5.86l-3.5-2A.5.5 0 0 1 7 9V3.5a.5.5 0 0 1 .5-.5"/></svg>