<svg xmlns="http://www.w3.org/2000/svg" width="16" height="16" viewBox="0 0 16 16"><path d="M2.63 11.5a.25.25 0 0 1 .25.25v.57l.5-.29a.25.25 0 0 1 .24.44l-.5.28.5.28a.25.25 0 0 1-.24.44l-.5-.29v.57a.25.25 0 1 1-.5 0v-.57l-.5.29a.25.25 0 0 1-.25-.44l.5-.28-.5-.28a.25.25 0 0 1 .24-.44l.5.29v-.57a.25.25 0 0 1 .25-.25m2.75 2a.25.25 0 0 1 .25.25v.57l.5-.29a.25.25 0 0 1 .25.44l-.5.28.5.28a.25.25 0 0 1-.24.44l-.5-.29v.57a.25.25 0 1 1-.5 0v-.57l-.5.29a.25.25 0 0 1-.25-.44l.5-.28-.5-.28a.25.25 0 0 1 .24-.44l.5.29v-.57a.25.25 0 0 1 .25-.25m5.5 0a.25.25 0 0 1 .26.25v.57l.5-.29a.25.25 0 0 1 .24.44l-.5.28.5.28a.25.25 0 0 1-.24.44l-.5-.29v.57a.25.25 0 0 1-.5 0v-.57l-.5.29a.25.25 0 0 1-.25-.44l.5-.28-.5-.28a.25.25 0 0 1 .24-.44l.5.29v-.57a.25.25 0 0 1 .26-.25m-2.75-2a.25.25 0 0 1 .25.25v.57l.5-.29a.25.25 0 0 1 .24.44l-.5.28.5.28a.25.25 0 0 1-.24.44l-.5-.29v.57a.25.25 0 1 1-.5 0v-.57l-.5.29a.25.25 0 0 1-.25-.44l.5-.28-.5-.28a.25.25 0 0 1 .24-.44l.5.29v-.57a.25.25 0 0 1 .26-.25m5.5 0a.25.25 0 0 1 .25.25v.57l.5-.29a.25.25 0 0 1 .24.44l-.5.28.5.28a.25.25 0 0 1-.24.44l-.5-.29v.57a.25.25 0 0 1-.5 0v-.57l-.5.29a.25.25 0 1 1-.25-.44l.5-.28-.5-.28a.25.25 0 0 1 .24-.44l.5.29v-.57a.25.25 0 0 1 .26-.25m-.22-7.22a5 5 0 0 0-9.5-1 3.5 3.5 0 1 0-.41 6.97H13a3 3 0 0 0 .4-5.97"/></svg>