<svg xmlns="http://www.w3.org/2000/svg" width="16" height="16" viewBox="0 0 16 16" id="icon"><path d="M13.4 4.28a5 5 0 0 0-9.5-1 3.5 3.5 0 1 0-.4 6.97H13a3 3 0 0 0 .4-5.97M8.5 1.25a4 4 0 0 1 3.98 3.56.5.5 0 0 0 .5.44H13a2 2 0 0 1 0 4H3.5a2.5 2.5 0 1 1 .6-4.93.5.5 0 0 0 .6-.33 4 4 0 0 1 3.8-2.74M2.63 11.5a.25.25 0 0 1 .25.25v.57l.5-.29a.25.25 0 0 1 .24.44l-.5.28.5.28a.25.25 0 0 1-.24.44l-.5-.29v.57a.25.25 0 1 1-.5 0v-.57l-.5.29a.25.25 0 0 1-.25-.44l.5-.28-.5-.28a.25.25 0 0 1 .24-.44l.5.29v-.57a.25.25 0 0 1 .25-.25m2.75 2a.25.25 0 0 1 .25.25v.57l.5-.29a.25.25 0 0 1 .25.44l-.5.28.5.28a.25.25 0 0 1-.24.44l-.5-.29v.57a.25.25 0 1 1-.5 0v-.57l-.5.29a.25.25 0 0 1-.25-.44l.5-.28-.5-.28a.25.25 0 0 1 .24-.44l.5.29v-.57a.25.25 0 0 1 .25-.25m5.5 0a.25.25 0 0 1 .26.25v.57l.5-.29a.25.25 0 0 1 .24.44l-.5.28.5.28a.25.25 0 0 1-.24.44l-.5-.29v.57a.25.25 0 1 1-.5 0v-.57l-.5.29a.25.25 0 0 1-.25-.44l.5-.28-.5-.28a.25.25 0 0 1 .24-.44l.5.29v-.57a.25.25 0 0 1 .26-.25m-2.76-2a.25.25 0 0 1 .26.25v.57l.5-.29a.25.25 0 0 1 .24.44l-.5.28.5.28a.25.25 0 0 1-.24.44l-.5-.29v.57a.25.25 0 1 1-.5 0v-.57l-.5.29a.25.25 0 0 1-.25-.44l.5-.28-.5-.28a.25.25 0 0 1 .24-.44l.5.29v-.57a.25.25 0 0 1 .25-.25m5.5 0a.25.25 0 0 1 .26.25v.57l.5-.29a.25.25 0 0 1 .24.44l-.5.28.5.28a.25.25 0 0 1-.24.44l-.5-.29v.57a.25.25 0 1 1-.5 0v-.57l-.5.29a.25.25 0 0 1-.25-.44l.5-.28-.5-.28a.25.25 0 0 1 .24-.44l.5.29v-.57a.25.25 0 0 1 .26-.25"/></svg>