<svg xmlns="http://www.w3.org/2000/svg" width="16" height="16" viewBox="0 0 16 16"><path d="M4.18 11.03a.5.5 0 0 1 .29.65l-1.5 4a.5.5 0 1 1-.94-.35l1.5-4a.5.5 0 0 1 .65-.3m3 0a.5.5 0 0 1 .29.65l-1.5 4a.5.5 0 1 1-.94-.35l1.5-4a.5.5 0 0 1 .65-.3m3 0a.5.5 0 0 1 .29.65l-1.5 4a.5.5 0 1 1-.94-.35l1.5-4a.5.5 0 0 1 .65-.3m3 0a.5.5 0 0 1 .29.65l-1.5 4a.5.5 0 0 1-.94-.35l1.5-4a.5.5 0 0 1 .65-.3m.23-7a5 5 0 0 0-9.5-1A3.5 3.5 0 1 0 3.5 10H13a3 3 0 0 0 .4-5.97M8.5 1a4 4 0 0 1 3.98 3.56.5.5 0 0 0 .5.44H13a2 2 0 0 1 0 4H3.5a2.5 2.5 0 1 1 .6-4.93.5.5 0 0 0 .6-.33A4 4 0 0 1 8.5 1"/></svg>