<svg xmlns="http://www.w3.org/2000/svg" width="16" height="16" viewBox="0 0 16 16" id="icon"><path d="M3.75 15.25a.75.75 0 1 1-1.5 0 .75.75 0 0 1 1.5 0m.4-3.72a.5.5 0 0 1 .32.63l-.5 1.5a.5.5 0 1 1-.94-.32l.5-1.5a.5.5 0 0 1 .63-.31m3.59 3.72a.75.75 0 1 1-1.5 0 .75.75 0 0 1 1.5 0m.4-3.72a.5.5 0 0 1 .32.63l-.5 1.5a.5.5 0 1 1-.94-.32l.5-1.5a.5.5 0 0 1 .63-.31m3.59 3.72a.75.75 0 1 1-1.5 0 .75.75 0 0 1 1.5 0m.4-3.72a.5.5 0 0 1 .32.63l-.5 1.5a.5.5 0 1 1-.94-.32l.5-1.5a.5.5 0 0 1 .63-.31m1.24-7a5 5 0 0 0-9.5-1 3.5 3.5 0 1 0-.4 6.97H13a3 3 0 0 0 .4-5.97"/></svg>