<svg viewBox="0 0 16 16"><path d="M13.4 4.53a5 5 0 0 0-9.5-1 3.5 3.5 0 1 0-.4 6.97H13a3 3 0 0 0 .4-5.97zM8.5 1.5a4 4 0 0 1 3.98 3.56.5.5 0 0 0 .5.44H13a2 2 0 0 1 0 4H3.5a2.5 2.5 0 1 1 .6-4.93.5.5 0 0 0 .6-.33A4 4 0 0 1 8.5 1.5zM3.75 15.25a.75.75 0 1 1-1.5 0 .75.75 0 0 1 1.5 0zm.4-3.72a.5.5 0 0 1 .32.63l-.5 1.5a.5.5 0 1 1-.94-.32l.5-1.5a.5.5 0 0 1 .63-.31zm3.6 3.72a.75.75 0 1 1-1.5 0 .75.75 0 0 1 1.5 0zm.4-3.72a.5.5 0 0 1 .32.63l-.5 1.5a.5.5 0 1 1-.94-.32l.5-1.5a.5.5 0 0 1 .63-.31zm3.6 3.72a.75.75 0 1 1-1.5 0 .75.75 0 0 1 1.5 0zm.4-3.72a.5.5 0 0 1 .32.63l-.5 1.5a.5.5 0 1 1-.94-.32l.5-1.5a.5.5 0 0 1 .63-.31z"/></svg>