<svg xmlns="http://www.w3.org/2000/svg" width="16" height="16" viewBox="0 0 16 16"><path d="M4.4 1.34A5.5 5.5 0 0 1 8 0c2.69 0 4.92 2 5.17 4.58A3.26 3.26 0 0 1 16 7.78C16 9.56 14.5 11 12.69 11H10a.5.5 0 0 1 0-1h2.69A2.27 2.27 0 0 0 15 7.77a2.27 2.27 0 0 0-2.31-2.22h-.5v-.5A4.1 4.1 0 0 0 8 1a4.5 4.5 0 0 0-2.94 1.1C4.3 2.75 3.9 3.54 3.9 4.16v.44l-.45.05A2.7 2.7 0 0 0 1 7.32 2.73 2.73 0 0 0 3.78 10H6a.5.5 0 0 1 0 1H3.78A3.73 3.73 0 0 1 0 7.32a3.7 3.7 0 0 1 2.94-3.6 4.2 4.2 0 0 1 1.47-2.38"/><path d="M7.65 15.85a.5.5 0 0 0 .7 0l3-3a.5.5 0 0 0-.7-.7L8.5 14.29V5.5a.5.5 0 0 0-1 0v8.8l-2.15-2.15a.5.5 0 0 0-.7.7z"/></svg>