<svg xmlns="http://www.w3.org/2000/svg" width="16" height="16" viewBox="0 0 16 16" id="icon"><path d="M4.4 3.34A5.5 5.5 0 0 1 8 2c2.69 0 4.92 2 5.17 4.58A3.26 3.26 0 0 1 16 9.78c0 1.79-1.5 3.22-3.31 3.22h-8.9A3.73 3.73 0 0 1 0 9.32a3.7 3.7 0 0 1 2.94-3.6 4.2 4.2 0 0 1 1.47-2.38m.65.76C4.3 4.75 3.9 5.54 3.9 6.15v.45l-.45.05A2.7 2.7 0 0 0 1 9.32 2.73 2.73 0 0 0 3.78 12h8.9c1.3 0 2.32-1.01 2.32-2.23a2.27 2.27 0 0 0-2.31-2.22h-.5v-.5A4.1 4.1 0 0 0 8 3a4.5 4.5 0 0 0-2.94 1.1"/><path d="M6 7.5a.5.5 0 0 0 0 1h4a.5.5 0 0 0 0-1z"/></svg>