<svg xmlns="http://www.w3.org/2000/svg" viewBox="0 0 16 16"><path d="M7 8a3.5 3.5 0 0 1 3.5 3.56.5.5 0 0 0 .63.49A1.5 1.5 0 0 1 13 13.5a1.5 1.5 0 0 1-1.5 1.5H3a2 2 0 1 1 .1-4 .5.5 0 0 0 .5-.37A3.5 3.5 0 0 1 7 8zm4.47 3a4.5 4.5 0 0 0-8.72-.99A3 3 0 0 0 3 16h8.5a2.5 2.5 0 0 0 0-5h-.03z"/><path d="M11.29 1.78a.5.5 0 0 0-.57-.76 4.6 4.6 0 0 0-3.18 5 5.46 5.46 0 0 1 1.06.22 3.6 3.6 0 0 1 1.23-3.62 4.6 4.6 0 0 0 4.31 5.74A3.58 3.58 0 0 1 11.9 9c.16.31.3.65.4 1a4.59 4.59 0 0 0 3.62-2.04.5.5 0 0 0-.57-.76 3.6 3.6 0 0 1-4.06-5.42z"/></svg>