<svg xmlns="http://www.w3.org/2000/svg" width="16" height="16" viewBox="0 0 16 16"><path d="M11.47 11a4.5 4.5 0 0 0-8.72-.99A3 3 0 0 0 3 16h8.5a2.5 2.5 0 0 0 0-5z"/><path d="M10.5 1.5a.5.5 0 0 0-1 0v1a.5.5 0 0 0 1 0zm3.74 1.96a.5.5 0 1 0-.7-.7l-.71.7a.5.5 0 0 0 .7.71zm-7.78-.7a.5.5 0 0 0-.7.7l.7.71a.5.5 0 1 0 .71-.7zM8.2 6.13a2 2 0 1 1 3.3 2.2q.3.42.51.9A3 3 0 1 0 7.17 6q.53.02 1.03.13m4.48 4.08q.92.33 1.52 1.07a.5.5 0 0 0 .04-.74l-.7-.71a.5.5 0 0 0-.86.37m1.82-3.7a.5.5 0 0 0 0 1h1a.5.5 0 0 0 0-1z"/></svg>