<svg viewBox="0 0 16 16"><path d="M2.66 11.03a.5.5 0 0 1 .31.63l-.5 1.5a.5.5 0 1 1-.94-.32l.5-1.5a.5.5 0 0 1 .63-.31zm9.5 0a.5.5 0 0 1 .31.63l-.5 1.5a.5.5 0 0 1-.94-.32l.5-1.5a.5.5 0 0 1 .63-.31zm-7.5 1.5a.5.5 0 0 1 .31.63l-.5 1.5a.5.5 0 1 1-.94-.32l.5-1.5a.5.5 0 0 1 .63-.31zm9.5 0a.5.5 0 0 1 .31.63l-.5 1.5a.5.5 0 0 1-.94-.32l.5-1.5a.5.5 0 0 1 .63-.31zm-7.1-1.25A.5.5 0 0 1 7.5 11h1a.5.5 0 0 1 .47.66l-.28.84h.81a.5.5 0 0 1 .39.81l-2 2.5a.5.5 0 0 1-.87-.43L7.36 14H6.5a.5.5 0 0 1-.45-.72l1-2zm6.34-7.25a5 5 0 0 0-9.5-1A3.5 3.5 0 1 0 3.5 10H13a3 3 0 0 0 .4-5.97z"/></svg>