<svg xmlns="http://www.w3.org/2000/svg" viewBox="0 0 16 16"><path fill-rule="evenodd" d="M3.11 5.11a3.13 3.13 0 0 0-.17.61A3.7 3.7 0 0 0 0 9.32C0 11.37 1.7 13 3.78 13H11l-1-1H3.78A2.73 2.73 0 0 1 1 9.32a2.72 2.72 0 0 1 2.46-2.67l.45-.05v-.45l.01-.23-.8-.8zm2.55-1.45-.72-.72A5.51 5.51 0 0 1 8 2c2.69 0 4.92 2 5.17 4.58A3.26 3.26 0 0 1 16 9.78a3.2 3.2 0 0 1-1.52 2.7l-.73-.73A2.22 2.22 0 0 0 15 9.77a2.27 2.27 0 0 0-2.31-2.23h-.5v-.5A4.12 4.12 0 0 0 8 3c-.88 0-1.68.26-2.34.66z"/><path d="m13.65 14.35-12-12 .7-.7 12 12-.7.7z"/></svg>