<svg xmlns="http://www.w3.org/2000/svg" width="16" height="16" viewBox="0 0 16 16" id="icon"><path d="M13.4 4.03a5 5 0 0 0-9.5-1A3.5 3.5 0 1 0 3.5 10H13a3 3 0 0 0 .4-5.97M8.5 1a4 4 0 0 1 3.98 3.56.5.5 0 0 0 .5.44H13a2 2 0 0 1 0 4H3.5a2.5 2.5 0 1 1 .6-4.93.5.5 0 0 0 .6-.33A4 4 0 0 1 8.5 1M2.38 13.5a.25.25 0 0 1 .25.25v.57l.5-.29a.25.25 0 0 1 .24.44l-.5.28.5.28a.25.25 0 0 1-.24.44l-.5-.29v.57a.25.25 0 1 1-.5 0v-.57l-.5.29a.25.25 0 0 1-.25-.44l.5-.28-.5-.28a.25.25 0 0 1 .24-.44l.5.29v-.57a.25.25 0 0 1 .25-.25m1.85-2.45a.5.5 0 0 1 .23.67l-.5 1a.5.5 0 1 1-.9-.44l.5-1a.5.5 0 0 1 .67-.23m2.16 2.45a.25.25 0 0 1 .25.25v.57l.5-.29a.25.25 0 0 1 .24.44l-.5.28.5.28a.25.25 0 0 1-.24.44l-.5-.29v.57a.25.25 0 1 1-.5 0v-.57l-.5.29a.25.25 0 0 1-.25-.44l.5-.28-.5-.28a.25.25 0 0 1 .24-.44l.5.29v-.57a.25.25 0 0 1 .25-.25m1.85-2.45a.5.5 0 0 1 .23.67l-.5 1a.5.5 0 1 1-.9-.44l.5-1a.5.5 0 0 1 .67-.23m2.15 2.45a.25.25 0 0 1 .26.25v.57l.5-.29a.25.25 0 0 1 .24.44l-.5.28.5.28a.25.25 0 0 1-.24.44l-.5-.29v.57a.25.25 0 1 1-.5 0v-.57l-.5.29a.25.25 0 0 1-.25-.44l.5-.28-.5-.28a.25.25 0 0 1 .24-.44l.5.29v-.57a.25.25 0 0 1 .26-.25m1.84-2.45a.5.5 0 0 1 .23.67l-.5 1a.5.5 0 1 1-.9-.44l.5-1a.5.5 0 0 1 .67-.23"/></svg>