<svg viewBox="0 0 16 16"><path d="M7 8a3.5 3.5 0 0 1 3.5 3.56.5.5 0 0 0 .62.49A1.5 1.5 0 0 1 13 13.5a1.5 1.5 0 0 1-1.5 1.5H3a2 2 0 1 1 .1-4 .5.5 0 0 0 .51-.37A3.5 3.5 0 0 1 7 8zm4.47 3a4.5 4.5 0 0 0-8.72-.99A3 3 0 0 0 3 16h8.5a2.5 2.5 0 0 0 0-5h-.03z"/><path d="M10.5 1.5a.5.5 0 0 0-1 0v1a.5.5 0 0 0 1 0v-1zm3.74 1.96a.5.5 0 1 0-.7-.7l-.71.7a.5.5 0 0 0 .7.71l.71-.7zm-7.78-.7a.5.5 0 0 0-.7.7l.7.71a.5.5 0 1 0 .71-.7l-.7-.71zM8.2 6.13a2 2 0 1 1 3.3 2.2c.2.28.37.58.51.9A3 3 0 1 0 7.17 6c.35.01.7.06 1.03.13zm4.48 4.08c.6.21 1.13.58 1.52 1.07a.5.5 0 0 0 .04-.74l-.7-.71a.5.5 0 0 0-.86.37zM14.5 6.5a.5.5 0 0 0 0 1h1a.5.5 0 0 0 0-1h-1z"/></svg>