<svg xmlns="http://www.w3.org/2000/svg" width="16" height="16" viewBox="0 0 16 16" id="icon"><path d="M2.66 11.03a.5.5 0 0 1 .31.63l-.5 1.5a.5.5 0 1 1-.94-.32l.5-1.5a.5.5 0 0 1 .63-.31m9.5 0a.5.5 0 0 1 .31.63l-.5 1.5a.5.5 0 1 1-.94-.32l.5-1.5a.5.5 0 0 1 .63-.31m-7.5 1.5a.5.5 0 0 1 .31.63l-.5 1.5a.5.5 0 1 1-.94-.32l.5-1.5a.5.5 0 0 1 .63-.31m9.5 0a.5.5 0 0 1 .31.63l-.5 1.5a.5.5 0 1 1-.94-.32l.5-1.5a.5.5 0 0 1 .63-.31m-.76-8.5a5 5 0 0 0-9.5-1A3.5 3.5 0 1 0 3.5 10H13a3 3 0 0 0 .4-5.97M8.5 1a4 4 0 0 1 3.98 3.56.5.5 0 0 0 .5.44H13a2 2 0 0 1 0 4H3.5a2.5 2.5 0 1 1 .6-4.93.5.5 0 0 0 .6-.33A4 4 0 0 1 8.5 1M7.05 11.28A.5.5 0 0 1 7.5 11h1a.5.5 0 0 1 .47.66l-.28.84h.81a.5.5 0 0 1 .39.81l-2 2.5a.5.5 0 0 1-.87-.43L7.36 14H6.5a.5.5 0 0 1-.45-.72z"/></svg>