<svg viewBox="0 0 16 16"><path fill-rule="evenodd" d="M4.4 1.34A5.53 5.53 0 0 1 8 0c2.69 0 4.92 2 5.17 4.58A3.26 3.26 0 0 1 16 7.78C16 9.56 14.5 11 12.69 11H10a.5.5 0 0 1 0-1h2.69A2.27 2.27 0 0 0 15 7.77a2.27 2.27 0 0 0-2.31-2.23h-.5v-.5A4.12 4.12 0 0 0 8 1a4.53 4.53 0 0 0-2.94 1.1C4.3 2.75 3.9 3.54 3.9 4.16v.44l-.45.05A2.72 2.72 0 0 0 1 7.32 2.73 2.73 0 0 0 3.78 10H6a.5.5 0 0 1 0 1H3.78A3.73 3.73 0 0 1 0 7.32a3.7 3.7 0 0 1 2.94-3.6 4.2 4.2 0 0 1 1.47-2.38z"/><path fill-rule="evenodd" d="M7.65 4.15a.5.5 0 0 1 .7 0l3 3a.5.5 0 0 1-.7.7L8.5 5.71v8.79a.5.5 0 0 1-1 0V5.7L5.35 7.86a.5.5 0 1 1-.7-.7l3-3z"/></svg>