<svg xmlns="http://www.w3.org/2000/svg" viewBox="0 0 16 16"><path fill-rule="evenodd" d="M8 5.5a.5.5 0 0 1 .5.5v1.5H10a.5.5 0 0 1 0 1H8.5V10a.5.5 0 0 1-1 0V8.5H6a.5.5 0 0 1 0-1h1.5V6a.5.5 0 0 1 .5-.5z"/><path d="M4.4 3.34A5.53 5.53 0 0 1 8 2c2.69 0 4.92 2 5.17 4.58A3.26 3.26 0 0 1 16 9.78c0 1.79-1.5 3.22-3.31 3.22h-8.9A3.73 3.73 0 0 1 0 9.32a3.7 3.7 0 0 1 2.94-3.6 4.2 4.2 0 0 1 1.47-2.38zm.66.76C4.3 4.75 3.9 5.54 3.9 6.16v.44l-.45.05A2.72 2.72 0 0 0 1 9.32 2.73 2.73 0 0 0 3.78 12h8.9c1.3 0 2.32-1.01 2.32-2.23a2.27 2.27 0 0 0-2.31-2.23h-.5v-.5A4.12 4.12 0 0 0 8 3a4.53 4.53 0 0 0-2.94 1.1z"/></svg>