<svg xmlns="http://www.w3.org/2000/svg" viewBox="0 0 16 16"><path d="M2.38 13.5a.25.25 0 0 1 .25.25v.57l.5-.29a.25.25 0 0 1 .24.44l-.5.28.5.28a.25.25 0 1 1-.24.44l-.5-.29v.57a.25.25 0 1 1-.5 0v-.57l-.5.29a.25.25 0 1 1-.25-.44l.5-.28-.5-.28a.25.25 0 1 1 .24-.44l.5.29v-.57a.25.25 0 0 1 .25-.25zm1.84-2.45a.5.5 0 0 1 .23.67l-.5 1a.5.5 0 0 1-.9-.44l.5-1a.5.5 0 0 1 .67-.23zm2.16 2.45a.25.25 0 0 1 .25.25v.57l.5-.29a.25.25 0 0 1 .24.44l-.5.28.5.28a.25.25 0 1 1-.24.44l-.5-.29v.57a.25.25 0 1 1-.5 0v-.57l-.5.29a.25.25 0 1 1-.25-.44l.5-.28-.5-.28a.25.25 0 1 1 .24-.44l.5.29v-.57a.25.25 0 0 1 .25-.25zm1.84-2.45a.5.5 0 0 1 .23.67l-.5 1a.5.5 0 0 1-.9-.44l.5-1a.5.5 0 0 1 .67-.23zm2.15 2.45a.25.25 0 0 1 .26.25v.57l.5-.29a.25.25 0 0 1 .24.44l-.5.28.5.28a.25.25 0 1 1-.24.44l-.5-.29v.57a.25.25 0 0 1-.5 0v-.57l-.5.29a.25.25 0 1 1-.25-.44l.5-.28-.5-.28a.25.25 0 1 1 .24-.44l.5.29v-.57a.25.25 0 0 1 .26-.25zm1.85-2.45a.5.5 0 0 1 .23.67l-.5 1a.5.5 0 1 1-.9-.44l.5-1a.5.5 0 0 1 .67-.23zm1.18-7.02a5 5 0 0 0-9.5-1A3.5 3.5 0 1 0 3.5 10H13a3 3 0 0 0 .4-5.97z"/></svg>