<svg xmlns="http://www.w3.org/2000/svg" width="16" height="16" viewBox="0 0 16 16" id="icon"><path d="M5.5 9.51c.08.95.83 1.7 2.18 1.79v.7h.6v-.7c1.4-.1 2.22-.86 2.22-1.94 0-.99-.63-1.5-1.74-1.76l-.48-.11V5.57c.6.07.98.4 1.08.85h1.05c-.08-.92-.87-1.64-2.13-1.72V4h-.6v.72c-1.2.12-2 .84-2 1.85 0 .9.6 1.47 1.6 1.7l.4.1v2.04c-.61-.1-1.02-.43-1.11-.9zm2.18-2.17q-.9-.2-.91-.83c0-.47.34-.82.91-.93zm.69 1.2c.72.16 1.05.43 1.05.9 0 .55-.42.92-1.14.99V8.52z"/><path d="M8 15A7 7 0 1 1 8 1a7 7 0 0 1 0 14m0 1A8 8 0 1 0 8 0a8 8 0 0 0 0 16"/><path d="M8 13.5a5.5 5.5 0 1 1 0-11 5.5 5.5 0 0 1 0 11m0 .5A6 6 0 1 0 8 2a6 6 0 0 0 0 12"/></svg>