<svg xmlns="http://www.w3.org/2000/svg" width="16" height="16" viewBox="0 0 16 16" id="icon"><path d="M11.5 6.03a.5.5 0 1 1-1 0 .5.5 0 0 1 1 0M10 7.53a.5.5 0 1 0 0-1 .5.5 0 0 0 0 1m2.5-.5a.5.5 0 1 1-1 0 .5.5 0 0 1 1 0M11 8.53a.5.5 0 1 0 0-1 .5.5 0 0 0 0 1m-6.5-3h1v1h1v1h-1v1h-1v-1h-1v-1h1z"/><path d="M3.05 3.26a.5.5 0 0 1 .36-.61l1.93-.52a.5.5 0 0 1 .62.39 17 17 0 0 1 4.16 0 .5.5 0 0 1 .62-.4l1.93.53a.5.5 0 0 1 .31.73q.21.13.37.3c.41.4.78 1.04 1.1 1.76a15 15 0 0 1 1.17 5.08c.02.81-.06 1.6-.33 2.2a1.4 1.4 0 0 1-1.45.84 2.6 2.6 0 0 1-1.5-.78q-.38-.36-.75-.8l-.37-.43c-.72-.8-1.6-1.52-3.22-1.52s-2.5.72-3.22 1.52l-.37.43q-.38.44-.74.8c-.4.38-.88.71-1.51.78a1.4 1.4 0 0 1-1.45-.83 5 5 0 0 1-.33-2.21 15 15 0 0 1 1.17-5.07c.32-.73.69-1.37 1.1-1.78a2 2 0 0 1 .43-.33zm2.04.41a4 4 0 0 0-1.74.71q-.42.43-.88 1.47a14 14 0 0 0-.75 2.29 12 12 0 0 0-.34 2.4q-.03 1.15.24 1.78a.4.4 0 0 0 .43.24c.33-.03.61-.2.93-.5q.3-.3.61-.67l.44-.5C4.87 9.96 5.99 9.02 8 9.02s3.14.94 3.97 1.85l.43.5q.31.38.62.68c.32.3.6.47.93.5a.4.4 0 0 0 .43-.24c.17-.4.26-1.02.24-1.77a12 12 0 0 0-.34-2.41 14 14 0 0 0-.75-2.3 5 5 0 0 0-.88-1.46 4 4 0 0 0-1.74-.7C10.06 3.48 9.04 3.4 8 3.4s-2.06.1-2.91.27"/></svg>