<svg xmlns="http://www.w3.org/2000/svg" viewBox="0 0 16 16"><path d="M11.5 6.03a.5.5 0 1 1-1 0 .5.5 0 0 1 1 0zM10 7.53a.5.5 0 1 0 0-1 .5.5 0 0 0 0 1zm2.5-.5a.5.5 0 1 1-1 0 .5.5 0 0 1 1 0zM11 8.53a.5.5 0 1 0 0-1 .5.5 0 0 0 0 1zm-6.5-3h1v1h1v1h-1v1h-1v-1h-1v-1h1v-1z"/><path d="M3.05 3.26a.5.5 0 0 1 .36-.61l1.93-.52a.5.5 0 0 1 .62.39 17.24 17.24 0 0 1 4.16 0 .5.5 0 0 1 .62-.4l1.93.53a.5.5 0 0 1 .31.73c.14.09.27.19.37.3.41.4.78 1.04 1.1 1.76a14.73 14.73 0 0 1 1.17 5.08c.02.81-.06 1.6-.33 2.2a1.42 1.42 0 0 1-1.45.84 2.56 2.56 0 0 1-1.5-.78c-.25-.23-.5-.52-.75-.8l-.37-.43A4 4 0 0 0 8 10.03a4 4 0 0 0-3.22 1.52l-.37.43c-.25.28-.5.57-.74.8-.4.38-.88.71-1.51.78a1.42 1.42 0 0 1-1.45-.83 5.3 5.3 0 0 1-.33-2.21 14.82 14.82 0 0 1 1.17-5.07c.32-.73.69-1.37 1.1-1.78a2.34 2.34 0 0 1 .43-.33.5.5 0 0 1-.03-.08zm2.04.41a3.7 3.7 0 0 0-1.74.71 5.2 5.2 0 0 0-.88 1.47 13.75 13.75 0 0 0-.75 2.29 12.35 12.35 0 0 0-.34 2.4c-.02.76.06 1.37.24 1.78a.42.42 0 0 0 .43.24c.33-.03.61-.2.93-.5.21-.2.4-.42.61-.67l.44-.5C4.87 9.96 5.99 9.02 8 9.02s3.14.94 3.96 1.85l.44.5c.22.26.4.48.62.68.32.3.6.47.93.5a.42.42 0 0 0 .43-.24c.17-.4.26-1.02.24-1.77a12.35 12.35 0 0 0-.34-2.41 13.75 13.75 0 0 0-.75-2.3 5.03 5.03 0 0 0-.88-1.46 3.7 3.7 0 0 0-1.74-.7A14.6 14.6 0 0 0 8 3.4c-1.04 0-2.06.1-2.91.27z"/></svg>