<svg xmlns="http://www.w3.org/2000/svg" width="16" height="16" viewBox="0 0 16 16"><path d="M6 7.5a1.5 1.5 0 1 1-3 0 1.5 1.5 0 0 1 3 0m4.5.5a1.5 1.5 0 1 0 0-3 1.5 1.5 0 0 0 0 3m-.5 3.5a1.5 1.5 0 1 1-3 0 1.5 1.5 0 0 1 3 0"/><path d="M8 0a8 8 0 0 0-4.07 1.11q-.25.1-.44.28A8 8 0 1 0 8 0m3.25 14.2a1.5 1.5 0 0 0-2.13.71A7 7 0 0 1 8 15a7 7 0 0 1-3.84-1.15 1.5 1.5 0 1 0-2.01-2A7 7 0 0 1 1 8c0-1.95.8-3.72 2.09-4.99a1.5 1.5 0 1 0 2.47-1.57A7 7 0 0 1 8 1c1.42 0 2.74.42 3.85 1.15a1.5 1.5 0 1 0 2 2A7 7 0 0 1 15 8q0 .9-.21 1.73a1.5 1.5 0 1 0-1.03 2.25 7 7 0 0 1-2.5 2.22"/></svg>