<svg xmlns="http://www.w3.org/2000/svg" width="16" height="16" viewBox="0 0 16 16" id="icon"><path d="M8 0a.5.5 0 0 1 .5.5v.52a7 7 0 0 1 6.48 6.48h.52a.5.5 0 0 1 0 1h-.52a7 7 0 0 1-6.48 6.48v.52a.5.5 0 0 1-1 0v-.52A7 7 0 0 1 1.02 8.5H.5a.5.5 0 0 1 0-1h.52A7 7 0 0 1 7.5 1.02V.5A.5.5 0 0 1 8 0m-.5 2.02A6 6 0 0 0 2.02 7.5h1A5 5 0 0 1 7.5 3.03zm1 1a5 5 0 0 1 4.47 4.48h1.01A6 6 0 0 0 8.5 2.02zm4.47 5.48a5 5 0 0 1-4.47 4.47v1.01a6 6 0 0 0 5.48-5.48zM7.5 12.97A5 5 0 0 1 3.03 8.5H2.02a6 6 0 0 0 5.48 5.48zM10 8a2 2 0 1 0-4 0 2 2 0 0 0 4 0"/></svg>