<svg xmlns="http://www.w3.org/2000/svg" width="16" height="16" viewBox="0 0 16 16" id="icon"><path fill-rule="evenodd" d="M14 0a2 2 0 0 1 2 2v12a2 2 0 0 1-2 2H2a2 2 0 0 1-2-2V0zM4.59 7.5q-.9 0-1.45.5-.55.51-.55 1.49v3.1q0 1 .52 1.49t1.41.5q.58 0 1.02-.23.45-.22.7-.67.26-.45.25-1.11v-.19H5.27v.18q0 .45-.18.68t-.53.23q-.37 0-.56-.26-.18-.25-.18-.75V9.69q0-.55.16-.81.18-.27.58-.27.32 0 .52.23.2.22.2.69v.2H6.5v-.21q0-.67-.24-1.12a1.6 1.6 0 0 0-.66-.68q-.42-.22-1.01-.22m4.21-.01q-.58 0-1 .24a1.7 1.7 0 0 0-.64.68 2 2 0 0 0-.22 1q0 .74.3 1.17t.96.74l.47.21q.44.19.62.43.19.24.19.64 0 .47-.17.7-.16.22-.53.22-.36 0-.54-.24t-.2-.75H6.86q.02 1 .5 1.52.48.53 1.39.53t1.41-.52.5-1.48q0-.81-.32-1.3-.34-.47-1.05-.78l-.45-.2q-.39-.17-.55-.38t-.17-.58q0-.4.17-.6t.5-.19q.36 0 .51.24t.18.7h1.12q-.03-.98-.5-1.48-.47-.52-1.3-.52m4.05 0q-.58 0-1 .24a1.7 1.7 0 0 0-.64.68 2 2 0 0 0-.22 1q0 .74.29 1.17.3.42.97.74l.47.21q.43.19.62.43t.19.64q0 .47-.17.7-.16.22-.53.22-.36 0-.54-.24-.2-.24-.21-.75h-1.16q.02 1 .5 1.52.48.53 1.38.53.91 0 1.42-.52t.5-1.48q0-.81-.33-1.3t-1.04-.78l-.45-.2q-.39-.17-.56-.38-.16-.21-.16-.58 0-.4.16-.6.18-.19.51-.19.36 0 .5.24.16.23.18.7h1.13q-.03-.98-.5-1.48-.47-.52-1.3-.52"/></svg>