<svg xmlns="http://www.w3.org/2000/svg" width="16" height="16" viewBox="0 0 16 16"><path fill-rule="evenodd" d="M.5 6a.5.5 0 0 0-.49.6l1.65 7.44A2.5 2.5 0 0 0 4.1 16h5.8a2.5 2.5 0 0 0 2.44-1.96l.13-.59a3 3 0 0 0 1.3-5.85l.22-1a.5.5 0 0 0-.49-.6zM13 12.5l-.32-.02.87-3.9A2 2 0 0 1 13 12.5M2.64 13.82 1.12 7h11.76l-1.52 6.83A1.5 1.5 0 0 1 9.9 15H4.1a1.5 1.5 0 0 1-1.46-1.17"/><path d="m4.4.8-.02.02-.2.31-.14.27-.04.1.1.25q.1.2.3.45l.01.01q.2.25.37.54c.11.2.22.46.22.75q-.01.3-.12.5l-.2.38-.25.38-.02.03a.5.5 0 0 1-.81-.59l.02-.02.2-.31.14-.27.04-.1-.1-.25-.3-.45-.01-.01a5 5 0 0 1-.37-.55A1.5 1.5 0 0 1 3 1.5c0-.19.07-.37.12-.5l.2-.38.25-.38L3.6.2a.5.5 0 0 1 .8.6m3 0-.02.02-.2.31-.14.27-.04.1.1.25q.1.2.3.45l.01.01q.2.25.37.54c.11.2.22.46.22.75q-.01.3-.12.5l-.2.38-.25.38-.02.03a.5.5 0 0 1-.81-.59l.02-.02.2-.31.14-.27.04-.1-.1-.25-.3-.45-.01-.01a5 5 0 0 1-.37-.55A1.5 1.5 0 0 1 6 1.5c0-.19.07-.37.12-.5l.2-.38.25-.38L6.6.2a.5.5 0 0 1 .8.6m3 0-.02.02-.2.31-.14.27-.04.1.1.25q.1.2.3.45l.01.01q.2.25.37.54c.11.2.22.46.22.75 0 .19-.07.37-.12.5l-.2.38-.25.38-.02.03a.5.5 0 0 1-.81-.59l.02-.02.2-.31.14-.27.04-.1-.1-.25-.3-.45-.01-.01a5 5 0 0 1-.37-.55A1.5 1.5 0 0 1 9 1.5c0-.19.07-.37.12-.5l.2-.38.25-.38L9.6.2a.5.5 0 0 1 .8.6"/></svg>