<svg xmlns="http://www.w3.org/2000/svg" width="16" height="16" viewBox="0 0 16 16" id="icon"><path d="M13.9.33a.5.5 0 0 1-.28.65l-2.25.9-.4 1.93q.57.15.97.37c.23.14.56.4.56.82l-.01.13-.96 9.07a1.3 1.3 0 0 1-.53.93c-.48.34-1.5.87-3 .87s-2.53-.53-3.02-.87a1.3 1.3 0 0 1-.52-.93L3.5 5.13V5c0-.42.33-.68.56-.82q.4-.23.99-.37a15 15 0 0 1 4.93-.18l.47-2.22a.5.5 0 0 1 .3-.35l2.5-1a.5.5 0 0 1 .65.27M9.77 4.61A14 14 0 0 0 8 4.5c-1.08 0-2.03.11-2.7.28a3 3 0 0 0-.66.22q.23.11.65.22a14 14 0 0 0 4.3.2zm.29 1.75a15 15 0 0 1-5.01-.17l-.43-.13.83 8.04q.04.17.1.21c.36.25 1.17.69 2.44.69s2.08-.44 2.44-.69c.04-.03.1-.1.1-.22l.86-8.02-.44.12a9 9 0 0 1-.89.17m-5.6-1.48.01.01zm7.07 0v.01zm-.18.12a3 3 0 0 0-.6-.21l-.1.45.06-.02q.42-.11.64-.22"/></svg>