<svg xmlns="http://www.w3.org/2000/svg" viewBox="0 0 16 16"><path fill-rule="evenodd" d="M.5 6a.5.5 0 0 0-.49.6l1.65 7.44A2.5 2.5 0 0 0 4.1 16h5.8a2.5 2.5 0 0 0 2.44-1.96l.13-.59a3 3 0 0 0 1.3-5.85l.22-1a.5.5 0 0 0-.49-.6H.5ZM13 12.5a2.01 2.01 0 0 1-.32-.03l.87-3.9A2 2 0 0 1 13 12.5Z"/><path d="m4.4.8-.02.02a4.17 4.17 0 0 0-.2.31 2.33 2.33 0 0 0-.14.27L4 1.5a.6.6 0 0 0 .1.25c.07.14.17.28.3.45l.01.01c.12.16.26.35.37.54.11.2.22.46.22.75 0 .19-.07.37-.12.5a3.31 3.31 0 0 1-.2.38 5.44 5.44 0 0 1-.25.38l-.02.03a.5.5 0 0 1-.81-.59l.02-.02a4.15 4.15 0 0 0 .2-.31 2.06 2.06 0 0 0 .14-.27L4 3.5a.6.6 0 0 0-.1-.25 4.33 4.33 0 0 0-.3-.45l-.01-.01a5.1 5.1 0 0 1-.37-.55A1.53 1.53 0 0 1 3 1.5c0-.19.07-.37.12-.5.06-.13.13-.27.2-.38a5.45 5.45 0 0 1 .25-.38L3.6.2a.5.5 0 0 1 .8.6Zm3 0-.02.02a4.17 4.17 0 0 0-.2.31 2.33 2.33 0 0 0-.14.27L7 1.5a.6.6 0 0 0 .1.25c.07.14.17.28.3.45l.01.01c.12.16.26.35.37.54.11.2.22.46.22.75 0 .19-.07.37-.12.5a3.31 3.31 0 0 1-.2.38 5.44 5.44 0 0 1-.25.38l-.02.03a.5.5 0 0 1-.81-.59l.02-.02a4.15 4.15 0 0 0 .2-.31 2.06 2.06 0 0 0 .14-.27L7 3.5a.6.6 0 0 0-.1-.25 4.33 4.33 0 0 0-.3-.45l-.01-.01a5.1 5.1 0 0 1-.37-.55A1.53 1.53 0 0 1 6 1.5c0-.19.07-.37.12-.5.06-.13.13-.27.2-.38a5.45 5.45 0 0 1 .25-.38L6.6.2a.5.5 0 0 1 .8.6Zm3 0-.02.02a4.08 4.08 0 0 0-.2.31 2.34 2.34 0 0 0-.14.27l-.04.1a.6.6 0 0 0 .1.25c.07.14.17.28.3.45l.01.01c.12.16.26.35.37.54.11.2.22.46.22.75 0 .19-.07.37-.12.5a3.2 3.2 0 0 1-.2.38 5.38 5.38 0 0 1-.25.38l-.02.03a.5.5 0 0 1-.81-.59l.02-.02a4.15 4.15 0 0 0 .2-.31 2.06 2.06 0 0 0 .14-.27l.04-.1a.6.6 0 0 0-.1-.25 4.33 4.33 0 0 0-.3-.45l-.01-.01a5.1 5.1 0 0 1-.37-.55A1.53 1.53 0 0 1 9 1.5c0-.19.07-.37.12-.5.06-.13.13-.27.2-.38a5.45 5.45 0 0 1 .25-.38L9.6.2a.5.5 0 0 1 .8.6Z"/></svg>