<svg viewBox="0 0 16 16"><path d="M13.9.33a.5.5 0 0 1-.28.65l-2.25.9-.4 1.93c.37.1.71.22.97.37.23.14.56.4.56.82a.8.8 0 0 1-.01.13l-.96 9.07a1.28 1.28 0 0 1-.53.93c-.48.34-1.5.87-3 .87a5.23 5.23 0 0 1-3.02-.87 1.28 1.28 0 0 1-.52-.93L3.5 5.13a.78.78 0 0 1 0-.13c0-.42.33-.69.56-.82.26-.15.6-.28.99-.37a14.77 14.77 0 0 1 4.93-.18l.47-2.22a.5.5 0 0 1 .3-.35l2.5-1a.5.5 0 0 1 .65.27zM9.77 4.61A14 14 0 0 0 8 4.5c-1.08 0-2.03.11-2.7.28a3.28 3.28 0 0 0-.66.22c.15.07.37.15.65.22a14.07 14.07 0 0 0 4.3.2l.18-.81zm.29 1.75a14.9 14.9 0 0 1-5.01-.17 5.51 5.51 0 0 1-.43-.13l.83 8.04c.02.12.06.18.1.21.36.25 1.17.69 2.44.69s2.08-.44 2.44-.69c.04-.03.1-.1.1-.22l.86-8.03a5.52 5.52 0 0 1-.44.13 8.88 8.88 0 0 1-.89.17zm-5.6-1.48.01.01zm7.07 0v.01zm-.18.12a3.17 3.17 0 0 0-.6-.21l-.1.45.06-.02c.28-.07.5-.15.64-.22z"/></svg>