<svg xmlns="http://www.w3.org/2000/svg" viewBox="0 0 16 16"><path d="M4 10.78c.15 1.67 1.51 2.85 3.6 3V15h1.03v-1.22c2.27-.17 3.68-1.43 3.68-3.3 0-1.59-.94-2.5-2.95-3.02l-.73-.2v-3.8c1.13.12 1.88.72 2.07 1.62h1.47c-.16-1.6-1.54-2.75-3.54-2.87V1H7.6v1.23c-1.94.23-3.27 1.48-3.27 3.16 0 1.45.97 2.48 2.66 2.92l.61.16v4.03c-1.15-.17-1.94-.8-2.13-1.72H4zm3.4-3.83c-1.05-.27-1.6-.83-1.6-1.62 0-.94.7-1.64 1.8-1.83V7l-.2-.05zm1.58 1.87c1.29.32 1.85.86 1.85 1.77 0 1.1-.82 1.82-2.2 1.94v-3.8l.35.09z"/></svg>