<svg xmlns="http://www.w3.org/2000/svg" width="16" height="16" viewBox="0 0 16 16" id="icon"><path d="M5.5 13v1.25c0 .14.11.25.25.25h1a.25.25 0 0 0 .25-.25V13h.5v1.25c0 .14.11.25.25.25h1a.25.25 0 0 0 .25-.25V13h.08c2 0 3.42-1.03 3.42-2.82 0-1.5-1-2.32-2.19-2.44v-.09A2.1 2.1 0 0 0 12 5.46C12 3.93 10.85 3 9.1 3H9V1.75a.25.25 0 0 0-.25-.25h-1a.25.25 0 0 0-.25.25V3h-.57V1.75a.25.25 0 0 0-.25-.25h-.93a.25.25 0 0 0-.25.25V3l-2 .01a.25.25 0 0 0-.25.25v.99c0 .14.11.25.25.25h.76a.75.75 0 0 1 .74.75v5.5a.75.75 0 0 1-.75.75l-.75.01a.25.25 0 0 0-.25.25v1q.02.23.25.25zm1.43-8.51h1.72c.9 0 1.43.5 1.43 1.3 0 .88-.57 1.37-1.87 1.37H6.93zm0 4.05h1.84c1.13 0 1.75.58 1.75 1.52 0 .96-.62 1.45-2.15 1.45H6.93z"/></svg>