<svg xmlns="http://www.w3.org/2000/svg" viewBox="0 0 16 16"><path d="M0 5a5 5 0 0 0 4.03 4.9 6.46 6.46 0 0 1 .54-2.07A2.26 2.26 0 0 1 3 5.91h-.5v-.43h.47v-.57H2.5V4.5h.51c.23-1.25 1.2-1.99 2.67-1.99.32 0 .6.03.82.09v.73a3.46 3.46 0 0 0-.81-.08c-.92 0-1.54.46-1.74 1.25h1.92v.43H3.89v.56h1.98v.43H3.93c.12.6.47 1.03 1 1.23a6.5 6.5 0 0 1 4.98-3.11A5 5 0 0 0 0 5zm16 5.5a5.5 5.5 0 1 1-11 0 5.5 5.5 0 0 1 11 0zm-7.75 1.32c.07.84.75 1.49 1.96 1.56V14h.54v-.62c1.26-.09 2-.74 2-1.69 0-.86-.56-1.31-1.57-1.54l-.43-.1V8.37c.54.06.89.35.97.75h.95c-.07-.8-.78-1.43-1.92-1.5V7h-.54v.63c-1.07.1-1.8.73-1.8 1.62 0 .79.54 1.29 1.45 1.5l.35.08v1.78c-.55-.08-.92-.38-1-.79h-.96zm1.96-1.9c-.53-.11-.82-.36-.82-.73 0-.4.31-.71.82-.8v1.54zm.62 1.05c.65.15.95.38.95.8 0 .47-.37.8-1.02.86v-1.68l.07.02z"/></svg>