<svg xmlns="http://www.w3.org/2000/svg" width="16" height="16" viewBox="0 0 16 16" id="icon"><path d="M2.5 0q-.25 0-.49.05l.2.98L2.5 1h.46V0zm2.3 0h-.92v1h.91zm1.83 0H5.7v1h.92zm1.83 0h-.92v1h.92zm1.83 0h-.91v1h.91zm1.84 0h-.92v1h.91zm1.37 0h-.46v1h.46q.15 0 .3.03l.19-.98A3 3 0 0 0 13.5 0m2.08 1.11a3 3 0 0 0-.7-.69l-.55.83q.25.17.42.42zM1.1.42a3 3 0 0 0-.69.7l.83.55q.17-.25.42-.42zM16 2.5q0-.25-.05-.49l-.98.2q.03.14.03.29v.46h1zM.05 2.01A3 3 0 0 0 0 2.5v.46h1V2.5q0-.15.03-.3zM0 3.88v.91h1v-.92zm16 .91v-.92h-1v.92zM0 5.71v.92h1V5.7zm16 .92V5.7h-1v.92zM0 7.54v.92h1v-.92zm15 .92h1v-.92h-1zM0 9.37v.92h1v-.91zm16 .92v-.91h-1v.91zm-16 .92v.91h1v-.91zm16 .91v-.91h-1v.91zm-16 .92v.46q0 .25.05.49l.98-.2L1 13.5v-.46zm16 .46v-.46h-1v.46q0 .15-.03.3l.98.19q.05-.24.05-.49M.42 14.89q.27.4.7.69l.55-.83a2 2 0 0 1-.42-.42zm14.47.69q.4-.27.69-.7l-.83-.55q-.16.25-.42.42zm-12.88.37q.24.05.49.05h.46v-1H2.5q-.15 0-.3-.03zM13.5 16q.25 0 .49-.05l-.2-.98-.29.03h-.46v1zm-9.62 0h.91v-1h-.92zm1.83 0h.92v-1H5.7zm1.83 0h.92v-1h-.92zm1.83 0h.92v-1h-.91zm1.84 0h.91v-1h-.91zM4.5 7.5a.5.5 0 0 0 0 1h7a.5.5 0 0 0 0-1z"/></svg>