<svg xmlns="http://www.w3.org/2000/svg" width="16" height="16" viewBox="0 0 16 16"><path d="M8 1c-1.57 0-3.02.29-4.1.78C2.88 2.25 2 2.99 2 4s.88 1.76 1.9 2.22C4.98 6.72 6.43 7 8 7s3.02-.29 4.1-.78C13.13 5.76 14 5.01 14 4s-.87-1.75-1.9-2.22A10 10 0 0 0 8 1"/><path d="M2 7v-.84c.46.43 1 .75 1.49.97C4.72 7.7 6.32 8 8 8s3.28-.3 4.51-.87A6 6 0 0 0 14 6.16V7q-.01.63-.41 1.13a4.5 4.5 0 0 0-4.82 1.85L8 10a10 10 0 0 1-4.1-.78C2.88 8.76 2 8.01 2 7m6.26 4H8a11 11 0 0 1-4.51-.87A6 6 0 0 1 2 9.16V10c0 1 .88 1.76 1.9 2.22 1.08.5 2.53.78 4.1.78h.03a5 5 0 0 1 .23-2m0 3H8a11 11 0 0 1-4.51-.87A6 6 0 0 1 2 12.16V13c0 1 .88 1.76 1.9 2.22 1.08.5 2.53.78 4.1.78q.81 0 1.56-.1a4.5 4.5 0 0 1-1.3-1.9"/><path d="M12.5 16a3.5 3.5 0 1 0 0-7 3.5 3.5 0 0 0 0 7m-.65-4.85.65.64.65-.64a.5.5 0 0 1 .7.7l-.64.65.64.65a.5.5 0 0 1-.7.7l-.65-.64-.65.64a.5.5 0 0 1-.7-.7l.64-.65-.64-.65a.5.5 0 0 1 .7-.7"/></svg>