<svg xmlns="http://www.w3.org/2000/svg" width="16" height="16" viewBox="0 0 16 16" id="icon"><path d="M12.1 6.22a5 5 0 0 0 .9-.52V7c0 .29-.21.65-.75 1a5 5 0 0 1 1.75.26V4c0-1-.87-1.75-1.9-2.22C11.02 1.28 9.57 1 8 1s-3.02.29-4.1.78C2.88 2.25 2 2.99 2 4v9c0 1 .88 1.76 1.9 2.22 1.08.49 2.53.78 4.1.78q.81 0 1.56-.1a5 5 0 0 1-.82-.92Q8.38 15 8 15a9 9 0 0 1-3.68-.69C3.36 13.87 3 13.37 3 13v-1.3q.41.3.9.52c1.08.49 2.53.78 4.1.78h.03a5 5 0 0 1 0-1H8a9 9 0 0 1-3.68-.69C3.36 10.87 3 10.37 3 10V8.7q.41.3.9.52c1.08.49 2.53.78 4.1.78q.4 0 .77-.02a5 5 0 0 1 1.1-1.14Q9.02 9 8 9a9 9 0 0 1-3.68-.69C3.36 7.87 3 7.37 3 7V5.7q.41.3.9.52C4.98 6.72 6.43 7 8 7s3.02-.29 4.1-.78M3 4c0-.37.36-.87 1.32-1.31C5.23 2.27 6.54 2 8 2s2.77.27 3.68.69C12.64 3.13 13 3.63 13 4s-.36.88-1.32 1.31C10.77 5.73 9.46 6 8 6s-2.77-.27-3.68-.69C3.36 4.88 3 4.37 3 4"/><path d="M12.5 16a3.5 3.5 0 1 0 0-7 3.5 3.5 0 0 0 0 7m-.65-4.85.65.64.65-.64a.5.5 0 0 1 .7.7l-.64.65.64.65a.5.5 0 0 1-.7.7l-.65-.64-.65.64a.5.5 0 0 1-.7-.7l.64-.65-.64-.65a.5.5 0 0 1 .7-.7"/></svg>