<svg viewBox="0 0 16 16"><path d="M8 1c-1.57 0-3.02.29-4.1.78C2.88 2.25 2 2.99 2 4s.88 1.75 1.9 2.22C4.98 6.72 6.43 7 8 7s3.02-.29 4.1-.78C13.13 5.76 14 5.01 14 4s-.88-1.75-1.9-2.22A10.18 10.18 0 0 0 8 1Z"/><path d="M3.9 9.22C2.88 8.76 2 8.01 2 7v-.84c.46.43 1 .75 1.49.97C4.72 7.7 6.32 8 8 8s3.28-.3 4.51-.87A5.48 5.48 0 0 0 14 6.16V7c0 .42-.15.8-.41 1.13a4.51 4.51 0 0 0-1.36-.12 2.99 2.99 0 0 0-2.2.73 4.53 4.53 0 0 0-1.26 1.24A12.31 12.31 0 0 1 8 10a10.2 10.2 0 0 1-4.1-.78ZM8 14a11 11 0 0 1-4.51-.87A5.48 5.48 0 0 1 2 12.16V13c0 1 .88 1.75 1.9 2.22 1.08.5 2.53.78 4.1.78h.27A1.99 1.99 0 0 1 8 15v-1Zm0-1.5.01.3A1.9 1.9 0 0 0 8 13a10.2 10.2 0 0 1-4.1-.78C2.88 11.76 2 11.01 2 10v-.84c.46.43 1 .75 1.49.97A11 11 0 0 0 8 11h.26A4.5 4.5 0 0 0 8 12.5Z"/><path d="M9 13a1 1 0 0 1 1-1v-1a2 2 0 1 1 4 0v1a1 1 0 0 1 1 1v2a1 1 0 0 1-1 1h-4a1 1 0 0 1-1-1v-2Zm3-3a1 1 0 0 0-1 1v1h2v-1a1 1 0 0 0-1-1Z"/></svg>