<svg xmlns="http://www.w3.org/2000/svg" viewBox="0 0 16 16"><path d="M3.9 1.78C4.98 1.28 6.43 1 8 1s3.02.29 4.1.78C13.13 2.25 14 2.99 14 4s-.88 1.75-1.9 2.22C11.02 6.72 9.57 7 8 7s-3.02-.29-4.1-.78C2.88 5.76 2 5.01 2 4s.88-1.75 1.9-2.22Z"/><path d="M2 6.16V7c0 1 .88 1.75 1.9 2.22 1.08.49 2.53.78 4.1.78s3.02-.29 4.1-.78C13.13 8.76 14 8.01 14 7v-.84c-.46.43-1 .75-1.49.97C11.28 7.7 9.68 8 8 8s-3.28-.3-4.51-.87A5.48 5.48 0 0 1 2 6.16Z"/><path d="M2 9.16V10c0 1 .88 1.75 1.9 2.22 1.08.5 2.53.78 4.1.78s3.02-.29 4.1-.78c1.03-.46 1.9-1.21 1.9-2.22v-.84c-.46.43-1 .75-1.49.97-1.23.56-2.83.87-4.51.87s-3.28-.3-4.51-.87A5.48 5.48 0 0 1 2 9.16Z"/><path d="M2 12.16V13c0 1 .88 1.75 1.9 2.22 1.08.5 2.53.78 4.1.78s3.02-.29 4.1-.78c1.03-.46 1.9-1.21 1.9-2.22v-.84c-.46.43-1 .75-1.49.97-1.23.56-2.83.87-4.51.87s-3.28-.3-4.51-.87A5.48 5.48 0 0 1 2 12.16Z"/></svg>