<svg xmlns="http://www.w3.org/2000/svg" viewBox="0 0 16 16"><path d="M8 1c-1.57 0-3.02.29-4.1.78C2.88 2.25 2 2.99 2 4s.88 1.75 1.9 2.22C4.98 6.72 6.43 7 8 7s3.02-.29 4.1-.78C13.13 5.76 14 5.01 14 4s-.88-1.75-1.9-2.22A10.18 10.18 0 0 0 8 1Z"/><path d="M2 7v-.84c.46.43 1 .75 1.49.97C4.72 7.7 6.32 8 8 8s3.28-.3 4.51-.87A5.48 5.48 0 0 0 14 6.16V7c0 .42-.15.8-.41 1.13a4.51 4.51 0 0 0-4.82 1.85A12.31 12.31 0 0 1 8 10a10.2 10.2 0 0 1-4.1-.78C2.88 8.76 2 8.01 2 7Zm6.26 4H8a11 11 0 0 1-4.51-.87A5.48 5.48 0 0 1 2 9.16V10c0 1 .88 1.75 1.9 2.22 1.08.5 2.53.78 4.1.78h.03a4.55 4.55 0 0 1 .23-2Zm0 3H8a11 11 0 0 1-4.51-.87A5.48 5.48 0 0 1 2 12.16V13c0 1 .88 1.75 1.9 2.22 1.08.5 2.53.78 4.1.78.54 0 1.06-.03 1.55-.1a4.5 4.5 0 0 1-1.3-1.9Z"/><path d="M16 12.5a3.5 3.5 0 1 1-7 0 3.5 3.5 0 0 1 7 0Zm-3.5-2a.5.5 0 0 0-.5.5v1.5a.5.5 0 0 0 1 0V11a.5.5 0 0 0-.5-.5Zm0 4a.5.5 0 1 0 0-1 .5.5 0 0 0 0 1Z"/></svg>