<svg viewBox="0 0 16 16"><path d="M12.1 6.22a4.92 4.92 0 0 0 .9-.52V7c0 .29-.21.65-.75 1a4.5 4.5 0 0 1 1.75.26V4c0-1-.88-1.75-1.9-2.22C11.02 1.28 9.57 1 8 1s-3.02.29-4.1.78C2.88 2.25 2 2.99 2 4v9c0 1 .88 1.75 1.9 2.22 1.08.49 2.53.78 4.1.78.54 0 1.06-.03 1.55-.1a4.53 4.53 0 0 1-.8-.92L8 15a9.18 9.18 0 0 1-3.68-.69C3.36 13.87 3 13.37 3 13v-1.3c.27.2.58.38.9.52 1.08.49 2.53.78 4.1.78h.03a4.55 4.55 0 0 1 0-1H8a9.18 9.18 0 0 1-3.68-.69C3.36 10.87 3 10.37 3 10V8.7c.27.2.58.38.9.52a10.2 10.2 0 0 0 4.87.76 4.53 4.53 0 0 1 1.1-1.14C9.3 8.94 8.68 9 8 9a9.18 9.18 0 0 1-3.68-.69C3.36 7.87 3 7.37 3 7V5.7c.27.2.58.38.9.52C4.98 6.72 6.43 7 8 7s3.02-.29 4.1-.78ZM3 4c0-.37.36-.88 1.32-1.31C5.23 2.27 6.54 2 8 2s2.77.27 3.68.69C12.64 3.13 13 3.63 13 4c0 .37-.36.88-1.32 1.31C10.77 5.73 9.46 6 8 6s-2.77-.27-3.68-.69C3.36 4.88 3 4.37 3 4Z"/><path d="M11.89 9.46a.64.64 0 0 1 1.22 0l.05.15a.64.64 0 0 0 .92.38l.13-.07a.64.64 0 0 1 .87.87l-.07.13a.64.64 0 0 0 .38.92l.15.05a.64.64 0 0 1 0 1.22l-.15.05a.64.64 0 0 0-.38.92l.07.13a.64.64 0 0 1-.87.87l-.13-.07a.64.64 0 0 0-.92.38l-.05.15c-.18.61-1.04.61-1.23 0l-.04-.15a.64.64 0 0 0-.92-.38l-.14.07c-.56.31-1.17-.3-.87-.87l.08-.13a.64.64 0 0 0-.38-.92l-.15-.05c-.61-.18-.61-1.04 0-1.23l.15-.04a.64.64 0 0 0 .38-.92l-.07-.14c-.31-.56.3-1.17.86-.87l.14.08a.64.64 0 0 0 .92-.38l.05-.15ZM14 12.5a1.5 1.5 0 1 1-3 0 1.5 1.5 0 0 1 3 0Z"/></svg>