<svg xmlns="http://www.w3.org/2000/svg" width="16" height="16" viewBox="0 0 16 16" id="icon"><path d="M4.32 2.69C5.23 2.27 6.54 2 8 2s2.77.27 3.68.69C12.64 3.13 13 3.63 13 4s-.36.88-1.32 1.31C10.77 5.73 9.46 6 8 6s-2.77-.27-3.68-.69C3.36 4.88 3 4.37 3 4s.36-.87 1.32-1.31m8.68 3V7c0 .37-.36.88-1.32 1.31C10.77 8.73 9.46 9 8 9s-2.77-.27-3.68-.69C3.36 7.87 3 7.37 3 7V5.7q.41.3.9.52C4.98 6.72 6.43 7 8 7s3.02-.29 4.1-.78a5 5 0 0 0 .9-.52M14 4c0-1-.87-1.75-1.9-2.22C11.02 1.28 9.57 1 8 1s-3.02.29-4.1.78C2.88 2.25 2 2.99 2 4v9c0 1 .88 1.76 1.9 2.22 1.08.49 2.53.78 4.1.78s3.02-.29 4.1-.78c1.03-.46 1.9-1.21 1.9-2.22zm-1 4.7V10c0 .37-.36.88-1.32 1.31-.91.42-2.22.69-3.68.69s-2.77-.27-3.68-.69C3.36 10.87 3 10.37 3 10V8.7q.41.3.9.52c1.08.49 2.53.78 4.1.78s3.02-.29 4.1-.78a5 5 0 0 0 .9-.52m0 3V13c0 .37-.36.88-1.32 1.31-.91.42-2.22.69-3.68.69s-2.77-.27-3.68-.69C3.36 13.87 3 13.37 3 13v-1.3q.41.3.9.52c1.08.49 2.53.78 4.1.78s3.02-.29 4.1-.78q.49-.21.9-.52"/></svg>