<svg viewBox="0 0 16 16"><path d="M13 5.7a4.92 4.92 0 0 1-.9.52C11.02 6.72 9.57 7 8 7s-3.02-.29-4.1-.78A4.92 4.92 0 0 1 3 5.7V7c0 .37.36.88 1.32 1.31A9.2 9.2 0 0 0 8 9c.67 0 1.3-.06 1.88-.16-.43.31-.8.7-1.1 1.14A12.31 12.31 0 0 1 8 10a10.2 10.2 0 0 1-4.1-.78A4.92 4.92 0 0 1 3 8.7V10c0 .37.36.88 1.32 1.31A9.2 9.2 0 0 0 8 12h.03a4.55 4.55 0 0 0-.02.8A1.9 1.9 0 0 0 8 13a10.2 10.2 0 0 1-4.1-.78 4.92 4.92 0 0 1-.9-.52V13c0 .37.36.88 1.32 1.31A9.2 9.2 0 0 0 8 15c0 .36.1.7.27 1H8a10.2 10.2 0 0 1-4.1-.78C2.88 14.76 2 14.01 2 13V4c0-1 .88-1.75 1.9-2.22C4.98 1.28 6.43 1 8 1s3.02.29 4.1.78C13.13 2.25 14 2.99 14 4v4.26A4.5 4.5 0 0 0 12.25 8c.54-.36.75-.72.75-1.01V5.7ZM4.32 2.69C3.36 3.12 3 3.63 3 4c0 .37.36.88 1.32 1.31C5.23 5.73 6.54 6 8 6s2.77-.27 3.68-.69C12.64 4.88 13 4.37 13 4c0-.37-.36-.88-1.32-1.31C10.77 2.27 9.46 2 8 2s-2.77.27-3.68.69Z"/><path d="M9 13a1 1 0 0 1 1-1v-1a2 2 0 1 1 4 0v1a1 1 0 0 1 1 1v2a1 1 0 0 1-1 1h-4a1 1 0 0 1-1-1v-2Zm3-3a1 1 0 0 0-1 1v1h2v-1a1 1 0 0 0-1-1Z"/></svg>