<svg xmlns="http://www.w3.org/2000/svg" width="16" height="16" viewBox="0 0 16 16"><path d="M8.79 9.9A3 3 0 0 0 8 4a3 3 0 0 0-.9 5.87L9.07 8.6c.23-.15.49.11.34.34zM9 7a1 1 0 1 1-2 0 1 1 0 0 1 2 0"/><path d="M4 0a2 2 0 0 0-2 2v12a2 2 0 0 0 2 2h8a2 2 0 0 0 2-2V2a2 2 0 0 0-2-2zm9 1.5a.5.5 0 1 1-1 0 .5.5 0 0 1 1 0m0 13a.5.5 0 1 1-1 0 .5.5 0 0 1 1 0m-9.5.5a.5.5 0 1 1 0-1 .5.5 0 0 1 0 1M4 1.5a.5.5 0 1 1-1 0 .5.5 0 0 1 1 0m2.88 11.18a1.1 1.1 0 0 1-1.56-1.56c.1-.1.4-.32.8-.59a4 4 0 1 1 1.94.47c-.53.81-1.02 1.52-1.18 1.68"/></svg>