<svg viewBox="0 0 16 16"><path d="M12 2.5a.5.5 0 1 1-1 0 .5.5 0 0 1 1 0Zm0 11a.5.5 0 1 1-1 0 .5.5 0 0 1 1 0Zm-7.5.5a.5.5 0 1 0 0-1 .5.5 0 0 0 0 1ZM5 2.5a.5.5 0 1 1-1 0 .5.5 0 0 1 1 0ZM8 8a1 1 0 1 0 0-2 1 1 0 0 0 0 2Z"/><path d="M12 7a4 4 0 0 1-3.94 4c-.53.81-1.02 1.51-1.18 1.68a1.1 1.1 0 0 1-1.56-1.56c.1-.1.4-.32.8-.59A4 4 0 0 1 8 3a4 4 0 0 1 4 4Zm-1 0a3 3 0 1 0-3.9 2.87L9.07 8.6c.23-.15.49.11.34.34l-.62.96A3 3 0 0 0 11 7Z"/><path d="M2 2a2 2 0 0 1 2-2h8a2 2 0 0 1 2 2v12a2 2 0 0 1-2 2H4a2 2 0 0 1-2-2V2Zm2-1a1 1 0 0 0-1 1v12a1 1 0 0 0 1 1h8a1 1 0 0 0 1-1V2a1 1 0 0 0-1-1H4Z"/></svg>