<svg xmlns="http://www.w3.org/2000/svg" width="16" height="16" viewBox="0 0 16 16"><path d="M13.55 2.9a13 13 0 0 0-3.26-1l-.05.02c-.14.25-.3.58-.41.83a12 12 0 0 0-3.66 0 8 8 0 0 0-.41-.83l-.05-.02q-1.7.29-3.26 1l-.02.03a13.5 13.5 0 0 0-2.36 9.1l.02.04a13 13 0 0 0 4 2.02l.05-.02q.46-.63.82-1.33l-.01-.06h-.02a9 9 0 0 1-1.25-.6l-.02-.07.01-.02.25-.2h.05a9.5 9.5 0 0 0 8.05 0h.05l.25.2a.05.05 0 0 1 0 .09 8 8 0 0 1-1.26.59l-.03.03v.04q.37.7.82 1.33l.06.02a13 13 0 0 0 4-2.02l.02-.04a13.4 13.4 0 0 0-2.36-9.1zm-8.2 7.3c-.8 0-1.44-.72-1.44-1.6s.64-1.62 1.44-1.62 1.45.73 1.44 1.61c0 .89-.64 1.61-1.44 1.61m5.31 0c-.78 0-1.43-.72-1.43-1.6s.63-1.62 1.43-1.62c.81 0 1.45.73 1.44 1.61 0 .89-.63 1.61-1.44 1.61"/></svg>