<svg xmlns="http://www.w3.org/2000/svg" viewBox="0 0 16 16"><path d="M13.54 2.9a13.23 13.23 0 0 0-3.25-1 .05.05 0 0 0-.05.02c-.14.25-.3.58-.41.83a12.19 12.19 0 0 0-3.66 0 8.26 8.26 0 0 0-.41-.83.05.05 0 0 0-.05-.02c-1.13.19-2.22.53-3.26 1a.04.04 0 0 0-.02.03 13.5 13.5 0 0 0-2.34 9.14 13.28 13.28 0 0 0 4 2.02.05.05 0 0 0 .05-.02c.3-.42.58-.86.82-1.33a.05.05 0 0 0-.01-.06.05.05 0 0 0-.02 0 8.88 8.88 0 0 1-1.25-.6.05.05 0 0 1-.02-.07.05.05 0 0 1 .01-.02l.25-.2a.05.05 0 0 1 .05 0 9.46 9.46 0 0 0 8.04 0 .05.05 0 0 1 .06 0l.25.2a.05.05 0 0 1 0 .09 8.25 8.25 0 0 1-1.26.59.05.05 0 0 0-.03.03.05.05 0 0 0 0 .04c.25.47.52.91.82 1.33a.05.05 0 0 0 .06.02 13.23 13.23 0 0 0 4-2.02.05.05 0 0 0 .02-.04 13.4 13.4 0 0 0-2.36-9.1.03.03 0 0 0-.02-.02Zm-8.2 7.31c-.78 0-1.43-.72-1.43-1.6 0-.9.64-1.62 1.44-1.62.8 0 1.45.73 1.43 1.61 0 .89-.63 1.61-1.43 1.61Zm5.32 0c-.78 0-1.43-.72-1.43-1.6 0-.9.63-1.62 1.43-1.62.81 0 1.45.73 1.44 1.61 0 .89-.63 1.61-1.44 1.61Z"/></svg>