<svg xmlns="http://www.w3.org/2000/svg" viewBox="0 0 16 16"><path d="m7.79 2.34-.8 1.28A.25.25 0 0 0 7.2 4h1.6a.25.25 0 0 0 .2-.38l-.8-1.28a.25.25 0 0 0-.42 0Zm0 11.32-.8-1.28A.25.25 0 0 1 7.2 12h1.6a.25.25 0 0 1 .21.38l-.8 1.28a.25.25 0 0 1-.42 0ZM3.62 9.01l-1.28-.8a.25.25 0 0 1 0-.42l1.28-.8A.25.25 0 0 1 4 7.2v1.6a.25.25 0 0 1-.38.21Zm10.04-.8-1.28.8A.25.25 0 0 1 12 8.8V7.2a.25.25 0 0 1 .38-.21l1.28.8a.25.25 0 0 1 0 .42Z"/><path d="M6.5 0A1.5 1.5 0 0 0 5 1.5v3a.5.5 0 0 1-.5.5h-3A1.5 1.5 0 0 0 0 6.5v3A1.5 1.5 0 0 0 1.5 11h3a.5.5 0 0 1 .5.5v3A1.5 1.5 0 0 0 6.5 16h3a1.5 1.5 0 0 0 1.5-1.5v-3a.5.5 0 0 1 .5-.5h3A1.5 1.5 0 0 0 16 9.5v-3A1.5 1.5 0 0 0 14.5 5h-3a.5.5 0 0 1-.5-.5v-3A1.5 1.5 0 0 0 9.5 0h-3ZM6 1.5a.5.5 0 0 1 .5-.5h3a.5.5 0 0 1 .5.5v3A1.5 1.5 0 0 0 11.5 6h3a.5.5 0 0 1 .5.5v3a.5.5 0 0 1-.5.5h-3a1.5 1.5 0 0 0-1.5 1.5v3a.5.5 0 0 1-.5.5h-3a.5.5 0 0 1-.5-.5v-3A1.5 1.5 0 0 0 4.5 10h-3a.5.5 0 0 1-.5-.5v-3a.5.5 0 0 1 .5-.5h3A1.5 1.5 0 0 0 6 4.5v-3Z"/></svg>