<svg viewBox="0 0 16 16"><path fill-rule="evenodd" d="M8 0a8 8 0 1 0 0 16A8 8 0 0 0 8 0zm5.28 3.69a6.8 6.8 0 0 1 1.55 4.25c-.23-.04-2.48-.5-4.76-.22l-.14-.35a21 21 0 0 0-.46-1 9.14 9.14 0 0 0 3.81-2.68zM8 1.18a6.8 6.8 0 0 1 4.53 1.72 7.75 7.75 0 0 1-3.58 2.46c-1.12-2.05-2.36-3.74-2.55-4A6.95 6.95 0 0 1 8 1.18zm-2.9.64a43.12 43.12 0 0 1 2.53 3.95c-3.2.85-6.02.83-6.32.83a6.87 6.87 0 0 1 3.78-4.78zM1.15 8.01V7.8c.3.01 3.61.05 7.02-.97.2.38.38.77.56 1.16l-.27.08a10.87 10.87 0 0 0-5.56 4.5 6.82 6.82 0 0 1-1.75-4.56zM8 14.84a6.79 6.79 0 0 1-4.19-1.44c.12-.26 1.5-2.93 5.36-4.27l.04-.02a28.25 28.25 0 0 1 1.46 5.18 6.72 6.72 0 0 1-2.67.55zm3.81-1.17c-.07-.42-.43-2.42-1.33-4.87a9.98 9.98 0 0 1 4.25.3 6.77 6.77 0 0 1-2.92 4.57z"/></svg>