<svg xmlns="http://www.w3.org/2000/svg" width="16" height="16" viewBox="0 0 16 16" id="icon"><path fill-rule="evenodd" d="M8 0a8 8 0 1 0 0 16A8 8 0 0 0 8 0m5.28 3.69a6.8 6.8 0 0 1 1.55 4.25c-.23-.04-2.48-.5-4.76-.22l-.14-.35-.46-1a9 9 0 0 0 3.81-2.68M8 1.18a6.8 6.8 0 0 1 4.53 1.72 8 8 0 0 1-3.58 2.46c-1.12-2.05-2.36-3.74-2.55-4A7 7 0 0 1 8 1.18m-2.9.64a43 43 0 0 1 2.53 3.95c-3.2.85-6.02.83-6.32.83a6.9 6.9 0 0 1 3.78-4.78M1.15 8.01V7.8c.3.01 3.61.05 7.02-.97q.3.57.56 1.16l-.27.08a11 11 0 0 0-5.56 4.5 6.8 6.8 0 0 1-1.75-4.56M8 14.84a6.8 6.8 0 0 1-4.19-1.44c.12-.26 1.5-2.93 5.36-4.27l.04-.02a28 28 0 0 1 1.46 5.18 7 7 0 0 1-2.67.55m3.81-1.17c-.07-.42-.43-2.42-1.33-4.87a10 10 0 0 1 4.25.3 6.8 6.8 0 0 1-2.92 4.57"/></svg>