<svg xmlns="http://www.w3.org/2000/svg" width="16" height="16" viewBox="0 0 16 16"><path d="M8 5.75c1.39 0 2.67.2 3.6.39a18 18 0 0 1 1.44.35l.11.03a.5.5 0 0 1-.3.96l-.03-.01a17 17 0 0 0-1.41-.35A17 17 0 0 0 8 6.75a17 17 0 0 0-3.4.37 17 17 0 0 0-1.42.35h-.02a.5.5 0 1 1-.31-.94A17 17 0 0 1 8 5.75"/><path d="M5.23 2.72c-.13.46-.2.95-.22 1.38-1.4.2-2.65.53-3.53 1C-.64 6.29.04 11.2.4 13.14a.95.95 0 0 0 .95.77h13.32a.95.95 0 0 0 .95-.77c.35-1.93 1.03-6.85-1.1-8.02-.87-.48-2.12-.82-3.52-1.01a7 7 0 0 0-.22-1.38A3 3 0 0 0 9.8 1.1a2.9 2.9 0 0 0-3.6 0c-.53.4-.81 1.03-.97 1.62M9.2 1.9q.4.3.6 1.09.14.49.18 1a23 23 0 0 0-3.96 0 6 6 0 0 1 .17-1q.21-.8.61-1.09a1.9 1.9 0 0 1 2.4 0M8 4.9c2.48 0 4.8.4 6.04 1.09.23.13.47.4.65.93q.27.8.3 1.95c.05 1.48-.19 3.09-.36 4.03H1.37C1.2 11.96.96 10.35 1 8.87q.03-1.15.3-1.95c.18-.53.42-.8.65-.93C3.21 5.3 5.53 4.9 8 4.9"/></svg>