<svg xmlns="http://www.w3.org/2000/svg" width="16" height="16" viewBox="0 0 16 16" id="icon"><path d="m5 4.1.03-.3c.05-.46.14-.98.32-1.45s.43-.93.85-1.25a2.9 2.9 0 0 1 3.6 0c.42.32.68.78.85 1.25s.27.99.32 1.45l.02.3c1.4.2 2.65.53 3.53 1 2.12 1.18 1.44 6.1 1.09 8.03a.95.95 0 0 1-.95.77H1.34a.95.95 0 0 1-.95-.77C.04 11.2-.64 6.28 1.5 5.1c.85-.47 2.1-.81 3.5-1m-.96 1.53A22 22 0 0 0 2.49 6l-.1.02-.03.01a.5.5 0 0 0 .28.96h.03l.08-.03a21 21 0 0 1 1.48-.33A21 21 0 0 1 8 6.25c1.44 0 2.78.18 3.77.37a21 21 0 0 1 1.56.35h.02a.5.5 0 0 0 .3-.95h-.04l-.43-.12-1.23-.27A22 22 0 0 0 8 5.25c-1.52 0-2.93.2-3.95.38M6.8 1.9q-.3.23-.51.8a5 5 0 0 0-.27 1.28l1.38-.07q1.3-.04 2.58.07a5 5 0 0 0-.27-1.29q-.2-.56-.5-.79a1.9 1.9 0 0 0-2.4 0Z"/></svg>