<svg xmlns="http://www.w3.org/2000/svg" width="16" height="16" viewBox="0 0 16 16" id="icon"><path d="M8.5 1A4.5 4.5 0 0 0 4 5.5v7.05a2.45 2.45 0 0 0 4.75.86l.51-1.36a6 6 0 0 1 .82-1.46l2-2.59a4.34 4.34 0 0 0-3.42-7zM3 5.5A5.5 5.5 0 0 1 8.5 0h.16a5.34 5.34 0 0 1 4.22 8.62l-2.01 2.58a5 5 0 0 0-.67 1.2l-.51 1.36A3.45 3.45 0 0 1 3 12.55zM8.5 4A1.5 1.5 0 0 0 7 5.5v2.7l.33-.2q.5-.3.72-.72a.5.5 0 1 1 .9.44c-.26.52-.68.87-1.08 1.13A9 9 0 0 1 7 9.3v2.19a.5.5 0 0 1-1 0v-6a2.5 2.5 0 0 1 5 0V6a.5.5 0 0 1-1 0v-.5A1.5 1.5 0 0 0 8.5 4"/></svg>