<svg xmlns="http://www.w3.org/2000/svg" width="16" height="16" viewBox="0 0 16 16" id="icon"><path fill-rule="evenodd" d="M6.83 4.14c.6 2.14-.36 3.6-2.4 4.12a4.4 4.4 0 0 1-2.01.05c-.05-.01.9 2.78 1.52 4.6l.41 1.21a.5.5 0 0 1-.35.66l-.59.2a.55.55 0 0 1-.69-.35L.18 7a3.8 3.8 0 0 1 2.57-4.8c2.03-.52 3.4 0 4.07 1.95zm-.87 2.22c.43-.11.56-1 .29-1.97S5.4 2.72 4.98 2.83s-.56 1-.29 1.97.84 1.67 1.27 1.56m3.22-2.22c-.6 2.14.36 3.6 2.38 4.12a4.4 4.4 0 0 0 2.02.05c.05-.01-.9 2.78-1.52 4.6l-.41 1.21a.5.5 0 0 0 .35.66l.59.2c.29.09.6-.07.69-.35L15.82 7a3.8 3.8 0 0 0-2.57-4.8c-2.03-.52-3.4 0-4.07 1.95m.86 2.22c-.43-.11-.56-1-.29-1.97s.84-1.67 1.27-1.56.56 1 .29 1.97-.84 1.67-1.27 1.56"/></svg>