<svg xmlns="http://www.w3.org/2000/svg" viewBox="0 0 16 16"><path fill-rule="evenodd" d="M6.83 4.14c.6 2.14-.36 3.6-2.4 4.12a4.43 4.43 0 0 1-2.01.05c-.05-.01.9 2.78 1.52 4.6l.41 1.21a.52.52 0 0 1-.35.66l-.59.2a.55.55 0 0 1-.69-.35L.18 7a3.8 3.8 0 0 1 2.57-4.8c2.03-.52 3.4 0 4.07 1.95zm-.87 2.22c.43-.11.56-1 .29-1.97-.27-.97-.84-1.68-1.27-1.56-.43.1-.56 1-.29 1.97.27.97.84 1.67 1.27 1.56zm3.21-2.22c-.6 2.14.37 3.6 2.4 4.12a4.43 4.43 0 0 0 2.01.05c.05-.01-.9 2.78-1.52 4.6l-.41 1.21a.52.52 0 0 0 .35.66l.59.2c.29.09.6-.07.69-.35L15.82 7a3.8 3.8 0 0 0-2.57-4.8c-2.03-.52-3.4 0-4.08 1.95zm.87 2.22c-.43-.11-.56-1-.29-1.97.27-.97.84-1.68 1.27-1.56.43.1.56 1 .29 1.97-.27.97-.84 1.67-1.27 1.56z"/></svg>