<svg xmlns="http://www.w3.org/2000/svg" width="16" height="16" viewBox="0 0 16 16"><path d="M8 15A7 7 0 1 1 8 1a7 7 0 0 1 0 14m0 1A8 8 0 1 0 8 0a8 8 0 0 0 0 16"/><path d="M4.29 9.57a.5.5 0 0 1 .68.18A3.5 3.5 0 0 0 8 11.5a3.5 3.5 0 0 0 3.03-1.75.5.5 0 1 1 .87.5A4.5 4.5 0 0 1 8 12.5a4.5 4.5 0 0 1-3.9-2.25.5.5 0 0 1 .19-.68M7 6.5C7 7.33 6.55 8 6 8s-1-.67-1-1.5S5.45 5 6 5s1 .67 1 1.5m1.76-.44a.5.5 0 0 1 .68.2.9.9 0 0 0 .81.49c.34 0 .65-.19.81-.5a.5.5 0 1 1 .88.5 1.9 1.9 0 0 1-1.69 1c-.73 0-1.36-.41-1.69-1a.5.5 0 0 1 .2-.69"/></svg>