<svg xmlns="http://www.w3.org/2000/svg" width="16" height="16" viewBox="0 0 16 16" id="icon"><path d="M8 15A7 7 0 1 1 8 1a7 7 0 0 1 0 14m0 1A8 8 0 1 0 8 0a8 8 0 0 0 0 16"/><path d="M7 6.5C7 7.33 6.55 8 6 8s-1-.67-1-1.5S5.45 5 6 5s1 .67 1 1.5m4 0c0 .83-.45 1.5-1 1.5s-1-.67-1-1.5S9.45 5 10 5s1 .67 1 1.5M4.88 4.02a2 2 0 0 1 1.46-.05.5.5 0 0 0 .32-.94 3 3 0 0 0-2.17.07 3 3 0 0 0-.77.48l-.07.07a.5.5 0 0 0 .7.7l.13-.1a2 2 0 0 1 .4-.23m6.24 0a2 2 0 0 0-1.46-.05.5.5 0 1 1-.32-.94 3 3 0 0 1 2.17.07 3 3 0 0 1 .77.48l.07.07a.5.5 0 0 1-.7.7l-.13-.1a2 2 0 0 0-.4-.23M8 10c-1 0-1.75.62-2.25 1.25-.38.47.08 1.06.69.98q1.56-.2 3.12 0c.6.08 1.07-.5.69-.98C9.75 10.62 9 10 8 10"/></svg>