<svg xmlns="http://www.w3.org/2000/svg" width="16" height="16" viewBox="0 0 16 16" id="icon"><path d="M8 15A7 7 0 1 1 8 1a7 7 0 0 1 0 14m0 1A8 8 0 1 0 8 0a8 8 0 0 0 0 16"/><path d="M9.15 5.15a.5.5 0 0 1 .7 0l.65.64.65-.64a.5.5 0 0 1 .7.7l-.64.65.64.65a.5.5 0 0 1-.7.7l-.65-.64-.65.64a.5.5 0 1 1-.7-.7l.64-.65-.64-.65a.5.5 0 0 1 0-.7m-5 0a.5.5 0 0 1 .7 0l.65.64.65-.64a.5.5 0 1 1 .7.7l-.64.65.64.65a.5.5 0 1 1-.7.7l-.65-.64-.65.64a.5.5 0 1 1-.7-.7l.64-.65-.64-.65a.5.5 0 0 1 0-.7M10 11a2 2 0 1 1-4 0 2 2 0 0 1 4 0"/></svg>