<svg xmlns="http://www.w3.org/2000/svg" viewBox="0 0 16 16"><path d="M4.97 9.75a.5.5 0 1 0-.87.5A4.5 4.5 0 0 0 8 12.5a4.5 4.5 0 0 0 3.9-2.25.5.5 0 1 0-.87-.5A3.5 3.5 0 0 1 8 11.5a3.5 3.5 0 0 1-3.03-1.75zM7 5.12V5a1 1 0 0 0-1-1H3.28a1 1 0 0 0-.97 1.24l.31 1.25A2 2 0 0 0 4.56 8H5a2 2 0 0 0 2-1.84A2.99 2.99 0 0 1 8 6c.4 0 .74.06 1 .16A2 2 0 0 0 11 8h.44a2 2 0 0 0 1.94-1.51l.3-1.25A1 1 0 0 0 12.73 4H10a1 1 0 0 0-1 1v.12A4.22 4.22 0 0 0 8 5c-.35 0-.69.04-1 .12z"/><path d="M16 8A8 8 0 1 1 0 8a8 8 0 0 1 16 0zm-1 0A7 7 0 1 0 1 8a7 7 0 0 0 14 0z"/></svg>