<svg xmlns="http://www.w3.org/2000/svg" width="16" height="16" viewBox="0 0 16 16" id="icon"><path d="M8 16A8 8 0 1 0 8 0a8 8 0 0 0 0 16M2.31 5.24A1 1 0 0 1 3.28 4H6a1 1 0 0 1 1 1v.12A4 4 0 0 1 8 5q.53 0 1 .12V5a1 1 0 0 1 1-1h2.72a1 1 0 0 1 .97 1.24l-.31 1.25A2 2 0 0 1 11.44 8H11a2 2 0 0 1-2-1.84A3 3 0 0 0 8 6q-.6 0-1 .16A2 2 0 0 1 5 8h-.44a2 2 0 0 1-1.94-1.51zm2.66 4.51A3.5 3.5 0 0 0 8 11.5a3.5 3.5 0 0 0 3.03-1.75.5.5 0 1 1 .87.5A4.5 4.5 0 0 1 8 12.5a4.5 4.5 0 0 1-3.9-2.25.5.5 0 0 1 .87-.5"/></svg>