<svg xmlns="http://www.w3.org/2000/svg" viewBox="0 0 16 16"><path d="M8 15A7 7 0 1 1 8 1a7 7 0 0 1 0 14zm0 1A8 8 0 1 0 8 0a8 8 0 0 0 0 16z"/><path d="M4.29 12.43a.5.5 0 0 0 .68-.18A3.5 3.5 0 0 1 8 10.5c1.3 0 2.43.7 3.03 1.75a.5.5 0 0 0 .87-.5A4.5 4.5 0 0 0 8 9.5a4.5 4.5 0 0 0-3.9 2.25.5.5 0 0 0 .19.68zm6.99-8.38a.5.5 0 1 1 .44.9l-1 .5A2 2 0 0 1 11 6.5c0 .83-.45 1.5-1 1.5s-1-.67-1-1.5c0-.25.04-.48.11-.69a.5.5 0 0 1 .17-.76l2-1zm-6.56 0a.5.5 0 0 0-.44.9l1 .5A1.94 1.94 0 0 0 5 6.5C5 7.33 5.45 8 6 8s1-.67 1-1.5c0-.25-.04-.48-.11-.69a.5.5 0 0 0-.17-.76l-2-1z"/></svg>