<svg xmlns="http://www.w3.org/2000/svg" width="16" height="16" viewBox="0 0 16 16"><path d="M12.95 11.4A6 6 0 0 1 2.1 9.14c-.12-.6.42-1.07 1.03-1C4.4 8.3 6.48 8.5 8 8.5s3.6-.21 4.86-.36c.6-.07 1.15.4 1.03 1a6 6 0 0 1-.94 2.26m-.08-2.25c-1.28.14-3.33.35-4.87.35s-3.59-.2-4.87-.35q.17.7.52 1.31a37 37 0 0 0 4.35.29 37 37 0 0 0 4.35-.28q.34-.62.52-1.32m-1.36 2.41c-1.02.1-2.26.19-3.51.19s-2.49-.09-3.5-.19A5 5 0 0 0 8 13a5 5 0 0 0 3.5-1.44M6.49 7q.17-.45.18-1c0-1.1-.6-2-1.34-2C4.6 4 4 4.9 4 6q0 .55.18 1c.23-.6.66-1 1.15-1 .5 0 .93.4 1.16 1M12 6q0 .55-.18 1c-.23-.6-.66-1-1.15-1-.5 0-.93.4-1.16 1a3 3 0 0 1-.18-1c0-1.1.6-2 1.34-2C11.4 4 12 4.9 12 6"/><path d="M8 16A8 8 0 1 0 8 0a8 8 0 0 0 0 16m0-1A7 7 0 1 1 8 1a7 7 0 0 1 0 14"/></svg>