<svg xmlns="http://www.w3.org/2000/svg" viewBox="0 0 16 16"><path fill-rule="evenodd" d="M16 8a8 8 0 1 0-2.7 5.99 5.85 5.85 0 0 1-1.99-2.06 2.41 2.41 0 0 1-.07-2.23A2.24 2.24 0 0 1 14 8.65a2.2 2.2 0 0 1 1.96.19c.03-.28.04-.56.04-.84ZM7 6.5C7 7.33 6.55 8 6 8s-1-.67-1-1.5S5.45 5 6 5s1 .67 1 1.5Zm1.51 3.65c-.34.08-.73.2-1.1.32a.5.5 0 1 1-.31-.95c.38-.13.8-.26 1.19-.35.37-.08.78-.15 1.1-.1.16.02.4.08.56.28.19.23.19.5.13.7a1.9 1.9 0 0 1-.3.6l-.28.34c.1.13.2.24.27.35.15.2.26.4.31.6.06.2.06.47-.13.7-.17.2-.4.26-.56.28-.33.05-.74-.02-1.1-.1a14.87 14.87 0 0 1-1.2-.35.5.5 0 1 1 .31-.95 14.3 14.3 0 0 0 1.56.4 5.6 5.6 0 0 0-.5-.58.5.5 0 0 1 0-.7 5.52 5.52 0 0 0 .5-.57 4.46 4.46 0 0 0-.45.08Zm.77-.09Zm0 1.87Zm.16-4.69a.5.5 0 0 1-.88-.48 1.93 1.93 0 0 1 1.69-1.01c.73 0 1.36.41 1.69 1a.5.5 0 1 1-.88.5.93.93 0 0 0-.81-.5.93.93 0 0 0-.81.5ZM14 9.83c1.11-1.14 3.88.85 0 3.42-3.88-2.57-1.11-4.56 0-3.42Z"/></svg>