<svg xmlns="http://www.w3.org/2000/svg" width="16" height="16" viewBox="0 0 16 16" id="icon"><path fill-rule="evenodd" d="M16 8a8 8 0 1 0-2.7 5.99 6 6 0 0 1-1.99-2.06 2.4 2.4 0 0 1-.07-2.23A2.24 2.24 0 0 1 14 8.65a2.2 2.2 0 0 1 1.96.19Q16 8.43 16 8M7 6.5C7 7.33 6.55 8 6 8s-1-.67-1-1.5S5.45 5 6 5s1 .67 1 1.5m1.51 3.65q-.53.13-1.1.32a.5.5 0 1 1-.31-.95q.59-.2 1.19-.35c.37-.08.78-.15 1.1-.1.16.02.4.08.56.28.19.23.19.5.13.7a2 2 0 0 1-.3.6l-.28.34q.16.19.27.35.23.3.31.6c.06.2.06.47-.13.7-.17.2-.4.26-.56.28-.33.05-.74-.02-1.1-.1a15 15 0 0 1-1.2-.35.5.5 0 1 1 .31-.95q.58.19 1.11.32.27.06.45.08a6 6 0 0 0-.5-.58.5.5 0 0 1 0-.7 6 6 0 0 0 .5-.57zm.93-2.91a.5.5 0 0 1-.88-.48 1.9 1.9 0 0 1 1.69-1.01c.73 0 1.36.41 1.69 1a.5.5 0 1 1-.88.5.9.9 0 0 0-.81-.5.9.9 0 0 0-.81.5M14 9.82c1.11-1.14 3.88.85 0 3.42-3.88-2.57-1.11-4.56 0-3.42"/></svg>