<svg xmlns="http://www.w3.org/2000/svg" width="16" height="16" viewBox="0 0 16 16" id="icon"><path fill-rule="evenodd" d="M12.5 13.37a7 7 0 1 1 2.48-4.86q.53.05.98.33a8 8 0 1 0-2.66 5.15 9 9 0 0 1-.8-.62m-3.74-3.22a13 13 0 0 0-1.1.32.5.5 0 1 1-.32-.95q.59-.2 1.2-.35c.37-.08.78-.15 1.1-.1.16.02.4.08.56.28.19.23.19.5.13.7a2 2 0 0 1-.3.6l-.28.34q.16.19.27.35.22.3.31.6c.06.2.06.47-.13.7-.17.2-.4.26-.56.28-.33.05-.74-.02-1.1-.1a15 15 0 0 1-1.2-.35.5.5 0 1 1 .31-.95q.59.19 1.11.32.27.06.45.08a6 6 0 0 0-.5-.58.5.5 0 0 1 0-.7 6 6 0 0 0 .5-.57zM6 8c.55 0 1-.67 1-1.5S6.55 5 6 5s-1 .67-1 1.5S5.45 8 6 8m2.76-.56a.5.5 0 0 0 .68-.2.9.9 0 0 1 .81-.49c.34 0 .65.19.81.5a.5.5 0 0 0 .88-.5 1.9 1.9 0 0 0-1.69-1c-.73 0-1.36.41-1.69 1a.5.5 0 0 0 .2.69M14 9.83c1.11-1.14 3.88.85 0 3.42-3.88-2.57-1.11-4.56 0-3.42"/></svg>