<svg xmlns="http://www.w3.org/2000/svg" width="16" height="16" viewBox="0 0 16 16"><path d="M16 8A8 8 0 1 1 0 8a8 8 0 0 1 16 0M7 6.25C7 5.56 6.55 5 6 5s-1 .56-1 1.25.45 1.25 1 1.25 1-.56 1-1.25m3 1.25c.55 0 1-.56 1-1.25S10.55 5 10 5s-1 .56-1 1.25.45 1.25 1 1.25m1.5 4.5a1.5 1.5 0 0 0 1.48-1.25 2 2 0 0 0 0-.5A1.5 1.5 0 0 0 11.5 9h-7a1.5 1.5 0 0 0-1.48 1.25 2 2 0 0 0 0 .5A1.5 1.5 0 0 0 4.5 12zm-7.97-1.25a1 1 0 0 0 .97.75h.25v-.75zm8.94 0a1 1 0 0 1-.97.75h-.25v-.75zM11.5 9.5a1 1 0 0 1 .97.75h-1.22V9.5zm-7.97.75a1 1 0 0 1 .97-.75h.25v.75zm1.72 1.25h1v-.75h-1zm2.5 0h-1v-.75h1zm1.5 0h-1v-.75h1zm1.5 0h-1v-.75h1zm-1-2h1v.75h-1zm-1.5 0h1v.75h-1zm-1.5 0h1v.75h-1zm-1.5 0h1v.75h-1z"/></svg>