<svg xmlns="http://www.w3.org/2000/svg" width="16" height="16" viewBox="0 0 16 16"><path d="M8 16A8 8 0 1 0 8 0a8 8 0 0 0 0 16M4.05 4.28a.5.5 0 0 1 .67-.23l2 1a.5.5 0 0 1 .17.76q.1.3.11.69C7 7.33 6.55 8 6 8s-1-.67-1-1.5c0-.4.1-.78.28-1.05l-1-.5a.5.5 0 0 1-.23-.67m.24 8.15a.5.5 0 0 1-.19-.68A4.5 4.5 0 0 1 8 9.5a4.5 4.5 0 0 1 3.9 2.25.5.5 0 1 1-.87.5A3.5 3.5 0 0 0 8 10.5a3.5 3.5 0 0 0-3.03 1.75.5.5 0 0 1-.68.18M10 8c-.55 0-1-.67-1-1.5q0-.37.11-.69a.5.5 0 0 1 .17-.76l2-1a.5.5 0 1 1 .44.9l-1 .5q.27.42.28 1.05c0 .83-.45 1.5-1 1.5"/></svg>