<svg xmlns="http://www.w3.org/2000/svg" width="16" height="16" viewBox="0 0 16 16" id="icon"><path d="M16 8A8 8 0 1 1 0 8a8 8 0 0 1 16 0m-4.88-3.98a2 2 0 0 1 .53.33.5.5 0 0 0 .7-.7l-.23-.2a3 3 0 0 0-.61-.35 3 3 0 0 0-2.17-.07.5.5 0 1 0 .32.94 2 2 0 0 1 1.46.05m-4.78-.05a.5.5 0 0 0 .32-.94 3 3 0 0 0-2.17.07 3 3 0 0 0-.77.48l-.07.06a.5.5 0 1 0 .72.7 2 2 0 0 1 .51-.32 2 2 0 0 1 1.46-.05M7 6.5C7 5.67 6.55 5 6 5s-1 .67-1 1.5S5.45 8 6 8s1-.67 1-1.5m4 0c0-.83-.45-1.5-1-1.5s-1 .67-1 1.5S9.45 8 10 8s1-.67 1-1.5m-5.25 4.75c-.38.47.08 1.06.69.98q1.56-.2 3.12 0c.6.08 1.07-.5.69-.98C9.75 10.62 9 10 8 10s-1.75.62-2.25 1.25"/></svg>