<svg xmlns="http://www.w3.org/2000/svg" width="16" height="16" viewBox="0 0 16 16" id="icon"><path d="M8 16A8 8 0 1 0 8 0a8 8 0 0 0 0 16M6.49 7c-.23-.6-.66-1-1.16-1s-.92.4-1.15 1A3 3 0 0 1 4 6c0-1.1.6-2 1.33-2s1.34.9 1.34 2q0 .55-.18 1m5.33 0c-.23-.6-.66-1-1.15-1-.5 0-.93.4-1.16 1a3 3 0 0 1-.18-1c0-1.1.6-2 1.34-2C11.4 4 12 4.9 12 6q0 .55-.18 1M2.7 8.76a.5.5 0 0 1 .38-.12C4.35 8.79 6.45 9 8 9s3.65-.21 4.92-.36a.5.5 0 0 1 .39.12.3.3 0 0 1 .1.29q-.15.7-.45 1.34l-.93.11a37 37 0 0 1-4.03.25 37 37 0 0 1-4.96-.36 6 6 0 0 1-.44-1.35.3.3 0 0 1 .1-.28M8 13.5a5.5 5.5 0 0 1-4.26-2.02l.12.02c1.12.12 2.62.25 4.14.25s3.03-.13 4.14-.25l.12-.02A5.5 5.5 0 0 1 8 13.5"/></svg>