<svg xmlns="http://www.w3.org/2000/svg" viewBox="0 0 16 16"><path fill-rule="evenodd" d="M12.5 13.37a7 7 0 1 1 2.48-4.86c.35.03.68.15.98.33a8 8 0 1 0-2.66 5.15 8.58 8.58 0 0 1-.8-.62Zm-3.74-3.22a13 13 0 0 0-1.1.32.5.5 0 1 1-.31-.95c.38-.13.8-.26 1.19-.35.37-.08.78-.15 1.1-.1.16.02.4.08.56.28.19.23.19.5.13.7a1.9 1.9 0 0 1-.3.6l-.28.34c.1.13.2.24.27.35.15.2.26.4.31.6.06.2.06.47-.13.7-.17.2-.4.26-.56.28-.33.05-.74-.02-1.1-.1a14.87 14.87 0 0 1-1.2-.35.5.5 0 1 1 .31-.95 14.3 14.3 0 0 0 1.56.4 5.6 5.6 0 0 0-.5-.58.5.5 0 0 1 0-.7 5.52 5.52 0 0 0 .5-.58 4.46 4.46 0 0 0-.45.09Zm.77-.09Zm0 1.87ZM6 8c.55 0 1-.67 1-1.5S6.55 5 6 5s-1 .67-1 1.5S5.45 8 6 8Zm2.76-.56a.5.5 0 0 0 .68-.2.93.93 0 0 1 .81-.49c.34 0 .65.19.81.5a.5.5 0 0 0 .88-.5 1.93 1.93 0 0 0-1.69-1c-.73 0-1.36.41-1.69 1a.5.5 0 0 0 .2.69ZM14 9.83c1.11-1.14 3.88.85 0 3.42-3.88-2.57-1.11-4.56 0-3.42Z"/></svg>