<svg xmlns="http://www.w3.org/2000/svg" width="16" height="16" viewBox="0 0 16 16" id="icon"><path d="M16 8A8 8 0 1 1 0 8a8 8 0 0 1 16 0M9.5 3.5a.5.5 0 0 0 .5.5c.84 0 1.65.42 2.05 1.22a.5.5 0 1 0 .9-.44A3.3 3.3 0 0 0 10 3a.5.5 0 0 0-.5.5M7 6.5C7 5.67 6.55 5 6 5s-1 .67-1 1.5S5.45 8 6 8s1-.67 1-1.5M4.5 13c.83 0 1.5-.75 1.5-1.67 0-.7-.88-2.29-1.3-2.99a.24.24 0 0 0-.4 0c-.42.7-1.3 2.29-1.3 3 0 .91.67 1.66 1.5 1.66M8 11.2c.92 0 1.6.4 2.25.82.21.14.42-.07.28-.27C9.97 10.92 8.97 9.7 8 9.7c-.53 0-1.07.36-1.54.82l.24.54.13.37A3 3 0 0 1 8 11.2M10 8c.55 0 1-.67 1-1.5S10.55 5 10 5s-1 .67-1 1.5S9.45 8 10 8M6.5 3c-1.16 0-2.35.58-2.95 1.78a.5.5 0 1 0 .9.44C4.85 4.42 5.66 4 6.5 4a.5.5 0 0 0 0-1"/></svg>