<svg xmlns="http://www.w3.org/2000/svg" width="16" height="16" viewBox="0 0 16 16"><path d="M7 6.25c0 .69-.45 1.25-1 1.25s-1-.56-1-1.25S5.45 5 6 5s1 .56 1 1.25m3 1.25c.55 0 1-.56 1-1.25S10.55 5 10 5s-1 .56-1 1.25.45 1.25 1 1.25m2.98 3.25A1.5 1.5 0 0 1 11.5 12h-7a1.5 1.5 0 0 1-1.48-1.75A1.5 1.5 0 0 1 4.5 9h7a1.5 1.5 0 0 1 1.48 1.75m-8.48.75h.25v-.75H3.53a1 1 0 0 0 .97.75m7 0a1 1 0 0 0 .97-.75h-1.22v.75zm.97-1.25a1 1 0 0 0-.97-.75h-.25v.75zM4.5 9.5a1 1 0 0 0-.97.75h1.22V9.5zm1.75 2v-.75h-1v.75zm.5 0h1v-.75h-1zm1.5 0h1v-.75h-1zm1.5 0h1v-.75h-1zm1-2h-1v.75h1zm-1.5 0h-1v.75h1zm-1.5 0h-1v.75h1zm-1.5 0h-1v.75h1z"/><path d="M8 16A8 8 0 1 0 8 0a8 8 0 0 0 0 16m0-1A7 7 0 1 1 8 1a7 7 0 0 1 0 14"/></svg>