<svg xmlns="http://www.w3.org/2000/svg" width="16" height="16" viewBox="0 0 16 16" id="icon"><path d="M8 15A7 7 0 1 1 8 1a7 7 0 0 1 0 14m0 1A8 8 0 1 0 8 0a8 8 0 0 0 0 16"/><path d="M6.83 11.43A3 3 0 0 1 8 11.2c.92 0 1.6.4 2.25.82.21.14.42-.07.28-.27C9.97 10.92 8.97 9.7 8 9.7c-.53 0-1.07.36-1.54.82l.24.54zm-.83-.1C6 12.25 5.33 13 4.5 13S3 12.25 3 11.33c0-.7.88-2.29 1.3-2.99a.24.24 0 0 1 .4 0c.42.7 1.3 2.29 1.3 3M7 6.5C7 7.33 6.55 8 6 8s-1-.67-1-1.5S5.45 5 6 5s1 .67 1 1.5m4 0c0 .83-.45 1.5-1 1.5s-1-.67-1-1.5S9.45 5 10 5s1 .67 1 1.5m-1.5-3A.5.5 0 0 1 10 3c1.16 0 2.35.58 2.95 1.78a.5.5 0 1 1-.9.44A2.3 2.3 0 0 0 10 4a.5.5 0 0 1-.5-.5M7 3.5a.5.5 0 0 0-.5-.5c-1.16 0-2.35.58-2.95 1.78a.5.5 0 1 0 .9.44C4.85 4.42 5.66 4 6.5 4a.5.5 0 0 0 .5-.5"/></svg>