<svg xmlns="http://www.w3.org/2000/svg" viewBox="0 0 16 16"><path d="M.05 3.56A2 2 0 0 1 2 2h12a2 2 0 0 1 1.95 1.55l-4.2 2.57a2.79 2.79 0 0 0-.05-.1A2.84 2.84 0 0 0 8 4.77a2.84 2.84 0 0 0-3.7 1.25l-.05.1-4.2-2.56ZM11.58 8.9a4.7 4.7 0 0 1-.07.14L16 11.8V4.7l-4 2.44c.02.57-.11 1.17-.42 1.77Zm-4.13 3.05a10.47 10.47 0 0 1-2.4-2.08L.2 12.86A2 2 0 0 0 2 14h12a2 2 0 0 0 1.8-1.14l-4.85-2.98c-.56.69-1.35 1.39-2.4 2.08l-.55.36-.55-.36ZM4.42 8.91c-.31-.6-.44-1.2-.42-1.77L0 4.7v7.1l4.49-2.75a4.74 4.74 0 0 1-.07-.14Z"/><path d="M8 6c1.66-1.72 5.83 1.28 0 5.13-5.83-3.86-1.66-6.85 0-5.14Z"/></svg>