<svg xmlns="http://www.w3.org/2000/svg" width="16" height="16" viewBox="0 0 16 16"><path d="M8.94.44a2 2 0 0 0-1.88 0l-6 3.2A2 2 0 0 0 0 5.4v.31L4.22 8.2l.08-.17A2.83 2.83 0 0 1 8 6.77a2.84 2.84 0 0 1 3.7 1.25l.08.17L16 5.7v-.3a2 2 0 0 0-1.06-1.76zM0 6.86l4 2.35q-.02.81.42 1.7L0 13.37zm.06 7.61 4.9-2.72q.83 1.1 2.49 2.2l.55.36.55-.36q1.65-1.1 2.5-2.2l4.9 2.72A2 2 0 0 1 14 16H2a2 2 0 0 1-1.94-1.52M16 13.38l-4.42-2.46q.44-.89.42-1.7l4-2.35z"/><path d="M8 8c1.66-1.72 5.83 1.28 0 5.13-5.82-3.86-1.66-6.85 0-5.14"/></svg>