<svg xmlns="http://www.w3.org/2000/svg" width="16" height="16" viewBox="0 0 16 16" id="icon"><path d="M.05 3.56A2 2 0 0 1 2 2h12a2 2 0 0 1 1.95 1.56L8 8.4zM0 4.7v7.1l5.8-3.56zm6.76 4.13L.2 12.86A2 2 0 0 0 2 14h6.26A5 5 0 0 1 8 12.5a4.5 4.5 0 0 1 1.6-3.45l-.36-.22L8 9.59zM16 4.7v4.97A4.5 4.5 0 0 0 12.5 8a4.5 4.5 0 0 0-1.96.45l-.34-.2z"/><path d="M14.98 10.03a3.5 3.5 0 1 0-4.96 4.95 3.5 3.5 0 0 0 4.95-4.95m-4.24.7a2.5 2.5 0 0 1 3.15-.32l-3.47 3.47a2.5 2.5 0 0 1 .32-3.15m.4 3.86 3.46-3.47a2.5 2.5 0 0 1-3.47 3.47"/></svg>