<svg xmlns="http://www.w3.org/2000/svg" width="16" height="16" viewBox="0 0 16 16" id="icon"><path fill-rule="evenodd" d="M8.47 1.32a1 1 0 0 0-.94 0l-6 3.2A1 1 0 0 0 1 5.4v.82l3.24 1.94A3 3 0 0 0 4 9.18l-3-1.8v5.74l3.48-2.09q.22.41.56.83l-4 2.4A1 1 0 0 0 2 15h12a1 1 0 0 0 .97-.74l-4-2.4q.33-.42.55-.83L15 13.12V7.38l-3 1.8a3 3 0 0 0-.23-1.02L15 6.22V5.4a1 1 0 0 0-.53-.88zM7.06.44a2 2 0 0 1 1.88 0l6 3.2A2 2 0 0 1 16 5.4V14a2 2 0 0 1-2 2H2a2 2 0 0 1-2-2V5.4a2 2 0 0 1 1.06-1.76zM8 7.99c1.66-1.7 5.83 1.29 0 5.14-5.82-3.86-1.66-6.85 0-5.14"/></svg>