<svg xmlns="http://www.w3.org/2000/svg" viewBox="0 0 16 16"><path d="M.05 3.56A2 2 0 0 1 2 2h12a2 2 0 0 1 1.95 1.55L8 8.41.05 3.55ZM0 4.7v7.1l5.8-3.56L0 4.7Zm6.76 4.13L.2 12.86A2 2 0 0 0 2 14h6.26A4.5 4.5 0 0 1 8 12.5a4.49 4.49 0 0 1 1.6-3.45l-.36-.22L8 9.59l-1.24-.76ZM16 4.7v4.97A4.5 4.5 0 0 0 12.5 8a4.49 4.49 0 0 0-1.97.45l-.33-.2L16 4.7Z"/><path d="M16 12.5a3.5 3.5 0 1 1-7 0 3.5 3.5 0 0 1 7 0Zm-4.85-1.35a.5.5 0 0 0 0 .7l.64.65-.64.65a.5.5 0 0 0 .7.7l.65-.64.65.64a.5.5 0 0 0 .7-.7l-.64-.65.64-.65a.5.5 0 0 0-.7-.7l-.65.64-.65-.64a.5.5 0 0 0-.7 0Z"/></svg>