<svg xmlns="http://www.w3.org/2000/svg" width="16" height="16" viewBox="0 0 16 16"><path d="M.05 3.56A2 2 0 0 1 2 2h12a2 2 0 0 1 1.95 1.56L8 8.4zM0 4.7v7.1l5.8-3.56zm6.76 4.13L.2 12.86A2 2 0 0 0 2 14h6.26A5 5 0 0 1 8 12.5a4.5 4.5 0 0 1 1.6-3.45l-.36-.22L8 9.59zM16 4.7v4.97A4.5 4.5 0 0 0 12.5 8a4.5 4.5 0 0 0-1.96.45l-.34-.2z"/><path d="M16 12.5a3.5 3.5 0 1 1-7 0 3.5 3.5 0 0 1 7 0m-2-1.68a.5.5 0 0 0-.68.17l-1.17 1.95-.55-.54a.5.5 0 0 0-.7.7l.77.78a.75.75 0 0 0 1.17-.15l1.34-2.22a.5.5 0 0 0-.17-.69"/></svg>