<svg xmlns="http://www.w3.org/2000/svg" width="16" height="16" viewBox="0 0 16 16"><path fill-rule="evenodd" d="M2 2a2 2 0 0 1 2-2h8a2 2 0 0 1 2 2v1.13l.94.5A2 2 0 0 1 16 5.4V14a2 2 0 0 1-2 2H2a2 2 0 0 1-2-2V5.4a2 2 0 0 1 1.06-1.76l.94-.5zm0 2.27-.47.25A1 1 0 0 0 1 5.4v.82l1 .6zm1 3.15 3.75 2.25L8 8.92l1.25.75L13 7.42V2a1 1 0 0 0-1-1H4a1 1 0 0 0-1 1zm11-.6 1-.6V5.4a1 1 0 0 0-.53-.88L14 4.27zM8 2.98C9.66 1.31 13.82 4.24 8 8 2.18 4.24 6.34 1.31 8 2.98m7 4.4-4.78 2.87L15 13.12zm-.04 6.88L8 10.08l-6.96 4.18A1 1 0 0 0 2 15h12a1 1 0 0 0 .97-.74M1 13.12l4.78-2.87L1 7.38z"/></svg>