<svg xmlns="http://www.w3.org/2000/svg" width="16" height="16" viewBox="0 0 16 16" id="icon"><path d="M0 4a2 2 0 0 1 2-2h12a2 2 0 0 1 2 2v4.5a.5.5 0 0 1-1 0V5.38l-7 4.2-1.33-.8-5.64 3.48A1 1 0 0 0 2 13h5.5a.5.5 0 0 1 0 1H2a2 2 0 0 1-2-1.99zm1 7.1 4.7-2.9L1 5.39zM1 4v.22l7 4.2 7-4.2V4a1 1 0 0 0-1-1H2a1 1 0 0 0-1 1"/><path d="M12.5 16a3.5 3.5 0 1 0 0-7 3.5 3.5 0 0 0 0 7m.35-5.35 1.25 1.25a.5.5 0 0 1-.7.7l-.4-.4V14a.5.5 0 0 1-1 0v-1.72l-.28.3a.5.5 0 0 1-.74-.67l1.15-1.25a.5.5 0 0 1 .72-.01"/></svg>