<svg xmlns="http://www.w3.org/2000/svg" width="16" height="16" viewBox="0 0 16 16"><path d="M2 2a2 2 0 0 0-2 2v8.01A2 2 0 0 0 2 14h5.5a.5.5 0 0 0 0-1H2a1 1 0 0 1-.97-.74l5.64-3.47 1.33.8 7-4.2V8.5a.5.5 0 0 0 1 0V4a2 2 0 0 0-2-2zm3.7 6.2L1 11.1V5.39zM1 4.23V4a1 1 0 0 1 1-1h12a1 1 0 0 1 1 1v.22l-7 4.2z"/><path d="M16 12.5a3.5 3.5 0 1 1-7 0 3.5 3.5 0 0 1 7 0m-4.85-1.35a.5.5 0 0 0 0 .7l.64.65-.64.65a.5.5 0 0 0 .7.7l.65-.64.65.64a.5.5 0 0 0 .7-.7l-.64-.65.64-.65a.5.5 0 0 0-.7-.7l-.65.64-.65-.64a.5.5 0 0 0-.7 0"/></svg>