<svg xmlns="http://www.w3.org/2000/svg" width="16" height="16" viewBox="0 0 16 16"><path d="M.05 3.56A2 2 0 0 1 2 2h12a2 2 0 0 1 1.95 1.56L8 8.4zM0 4.7v7.1l5.8-3.56zm.2 8.16 6.56-4.03L8 9.59l1.24-.76.37.22A4.5 4.5 0 0 0 8 12.5q0 .8.26 1.5H2a2 2 0 0 1-1.8-1.14M16 4.7v4.97A4.5 4.5 0 0 0 12.5 8a4.5 4.5 0 0 0-1.96.45l-.34-.2z"/><path d="M12.5 16a3.5 3.5 0 1 0 0-7 3.5 3.5 0 0 0 0 7m.35-5.35 1.25 1.25a.5.5 0 0 1-.7.7l-.4-.4V14a.5.5 0 0 1-1 0v-1.72l-.28.3a.5.5 0 0 1-.74-.67l1.15-1.25a.5.5 0 0 1 .72-.01"/></svg>