<svg xmlns="http://www.w3.org/2000/svg" viewBox="0 0 16 16"><path fill-rule="evenodd" d="M8.47 1.32a1 1 0 0 0-.94 0l-6 3.2A1 1 0 0 0 1 5.4v.82l3.23 1.94A2.76 2.76 0 0 0 4 9.18l-3-1.8v5.74l3.48-2.09c.15.28.33.55.56.83l-4 2.4A1 1 0 0 0 2 15h12a1 1 0 0 0 .96-.74l-4-2.4c.23-.28.41-.55.56-.83L15 13.12V7.38l-3 1.8a2.76 2.76 0 0 0-.23-1.02L15 6.22V5.4a1 1 0 0 0-.53-.88l-6-3.2ZM7.06.43a2 2 0 0 1 1.88 0l6 3.2A2 2 0 0 1 16 5.4V14a2 2 0 0 1-2 2H2a2 2 0 0 1-2-2V5.4a2 2 0 0 1 1.06-1.76l6-3.2ZM8 8c1.66-1.7 5.83 1.29 0 5.13C2.17 9.29 6.34 6.29 8 8Z"/></svg>