<svg viewBox="0 0 16 16"><path d="M2 2a2 2 0 0 0-2 2v8.01A2 2 0 0 0 2 14h5.5a.5.5 0 0 0 0-1H2a1 1 0 0 1-.97-.74l5.64-3.47 1.33.8 7-4.2V8.5a.5.5 0 0 0 1 0V4a2 2 0 0 0-2-2H2Zm3.7 6.2L1 11.1V5.39l4.7 2.83ZM1 4.23V4a1 1 0 0 1 1-1h12a1 1 0 0 1 1 1v.22l-7 4.2-7-4.2Z"/><path d="M14.25 14.27c1 0 1.58-.86 1.58-2.03v-.2c0-1.61-1.19-3.04-3.31-3.04h-.04C10.42 9 9 10.36 9 12.43v.22C9 14.82 10.44 16 12.36 16h.04c.6 0 1.02-.07 1.24-.17v-.74c-.25.11-.67.18-1.18.18h-.04c-1.34 0-2.58-.78-2.58-2.65v-.16c0-1.65 1.06-2.72 2.64-2.72h.04c1.54 0 2.49 1.05 2.49 2.32v.12c0 .98-.33 1.4-.64 1.4-.23 0-.41-.15-.41-.43v-2.19h-.9v.57h-.04c-.08-.3-.36-.63-.95-.63-.78 0-1.26.56-1.26 1.4v.53c0 .9.49 1.43 1.26 1.43.47 0 .9-.22 1.01-.64h.05c.11.42.61.65 1.12.65Zm-2.46-1.59v-.23c0-.54.23-.79.58-.79.3 0 .57.2.57.71v.37c0 .57-.25.74-.56.74-.36 0-.59-.21-.59-.8Z"/></svg>