<svg xmlns="http://www.w3.org/2000/svg" width="16" height="16" viewBox="0 0 16 16" id="icon"><path d="M2 2A2 2 0 0 0 .05 3.56L8 8.4l7.95-4.86A2 2 0 0 0 14 2zm-2 9.8V4.7l5.8 3.54zm6.76-2.97L.2 12.86A2 2 0 0 0 2 14h6.26A5 5 0 0 1 8 12.5a4.5 4.5 0 0 1 1.6-3.45l-.36-.22L8 9.59zm9.24.84V4.7l-5.8 3.54.33.21A4.5 4.5 0 0 1 12.5 8 4.5 4.5 0 0 1 16 9.67"/><path d="M15.83 12.24c0 1.17-.57 2.03-1.58 2.03-.5 0-1-.23-1.12-.65h-.05c-.11.42-.54.64-1.01.64-.77 0-1.26-.54-1.26-1.43v-.53c0-.84.48-1.4 1.26-1.4.58 0 .87.33.95.63h.03v-.57h.9v2.2c0 .27.19.41.42.41.31 0 .64-.41.64-1.39v-.11c0-1.28-.95-2.33-2.49-2.33h-.04c-1.58 0-2.64 1.07-2.64 2.72v.16c0 1.87 1.24 2.65 2.57 2.65h.05c.5 0 .93-.07 1.18-.18v.74q-.34.16-1.24.17h-.04C10.44 16 9 14.82 9 12.65v-.22C9 10.36 10.42 9 12.48 9h.04c2.12 0 3.31 1.43 3.31 3.03zm-4.04.21v.23c0 .59.23.8.59.8.3 0 .56-.17.56-.74v-.37c0-.51-.28-.7-.57-.7-.35 0-.58.24-.58.78"/></svg>