<svg xmlns="http://www.w3.org/2000/svg" width="16" height="16" viewBox="0 0 16 16" id="icon"><path d="M.05 3.56A2 2 0 0 1 2 2h12a2 2 0 0 1 1.95 1.56l-4.2 2.56-.05-.1A2.84 2.84 0 0 0 8 4.77a2.84 2.84 0 0 0-3.7 1.25l-.05.1zM11.58 8.9l-.07.14L16 11.8V4.7l-4 2.44q.04.86-.42 1.77m-4.13 3.05a11 11 0 0 1-2.4-2.08L.2 12.86A2 2 0 0 0 2 14h12a2 2 0 0 0 1.8-1.14l-4.85-2.98q-.83 1.04-2.4 2.08l-.55.36zM4.42 8.91q-.46-.9-.42-1.77L0 4.7v7.1l4.49-2.75z"/><path d="M8 6c1.66-1.72 5.83 1.28 0 5.13-5.82-3.86-1.66-6.85 0-5.14"/></svg>