<svg viewBox="0 0 16 16"><path d="M9.35 4.24a.19.19 0 0 0-.08-.21.19.19 0 0 0-.23.03L6.05 7.25a.19.19 0 0 0 .14.31h1.24l-.67 2.2a.19.19 0 0 0 .08.21c.08.05.17.03.23-.03l2.88-3.19a.19.19 0 0 0-.14-.31H8.57l.78-2.2Z"/><path d="M4.82 2a2.5 2.5 0 0 0-2.3 1.52l-.8 1.84a.8.8 0 0 1-.37.4c-.5.26-.86.72-.97 1.27L.05 8.7a2.5 2.5 0 0 0-.05.5v.41c0 .82.4 1.54 1 2v1.89a.5.5 0 0 0 .5.5h2a.5.5 0 0 0 .5-.5v-1.34c1.3.05 2.75.09 4 .09s2.7-.04 4-.09v1.34a.5.5 0 0 0 .5.5h2a.5.5 0 0 0 .5-.5v-1.9c.61-.45 1-1.17 1-1.99V9.2c0-.17-.02-.33-.05-.5l-.33-1.67a1.8 1.8 0 0 0-.97-1.26.8.8 0 0 1-.38-.4l-.79-1.85A2.5 2.5 0 0 0 11.18 2H4.82ZM3.44 3.91A1.5 1.5 0 0 1 4.82 3h6.36a1.5 1.5 0 0 1 1.38.91l.8 1.85a1.8 1.8 0 0 0 .85.9c.22.11.38.32.43.56l.33 1.68.03.3v.41a1.48 1.48 0 0 1-1.4 1.49c-1.56.07-3.8.15-5.6.15-1.8 0-4.04-.08-5.6-.15A1.48 1.48 0 0 1 1 9.6v-.4l.03-.3.34-1.68a.8.8 0 0 1 .42-.56c.39-.19.69-.51.86-.9l.79-1.85Z"/></svg>