<svg xmlns="http://www.w3.org/2000/svg" width="16" height="16" viewBox="0 0 16 16"><path d="M9.35 4.24a.2.2 0 0 0-.08-.21.2.2 0 0 0-.23.03L6.05 7.25a.19.19 0 0 0 .14.31h1.24l-.67 2.2a.2.2 0 0 0 .08.21q.13.07.23-.03l2.88-3.19a.19.19 0 0 0-.14-.31H8.57z"/><path d="M4.82 2a2.5 2.5 0 0 0-2.3 1.52l-.8 1.84a1 1 0 0 1-.37.4c-.5.26-.86.72-.97 1.27L.05 8.7a3 3 0 0 0-.05.5v.41c0 .82.4 1.54 1 2v1.89a.5.5 0 0 0 .5.5h2a.5.5 0 0 0 .5-.5v-1.34c1.3.05 2.75.09 4 .09s2.7-.04 4-.09v1.34a.5.5 0 0 0 .5.5h2a.5.5 0 0 0 .5-.5v-1.9c.61-.45 1-1.17 1-1.99V9.2q0-.25-.05-.5l-.33-1.67a1.8 1.8 0 0 0-.97-1.26.8.8 0 0 1-.38-.4l-.79-1.85A2.5 2.5 0 0 0 11.18 2zM3.44 3.91A1.5 1.5 0 0 1 4.82 3h6.36a1.5 1.5 0 0 1 1.38.91l.8 1.85a1.8 1.8 0 0 0 .85.9q.34.18.43.56l.33 1.68q.03.15.03.3v.41a1.5 1.5 0 0 1-1.4 1.49c-1.56.07-3.8.15-5.6.15s-4.04-.08-5.6-.15A1.5 1.5 0 0 1 1 9.6v-.4q0-.15.03-.3l.34-1.68a.8.8 0 0 1 .42-.56q.6-.3.86-.9z"/></svg>