<svg xmlns="http://www.w3.org/2000/svg" width="16" height="16" viewBox="0 0 16 16" id="icon"><path d="M3.5 2a.5.5 0 0 0-.5.5v5a.5.5 0 0 0 .5.5h5a.5.5 0 0 0 .5-.5v-5a.5.5 0 0 0-.5-.5zm2.13 10.46H4.14v-.9h1.4v-.5h-1.4v-.85h1.49v-.54H3.49V13h2.14zm1.32.54h.8l1.1-3.33H8.1l-.74 2.61h-.03L6.6 9.67h-.77z"/><path d="M3 0a2 2 0 0 0-2 2v13H.5a.5.5 0 0 0 0 1h11a.5.5 0 0 0 0-1H11v-4a1 1 0 0 1 1 1v.5a1.5 1.5 0 0 0 3 0V4a.5.5 0 0 0-.15-.35l-.5-.5a.5.5 0 0 0-.7 0l-.5.5A.5.5 0 0 0 13 4v3c0 .71.38 1.1.64 1.36s.36.38.36.64v3.5a.5.5 0 1 1-1 0V12a2 2 0 0 0-2-2V2a2 2 0 0 0-2-2zm7 2v13H2V2a1 1 0 0 1 1-1h6a1 1 0 0 1 1 1"/></svg>