<svg xmlns="http://www.w3.org/2000/svg" width="16" height="16" viewBox="0 0 16 16" id="icon"><path d="M1 2a2 2 0 0 1 2-2h6a2 2 0 0 1 2 2v8a2 2 0 0 1 2 2v.5a.5.5 0 0 0 1 0V9c0-.26-.1-.38-.36-.63v-.01A1.8 1.8 0 0 1 13 7V4a.5.5 0 0 1 .15-.35l.5-.5a.5.5 0 0 1 .7 0l.5.5A.5.5 0 0 1 15 4v8.5a1.5 1.5 0 1 1-3 0V12a1 1 0 0 0-1-1v4h.5a.5.5 0 0 1 0 1H.5a.5.5 0 0 1 0-1H1zm2 .5v5a.5.5 0 0 0 .5.5h5a.5.5 0 0 0 .5-.5v-5a.5.5 0 0 0-.5-.5h-5a.5.5 0 0 0-.5.5m2.63 9.96H4.14v-.9h1.4v-.5h-1.4v-.85h1.49v-.54H3.49V13h2.14zm1.32.54h.8l1.1-3.33H8.1l-.74 2.61h-.03L6.6 9.67h-.77z"/></svg>