<svg xmlns="http://www.w3.org/2000/svg" viewBox="0 0 16 16"><path d="M7.94 2.02A.13.13 0 0 1 8 2a.13.13 0 0 1 .07.02.15.15 0 0 1 .05.05l6.86 11.67a.2.2 0 0 1 0 .18.16.16 0 0 1-.06.06.12.12 0 0 1-.06.02H1.15a.12.12 0 0 1-.07-.02.16.16 0 0 1-.05-.06.18.18 0 0 1 0-.18L7.88 2.07a.15.15 0 0 1 .06-.05zm1.04-.45a1.13 1.13 0 0 0-1.96 0L.17 13.23c-.46.78.09 1.77.97 1.77h13.72c.89 0 1.44-.99.98-1.77L8.98 1.57z"/><path d="M7 12a1 1 0 1 1 2 0 1 1 0 0 1-2 0zm.1-6a.9.9 0 1 1 1.8 0l-.35 3.5a.55.55 0 0 1-1.1 0L7.1 6z"/></svg>