<svg xmlns="http://www.w3.org/2000/svg" width="16" height="16" viewBox="0 0 16 16" id="icon"><path d="M13.36 11.24C15.06 9.72 16 8 16 8s-3-5.5-8-5.5a7 7 0 0 0-2.79.59l.77.77A6 6 0 0 1 8 3.5c2.12 0 3.88 1.17 5.17 2.46A13 13 0 0 1 14.83 8l-.2.29c-.33.48-.83 1.12-1.46 1.75q-.25.25-.52.49z"/><path d="M11.3 9.18A3.5 3.5 0 0 0 6.82 4.7l.83.82a2.5 2.5 0 0 1 2.83 2.83zm-2.95 1.3.83.82A3.5 3.5 0 0 1 4.7 6.82l.82.83a2.5 2.5 0 0 0 2.83 2.82"/><path d="M3.35 5.47q-.27.24-.52.49A13 13 0 0 0 1.17 8l.2.29c.33.48.83 1.12 1.46 1.75 1.3 1.3 3.05 2.46 5.17 2.46q1.08 0 2.02-.36l.77.77A7 7 0 0 1 8 13.5C3 13.5 0 8 0 8s.94-1.72 2.64-3.24zm10.3 8.88-12-12 .7-.7 12 12z"/></svg>