<svg xmlns="http://www.w3.org/2000/svg" width="16" height="16" viewBox="0 0 16 16"><path d="M10 3c0 1.31-.3 2.5-.8 3.4a2 2 0 0 0-1.48-.38 7 7 0 0 0-1.84-2.97l-.5-.45A6 6 0 0 1 8 2a6 6 0 0 1 1.97.33q.03.33.03.67m0 5-.01.22a7 7 0 0 0 3.33-1l.57-.37a6 6 0 0 0-2.53-3.82l-.15.64a7 7 0 0 1-1.65 3.08q.42.53.44 1.25m-.14.73a2 2 0 0 1-1.07 1.1 7 7 0 0 0 2.54 2.38q.3.18.6.32A6 6 0 0 0 14 8.42q-.31.11-.64.2a7 7 0 0 1-3.49.1M8 10a2 2 0 0 1-1.2-.4A7 7 0 0 0 6 13q0 .34.03.67A6 6 0 0 0 8 14q1.42-.02 2.62-.6l-.5-.46A7 7 0 0 1 8.3 9.98zM6 8l.01-.24a7 7 0 0 0-3.34 1l-.56.37a6 6 0 0 0 2.52 3.84l.15-.66a7 7 0 0 1 1.65-3.07A2 2 0 0 1 6 8m-3.35-.63a7 7 0 0 1 3.5-.1 2 2 0 0 1 1.06-1.1 7 7 0 0 0-2.54-2.4l-.6-.3a6 6 0 0 0-2.05 4.1q.3-.11.63-.2M8 9a1 1 0 1 0 0-2 1 1 0 0 0 0 2"/><path d="M8 15A7 7 0 1 1 8 1a7 7 0 0 1 0 14m0 1A8 8 0 1 0 8 0a8 8 0 0 0 0 16"/></svg>