<svg viewBox="0 0 16 16"><path d="M10 3c0 1.31-.3 2.5-.8 3.4a2 2 0 0 0-1.48-.38 7.1 7.1 0 0 0-1.84-2.97 8.37 8.37 0 0 0-.5-.45A5.98 5.98 0 0 1 8 2a6 6 0 0 1 1.97.33c.02.22.03.44.03.67Zm0 5-.01.22a7.1 7.1 0 0 0 3.33-1 8.39 8.39 0 0 0 .57-.37 6 6 0 0 0-2.53-3.82 9.02 9.02 0 0 1-.15.64 7.09 7.09 0 0 1-1.65 3.08c.27.34.44.78.44 1.25Zm-.14.73a2 2 0 0 1-1.07 1.1 7.1 7.1 0 0 0 3.14 2.7A5.99 5.99 0 0 0 14 8.42l-.64.2a7.1 7.1 0 0 1-3.49.1ZM8 10a2 2 0 0 1-1.2-.4 7.1 7.1 0 0 0-.77 4.07A5.99 5.99 0 0 0 8 14c.94 0 1.83-.22 2.62-.6a8.36 8.36 0 0 1-.5-.46A7.11 7.11 0 0 1 8.3 9.98L8 10ZM6 8l.01-.24a7.1 7.1 0 0 0-3.34 1 8.37 8.37 0 0 0-.56.37 6 6 0 0 0 2.52 3.84 8.37 8.37 0 0 1 .15-.66 7.1 7.1 0 0 1 1.65-3.07A1.99 1.99 0 0 1 6 8Zm-3.35-.63a7.09 7.09 0 0 1 3.5-.1 2 2 0 0 1 1.06-1.1 7.1 7.1 0 0 0-2.54-2.4 8.36 8.36 0 0 0-.6-.3 5.99 5.99 0 0 0-2.05 4.1c.2-.08.41-.14.63-.2ZM8 9a1 1 0 1 0 0-2 1 1 0 0 0 0 2Z"/><path d="M8 15A7 7 0 1 1 8 1a7 7 0 0 1 0 14Zm0 1A8 8 0 1 0 8 0a8 8 0 0 0 0 16Z"/></svg>