<svg xmlns="http://www.w3.org/2000/svg" width="16" height="16" viewBox="0 0 16 16" id="icon"><path d="M15.8.53a2 2 0 0 0-.63-.36 4 4 0 0 0-.84-.15q-.95-.08-2.25.17C10.37.55 8.26 1.42 6.32 3.1S3.15 6.82 2.56 8.52c-.3.85-.44 1.64-.43 2.27q0 .48.15.88l.06.12a68 68 0 0 0-2.26 3.4.53.53 0 0 0 .16.73.5.5 0 0 0 .7-.16A68 68 0 0 1 3.1 12.5q.44.21.96.18.78-.03 1.72-.49c1.25-.6 2.74-1.79 4.3-3.64L11.6 7a.53.53 0 0 0 0-.74l-.73-.74 1.31.2a.5.5 0 0 0 .45-.15l.66-.68c.66-.68 1.3-1.32 1.76-1.9q.5-.56.76-1.1c.16-.34.27-.77.1-1.19zM3.73 11.62a39 39 0 0 1 5.58-6.23l1.2 1.24-1.16 1.2-.03.02a13 13 0 0 1-3.98 3.4q-.82.38-1.32.39zM10.5 4.4a22 22 0 0 1 4.17-2.6l-.4.52q-.68.81-1.68 1.8l-.5.53zm3.35-3.36c-4.26 2.1-7.8 5.76-10.7 9.64q0-.72.37-1.8A12 12 0 0 1 6.97 3.9a12 12 0 0 1 5.31-2.68 8 8 0 0 1 1.57-.18"/></svg>