<svg viewBox="0 0 16 16"><path fill-rule="evenodd" d="M14 4.5V11h-1V4.5h-2A1.5 1.5 0 0 1 9.5 3V1H4a1 1 0 0 0-1 1v9H2V2a2 2 0 0 1 2-2h5.5L14 4.5ZM1.5 11.85h1.6c.29 0 .53.06.73.18.2.12.36.28.46.48.1.2.16.42.16.67 0 .25-.05.48-.16.68-.1.2-.26.36-.46.47a1.45 1.45 0 0 1-.74.18h-.8v1.34H1.5v-4Zm2.06 1.71a.8.8 0 0 0 .09-.38c0-.22-.07-.4-.19-.52a.7.7 0 0 0-.51-.18h-.66v1.4h.66a.8.8 0 0 0 .37-.08.57.57 0 0 0 .24-.24Zm1.3-1.71h1.6c.3 0 .53.06.73.18.2.12.36.28.46.48.11.2.16.42.16.67 0 .25-.05.48-.16.68-.1.2-.26.36-.46.47a1.45 1.45 0 0 1-.73.18h-.8v1.34h-.8v-4Zm2.06 1.71a.8.8 0 0 0 .09-.38c0-.22-.06-.4-.19-.52a.7.7 0 0 0-.51-.18h-.66v1.4h.66a.8.8 0 0 0 .37-.08.57.57 0 0 0 .24-.24Zm2.85 2.29V12.5h1.14v-.66H7.85v.66h1.13v3.34h.8Zm3.8-4h.9l-1.28 2 1.25 2h-.9l-.85-1.42h-.04l-.85 1.42h-.86l1.24-2.02-1.23-1.98h.93l.83 1.44h.04l.82-1.44Z"/></svg>