<svg xmlns="http://www.w3.org/2000/svg" width="16" height="16" viewBox="0 0 16 16" id="icon"><path fill-rule="evenodd" d="M14 4.5V14a2 2 0 0 1-2 2v-1a1 1 0 0 0 1-1V4.5h-2A1.5 1.5 0 0 1 9.5 3V1H4a1 1 0 0 0-1 1v9H2V2a2 2 0 0 1 2-2h5.5zM.7 15.85v-2.66h.04l.96 2.16h.51l.95-2.16h.04v2.66h.71v-4h-.8l-1.14 2.6h-.03l-1.13-2.6H0v4zm5.24-4-.79 1.3q-.4.65-.75 1.31v.65h1.94v.74h.74v-.74h.5v-.64h-.5v-2.62zm-.82 2.62v-.02q.27-.51.57-1.02l.61-.98h.04v2.02zm2.9-2.62h1.6q.43 0 .73.18t.46.48.16.67-.16.68-.47.47a1.5 1.5 0 0 1-.73.18h-.8v1.34H8zm2.06 1.71a1 1 0 0 0 .08-.38q0-.34-.18-.52-.19-.18-.52-.18H8.8v1.4h.66a1 1 0 0 0 .38-.08 1 1 0 0 0 .24-.24"/></svg>