<svg xmlns="http://www.w3.org/2000/svg" width="16" height="16" viewBox="0 0 16 16" id="icon"><path fill-rule="evenodd" d="M14 4.5V11h-1V4.5h-2A1.5 1.5 0 0 1 9.5 3V1H4a1 1 0 0 0-1 1v9H2V2a2 2 0 0 1 2-2h5.5zM1.36 15.29a1 1 0 0 1-.12-.45h.77a.6.6 0 0 0 .26.38q.1.08.24.12.15.04.32.04.25 0 .42-.07a1 1 0 0 0 .25-.2.5.5 0 0 0 .09-.28.4.4 0 0 0-.16-.33q-.15-.12-.46-.2l-.62-.13a2 2 0 0 1-.54-.22 1 1 0 0 1-.35-.37 1 1 0 0 1-.12-.52q0-.37.19-.64t.53-.42.77-.15q.46 0 .78.15.33.15.5.41.18.26.2.57h-.75a1 1 0 0 0-.12-.26 1 1 0 0 0-.24-.18 1 1 0 0 0-.37-.07q-.33 0-.52.15a.5.5 0 0 0-.18.39q0 .18.14.3a1 1 0 0 0 .4.17l.63.15q.32.07.56.2t.38.36.13.56q0 .37-.18.66a1.2 1.2 0 0 1-.54.44q-.35.16-.86.16-.38 0-.67-.1a1.4 1.4 0 0 1-.47-.24 1 1 0 0 1-.3-.38m4.28-2.23a2 2 0 0 0-.1.63v.5q0 .37.1.63a1 1 0 0 0 .3.39 1 1 0 0 0 .48.13 1 1 0 0 0 .4-.09 1 1 0 0 0 .27-.25 1 1 0 0 0 .12-.36h.76v.08a1.3 1.3 0 0 1-.22.67 1.4 1.4 0 0 1-.55.45 2 2 0 0 1-.79.17q-.54 0-.91-.22a1.4 1.4 0 0 1-.58-.63q-.19-.4-.19-.97v-.5q0-.57.2-.98a1.4 1.4 0 0 1 .57-.63q.38-.22.91-.22.33 0 .6.1.29.09.5.27a1.3 1.3 0 0 1 .46.96v.07H7.2a1 1 0 0 0-.12-.38 1 1 0 0 0-.28-.26 1 1 0 0 0-.4-.1 1 1 0 0 0-.47.14 1 1 0 0 0-.3.4m2.6 1.78a1.1 1.1 0 0 0 .41.82q.2.17.48.26t.66.09q.51 0 .86-.16.36-.16.54-.44a1 1 0 0 0 .19-.66q0-.33-.14-.56a1 1 0 0 0-.37-.35 2 2 0 0 0-.57-.21l-.62-.15a1 1 0 0 1-.4-.17.4.4 0 0 1-.15-.3q0-.24.19-.39t.51-.15q.21 0 .37.07a1 1 0 0 1 .25.18 1 1 0 0 1 .12.26h.75a1 1 0 0 0-.2-.57 1 1 0 0 0-.5-.4 2 2 0 0 0-.78-.16q-.44 0-.78.15t-.53.42-.19.64q0 .3.13.52t.35.37.54.21l.61.15q.32.07.47.2a.4.4 0 0 1 .15.32.5.5 0 0 1-.08.29 1 1 0 0 1-.26.19 1 1 0 0 1-.41.07q-.18 0-.32-.04l-.25-.11a.6.6 0 0 1-.26-.39zm3.51.45a1 1 0 0 1-.1-.45h.75a.6.6 0 0 0 .26.39q.1.07.25.1.14.05.32.05.24 0 .41-.07a1 1 0 0 0 .26-.2.5.5 0 0 0 .08-.28.4.4 0 0 0-.15-.33q-.15-.12-.46-.2l-.62-.13a2 2 0 0 1-.54-.22 1 1 0 0 1-.35-.37 1 1 0 0 1-.13-.52q0-.37.2-.64.18-.27.52-.42t.78-.15q.46 0 .78.15.32.16.5.41.18.26.2.57h-.75a1 1 0 0 0-.12-.26 1 1 0 0 0-.25-.18 1 1 0 0 0-.37-.07q-.32 0-.51.15a.5.5 0 0 0-.18.39q0 .18.14.3a1 1 0 0 0 .4.17l.62.15q.33.07.57.2t.37.36.14.56q0 .37-.19.66a1.2 1.2 0 0 1-.54.44q-.35.16-.86.16-.38 0-.66-.1a1.4 1.4 0 0 1-.48-.24 1 1 0 0 1-.29-.38"/></svg>