<svg xmlns="http://www.w3.org/2000/svg" viewBox="0 0 16 16"><path fill-rule="evenodd" d="M14 4.5V14a2 2 0 0 1-2 2v-1a1 1 0 0 0 1-1V4.5h-2A1.5 1.5 0 0 1 9.5 3V1H4a1 1 0 0 0-1 1v9H2V2a2 2 0 0 1 2-2h5.5L14 4.5Zm-4.91 9.67h-.44v-.6h.42a.69.69 0 0 0 .32-.08.56.56 0 0 0 .22-.2.5.5 0 0 0 .08-.29.49.49 0 0 0-.18-.39.65.65 0 0 0-.44-.15.74.74 0 0 0-.25.04.63.63 0 0 0-.2.12.5.5 0 0 0-.18.34h-.73a1.03 1.03 0 0 1 .37-.79c.12-.1.26-.17.43-.23.17-.06.36-.09.58-.09.28 0 .52.04.73.13.2.1.36.22.47.37a.91.91 0 0 1 .17.54.83.83 0 0 1-.12.48.96.96 0 0 1-.62.44v.04a1 1 0 0 1 .72.44.9.9 0 0 1 .14.52 1 1 0 0 1-.11.5 1.1 1.1 0 0 1-.33.38c-.14.1-.3.18-.49.24a2.07 2.07 0 0 1-1.35-.08 1.2 1.2 0 0 1-.49-.4 1.1 1.1 0 0 1-.18-.57h.73a.46.46 0 0 0 .1.26.66.66 0 0 0 .26.18.98.98 0 0 0 .35.06.9.9 0 0 0 .39-.07.6.6 0 0 0 .25-.22.56.56 0 0 0 .09-.32.56.56 0 0 0-.34-.52.81.81 0 0 0-.37-.08ZM.7 15.93v-2.66h.03l.96 2.16h.51l.95-2.16h.04v2.66h.71v-4h-.8l-1.14 2.6h-.03L.8 11.92H0v4h.7Zm5.45-4h-1.6v4h.8v-1.35h.8c.29 0 .53-.05.73-.17.2-.12.36-.28.46-.47a1.42 1.42 0 0 0 .17-.68c0-.25-.06-.48-.16-.68a1.18 1.18 0 0 0-.46-.47 1.4 1.4 0 0 0-.74-.18Zm.55 1.33a.8.8 0 0 1-.09.38.57.57 0 0 1-.23.24.8.8 0 0 1-.38.08h-.66v-1.4H6a.7.7 0 0 1 .51.18c.13.12.19.3.19.52Z"/></svg>