<svg viewBox="0 0 16 16"><path fill-rule="evenodd" d="M14 4.5V14a2 2 0 0 1-2 2v-1a1 1 0 0 0 1-1V4.5h-2A1.5 1.5 0 0 1 9.5 3V1H4a1 1 0 0 0-1 1v9H2V2a2 2 0 0 1 2-2h5.5L14 4.5ZM0 15.85h1.66c.28 0 .52-.04.72-.13.21-.1.38-.22.5-.39s.18-.37.18-.6a.99.99 0 0 0-.13-.52.85.85 0 0 0-.32-.32 1.08 1.08 0 0 0-.45-.14v-.04a1 1 0 0 0 .36-.16.79.79 0 0 0 .24-.3.93.93 0 0 0 .09-.42c0-.3-.1-.55-.32-.72-.22-.17-.5-.26-.86-.26H0v4Zm.79-3.4h.7c.18 0 .32.04.43.14.1.09.15.22.15.38a.52.52 0 0 1-.08.3.5.5 0 0 1-.25.18 1.22 1.22 0 0 1-.43.06H.78v-1.07Zm0 1.62h.74c.16 0 .29.02.4.07a.51.51 0 0 1 .24.2.61.61 0 0 1 .08.33.5.5 0 0 1-.2.44c-.14.1-.36.14-.68.14H.78v-1.19Zm3.47 1.78v-2.66h.04l.95 2.16h.51l.95-2.16h.04v2.66h.71v-4h-.8l-1.14 2.6H5.5l-1.14-2.6h-.8v4h.7Zm3.92-4h1.6c.29 0 .53.06.73.18.2.12.35.28.46.48a1.51 1.51 0 0 1 0 1.35c-.1.2-.26.36-.47.47a1.45 1.45 0 0 1-.73.18h-.8v1.34h-.8v-4Zm2.06 1.71a.8.8 0 0 0 .08-.38c0-.22-.06-.4-.18-.52a.7.7 0 0 0-.52-.18h-.65v1.4h.65a.8.8 0 0 0 .38-.08.57.57 0 0 0 .24-.24Z"/></svg>