<svg xmlns="http://www.w3.org/2000/svg" width="16" height="16" viewBox="0 0 16 16" id="icon"><path fill-rule="evenodd" d="M14 4.5V14a2 2 0 0 1-2 2H9v-1h3a1 1 0 0 0 1-1V4.5h-2A1.5 1.5 0 0 1 9.5 3V1H4a1 1 0 0 0-1 1v9H2V2a2 2 0 0 1 2-2h5.5zM3.28 13.12a1 1 0 0 0-.14-.49 1 1 0 0 0-.32-.4 2 2 0 0 0-.48-.28 2 2 0 0 0-.63-.1q-.54 0-.93.23a1.5 1.5 0 0 0-.58.63 2 2 0 0 0-.2.95v.5q0 .41.1.75t.33.58q.2.24.53.38.32.13.75.13.4 0 .7-.11a1.3 1.3 0 0 0 .79-.77q.1-.26.1-.55v-.8H1.71v.6h.82v.25q0 .2-.09.36a1 1 0 0 1-.27.26 1 1 0 0 1-.46.1 1 1 0 0 1-.52-.15 1 1 0 0 1-.3-.41 2 2 0 0 1-.1-.61v-.5q0-.55.23-.85t.67-.3a1 1 0 0 1 .3.04q.14.04.24.12l.17.2.1.24zm1.35 2.8v-4h-.79v4zm1.5-1.58v1.59h-.8v-4h2.55v.65H6.12v1.12h1.6v.63z"/></svg>