<svg xmlns="http://www.w3.org/2000/svg" width="16" height="16" viewBox="0 0 16 16"><path fill-rule="evenodd" d="M14 4.5V11h-1V4.5h-2A1.5 1.5 0 0 1 9.5 3V1H4a1 1 0 0 0-1 1v9H2V2a2 2 0 0 1 2-2h5.5zm-5.46 9.69v-.52q0-.39-.12-.64a1 1 0 0 0-.32-.4 1 1 0 0 0-.47-.12 1 1 0 0 0-.47.13 1 1 0 0 0-.32.39q-.12.25-.12.64v.52q0 .38.12.64a1 1 0 0 0 .32.39 1 1 0 0 0 .47.12 1 1 0 0 0 .47-.12 1 1 0 0 0 .32-.39 2 2 0 0 0 .12-.64m.8-.52v.52q0 .56-.2.97t-.6.63-.91.21-.92-.21a1.5 1.5 0 0 1-.6-.63 2 2 0 0 1-.2-.97v-.52q0-.57.2-.97t.6-.63.92-.22.92.22.58.63q.2.4.2.97m-6.05-.53-.74 2.79H1.8l-1.06-4h.86l.6 2.9h.03l.71-2.9h.68l.7 2.9h.05l.6-2.9h.85l-1.05 4h-.73l-.74-2.8zm7.4 2.79v-1.6h1.6v-.63h-1.6v-1.12h1.75v-.65H9.88v4zm2.98-1.6v1.6h-.79v-4h2.55v.65h-1.76v1.12h1.6v.63z"/></svg>