<svg xmlns="http://www.w3.org/2000/svg" width="16" height="16" viewBox="0 0 16 16" id="icon"><path fill-rule="evenodd" d="M14 4.5V14a2 2 0 0 1-2 2v-1a1 1 0 0 0 1-1V4.5h-2A1.5 1.5 0 0 1 9.5 3V1H4a1 1 0 0 0-1 1v9H2V2a2 2 0 0 1 2-2h5.5zM0 15.85h1.66q.41 0 .72-.13.32-.14.5-.39t.18-.6a1 1 0 0 0-.13-.52 1 1 0 0 0-.32-.32 1 1 0 0 0-.44-.14v-.04a1 1 0 0 0 .35-.16 1 1 0 0 0 .24-.3 1 1 0 0 0 .09-.42q0-.46-.32-.72t-.86-.26H0zm.79-3.4h.7q.27 0 .43.14.15.13.15.38a.5.5 0 0 1-.08.3.5.5 0 0 1-.25.18 1 1 0 0 1-.43.06H.79zm0 1.62h.75q.23 0 .39.07a.5.5 0 0 1 .24.2.6.6 0 0 1 .08.33q0 .29-.2.44-.21.14-.68.14H.78zm3.47 1.78v-2.66h.04l.95 2.16h.51l.95-2.16h.04v2.66h.71v-4h-.8l-1.14 2.6H5.5l-1.14-2.6h-.8v4zm3.92-4h1.6q.43 0 .73.18t.46.48.16.67-.16.68-.47.47a1.5 1.5 0 0 1-.73.18h-.8v1.34h-.8zm2.06 1.71a1 1 0 0 0 .08-.38q0-.34-.18-.52-.19-.18-.52-.18h-.65v1.4h.65a1 1 0 0 0 .38-.08 1 1 0 0 0 .24-.24"/></svg>