<svg xmlns="http://www.w3.org/2000/svg" viewBox="0 0 16 16"><path fill-rule="evenodd" d="M14 4.5V14a2 2 0 0 1-2 2v-1a1 1 0 0 0 1-1V4.5h-2A1.5 1.5 0 0 1 9.5 3V1H4a1 1 0 0 0-1 1v9H2V2a2 2 0 0 1 2-2h5.5L14 4.5Zm-5.8 8.55a1.73 1.73 0 0 0-.11.64v.5c0 .24.03.45.1.62a.83.83 0 0 0 .3.4.84.84 0 0 0 .48.12.87.87 0 0 0 .4-.08.7.7 0 0 0 .27-.25.8.8 0 0 0 .12-.37h.76v.08a1.27 1.27 0 0 1-.22.67c-.14.2-.32.35-.55.46a1.81 1.81 0 0 1-.79.16 1.8 1.8 0 0 1-.91-.21 1.42 1.42 0 0 1-.57-.63c-.13-.27-.2-.6-.2-.98v-.5c0-.37.07-.7.2-.97.13-.28.32-.49.57-.64.25-.15.56-.22.91-.22.22 0 .42.03.6.1.2.06.36.15.5.27a1.32 1.32 0 0 1 .46.96v.08h-.76a.85.85 0 0 0-.12-.38.7.7 0 0 0-.27-.26.8.8 0 0 0-.4-.1.81.81 0 0 0-.48.14.87.87 0 0 0-.3.4ZM.8 15.93l.31-1.03h1.34l.31 1.02h.84l-1.33-4h-.93l-1.34 4h.8Zm1-3.24.5 1.62H1.27l.49-1.62h.03Zm2.63 3.24.31-1.03h1.34l.31 1.02h.84l-1.33-4h-.93l-1.34 4h.8Zm1-3.24.5 1.62H4.9l.49-1.62h.03Z"/></svg>