<svg xmlns="http://www.w3.org/2000/svg" width="16" height="16" viewBox="0 0 16 16" id="icon"><path fill-rule="evenodd" d="M14 4.5V14a2 2 0 0 1-2 2v-1a1 1 0 0 0 1-1V4.5h-2A1.5 1.5 0 0 1 9.5 3V1H4a1 1 0 0 0-1 1v9H2V2a2 2 0 0 1 2-2h5.5zm-7.84 9.17v.52q0 .38-.12.64a1 1 0 0 1-.32.39 1 1 0 0 1-.47.12 1 1 0 0 1-.47-.12 1 1 0 0 1-.32-.39 2 2 0 0 1-.12-.64v-.52q0-.39.12-.64a1 1 0 0 1 .32-.4 1 1 0 0 1 .47-.12q.27 0 .47.13a1 1 0 0 1 .32.39q.12.25.12.64m.8.52v-.52q0-.56-.2-.97a1.5 1.5 0 0 0-.59-.63q-.38-.22-.92-.22-.53 0-.92.22a1.4 1.4 0 0 0-.59.63q-.2.4-.2.97v.52q0 .56.2.97t.6.63.91.21.92-.21.59-.63.2-.97M0 11.93v4h1.46q.6 0 1-.24a1.5 1.5 0 0 0 .6-.7q.19-.44.19-1.07t-.2-1.08a1.4 1.4 0 0 0-.59-.68q-.4-.23-1-.23zm.8.64h.55q.38 0 .61.15a1 1 0 0 1 .36.46q.12.3.12.75a2 2 0 0 1-.07.6 1 1 0 0 1-.2.41 1 1 0 0 1-.33.26 1 1 0 0 1-.49.08H.8zm7.41.48a2 2 0 0 0-.1.64v.5q0 .36.1.62a1 1 0 0 0 .3.4 1 1 0 0 0 .48.12 1 1 0 0 0 .4-.08 1 1 0 0 0 .27-.25 1 1 0 0 0 .12-.37h.77v.08a1.3 1.3 0 0 1-.23.67q-.2.3-.55.46a2 2 0 0 1-.79.16q-.54 0-.91-.21a1.4 1.4 0 0 1-.57-.63q-.2-.41-.2-.98v-.5q0-.56.2-.97t.57-.64.91-.22q.33 0 .61.1.28.09.49.27a1.3 1.3 0 0 1 .46.96v.08h-.76a1 1 0 0 0-.12-.38 1 1 0 0 0-.27-.26 1 1 0 0 0-.4-.1 1 1 0 0 0-.48.14 1 1 0 0 0-.3.4"/></svg>