<svg xmlns="http://www.w3.org/2000/svg" width="16" height="16" viewBox="0 0 16 16" id="icon"><path d="M5 6a.5.5 0 0 0-.5.44l-.5 4a.5.5 0 0 0 .5.56h3v2.02c-.86.05-1.5.25-1.5.48 0 .28.9.5 2 .5s2-.22 2-.5c0-.23-.64-.43-1.5-.48V11h3a.5.5 0 0 0 .5-.56l-.5-4A.5.5 0 0 0 11 6zm2 3.78V7.22c0-.1.1-.16.19-.1l2.13 1.27a.13.13 0 0 1 0 .22L7.19 9.89A.13.13 0 0 1 7 9.78"/><path d="M14 14V4.5L9.5 0H4a2 2 0 0 0-2 2v12a2 2 0 0 0 2 2h8a2 2 0 0 0 2-2M9.5 3A1.5 1.5 0 0 0 11 4.5h2V14a1 1 0 0 1-1 1H4a1 1 0 0 1-1-1V2a1 1 0 0 1 1-1h5.5z"/></svg>