<svg xmlns="http://www.w3.org/2000/svg" width="16" height="16" viewBox="0 0 16 16" id="icon"><path fill-rule="evenodd" d="M14 4.5V14a2 2 0 0 1-2 2v-1a1 1 0 0 0 1-1V4.5h-2A1.5 1.5 0 0 1 9.5 3V1H4a1 1 0 0 0-1 1v9H2V2a2 2 0 0 1 2-2h5.5zM0 14.84a1.1 1.1 0 0 0 .4.82q.2.17.48.26t.66.09q.51 0 .86-.16.36-.16.54-.44a1 1 0 0 0 .19-.66q0-.33-.14-.56a1 1 0 0 0-.37-.35 2 2 0 0 0-.57-.21l-.62-.15a1 1 0 0 1-.4-.17.4.4 0 0 1-.15-.3q0-.24.19-.39t.51-.15q.22 0 .37.07a1 1 0 0 1 .25.18 1 1 0 0 1 .12.26h.75a1 1 0 0 0-.2-.57 1 1 0 0 0-.5-.4 2 2 0 0 0-.78-.16q-.44 0-.78.15-.33.15-.53.42-.19.27-.19.64 0 .3.13.52t.35.37.54.21l.62.15q.3.07.46.2a.4.4 0 0 1 .15.32.5.5 0 0 1-.08.29 1 1 0 0 1-.26.19q-.17.07-.41.07-.18 0-.32-.04l-.25-.11a.6.6 0 0 1-.26-.39zm4.58 1.1h.95l1.32-4h-.87l-.9 3.13h-.03l-.9-3.14h-.91zm5.48-3.3q.11.23.14.49h-.78l-.1-.25-.16-.19-.24-.13a1 1 0 0 0-.3-.04q-.43 0-.66.3t-.24.85v.5q0 .35.1.62a1 1 0 0 0 .3.4 1 1 0 0 0 .52.15 1 1 0 0 0 .46-.1 1 1 0 0 0 .27-.26q.09-.16.09-.36v-.25h-.82v-.6h1.57v.8q0 .3-.1.55a1 1 0 0 1-.29.46 1.4 1.4 0 0 1-.5.32q-.29.1-.69.1a2 2 0 0 1-.75-.12 2 2 0 0 1-.53-.38 2 2 0 0 1-.32-.58 3 3 0 0 1-.1-.75v-.5q0-.54.19-.95.2-.4.58-.64.39-.22.93-.22.36 0 .63.1.29.1.48.27.2.18.32.4"/></svg>