<svg viewBox="0 0 16 16"><path fill-rule="evenodd" d="M14 4.5V14a2 2 0 0 1-2 2H8v-1h4a1 1 0 0 0 1-1V4.5h-2A1.5 1.5 0 0 1 9.5 3V1H4a1 1 0 0 0-1 1v9H2V2a2 2 0 0 1 2-2h5.5L14 4.5ZM0 11.85h1.6c.3 0 .55.05.75.16.21.1.37.25.48.44.11.19.17.41.17.67a1.18 1.18 0 0 1-.73 1.12l.8 1.6H2.2l-.7-1.48H.8v1.49H0v-4Zm.78.62v1.3h.7c.2 0 .38-.06.5-.16.14-.11.2-.27.2-.48 0-.21-.06-.38-.2-.49a.74.74 0 0 0-.5-.17h-.7Zm4.43 3.38H3.54v-4h1.67c.36 0 .65.09.86.26.22.17.32.42.32.72a.94.94 0 0 1-.09.43.79.79 0 0 1-.24.29 1 1 0 0 1-.35.16v.03c.16.02.3.07.44.15a.85.85 0 0 1 .33.32.99.99 0 0 1 .12.51c0 .24-.06.44-.18.61-.12.17-.28.3-.5.39a1.85 1.85 0 0 1-.71.13Zm-.18-3.4h-.7v1.07h.52c.18 0 .32-.03.43-.07a.5.5 0 0 0 .25-.18.52.52 0 0 0 .08-.3.49.49 0 0 0-.15-.38.61.61 0 0 0-.43-.14Zm.05 1.62h-.75v1.19h.59c.3 0 .53-.05.67-.15a.5.5 0 0 0 .2-.44.61.61 0 0 0-.08-.32.51.51 0 0 0-.24-.21.95.95 0 0 0-.4-.07Z"/></svg>