<svg viewBox="0 0 16 16"><path fill-rule="evenodd" d="M14 4.5V14a2 2 0 0 1-2 2v-1a1 1 0 0 0 1-1V4.5h-2A1.5 1.5 0 0 1 9.5 3V1H4a1 1 0 0 0-1 1v9H2V2a2 2 0 0 1 2-2h5.5L14 4.5ZM1.6 11.85H0v4h.78v-1.5h.71l.7 1.5h1.65l.32-1.03h1.33l.32 1.03h.84l-1.34-4h-.93l-1.32 3.96-.79-1.57A1.18 1.18 0 0 0 3 13.12c0-.26-.06-.48-.17-.67a1.1 1.1 0 0 0-.47-.44 1.67 1.67 0 0 0-.76-.16Zm-.82 1.91v-1.29h.7a.74.74 0 0 1 .5.17c.14.11.2.28.2.5 0 .2-.06.36-.2.46a.73.73 0 0 1-.5.16h-.7Zm4.06-1.14.5 1.61H4.31l.49-1.62h.04Zm4.01.44-.74 2.79h-.73l-1.05-4h.85l.6 2.9h.04l.7-2.9h.69l.7 2.9h.04l.6-2.9h.86l-1.06 4h-.73l-.74-2.79h-.03Z"/></svg>