<svg viewBox="0 0 16 16"><path d="m5.52 10.42.46-.23a7.88 7.88 0 0 1-.45.6c-.28.34-.5.52-.63.57a.27.27 0 0 1-.04.02.28.28 0 0 1-.02-.05c-.06-.1-.06-.21.04-.36.1-.16.31-.35.64-.55zm2.46-1.64-.36.07a21.04 21.04 0 0 0 .5-1.05 11.96 11.96 0 0 0 .51.86 7.4 7.4 0 0 0-.65.12zm2.52.94a3.89 3.89 0 0 1-.43-.41c.23 0 .43.02.61.05.32.06.47.15.52.2a.1.1 0 0 1 .02.07.44.44 0 0 1-.06.2.3.3 0 0 1-.09.13.1.1 0 0 1-.07.01c-.09 0-.26-.06-.5-.25zM8.28 4.97c-.04.24-.11.52-.2.83a4.86 4.86 0 0 1-.1-.35 2.07 2.07 0 0 1-.04-.82c.04-.18.11-.25.2-.28a.52.52 0 0 1 .14-.04c.02.03.03.09.04.2 0 .12-.01.27-.04.46z"/><path fill-rule="evenodd" d="M4 0h8a2 2 0 0 1 2 2v12a2 2 0 0 1-2 2H4a2 2 0 0 1-2-2V2a2 2 0 0 1 2-2zm.17 11.67c.09.18.23.34.43.42.21.07.42.04.58-.03.32-.13.64-.44.93-.79.33-.4.68-.93 1.02-1.5a11.64 11.64 0 0 1 2-.41c.3.38.6.7.9.95.29.21.61.4.94.41a.86.86 0 0 0 .51-.14c.16-.1.27-.24.35-.41.1-.18.15-.37.14-.57a.84.84 0 0 0-.2-.51c-.22-.27-.6-.4-.96-.47a5.76 5.76 0 0 0-1.33-.05A10.95 10.95 0 0 1 8.5 6.9c.25-.66.43-1.29.52-1.8.03-.22.05-.42.05-.61a1.24 1.24 0 0 0-.13-.54.7.7 0 0 0-.48-.37c-.2-.04-.4 0-.6.08-.38.15-.58.47-.65.82-.07.34-.04.74.05 1.14.08.4.23.85.43 1.3a19.7 19.7 0 0 1-1.07 2.22 7.66 7.66 0 0 0-1.48.65c-.37.22-.7.48-.9.78-.2.33-.27.72-.08 1.1z"/></svg>