<svg xmlns="http://www.w3.org/2000/svg" width="16" height="16" viewBox="0 0 16 16"><path d="M8 5a1 1 0 0 1 1 1v1H7V6a1 1 0 0 1 1-1m2 2.08V6a2 2 0 1 0-4 0v1.08c-.54.16-1 .6-1 1.22v2.4c0 .82.78 1.3 1.5 1.3h3c.72 0 1.5-.48 1.5-1.3V8.3c0-.63-.46-1.06-1-1.22M6.1 8.13A.6.6 0 0 1 6.5 8h3a.6.6 0 0 1 .4.13q.11.1.1.17v2.4q.01.06-.1.18a.6.6 0 0 1-.4.12h-3a.6.6 0 0 1-.4-.12q-.1-.11-.1-.18V8.3q-.01-.06.1-.17"/><path d="M4 0a2 2 0 0 0-2 2v12a2 2 0 0 0 2 2h8a2 2 0 0 0 2-2V2a2 2 0 0 0-2-2zm0 1h8a1 1 0 0 1 1 1v12a1 1 0 0 1-1 1H4a1 1 0 0 1-1-1V2a1 1 0 0 1 1-1"/></svg>