<svg viewBox="0 0 16 16"><path fill-rule="evenodd" d="M14 4.5V11h-1V4.5h-2A1.5 1.5 0 0 1 9.5 3V1H4a1 1 0 0 0-1 1v9H2V2a2 2 0 0 1 2-2h5.5L14 4.5Zm-4.64 8.55a1.73 1.73 0 0 0-.1.64v.5c0 .24.03.45.1.62a.83.83 0 0 0 .3.4.85.85 0 0 0 .48.12.87.87 0 0 0 .4-.08.7.7 0 0 0 .27-.25.8.8 0 0 0 .12-.37h.77v.08a1.27 1.27 0 0 1-.23.67c-.14.2-.32.35-.55.46a1.81 1.81 0 0 1-.79.16 1.8 1.8 0 0 1-.91-.21 1.42 1.42 0 0 1-.57-.63c-.13-.27-.2-.6-.2-.98v-.5c0-.37.07-.7.2-.97.13-.28.32-.49.57-.64.25-.15.56-.22.91-.22a1.74 1.74 0 0 1 1.1.37 1.32 1.32 0 0 1 .46.96v.08h-.76a.85.85 0 0 0-.12-.38.7.7 0 0 0-.27-.26.8.8 0 0 0-.4-.1.81.81 0 0 0-.48.14.87.87 0 0 0-.3.4Zm-6.1-1.12v4h-.79V14.2H.8v1.71H0v-4h.8v1.63h1.67v-1.63h.8Zm1.5 3.35h1.78v.65H3.97v-4h2.57v.64H4.75v1.03h1.68v.6H4.75v1.08Zm3.15.65v-4h-.79v4h.8Z"/></svg>