<svg xmlns="http://www.w3.org/2000/svg" width="16" height="16" viewBox="0 0 16 16"><path d="M7.05 11.89c0 1.41-.55 2.2-1.52 2.2-.98 0-1.53-.79-1.53-2.2s.55-2.2 1.53-2.2c.97 0 1.52.78 1.52 2.2m-1.52-1.62c-.55 0-.84.57-.84 1.62l.01.25 1.56-1.15q-.2-.71-.73-.72m-.74 2.51q.2.71.74.72.82-.02.83-1.62l-.01-.25zm6.07.62v.6h-3v-.6h1.18v-2.9h-.05l-1.14.75v-.7l1.19-.78h.69v3.64z"/><path d="M14 14V4.5L9.5 0H4a2 2 0 0 0-2 2v12a2 2 0 0 0 2 2h8a2 2 0 0 0 2-2M9.5 3A1.5 1.5 0 0 0 11 4.5h2V14a1 1 0 0 1-1 1H4a1 1 0 0 1-1-1V2a1 1 0 0 1 1-1h5.5z"/></svg>