<svg viewBox="0 0 16 16"><path fill-rule="evenodd" d="M14 4.5V14a2 2 0 0 1-2 2h-1v-1h1a1 1 0 0 0 1-1V4.5h-2A1.5 1.5 0 0 1 9.5 3V1H4a1 1 0 0 0-1 1v9H2V2a2 2 0 0 1 2-2h5.5L14 4.5ZM2.62 13.67v.52c0 .25-.04.47-.12.64a.86.86 0 0 1-.32.39.88.88 0 0 1-.47.12.88.88 0 0 1-.47-.12.87.87 0 0 1-.32-.39 1.55 1.55 0 0 1-.11-.64v-.52c0-.26.03-.47.11-.64a.87.87 0 0 1 .32-.4.87.87 0 0 1 .47-.12c.18 0 .34.04.47.13a.86.86 0 0 1 .32.39c.08.17.12.38.12.64Zm.8.52v-.52c0-.37-.06-.7-.2-.97a1.46 1.46 0 0 0-.59-.63 1.8 1.8 0 0 0-.92-.22c-.35 0-.66.07-.92.22a1.44 1.44 0 0 0-.59.63c-.13.27-.2.6-.2.97v.52c0 .37.07.7.2.97.14.27.34.48.6.63.25.14.56.21.91.21.36 0 .67-.07.92-.21a1.47 1.47 0 0 0 .59-.63c.14-.28.2-.6.2-.97Zm2 1.74v-3.34h1.14v-.66H3.5v.66h1.13v3.34h.8Zm2.26-1.6v1.6h-.8v-4h2.55v.65H7.68v1.12h1.6v.63h-1.6Z"/></svg>