<svg xmlns="http://www.w3.org/2000/svg" viewBox="0 0 16 16"><path fill-rule="evenodd" d="M14 4.5V11h-1V4.5h-2A1.5 1.5 0 0 1 9.5 3V1H4a1 1 0 0 0-1 1v9H2V2a2 2 0 0 1 2-2h5.5L14 4.5ZM1.52 15.18a1.32 1.32 0 0 1-.08-.47h.76a.58.58 0 0 0 .08.27.5.5 0 0 0 .45.25c.2 0 .33-.06.42-.17a.7.7 0 0 0 .14-.46v-2.75h.8v2.73c0 .43-.13.77-.37 1-.23.23-.56.34-.98.34a1.59 1.59 0 0 1-.57-.09 1.14 1.14 0 0 1-.4-.27 1.14 1.14 0 0 1-.25-.39Zm3.97-.36-.31 1.03h-.8l1.34-4h.93l1.33 4h-.84l-.31-1.03H5.49Zm1.18-.59-.49-1.61h-.03l-.5 1.61h1.02Zm2.34 1.62h.96l1.32-4h-.88l-.88 3.14h-.04l-.9-3.14h-.92l1.34 4Zm3.09-1.03-.31 1.03h-.8l1.34-4h.92l1.34 4h-.84l-.31-1.03H12.1Zm1.18-.59-.5-1.61h-.03l-.49 1.61h1.02Z"/></svg>