<svg xmlns="http://www.w3.org/2000/svg" width="16" height="16" viewBox="0 0 16 16" id="icon"><path fill-rule="evenodd" d="M14 4.5V14a2 2 0 0 1-2 2H8v-1h4a1 1 0 0 0 1-1V4.5h-2A1.5 1.5 0 0 1 9.5 3V1H4a1 1 0 0 0-1 1v9H2V2a2 2 0 0 1 2-2h5.5zM0 11.85h1.6q.44 0 .75.16.32.15.48.44.17.28.17.67a1.2 1.2 0 0 1-.73 1.12l.8 1.6H2.2l-.7-1.48H.8v1.49H0zm.78.62v1.3h.7q.32 0 .5-.16.2-.16.2-.48t-.2-.49a.7.7 0 0 0-.5-.17zm4.43 3.38H3.54v-4h1.67q.54 0 .86.26t.32.72a1 1 0 0 1-.09.43 1 1 0 0 1-.24.29 1 1 0 0 1-.35.16v.03q.24.03.44.15a1 1 0 0 1 .33.32 1 1 0 0 1 .12.51q0 .36-.18.61t-.5.39a2 2 0 0 1-.71.13m-.18-3.4h-.7v1.06h.52q.27 0 .43-.06a.5.5 0 0 0 .25-.19.5.5 0 0 0 .09-.3.5.5 0 0 0-.16-.38q-.15-.14-.43-.14m.05 1.61h-.75v1.2h.59q.46 0 .67-.15a.5.5 0 0 0 .2-.44 1 1 0 0 0-.08-.32.5.5 0 0 0-.24-.21 1 1 0 0 0-.4-.08"/></svg>