<svg xmlns="http://www.w3.org/2000/svg" width="16" height="16" viewBox="0 0 16 16" id="icon"><path fill-rule="evenodd" d="M14 4.5V14a2 2 0 0 1-2 2h-1v-1h1a1 1 0 0 0 1-1V4.5h-2A1.5 1.5 0 0 1 9.5 3V1H4a1 1 0 0 0-1 1v9H2V2a2 2 0 0 1 2-2h5.5zM1.6 11.85H0v4h.8V14.5h.8q.42 0 .73-.18.3-.17.46-.47a1.4 1.4 0 0 0 .16-.68q0-.37-.16-.67a1 1 0 0 0-.46-.48q-.3-.18-.73-.18m.55 1.33a1 1 0 0 1-.09.38 1 1 0 0 1-.24.24 1 1 0 0 1-.37.09H.79v-1.41h.66q.33 0 .51.18.19.18.19.52m2.81-1.33h-1.6v4h.8V14.5h.8q.43 0 .73-.18t.46-.47.16-.68-.16-.67a1 1 0 0 0-.46-.48q-.3-.18-.73-.18m.55 1.33a1 1 0 0 1-.09.38 1 1 0 0 1-.24.24 1 1 0 0 1-.37.09h-.66v-1.41h.66q.33 0 .51.18.19.18.19.52m2.76-.67v3.34h-.79V12.5H6.35v-.66H9.4v.66z"/></svg>