<svg xmlns="http://www.w3.org/2000/svg" viewBox="0 0 16 16"><path d="M7.05 11.88c0 1.42-.55 2.21-1.52 2.21-.98 0-1.53-.79-1.53-2.2 0-1.42.55-2.2 1.53-2.2.97 0 1.52.78 1.52 2.2zm-1.52-1.6c-.55 0-.84.56-.84 1.6l.01.26 1.56-1.15c-.13-.47-.38-.72-.73-.72zm-.74 2.5c.13.47.38.72.74.72.54 0 .83-.56.83-1.62l-.01-.25-1.56 1.15zm6.06.62v.6h-3v-.6h1.19v-2.9h-.05l-1.14.75v-.7l1.19-.78h.69v3.64h1.13z"/><path d="M14 14V4.5L9.5 0H4a2 2 0 0 0-2 2v12a2 2 0 0 0 2 2h8a2 2 0 0 0 2-2zM9.5 3A1.5 1.5 0 0 0 11 4.5h2V14a1 1 0 0 1-1 1H4a1 1 0 0 1-1-1V2a1 1 0 0 1 1-1h5.5v2z"/></svg>