<svg viewBox="0 0 16 16"><path d="M5.53 13.09c.97 0 1.52-.79 1.52-2.2 0-1.42-.55-2.2-1.52-2.2-.98 0-1.53.78-1.53 2.2 0 1.41.55 2.2 1.53 2.2zm-.84-2.2c0-1.06.3-1.62.84-1.62.35 0 .6.25.73.72L4.7 11.14a6.75 6.75 0 0 1 0-.26zm.84 1.6c-.36 0-.61-.24-.74-.7l1.56-1.15v.25c0 1.05-.29 1.6-.82 1.6zm5.32.51v-.6H9.73V8.77h-.69l-1.19.79v.69l1.14-.75h.05v2.9H7.86v.6h3z"/><path d="M4 0a2 2 0 0 0-2 2v12a2 2 0 0 0 2 2h8a2 2 0 0 0 2-2V2a2 2 0 0 0-2-2H4zm0 1h8a1 1 0 0 1 1 1v12a1 1 0 0 1-1 1H4a1 1 0 0 1-1-1V2a1 1 0 0 1 1-1z"/></svg>