<svg xmlns="http://www.w3.org/2000/svg" width="16" height="16" viewBox="0 0 16 16" id="icon"><path fill-rule="evenodd" d="M14 4.5V11h-1V4.5h-2A1.5 1.5 0 0 1 9.5 3V1H4a1 1 0 0 0-1 1v9H2V2a2 2 0 0 1 2-2h5.5zM1.5 11.85h1.6q.43 0 .73.18t.46.48.16.67-.16.68-.46.47a1.5 1.5 0 0 1-.74.18h-.8v1.34H1.5zm2.06 1.71a1 1 0 0 0 .09-.38q0-.34-.19-.52-.18-.18-.51-.18h-.66v1.4h.66a1 1 0 0 0 .37-.08 1 1 0 0 0 .24-.24m1.3-1.71h1.6q.44 0 .73.18.3.17.46.48t.16.67-.16.68-.46.47a1.5 1.5 0 0 1-.73.18h-.8v1.34h-.8zm2.06 1.71a1 1 0 0 0 .09-.38q0-.34-.19-.52-.18-.18-.51-.18h-.66v1.4h.66a1 1 0 0 0 .37-.08 1 1 0 0 0 .24-.24m2.85 2.29V12.5h1.14v-.66H7.85v.66h1.13v3.34zm3.8-4h.9l-1.28 2 1.25 2h-.9l-.85-1.42h-.04l-.85 1.42h-.86l1.24-2.02-1.23-1.98h.93l.83 1.44h.04z"/></svg>