<svg viewBox="0 0 16 16"><path fill-rule="evenodd" d="M14 4.5V14a2 2 0 0 1-2 2h-1v-1h1a1 1 0 0 0 1-1V4.5h-2A1.5 1.5 0 0 1 9.5 3V1H4a1 1 0 0 0-1 1v9H2V2a2 2 0 0 1 2-2h5.5L14 4.5ZM1.6 11.85H0v4h.8V14.5h.8c.28 0 .53-.06.73-.18.2-.11.35-.27.46-.47a1.42 1.42 0 0 0 .16-.68c0-.25-.05-.47-.16-.67a1.18 1.18 0 0 0-.46-.48 1.4 1.4 0 0 0-.73-.18Zm.54 1.33a.8.8 0 0 1-.08.38.57.57 0 0 1-.24.24.8.8 0 0 1-.37.09H.79v-1.41h.66a.7.7 0 0 1 .51.18c.12.12.18.3.18.52Zm1.22-1.33v4h1.46c.4 0 .74-.08 1-.24a1.45 1.45 0 0 0 .6-.69c.12-.3.2-.66.2-1.08 0-.42-.07-.78-.2-1.08a1.43 1.43 0 0 0-.6-.68 2 2 0 0 0-1-.23H3.36Zm.8.65h.56c.24 0 .45.04.6.15a.89.89 0 0 1 .36.45c.08.2.12.45.12.75a2.3 2.3 0 0 1-.07.6 1.14 1.14 0 0 1-.2.42.8.8 0 0 1-.33.25 1.3 1.3 0 0 1-.48.08h-.57v-2.7Zm3.74 1.76v1.59h-.8v-4h2.55v.65H7.9v1.12h1.6v.64H7.9Z"/></svg>