<svg viewBox="0 0 16 16"><path fill-rule="evenodd" d="M14 4.5V14a2 2 0 0 1-2 2h-1v-1h1a1 1 0 0 0 1-1V4.5h-2A1.5 1.5 0 0 1 9.5 3V1H4a1 1 0 0 0-1 1v9H2V2a2 2 0 0 1 2-2h5.5L14 4.5ZM3.07 14.84a1.13 1.13 0 0 0 .4.82c.14.11.3.2.48.26.2.06.41.09.67.09.34 0 .62-.06.86-.16.23-.1.41-.25.54-.44a1.17 1.17 0 0 0 .18-.66c0-.22-.04-.4-.13-.56a1 1 0 0 0-.38-.35 2.03 2.03 0 0 0-.56-.21l-.62-.15a.97.97 0 0 1-.4-.17.37.37 0 0 1-.15-.3c0-.16.06-.29.18-.39a.8.8 0 0 1 .52-.15c.14 0 .26.02.37.07a.62.62 0 0 1 .24.18.56.56 0 0 1 .12.26h.75a1.1 1.1 0 0 0-.2-.57 1.21 1.21 0 0 0-.5-.4 1.81 1.81 0 0 0-.78-.16c-.29 0-.55.05-.77.15-.23.1-.4.24-.53.42s-.2.4-.2.64a1 1 0 0 0 .47.9c.17.09.34.16.55.2l.62.15c.2.05.36.11.46.2a.39.39 0 0 1 .16.32.51.51 0 0 1-.09.29.56.56 0 0 1-.25.19c-.12.05-.25.07-.42.07-.11 0-.22-.01-.32-.04a.84.84 0 0 1-.25-.12.58.58 0 0 1-.25-.38h-.77ZM0 14.8c0 .17.03.32.08.47.06.14.14.27.24.39.12.11.25.2.41.26.17.07.36.1.57.1.42 0 .75-.12.98-.35.24-.23.36-.56.36-1v-2.73h-.79v2.75a.7.7 0 0 1-.14.46c-.09.11-.23.17-.42.17a.5.5 0 0 1-.45-.25.58.58 0 0 1-.07-.27H0Zm8.9-2.86h.9l-1.27 2 1.25 2h-.9l-.86-1.42H8l-.86 1.42h-.86l1.24-2.02-1.22-1.98h.93l.83 1.44h.03l.83-1.44Z"/></svg>