<svg viewBox="0 0 16 16"><path fill-rule="evenodd" d="M14 4.5V11h-1V4.5h-2A1.5 1.5 0 0 1 9.5 3V1H4a1 1 0 0 0-1 1v9H2V2a2 2 0 0 1 2-2h5.5L14 4.5ZM7.86 14.84a1.13 1.13 0 0 0 .4.82c.13.11.3.2.48.26.19.06.41.09.67.09.33 0 .62-.06.85-.16.24-.1.42-.25.54-.44a1.17 1.17 0 0 0 .19-.66c0-.22-.04-.4-.14-.56a1 1 0 0 0-.37-.35 2.03 2.03 0 0 0-.56-.21l-.63-.15a.97.97 0 0 1-.4-.17.37.37 0 0 1-.14-.3c0-.16.06-.29.18-.39a.8.8 0 0 1 .51-.15c.15 0 .27.02.37.07a.62.62 0 0 1 .25.18.56.56 0 0 1 .12.26h.75a1.1 1.1 0 0 0-.2-.57 1.21 1.21 0 0 0-.5-.4 1.81 1.81 0 0 0-.78-.16c-.3 0-.55.05-.78.15-.22.1-.4.24-.53.42-.12.18-.19.4-.19.64a1 1 0 0 0 .47.9c.16.09.34.16.55.2l.62.15c.2.05.36.11.46.2a.39.39 0 0 1 .15.32.51.51 0 0 1-.08.29.56.56 0 0 1-.26.19.97.97 0 0 1-.41.07c-.12 0-.23-.01-.32-.04a.84.84 0 0 1-.25-.12.58.58 0 0 1-.26-.38h-.76Zm-3.73-2.9h.9l-1.28 2 1.26 2H4.1l-.85-1.42H3.2l-.85 1.41H1.5l1.24-2.02-1.23-1.98h.93l.84 1.44h.03l.82-1.44Zm1.93 3.32h1.7v.67h-2.5v-4h.8v3.33Zm7.63-3.33h.9l-1.28 2 1.26 2h-.91l-.85-1.41h-.04l-.85 1.41h-.86l1.24-2.02-1.23-1.98H12l.83 1.44h.04l.82-1.44Z"/></svg>