<svg xmlns="http://www.w3.org/2000/svg" width="16" height="16" viewBox="0 0 16 16"><path fill-rule="evenodd" d="M14 4.5V14a2 2 0 0 1-2 2H8v-1h4a1 1 0 0 0 1-1V4.5h-2A1.5 1.5 0 0 1 9.5 3V1H4a1 1 0 0 0-1 1v9H2V2a2 2 0 0 1 2-2h5.5zM3.19 15.29a1 1 0 0 1-.11-.45h.76a.6.6 0 0 0 .26.38q.1.08.24.12.15.04.32.04.25 0 .42-.07a1 1 0 0 0 .25-.2.5.5 0 0 0 .09-.28.4.4 0 0 0-.16-.33q-.15-.12-.46-.2l-.62-.13a2 2 0 0 1-.54-.22 1 1 0 0 1-.35-.37 1 1 0 0 1-.12-.52q0-.37.19-.64t.53-.42.77-.15q.46 0 .78.15.33.15.5.41.18.26.2.57H5.4a1 1 0 0 0-.12-.26 1 1 0 0 0-.24-.18 1 1 0 0 0-.37-.07q-.33 0-.52.15a.5.5 0 0 0-.18.39q0 .18.14.3a1 1 0 0 0 .4.17l.63.15q.33.07.56.2.24.14.38.36t.13.56q0 .37-.18.66a1.2 1.2 0 0 1-.54.44q-.35.16-.86.16-.38 0-.67-.1a1.4 1.4 0 0 1-.47-.24 1 1 0 0 1-.3-.38m-3.1-.03a1 1 0 0 1-.08-.47h.77l.07.27a.5.5 0 0 0 .45.25q.29 0 .42-.17.14-.16.14-.46v-2.75h.8v2.73q0 .66-.36 1-.36.35-.99.35a2 2 0 0 1-.57-.1 1 1 0 0 1-.4-.26 1 1 0 0 1-.25-.4"/></svg>