<svg xmlns="http://www.w3.org/2000/svg" width="16" height="16" viewBox="0 0 16 16" id="icon"><path fill-rule="evenodd" d="M14 4.5V14a2 2 0 0 1-2 2h-1v-1h1a1 1 0 0 0 1-1V4.5h-2A1.5 1.5 0 0 1 9.5 3V1H4a1 1 0 0 0-1 1v9H2V2a2 2 0 0 1 2-2h5.5zM1.6 11.85H0v4h.8V14.5h.8q.42 0 .73-.18.3-.17.46-.47a1.4 1.4 0 0 0 .16-.68q0-.37-.16-.67a1 1 0 0 0-.46-.48q-.3-.18-.73-.18m.55 1.33a1 1 0 0 1-.09.38 1 1 0 0 1-.24.24 1 1 0 0 1-.37.09H.79v-1.41h.66q.33 0 .51.18.19.18.19.52m4.48 2.67v-4h-.8v1.63H4.16v-1.63h-.79v4h.8v-1.71h1.67v1.7zm.7-4h1.6q.43 0 .73.18t.46.48.16.67-.16.68-.47.47a1.5 1.5 0 0 1-.73.18h-.8v1.34h-.8zm2.06 1.71a1 1 0 0 0 .08-.38q0-.34-.18-.52-.19-.18-.51-.18h-.66v1.4h.66a1 1 0 0 0 .37-.08 1 1 0 0 0 .24-.24"/></svg>