<svg xmlns="http://www.w3.org/2000/svg" width="16" height="16" viewBox="0 0 16 16" id="icon"><path fill-rule="evenodd" d="M14 4.5V14a2 2 0 0 1-2 2v-1a1 1 0 0 0 1-1V4.5h-2A1.5 1.5 0 0 1 9.5 3V1H4a1 1 0 0 0-1 1v9H2V2a2 2 0 0 1 2-2h5.5zm-6.91 9.17v.52q0 .38-.12.64a1 1 0 0 1-.32.39 1 1 0 0 1-.47.12 1 1 0 0 1-.47-.12 1 1 0 0 1-.32-.39 2 2 0 0 1-.12-.64v-.52q0-.39.12-.64a1 1 0 0 1 .32-.4 1 1 0 0 1 .47-.12q.26 0 .47.13a1 1 0 0 1 .32.39q.12.25.12.64m.8.52v-.52q0-.56-.2-.97a1.5 1.5 0 0 0-.6-.63q-.38-.22-.91-.22-.54 0-.92.22a1.4 1.4 0 0 0-.6.63q-.2.4-.2.97v.52q0 .56.2.97t.6.63.92.21.92-.21.58-.63.2-.97M.72 15.93v-2.66h.03l.96 2.16h.51l.95-2.16h.04v2.66h.71v-4h-.8l-1.14 2.6h-.03l-1.13-2.6H0v4zm9.54 0H9.3l-1.34-4h.92l.9 3.13h.04l.88-3.13h.88z"/></svg>