<svg viewBox="0 0 16 16"><path fill-rule="evenodd" d="M14 4.5V14a2 2 0 0 1-2 2v-1a1 1 0 0 0 1-1V4.5h-2A1.5 1.5 0 0 1 9.5 3V1H4a1 1 0 0 0-1 1v9H2V2a2 2 0 0 1 2-2h5.5L14 4.5Zm-7.84 9.17v.52c0 .25-.04.47-.12.64a.86.86 0 0 1-.32.39.88.88 0 0 1-.47.12.88.88 0 0 1-.47-.12.87.87 0 0 1-.32-.39 1.55 1.55 0 0 1-.12-.64v-.52c0-.26.04-.47.12-.64a.87.87 0 0 1 .32-.4.87.87 0 0 1 .47-.12c.18 0 .33.04.47.13a.86.86 0 0 1 .32.39c.08.17.12.38.12.64Zm.8.52v-.52c0-.37-.06-.7-.2-.97a1.46 1.46 0 0 0-.59-.63 1.8 1.8 0 0 0-.92-.22c-.35 0-.66.07-.92.22a1.44 1.44 0 0 0-.59.63c-.13.27-.2.6-.2.97v.52c0 .37.07.7.2.97.14.27.34.48.6.63.25.14.56.21.91.21.36 0 .67-.07.92-.21.26-.15.45-.36.59-.63.14-.28.2-.6.2-.97ZM0 11.93v4h1.46c.4 0 .73-.08 1-.24a1.45 1.45 0 0 0 .6-.7c.12-.3.19-.65.19-1.07 0-.42-.07-.78-.2-1.08a1.43 1.43 0 0 0-.59-.68 1.9 1.9 0 0 0-1-.23H0Zm.8.64h.55c.25 0 .45.05.61.15a.89.89 0 0 1 .36.46c.08.2.12.45.12.75a2.3 2.3 0 0 1-.07.6 1.14 1.14 0 0 1-.2.41.8.8 0 0 1-.33.26 1.3 1.3 0 0 1-.49.08H.8v-2.71Zm7.41.48a1.73 1.73 0 0 0-.1.64v.5c0 .24.03.45.1.62a.83.83 0 0 0 .3.4.84.84 0 0 0 .48.12.87.87 0 0 0 .4-.08.7.7 0 0 0 .27-.25.8.8 0 0 0 .12-.37h.77v.08a1.27 1.27 0 0 1-.23.67c-.14.2-.32.35-.55.46a1.81 1.81 0 0 1-.79.16 1.8 1.8 0 0 1-.91-.21 1.42 1.42 0 0 1-.57-.63c-.13-.27-.2-.6-.2-.98v-.5c0-.37.07-.7.2-.97.13-.28.32-.49.57-.64.25-.15.56-.22.91-.22a1.74 1.74 0 0 1 1.1.37 1.33 1.33 0 0 1 .46.96v.08h-.76a.85.85 0 0 0-.12-.38.7.7 0 0 0-.27-.26.8.8 0 0 0-.4-.1.81.81 0 0 0-.48.14.87.87 0 0 0-.3.4Z"/></svg>