<svg xmlns="http://www.w3.org/2000/svg" viewBox="0 0 16 16"><path d="M10 7v1.08c.54.16 1 .6 1 1.22v2.4c0 .82-.78 1.3-1.5 1.3h-3c-.72 0-1.5-.48-1.5-1.3V9.3c0-.63.46-1.06 1-1.22V7a2 2 0 1 1 4 0zM7 7v1h2V7a1 1 0 0 0-2 0zM6 9.3v2.4c0 .04.02.1.1.18a.64.64 0 0 0 .4.12h3a.64.64 0 0 0 .4-.13c.08-.06.1-.13.1-.17V9.3c0-.04-.02-.1-.1-.17A.64.64 0 0 0 9.5 9h-3a.64.64 0 0 0-.4.13c-.08.06-.1.13-.1.17z"/><path d="M14 14V4.5L9.5 0H4a2 2 0 0 0-2 2v12a2 2 0 0 0 2 2h8a2 2 0 0 0 2-2zM9.5 3A1.5 1.5 0 0 0 11 4.5h2V14a1 1 0 0 1-1 1H4a1 1 0 0 1-1-1V2a1 1 0 0 1 1-1h5.5v2z"/></svg>