<svg viewBox="0 0 16 16"><path d="M8.5 5a.5.5 0 1 0-1 0h-2A1.5 1.5 0 0 0 4 6.5v2A1.5 1.5 0 0 0 5.5 10h.47l-.44 1.34a.5.5 0 1 0 .94.32L7.03 10h.47v1a.5.5 0 0 0 1 0v-1h.47l.56 1.66a.5.5 0 1 0 .94-.32L10.03 10h.47A1.5 1.5 0 0 0 12 8.5v-2A1.5 1.5 0 0 0 10.5 5h-2zM5 6.5a.5.5 0 0 1 .5-.5h5a.5.5 0 0 1 .5.5v2a.5.5 0 0 1-.5.5h-5a.5.5 0 0 1-.5-.5v-2z"/><path d="M2 2a2 2 0 0 1 2-2h8a2 2 0 0 1 2 2v12a2 2 0 0 1-2 2H4a2 2 0 0 1-2-2V2zm10-1H4a1 1 0 0 0-1 1v12a1 1 0 0 0 1 1h8a1 1 0 0 0 1-1V2a1 1 0 0 0-1-1z"/></svg>