<svg xmlns="http://www.w3.org/2000/svg" width="16" height="16" viewBox="0 0 16 16"><path d="M5.53 13.09c.97 0 1.52-.79 1.52-2.2s-.55-2.2-1.52-2.2c-.98 0-1.53.78-1.53 2.2 0 1.41.55 2.2 1.53 2.2m-.84-2.2q.02-1.6.84-1.62.53 0 .73.72L4.7 11.14zm.83 1.62q-.54 0-.74-.72l1.56-1.14v.25q-.01 1.59-.82 1.6m5.32.51v-.6h-1.1V8.78h-.69l-1.19.79v.69L9 9.51h.05v2.9H7.86v.6z"/><path d="M4 0a2 2 0 0 0-2 2v12a2 2 0 0 0 2 2h8a2 2 0 0 0 2-2V2a2 2 0 0 0-2-2zm0 1h8a1 1 0 0 1 1 1v12a1 1 0 0 1-1 1H4a1 1 0 0 1-1-1V2a1 1 0 0 1 1-1"/></svg>