<svg xmlns="http://www.w3.org/2000/svg" viewBox="0 0 16 16"><path d="M7.5 5.5a.5.5 0 0 0-1 0v.63l-.55-.31a.5.5 0 1 0-.5.86L6 7l-.55.32a.5.5 0 1 0 .5.86l.55-.31v.63a.5.5 0 1 0 1 0v-.63l.55.31a.5.5 0 1 0 .5-.86L8 7l.55-.32a.5.5 0 1 0-.5-.86l-.55.31V5.5zm-2 4.5a.5.5 0 0 0 0 1h5a.5.5 0 0 0 0-1h-5zm0 2a.5.5 0 0 0 0 1h5a.5.5 0 0 0 0-1h-5z"/><path d="M14 14V4.5L9.5 0H4a2 2 0 0 0-2 2v12a2 2 0 0 0 2 2h8a2 2 0 0 0 2-2zM9.5 3A1.5 1.5 0 0 0 11 4.5h2V14a1 1 0 0 1-1 1H4a1 1 0 0 1-1-1V2a1 1 0 0 1 1-1h5.5v2z"/></svg>