<svg xmlns="http://www.w3.org/2000/svg" width="16" height="16" viewBox="0 0 16 16" id="icon"><path fill-rule="evenodd" d="M14 4.5V11h-1V4.5h-2A1.5 1.5 0 0 1 9.5 3V1H4a1 1 0 0 0-1 1v9H2V2a2 2 0 0 1 2-2h5.5zm-6.84 9.69v-.52a2 2 0 0 0-.12-.64 1 1 0 0 0-.32-.4 1 1 0 0 0-.47-.12 1 1 0 0 0-.47.13 1 1 0 0 0-.32.39 2 2 0 0 0-.12.64v.52q0 .38.12.64a1 1 0 0 0 .32.39 1 1 0 0 0 .47.12 1 1 0 0 0 .47-.12 1 1 0 0 0 .32-.39 2 2 0 0 0 .12-.64m.8-.52v.52q0 .56-.2.97a1.5 1.5 0 0 1-.59.63q-.38.21-.92.21a2 2 0 0 1-.92-.21 1.5 1.5 0 0 1-.59-.63 2 2 0 0 1-.2-.97v-.52q0-.57.2-.97t.6-.63.91-.22.92.22.59.63q.2.4.2.97M1 15.93v-4h1.46q.6 0 1 .23t.6.68.19 1.07q0 .64-.2 1.09t-.6.69-1 .23zm1.35-3.36H1.8v2.7h.56q.28 0 .49-.07a1 1 0 0 0 .33-.26q.13-.17.2-.42a2 2 0 0 0 .06-.59q0-.45-.11-.75a1 1 0 0 0-.36-.46q-.23-.15-.6-.15Zm6.76 1.12q0-.38.1-.64a1 1 0 0 1 .3-.4 1 1 0 0 1 .48-.13q.22 0 .4.1a1 1 0 0 1 .27.26 1 1 0 0 1 .12.38h.76v-.08a1.3 1.3 0 0 0-.46-.96 1.4 1.4 0 0 0-.5-.27 2 2 0 0 0-.6-.1q-.53 0-.9.22-.38.23-.58.64-.2.4-.2.97v.5q0 .57.2.98.2.4.57.63.37.21.91.21.44 0 .79-.16t.55-.46a1.3 1.3 0 0 0 .23-.67v-.08h-.77a1 1 0 0 1-.12.37 1 1 0 0 1-.27.25 1 1 0 0 1-.4.08 1 1 0 0 1-.48-.13 1 1 0 0 1-.3-.4 2 2 0 0 1-.1-.62zm5.1-1.76h.89l-1.28 2 1.25 2h-.9l-.85-1.42h-.04l-.85 1.42h-.86l1.24-2.02-1.23-1.98h.93l.83 1.44h.04z"/></svg>