<svg xmlns="http://www.w3.org/2000/svg" viewBox="0 0 16 16"><path fill-rule="evenodd" d="M14 4.5V14a2 2 0 0 1-2 2H9v-1h3a1 1 0 0 0 1-1V4.5h-2A1.5 1.5 0 0 1 9.5 3V1H4a1 1 0 0 0-1 1v9H2V2a2 2 0 0 1 2-2h5.5L14 4.5ZM.7 13.19v2.66H0v-4h.8l1.15 2.6h.02l1.14-2.6h.8v4H3.2v-2.66h-.04l-.95 2.16H1.7l-.96-2.16H.71Zm3.92 2.66v-4h1.46c.41 0 .74.08 1 .23.27.16.47.39.6.68.13.3.2.66.2 1.08 0 .42-.07.78-.2 1.08-.13.3-.33.53-.6.7a2 2 0 0 1-1 .23H4.63Zm1.36-3.35h-.56v2.7h.56c.18 0 .34-.03.48-.08a.8.8 0 0 0 .34-.25 1.14 1.14 0 0 0 .2-.42c.04-.17.06-.37.06-.6a2.1 2.1 0 0 0-.12-.75.89.89 0 0 0-.35-.45c-.16-.1-.36-.16-.61-.16Z"/></svg>