<svg xmlns="http://www.w3.org/2000/svg" viewBox="0 0 16 16"><path fill-rule="evenodd" d="M14 4.5V14a2 2 0 0 1-2 2h-1v-1h1a1 1 0 0 0 1-1V4.5h-2A1.5 1.5 0 0 1 9.5 3V1H4a1 1 0 0 0-1 1v9H2V2a2 2 0 0 1 2-2h5.5L14 4.5ZM1.6 11.85H0v4h.8V14.5h.8c.28 0 .53-.06.73-.18.2-.11.35-.27.46-.47a1.42 1.42 0 0 0 .16-.68c0-.25-.05-.47-.16-.67a1.18 1.18 0 0 0-.46-.48 1.4 1.4 0 0 0-.73-.18Zm.54 1.33a.8.8 0 0 1-.08.38.57.57 0 0 1-.24.24.8.8 0 0 1-.37.09H.79v-1.41h.66a.7.7 0 0 1 .51.18c.12.12.18.3.18.52Zm2.82-1.33h-1.6v4h.8V14.5h.8c.28 0 .53-.06.73-.18.2-.11.36-.27.46-.47a1.51 1.51 0 0 0 0-1.35 1.18 1.18 0 0 0-.46-.48 1.4 1.4 0 0 0-.73-.18Zm.55 1.33a.8.8 0 0 1-.09.38.57.57 0 0 1-.24.24.8.8 0 0 1-.37.09h-.66v-1.41h.66a.7.7 0 0 1 .51.18c.13.12.19.3.19.52Zm2.76-.67v3.34h-.79V12.5H6.35v-.66H9.4v.66H8.27Z"/></svg>