<svg xmlns="http://www.w3.org/2000/svg" width="16" height="16" viewBox="0 0 16 16" id="icon"><path fill-rule="evenodd" d="M14 4.5V14a2 2 0 0 1-2 2h-1v-1h1a1 1 0 0 0 1-1V4.5h-2A1.5 1.5 0 0 1 9.5 3V1H4a1 1 0 0 0-1 1v9H2V2a2 2 0 0 1 2-2h5.5zM2.62 13.67v.52q0 .38-.12.64a1 1 0 0 1-.32.39 1 1 0 0 1-.47.12 1 1 0 0 1-.47-.12 1 1 0 0 1-.32-.39 2 2 0 0 1-.11-.64v-.52q0-.39.11-.64a1 1 0 0 1 .32-.4 1 1 0 0 1 .47-.12q.27 0 .47.13a1 1 0 0 1 .32.39q.12.25.12.64m.8.52v-.52q0-.56-.2-.97a1.5 1.5 0 0 0-.59-.63q-.38-.22-.92-.22-.53 0-.92.22a1.4 1.4 0 0 0-.59.63q-.2.4-.2.97v.52q0 .56.2.97t.6.63.91.21.92-.21a1.5 1.5 0 0 0 .59-.63q.2-.41.2-.97m2 1.74v-3.34h1.14v-.66H3.5v.66h1.13v3.34zm2.26-1.6v1.6h-.8v-4h2.55v.65H7.68v1.12h1.6v.63z"/></svg>