<svg xmlns="http://www.w3.org/2000/svg" width="16" height="16" viewBox="0 0 16 16"><path fill-rule="evenodd" d="M14 4.5V14a2 2 0 0 1-2 2v-1a1 1 0 0 0 1-1V4.5h-2A1.5 1.5 0 0 1 9.5 3V1H4a1 1 0 0 0-1 1v9H2V2a2 2 0 0 1 2-2h5.5zM0 14.84a1.1 1.1 0 0 0 .4.82q.2.17.48.26c.28.09.41.09.66.09q.51 0 .86-.16.36-.16.54-.44a1 1 0 0 0 .19-.66q0-.33-.14-.56a1 1 0 0 0-.37-.35 2 2 0 0 0-.57-.21l-.62-.15a1 1 0 0 1-.4-.17.4.4 0 0 1-.15-.3q0-.24.19-.39t.51-.15q.22 0 .37.07a1 1 0 0 1 .25.18 1 1 0 0 1 .12.26h.75a1 1 0 0 0-.2-.57 1 1 0 0 0-.5-.4 2 2 0 0 0-.78-.16q-.44 0-.78.15-.33.15-.53.42-.19.27-.19.64 0 .3.13.52t.35.37.54.21l.62.15q.3.07.46.2a.4.4 0 0 1 .15.32q0 .16-.08.29a1 1 0 0 1-.26.19q-.17.07-.41.07-.18 0-.32-.04l-.25-.11a.6.6 0 0 1-.26-.39zm6.88 1.49-.5-.74q.26-.24.4-.6.13-.36.13-.8v-.5q0-.56-.2-.97a1.5 1.5 0 0 0-.6-.64q-.38-.22-.91-.22t-.92.22-.59.64a2 2 0 0 0-.2.96v.5q0 .56.2.97t.6.63a2 2 0 0 0 .9.23 2 2 0 0 0 .6-.1l.3.42zM4.26 14.2v-.52q0-.37.12-.63a1 1 0 0 1 .32-.4 1 1 0 0 1 .5-.14q.28 0 .5.14a1 1 0 0 1 .32.4q.11.26.11.63v.52q0 .25-.05.45t-.16.33l-.1-.14-.1-.14h-.74l.45.65-.25.04a1 1 0 0 1-.49-.14 1 1 0 0 1-.32-.4 2 2 0 0 1-.1-.65m3.98 1.06h1.7v.67h-2.5v-4h.8z"/></svg>