<svg xmlns="http://www.w3.org/2000/svg" width="16" height="16" viewBox="0 0 16 16"><path fill-rule="evenodd" d="M14 4.5V14a2 2 0 0 1-2 2v-1a1 1 0 0 0 1-1V4.5h-2A1.5 1.5 0 0 1 9.5 3V1H4a1 1 0 0 0-1 1v9H2V2a2 2 0 0 1 2-2h5.5zm-4.91 9.67h-.44v-.6h.42a1 1 0 0 0 .32-.08 1 1 0 0 0 .22-.2.5.5 0 0 0 .08-.29.5.5 0 0 0-.18-.39.7.7 0 0 0-.44-.15l-.25.04-.2.12a.5.5 0 0 0-.18.34h-.73q0-.23.1-.43t.27-.35.43-.24.58-.09q.42 0 .73.13.3.14.47.37a1 1 0 0 1 .17.54 1 1 0 0 1-.12.48 1 1 0 0 1-.62.44v.04a1 1 0 0 1 .72.44 1 1 0 0 1 .14.52q0 .28-.11.5a1 1 0 0 1-.33.38q-.21.15-.49.24-.27.08-.58.08-.45 0-.77-.16a1 1 0 0 1-.49-.4 1 1 0 0 1-.18-.57h.73a.5.5 0 0 0 .1.26 1 1 0 0 0 .26.18 1 1 0 0 0 .35.06 1 1 0 0 0 .39-.07 1 1 0 0 0 .25-.22 1 1 0 0 0 .09-.32.6.6 0 0 0-.34-.52 1 1 0 0 0-.37-.08M.7 15.93v-2.66h.03l.96 2.16h.51l.95-2.16h.04v2.66h.71v-4h-.8l-1.14 2.6h-.03L.8 11.92H0v4zm5.45-4h-1.6v4h.8v-1.35h.8q.43 0 .73-.17t.46-.47a1.4 1.4 0 0 0 .17-.68q0-.37-.16-.68a1 1 0 0 0-.46-.47 1.4 1.4 0 0 0-.74-.18m.55 1.33a1 1 0 0 1-.09.38 1 1 0 0 1-.23.24 1 1 0 0 1-.38.08h-.66v-1.4H6q.33 0 .51.18.19.18.19.52"/></svg>