<svg xmlns="http://www.w3.org/2000/svg" width="16" height="16" viewBox="0 0 16 16"><path fill-rule="evenodd" d="M14 4.5V14a2 2 0 0 1-2 2h-1v-1h1a1 1 0 0 0 1-1V4.5h-2A1.5 1.5 0 0 1 9.5 3V1H4a1 1 0 0 0-1 1v9H2V2a2 2 0 0 1 2-2h5.5zM3.52 14.84a1.1 1.1 0 0 0 .4.82q.2.17.48.26t.66.09q.5 0 .86-.16.35-.16.54-.44t.19-.66q0-.33-.14-.56a1 1 0 0 0-.37-.35 2 2 0 0 0-.57-.21l-.62-.15a1 1 0 0 1-.4-.17.4.4 0 0 1-.15-.3q0-.24.19-.39.18-.15.5-.15.22 0 .38.07a1 1 0 0 1 .24.18 1 1 0 0 1 .12.26h.75a1 1 0 0 0-.2-.57 1 1 0 0 0-.5-.4 2 2 0 0 0-.78-.16q-.43 0-.77.15t-.53.42-.19.64q0 .3.12.52.13.23.36.37t.53.21l.62.15q.31.07.47.2a.4.4 0 0 1 .15.32.5.5 0 0 1-.09.29 1 1 0 0 1-.25.19q-.17.07-.42.07-.17 0-.32-.04l-.24-.11a.6.6 0 0 1-.26-.39zM.8 13.7q0-.37.1-.63a1 1 0 0 1 .3-.4 1 1 0 0 1 .48-.14q.22 0 .4.1a1 1 0 0 1 .27.26 1 1 0 0 1 .12.38h.76v-.07a1.3 1.3 0 0 0-.47-.96 1.4 1.4 0 0 0-.48-.28 2 2 0 0 0-.61-.1q-.53 0-.91.23-.38.22-.57.63-.2.41-.2.98v.5q0 .57.2.97.19.41.57.63t.9.22q.45 0 .8-.17T3 15.4a1.3 1.3 0 0 0 .23-.67v-.08h-.76a1 1 0 0 1-.12.36 1 1 0 0 1-.27.25 1 1 0 0 1-.4.09 1 1 0 0 1-.48-.13 1 1 0 0 1-.3-.4 2 2 0 0 1-.1-.62zm8.24 2.24h-.96l-1.34-4h.92l.9 3.14h.04l.88-3.14h.88z"/></svg>