<svg xmlns="http://www.w3.org/2000/svg" width="16" height="16" viewBox="0 0 16 16"><path d="M5.53 10.27c-.55 0-.84.57-.84 1.62l.01.25 1.56-1.15q-.2-.71-.73-.72m-.74 2.51q.2.71.74.72.82-.02.83-1.62l-.01-.25z"/><path d="M9.3 0H4a2 2 0 0 0-2 2v12a2 2 0 0 0 2 2h8a2 2 0 0 0 2-2V4.7a1 1 0 0 0-.3-.7L10 .3a1 1 0 0 0-.7-.3m.2 3.5v-2l3 3h-2a1 1 0 0 1-1-1m-2.45 8.39c0 1.41-.55 2.2-1.52 2.2-.98 0-1.53-.79-1.53-2.2s.55-2.2 1.53-2.2c.97 0 1.52.78 1.52 2.2m3.8 1.51v.6h-3v-.6h1.19v-2.9h-.05l-1.14.75v-.7l1.19-.78h.69v3.64z"/></svg>