<svg viewBox="0 0 16 16"><path fill-rule="evenodd" d="M14 4.5V14a2 2 0 0 1-2 2h-1v-1h1a1 1 0 0 0 1-1V4.5h-2A1.5 1.5 0 0 1 9.5 3V1H4a1 1 0 0 0-1 1v9H2V2a2 2 0 0 1 2-2h5.5L14 4.5Zm-4.34 8.13c.08.15.12.32.14.5h-.78a.8.8 0 0 0-.1-.26.69.69 0 0 0-.16-.19.7.7 0 0 0-.24-.12.96.96 0 0 0-.3-.05.8.8 0 0 0-.66.3c-.16.2-.24.5-.24.86v.5c0 .23.03.43.1.61a.88.88 0 0 0 .3.41.87.87 0 0 0 .52.15.97.97 0 0 0 .46-.1.67.67 0 0 0 .27-.26c.06-.11.1-.23.1-.36v-.26h-.83v-.59h1.58v.8c0 .2-.04.38-.1.55a1.29 1.29 0 0 1-.3.46 1.37 1.37 0 0 1-.49.31c-.2.07-.43.11-.7.11a1.98 1.98 0 0 1-.75-.13 1.45 1.45 0 0 1-.53-.38 1.58 1.58 0 0 1-.32-.58 2.48 2.48 0 0 1-.1-.74v-.5c0-.37.06-.69.2-.96.13-.27.32-.48.58-.63.25-.15.56-.23.92-.23a1.64 1.64 0 0 1 1.12.38c.13.11.24.25.31.4ZM0 14.8c0 .16.03.32.08.46.06.15.14.28.24.4.12.1.25.2.41.26.17.06.36.1.57.1.42 0 .75-.12.98-.35.24-.23.36-.57.36-1v-2.73h-.79v2.74a.7.7 0 0 1-.14.47c-.09.1-.23.16-.42.16a.5.5 0 0 1-.45-.25.58.58 0 0 1-.07-.27H0Zm4.92-2.86h-1.6v4h.8v-1.35h.8c.28 0 .53-.05.73-.17.2-.12.36-.28.46-.47a1.51 1.51 0 0 0 0-1.36 1.18 1.18 0 0 0-.46-.47 1.4 1.4 0 0 0-.73-.18Zm.55 1.33a.8.8 0 0 1-.09.38.57.57 0 0 1-.24.24.8.8 0 0 1-.37.08H4.1v-1.4h.66a.7.7 0 0 1 .51.18c.12.12.19.3.19.52Z"/></svg>