<svg viewBox="0 0 16 16"><path fill-rule="evenodd" d="M14 4.5V14a2 2 0 0 1-2 2H9v-1h3a1 1 0 0 0 1-1V4.5h-2A1.5 1.5 0 0 1 9.5 3V1H4a1 1 0 0 0-1 1v9H2V2a2 2 0 0 1 2-2h5.5L14 4.5ZM3.28 13.12a1.4 1.4 0 0 0-.14-.49 1.32 1.32 0 0 0-.32-.4 1.45 1.45 0 0 0-.48-.28 1.88 1.88 0 0 0-.63-.1c-.36 0-.67.08-.93.23a1.48 1.48 0 0 0-.58.63 2.14 2.14 0 0 0-.2.95v.5c0 .28.04.53.1.75a1.57 1.57 0 0 0 .86.96c.21.09.46.13.75.13.27 0 .5-.04.7-.11a1.29 1.29 0 0 0 .79-.77c.06-.17.1-.36.1-.55v-.8H1.71v.6h.82v.25c0 .13-.03.25-.09.36a.67.67 0 0 1-.27.26.97.97 0 0 1-.46.1.87.87 0 0 1-.52-.15.88.88 0 0 1-.3-.41 1.78 1.78 0 0 1-.1-.61v-.5c0-.37.08-.65.23-.85a.8.8 0 0 1 .67-.3.96.96 0 0 1 .3.04.9.9 0 0 1 .24.12.69.69 0 0 1 .17.2.8.8 0 0 1 .1.24h.77Zm1.35 2.8v-4h-.79v4h.79Zm1.5-1.58v1.59h-.8v-4h2.55v.65H6.12v1.12h1.6v.63h-1.6Z"/></svg>