<svg viewBox="0 0 16 16"><path fill-rule="evenodd" d="M14 4.5V14a2 2 0 0 1-2 2h-1v-1h1a1 1 0 0 0 1-1V4.5h-2A1.5 1.5 0 0 1 9.5 3V1H4a1 1 0 0 0-1 1v9H2V2a2 2 0 0 1 2-2h5.5L14 4.5ZM3.52 14.84a1.13 1.13 0 0 0 .4.82c.13.11.29.2.48.26s.4.09.66.09c.34 0 .62-.06.86-.16s.42-.25.54-.44c.12-.19.19-.4.19-.66 0-.22-.05-.4-.14-.56a1 1 0 0 0-.37-.35 2.03 2.03 0 0 0-.57-.21l-.62-.15a.97.97 0 0 1-.4-.17.37.37 0 0 1-.15-.3c0-.16.06-.29.19-.39a.8.8 0 0 1 .5-.15c.15 0 .27.02.38.07a.62.62 0 0 1 .24.18.56.56 0 0 1 .12.26h.75a1.1 1.1 0 0 0-.2-.57 1.21 1.21 0 0 0-.5-.4 1.81 1.81 0 0 0-.78-.16c-.29 0-.55.05-.77.15-.23.1-.4.24-.53.42s-.19.4-.19.64c0 .2.04.38.12.52.09.15.2.27.36.37.15.1.33.17.53.21l.62.15c.21.05.36.11.47.2a.39.39 0 0 1 .15.32.5.5 0 0 1-.09.29.56.56 0 0 1-.25.19c-.11.05-.25.07-.42.07-.11 0-.22-.01-.32-.04a.84.84 0 0 1-.24-.12.58.58 0 0 1-.26-.38h-.76ZM.8 13.7c0-.24.03-.46.1-.63a.87.87 0 0 1 .3-.4.81.81 0 0 1 .47-.14.8.8 0 0 1 .4.1.7.7 0 0 1 .28.26.85.85 0 0 1 .12.38h.76v-.07a1.33 1.33 0 0 0-.47-.96 1.44 1.44 0 0 0-.48-.28 1.84 1.84 0 0 0-.61-.1c-.36 0-.66.08-.91.23-.25.15-.44.36-.57.63-.13.28-.2.6-.2.98v.5c0 .38.06.7.2.97.12.28.32.48.57.63.25.15.55.22.9.22.3 0 .56-.06.8-.17.22-.1.4-.26.54-.45a1.27 1.27 0 0 0 .23-.67v-.08h-.76a.8.8 0 0 1-.12.36.7.7 0 0 1-.27.25.87.87 0 0 1-.4.09.84.84 0 0 1-.48-.13.83.83 0 0 1-.3-.4 1.7 1.7 0 0 1-.1-.62v-.5Zm8.24 2.24h-.96l-1.34-4h.92l.9 3.14h.04l.88-3.14h.88l-1.32 4Z"/></svg>