<svg xmlns="http://www.w3.org/2000/svg" viewBox="0 0 16 16"><path fill-rule="evenodd" d="M14 4.5V11h-1V4.5h-2A1.5 1.5 0 0 1 9.5 3V1H4a1 1 0 0 0-1 1v9H2V2a2 2 0 0 1 2-2h5.5L14 4.5ZM1.41 15.29a1.18 1.18 0 0 1-.11-.45h.76a.58.58 0 0 0 .26.38.81.81 0 0 0 .25.12c.1.03.2.04.32.04a1 1 0 0 0 .41-.07.56.56 0 0 0 .26-.2.5.5 0 0 0 .08-.28.39.39 0 0 0-.15-.33 1.2 1.2 0 0 0-.47-.2l-.61-.13a1.72 1.72 0 0 1-.54-.22 1 1 0 0 1-.36-.37 1.07 1.07 0 0 1-.12-.52c0-.24.07-.46.2-.64.12-.18.3-.32.52-.42.22-.1.48-.15.78-.15.3 0 .56.05.78.15a1.15 1.15 0 0 1 .7.98h-.75a.56.56 0 0 0-.12-.26.62.62 0 0 0-.25-.18.92.92 0 0 0-.37-.07.79.79 0 0 0-.51.15.47.47 0 0 0-.19.39c0 .12.05.22.15.3a.97.97 0 0 0 .4.17l.62.15c.22.05.4.12.57.2a1 1 0 0 1 .37.36 1 1 0 0 1 .14.56c0 .25-.07.47-.19.66a1.22 1.22 0 0 1-.54.44c-.23.1-.52.16-.86.16a2.2 2.2 0 0 1-.66-.1 1.4 1.4 0 0 1-.48-.24 1.13 1.13 0 0 1-.29-.38Zm4.19-.39-.31 1.03h-.8l1.34-4h.92l1.34 4h-.84l-.32-1.03H5.6Zm1.18-.59-.5-1.61h-.03l-.49 1.61h1.02Zm1.35.53a1.13 1.13 0 0 0 .4.82c.13.11.29.2.48.26s.4.09.66.09c.34 0 .63-.06.86-.16a1.16 1.16 0 0 0 .73-1.1c0-.22-.05-.4-.14-.56a1 1 0 0 0-.37-.35 2.03 2.03 0 0 0-.57-.21l-.62-.15a.97.97 0 0 1-.4-.17A.37.37 0 0 1 9 13c0-.16.06-.29.19-.39a.8.8 0 0 1 .51-.15c.14 0 .27.02.37.07a.62.62 0 0 1 .25.18.56.56 0 0 1 .12.26h.75a1.1 1.1 0 0 0-.2-.57 1.21 1.21 0 0 0-.5-.4 1.81 1.81 0 0 0-.78-.16c-.3 0-.56.05-.78.15-.23.1-.4.24-.53.42-.12.18-.19.4-.19.64a1.01 1.01 0 0 0 .47.9c.16.09.34.16.55.2l.61.15c.21.05.37.11.47.2a.39.39 0 0 1 .15.32.5.5 0 0 1-.09.29.56.56 0 0 1-.25.19 1 1 0 0 1-.41.07c-.12 0-.23-.01-.32-.04a.84.84 0 0 1-.25-.12.58.58 0 0 1-.26-.38h-.76Zm3.5.45a1.18 1.18 0 0 1-.11-.45h.76a.58.58 0 0 0 .26.38c.07.05.15.1.25.12.1.03.2.04.32.04a1 1 0 0 0 .41-.07.56.56 0 0 0 .26-.2.5.5 0 0 0 .08-.28.39.39 0 0 0-.15-.33 1.2 1.2 0 0 0-.46-.2l-.62-.13a1.72 1.72 0 0 1-.54-.22 1 1 0 0 1-.35-.37 1.07 1.07 0 0 1-.13-.52c0-.24.07-.46.2-.64.12-.18.3-.32.52-.42.23-.1.49-.15.78-.15.3 0 .56.05.78.15a1.15 1.15 0 0 1 .7.98h-.75a.56.56 0 0 0-.12-.26.62.62 0 0 0-.25-.18.92.92 0 0 0-.37-.07.79.79 0 0 0-.51.15.47.47 0 0 0-.18.39c0 .12.04.22.14.3a.97.97 0 0 0 .4.17l.62.15c.22.05.4.12.57.2a1 1 0 0 1 .37.36 1 1 0 0 1 .14.56c0 .25-.06.47-.19.66a1.22 1.22 0 0 1-.54.44c-.23.1-.52.16-.86.16a2.19 2.19 0 0 1-.66-.1 1.4 1.4 0 0 1-.48-.24 1.13 1.13 0 0 1-.29-.38Z"/></svg>