<svg xmlns="http://www.w3.org/2000/svg" viewBox="0 0 16 16"><path fill-rule="evenodd" d="M14 4.5V14a2 2 0 0 1-2 2H8v-1h4a1 1 0 0 0 1-1V4.5h-2A1.5 1.5 0 0 1 9.5 3V1H4a1 1 0 0 0-1 1v9H2V2a2 2 0 0 1 2-2h5.5L14 4.5ZM.11 15.29a1.18 1.18 0 0 1-.11-.45h.77a.58.58 0 0 0 .25.38c.07.05.15.1.25.12.1.03.2.04.32.04a1 1 0 0 0 .41-.07.56.56 0 0 0 .26-.2.5.5 0 0 0 .08-.28.39.39 0 0 0-.15-.33 1.2 1.2 0 0 0-.46-.2l-.62-.14a1.72 1.72 0 0 1-.54-.21 1 1 0 0 1-.35-.37 1.07 1.07 0 0 1-.13-.52c0-.24.07-.46.2-.64.12-.18.3-.32.52-.42.23-.1.48-.15.78-.15.3 0 .56.05.78.15a1.15 1.15 0 0 1 .7.98h-.75a.56.56 0 0 0-.12-.26.62.62 0 0 0-.25-.18.92.92 0 0 0-.37-.07.79.79 0 0 0-.51.15.47.47 0 0 0-.19.39c0 .12.05.22.15.3a.97.97 0 0 0 .4.17l.62.14c.22.05.4.12.57.22a1 1 0 0 1 .37.35 1 1 0 0 1 .14.56c0 .25-.06.47-.19.66a1.22 1.22 0 0 1-.54.44c-.23.1-.52.16-.86.16a2.2 2.2 0 0 1-.66-.1 1.4 1.4 0 0 1-.48-.25 1.13 1.13 0 0 1-.29-.37Zm6.67-3.36v4H6v-1.71H4.31v1.71h-.8v-4h.8v1.63h1.68v-1.63h.8Z"/></svg>