<svg xmlns="http://www.w3.org/2000/svg" width="16" height="16" viewBox="0 0 16 16"><path fill-rule="evenodd" d="M14 4.5V11h-1V4.5h-2A1.5 1.5 0 0 1 9.5 3V1H4a1 1 0 0 0-1 1v9H2V2a2 2 0 0 1 2-2h5.5zM1.41 15.29a1 1 0 0 1-.11-.45h.76a.6.6 0 0 0 .26.38l.25.12q.14.04.32.04.24 0 .41-.07a1 1 0 0 0 .26-.2.5.5 0 0 0 .08-.28.4.4 0 0 0-.15-.33q-.16-.12-.47-.2l-.61-.13a2 2 0 0 1-.54-.22 1 1 0 0 1-.36-.37 1 1 0 0 1-.12-.52q0-.37.2-.64.18-.27.52-.42t.78-.15.78.15q.32.15.5.41t.2.57h-.75a1 1 0 0 0-.12-.26 1 1 0 0 0-.25-.18 1 1 0 0 0-.37-.07q-.32 0-.51.15a.5.5 0 0 0-.19.39q0 .18.15.3a1 1 0 0 0 .4.17l.62.15q.33.07.57.2t.37.36.14.56q0 .37-.19.66a1.2 1.2 0 0 1-.54.44q-.35.16-.86.16-.38 0-.66-.1a1.4 1.4 0 0 1-.48-.24 1 1 0 0 1-.29-.38m4.19-.39-.32 1.03h-.8l1.35-4h.92l1.34 4h-.84l-.32-1.03zm1.18-.59-.5-1.61h-.03l-.49 1.61zm1.35.53a1.1 1.1 0 0 0 .4.82q.2.17.48.26t.66.09q.5 0 .86-.16.35-.16.54-.44t.19-.66q0-.33-.14-.56a1 1 0 0 0-.37-.35 2 2 0 0 0-.57-.21l-.62-.15a1 1 0 0 1-.4-.17A.4.4 0 0 1 9 13q0-.24.19-.39t.51-.15q.21 0 .37.07a1 1 0 0 1 .25.18 1 1 0 0 1 .12.26h.75a1 1 0 0 0-.2-.57 1 1 0 0 0-.5-.4 2 2 0 0 0-.78-.16q-.44 0-.78.15t-.53.42-.19.64q0 .3.12.52.13.23.36.37t.54.21l.61.15q.31.07.47.2a.4.4 0 0 1 .15.32.5.5 0 0 1-.09.29 1 1 0 0 1-.25.19q-.17.07-.41.07-.18 0-.32-.04l-.25-.11a.6.6 0 0 1-.26-.39zm3.5.45a1 1 0 0 1-.11-.45h.76a.6.6 0 0 0 .26.39q.1.07.25.1.14.05.32.05.24 0 .41-.07a1 1 0 0 0 .26-.2.5.5 0 0 0 .08-.28.4.4 0 0 0-.15-.33q-.15-.12-.47-.2l-.61-.13a2 2 0 0 1-.54-.22 1 1 0 0 1-.35-.37 1 1 0 0 1-.13-.52q0-.37.2-.64.18-.27.52-.42t.78-.15.78.15q.32.16.5.41.18.26.2.57h-.75a1 1 0 0 0-.12-.26 1 1 0 0 0-.25-.18 1 1 0 0 0-.37-.07q-.32 0-.51.15a.5.5 0 0 0-.18.39q0 .18.14.3a1 1 0 0 0 .4.17l.62.15q.33.07.57.2t.37.36.14.56q0 .37-.19.66a1.2 1.2 0 0 1-.54.44q-.35.16-.86.16a2 2 0 0 1-.66-.1 1.4 1.4 0 0 1-.48-.24 1 1 0 0 1-.29-.38"/></svg>