<svg xmlns="http://www.w3.org/2000/svg" width="16" height="16" viewBox="0 0 16 16" id="icon"><path fill-rule="evenodd" d="M14 4.5V14a2 2 0 0 1-2 2h-.5v-1h.5a1 1 0 0 0 1-1V4.5h-2A1.5 1.5 0 0 1 9.5 3V1H4a1 1 0 0 0-1 1v9H2V2a2 2 0 0 1 2-2h5.5zM3.12 14.84a1.1 1.1 0 0 0 .4.82q.2.17.47.26.29.09.67.09.5 0 .86-.16.35-.16.54-.44a1 1 0 0 0 .18-.66q0-.33-.13-.56a1 1 0 0 0-.38-.35 2 2 0 0 0-.56-.21l-.62-.15a1 1 0 0 1-.4-.17A.4.4 0 0 1 4 13q0-.24.18-.39.2-.15.52-.15.21 0 .37.07a1 1 0 0 1 .24.18 1 1 0 0 1 .12.26h.75a1 1 0 0 0-.2-.57 1 1 0 0 0-.5-.4 2 2 0 0 0-.78-.16q-.44 0-.77.15-.34.15-.53.42t-.19.64q0 .3.12.52t.35.37.54.21l.62.15q.31.07.46.2a.4.4 0 0 1 .16.32.5.5 0 0 1-.09.29 1 1 0 0 1-.25.19q-.17.07-.42.07-.17 0-.32-.04l-.24-.11a.6.6 0 0 1-.26-.39zm-1.52-2.9H0v4h.8v-1.35h.8q.42 0 .73-.17.3-.18.46-.48a1.4 1.4 0 0 0 .16-.67q0-.38-.16-.68a1 1 0 0 0-.46-.48q-.3-.18-.73-.18m.55 1.34a1 1 0 0 1-.09.38 1 1 0 0 1-.24.24 1 1 0 0 1-.37.08H.79v-1.4h.66q.33 0 .51.17.19.19.19.53m4.6 2.66v-4h1.46q.61 0 1 .24.4.23.6.68.2.44.2 1.07t-.2 1.09-.6.68-1 .24zm1.36-3.35h-.57v2.7h.57q.28 0 .48-.08a1 1 0 0 0 .33-.25 1 1 0 0 0 .2-.42q.07-.25.07-.6a2 2 0 0 0-.12-.75 1 1 0 0 0-.35-.45q-.24-.15-.61-.15"/></svg>