<svg viewBox="0 0 16 16"><path fill-rule="evenodd" d="M14 4.5V14a2 2 0 0 1-2 2v-1a1 1 0 0 0 1-1V4.5h-2A1.5 1.5 0 0 1 9.5 3V1H4a1 1 0 0 0-1 1v9H2V2a2 2 0 0 1 2-2h5.5L14 4.5ZM.7 15.85v-2.66h.04l.96 2.16h.51l.95-2.16h.04v2.66h.71v-4h-.8l-1.14 2.6h-.03l-1.13-2.6H0v4h.7Zm3.56-4v4h1.46c.4 0 .74-.08 1-.24a1.45 1.45 0 0 0 .6-.69c.13-.3.2-.66.2-1.08 0-.42-.07-.78-.2-1.08a1.43 1.43 0 0 0-.6-.68 1.97 1.97 0 0 0-1-.23H4.26Zm.8.65h.56a1 1 0 0 1 .6.15.89.89 0 0 1 .36.45c.08.2.12.45.12.75 0 .23-.02.43-.07.6a1.14 1.14 0 0 1-.2.42.8.8 0 0 1-.33.25 1.3 1.3 0 0 1-.48.08h-.56v-2.7Zm4.78-.65h.9l-1.28 2 1.25 2h-.9l-.85-1.42h-.04l-.85 1.42H7.2l1.24-2.02-1.23-1.98h.93l.83 1.44h.04l.82-1.44Z"/></svg>