<svg xmlns="http://www.w3.org/2000/svg" width="16" height="16" viewBox="0 0 16 16" id="icon"><path d="M5.52 10.42q.21-.12.46-.23l-.45.6q-.43.5-.63.57l-.04.02-.02-.05q-.1-.14.04-.36.15-.24.64-.55m2.46-1.64-.36.07.5-1.05a12 12 0 0 0 .51.86zm2.52.94a4 4 0 0 1-.43-.41q.34 0 .61.05.46.1.52.2l.02.07a.4.4 0 0 1-.06.2.3.3 0 0 1-.09.13l-.07.01q-.14.02-.5-.25M8.28 4.97q-.06.36-.2.83l-.1-.35a2 2 0 0 1-.04-.82q.06-.25.2-.28l.14-.04q.03.04.04.2 0 .18-.04.46"/><path fill-rule="evenodd" d="M4 0h8a2 2 0 0 1 2 2v12a2 2 0 0 1-2 2H4a2 2 0 0 1-2-2V2a2 2 0 0 1 2-2m.17 11.67q.13.29.43.42.33.09.58-.03c.32-.13.64-.44.93-.79.33-.4.68-.93 1.02-1.5a12 12 0 0 1 2-.41q.45.57.9.95c.29.21.61.4.94.41a1 1 0 0 0 .51-.14q.24-.15.35-.41.15-.27.14-.57a1 1 0 0 0-.2-.51c-.22-.27-.6-.4-.96-.47a6 6 0 0 0-1.33-.05A11 11 0 0 1 8.5 6.9c.25-.66.43-1.29.52-1.8q.05-.33.05-.61a1 1 0 0 0-.13-.54.7.7 0 0 0-.48-.37q-.3-.05-.6.08c-.38.15-.58.47-.65.82q-.1.53.05 1.14.13.61.43 1.3a20 20 0 0 1-1.07 2.22 8 8 0 0 0-1.48.65c-.37.22-.7.48-.9.78-.2.33-.27.72-.08 1.1"/></svg>