<svg xmlns="http://www.w3.org/2000/svg" width="16" height="16" viewBox="0 0 16 16" id="icon"><path fill-rule="evenodd" d="M14 4.5V14a2 2 0 0 1-2 2v-1a1 1 0 0 0 1-1V4.5h-2A1.5 1.5 0 0 1 9.5 3V1H4a1 1 0 0 0-1 1v9H2V2a2 2 0 0 1 2-2h5.5zm-5.8 8.55a2 2 0 0 0-.11.64v.5q0 .36.1.62a1 1 0 0 0 .3.4 1 1 0 0 0 .48.12 1 1 0 0 0 .4-.08 1 1 0 0 0 .27-.25 1 1 0 0 0 .12-.37h.76v.08a1.3 1.3 0 0 1-.22.67q-.2.3-.55.46a2 2 0 0 1-.79.16q-.54 0-.91-.21a1.4 1.4 0 0 1-.57-.63q-.2-.41-.2-.98v-.5q0-.56.2-.97t.57-.64.91-.22q.33 0 .6.1.29.09.5.27a1.3 1.3 0 0 1 .46.96v.08h-.76a1 1 0 0 0-.12-.38 1 1 0 0 0-.27-.26 1 1 0 0 0-.4-.1 1 1 0 0 0-.48.14 1 1 0 0 0-.3.4M.8 15.92l.31-1.03h1.34l.31 1.02h.84l-1.33-4h-.93l-1.34 4zm1-3.24.5 1.62H1.27l.49-1.62zm2.63 3.24.31-1.03h1.34l.31 1.02h.84l-1.33-4h-.93l-1.34 4zm1-3.24.5 1.62H4.9l.49-1.62z"/></svg>