<svg viewBox="0 0 16 16"><path d="M8 5a1 1 0 0 1 1 1v1H7V6a1 1 0 0 1 1-1zm2 2.08V6a2 2 0 1 0-4 0v1.08c-.54.16-1 .6-1 1.22v2.4c0 .82.78 1.3 1.5 1.3h3c.72 0 1.5-.48 1.5-1.3V8.3c0-.63-.46-1.06-1-1.22zM6.1 8.12A.64.64 0 0 1 6.5 8h3a.64.64 0 0 1 .4.13c.08.06.1.13.1.17v2.4c0 .04-.02.1-.1.18a.64.64 0 0 1-.4.12h-3a.64.64 0 0 1-.4-.13c-.08-.06-.1-.13-.1-.17V8.3c0-.04.02-.1.1-.17z"/><path d="M4 0a2 2 0 0 0-2 2v12a2 2 0 0 0 2 2h8a2 2 0 0 0 2-2V2a2 2 0 0 0-2-2H4zm0 1h8a1 1 0 0 1 1 1v12a1 1 0 0 1-1 1H4a1 1 0 0 1-1-1V2a1 1 0 0 1 1-1z"/></svg>