<svg xmlns="http://www.w3.org/2000/svg" width="16" height="16" viewBox="0 0 16 16"><path fill-rule="evenodd" d="M14 4.5V14a2 2 0 0 1-2 2v-1a1 1 0 0 0 1-1V4.5h-2A1.5 1.5 0 0 1 9.5 3V1H4a1 1 0 0 0-1 1v9H2V2a2 2 0 0 1 2-2h5.5zm-3.76 8.13q.11.23.14.5H9.6l-.1-.26-.16-.19-.24-.12a1 1 0 0 0-.3-.05q-.43 0-.66.3t-.24.86v.5q0 .35.1.61a1 1 0 0 0 .3.41 1 1 0 0 0 .52.15 1 1 0 0 0 .46-.1 1 1 0 0 0 .27-.26q.1-.17.1-.36v-.26h-.83v-.59h1.58v.8q0 .29-.1.55a1 1 0 0 1-.3.46 1.4 1.4 0 0 1-.49.31q-.3.11-.7.11a2 2 0 0 1-.75-.13 2 2 0 0 1-.53-.38 2 2 0 0 1-.32-.58 3 3 0 0 1-.1-.74v-.5q0-.55.2-.96t.58-.63.92-.23q.36 0 .64.1t.48.28.31.4m-8.64-.7H0v4h.8v-1.35h.8q.42 0 .73-.17.3-.18.46-.47a1.4 1.4 0 0 0 .16-.68q0-.37-.16-.68a1 1 0 0 0-.46-.47q-.3-.18-.73-.18m.55 1.33a1 1 0 0 1-.09.38 1 1 0 0 1-.24.24 1 1 0 0 1-.37.08H.79v-1.4h.66q.33 0 .51.18.19.18.19.52m1.96 2.67v-2.68h.03l1.76 2.68h.66v-4H5.8v2.66h-.03l-1.76-2.66h-.66v4z"/></svg>