<svg xmlns="http://www.w3.org/2000/svg" width="16" height="16" viewBox="0 0 16 16"><path fill-rule="evenodd" d="M14 4.5V14a2 2 0 0 1-2 2v-1a1 1 0 0 0 1-1V4.5h-2A1.5 1.5 0 0 1 9.5 3V1H4a1 1 0 0 0-1 1v9H2V2a2 2 0 0 1 2-2h5.5zM1.6 11.85H0v4h.78v-1.5h.71l.7 1.5h1.65l.32-1.03h1.33l.32 1.03h.84l-1.34-4h-.92l-1.33 3.96-.79-1.57A1.2 1.2 0 0 0 3 13.12q0-.39-.17-.67a1 1 0 0 0-.47-.44 2 2 0 0 0-.76-.16m-.82 1.91v-1.29h.7a.7.7 0 0 1 .5.17q.2.17.2.5 0 .3-.2.47-.18.15-.5.15zm4.07-1.14.48 1.61H4.32l.49-1.61zm4 .44-.74 2.79h-.73l-1.05-4h.85l.6 2.9h.04l.7-2.9h.69l.7 2.9h.04l.6-2.9h.86l-1.06 4h-.73l-.74-2.79z"/></svg>