<svg xmlns="http://www.w3.org/2000/svg" viewBox="0 0 16 16"><path fill-rule="evenodd" d="M14 4.5V11h-1V4.5h-2A1.5 1.5 0 0 1 9.5 3V1H4a1 1 0 0 0-1 1v9H2V2a2 2 0 0 1 2-2h5.5L14 4.5ZM1.36 15.29a1.18 1.18 0 0 1-.12-.45h.77a.58.58 0 0 0 .26.38c.06.05.15.1.24.12.1.03.2.04.32.04.17 0 .3-.02.42-.07a.56.56 0 0 0 .25-.2.5.5 0 0 0 .09-.28.39.39 0 0 0-.16-.33 1.2 1.2 0 0 0-.46-.2l-.62-.13a1.72 1.72 0 0 1-.54-.22 1 1 0 0 1-.35-.37 1.07 1.07 0 0 1-.12-.52c0-.24.06-.46.19-.64s.3-.32.53-.42c.22-.1.48-.15.77-.15.3 0 .57.05.78.15a1.15 1.15 0 0 1 .7.98h-.75a.56.56 0 0 0-.12-.26.62.62 0 0 0-.24-.18.92.92 0 0 0-.37-.07.79.79 0 0 0-.52.15.47.47 0 0 0-.18.39c0 .12.05.22.14.3a.97.97 0 0 0 .4.17l.63.15c.22.05.4.12.56.2a1 1 0 0 1 .38.36c.09.15.13.34.13.56 0 .25-.06.47-.18.66a1.22 1.22 0 0 1-.54.44c-.24.1-.52.16-.86.16a2.2 2.2 0 0 1-.67-.1 1.4 1.4 0 0 1-.47-.24 1.13 1.13 0 0 1-.3-.38Zm4.27-2.23a1.73 1.73 0 0 0-.1.63v.5c0 .24.03.45.1.62a.83.83 0 0 0 .3.4.85.85 0 0 0 .48.13.87.87 0 0 0 .4-.09.7.7 0 0 0 .27-.25.8.8 0 0 0 .12-.36h.76v.07a1.27 1.27 0 0 1-.22.68 1.39 1.39 0 0 1-.55.45 1.81 1.81 0 0 1-.79.17 1.8 1.8 0 0 1-.91-.22 1.42 1.42 0 0 1-.58-.63c-.13-.27-.19-.6-.19-.97v-.5c0-.38.07-.7.2-.98a1.44 1.44 0 0 1 .57-.63c.25-.15.55-.22.91-.22.22 0 .42.03.6.1.2.05.36.15.5.26a1.32 1.32 0 0 1 .46.97v.07H7.2a.85.85 0 0 0-.12-.38.7.7 0 0 0-.28-.26.8.8 0 0 0-.4-.1.81.81 0 0 0-.47.14.87.87 0 0 0-.3.4Zm2.6 1.78a1.13 1.13 0 0 0 .41.82c.13.11.29.2.48.26s.4.09.66.09c.34 0 .63-.06.86-.16.24-.1.42-.25.54-.44a1.17 1.17 0 0 0 .19-.66c0-.22-.05-.4-.14-.56a1 1 0 0 0-.37-.35 2.03 2.03 0 0 0-.57-.21l-.62-.15a.97.97 0 0 1-.4-.17.37.37 0 0 1-.15-.3.5.5 0 0 1 .19-.39.8.8 0 0 1 .51-.15c.14 0 .27.02.37.07a.62.62 0 0 1 .25.18.56.56 0 0 1 .12.26h.75a1.1 1.1 0 0 0-.2-.57 1.21 1.21 0 0 0-.5-.4 1.81 1.81 0 0 0-.78-.16c-.3 0-.55.05-.78.15-.22.1-.4.24-.53.42-.12.18-.19.4-.19.64a1 1 0 0 0 .47.9c.16.09.34.16.55.2l.61.15c.21.05.37.11.47.2a.39.39 0 0 1 .15.32.51.51 0 0 1-.08.29.56.56 0 0 1-.26.19 1.07 1.07 0 0 1-.41.07c-.12 0-.23-.01-.32-.04a.84.84 0 0 1-.25-.12.58.58 0 0 1-.26-.38h-.76Zm3.51.45a1.18 1.18 0 0 1-.1-.45h.75a.58.58 0 0 0 .26.38c.07.05.15.1.25.12.1.03.2.04.32.04a1 1 0 0 0 .41-.07.56.56 0 0 0 .26-.2.5.5 0 0 0 .08-.28.39.39 0 0 0-.15-.33 1.2 1.2 0 0 0-.46-.2l-.62-.13a1.72 1.72 0 0 1-.54-.22 1 1 0 0 1-.35-.37 1.07 1.07 0 0 1-.13-.52c0-.24.07-.46.2-.64.12-.18.3-.32.52-.42.23-.1.49-.15.78-.15.3 0 .56.05.78.15a1.15 1.15 0 0 1 .7.98h-.75a.56.56 0 0 0-.12-.26.62.62 0 0 0-.25-.18.92.92 0 0 0-.37-.07.79.79 0 0 0-.51.15.47.47 0 0 0-.18.39c0 .12.04.22.14.3a.97.97 0 0 0 .4.17l.62.15c.22.05.4.12.57.2a1 1 0 0 1 .37.36 1 1 0 0 1 .14.56c0 .25-.06.47-.19.66a1.22 1.22 0 0 1-.54.44c-.23.1-.52.16-.86.16a2.2 2.2 0 0 1-.66-.1 1.4 1.4 0 0 1-.48-.24 1.13 1.13 0 0 1-.29-.38Z"/></svg>