<svg xmlns="http://www.w3.org/2000/svg" width="16" height="16" viewBox="0 0 16 16" id="icon"><path d="M14 4.5V14a2 2 0 0 1-2 2H4a2 2 0 0 1-2-2V2a2 2 0 0 1 2-2h5.5zm-3 0A1.5 1.5 0 0 1 9.5 3V1H4a1 1 0 0 0-1 1v12a1 1 0 0 0 1 1h8a1 1 0 0 0 1-1V4.5z"/><path d="M4.5 12.5A.5.5 0 0 1 5 12h3a.5.5 0 0 1 0 1H5a.5.5 0 0 1-.5-.5m0-2A.5.5 0 0 1 5 10h6a.5.5 0 0 1 0 1H5a.5.5 0 0 1-.5-.5m1.64-3.7 1.33.88 1.85-1.86a.25.25 0 0 1 .3-.04l1.88.97V8.5a.5.5 0 0 1-.5.5H5a.5.5 0 0 1-.5-.5V8s1.54-1.27 1.64-1.2m.11-.8a.75.75 0 1 0 0-1.5.75.75 0 0 0 0 1.5"/></svg>