<svg xmlns="http://www.w3.org/2000/svg" width="16" height="16" viewBox="0 0 16 16"><path fill-rule="evenodd" d="M14 4.5V14a2 2 0 0 1-2 2h-1v-1h1a1 1 0 0 0 1-1V4.5h-2A1.5 1.5 0 0 1 9.5 3V1H4a1 1 0 0 0-1 1v9H2V2a2 2 0 0 1 2-2h5.5zM3.17 14.84a1.1 1.1 0 0 0 .4.82q.2.17.48.26t.67.09q.5 0 .85-.16.36-.16.54-.44a1 1 0 0 0 .2-.66q0-.33-.14-.56a1 1 0 0 0-.38-.35 2 2 0 0 0-.56-.21l-.62-.15a1 1 0 0 1-.41-.17.4.4 0 0 1-.14-.3q0-.24.18-.39.19-.15.51-.15.22 0 .37.07a1 1 0 0 1 .25.18 1 1 0 0 1 .12.26h.75a1 1 0 0 0-.2-.57 1 1 0 0 0-.5-.4 2 2 0 0 0-.78-.16q-.44 0-.78.15-.33.15-.52.42-.2.27-.2.64 0 .3.13.52.12.23.35.37t.54.21l.62.15q.3.07.46.2a.4.4 0 0 1 .15.32.5.5 0 0 1-.08.29 1 1 0 0 1-.26.19 1 1 0 0 1-.41.07q-.18 0-.32-.04l-.25-.11a.6.6 0 0 1-.25-.39zm-1.24 1.1v-3.35h1.13v-.66H0v.66h1.13v3.34zm7.07-4h.9l-1.28 2 1.26 2h-.91l-.85-1.42h-.04l-.85 1.41h-.86l1.24-2.02-1.23-1.98h.93l.84 1.44h.03z"/></svg>