<svg xmlns="http://www.w3.org/2000/svg" width="16" height="16" viewBox="0 0 16 16" id="icon"><path fill-rule="evenodd" d="M14 4.5V14a2 2 0 0 1-2 2H8v-1h4a1 1 0 0 0 1-1V4.5h-2A1.5 1.5 0 0 1 9.5 3V1H4a1 1 0 0 0-1 1v9H2V2a2 2 0 0 1 2-2h5.5zM3.63 15.29a1 1 0 0 1-.11-.45h.76a.6.6 0 0 0 .26.38q.1.08.25.12t.32.04q.24 0 .4-.07a1 1 0 0 0 .26-.2.5.5 0 0 0 .09-.28.4.4 0 0 0-.15-.33q-.16-.12-.47-.2l-.62-.13a2 2 0 0 1-.54-.22 1 1 0 0 1-.35-.37 1 1 0 0 1-.12-.52q0-.37.2-.64.18-.27.52-.42t.77-.15q.46 0 .78.15.33.15.5.41.18.26.2.57h-.75a1 1 0 0 0-.12-.26 1 1 0 0 0-.24-.18 1 1 0 0 0-.37-.07q-.33 0-.51.15a.5.5 0 0 0-.19.39q0 .18.15.3a1 1 0 0 0 .4.17l.62.15q.33.07.57.2t.37.36.14.56q0 .37-.2.66a1.2 1.2 0 0 1-.53.44q-.35.16-.86.16a2 2 0 0 1-.66-.1 1.4 1.4 0 0 1-.48-.24 1 1 0 0 1-.3-.38m-2.7-2.23a2 2 0 0 0-.1.63v.5q0 .37.1.63a1 1 0 0 0 .3.39 1 1 0 0 0 .47.13 1 1 0 0 0 .4-.09 1 1 0 0 0 .28-.25 1 1 0 0 0 .12-.36h.76v.08a1.3 1.3 0 0 1-.23.67q-.2.29-.55.45a2 2 0 0 1-.78.17q-.54 0-.92-.22a1.4 1.4 0 0 1-.57-.63q-.2-.4-.2-.96v-.5q0-.57.2-.98a1.4 1.4 0 0 1 .57-.63q.38-.22.9-.22.34 0 .62.1.28.09.49.27a1.3 1.3 0 0 1 .46.96v.07h-.76a1 1 0 0 0-.12-.38 1 1 0 0 0-.28-.26 1 1 0 0 0-.4-.1 1 1 0 0 0-.47.14 1 1 0 0 0-.3.4"/></svg>