<svg viewBox="0 0 16 16"><path fill-rule="evenodd" d="M14 4.5V11h-1V4.5h-2A1.5 1.5 0 0 1 9.5 3V1H4a1 1 0 0 0-1 1v9H2V2a2 2 0 0 1 2-2h5.5L14 4.5ZM4.15 15.29a1.18 1.18 0 0 1-.11-.45h.76a.58.58 0 0 0 .26.38c.07.05.15.1.25.12.1.03.2.04.32.04a1 1 0 0 0 .41-.07.56.56 0 0 0 .26-.2.5.5 0 0 0 .08-.28.39.39 0 0 0-.15-.33 1.2 1.2 0 0 0-.47-.2l-.61-.13a1.72 1.72 0 0 1-.54-.22 1 1 0 0 1-.35-.37 1.07 1.07 0 0 1-.13-.52c0-.24.07-.46.2-.64.12-.18.3-.32.52-.42.23-.1.48-.15.78-.15.3 0 .56.05.78.15a1.15 1.15 0 0 1 .7.98h-.75a.56.56 0 0 0-.12-.26.62.62 0 0 0-.25-.18.92.92 0 0 0-.37-.07.79.79 0 0 0-.51.15.47.47 0 0 0-.19.39c0 .12.05.22.15.3a.97.97 0 0 0 .4.17l.62.15c.22.05.4.12.57.2a1 1 0 0 1 .37.36 1 1 0 0 1 .14.56c0 .25-.06.47-.19.66a1.22 1.22 0 0 1-.54.44c-.23.1-.52.16-.86.16a2.2 2.2 0 0 1-.66-.1 1.4 1.4 0 0 1-.48-.24 1.13 1.13 0 0 1-.29-.38Zm-3.1-.03a1.32 1.32 0 0 1-.09-.47h.77a.58.58 0 0 0 .07.27.5.5 0 0 0 .46.25c.19 0 .33-.06.42-.17.09-.1.14-.26.14-.46v-2.75h.79v2.73c0 .44-.12.77-.36 1-.24.23-.56.35-.98.35a1.59 1.59 0 0 1-.57-.1 1.15 1.15 0 0 1-.41-.26 1.14 1.14 0 0 1-.24-.4Zm9.09-1.59v.52c0 .26-.04.47-.12.65a.86.86 0 0 1-.32.38.88.88 0 0 1-.47.13.88.88 0 0 1-.47-.13.87.87 0 0 1-.32-.38 1.55 1.55 0 0 1-.12-.65v-.52c0-.26.04-.47.12-.64a.87.87 0 0 1 .32-.39.87.87 0 0 1 .47-.13c.18 0 .33.05.47.13a.86.86 0 0 1 .32.4c.08.16.12.37.12.63Zm.8.52v-.51c0-.38-.07-.7-.2-.97a1.46 1.46 0 0 0-.6-.64 1.8 1.8 0 0 0-.91-.22c-.36 0-.66.08-.92.22a1.44 1.44 0 0 0-.59.63c-.14.27-.2.6-.2.98v.51c0 .38.06.7.2.97s.33.48.59.63c.26.14.56.22.92.22s.66-.08.92-.22c.25-.15.45-.36.59-.63.13-.27.2-.6.2-.97Zm1.3-.93v2.67h-.76v-4h.67l1.75 2.66h.03v-2.66h.75v4h-.66l-1.76-2.67h-.03Z"/></svg>