<svg xmlns="http://www.w3.org/2000/svg" viewBox="0 0 16 16"><path fill-rule="evenodd" d="M14 4.5V14a2 2 0 0 1-2 2h-1v-1h1a1 1 0 0 0 1-1V4.5h-2A1.5 1.5 0 0 1 9.5 3V1H4a1 1 0 0 0-1 1v9H2V2a2 2 0 0 1 2-2h5.5L14 4.5ZM1.6 11.85H0v4h.8V14.5h.8c.28 0 .53-.06.73-.18.2-.11.35-.27.46-.47a1.42 1.42 0 0 0 .16-.68c0-.25-.05-.47-.16-.67a1.18 1.18 0 0 0-.46-.48 1.4 1.4 0 0 0-.73-.18Zm.54 1.33a.8.8 0 0 1-.08.38.57.57 0 0 1-.24.24.8.8 0 0 1-.37.09H.79v-1.41h.66a.7.7 0 0 1 .51.18c.12.12.18.3.18.52Zm4.48 2.67v-4h-.79v1.63H4.16v-1.63h-.79v4h.8v-1.71h1.67v1.7h.8Zm.7-4h1.6c.3 0 .54.06.74.18.2.12.35.28.46.48a1.51 1.51 0 0 1 0 1.35c-.1.2-.26.36-.47.47a1.45 1.45 0 0 1-.73.18h-.8v1.34h-.8v-4Zm2.07 1.71a.8.8 0 0 0 .08-.38c0-.22-.06-.4-.18-.52a.7.7 0 0 0-.51-.18h-.66v1.4h.66a.8.8 0 0 0 .37-.08.57.57 0 0 0 .24-.24Z"/></svg>