<svg xmlns="http://www.w3.org/2000/svg" width="16" height="16" viewBox="0 0 16 16"><path fill-rule="evenodd" d="M14 4.5V14a2 2 0 0 1-2 2v-1a1 1 0 0 0 1-1V4.5h-2A1.5 1.5 0 0 1 9.5 3V1H4a1 1 0 0 0-1 1v9H2V2a2 2 0 0 1 2-2h5.5zM.7 15.85v-2.66h.04l.96 2.16h.51l.95-2.16h.04v2.66h.71v-4h-.8l-1.14 2.6h-.03l-1.13-2.6H0v4zm5.28-4h-1.6v4h.8V14.5h.8q.43 0 .73-.18t.46-.47a1.4 1.4 0 0 0 .16-.68q0-.37-.15-.67a1 1 0 0 0-.46-.48 1.4 1.4 0 0 0-.74-.18m.55 1.33a1 1 0 0 1-.09.38 1 1 0 0 1-.23.24 1 1 0 0 1-.38.09h-.66v-1.41h.66q.33 0 .51.18.19.18.19.52m1.5-.03.8-1.3h1.13v2.62h.5v.64h-.5v.74h-.74v-.74H7.3v-.65q.35-.66.74-1.31ZM8 14.45v.02h1.22v-2.02h-.04l-.6.98q-.3.5-.58 1.02"/></svg>