<svg xmlns="http://www.w3.org/2000/svg" width="16" height="16" viewBox="0 0 16 16" id="icon"><path d="M5 7.5a.5.5 0 0 1 .5-.5h5a.5.5 0 0 1 .5.5v2a.5.5 0 0 1-.5.5h-5a.5.5 0 0 1-.5-.5z"/><path d="M9.3 0H4a2 2 0 0 0-2 2v12a2 2 0 0 0 2 2h8a2 2 0 0 0 2-2V4.7a1 1 0 0 0-.3-.7L10 .3a1 1 0 0 0-.7-.3m.2 3.5v-2l3 3h-2a1 1 0 0 1-1-1M8.5 6h2A1.5 1.5 0 0 1 12 7.5v2a1.5 1.5 0 0 1-1.5 1.5h-.47l.44 1.34a.5.5 0 0 1-.94.32L8.97 11H8.5v1a.5.5 0 0 1-1 0v-1h-.47l-.56 1.66a.5.5 0 1 1-.94-.32L5.97 11H5.5A1.5 1.5 0 0 1 4 9.5v-2A1.5 1.5 0 0 1 5.5 6h2a.5.5 0 0 1 1 0"/></svg>