<svg viewBox="0 0 16 16"><path fill-rule="evenodd" d="M14 4.5V14a2 2 0 0 1-2 2H8v-1h4a1 1 0 0 0 1-1V4.5h-2A1.5 1.5 0 0 1 9.5 3V1H4a1 1 0 0 0-1 1v9H2V2a2 2 0 0 1 2-2h5.5L14 4.5ZM3.19 15.29a1.18 1.18 0 0 1-.12-.45h.77a.58.58 0 0 0 .26.38c.07.05.15.1.24.12.1.03.2.04.32.04.17 0 .3-.02.42-.07a.56.56 0 0 0 .25-.2.5.5 0 0 0 .09-.28.39.39 0 0 0-.16-.33 1.2 1.2 0 0 0-.46-.2l-.62-.13a1.72 1.72 0 0 1-.54-.22 1 1 0 0 1-.35-.37 1.07 1.07 0 0 1-.12-.52c0-.24.06-.46.19-.64s.3-.32.53-.42c.22-.1.48-.15.77-.15.3 0 .57.05.78.15a1.15 1.15 0 0 1 .7.98H5.4a.56.56 0 0 0-.12-.26.62.62 0 0 0-.24-.18.92.92 0 0 0-.37-.07.79.79 0 0 0-.52.15.47.47 0 0 0-.18.39c0 .12.05.22.14.3a.97.97 0 0 0 .4.17l.63.15c.22.05.4.12.56.2a1 1 0 0 1 .38.36c.09.15.13.34.13.56 0 .25-.06.47-.18.66a1.22 1.22 0 0 1-.54.44c-.24.1-.52.16-.86.16a2.2 2.2 0 0 1-.67-.1 1.4 1.4 0 0 1-.47-.24 1.13 1.13 0 0 1-.3-.38Zm-3.1-.03a1.32 1.32 0 0 1-.09-.47h.77a.58.58 0 0 0 .07.27.5.5 0 0 0 .45.25c.2 0 .33-.06.42-.17a.7.7 0 0 0 .14-.46v-2.75h.8v2.73c0 .44-.13.77-.36 1-.24.23-.57.35-.99.35a1.59 1.59 0 0 1-.57-.1 1.15 1.15 0 0 1-.4-.26 1.14 1.14 0 0 1-.25-.4Z"/></svg>