<svg xmlns="http://www.w3.org/2000/svg" viewBox="0 0 16 16"><path fill-rule="evenodd" d="M14 4.5V14a2 2 0 0 1-2 2v-1a1 1 0 0 0 1-1V4.5h-2A1.5 1.5 0 0 1 9.5 3V1H4a1 1 0 0 0-1 1v9H2V2a2 2 0 0 1 2-2h5.5L14 4.5ZM.7 15.85v-2.66h.04l.96 2.16h.51l.95-2.16h.04v2.66h.71v-4h-.8l-1.14 2.6h-.03l-1.13-2.6H0v4h.7Zm5.28-4h-1.6v4h.8V14.5h.8c.29 0 .53-.06.73-.18.2-.11.36-.27.46-.47a1.42 1.42 0 0 0 .16-.68c0-.25-.05-.47-.15-.67a1.18 1.18 0 0 0-.46-.48 1.4 1.4 0 0 0-.74-.18Zm.55 1.33a.8.8 0 0 1-.09.38.57.57 0 0 1-.23.24.8.8 0 0 1-.38.09h-.66v-1.41h.66a.7.7 0 0 1 .51.18c.13.12.19.3.19.52Zm1.5-.03.8-1.3h1.13v2.62h.5v.64h-.5v.74h-.74v-.74H7.3v-.65c.23-.44.48-.88.74-1.31ZM8 14.45v.02h1.22v-2.02h-.04a50.64 50.64 0 0 0-1.18 2Z"/></svg>