<svg xmlns="http://www.w3.org/2000/svg" viewBox="0 0 16 16"><path fill-rule="evenodd" d="M14 4.5V14a2 2 0 0 1-2 2h-1v-1h1a1 1 0 0 0 1-1V4.5h-2A1.5 1.5 0 0 1 9.5 3V1H4a1 1 0 0 0-1 1v9H2V2a2 2 0 0 1 2-2h5.5L14 4.5ZM6.47 15.29a1.18 1.18 0 0 1-.1-.45h.76a.58.58 0 0 0 .25.38c.07.05.15.1.25.12.1.03.2.04.32.04a1 1 0 0 0 .41-.07.56.56 0 0 0 .26-.2.5.5 0 0 0 .08-.28.39.39 0 0 0-.15-.33 1.2 1.2 0 0 0-.46-.2l-.62-.13a1.72 1.72 0 0 1-.54-.22 1 1 0 0 1-.35-.37 1.07 1.07 0 0 1-.12-.52c0-.24.06-.46.19-.64.12-.18.3-.32.52-.42.23-.1.49-.15.78-.15.3 0 .56.05.78.15.22.1.38.24.5.41.12.17.19.36.2.57h-.75a.56.56 0 0 0-.12-.26.63.63 0 0 0-.25-.18.92.92 0 0 0-.37-.07.79.79 0 0 0-.51.15.47.47 0 0 0-.18.39c0 .12.04.22.14.3a.97.97 0 0 0 .4.17l.62.15c.22.05.41.12.57.2a1 1 0 0 1 .38.36c.09.15.13.34.13.56 0 .25-.06.47-.19.66a1.22 1.22 0 0 1-.54.44c-.23.1-.52.16-.85.16a2.2 2.2 0 0 1-.67-.1 1.4 1.4 0 0 1-.48-.24 1.13 1.13 0 0 1-.29-.38Zm-2.94-3.36h-.9l-.82 1.44h-.04l-.83-1.44H.01l1.23 1.98L0 15.93h.86l.85-1.41h.04l.85 1.41h.9l-1.25-1.99 1.28-2Zm2.72 3.33h-1.7v-3.33h-.78v4h2.48v-.67Z"/></svg>