<svg viewBox="0 0 16 16"><path fill-rule="evenodd" d="M14 4.5V14a2 2 0 0 1-2 2h-.5v-1h.5a1 1 0 0 0 1-1V4.5h-2A1.5 1.5 0 0 1 9.5 3V1H4a1 1 0 0 0-1 1v9H2V2a2 2 0 0 1 2-2h5.5L14 4.5ZM3.12 14.84a1.13 1.13 0 0 0 .4.82c.13.11.28.2.47.26.2.06.42.09.67.09.34 0 .62-.06.86-.16.23-.1.41-.25.54-.44a1.17 1.17 0 0 0 .18-.66c0-.22-.04-.4-.13-.56a1 1 0 0 0-.38-.35 2.03 2.03 0 0 0-.56-.21l-.62-.15a.97.97 0 0 1-.4-.17A.37.37 0 0 1 4 13c0-.16.06-.29.18-.39a.8.8 0 0 1 .52-.15c.14 0 .26.02.37.07a.63.63 0 0 1 .24.18.56.56 0 0 1 .12.26h.75a1.1 1.1 0 0 0-.2-.57 1.21 1.21 0 0 0-.5-.4 1.81 1.81 0 0 0-.78-.16c-.29 0-.55.05-.77.15-.23.1-.4.24-.53.42s-.19.4-.19.64c0 .2.04.38.12.52a1 1 0 0 0 .35.37c.16.1.34.17.54.21l.62.15c.2.05.36.11.46.2a.39.39 0 0 1 .16.32.5.5 0 0 1-.09.29.56.56 0 0 1-.25.19c-.11.05-.25.07-.42.07-.11 0-.22-.01-.32-.04a.84.84 0 0 1-.24-.12.58.58 0 0 1-.26-.38h-.76Zm-1.52-2.9H0v4h.8v-1.35h.8c.28 0 .53-.06.73-.17.2-.12.35-.28.46-.48a1.42 1.42 0 0 0 .16-.67c0-.25-.05-.48-.16-.68a1.18 1.18 0 0 0-.46-.48 1.4 1.4 0 0 0-.73-.18Zm.55 1.33a.8.8 0 0 1-.09.38.57.57 0 0 1-.24.24.8.8 0 0 1-.37.08H.79v-1.4h.66a.7.7 0 0 1 .51.17c.12.12.18.3.18.53Zm4.6 2.66v-4h1.46c.4 0 .74.08 1 .24.27.15.47.38.6.68.13.3.2.65.2 1.07 0 .42-.07.78-.2 1.08-.13.3-.33.53-.6.7a2 2 0 0 1-1 .23H6.75Zm1.36-3.35h-.57v2.7h.57c.18 0 .34-.02.48-.08a.8.8 0 0 0 .33-.25 1.14 1.14 0 0 0 .2-.42c.05-.17.07-.37.07-.6a2.1 2.1 0 0 0-.12-.75.89.89 0 0 0-.35-.45 1.1 1.1 0 0 0-.61-.15Z"/></svg>