<svg xmlns="http://www.w3.org/2000/svg" width="16" height="16" viewBox="0 0 16 16"><path d="M14 14V4.5L9.5 0H4a2 2 0 0 0-2 2v12a2 2 0 0 0 2 2h8a2 2 0 0 0 2-2M9.5 3A1.5 1.5 0 0 0 11 4.5h2V14a1 1 0 0 1-1 1H4a1 1 0 0 1-1-1V2a1 1 0 0 1 1-1h5.5z"/><path d="M4.6 14.09a.8.8 0 0 1-.43-.42c-.2-.4-.13-.78.08-1.1q.32-.46.9-.8a8 8 0 0 1 1.47-.64A20 20 0 0 0 7.7 8.91a7 7 0 0 1-.43-1.3Q7.1 7 7.2 6.47c.08-.35.27-.67.65-.82q.3-.13.6-.08a.7.7 0 0 1 .48.37q.12.25.13.54 0 .29-.05.61a10 10 0 0 1-.52 1.8 11 11 0 0 0 .98 1.68 6 6 0 0 1 1.33.05c.37.07.74.2.96.47q.19.22.2.51t-.13.57a1 1 0 0 1-.36.41 1 1 0 0 1-.5.14 1.7 1.7 0 0 1-.94-.41 6 6 0 0 1-.91-.95 12 12 0 0 0-2 .4 11 11 0 0 1-1.02 1.51c-.3.35-.6.66-.93.79a.8.8 0 0 1-.58.03m1.38-1.9q-.25.11-.46.23-.49.3-.64.55-.14.21-.04.36l.02.05.04-.02q.2-.07.63-.57zm1.64-1.33a13 13 0 0 1 1.01-.2 12 12 0 0 1-.5-.85zm2.45.45q.22.24.43.4.36.28.5.26l.07-.01a.3.3 0 0 0 .1-.13.4.4 0 0 0 .05-.2l-.02-.06q-.06-.1-.52-.21a4 4 0 0 0-.61-.05m-2-3.51a7 7 0 0 0 .2-.83q.05-.28.05-.46l-.04-.2-.14.04q-.14.03-.2.28-.06.3.05.82.03.17.09.35z"/></svg>