<svg viewBox="0 0 16 16"><path d="M5.53 10.27c-.55 0-.84.57-.84 1.62l.01.25 1.56-1.15c-.13-.47-.38-.72-.73-.72zm-.74 2.51c.13.47.38.72.74.72.54 0 .83-.56.83-1.62l-.01-.25-1.56 1.15z"/><path d="M9.3 0H4a2 2 0 0 0-2 2v12a2 2 0 0 0 2 2h8a2 2 0 0 0 2-2V4.7a1 1 0 0 0-.3-.7L10 .3a1 1 0 0 0-.7-.3zm.2 3.5v-2l3 3h-2a1 1 0 0 1-1-1zm-2.45 8.38c0 1.42-.55 2.21-1.52 2.21-.98 0-1.53-.79-1.53-2.2 0-1.42.55-2.2 1.53-2.2.97 0 1.52.78 1.52 2.2zm3.8 1.52v.6h-3v-.6h1.19v-2.9h-.05l-1.14.75v-.7l1.19-.78h.69v3.64h1.13z"/></svg>