<svg xmlns="http://www.w3.org/2000/svg" width="16" height="16" viewBox="0 0 16 16" id="icon"><path fill-rule="evenodd" d="M14 4.5V11h-1V4.5h-2A1.5 1.5 0 0 1 9.5 3V1H4a1 1 0 0 0-1 1v9H2V2a2 2 0 0 1 2-2h5.5zM1.52 15.18a1 1 0 0 1-.08-.47h.76l.08.27a.5.5 0 0 0 .45.25q.29 0 .42-.17.14-.16.14-.46v-2.75h.8v2.73q0 .65-.37 1-.35.34-.98.34a2 2 0 0 1-.57-.09 1 1 0 0 1-.4-.27 1 1 0 0 1-.25-.39m3.97-.35-.31 1.03h-.8l1.34-4h.93l1.33 4h-.84l-.31-1.03zm1.18-.59-.49-1.62h-.03l-.5 1.62zm2.34 1.62h.96l1.32-4h-.88l-.88 3.14h-.04l-.9-3.14h-.92zm3.09-1.03-.31 1.03h-.8l1.34-4h.92l1.34 4h-.84l-.31-1.03zm1.18-.59-.5-1.62h-.03l-.49 1.62z"/></svg>