<svg xmlns="http://www.w3.org/2000/svg" viewBox="0 0 16 16"><path fill-rule="evenodd" d="M14 4.5V14a2 2 0 0 1-2 2H8v-1h4a1 1 0 0 0 1-1V4.5h-2A1.5 1.5 0 0 1 9.5 3V1H4a1 1 0 0 0-1 1v9H2V2a2 2 0 0 1 2-2h5.5L14 4.5ZM3.63 15.29a1.18 1.18 0 0 1-.11-.45h.76a.58.58 0 0 0 .26.38c.07.05.15.1.25.12.1.03.2.04.32.04.16 0 .3-.02.4-.07a.56.56 0 0 0 .26-.2.5.5 0 0 0 .09-.28.39.39 0 0 0-.15-.33 1.2 1.2 0 0 0-.47-.2l-.62-.13a1.72 1.72 0 0 1-.54-.22 1 1 0 0 1-.35-.37 1.07 1.07 0 0 1-.12-.52c0-.24.06-.46.2-.64.12-.18.3-.32.52-.42.22-.1.48-.15.77-.15.31 0 .57.05.78.15.22.1.39.24.5.41.12.17.2.36.2.57h-.75a.56.56 0 0 0-.12-.26.62.62 0 0 0-.24-.18.92.92 0 0 0-.37-.07.79.79 0 0 0-.51.15.47.47 0 0 0-.19.39c0 .12.05.22.15.3a.97.97 0 0 0 .4.17l.62.15c.22.05.4.12.57.2a1 1 0 0 1 .37.36 1 1 0 0 1 .14.56c0 .25-.07.47-.2.66a1.22 1.22 0 0 1-.53.44c-.24.1-.52.16-.86.16a2.21 2.21 0 0 1-.66-.1 1.4 1.4 0 0 1-.48-.24 1.13 1.13 0 0 1-.3-.38ZM.9 13.06a1.73 1.73 0 0 0-.1.63v.5c0 .24.03.45.1.62a.83.83 0 0 0 .3.4.84.84 0 0 0 .47.13.86.86 0 0 0 .4-.09.7.7 0 0 0 .28-.25.8.8 0 0 0 .12-.36h.76v.07a1.27 1.27 0 0 1-.23.68c-.13.2-.32.34-.55.45a1.81 1.81 0 0 1-.78.17 1.8 1.8 0 0 1-.92-.22 1.42 1.42 0 0 1-.57-.63c-.13-.27-.19-.6-.19-.97v-.5c0-.38.07-.7.2-.98a1.44 1.44 0 0 1 .57-.63c.25-.15.55-.22.9-.22.23 0 .43.03.61.1.2.06.36.15.5.27a1.32 1.32 0 0 1 .46.96v.07h-.76a.85.85 0 0 0-.12-.38.7.7 0 0 0-.28-.26.8.8 0 0 0-.4-.1.81.81 0 0 0-.47.14.87.87 0 0 0-.3.4Z"/></svg>