<svg xmlns="http://www.w3.org/2000/svg" width="16" height="16" viewBox="0 0 16 16" id="icon"><path fill-rule="evenodd" d="M14 4.5V14a2 2 0 0 1-2 2h-1v-1h1a1 1 0 0 0 1-1V4.5h-2A1.5 1.5 0 0 1 9.5 3V1H4a1 1 0 0 0-1 1v9H2V2a2 2 0 0 1 2-2h5.5zM3.08 14.84a1.1 1.1 0 0 0 .4.82q.19.17.47.26.29.09.67.09.5 0 .86-.16.35-.16.54-.44a1 1 0 0 0 .18-.66q0-.33-.13-.56a1 1 0 0 0-.38-.35 2 2 0 0 0-.56-.21l-.62-.15a1 1 0 0 1-.4-.17.4.4 0 0 1-.15-.3q0-.24.18-.39.2-.15.52-.15.21 0 .37.07a1 1 0 0 1 .24.18 1 1 0 0 1 .12.26h.75a1 1 0 0 0-.2-.57 1 1 0 0 0-.5-.4 2 2 0 0 0-.78-.16q-.44 0-.77.15-.34.15-.53.42-.2.27-.2.64 0 .3.13.52t.35.37.54.21l.62.15q.31.07.46.2a.4.4 0 0 1 .16.32.5.5 0 0 1-.09.29 1 1 0 0 1-.25.19q-.17.07-.42.07-.17 0-.32-.04l-.25-.11a.6.6 0 0 1-.25-.39zM0 14.8q0 .25.08.47t.25.39.4.26.57.1q.63 0 .98-.35.36-.34.36-1v-2.73h-.79v2.75q0 .3-.14.46t-.42.17a.5.5 0 0 1-.45-.25l-.07-.27zm8.9-2.86h.9l-1.27 2 1.25 2h-.9l-.86-1.41H8l-.86 1.41h-.86l1.24-2.02-1.22-1.98h.93l.83 1.44h.03z"/></svg>