<svg xmlns="http://www.w3.org/2000/svg" width="16" height="16" viewBox="0 0 16 16" id="icon"><path fill-rule="evenodd" d="M14 4.5V14a2 2 0 0 1-2 2v-1a1 1 0 0 0 1-1V4.5h-2A1.5 1.5 0 0 1 9.5 3V1H4a1 1 0 0 0-1 1v9H2V2a2 2 0 0 1 2-2h5.5zM.7 15.85v-2.66h.04l.96 2.16h.51l.95-2.16h.04v2.66h.71v-4h-.8l-1.14 2.6h-.03l-1.13-2.6H0v4zm3.56-4v4h1.46q.6 0 1-.24a1.5 1.5 0 0 0 .6-.69q.2-.45.2-1.08t-.2-1.08a1.4 1.4 0 0 0-.6-.68q-.39-.23-1-.23zm.8.65h.56q.37 0 .6.15a1 1 0 0 1 .36.45q.12.3.12.75 0 .34-.07.6a1 1 0 0 1-.2.42 1 1 0 0 1-.33.25 1 1 0 0 1-.48.08h-.56zm4.78-.65h.9l-1.28 2 1.25 2h-.9l-.85-1.42h-.04l-.85 1.42H7.2l1.24-2.02-1.23-1.98h.93l.83 1.44h.04z"/></svg>