<svg xmlns="http://www.w3.org/2000/svg" width="16" height="16" viewBox="0 0 16 16" id="icon"><path fill-rule="evenodd" d="M14 4.5V14a2 2 0 0 1-2 2H9v-1h3a1 1 0 0 0 1-1V4.5h-2A1.5 1.5 0 0 1 9.5 3V1H4a1 1 0 0 0-1 1v9H2V2a2 2 0 0 1 2-2h5.5zM.7 13.19v2.66H0v-4h.8l1.15 2.6h.02l1.14-2.6h.8v4H3.2v-2.66h-.04l-.95 2.16H1.7l-.96-2.16zm3.93 2.66v-4h1.45q.61 0 1 .23t.6.68.2 1.08-.2 1.08-.6.7-1 .23zm1.35-3.35h-.56v2.7h.56q.28 0 .48-.08a1 1 0 0 0 .34-.25 1 1 0 0 0 .2-.42q.06-.26.06-.6a2 2 0 0 0-.12-.75 1 1 0 0 0-.35-.45q-.24-.16-.61-.16"/></svg>