<svg xmlns="http://www.w3.org/2000/svg" viewBox="0 0 16 16"><path fill-rule="evenodd" d="M14 4.5V14a2 2 0 0 1-2 2v-1a1 1 0 0 0 1-1V4.5h-2A1.5 1.5 0 0 1 9.5 3V1H4a1 1 0 0 0-1 1v9H2V2a2 2 0 0 1 2-2h5.5L14 4.5ZM.7 15.85v-2.66h.04l.96 2.16h.51l.95-2.16h.04v2.66h.71v-4h-.8l-1.14 2.6h-.03l-1.13-2.6H0v4h.7Zm5.24-4-.79 1.3c-.26.43-.51.87-.75 1.31v.65h1.94v.74h.74v-.74h.5v-.64h-.5v-2.62H5.94Zm-.82 2.62v-.02a22.93 22.93 0 0 1 1.18-2h.04v2.02H5.12Zm2.9-2.62h1.6c.28 0 .53.06.73.18.2.12.35.27.46.48a1.51 1.51 0 0 1 0 1.35c-.11.2-.26.36-.47.47a1.45 1.45 0 0 1-.73.18h-.8v1.34H8v-4Zm2.06 1.71a.8.8 0 0 0 .08-.38c0-.22-.06-.4-.18-.52a.7.7 0 0 0-.52-.18H8.8v1.4h.66a.8.8 0 0 0 .38-.08.57.57 0 0 0 .24-.24Z"/></svg>