<svg xmlns="http://www.w3.org/2000/svg" width="16" height="16" viewBox="0 0 16 16" id="icon"><path d="M7 9.78V7.22c0-.1.1-.16.19-.1l2.13 1.27a.13.13 0 0 1 0 .22L7.19 9.89A.13.13 0 0 1 7 9.78"/><path d="M9.3 0H4a2 2 0 0 0-2 2v12a2 2 0 0 0 2 2h8a2 2 0 0 0 2-2V4.7a1 1 0 0 0-.3-.7L10 .3a1 1 0 0 0-.7-.3m.2 3.5v-2l3 3h-2a1 1 0 0 1-1-1M5 6h6a.5.5 0 0 1 .5.44l.5 4a.5.5 0 0 1-.5.56h-3v2.02c.86.05 1.5.25 1.5.48 0 .28-.9.5-2 .5s-2-.22-2-.5c0-.23.64-.43 1.5-.48V11h-3a.5.5 0 0 1-.5-.56l.5-4A.5.5 0 0 1 5 6"/></svg>