<svg viewBox="0 0 16 16"><path fill-rule="evenodd" d="M14 4.5V14a2 2 0 0 1-2 2v-1a1 1 0 0 0 1-1V4.5h-2A1.5 1.5 0 0 1 9.5 3V1H4a1 1 0 0 0-1 1v9H2V2a2 2 0 0 1 2-2h5.5L14 4.5ZM0 14.84a1.13 1.13 0 0 0 .4.82c.13.11.29.2.48.26s.41.09.66.09c.34 0 .63-.06.86-.16.24-.1.42-.25.54-.44a1.17 1.17 0 0 0 .19-.66c0-.22-.05-.4-.14-.56a1 1 0 0 0-.37-.35 2.03 2.03 0 0 0-.57-.21l-.62-.15a.97.97 0 0 1-.4-.17.37.37 0 0 1-.15-.3.5.5 0 0 1 .19-.39.8.8 0 0 1 .51-.15.9.9 0 0 1 .37.07.62.62 0 0 1 .25.18.56.56 0 0 1 .12.26h.75a1.1 1.1 0 0 0-.2-.57 1.21 1.21 0 0 0-.5-.4 1.81 1.81 0 0 0-.78-.16c-.3 0-.55.05-.78.15-.22.1-.4.24-.53.42-.12.18-.19.4-.19.64a1 1 0 0 0 .47.9c.16.09.34.16.55.2l.62.15c.2.05.36.11.46.2a.39.39 0 0 1 .15.32.5.5 0 0 1-.08.29.56.56 0 0 1-.26.19 1 1 0 0 1-.41.07c-.12 0-.23-.01-.32-.04a.83.83 0 0 1-.25-.11.58.58 0 0 1-.26-.39H0Zm6.88 1.49-.5-.74c.17-.16.3-.36.4-.6.08-.24.13-.5.13-.8v-.5c0-.38-.07-.7-.2-.97a1.5 1.5 0 0 0-.6-.64 1.78 1.78 0 0 0-.91-.22c-.36 0-.66.07-.92.22a1.5 1.5 0 0 0-.59.64 2.14 2.14 0 0 0-.2.96v.5c0 .37.06.7.2.97s.34.48.6.63a1.8 1.8 0 0 0 .9.23 1.8 1.8 0 0 0 .6-.1l.3.42h.79ZM4.26 14.2v-.52c0-.25.04-.46.12-.63a.91.91 0 0 1 .32-.4.89.89 0 0 1 .5-.14c.19 0 .35.05.5.14a.88.88 0 0 1 .32.4c.07.17.11.38.11.63v.52c0 .16-.02.31-.05.45-.04.12-.09.24-.16.33l-.1-.14-.1-.14h-.74l.45.65a.64.64 0 0 1-.25.04.87.87 0 0 1-.49-.14.92.92 0 0 1-.32-.4 1.67 1.67 0 0 1-.1-.65Zm3.99 1.06h1.7v.67h-2.5v-4h.8v3.33Z"/></svg>