<svg xmlns="http://www.w3.org/2000/svg" width="16" height="16" viewBox="0 0 16 16"><path fill-rule="evenodd" d="M14 4.5V11h-1V4.5h-2A1.5 1.5 0 0 1 9.5 3V1H4a1 1 0 0 0-1 1v9H2V2a2 2 0 0 1 2-2h5.5zm-4.64 8.55a2 2 0 0 0-.1.64v.5q0 .36.1.62a1 1 0 0 0 .3.4 1 1 0 0 0 .48.12 1 1 0 0 0 .4-.08 1 1 0 0 0 .27-.25 1 1 0 0 0 .12-.37h.77v.08a1.3 1.3 0 0 1-.23.67q-.2.3-.55.46a2 2 0 0 1-.79.16q-.54 0-.91-.21a1.4 1.4 0 0 1-.57-.63q-.2-.41-.2-.98v-.5q0-.56.2-.97t.57-.64.91-.22q.33 0 .61.1.28.09.49.27a1.3 1.3 0 0 1 .46.96v.08h-.76a1 1 0 0 0-.12-.38 1 1 0 0 0-.27-.26 1 1 0 0 0-.4-.1 1 1 0 0 0-.48.14 1 1 0 0 0-.3.4m-6.1-1.13v4h-.79V14.2H.8v1.71H0v-4h.8v1.63h1.67v-1.63zm1.5 3.35h1.78v.65H3.97v-4h2.57v.64H4.75v1.03h1.68v.6H4.75zm3.15.65v-4h-.79v4z"/></svg>