<svg xmlns="http://www.w3.org/2000/svg" width="16" height="16" viewBox="0 0 16 16" id="icon"><path fill-rule="evenodd" d="M14 4.5V14a2 2 0 0 1-2 2H8v-1h4a1 1 0 0 0 1-1V4.5h-2A1.5 1.5 0 0 1 9.5 3V1H4a1 1 0 0 0-1 1v9H2V2a2 2 0 0 1 2-2h5.5zM.11 15.29a1 1 0 0 1-.11-.45h.77a.6.6 0 0 0 .25.38q.1.08.25.12t.32.04q.24 0 .41-.07a1 1 0 0 0 .26-.2.5.5 0 0 0 .08-.28.4.4 0 0 0-.15-.33q-.15-.12-.46-.2l-.62-.14a2 2 0 0 1-.54-.21 1 1 0 0 1-.35-.37 1 1 0 0 1-.13-.52q0-.37.2-.64.18-.27.52-.42t.78-.15q.45 0 .78.15.32.15.5.41t.2.57h-.75a1 1 0 0 0-.12-.26 1 1 0 0 0-.25-.18 1 1 0 0 0-.37-.07q-.32 0-.51.15a.5.5 0 0 0-.19.39q0 .18.15.3a1 1 0 0 0 .4.17l.62.14q.33.08.57.22.24.13.37.35t.14.56q0 .37-.19.66a1.2 1.2 0 0 1-.54.44q-.35.16-.86.16-.38 0-.66-.1a1.4 1.4 0 0 1-.48-.25 1 1 0 0 1-.29-.37m6.67-3.36v4H6v-1.71H4.31v1.71h-.8v-4h.8v1.63h1.68v-1.63z"/></svg>