<svg xmlns="http://www.w3.org/2000/svg" viewBox="0 0 16 16"><path fill-rule="evenodd" d="M14 4.5V14a2 2 0 0 1-2 2v-1a1 1 0 0 0 1-1V4.5h-2A1.5 1.5 0 0 1 9.5 3V1H4a1 1 0 0 0-1 1v9H2V2a2 2 0 0 1 2-2h5.5L14 4.5Zm-6.91 9.17v.52c0 .25-.04.47-.12.64a.86.86 0 0 1-.32.39.88.88 0 0 1-.47.12.88.88 0 0 1-.47-.12.87.87 0 0 1-.32-.39 1.55 1.55 0 0 1-.12-.64v-.52c0-.26.04-.47.12-.64a.87.87 0 0 1 .32-.4.87.87 0 0 1 .47-.12c.17 0 .33.04.47.13a.86.86 0 0 1 .32.39c.08.17.12.38.12.64Zm.8.52v-.52c0-.37-.07-.7-.2-.97a1.46 1.46 0 0 0-.6-.63 1.8 1.8 0 0 0-.91-.22c-.36 0-.66.07-.92.22a1.44 1.44 0 0 0-.6.63c-.13.27-.2.6-.2.97v.52c0 .37.07.7.2.97.15.27.34.48.6.63.26.14.56.21.92.21s.66-.07.92-.21c.25-.15.45-.36.58-.63.14-.28.2-.6.2-.97ZM.7 15.93v-2.66h.03l.96 2.16h.51l.95-2.16h.04v2.66h.71v-4h-.8l-1.14 2.6h-.03L.8 11.92H0v4h.7Zm9.54 0h-.96l-1.34-4h.92l.9 3.13h.04l.88-3.13h.88l-1.32 4Z"/></svg>