<svg viewBox="0 0 16 16"><path fill-rule="evenodd" d="M14 4.5V14a2 2 0 0 1-2 2H7v-1h5a1 1 0 0 0 1-1V4.5h-2A1.5 1.5 0 0 1 9.5 3V1H4a1 1 0 0 0-1 1v9H2V2a2 2 0 0 1 2-2h5.5L14 4.5ZM0 11.85h1.6c.29 0 .53.06.73.18.2.12.36.28.46.48.1.2.16.42.16.67 0 .25-.05.48-.16.68-.1.2-.26.36-.46.47a1.45 1.45 0 0 1-.74.18H.8v1.34H0v-4Zm2.06 1.71a.8.8 0 0 0 .09-.38c0-.22-.07-.4-.19-.52a.7.7 0 0 0-.51-.18H.79v1.4h.66a.8.8 0 0 0 .37-.08.57.57 0 0 0 .24-.24Zm2.96.75v1.54h-.79v-1.52l-1.34-2.48h.88l.85 1.7h.03l.86-1.7h.85l-1.34 2.46Z"/></svg>