<svg viewBox="0 0 16 16"><path fill-rule="evenodd" d="M14 4.5V11h-1V4.5h-2A1.5 1.5 0 0 1 9.5 3V1H4a1 1 0 0 0-1 1v9H2V2a2 2 0 0 1 2-2h5.5L14 4.5Zm-5.46 9.69v-.52c0-.26-.04-.47-.12-.64a.86.86 0 0 0-.32-.4.86.86 0 0 0-.47-.12.87.87 0 0 0-.47.13.87.87 0 0 0-.32.39 1.5 1.5 0 0 0-.12.64v.52c0 .25.04.47.12.64a.87.87 0 0 0 .32.39.88.88 0 0 0 .47.12.88.88 0 0 0 .47-.12.86.86 0 0 0 .32-.39 1.55 1.55 0 0 0 .12-.64Zm.8-.52v.52c0 .37-.07.7-.2.97-.14.27-.34.48-.6.63-.25.14-.55.21-.91.21s-.66-.07-.92-.21a1.46 1.46 0 0 1-.6-.63 2.15 2.15 0 0 1-.2-.97v-.52c0-.38.07-.7.2-.97.15-.28.34-.49.6-.63.26-.15.56-.22.92-.22s.66.07.92.22c.25.15.45.36.58.63.14.27.2.6.2.97Zm-6.06-.53-.74 2.79H1.8l-1.06-4h.86l.6 2.9h.03l.71-2.9h.68l.7 2.9h.05l.6-2.9h.85l-1.05 4h-.73l-.74-2.8h-.04Zm7.4 2.79v-1.6h1.6v-.63h-1.6v-1.12h1.75v-.65H9.88v4h.8Zm2.98-1.6v1.6h-.79v-4h2.55v.65h-1.76v1.12h1.6v.63h-1.6Z"/></svg>