<svg viewBox="0 0 16 16"><path d="M14 14V4.5L9.5 0H4a2 2 0 0 0-2 2v12a2 2 0 0 0 2 2h8a2 2 0 0 0 2-2zM9.5 3A1.5 1.5 0 0 0 11 4.5h2V14a1 1 0 0 1-1 1H4a1 1 0 0 1-1-1V2a1 1 0 0 1 1-1h5.5v2z"/><path d="M4.6 14.09a.81.81 0 0 1-.43-.42c-.2-.4-.13-.78.08-1.1.2-.31.52-.57.9-.8a7.68 7.68 0 0 1 1.47-.64A19.7 19.7 0 0 0 7.7 8.91a7.27 7.27 0 0 1-.43-1.3c-.09-.4-.12-.8-.05-1.14.08-.35.27-.67.65-.82.2-.08.4-.12.6-.08a.7.7 0 0 1 .48.37c.09.16.12.36.13.54 0 .19-.02.4-.05.61a9.85 9.85 0 0 1-.52 1.8 10.95 10.95 0 0 0 .98 1.68 5.75 5.75 0 0 1 1.33.05c.37.07.74.2.96.47.12.14.2.32.2.51.01.2-.04.39-.13.57a1.04 1.04 0 0 1-.36.41.86.86 0 0 1-.5.14 1.7 1.7 0 0 1-.94-.41 5.71 5.71 0 0 1-.91-.95 11.65 11.65 0 0 0-2 .4 11.3 11.3 0 0 1-1.02 1.51c-.3.35-.6.66-.93.79a.8.8 0 0 1-.58.03zm1.38-1.9-.46.23c-.32.2-.54.39-.64.55-.1.15-.1.25-.04.36l.02.05a.27.27 0 0 0 .04-.02c.13-.05.35-.23.63-.57a8.18 8.18 0 0 0 .45-.6zm1.64-1.33a12.71 12.71 0 0 1 1.01-.2 11.74 11.74 0 0 1-.5-.85 20.8 20.8 0 0 1-.5 1.04zm2.45.45c.15.16.3.3.43.4.24.2.41.26.5.26a.1.1 0 0 0 .07-.01.3.3 0 0 0 .1-.13.44.44 0 0 0 .05-.2.1.1 0 0 0-.02-.06c-.05-.06-.2-.15-.52-.21a3.88 3.88 0 0 0-.61-.05zm-2-3.51a6.7 6.7 0 0 0 .2-.83c.04-.19.05-.34.05-.46a.61.61 0 0 0-.04-.2.52.52 0 0 0-.14.04c-.09.03-.16.1-.2.28-.04.2-.03.47.05.82l.09.35z"/></svg>