<svg xmlns="http://www.w3.org/2000/svg" viewBox="0 0 16 16"><path fill-rule="evenodd" d="M14 4.5V11h-1V4.5h-2A1.5 1.5 0 0 1 9.5 3V1H4a1 1 0 0 0-1 1v9H2V2a2 2 0 0 1 2-2h5.5L14 4.5Zm-6.84 9.69v-.52a1.54 1.54 0 0 0-.12-.64.86.86 0 0 0-.32-.4.86.86 0 0 0-.47-.12.87.87 0 0 0-.47.13.87.87 0 0 0-.32.39 1.54 1.54 0 0 0-.12.64v.52c0 .25.04.47.12.64a.87.87 0 0 0 .32.39.88.88 0 0 0 .47.12.88.88 0 0 0 .47-.12.86.86 0 0 0 .32-.39 1.55 1.55 0 0 0 .12-.64Zm.8-.52v.52c0 .37-.06.7-.2.97a1.47 1.47 0 0 1-.59.63c-.25.14-.56.21-.92.21a1.86 1.86 0 0 1-.92-.21 1.46 1.46 0 0 1-.59-.63 2.15 2.15 0 0 1-.2-.97v-.52c0-.38.07-.7.2-.97.14-.28.34-.49.6-.63.25-.15.56-.22.91-.22.36 0 .67.07.92.22.26.15.45.36.59.63.14.27.2.6.2.97ZM1 15.93v-4h1.46c.4 0 .74.07 1 .23.27.16.46.38.6.68.12.3.19.66.19 1.07 0 .43-.07.79-.2 1.09-.13.3-.33.53-.6.69-.26.16-.59.23-1 .23H1Zm1.35-3.36H1.8v2.7h.56c.19 0 .35-.02.49-.07a.8.8 0 0 0 .33-.26c.09-.11.15-.25.2-.42a2.3 2.3 0 0 0 .06-.59c0-.3-.04-.55-.11-.75a.89.89 0 0 0-.36-.46 1.1 1.1 0 0 0-.6-.15Zm6.76 1.12c0-.25.03-.46.1-.64a.87.87 0 0 1 .3-.4.81.81 0 0 1 .48-.13.8.8 0 0 1 .4.1.7.7 0 0 1 .27.26.85.85 0 0 1 .12.38h.76v-.08a1.33 1.33 0 0 0-.46-.96 1.44 1.44 0 0 0-.5-.27 1.84 1.84 0 0 0-.6-.1c-.35 0-.66.07-.9.22-.26.15-.45.36-.58.64-.13.27-.2.6-.2.97v.5c0 .38.07.7.2.98.13.27.32.48.57.63.25.14.55.21.91.21.3 0 .56-.05.79-.16.23-.11.41-.26.55-.46a1.27 1.27 0 0 0 .23-.67v-.08h-.77a.8.8 0 0 1-.12.37.7.7 0 0 1-.27.25.87.87 0 0 1-.4.08.84.84 0 0 1-.48-.13.83.83 0 0 1-.3-.4 1.7 1.7 0 0 1-.1-.62v-.5Zm5.1-1.76h.89l-1.28 2 1.25 2h-.9l-.85-1.42h-.04l-.85 1.42h-.86l1.24-2.02-1.23-1.98h.93l.83 1.44h.04l.82-1.44Z"/></svg>