<svg xmlns="http://www.w3.org/2000/svg" width="16" height="16" viewBox="0 0 16 16" id="icon"><path fill-rule="evenodd" d="M14 4.5V14a2 2 0 0 1-2 2h-1v-1h1a1 1 0 0 0 1-1V4.5h-2A1.5 1.5 0 0 1 9.5 3V1H4a1 1 0 0 0-1 1v9H2V2a2 2 0 0 1 2-2h5.5zM6.47 15.29a1 1 0 0 1-.1-.45h.76a.6.6 0 0 0 .25.38q.1.08.25.12t.32.04q.25 0 .41-.07a1 1 0 0 0 .26-.2.5.5 0 0 0 .08-.28.4.4 0 0 0-.15-.33q-.15-.12-.46-.2l-.62-.13a2 2 0 0 1-.54-.22 1 1 0 0 1-.35-.37 1 1 0 0 1-.12-.52q0-.37.19-.64t.52-.42.78-.15.78.15.5.41.2.57h-.75a1 1 0 0 0-.12-.26 1 1 0 0 0-.25-.18 1 1 0 0 0-.37-.07q-.32 0-.51.15a.5.5 0 0 0-.18.39q0 .18.14.3a1 1 0 0 0 .4.17l.62.15q.33.07.57.2a1 1 0 0 1 .38.36q.13.23.13.56 0 .37-.19.66a1.2 1.2 0 0 1-.54.44q-.35.16-.85.16-.39 0-.67-.1a1.4 1.4 0 0 1-.48-.24 1 1 0 0 1-.29-.38m-2.94-3.36h-.9l-.82 1.44h-.04l-.83-1.44H.01l1.23 1.98L0 15.93h.86l.85-1.41h.04l.85 1.41h.9l-1.25-1.99zm2.72 3.33h-1.7v-3.33h-.78v4h2.48z"/></svg>