<svg xmlns="http://www.w3.org/2000/svg" width="16" height="16" viewBox="0 0 16 16"><path fill-rule="evenodd" d="M14 4.5V11h-1V4.5h-2A1.5 1.5 0 0 1 9.5 3V1H4a1 1 0 0 0-1 1v9H2V2a2 2 0 0 1 2-2h5.5zM7.86 14.84a1.1 1.1 0 0 0 .4.82q.2.17.48.26t.67.09q.5 0 .85-.16.36-.16.54-.44a1 1 0 0 0 .19-.66q0-.33-.13-.56a1 1 0 0 0-.38-.35 2 2 0 0 0-.56-.21l-.63-.15a1 1 0 0 1-.4-.17.4.4 0 0 1-.14-.3q0-.24.18-.39.19-.15.51-.15.22 0 .37.07a1 1 0 0 1 .25.18 1 1 0 0 1 .12.26h.75a1 1 0 0 0-.2-.57 1 1 0 0 0-.5-.4 2 2 0 0 0-.78-.16q-.44 0-.78.15-.33.15-.53.42-.19.27-.19.64 0 .3.13.52t.35.37.54.21l.62.15q.3.07.46.2a.4.4 0 0 1 .15.32.5.5 0 0 1-.08.29 1 1 0 0 1-.26.19q-.17.07-.41.07-.18 0-.32-.04l-.25-.11a.6.6 0 0 1-.26-.39zm-3.73-2.9h.9l-1.28 2 1.26 2H4.1l-.85-1.42H3.2l-.85 1.41H1.5l1.24-2.02-1.23-1.98h.93l.84 1.44h.03zm1.93 3.32h1.7v.67h-2.5v-4h.8zm7.63-3.33h.9l-1.28 2 1.26 2h-.91l-.85-1.41h-.04l-.85 1.41h-.86l1.24-2.02-1.23-1.98H12l.83 1.44h.04z"/></svg>