<svg xmlns="http://www.w3.org/2000/svg" width="16" height="16" viewBox="0 0 16 16"><path fill-rule="evenodd" d="M14 4.5V11h-1V4.5h-2A1.5 1.5 0 0 1 9.5 3V1H4a1 1 0 0 0-1 1v9H2V2a2 2 0 0 1 2-2h5.5zM4.15 15.29a1 1 0 0 1-.11-.45h.76a.6.6 0 0 0 .26.38q.1.08.25.12t.32.04q.24 0 .41-.07a1 1 0 0 0 .26-.2.5.5 0 0 0 .08-.28.4.4 0 0 0-.15-.33q-.15-.12-.47-.2l-.61-.13a2 2 0 0 1-.54-.22 1 1 0 0 1-.35-.37 1 1 0 0 1-.13-.52q0-.37.2-.64.18-.27.52-.42t.78-.15.78.15q.32.15.5.41t.2.57h-.75a1 1 0 0 0-.12-.26 1 1 0 0 0-.25-.18 1 1 0 0 0-.37-.07q-.32 0-.51.15a.5.5 0 0 0-.19.39q0 .18.15.3a1 1 0 0 0 .4.17l.62.15q.33.07.57.2a1 1 0 0 1 .37.36q.14.23.14.56 0 .37-.19.66a1.2 1.2 0 0 1-.54.44q-.35.16-.86.16-.38 0-.66-.1a1.4 1.4 0 0 1-.48-.24 1 1 0 0 1-.29-.38m-3.1-.03a1 1 0 0 1-.08-.47h.76l.07.27a.5.5 0 0 0 .46.25q.28 0 .42-.17.14-.16.14-.46v-2.75h.79v2.73q0 .66-.36 1-.35.35-.98.35a2 2 0 0 1-.57-.1 1 1 0 0 1-.41-.26 1 1 0 0 1-.24-.4m9.09-1.58v.52q0 .39-.12.65a1 1 0 0 1-.32.38 1 1 0 0 1-.47.13 1 1 0 0 1-.47-.13 1 1 0 0 1-.32-.38 2 2 0 0 1-.12-.65v-.52q0-.38.12-.64a1 1 0 0 1 .32-.39 1 1 0 0 1 .47-.12q.26 0 .47.12a1 1 0 0 1 .32.4q.12.25.12.63m.8.52v-.51q0-.57-.2-.97a1.5 1.5 0 0 0-.6-.63q-.37-.22-.91-.22-.53 0-.92.22a1.4 1.4 0 0 0-.59.62q-.2.41-.2.98v.51q0 .56.2.97t.59.63.92.22.92-.22.59-.63.2-.97m1.3-.93v2.67h-.75v-4h.66l1.75 2.66h.03v-2.66h.75v4h-.65l-1.77-2.67z"/></svg>