<svg xmlns="http://www.w3.org/2000/svg" width="16" height="16" viewBox="0 0 16 16"><path d="M8.06 6.5a.5.5 0 0 1 .5.5v.78a12 12 0 0 1-.55 3.51l-1.33 4.15a.5.5 0 0 1-.95-.31l1.33-4.14a11 11 0 0 0 .5-3.21V7a.5.5 0 0 1 .5-.5"/><path d="M6.06 7a2 2 0 1 1 4 0 .5.5 0 1 1-1 0 1 1 0 1 0-2 0v.33q0 .61-.07 1.22a.5.5 0 0 1-.99-.1q.06-.56.06-1.12zm3.5 1a.5.5 0 0 1 .5.51 12 12 0 0 1-.6 3.34l-1.26 3.8a.5.5 0 0 1-.95-.31l1.27-3.8a11 11 0 0 0 .54-3.05.5.5 0 0 1 .5-.49m-3.35 2.12a.5.5 0 0 1 .33.62l-1.3 4.2a.5.5 0 1 1-.95-.3l1.3-4.2a.5.5 0 0 1 .62-.32"/><path d="M4.76 5.83A3.5 3.5 0 0 1 11.56 7a.5.5 0 0 1-1 0 2.5 2.5 0 0 0-4.86-.83.5.5 0 1 1-.94-.34m.3 1.67a.5.5 0 0 1 .45.55 11 11 0 0 1-.4 2.03l-1.22 4.07a.5.5 0 1 1-.96-.28l1.22-4.08a10 10 0 0 0 .36-1.84.5.5 0 0 1 .55-.45m6 .65a.5.5 0 0 1 .5.5q0 1.93-.63 3.76l-1.1 3.15a.5.5 0 0 1-.94-.33l1.1-3.14q.56-1.67.57-3.44a.5.5 0 0 1 .5-.5"/><path d="M3.9 4.22a5 5 0 0 1 5.2-2.11.5.5 0 0 1-.2.98 4 4 0 0 0-4.17 1.69.5.5 0 0 1-.83-.56m6.72-.95a.5.5 0 0 1 .7-.05A5 5 0 0 1 13.07 7v1.5a.5.5 0 1 1-1 0V7a4 4 0 0 0-1.39-3.03.5.5 0 0 1-.05-.7M3.68 5.84a.5.5 0 0 1 .42.57q-.04.29-.04.59 0 1.07-.3 2.1l-1.14 3.92a.5.5 0 1 1-.96-.28L2.8 8.82A7 7 0 0 0 3.06 7q0-.37.05-.74a.5.5 0 0 1 .57-.42m8.88 3.66a.5.5 0 0 1 .46.54q-.13 1.5-.64 2.94l-.75 2.06a.5.5 0 0 1-.94-.33l.75-2.07a11 11 0 0 0 .58-2.68.5.5 0 0 1 .54-.46"/><path d="M4.81 1.37A6.5 6.5 0 0 1 14.56 7a.5.5 0 1 1-1 0 5.5 5.5 0 0 0-8.25-4.76.5.5 0 0 1-.5-.87m-.89 1.26a.5.5 0 0 1 .04.7A5.5 5.5 0 0 0 2.56 7a.5.5 0 0 1-1 0c0-1.66.63-3.18 1.66-4.33a.5.5 0 0 1 .7-.04m-2 5.39a.5.5 0 0 1 .34.62l-.78 2.76a.5.5 0 1 1-.96-.27l.78-2.76a.5.5 0 0 1 .62-.35m12.15.48a.5.5 0 0 1 .49.51 13 13 0 0 1-.73 4.53l-.07.2a.5.5 0 0 1-.94-.36l.07-.19c.5-1.35.64-2.74.67-4.2a.5.5 0 0 1 .5-.49"/></svg>