<svg viewBox="0 0 16 16"><path d="M8.06 6.5a.5.5 0 0 1 .5.5v.78a11.5 11.5 0 0 1-.55 3.51l-1.33 4.15a.5.5 0 0 1-.95-.31l1.33-4.14a10.5 10.5 0 0 0 .5-3.21V7a.5.5 0 0 1 .5-.5Z"/><path d="M6.06 7a2 2 0 1 1 4 0 .5.5 0 1 1-1 0 1 1 0 1 0-2 0v.33c0 .41-.02.82-.07 1.22a.5.5 0 0 1-.99-.1c.04-.37.06-.75.06-1.12V7Zm3.5 1a.5.5 0 0 1 .5.51 11.5 11.5 0 0 1-.6 3.34l-1.26 3.8a.5.5 0 0 1-.95-.31l1.27-3.8a10.5 10.5 0 0 0 .54-3.05.5.5 0 0 1 .5-.49Zm-3.35 2.12a.5.5 0 0 1 .33.62l-1.3 4.2a.5.5 0 1 1-.95-.3l1.3-4.2a.5.5 0 0 1 .62-.32Z"/><path d="M4.76 5.83A3.5 3.5 0 0 1 11.56 7a.5.5 0 0 1-1 0 2.5 2.5 0 0 0-4.86-.83.5.5 0 1 1-.94-.34Zm.3 1.67a.5.5 0 0 1 .45.55 10.72 10.72 0 0 1-.4 2.03l-1.22 4.07a.5.5 0 1 1-.96-.28l1.22-4.08a9.72 9.72 0 0 0 .36-1.84.5.5 0 0 1 .55-.45Zm6 .65a.5.5 0 0 1 .5.5c0 1.28-.21 2.55-.63 3.76l-1.1 3.15a.5.5 0 0 1-.94-.33l1.1-3.15c.37-1.1.57-2.26.57-3.43a.5.5 0 0 1 .5-.5Z"/><path d="M3.9 4.22a5 5 0 0 1 5.2-2.11.5.5 0 0 1-.2.98 4 4 0 0 0-4.17 1.69.5.5 0 0 1-.83-.56Zm6.72-.95a.5.5 0 0 1 .7-.05A4.99 4.99 0 0 1 13.07 7v1.5a.5.5 0 1 1-1 0V7a3.99 3.99 0 0 0-1.39-3.03.5.5 0 0 1-.05-.7ZM3.68 5.84a.5.5 0 0 1 .42.57c-.03.2-.04.39-.04.59 0 .71-.1 1.42-.3 2.1l-1.14 3.92a.5.5 0 1 1-.96-.28L2.8 8.82A6.53 6.53 0 0 0 3.06 7a6 6 0 0 1 .05-.74.5.5 0 0 1 .57-.42Zm8.88 3.66a.5.5 0 0 1 .46.54c-.09 1-.3 1.99-.64 2.94l-.75 2.06a.5.5 0 0 1-.94-.33l.75-2.07a10.51 10.51 0 0 0 .58-2.68.5.5 0 0 1 .54-.46Z"/><path d="M4.81 1.37A6.5 6.5 0 0 1 14.56 7a.5.5 0 1 1-1 0 5.5 5.5 0 0 0-8.25-4.76.5.5 0 0 1-.5-.87Zm-.89 1.26a.5.5 0 0 1 .04.7A5.48 5.48 0 0 0 2.56 7a.5.5 0 0 1-1 0c0-1.66.63-3.18 1.66-4.33a.5.5 0 0 1 .7-.04Zm-2 5.39a.5.5 0 0 1 .34.62l-.78 2.76a.5.5 0 1 1-.96-.27l.78-2.76a.5.5 0 0 1 .62-.35Zm12.14.48a.5.5 0 0 1 .5.51 13.4 13.4 0 0 1-.73 4.53l-.07.2a.5.5 0 0 1-.94-.36l.07-.19c.5-1.35.64-2.74.67-4.2a.5.5 0 0 1 .5-.49Z"/></svg>