<svg viewBox="0 0 16 16"><path d="M14.78.09A.5.5 0 0 1 15 .5V8a.5.5 0 0 1-.31.46L14.5 8l.19.46h-.01l-.03.02a12.44 12.44 0 0 1-.4.15c-.26.1-.62.22-1.04.35-.82.25-1.88.52-2.71.52-.85 0-1.55-.28-2.16-.53h-.03A4.75 4.75 0 0 0 6.5 8.5c-.7 0-1.64.23-2.44.48A19.63 19.63 0 0 0 3 9.34v6.16a.5.5 0 0 1-1 0V.5a.5.5 0 0 1 1 0v.28l.79-.26A10.3 10.3 0 0 1 6.5 0c.84 0 1.52.28 2.12.52l.04.02C9.3.79 9.83 1 10.5 1c.7 0 1.64-.23 2.44-.48a19.59 19.59 0 0 0 1.35-.47l.02-.01M14 1.22l-.77.26c-.8.25-1.87.52-2.73.52-.89 0-1.6-.29-2.2-.53h-.01A4.65 4.65 0 0 0 6.5 1c-.67 0-1.6.23-2.42.48A21.3 21.3 0 0 0 3 1.84v6.44l.77-.26c.8-.25 1.87-.52 2.73-.52.85 0 1.55.28 2.16.53h.03c.63.26 1.17.47 1.81.47.67 0 1.6-.23 2.42-.48A21.32 21.32 0 0 0 14 7.66V1.21z"/></svg>