<svg xmlns="http://www.w3.org/2000/svg" width="16" height="16" viewBox="0 0 16 16" id="icon"><path d="M14.78.09A.5.5 0 0 1 15 .5V8a.5.5 0 0 1-.31.46L14.5 8l.19.46h-.01l-.03.02-.4.15q-.4.15-1.04.35c-.82.25-1.88.52-2.71.52-.85 0-1.55-.28-2.16-.52l-.03-.02A5 5 0 0 0 6.5 8.5c-.7 0-1.64.23-2.44.48L3 9.34v6.16a.5.5 0 0 1-1 0V.5a.5.5 0 0 1 1 0v.28l.79-.26C4.61.27 5.67 0 6.5 0s1.52.28 2.12.52l.04.02C9.3.79 9.83 1 10.5 1c.7 0 1.64-.23 2.44-.48a20 20 0 0 0 1.35-.47l.02-.01M14 1.22l-.77.26c-.8.25-1.87.52-2.73.52-.89 0-1.6-.29-2.2-.53h-.01A5 5 0 0 0 6.5 1c-.67 0-1.6.23-2.41.48L3 1.85v6.43l.77-.26c.8-.25 1.87-.52 2.73-.52s1.55.28 2.16.53h.03c.63.26 1.17.47 1.81.47.67 0 1.6-.23 2.42-.48L14 7.66z"/></svg>