<svg xmlns="http://www.w3.org/2000/svg" width="16" height="16" viewBox="0 0 16 16" id="icon"><path d="M11.5 0a.5.5 0 0 1 0 1H11v5.36l4.5 7.36q.15.24.19.5l.01.06.01.09v.29l-.02.1-.01.08-.03.1-.03.09-.17.32a2 2 0 0 1-.4.4l-.08.05-.1.05-.07.03-.09.03-.1.04-.08.01-.1.02h-.01l-.2.02H1.78l-.21-.01A1.5 1.5 0 0 1 .5 13.72L5 6.36V1h-.5a.5.5 0 0 1-.35-.85A.5.5 0 0 1 4.5 0zm.5 12a.5.5 0 0 0 0 1h1.89l-.62-1zm-1-2a.5.5 0 0 0 0 1h1.66l-.6-1zm-1-2a.5.5 0 0 0 0 1h1.44l-.6-1zM9 6a.5.5 0 0 0 0 1h1.22l-.15-.24L10 6.5V6zm0-2a.5.5 0 0 0 0 1h1V4zm0-2a.5.5 0 0 0 0 1h1V2z"/></svg>