<svg xmlns="http://www.w3.org/2000/svg" width="16" height="16" viewBox="0 0 16 16"><path d="M1.5 0h11.59a1.5 1.5 0 0 1 1.06.44l1.41 1.41A1.5 1.5 0 0 1 16 2.91V14.5a1.5 1.5 0 0 1-1.5 1.5h-13A1.5 1.5 0 0 1 0 14.5v-13A1.5 1.5 0 0 1 1.5 0M1 1.5v13a.5.5 0 0 0 .5.5H2v-4.5A1.5 1.5 0 0 1 3.5 9h9a1.5 1.5 0 0 1 1.5 1.5V15h.5a.5.5 0 0 0 .5-.5V2.91a.5.5 0 0 0-.15-.35l-1.41-1.41a.5.5 0 0 0-.35-.15H13v3.5A1.5 1.5 0 0 1 11.5 6h-7A1.5 1.5 0 0 1 3 4.5V1H1.5a.5.5 0 0 0-.5.5m9.5-.5a.5.5 0 0 0-.5.5v3a.5.5 0 0 0 .5.5h1a.5.5 0 0 0 .5-.5v-3a.5.5 0 0 0-.5-.5z"/></svg>