<svg xmlns="http://www.w3.org/2000/svg" viewBox="0 0 16 16"><path d="M11.42 8c.44-.05.81-.14 1.04-.27a2 2 0 0 0-2-3.46c-.23.13-.49.41-.75.77.18-.41.29-.78.29-1.04a2 2 0 1 0-4 0c0 .26.11.63.29 1.03a2.93 2.93 0 0 0-.75-.76 2 2 0 0 0-2 3.46c.23.13.6.22 1.04.27-.44.05-.81.14-1.04.27a2 2 0 1 0 2 3.46c.23-.13.49-.41.75-.77A2.9 2.9 0 0 0 6 12a2 2 0 1 0 4 0c0-.26-.11-.63-.29-1.03.26.35.52.63.75.76a2 2 0 1 0 2-3.46c-.23-.13-.6-.22-1.04-.27zM9 4a1.47 1.47 0 0 1-.04.2c-.04.14-.1.3-.19.49a12.88 12.88 0 0 1-.63 1.22L8 6.14a21.73 21.73 0 0 1-.14-.23 12.88 12.88 0 0 1-.63-1.22 4.22 4.22 0 0 1-.19-.49A1.47 1.47 0 0 1 7 4a1 1 0 1 1 2 0zM3.67 5.5a1 1 0 0 1 1.37-.37 1.47 1.47 0 0 1 .15.15c.1.1.2.23.33.4.24.33.5.74.74 1.16l.13.23a21.86 21.86 0 0 1-.27 0 12.88 12.88 0 0 1-1.37-.06 4.21 4.21 0 0 1-.51-.08 1.47 1.47 0 0 1-.2-.06 1 1 0 0 1-.37-1.37zm1.37 5.37a1 1 0 0 1-1-1.74l.04-.02.16-.04c.13-.03.3-.06.5-.08a12.88 12.88 0 0 1 1.38-.06h.27a21.82 21.82 0 0 1-.13.23c-.24.42-.5.83-.74 1.16a4.1 4.1 0 0 1-.33.4 1.48 1.48 0 0 1-.15.15zM9 12a1 1 0 0 1-2 0 1.48 1.48 0 0 1 .04-.2 12.82 12.82 0 0 1 .82-1.7L8 9.85l.14.23a13.05 13.05 0 0 1 .81 1.7A1.34 1.34 0 0 1 9 12zm3.33-6.5a1 1 0 0 1-.37 1.37 1.48 1.48 0 0 1-.2.06 12.96 12.96 0 0 1-1.89.14h-.26l.13-.23c.24-.42.5-.83.74-1.16a4.1 4.1 0 0 1 .33-.4l.11-.11.04-.04a1 1 0 0 1 1.37.37zm-1.37 5.37a1.5 1.5 0 0 1-.15-.14 4.22 4.22 0 0 1-.33-.4 12.88 12.88 0 0 1-.74-1.17 22 22 0 0 1-.13-.23h.27a12.98 12.98 0 0 1 1.88.14l.16.04.04.02a1 1 0 1 1-1 1.74zM8 9a1 1 0 1 1 0-2 1 1 0 0 1 0 2z"/></svg>