<svg xmlns="http://www.w3.org/2000/svg" width="16" height="16" viewBox="0 0 16 16"><path d="M6.17 1.18a2 2 0 0 1 3.66 0 2 2 0 0 1 3.16 1.83 2 2 0 0 1 1.83 3.16 2 2 0 0 1 0 3.66 2 2 0 0 1-1.83 3.16 2 2 0 0 1-3.16 1.83 2 2 0 0 1-3.66 0 2 2 0 0 1-3.16-1.83 2 2 0 0 1-1.83-3.16 2 2 0 0 1 0-3.66 2 2 0 0 1 1.83-3.16 2 2 0 0 1 3.16-1.83M8 1a1 1 0 0 0-1 1.03l.01.1.06.29q.07.36.2.88c.2.7.44 1.52.69 2.32l.04.14.05-.14a61 61 0 0 0 .88-3.2L9 2.03V2a1 1 0 0 0-1-1M2 9h.03l.1-.01.29-.06.88-.2a61 61 0 0 0 2.32-.69L5.76 8l-.14-.04a61 61 0 0 0-2.32-.68l-.88-.21L2.03 7H2a1 1 0 1 0 0 2m7 5v-.03l-.07-.39-.2-.88a61 61 0 0 0-.69-2.32L8 10.24l-.04.14a61 61 0 0 0-.9 3.2l-.06.39V14a1 1 0 1 0 2 0m-5.7-2.13.03-.02.3-.25.66-.63a61 61 0 0 0 1.67-1.74l.1-.11-.14.03a61 61 0 0 0-2.35.57l-.87.26-.37.14-.03.01a1 1 0 1 0 1 1.74m1.2 2.2a1 1 0 0 0 1.37-.37l.01-.03.04-.08.1-.29q.12-.35.26-.87a61 61 0 0 0 .57-2.34l.03-.15-.1.1a61 61 0 0 0-1.75 1.67l-.63.66-.25.3-.02.03a1 1 0 0 0 .37 1.36m9.2-8.2a1 1 0 0 0-1-1.73l-.03.02-.3.25-.66.63a61 61 0 0 0-1.67 1.74l-.1.11.14-.03a61 61 0 0 0 2.35-.57q.52-.14.87-.26l.37-.14zm-2.2-3.92a1 1 0 0 0-1.37.36l-.01.03-.04.08-.1.29q-.12.35-.26.87a61 61 0 0 0-.57 2.35l-.03.14.1-.1a61 61 0 0 0 1.75-1.67q.38-.37.63-.66l.25-.3.02-.03a1 1 0 0 0-.37-1.36M14 9a1 1 0 0 0 0-2h-.03l-.39.07q-.37.07-.88.2c-.7.2-1.52.44-2.32.69l-.14.04.14.05a61 61 0 0 0 3.2.88l.39.07zM1.94 4.5a1 1 0 0 0 .4 1.38l.08.04.28.1q.35.12.87.26a61 61 0 0 0 2.35.57l.14.03-.1-.11a61 61 0 0 0-1.67-1.74l-.66-.63-.3-.25-.03-.02a1 1 0 0 0-1.36.37m2.2-1.2.01.03.25.3q.25.29.63.66a61 61 0 0 0 1.74 1.67l.11.1-.03-.14a61 61 0 0 0-.57-2.35q-.14-.52-.26-.87l-.14-.37-.01-.03a1 1 0 1 0-1.74 1m9.93 8.2a1 1 0 0 0-.36-1.37l-.03-.01-.37-.14q-.35-.12-.87-.26a61 61 0 0 0-2.35-.57l-.14-.03.1.11a61 61 0 0 0 1.67 1.74q.38.38.66.63l.3.25.03.02a1 1 0 0 0 1.36-.37m-3.93 2.2a1 1 0 0 0 1.74-1l-.02-.03-.25-.3-.63-.66a61 61 0 0 0-1.74-1.67l-.11-.1.03.14a61 61 0 0 0 .57 2.35l.26.87.14.37zM8 9.5a1.5 1.5 0 1 0 0-3 1.5 1.5 0 0 0 0 3"/></svg>