<svg xmlns="http://www.w3.org/2000/svg" viewBox="0 0 16 16"><path d="M6.17 1.18a2 2 0 0 1 3.66 0 2 2 0 0 1 3.16 1.83 2 2 0 0 1 1.83 3.16 2 2 0 0 1 0 3.66 2 2 0 0 1-1.83 3.16 2 2 0 0 1-3.16 1.83 2 2 0 0 1-3.66 0 2 2 0 0 1-3.16-1.83 2 2 0 0 1-1.83-3.16 2 2 0 0 1 0-3.66 2 2 0 0 1 1.83-3.16 2 2 0 0 1 3.16-1.83zM8 1a1 1 0 0 0-1 1.03l.01.1.06.29c.04.24.12.54.2.88.2.7.44 1.52.69 2.32l.04.14.04-.14a60.55 60.55 0 0 0 .9-3.2A5 5 0 0 0 9 2.03V2a1 1 0 0 0-1-1zM2 9h.03l.1-.01a4.99 4.99 0 0 0 .29-.06l.88-.2a60.59 60.59 0 0 0 2.32-.69L5.76 8l-.14-.04a60.59 60.59 0 0 0-2.32-.68 16.7 16.7 0 0 0-.88-.21A4.99 4.99 0 0 0 2.03 7H2a1 1 0 1 0 0 2zm7 5v-.03a5 5 0 0 0-.07-.39 16.4 16.4 0 0 0-.2-.88 60.58 60.58 0 0 0-.69-2.32L8 10.24l-.04.14a60.55 60.55 0 0 0-.9 3.2 5 5 0 0 0-.06.39V14a1 1 0 1 0 2 0zm-5.7-2.13.03-.02a5 5 0 0 0 .3-.25 17 17 0 0 0 .66-.63 60.61 60.61 0 0 0 1.67-1.74l.1-.11-.14.03a60.88 60.88 0 0 0-2.35.57c-.34.1-.64.18-.87.26a5.06 5.06 0 0 0-.37.14l-.03.01a1 1 0 1 0 1 1.74zm1.2 2.2a1 1 0 0 0 1.37-.37l.01-.03.04-.08a5.09 5.09 0 0 0 .1-.29c.08-.23.16-.53.26-.87a60.6 60.6 0 0 0 .57-2.34l.03-.15-.1.1a60.85 60.85 0 0 0-1.75 1.67 17.07 17.07 0 0 0-.63.66 5.06 5.06 0 0 0-.25.3l-.02.03a1 1 0 0 0 .37 1.36zm9.2-8.2a1 1 0 0 0-1-1.74l-.03.02a4.95 4.95 0 0 0-.3.25 16.69 16.69 0 0 0-.66.63 60.72 60.72 0 0 0-1.67 1.74l-.1.11.14-.03a60.6 60.6 0 0 0 2.35-.57c.34-.1.64-.18.87-.26a5 5 0 0 0 .37-.14.53.53 0 0 0 .03-.01zm-2.2-3.93a1 1 0 0 0-1.37.36l-.01.03-.04.08a5.09 5.09 0 0 0-.1.29c-.08.23-.16.53-.26.87a60.62 60.62 0 0 0-.57 2.35l-.03.14.1-.1a60.85 60.85 0 0 0 1.75-1.67c.25-.25.47-.47.63-.66a5 5 0 0 0 .25-.3l.02-.03a1 1 0 0 0-.37-1.36zM14 9a1 1 0 0 0 0-2h-.03a5 5 0 0 0-.39.07c-.24.04-.54.12-.88.2-.7.2-1.52.44-2.32.69l-.14.04.14.04a60.55 60.55 0 0 0 3.2.9 5 5 0 0 0 .39.06H14zM1.94 4.5a1 1 0 0 0 .4 1.38l.08.04.28.1c.23.08.53.16.87.26a60.88 60.88 0 0 0 2.35.57l.14.03-.1-.11a60.58 60.58 0 0 0-1.67-1.74 16.7 16.7 0 0 0-.66-.63 5 5 0 0 0-.3-.25l-.03-.02a1 1 0 0 0-1.36.37zm2.2-1.2.01.03a5 5 0 0 0 .25.3c.16.19.38.41.63.66a60.6 60.6 0 0 0 1.74 1.67l.11.1-.03-.14a60.6 60.6 0 0 0-.57-2.35c-.1-.34-.18-.64-.26-.87a5 5 0 0 0-.14-.37l-.01-.03a1 1 0 1 0-1.74 1zm9.92 8.2a1 1 0 0 0-.36-1.37l-.03-.01a5 5 0 0 0-.37-.14c-.23-.08-.53-.16-.87-.26a60.62 60.62 0 0 0-2.34-.57l-.15-.03.1.11a60.73 60.73 0 0 0 1.67 1.74c.25.25.47.47.66.63a4.95 4.95 0 0 0 .3.25l.03.02a1 1 0 0 0 1.36-.37zm-3.93 2.2a1 1 0 0 0 1.74-1l-.02-.03a5.07 5.07 0 0 0-.25-.3 16.7 16.7 0 0 0-.63-.66 60.46 60.46 0 0 0-1.74-1.67l-.11-.1.03.14a60.6 60.6 0 0 0 .57 2.35c.1.34.18.64.26.87a4.99 4.99 0 0 0 .14.37.57.57 0 0 0 .01.03zM8 9.5a1.5 1.5 0 1 0 0-3 1.5 1.5 0 0 0 0 3z"/></svg>