<svg xmlns="http://www.w3.org/2000/svg" width="16" height="16" viewBox="0 0 16 16" id="icon"><path d="M8 16a4 4 0 0 0 4-4 4 4 0 0 0 0-8 4 4 0 0 0-8 0 4 4 0 1 0 0 8 4 4 0 0 0 4 4m3-12q0 .11-.03.25c-.54.24-1.1.63-1.6 1.08A3 3 0 0 0 8 5a3 3 0 0 0-1.37.33 7 7 0 0 0-1.6-1.08L5 4a3 3 0 0 1 6 0m-.81 6.05A3 3 0 0 0 11 8a3 3 0 0 0-.81-2.05q.32-.27.65-.49Q11.6 4.98 12 5a3 3 0 1 1 0 6q-.4.02-1.16-.46a7 7 0 0 1-.65-.49m-3.56.62a3 3 0 0 0 2.74 0c.5.45 1.06.84 1.6 1.08q.03.14.03.25a3 3 0 1 1-6 0q0-.11.03-.25c.54-.24 1.1-.63 1.6-1.08M5.8 5.95A3 3 0 0 0 5 8c0 .8.3 1.52.81 2.05a7 7 0 0 1-.64.49Q4.4 11.02 4 11a3 3 0 0 1 0-6q.4-.02 1.17.46.32.2.64.49M8 9a1 1 0 1 1 0-2 1 1 0 0 1 0 2"/></svg>