<svg viewBox="0 0 16 16"><path d="M8 16a4 4 0 0 0 4-4 4 4 0 0 0 0-8 4 4 0 0 0-8 0 4 4 0 1 0 0 8 4 4 0 0 0 4 4zm3-12-.03.25c-.54.24-1.1.63-1.6 1.08A2.99 2.99 0 0 0 8 5a3 3 0 0 0-1.37.33 6.57 6.57 0 0 0-1.6-1.08A1.12 1.12 0 0 1 5 4a3 3 0 0 1 6 0zm-.81 6.05A2.99 2.99 0 0 0 11 8a2.99 2.99 0 0 0-.81-2.05c.21-.18.43-.35.65-.49.5-.33.9-.46 1.16-.46a3 3 0 1 1 0 6c-.27 0-.66-.13-1.17-.46a6.83 6.83 0 0 1-.64-.49zm-3.56.62a3 3 0 0 0 2.74 0c.5.45 1.06.84 1.6 1.08L11 12a3 3 0 1 1-6 0l.03-.25c.54-.24 1.1-.63 1.6-1.08zM5.8 5.95A2.99 2.99 0 0 0 5 8c0 .8.3 1.52.81 2.05a6.83 6.83 0 0 1-.64.49c-.51.33-.9.46-1.17.46a3 3 0 0 1 0-6c.27 0 .66.13 1.17.46.21.14.43.3.64.49zM8 9a1 1 0 1 1 0-2 1 1 0 0 1 0 2z"/></svg>