<svg xmlns="http://www.w3.org/2000/svg" width="16" height="16" viewBox="0 0 16 16"><path d="M11.42 8q.68-.07 1.04-.27a2 2 0 0 0-2-3.46q-.35.21-.75.77Q10 4.4 10 4a2 2 0 1 0-4 0c0 .26.11.63.29 1.03a3 3 0 0 0-.75-.76 2 2 0 0 0-2 3.46q.36.2 1.04.27-.68.08-1.04.27a2 2 0 1 0 2 3.46q.35-.21.75-.77Q6 11.6 6 12a2 2 0 1 0 4 0q-.01-.41-.29-1.03c.26.35.52.63.75.76a2 2 0 1 0 2-3.46q-.36-.2-1.04-.27M9 4l-.04.2q-.06.2-.19.49a13 13 0 0 1-.63 1.22L8 6.14l-.13-.23a13 13 0 0 1-.64-1.22l-.19-.49L7 4a1 1 0 1 1 2 0M3.67 5.5a1 1 0 0 1 1.37-.37l.15.15q.14.15.33.4.37.51.74 1.16l.13.23h-.27a13 13 0 0 1-1.37-.06l-.51-.08-.2-.06a1 1 0 0 1-.37-1.37m1.37 5.37a1 1 0 0 1-1-1.74l.04-.02.16-.04q.2-.05.5-.08a13 13 0 0 1 1.38-.06h.27l-.13.23q-.37.65-.74 1.16l-.33.4zM9 12a1 1 0 0 1-2 0l.05-.2q.05-.2.18-.49c.16-.38.4-.8.63-1.22L8 9.86l.14.23q.37.63.63 1.22.13.29.19.49zm3.33-6.5a1 1 0 0 1-.37 1.37l-.2.06q-.2.05-.5.08-.64.07-1.38.06H9.6l.13-.23q.37-.65.74-1.16l.33-.4.11-.11.04-.04a1 1 0 0 1 1.37.37m-1.37 5.37-.15-.15-.33-.4a13 13 0 0 1-.74-1.16l-.13-.23h.27c.47 0 .96.01 1.37.06q.31.03.51.08l.16.04.04.02a1 1 0 1 1-1 1.74M8 9a1 1 0 1 1 0-2 1 1 0 0 1 0 2"/></svg>