<svg xmlns="http://www.w3.org/2000/svg" viewBox="0 0 16 16"><path d="M1 3.5A1.5 1.5 0 0 1 2.5 2h2.76c.96 0 1.76.56 2.31 1.18C8 3.65 8.48 4 9 4h4.5A1.5 1.5 0 0 1 15 5.5v.64c.57.27.94.88.86 1.55l-.64 5.12A2.5 2.5 0 0 1 12.73 15H3.27a2.5 2.5 0 0 1-2.48-2.19L.15 7.69A1.5 1.5 0 0 1 1 6.14V3.5zM2 6h12v-.5a.5.5 0 0 0-.5-.5H9c-.96 0-1.71-.63-2.17-1.15C6.37 3.33 5.82 3 5.26 3H2.5a.5.5 0 0 0-.5.5V6zm-.37 1a.5.5 0 0 0-.5.56l.65 5.13A1.5 1.5 0 0 0 3.27 14h9.46a1.5 1.5 0 0 0 1.5-1.31l.63-5.13a.5.5 0 0 0-.5-.56H1.64z"/></svg>