<svg xmlns="http://www.w3.org/2000/svg" viewBox="0 0 16 16"><path d="M.54 3.87.5 3a2 2 0 0 1 2-2h3.67a2 2 0 0 1 1.42.59l.82.82A2 2 0 0 0 9.83 3h3.98a2 2 0 0 1 2 2.18L15.54 8h-1.01l.27-2.91a1 1 0 0 0-1-1.09H2.19a1 1 0 0 0-1 1.09l.64 7a1 1 0 0 0 1 .91H9v1H2.83a2 2 0 0 1-2-1.82l-.63-7a1.99 1.99 0 0 1 .34-1.3zm6.34-1.58a1 1 0 0 0-.7-.29H2.5a1 1 0 0 0-1 .98v.14A2 2 0 0 1 2.2 3h5.4l-.71-.7z"/><path d="M11.85 10.15a.5.5 0 0 0-.7.7L12.29 12l-1.14 1.15a.5.5 0 0 0 .7.7L13 12.71l1.15 1.14a.5.5 0 0 0 .7-.7L13.71 12l1.14-1.15a.5.5 0 0 0-.7-.7L13 11.29l-1.15-1.14z"/></svg>