<svg xmlns="http://www.w3.org/2000/svg" width="16" height="16" viewBox="0 0 16 16" id="icon"><path d="M13 .5c0-.28-.23-.5-.5-.46-1.7.25-2.94 2-3 8.46a.5.5 0 0 0 .5.5c.56 0 1 .13 1 1v5.5a.5.5 0 0 0 .5.5h1a.5.5 0 0 0 .5-.5zM4.25 0a.25.25 0 0 1 .25.25v5.12a.13.13 0 0 0 .26 0L4.99.25A.25.25 0 0 1 5.24 0h.52a.25.25 0 0 1 .25.24l.24 5.14a.13.13 0 0 0 .25 0V.24A.25.25 0 0 1 6.75 0h.29a.5.5 0 0 1 .5.46l.42 5.07a1.7 1.7 0 0 1-1.06 1.7l-.05.03a.9.9 0 0 0-.58.89l.2 6.85a.97.97 0 1 1-1.94 0l.2-6.85a.9.9 0 0 0-.58-.89l-.05-.02a1.7 1.7 0 0 1-1.06-1.71L3.46.46a.5.5 0 0 1 .5-.46z"/></svg>