<svg viewBox="0 0 16 16"><path d="M3.5 2a.5.5 0 0 0-.5.5v5a.5.5 0 0 0 .5.5h5a.5.5 0 0 0 .5-.5v-5a.5.5 0 0 0-.5-.5h-5ZM4 14V9h1.8c.5 0 .9.1 1.23.3.33.19.57.47.73.84.16.37.24.82.24 1.35 0 .52-.08.98-.24 1.35a1.8 1.8 0 0 1-.73.86c-.33.2-.74.3-1.23.3H4Zm1.67-4.2h-.7v3.4h.7c.23 0 .42-.04.6-.11a.99.99 0 0 0 .4-.32c.11-.14.2-.31.24-.52.06-.21.09-.46.09-.74 0-.38-.05-.7-.15-.94a1.11 1.11 0 0 0-.43-.57c-.2-.13-.45-.2-.75-.2Z"/><path d="M3 0a2 2 0 0 0-2 2v13H.5a.5.5 0 0 0 0 1h11a.5.5 0 0 0 0-1H11v-4a1 1 0 0 1 1 1v.5a1.5 1.5 0 0 0 3 0V8h.5a.5.5 0 0 0 .5-.5V4.32c0-.61 0-1.42-.3-2.08a1.97 1.97 0 0 0-.79-.9A2.72 2.72 0 0 0 13.5 1a.5.5 0 0 0 0 1c.44 0 .72.09.9.2a.97.97 0 0 1 .4.45c.14.33.18.75.2 1.23h-1.5a.5.5 0 0 0-.5.5V7.5a.5.5 0 0 0 .5.5h.5v4.5a.5.5 0 0 1-1 0V12a2 2 0 0 0-2-2V2a2 2 0 0 0-2-2H3Zm7 2v13H2V2a1 1 0 0 1 1-1h6a1 1 0 0 1 1 1Z"/></svg>