<svg xmlns="http://www.w3.org/2000/svg" width="16" height="16" viewBox="0 0 16 16"><path d="M4.97 9.8h.7q.46 0 .75.2.3.19.43.56.15.38.15.94 0 .43-.09.74-.08.32-.24.53a1 1 0 0 1-.4.32 2 2 0 0 1-.6.1h-.7z"/><path d="M1 2a2 2 0 0 1 2-2h6a2 2 0 0 1 2 2v8a2 2 0 0 1 2 2v.5a.5.5 0 0 0 1 0V8h-.5a.5.5 0 0 1-.5-.5V4.38a.5.5 0 0 1 .5-.5H15q-.01-.73-.2-1.23a1 1 0 0 0-.4-.45q-.25-.19-.9-.2a.5.5 0 0 1 0-1q.85 0 1.41.34c.38.22.64.55.8.9.3.66.29 1.47.29 2.08V7.5a.5.5 0 0 1-.5.5H15v4.5a1.5 1.5 0 0 1-3 0V12a1 1 0 0 0-1-1v4h.5a.5.5 0 0 1 0 1H.5a.5.5 0 0 1 0-1H1zm2 .5v5a.5.5 0 0 0 .5.5h5a.5.5 0 0 0 .5-.5v-5a.5.5 0 0 0-.5-.5h-5a.5.5 0 0 0-.5.5M4 9v5h1.8q.74 0 1.23-.3t.73-.86T8 11.5t-.24-1.35a2 2 0 0 0-.73-.85Q6.55 9 5.8 9z"/></svg>