<svg xmlns="http://www.w3.org/2000/svg" width="16" height="16" viewBox="0 0 16 16" id="icon"><path d="M3.5 2a.5.5 0 0 0-.5.5v5a.5.5 0 0 0 .5.5h5a.5.5 0 0 0 .5-.5v-5a.5.5 0 0 0-.5-.5zM4 14V9h1.8q.75 0 1.23.3t.73.84T8 11.5t-.24 1.35a2 2 0 0 1-.73.86q-.49.3-1.23.3zm1.67-4.2h-.7v3.4h.7q.34 0 .6-.11a1 1 0 0 0 .4-.32q.17-.21.24-.52.09-.32.09-.74 0-.57-.15-.94a1 1 0 0 0-.43-.57q-.3-.2-.75-.2"/><path d="M3 0a2 2 0 0 0-2 2v13H.5a.5.5 0 0 0 0 1h11a.5.5 0 0 0 0-1H11v-4a1 1 0 0 1 1 1v.5a1.5 1.5 0 0 0 3 0V8h.5a.5.5 0 0 0 .5-.5V4.32c0-.61 0-1.42-.3-2.08a2 2 0 0 0-.79-.9Q14.35 1 13.5 1a.5.5 0 0 0 0 1q.65.02.9.2a1 1 0 0 1 .4.45c.14.33.18.75.2 1.23h-1.5a.5.5 0 0 0-.5.5V7.5a.5.5 0 0 0 .5.5h.5v4.5a.5.5 0 0 1-1 0V12a2 2 0 0 0-2-2V2a2 2 0 0 0-2-2zm7 2v13H2V2a1 1 0 0 1 1-1h6a1 1 0 0 1 1 1"/></svg>