<svg xmlns="http://www.w3.org/2000/svg" width="16" height="16" viewBox="0 0 16 16"><path d="M3 2.5a.5.5 0 0 1 .5-.5h5a.5.5 0 0 1 .5.5v5a.5.5 0 0 1-.5.5h-5a.5.5 0 0 1-.5-.5z"/><path d="M1 2a2 2 0 0 1 2-2h6a2 2 0 0 1 2 2v8a2 2 0 0 1 2 2v.5a.5.5 0 0 0 1 0V8h-.5a.5.5 0 0 1-.5-.5V4.38a.5.5 0 0 1 .5-.5H15q-.01-.73-.2-1.23a1 1 0 0 0-.4-.45q-.25-.19-.9-.2a.5.5 0 0 1 0-1q.85 0 1.41.34c.38.22.64.55.8.9.3.66.29 1.47.29 2.08V7.5a.5.5 0 0 1-.5.5H15v4.5a1.5 1.5 0 0 1-3 0V12a1 1 0 0 0-1-1v4h.5a.5.5 0 0 1 0 1H.5a.5.5 0 0 1 0-1H1zm9 0a1 1 0 0 0-1-1H3a1 1 0 0 0-1 1v13h8z"/></svg>