<svg xmlns="http://www.w3.org/2000/svg" viewBox="0 0 16 16"><path d="M4.97 9.8h.7c.3 0 .55.07.75.2.2.12.34.31.43.56.1.26.15.57.15.94 0 .29-.03.53-.09.74-.05.21-.13.4-.24.53a.99.99 0 0 1-.4.32 1.57 1.57 0 0 1-.6.1h-.7V9.81Z"/><path d="M1 2a2 2 0 0 1 2-2h6a2 2 0 0 1 2 2v8a2 2 0 0 1 2 2v.5a.5.5 0 0 0 1 0V8h-.5a.5.5 0 0 1-.5-.5V4.37a.5.5 0 0 1 .5-.5H15a3.62 3.62 0 0 0-.2-1.22.97.97 0 0 0-.4-.45c-.18-.12-.46-.2-.9-.2a.5.5 0 0 1 0-1c.56 0 1.03.11 1.41.34.38.22.64.55.8.9.3.66.29 1.47.29 2.08V7.5a.5.5 0 0 1-.5.5H15v4.5a1.5 1.5 0 0 1-3 0V12a1 1 0 0 0-1-1v4h.5a.5.5 0 0 1 0 1H.5a.5.5 0 0 1 0-1H1V2Zm2 .5v5a.5.5 0 0 0 .5.5h5a.5.5 0 0 0 .5-.5v-5a.5.5 0 0 0-.5-.5h-5a.5.5 0 0 0-.5.5ZM4 9v5h1.8c.5 0 .9-.1 1.23-.3.32-.2.57-.48.73-.86.16-.37.24-.82.24-1.35 0-.53-.08-.98-.24-1.35a1.77 1.77 0 0 0-.73-.85A2.38 2.38 0 0 0 5.8 9H4Z"/></svg>