<svg viewBox="0 0 16 16"><path d="M8.93.73c-.24-.97-1.62-.97-1.86 0L7 1a.96.96 0 0 1-1.62.44l-.21-.21c-.7-.72-1.89-.03-1.61.93l.08.28a.96.96 0 0 1-1.19 1.19l-.28-.08c-.96-.28-1.65.91-.93 1.61l.2.2A.96.96 0 0 1 1.02 7l-.28.07c-.97.24-.97 1.62 0 1.86L1 9a.96.96 0 0 1 .44 1.63l-.21.2c-.72.7-.03 1.89.93 1.61l.28-.08a.96.96 0 0 1 1.19 1.19l-.08.28c-.28.96.92 1.65 1.61.93l.2-.2a.96.96 0 0 1 1.63.43l.07.28c.24.97 1.62.97 1.86 0L9 15a.96.96 0 0 1 1.63-.44l.2.21c.7.72 1.89.03 1.61-.93l-.08-.28a.96.96 0 0 1 1.19-1.19l.28.08c.96.28 1.65-.92.93-1.61l-.2-.2A.96.96 0 0 1 14.98 9l.28-.07c.97-.24.97-1.62 0-1.86L15 7a.96.96 0 0 1-.44-1.63l.21-.2c.72-.7.03-1.89-.93-1.61l-.28.08a.96.96 0 0 1-1.19-1.19l.08-.28c.28-.96-.92-1.65-1.61-.93l-.2.2A.96.96 0 0 1 9 1.02L8.93.73zM8 13A5 5 0 1 1 8 3a5 5 0 0 1 0 10z"/></svg>