<svg xmlns="http://www.w3.org/2000/svg" viewBox="0 0 16 16"><path d="M7.07.73c.24-.97 1.62-.97 1.86 0L9 1a.96.96 0 0 0 1.63.44l.2-.21c.7-.72 1.89-.03 1.61.93l-.08.28a.96.96 0 0 0 1.19 1.19l.28-.08c.96-.28 1.65.91.93 1.61l-.2.2A.96.96 0 0 0 14.98 7l.28.07c.97.24.97 1.62 0 1.86L15 9a.96.96 0 0 0-.44 1.63l.21.2c.72.7.03 1.89-.93 1.61l-.28-.08a.96.96 0 0 0-1.19 1.19l.08.28c.28.96-.92 1.65-1.61.93l-.2-.2a.96.96 0 0 0-1.63.43l-.07.28c-.24.97-1.62.97-1.86 0L7 15a.96.96 0 0 0-1.63-.44l-.2.21c-.7.72-1.89.03-1.61-.93l.08-.28a.96.96 0 0 0-1.19-1.19l-.28.08c-.96.28-1.65-.92-.93-1.61l.2-.2A.96.96 0 0 0 1.02 9l-.28-.07c-.97-.24-.97-1.62 0-1.86L1 7a.96.96 0 0 0 .44-1.63l-.21-.2c-.72-.7-.03-1.89.93-1.61l.28.08a.96.96 0 0 0 1.19-1.19l-.08-.28c-.28-.96.91-1.65 1.61-.93l.2.2A.96.96 0 0 0 7 1.02l.07-.28zm5.9 7.77H8.25l-2.83 3.78a5 5 0 0 0 7.55-3.78zm0-1a5 5 0 0 0-7.55-3.78L8.25 7.5h4.72zM5.05 3.97l-.09.06.09-.06zm-.43.35A4.98 4.98 0 0 0 3 8c0 1.46.62 2.77 1.62 3.68L7.37 8 4.63 4.32zm.34 7.65.09.06-.09-.06z"/></svg>