<svg xmlns="http://www.w3.org/2000/svg" width="16" height="16" viewBox="0 0 16 16" id="icon"><path d="M9.4 1.05C9-.35 7-.35 6.6 1.05l-.1.34a1.46 1.46 0 0 1-2.11.87l-.31-.17c-1.28-.7-2.69.7-1.99 1.99l.17.31c.45.82.02 1.84-.87 2.1l-.34.1c-1.4.42-1.4 2.4 0 2.82l.34.1a1.46 1.46 0 0 1 .87 2.1l-.17.31c-.7 1.28.7 2.69 1.99 1.99l.31-.17a1.46 1.46 0 0 1 2.1.87l.1.34c.42 1.4 2.4 1.4 2.81 0l.1-.34a1.46 1.46 0 0 1 2.11-.87l.31.17c1.28.7 2.69-.7 1.99-1.99l-.17-.31a1.46 1.46 0 0 1 .87-2.1l.34-.1c1.4-.42 1.4-2.4 0-2.81l-.34-.1a1.46 1.46 0 0 1-.87-2.11l.17-.31c.7-1.28-.7-2.69-1.99-1.99l-.31.17a1.46 1.46 0 0 1-2.1-.87zM8 10.93a2.93 2.93 0 1 1 0-5.86 2.93 2.93 0 0 1 0 5.86"/></svg>