<svg xmlns="http://www.w3.org/2000/svg" width="16" height="16" viewBox="0 0 16 16"><path fill-rule="evenodd" d="M0 .5A.5.5 0 0 1 .5 0h3a.5.5 0 0 1 0 1H1.7l1.8 1.8.65-.65a.5.5 0 1 1 .7.7l-.64.65.82.82A4 4 0 0 1 8 3c1.18 0 2.24.51 2.97 1.32L14.3 1h-2.8a.5.5 0 0 1 0-1h4a.5.5 0 0 1 .5.5v4a.5.5 0 0 1-1 0V1.7l-3.45 3.46a4 4 0 0 1-3.05 5.81V13H10a.5.5 0 0 1 0 1H8.5v1.5a.5.5 0 0 1-1 0V14H6a.5.5 0 0 1 0-1h1.5v-2.03a4 4 0 0 1-3.05-5.81L3.5 4.2l-.65.64a.5.5 0 1 1-.7-.7l.64-.65L1 1.7v1.8a.5.5 0 0 1-1 0zm5.49 4.86a3 3 0 1 0 5.02 3.28 3 3 0 0 0-5.02-3.28"/></svg>