<svg xmlns="http://www.w3.org/2000/svg" width="16" height="16" viewBox="0 0 16 16"><path fill-rule="evenodd" d="M4 4a4 4 0 1 1 4.5 3.97v5.53a.5.5 0 0 1-1 0V7.97A4 4 0 0 1 4 4m2.5 8.57a.5.5 0 0 1-.42.58q-1.08.19-1.65.5a1 1 0 0 0-.37.26L4 14l.02.04.14.15q.25.2.82.4c.75.25 1.82.41 3.02.41s2.27-.16 3.02-.41q.57-.2.82-.4l.14-.15.02-.03V14l-.06-.1a1 1 0 0 0-.37-.26 6 6 0 0 0-1.65-.5.5.5 0 1 1 .16-.98q1.17.2 1.96.6c.46.24.96.64.96 1.24 0 .43-.26.75-.54.98q-.45.34-1.12.55c-.88.3-2.06.47-3.34.47s-2.46-.17-3.34-.46a4 4 0 0 1-1.12-.56C3.26 14.75 3 14.43 3 14c0-.6.5-1 .96-1.24.5-.27 1.19-.47 1.96-.6a.5.5 0 0 1 .57.41"/></svg>