<svg viewBox="0 0 16 16"><path fill-rule="evenodd" d="M4 4a4 4 0 1 1 4.5 3.97v5.53a.5.5 0 0 1-1 0V7.97A4 4 0 0 1 4 4zm2.5 8.57a.5.5 0 0 1-.42.58 5.6 5.6 0 0 0-1.65.5 1.32 1.32 0 0 0-.37.26A.3.3 0 0 0 4 14a.15.15 0 0 0 .02.04.62.62 0 0 0 .14.15c.17.13.44.27.82.4.75.25 1.82.41 3.02.41s2.27-.16 3.02-.41c.38-.13.65-.27.82-.4a.62.62 0 0 0 .14-.15.15.15 0 0 0 .02-.03V14a.3.3 0 0 0-.06-.1 1.32 1.32 0 0 0-.37-.26 5.7 5.7 0 0 0-1.65-.5.5.5 0 1 1 .16-.98c.77.13 1.45.33 1.96.6.46.24.96.64.96 1.24 0 .43-.26.75-.54.98-.3.22-.68.41-1.12.55-.88.3-2.06.47-3.34.47-1.28 0-2.46-.17-3.34-.47a3.73 3.73 0 0 1-1.12-.55C3.26 14.75 3 14.43 3 14c0-.6.5-1 .96-1.24.5-.27 1.19-.47 1.96-.6a.5.5 0 0 1 .57.41z"/></svg>