<svg viewBox="0 0 16 16"><path d="M8 0a8 8 0 1 0 0 16A8 8 0 0 0 8 0ZM3.67 2.5l-.29.65a.85.85 0 0 0 1.48.81l.24-.37a.8.8 0 0 1 1.04-.27.8.8 0 0 0 .72 0l.26-.13a1 1 0 0 1 .78-.05l.98.34a1 1 0 0 0 .25.05c.78.1.85.38.69.8a.84.84 0 0 1-1.04.5v-.01A7.9 7.9 0 0 0 6 4.5C4.8 4.5 3.5 5.62 3.5 7c0 1.96.83 2.17 1.7 2.38.46.12.93.23 1.3.62.45.47.4 1.18.34 1.88C6.76 12.96 6.67 14 8.5 14c1.75 0 3-3.5 3-4.5 0-.26.2-.47.44-.7.4-.4.87-.86.56-1.8-.1-.3-.4-.57-.64-.76-.17-.13-.2-.4-.05-.55a.33.33 0 0 1 .42-.04l1.08.73c.11.07.26.05.35-.04.15-.15.42-.08.49.12.16.43.44 1.05.85 1.35V8A7 7 0 1 1 3.67 2.5Z"/></svg>