<svg xmlns="http://www.w3.org/2000/svg" viewBox="0 0 16 16"><path d="M8 0a8 8 0 1 0 0 16A8 8 0 0 0 8 0ZM2.04 4.33c.33 1.32 2.53 2.54 3.72 3.19.48.26.79.43.74.48l-.24.23c-.42.4-.79.75-.76 1.27.04.63.62.82 1.21 1.02.58.18 1.17.38 1.29.98.08.42-.07.99-.22 1.52-.21.78-.4 1.48.22 1.48 1.5-.5 3.8-3.19 4-5 .14-1.24-2-2-3.5-2.5-.48-.16-.76.08-.99.28-.17.15-.32.28-.51.22-.45-.15-2.5-2-1.5-2.5.78-.39.95-.17 1.23.18.07.1.16.21.27.32.6.3.66-.13.72-.63.04-.33.08-.67.28-.87.43-.43 1.26-.8 2.03-1.12.71-.3 1.36-.59 1.58-.88a7 7 0 1 1-9.57 2.33Z"/></svg>