<svg xmlns="http://www.w3.org/2000/svg" width="16" height="16" viewBox="0 0 16 16"><path d="M0 8a8 8 0 1 1 16 0A8 8 0 0 1 0 8m7.5-6.92c-.67.2-1.33.82-1.89 1.85q-.21.4-.4.87 1.07.24 2.29.3zM4.25 3.54q.21-.58.48-1.08a7 7 0 0 1 .6-.93 7 7 0 0 0-2.28 1.52q.55.28 1.2.49M3.5 7.5q.06-1.62.44-3a9 9 0 0 1-1.57-.67A7 7 0 0 0 1.02 7.5zm1.4-2.74a12 12 0 0 0-.4 2.74h3V5.1a14 14 0 0 1-2.6-.34m3.6.33V7.5h2.99a12 12 0 0 0-.4-2.74q-1.21.29-2.59.33M4.51 8.5q.06 1.49.4 2.74a14 14 0 0 1 2.59-.33V8.5zm3.99 0v2.4q1.37.06 2.6.34.33-1.25.4-2.74zm-3.28 3.7q.18.47.4.87c.54 1.03 1.21 1.65 1.88 1.85v-3.01q-1.22.05-2.28.29m.1 2.27a7 7 0 0 1-.59-.93 9 9 0 0 1-.48-1.08 8 8 0 0 0-1.2.49 7 7 0 0 0 2.28 1.52zm-1.37-2.96A13 13 0 0 1 3.5 8.5H1a7 7 0 0 0 1.37 3.68q.71-.4 1.57-.67m6.72 2.96a7 7 0 0 0 2.28-1.52 8 8 0 0 0-1.2-.49 9 9 0 0 1-.48 1.08 7 7 0 0 1-.6.93M8.5 11.91v3.01c.67-.2 1.34-.82 1.89-1.85q.21-.4.4-.87a13 13 0 0 0-2.29-.29m3.56-.4q.85.27 1.56.67a7 7 0 0 0 1.36-3.68H12.5a13 13 0 0 1-.44 3m2.93-4a7 7 0 0 0-1.36-3.67q-.71.38-1.56.66.37 1.4.43 3.01zm-3.71-5.04q.27.5.48 1.08a8 8 0 0 0 1.2-.5 7 7 0 0 0-2.28-1.51q.33.43.6.93m-.49 1.34a8 8 0 0 0-.4-.87C9.85 1.9 9.18 1.28 8.5 1.08v3.01a13 13 0 0 0 2.28-.29z"/></svg>