<svg xmlns="http://www.w3.org/2000/svg" width="16" height="16" viewBox="0 0 16 16" id="icon"><path fill-rule="evenodd" d="M8 0a8 8 0 1 1 0 16A8 8 0 0 1 8 0m0 1a7 7 0 0 0-3.11.73.5.5 0 0 0 .13.3.5.5 0 0 1-.12.77l-.3.15-.18.13-.48.48a1 1 0 0 1-1.03.24H2.9a1 1 0 0 0-.46-.04A7 7 0 0 0 1 8a7 7 0 0 0 .88 3.4l.86-.21a1 1 0 0 0 .76-.97v-.18a1 1 0 0 1 .45-.84l.03-.02a1 1 0 0 0 .16-1.54L3.12 6.62A.42.42 0 0 1 3.66 6l1.1.82a.5.5 0 0 0 .52.04.5.5 0 0 1 .72.45v.46a1 1 0 0 0 .13.43l.8 1.19.11.24.73 2.19a1 1 0 0 0 .95.68h.06a1 1 0 0 0 .95-.68l.73-2.2q.04-.12.11-.23l.8-1.19a.5.5 0 0 1 .37-.2q.25 0 .4.22c.55.87 1.62 2.28 2.36 2.28h.04A7 7 0 0 0 8 1"/></svg>