<svg xmlns="http://www.w3.org/2000/svg" viewBox="0 0 16 16"><path d="M8 0a8 8 0 1 0 0 16A8 8 0 0 0 8 0ZM4.88 1.73a.48.48 0 0 0 .14.3.49.49 0 0 1-.12.77l-.3.15a.72.72 0 0 0-.18.13l-.48.48a1 1 0 0 1-1.03.25L2.9 3.8a1 1 0 0 0-.46-.04 7.03 7.03 0 0 1 2.45-2.03Zm-3 9.67.86-.21a1 1 0 0 0 .76-.97v-.19a1 1 0 0 1 .44-.83l.04-.02a1 1 0 0 0 .16-1.54L3.12 6.62A.41.41 0 0 1 3.66 6l1.1.82a.5.5 0 0 0 .52.04.5.5 0 0 1 .72.45v.45a.78.78 0 0 0 .13.44l.8 1.19a1 1 0 0 1 .11.24l.73 2.19a1 1 0 0 0 .95.68h.06a1 1 0 0 0 .95-.68l.73-2.2a1 1 0 0 1 .11-.23l.8-1.19a.45.45 0 0 1 .37-.2c.16 0 .3.08.4.22.55.87 1.62 2.28 2.36 2.28a.61.61 0 0 0 .04 0 7 7 0 0 1-12.66.9Z"/></svg>