<svg viewBox="0 0 16 16"><path d="M0 8a8 8 0 1 1 16 0A8 8 0 0 1 0 8zm7.5-6.92c-.67.2-1.33.82-1.89 1.85A7.97 7.97 0 0 0 5.14 4H7.5V1.08zM4.09 4a9.27 9.27 0 0 1 .64-1.54 6.7 6.7 0 0 1 .6-.93A7.03 7.03 0 0 0 2.25 4H4.1zm-.58 3.5A14 14 0 0 1 3.82 5H1.67a6.96 6.96 0 0 0-.65 2.5H3.5zM4.85 5a12.5 12.5 0 0 0-.34 2.5H7.5V5H4.85zM8.5 5v2.5h2.99a12.5 12.5 0 0 0-.34-2.5H8.5zM4.51 8.5a12.5 12.5 0 0 0 .34 2.5H7.5V8.5H4.51zm3.99 0V11h2.65c.19-.77.3-1.6.34-2.5H8.5zM5.14 12c.14.39.3.74.47 1.07.55 1.03 1.22 1.65 1.89 1.85V12H5.14zm.19 2.47a6.7 6.7 0 0 1-.6-.93A9.27 9.27 0 0 1 4.09 12H2.26a7.02 7.02 0 0 0 3.07 2.47zM3.82 11a13.65 13.65 0 0 1-.31-2.5H1c.07.89.3 1.73.66 2.5h2.15zm6.85 3.47A7.02 7.02 0 0 0 13.74 12h-1.83a9.27 9.27 0 0 1-.64 1.54 6.69 6.69 0 0 1-.6.93zM8.5 12v2.92c.67-.2 1.33-.82 1.89-1.85.17-.33.33-.68.46-1.07H8.5zm3.68-1h2.15a7 7 0 0 0 .65-2.5H12.5a13.65 13.65 0 0 1-.31 2.5zm2.8-3.5a6.96 6.96 0 0 0-.65-2.5h-2.15a14 14 0 0 1 .31 2.5H15zm-3.71-5.04c.25.47.46.98.64 1.54h1.83a7.02 7.02 0 0 0-3.07-2.47c.22.28.42.6.6.93zM10.86 4a7.97 7.97 0 0 0-.47-1.07C9.84 1.9 9.17 1.28 8.5 1.08V4h2.35z"/></svg>