<svg xmlns="http://www.w3.org/2000/svg" width="16" height="16" viewBox="0 0 16 16" id="icon"><path fill-rule="evenodd" d="M8 0a8 8 0 1 1 0 16A8 8 0 0 1 8 0m0 1a7 7 0 0 0-4.33 1.5l-.29.65a.85.85 0 0 0 1.48.81l.24-.37a.8.8 0 0 1 1.04-.27.8.8 0 0 0 .72 0l.26-.13a1 1 0 0 1 .78-.05l.98.34q.12.04.24.05c.79.1.86.38.7.8a.84.84 0 0 1-1.04.5v-.01A8 8 0 0 0 6 4.5C4.8 4.5 3.5 5.62 3.5 7c0 3 1.94 1.89 3 3 1.15 1.2-1 4 2 4 1.75 0 3-3.5 3-4.5 0-.7 1.5-1 1-2.5-.1-.3-.4-.57-.64-.76-.17-.13-.2-.4-.05-.55a.33.33 0 0 1 .42-.04l1.08.72a.3.3 0 0 0 .35-.03c.15-.15.41-.08.49.12.16.42.44 1.04.85 1.35A7 7 0 0 0 8 1"/></svg>