<svg xmlns="http://www.w3.org/2000/svg" viewBox="0 0 16 16"><path d="M0 8a8 8 0 1 1 16 0A8 8 0 0 1 0 8zm7.5-6.92c-.67.2-1.33.82-1.89 1.85-.14.27-.27.56-.4.87.71.16 1.48.26 2.29.3V1.07zM4.25 3.54c.14-.38.3-.74.48-1.08a6.7 6.7 0 0 1 .6-.93 7.01 7.01 0 0 0-2.28 1.52c.36.18.76.35 1.2.49zM3.5 7.5c.04-1.07.19-2.09.44-3a9.12 9.12 0 0 1-1.57-.68A6.96 6.96 0 0 0 1.02 7.5H3.5zm1.4-2.74a12.34 12.34 0 0 0-.4 2.74h3V5.1a13.5 13.5 0 0 1-2.6-.34zm3.59.33V7.5h2.99a12.34 12.34 0 0 0-.4-2.74c-.8.19-1.68.3-2.59.33zM4.51 8.5c.04.99.18 1.91.4 2.74a13.61 13.61 0 0 1 2.59-.33V8.5H4.51zm3.99 0v2.4c.91.04 1.78.15 2.6.34.21-.83.36-1.75.4-2.74h-3zm-3.28 3.7c.12.3.25.6.4.87.54 1.03 1.21 1.65 1.88 1.85v-3.01c-.81.03-1.58.13-2.28.29zm.1 2.27a6.7 6.7 0 0 1-.59-.93 8.85 8.85 0 0 1-.48-1.08 8.38 8.38 0 0 0-1.2.49 7.01 7.01 0 0 0 2.28 1.52zm-1.38-2.96a13.36 13.36 0 0 1-.43-3.01H1a6.96 6.96 0 0 0 1.37 3.67c.47-.25 1-.48 1.56-.66zm6.73 2.96a7 7 0 0 0 2.28-1.52 8.38 8.38 0 0 0-1.2-.49 8.85 8.85 0 0 1-.48 1.08 6.69 6.69 0 0 1-.6.93zM8.5 11.91v3.01c.67-.2 1.33-.82 1.89-1.85.14-.27.27-.56.4-.87a12.63 12.63 0 0 0-2.29-.29zm3.56-.4c.56.18 1.09.4 1.56.67a6.96 6.96 0 0 0 1.36-3.68H12.5a13.36 13.36 0 0 1-.44 3zm2.92-4.01a6.96 6.96 0 0 0-1.36-3.67c-.47.25-1 .48-1.56.66.24.92.4 1.94.43 3.01H15zm-3.71-5.04c.18.34.34.7.48 1.08a8.37 8.37 0 0 0 1.2-.5 7.01 7.01 0 0 0-2.28-1.51c.22.28.42.6.6.93zm-.49 1.34a7.76 7.76 0 0 0-.4-.87C9.85 1.9 9.18 1.28 8.5 1.08v3.01a12.7 12.7 0 0 0 2.28-.29z"/></svg>