<svg xmlns="http://www.w3.org/2000/svg" width="16" height="16" viewBox="0 0 16 16"><path d="M0 8a8 8 0 1 1 16 0A8 8 0 0 1 0 8m7.5-6.92c-.67.2-1.33.82-1.89 1.85A8 8 0 0 0 5.14 4H7.5zM4.09 4a9 9 0 0 1 .64-1.54 7 7 0 0 1 .6-.93A7 7 0 0 0 2.26 4zm-.58 3.5q.05-1.33.31-2.5H1.67a7 7 0 0 0-.65 2.5zM4.85 5a13 13 0 0 0-.34 2.5H7.5V5zM8.5 5v2.5h2.99a13 13 0 0 0-.34-2.5zM4.51 8.5a13 13 0 0 0 .34 2.5H7.5V8.5zm3.99 0V11h2.65q.28-1.14.34-2.5zM5.14 12q.21.58.47 1.07c.55 1.03 1.22 1.65 1.89 1.85V12zm.19 2.47a7 7 0 0 1-.6-.93A9 9 0 0 1 4.09 12H2.26a7 7 0 0 0 3.07 2.47M3.82 11a14 14 0 0 1-.31-2.5H1q.11 1.34.66 2.5zm6.85 3.47A7 7 0 0 0 13.74 12h-1.83a9 9 0 0 1-.64 1.54 7 7 0 0 1-.6.93M8.5 12v2.92c.67-.2 1.34-.82 1.89-1.85q.26-.49.46-1.07zm3.68-1h2.15q.55-1.16.65-2.5H12.5a14 14 0 0 1-.31 2.5m2.8-3.5a7 7 0 0 0-.65-2.5h-2.15q.26 1.17.31 2.5zm-3.71-5.04q.37.7.64 1.54h1.84a7 7 0 0 0-3.08-2.47q.33.43.6.93M10.86 4a8 8 0 0 0-.47-1.07C9.84 1.9 9.17 1.28 8.5 1.08V4z"/></svg>