<svg xmlns="http://www.w3.org/2000/svg" width="16" height="16" viewBox="0 0 16 16" id="icon"><path d="m10.5 6.92 1.27-.62a.48.48 0 0 0 .13-.78c-.25-.24-.68-.14-.93.1-.23.23-.52.38-.82.54l-.1.05c-.34.18-.27.63.1.74a.5.5 0 0 0 .34-.03M7.74 9.81v-.03a.41.41 0 1 1 .78.18l-.22.45-.12.16-.19.19a.36.36 0 1 1-.5-.52l.11-.1a.5.5 0 0 0 .14-.33M5.67 12.5l.48.23a.39.39 0 1 0 .17-.73H5.9a.7.7 0 0 1-.42-.14l-.27-.2a.3.3 0 1 0-.3.52z"/><path d="M8 0a8 8 0 1 0 0 16A8 8 0 0 0 8 0M1.61 10.87l.76-1.3a1 1 0 0 1 1.54-.22l1.08 1a1 1 0 0 0 1.36 0l.04-.04a.9.9 0 0 0 .26-.75c-.08-.55.37-1.04.92-1.1.72-.09 1.58-.33 1.72-.96.09-.39-.11-.83-.36-1.2-.2-.31 0-.8.38-.8q.2 0 .31-.15l.4-.47q.32-.36.8-.4c.55-.07 1.4-.28 1.58-.98.1-.4-.2-.63-.49-.88-.25-.21-.5-.43-.51-.74a7 7 0 0 1 3.42 7.7l-.08-.07-.32-.2a1 1 0 0 0-.98-.07l-.17.09a1 1 0 0 1-.74.05l-1.02-.33a1 1 0 0 0-.3-.05h-.17a1 1 0 0 0-.94.67l-.18.5a1 1 0 0 1-.4.52l-.8.51a1 1 0 0 0-.46.85v.45a1 1 0 0 0 1 1h.26a1 1 0 0 1 .54.16l.76.49a1 1 0 0 0 .28.13 7 7 0 0 1-9.49-3.41"/></svg>