<svg xmlns="http://www.w3.org/2000/svg" width="16" height="16" viewBox="0 0 16 16"><path d="M6.96 14.53c.06.94.95 1.66 1.9 1.42l.27-.06a1.4 1.4 0 0 0 1-.97c.23-.81.54-2.5.07-4.5l.44.05a6 6 0 0 0 2.52-.22c.52-.17 1-.68 1.2-1.27a1.9 1.9 0 0 0-.24-1.73q.09-.18.14-.36a3 3 0 0 0 0-1.72 2 2 0 0 0-.16-.4c.17-.39.1-.82 0-1.15a3 3 0 0 0-.49-.9q.08-.23.08-.46a2 2 0 0 0-.26-.92C13.1.76 12.43.28 11.5.28H8q-.88 0-1.47.22a5 5 0 0 0-.97.48l-.04.03c-.5.3-1 .61-2.07.72-.77.08-1.45.7-1.45 1.55v4c0 .85.69 1.43 1.36 1.61a5.5 5.5 0 0 1 3.17 3.05c.2.58.35 1.54.43 2.6"/></svg>