<svg xmlns="http://www.w3.org/2000/svg" width="16" height="16" viewBox="0 0 16 16"><path d="M6.96 1.75C7.02.8 7.9.09 8.86.33l.27.06c.46.12.87.46 1 .97.23.81.54 2.5.07 4.5l.44-.05a6 6 0 0 1 2.52.21c.52.18 1 .69 1.2 1.28a1.9 1.9 0 0 1-.24 1.73q.09.18.14.36a3.2 3.2 0 0 1-.16 2.12c.17.39.1.82 0 1.15a3 3 0 0 1-.49.9q.08.23.08.46-.01.47-.26.92c-.33.58-1 1.06-1.93 1.06H8a4 4 0 0 1-1.47-.22 5 5 0 0 1-.97-.48l-.04-.03c-.5-.3-1-.61-2.07-.72A1.6 1.6 0 0 1 2 13V9c0-.85.69-1.43 1.36-1.61a5.5 5.5 0 0 0 3.17-3.05c.2-.58.35-1.54.43-2.6"/></svg>