<svg xmlns="http://www.w3.org/2000/svg" width="16" height="16" viewBox="0 0 16 16"><path d="M8.86 15.67a1.55 1.55 0 0 1-1.9-1.42 11 11 0 0 0-.43-2.59 5 5 0 0 0-1.04-1.63 4.5 4.5 0 0 0-2.13-1.41C2.69 8.43 2 7.85 2 7V3c0-.84.68-1.46 1.45-1.55C4.52 1.35 5 1.04 5.52.73L5.56.7c.28-.16.58-.35.97-.48Q7.12 0 8 0h3.5c.94 0 1.6.48 1.93 1.06q.26.45.26.92 0 .22-.08.46.31.4.49.9c.1.33.17.76 0 1.15q.1.2.16.4a3.2 3.2 0 0 1-.14 2.08c.4.57.42 1.2.24 1.73-.2.6-.68 1.1-1.2 1.27-.85.29-1.8.28-2.52.21l-.44-.04a9.4 9.4 0 0 1-.06 4.5c-.14.51-.55.85-1.02.97zM11.5 1H8c-.51 0-.86.07-1.14.16-.28.1-.5.23-.78.4l-.04.02c-.55.34-1.2.73-2.49.87-.33.03-.55.29-.55.55v4c0 .26.23.54.62.65a6.4 6.4 0 0 1 3.85 3.69c.24.7.4 1.76.48 2.85.03.36.36.6.67.51l.26-.06q.24-.07.3-.26a8.3 8.3 0 0 0-.15-4.72.5.5 0 0 1 .6-.64l.07.01a9 9 0 0 0 1.03.16c.67.06 1.46.05 2.11-.16.18-.06.45-.3.57-.65a1 1 0 0 0-.26-1.03L12.79 7l.36-.35q.07-.06.15-.32a2 2 0 0 0 0-1.16 1 1 0 0 0-.15-.32l-.36-.35.36-.35c.04-.05.1-.18 0-.5a2 2 0 0 0-.5-.8l-.36-.35.36-.35q.02 0 .04-.17a1 1 0 0 0-.12-.42c-.17-.29-.5-.56-1.07-.56"/></svg>