<svg xmlns="http://www.w3.org/2000/svg" viewBox="0 0 16 16"><path d="M8.86 15.67a1.55 1.55 0 0 1-1.9-1.42 11.24 11.24 0 0 0-.43-2.59 5.44 5.44 0 0 0-1.04-1.63 4.54 4.54 0 0 0-2.13-1.41C2.69 8.43 2 7.85 2 7V3c0-.84.68-1.46 1.45-1.55C4.52 1.35 5 1.04 5.52.73L5.56.7c.28-.16.58-.35.97-.48C6.93.08 7.4 0 8 0h3.5c.94 0 1.6.48 1.93 1.06.17.3.26.61.26.92 0 .15-.03.3-.08.46.2.26.38.58.49.9.1.33.17.76 0 1.15.07.13.12.27.16.4a3.17 3.17 0 0 1-.14 2.08c.4.57.42 1.2.24 1.73-.2.6-.68 1.1-1.2 1.27-.85.29-1.8.28-2.52.21a9.88 9.88 0 0 1-.44-.04 9.36 9.36 0 0 1-.06 4.5c-.14.51-.55.85-1.02.97l-.26.06zM11.5 1H8c-.51 0-.86.07-1.14.16-.28.1-.5.23-.78.4l-.04.02c-.55.34-1.2.73-2.49.87-.33.03-.55.29-.55.55v4c0 .26.23.54.62.65a6.4 6.4 0 0 1 3.85 3.69c.24.7.4 1.76.48 2.85.03.36.36.6.67.51l.26-.06a.4.4 0 0 0 .3-.26 8.34 8.34 0 0 0-.15-4.72.5.5 0 0 1 .6-.64l.07.01a8.91 8.91 0 0 0 1.03.16c.67.06 1.46.05 2.11-.16.18-.06.45-.3.57-.65a.95.95 0 0 0-.26-1.03L12.79 7l.36-.35c.04-.05.1-.14.15-.32a2.15 2.15 0 0 0 0-1.16.75.75 0 0 0-.15-.32l-.36-.35.36-.35c.04-.05.1-.18 0-.5a2.22 2.22 0 0 0-.5-.8l-.36-.35.36-.35s.04-.05.04-.17a.87.87 0 0 0-.12-.42c-.17-.29-.5-.56-1.07-.56z"/></svg>