<svg viewBox="0 0 16 16"><path d="M8.86.05a1.55 1.55 0 0 0-1.9 1.42 11.22 11.22 0 0 1-.43 2.59A5.44 5.44 0 0 1 5.49 5.7a4.56 4.56 0 0 1-2.13 1.4C2.69 7.3 2 7.88 2 8.73v4c0 .85.68 1.46 1.45 1.55 1.07.11 1.56.41 2.07.72l.04.03c.28.16.58.35.97.48.4.14.86.22 1.47.22h3.5c.94 0 1.6-.48 1.93-1.06a1.86 1.86 0 0 0 .26-.92c0-.15-.03-.3-.08-.46.2-.26.38-.58.49-.9.1-.33.17-.76 0-1.15.07-.13.12-.27.16-.4a3.17 3.17 0 0 0 0-1.72 2.14 2.14 0 0 0-.14-.36 1.9 1.9 0 0 0 .24-1.73c-.2-.6-.68-1.1-1.2-1.27a6.4 6.4 0 0 0-2.52-.21 9.84 9.84 0 0 0-.44.05 9.37 9.37 0 0 0-.06-4.51A1.38 1.38 0 0 0 9.12.1L8.87.05zm2.64 14.67H8a3.6 3.6 0 0 1-1.14-.16c-.28-.1-.5-.23-.78-.4l-.04-.02a5.26 5.26 0 0 0-2.49-.87c-.33-.03-.55-.29-.55-.55v-4c0-.25.23-.54.62-.65a6.4 6.4 0 0 0 3.85-3.69c.24-.7.4-1.76.48-2.85.03-.36.36-.59.67-.51l.26.06c.16.04.26.15.3.26a8.34 8.34 0 0 1-.15 4.72.5.5 0 0 0 .6.65l.07-.02a8.9 8.9 0 0 1 1.03-.16 5.42 5.42 0 0 1 2.11.16c.18.06.45.3.57.65.1.31.09.67-.26 1.03l-.36.35.36.35c.04.05.1.14.15.32a2.15 2.15 0 0 1 0 1.16.76.76 0 0 1-.15.32l-.36.35.36.35c.04.05.1.18 0 .5a2.22 2.22 0 0 1-.5.8l-.36.35.36.35s.04.05.04.17a.87.87 0 0 1-.12.42c-.17.29-.5.56-1.07.56z"/></svg>