<svg xmlns="http://www.w3.org/2000/svg" viewBox="0 0 16 16"><path d="M6.75 1a.75.75 0 0 1 .75.75V8a.5.5 0 0 0 1 0V5.47h.09c.31-.02.63-.01.81.02.14.03.3.1.45.18.08.04.15.15.15.32V8a.5.5 0 1 0 1 0V6.43a4.9 4.9 0 0 1 .1 0c.32-.03.59-.01.71.04.12.04.3.2.49.43l.2.25V8.5a.5.5 0 0 0 1 0v-1h.34a1 1 0 0 1 1 1.1l-.27 2.71a2.5 2.5 0 0 1-.32 1l-1.4 2.44a.5.5 0 0 1-.43.25H6.04a.5.5 0 0 1-.42-.22l-1.43-2.15a1.5 1.5 0 0 1-.25-.67l-.34-3.1A.5.5 0 0 1 4 8.3l1-.2V9a.5.5 0 0 0 1 0V1.75A.75.75 0 0 1 6.75 1zM8.5 4.47V1.75a1.75 1.75 0 1 0-3.5 0v5.34l-1.2.24a1.5 1.5 0 0 0-1.2 1.64l.35 3.1a2.5 2.5 0 0 0 .4 1.11l1.44 2.15a1.5 1.5 0 0 0 1.25.67h6.38a1.5 1.5 0 0 0 1.3-.76l1.4-2.44a3.5 3.5 0 0 0 .44-1.39l.27-2.71a2 2 0 0 0-1.99-2.2h-.58a5.11 5.11 0 0 0-.2-.25c-.18-.23-.5-.57-.87-.71a2.77 2.77 0 0 0-1.16-.11l-.13.01a1.26 1.26 0 0 0-.56-.64 2.63 2.63 0 0 0-.74-.29 5 5 0 0 0-1.05-.05H8.5zm2.1 2.02z"/></svg>