<svg xmlns="http://www.w3.org/2000/svg" width="16" height="16" viewBox="0 0 16 16"><path d="M8.86.05a1.55 1.55 0 0 0-1.9 1.42 11 11 0 0 1-.43 2.59A5 5 0 0 1 5.49 5.7a4.6 4.6 0 0 1-2.13 1.4C2.69 7.3 2 7.88 2 8.73v4c0 .85.68 1.46 1.45 1.55 1.07.11 1.56.41 2.07.72l.04.03c.28.16.58.35.97.48.4.14.86.22 1.47.22h3.5c.94 0 1.6-.48 1.93-1.06a2 2 0 0 0 .26-.92q0-.22-.08-.46.31-.4.49-.9c.1-.33.17-.76 0-1.15q.1-.2.16-.4a3 3 0 0 0 0-1.72l-.14-.36a1.9 1.9 0 0 0 .24-1.73c-.2-.6-.68-1.1-1.2-1.27a6 6 0 0 0-2.52-.21l-.44.05a9.4 9.4 0 0 0-.06-4.51A1.4 1.4 0 0 0 9.12.1zm2.64 14.67H8a4 4 0 0 1-1.14-.16c-.28-.1-.5-.23-.78-.4l-.04-.02a5 5 0 0 0-2.49-.87c-.33-.03-.55-.29-.55-.55v-4c0-.25.23-.54.62-.65a6.4 6.4 0 0 0 3.85-3.69c.24-.7.4-1.76.48-2.85.03-.36.36-.59.67-.51l.26.06q.24.08.3.26a8.3 8.3 0 0 1-.15 4.72.5.5 0 0 0 .6.65l.07-.02a9 9 0 0 1 1.03-.16 5 5 0 0 1 2.11.16c.18.06.45.3.57.65.1.31.09.67-.26 1.03l-.36.35.36.35q.07.06.15.32a2 2 0 0 1 0 1.16 1 1 0 0 1-.15.32l-.36.35.36.35c.04.05.1.18 0 .5a2 2 0 0 1-.5.8l-.36.35.36.35q.02 0 .04.17a1 1 0 0 1-.12.42c-.17.29-.5.56-1.07.56"/></svg>