<svg xmlns="http://www.w3.org/2000/svg" width="16" height="16" viewBox="0 0 16 16"><path d="M6.75 1a.75.75 0 0 1 .75.75V8a.5.5 0 0 0 1 0V5.47h.09c.31-.02.63-.01.81.02q.22.05.45.18.14.06.15.32V8a.5.5 0 0 0 1 0V6.43h.1c.32-.03.59-.01.71.04q.2.07.49.43l.2.25V8.5a.5.5 0 1 0 1 0v-1h.34a1 1 0 0 1 1 1.1l-.27 2.72a3 3 0 0 1-.32.99l-1.4 2.44a.5.5 0 0 1-.43.25h-6.3a.5.5 0 0 1-.45-.28l-1.23-2.46-2.51-4.19a.52.52 0 0 1 .8-.63l2.42 2.41A.5.5 0 0 0 6 9.5V1.75A.75.75 0 0 1 6.75 1M8.5 4.47V1.75a1.75 1.75 0 1 0-3.5 0v6.54L3.44 6.74a1.52 1.52 0 0 0-2.37 1.85l2.5 4.15 1.2 2.43a1.5 1.5 0 0 0 1.35.83h6.3a1.5 1.5 0 0 0 1.3-.76l1.4-2.44a4 4 0 0 0 .44-1.39l.27-2.71a2 2 0 0 0-1.99-2.2h-.58l-.2-.25c-.18-.23-.5-.57-.87-.71a3 3 0 0 0-1.16-.11l-.13.01a1.3 1.3 0 0 0-.56-.64 3 3 0 0 0-.74-.29 5 5 0 0 0-1.05-.05zm2.1 2.02"/></svg>