<svg xmlns="http://www.w3.org/2000/svg" viewBox="0 0 16 16"><path d="M8.39 12.65a1.32 1.32 0 0 0-.01.18c0 .3.2.5.5.5.26 0 .49-.17.55-.47l.55-2.7h1.2c.43 0 .63-.24.63-.55 0-.31-.2-.53-.62-.53h-.99l.52-2.53h1.26c.43 0 .62-.22.62-.54 0-.32-.19-.53-.62-.53h-1.04l.47-2.3a1.06 1.06 0 0 0 .02-.16.51.51 0 0 0-.52-.52.54.54 0 0 0-.53.43l-.53 2.55H7.62l.47-2.3.02-.16a.51.51 0 0 0-.52-.52.54.54 0 0 0-.53.43l-.53 2.55H5.41c-.43 0-.61.22-.61.54 0 .3.18.54.61.54h.91L5.8 9.07H4.6c-.41 0-.6.22-.6.53 0 .31.19.55.61.55h.98l-.52 2.49-.01.18c0 .3.2.5.5.5.26 0 .49-.17.55-.47l.55-2.7h2.25l-.52 2.49zm-1-6.11h2.27L9.14 9.1H6.86l.53-2.56z"/></svg>