<svg xmlns="http://www.w3.org/2000/svg" width="16" height="16" viewBox="0 0 16 16"><path d="M8 2.75 7.28 2C5.6.28 2.51.88 1.4 3.05.92 4 .78 5.32 1.5 7H.44C-1.7 1.3 4.6-1.83 7.83 1.14l.17.17.18-.17C11.4-1.83 17.7 1.3 15.57 7h-1.08c.73-1.68.6-3 .11-3.95C13.49.88 10.4.28 8.72 2.01zM2.21 10h1.32A25 25 0 0 0 8 13.8a25 25 0 0 0 4.47-3.8h1.32A25 25 0 0 1 8 15a25 25 0 0 1-5.79-5"/><path d="M10.46 3.31a.5.5 0 0 0-.94.05l-1.6 5.6L6.46 5.3a.5.5 0 0 0-.88-.09L3.73 8H.5a.5.5 0 0 0 0 1H4a.5.5 0 0 0 .42-.22l1.47-2.21 1.65 4.12a.5.5 0 0 0 .94-.05l1.6-5.6 1.46 3.65A.5.5 0 0 0 12 9h3.5a.5.5 0 0 0 0-1h-3.16z"/></svg>