<svg xmlns="http://www.w3.org/2000/svg" width="16" height="16" viewBox="0 0 16 16" id="icon"><path d="M2.5 15a.5.5 0 1 1 0-1h1v-1a4.5 4.5 0 0 1 2.56-4.06c.29-.14.44-.38.44-.59v-.7c0-.21-.15-.45-.44-.59A4.5 4.5 0 0 1 3.5 3V2h-1a.5.5 0 0 1 0-1h11a.5.5 0 0 1 0 1h-1v1a4.5 4.5 0 0 1-2.56 4.06c-.29.14-.44.38-.44.59v.7c0 .21.15.45.44.59A4.5 4.5 0 0 1 12.5 13v1h1a.5.5 0 0 1 0 1zm2-13v1q0 .82.34 1.5h6.32q.34-.68.34-1.5V2zm3 6.35c0 .7-.48 1.24-1.01 1.5A3.5 3.5 0 0 0 4.5 13s.87-1.3 3-1.48zm1 0v3.17c2.13.18 3 1.48 3 1.48a3.5 3.5 0 0 0-1.99-3.16A1.7 1.7 0 0 1 8.5 8.35"/></svg>