<svg xmlns="http://www.w3.org/2000/svg" viewBox="0 0 16 16"><path d="M7.3 1.5a1 1 0 0 1 1.4 0L11 3.8V2.5a.5.5 0 0 1 .5-.5h1a.5.5 0 0 1 .5.5v3.3l2.35 2.35a.5.5 0 0 1-.7.7L8 2.21l-5 5v6.29a.5.5 0 0 0 .5.5h4a.5.5 0 0 1 0 1h-4A1.5 1.5 0 0 1 2 13.5V8.2l-.65.65a.5.5 0 1 1-.7-.7L7.29 1.5Z"/><path d="M11.89 9.46a.64.64 0 0 1 1.22 0l.05.15a.64.64 0 0 0 .92.38l.13-.07a.64.64 0 0 1 .87.87l-.07.13a.64.64 0 0 0 .38.92l.15.05a.64.64 0 0 1 0 1.22l-.15.05a.64.64 0 0 0-.38.92l.07.13a.64.64 0 0 1-.87.87l-.13-.07a.64.64 0 0 0-.92.38l-.05.15c-.18.61-1.04.61-1.23 0l-.04-.15a.64.64 0 0 0-.92-.38l-.14.07c-.56.31-1.17-.3-.87-.87l.08-.13a.64.64 0 0 0-.38-.92l-.15-.05c-.61-.18-.61-1.04 0-1.23l.15-.04a.64.64 0 0 0 .38-.92l-.07-.14c-.31-.56.3-1.17.86-.87l.14.08a.64.64 0 0 0 .92-.38l.05-.15ZM14 12.5a1.5 1.5 0 1 0-3 0 1.5 1.5 0 0 0 3 0Z"/></svg>