<svg xmlns="http://www.w3.org/2000/svg" width="16" height="16" viewBox="0 0 16 16" id="icon"><path d="M8.7 1.5a1 1 0 0 0-1.4 0L.64 8.15a.5.5 0 0 0 .7.7L8 2.21l6.65 6.64a.5.5 0 0 0 .7-.7L13 5.79V2.5a.5.5 0 0 0-.5-.5h-1a.5.5 0 0 0-.5.5v1.3z"/><path d="M8 3.3 12.71 8a4.5 4.5 0 0 0-3.95 7H3.5A1.5 1.5 0 0 1 2 13.5V9.3z"/><path d="M12.5 16a3.5 3.5 0 1 0 0-7 3.5 3.5 0 0 0 0 7m-.65-4.85.65.64.65-.64a.5.5 0 0 1 .7.7l-.64.65.64.65a.5.5 0 0 1-.7.7l-.65-.64-.65.64a.5.5 0 0 1-.7-.7l.64-.65-.64-.65a.5.5 0 0 1 .7-.7"/></svg>