<svg xmlns="http://www.w3.org/2000/svg" width="16" height="16" viewBox="0 0 16 16"><path d="M7.97 7.97v-.03l.02.01zm0 .02.04-.03h.01v.05L8 8.03 7.98 8zm0 .05"/><path fill-rule="evenodd" d="M8 0a8 8 0 1 0 0 16A8 8 0 0 0 8 0M4.97 1.69a7 7 0 0 1 3.86-.64A4.6 4.6 0 0 1 10 4.18c0 1.66-.8 3.1-1.96 3.77 1.26.24 2.65-.82 3.4-2.74a7 7 0 0 0 .5-3 7 7 0 0 1 2.48 3 4.6 4.6 0 0 1-2.12 2.6 4.3 4.3 0 0 1-4.26.17V8h.02-.01c.42 1.22 2.03 1.9 4.08 1.59a7 7 0 0 0 2.85-1.08 7 7 0 0 1-1.36 3.66 4.6 4.6 0 0 1-3.32-.54 4.3 4.3 0 0 1-2.28-3.59c-.85.97-.64 2.71.66 4.33a7 7 0 0 0 2.37 1.93 7 7 0 0 1-3.86.65A4.6 4.6 0 0 1 6 11.81c0-1.66.8-3.1 1.97-3.77-1.27-.26-2.67.8-3.42 2.73a7 7 0 0 0-.5 3.02 7 7 0 0 1-2.48-3.02 4.6 4.6 0 0 1 2.13-2.6A4.3 4.3 0 0 1 7.95 8c-.41-1.23-2.03-1.91-4.08-1.6a7 7 0 0 0-2.85 1.08 7 7 0 0 1 1.37-3.67 4.6 4.6 0 0 1 3.3.55 4.3 4.3 0 0 1 2.28 3.58H8c.84-.97.62-2.7-.67-4.32A7 7 0 0 0 4.96 1.7"/></svg>