<svg xmlns="http://www.w3.org/2000/svg" viewBox="0 0 16 16"><path d="M4.98 1a.5.5 0 0 0-.39.19L1.54 5H6a.5.5 0 0 1 .5.5 1.5 1.5 0 0 0 3 0A.5.5 0 0 1 10 5h4.46l-3.05-3.81a.5.5 0 0 0-.39-.19H4.98zm9.95 5h-4.48a2.5 2.5 0 0 1-4.9 0H1.07l.32 2.56a.5.5 0 0 0 .5.44h12.23a.5.5 0 0 0 .5-.44l.3-2.56zM3.81.56A1.5 1.5 0 0 1 4.98 0h6.04a1.5 1.5 0 0 1 1.17.56l3.7 4.63a.5.5 0 0 1 .1.37l-.38 3.13A1.5 1.5 0 0 1 14.1 10H1.89A1.5 1.5 0 0 1 .4 8.69L0 5.56a.5.5 0 0 1 .11-.37L3.81.56zM.12 11.17A.5.5 0 0 1 .5 11H6a.5.5 0 0 1 .5.5 1.5 1.5 0 0 0 3 0 .5.5 0 0 1 .5-.5h5.5a.5.5 0 0 1 .5.56l-.4 3.13A1.5 1.5 0 0 1 14.13 16H1.88A1.5 1.5 0 0 1 .4 14.69L0 11.56a.5.5 0 0 1 .12-.4zm.95.83.32 2.56a.5.5 0 0 0 .5.44h12.23a.5.5 0 0 0 .5-.44l.31-2.56h-4.48a2.5 2.5 0 0 1-4.9 0H1.07z"/></svg>