<svg xmlns="http://www.w3.org/2000/svg" width="16" height="16" viewBox="0 0 16 16"><path fill-rule="evenodd" d="m4.74 1.97-.9 3.27-.01.05C2.11 5.58 1 6.02 1 6.5 1 7.33 4.13 8 8 8s7-.67 7-1.5c0-.5-1.11-.93-2.83-1.2l-.01-.06-.9-3.27c-.14-.54-.7-.85-1.23-.74-.62.13-1.41.27-2.03.27s-1.41-.14-2.02-.27c-.55-.11-1.1.2-1.24.74m.01 3.87a.25.25 0 0 1 .27-.23q1.36.15 2.98.14a30 30 0 0 0 2.98-.14.25.25 0 0 1 .04.5 30 30 0 0 1-6.04 0 .25.25 0 0 1-.23-.28M3.5 10h2a.5.5 0 0 1 .5.5v1a1.5 1.5 0 0 1-3 0v-1a.5.5 0 0 1 .5-.5m-1.5.5q0-.26.09-.5H2a.5.5 0 0 1 0-1h3.5a1.5 1.5 0 0 1 1.49 1.31 3.5 3.5 0 0 1 2.02 0A1.5 1.5 0 0 1 10.5 9H14a.5.5 0 0 1 0 1h-.08q.08.24.08.5v1a2.5 2.5 0 0 1-5 0v-.14l-.21-.07a2.5 2.5 0 0 0-1.58 0l-.21.07v.14a2.5 2.5 0 0 1-5 0zm8.5-.5h2a.5.5 0 0 1 .5.5v1a1.5 1.5 0 0 1-3 0v-1a.5.5 0 0 1 .5-.5"/></svg>