<svg xmlns="http://www.w3.org/2000/svg" viewBox="0 0 16 16"><path fill-rule="evenodd" d="m4.74 1.97-.9 3.27-.01.05C2.11 5.58 1 6.01 1 6.5 1 7.33 4.13 8 8 8s7-.67 7-1.5c0-.5-1.11-.93-2.83-1.2a1.03 1.03 0 0 0-.01-.06l-.9-3.27c-.14-.54-.7-.85-1.23-.74-.62.13-1.41.27-2.03.27-.62 0-1.41-.14-2.02-.27-.55-.11-1.1.2-1.24.74Zm.01 3.87a.25.25 0 0 1 .27-.23c.9.1 1.91.14 2.98.14a29.58 29.58 0 0 0 2.98-.14.25.25 0 0 1 .04.5 30.33 30.33 0 0 1-6.04 0 .25.25 0 0 1-.23-.28ZM3.5 10h2a.5.5 0 0 1 .5.5v1a1.5 1.5 0 0 1-3 0v-1a.5.5 0 0 1 .5-.5Zm-1.5.5c0-.17.03-.34.09-.5H2a.5.5 0 0 1 0-1h3.5a1.5 1.5 0 0 1 1.49 1.31 3.5 3.5 0 0 1 2.02 0A1.5 1.5 0 0 1 10.5 9H14a.5.5 0 0 1 0 1h-.09c.06.16.09.33.09.5v1a2.5 2.5 0 0 1-5 0v-.14l-.21-.07a2.5 2.5 0 0 0-1.58 0l-.21.07v.14a2.5 2.5 0 0 1-5 0v-1Zm8.5-.5h2a.5.5 0 0 1 .5.5v1a1.5 1.5 0 0 1-3 0v-1a.5.5 0 0 1 .5-.5Z"/></svg>