<svg xmlns="http://www.w3.org/2000/svg" width="16" height="16" viewBox="0 0 16 16" id="icon"><path d="M8 0C5.83 0 5.56.01 4.7.05a6 6 0 0 0-1.94.37 4 4 0 0 0-1.42.92 4 4 0 0 0-.92 1.42c-.2.5-.33 1.09-.37 1.94S0 5.83 0 8s.01 2.44.05 3.3.17 1.43.37 1.94c.2.53.48.97.92 1.42q.66.64 1.42.92c.5.2 1.09.33 1.94.37S5.83 16 8 16s2.44-.01 3.3-.05a6 6 0 0 0 1.94-.37 4 4 0 0 0 1.42-.92c.44-.45.71-.9.92-1.42.2-.5.33-1.09.37-1.94.04-.86.05-1.13.05-3.3s-.01-2.44-.05-3.3a6 6 0 0 0-.37-1.94 4 4 0 0 0-.92-1.42 4 4 0 0 0-1.42-.92A6 6 0 0 0 11.3.05C10.44 0 10.17 0 8 0m-.72 1.44H8c2.14 0 2.39 0 3.23.05.78.03 1.2.16 1.49.27.37.15.64.32.92.6s.45.55.6.92c.1.28.24.7.27 1.49.04.84.05 1.1.05 3.23s0 2.39-.05 3.23c-.03.78-.16 1.2-.27 1.49a2.5 2.5 0 0 1-.6.91c-.28.28-.55.46-.92.6-.28.11-.7.24-1.49.28-.84.04-1.1.05-3.23.05s-2.39-.01-3.23-.05a4 4 0 0 1-1.49-.28 2.5 2.5 0 0 1-.92-.6 2.5 2.5 0 0 1-.6-.92c-.1-.28-.24-.7-.27-1.48-.04-.84-.05-1.1-.05-3.23s.01-2.4.05-3.23c.03-.78.16-1.2.27-1.5a2.6 2.6 0 0 1 1.52-1.51c.29-.1.7-.24 1.49-.27.74-.04 1.02-.05 2.51-.05m5 1.33a.96.96 0 1 0 0 1.92.96.96 0 0 0 0-1.92M8 3.89a4.1 4.1 0 1 0 0 8.22 4.1 4.1 0 0 0 0-8.22m0 1.44a2.67 2.67 0 1 1 0 5.34 2.67 2.67 0 0 1 0-5.34"/></svg>