<svg xmlns="http://www.w3.org/2000/svg" width="16" height="16" viewBox="0 0 16 16" id="icon"><path fill-rule="evenodd" d="M8.65 5.65a.5.5 0 0 1 .7 0l2 2a.5.5 0 0 1 0 .7l-2 2a.5.5 0 0 1-.7-.7L10.29 8 8.65 6.35a.5.5 0 0 1 0-.7m-1.3 0a.5.5 0 0 0-.7 0l-2 2a.5.5 0 0 0 0 .7l2 2a.5.5 0 0 0 .7-.7L5.71 8l1.64-1.65a.5.5 0 0 0 0-.7"/><path d="M3 0h10a2 2 0 0 1 2 2v12a2 2 0 0 1-2 2H3a2 2 0 0 1-2-2v-1h1v1a1 1 0 0 0 1 1h10a1 1 0 0 0 1-1V2a1 1 0 0 0-1-1H3a1 1 0 0 0-1 1v1H1V2a2 2 0 0 1 2-2"/><path d="M1 5v-.5a.5.5 0 0 1 1 0V5h.5a.5.5 0 0 1 0 1h-2a.5.5 0 0 1 0-1zm0 3v-.5a.5.5 0 0 1 1 0V8h.5a.5.5 0 0 1 0 1h-2a.5.5 0 0 1 0-1zm0 3v-.5a.5.5 0 0 1 1 0v.5h.5a.5.5 0 0 1 0 1h-2a.5.5 0 0 1 0-1z"/></svg>