<svg viewBox="0 0 16 16"><path fill-rule="evenodd" d="M8 4a.5.5 0 0 1 .5.5v.63l.55-.31a.5.5 0 1 1 .5.86L9 6l.55.32a.5.5 0 1 1-.5.86l-.55-.31v.63a.5.5 0 0 1-1 0v-.63l-.55.31a.5.5 0 1 1-.5-.86L7 6l-.55-.32a.5.5 0 0 1 .5-.86l.55.31V4.5A.5.5 0 0 1 8 4zM5 9.5a.5.5 0 0 1 .5-.5h5a.5.5 0 0 1 0 1h-5a.5.5 0 0 1-.5-.5zm0 2a.5.5 0 0 1 .5-.5h5a.5.5 0 0 1 0 1h-5a.5.5 0 0 1-.5-.5z"/><path d="M3 0h10a2 2 0 0 1 2 2v12a2 2 0 0 1-2 2H3a2 2 0 0 1-2-2v-1h1v1a1 1 0 0 0 1 1h10a1 1 0 0 0 1-1V2a1 1 0 0 0-1-1H3a1 1 0 0 0-1 1v1H1V2a2 2 0 0 1 2-2z"/><path d="M1 5v-.5a.5.5 0 0 1 1 0V5h.5a.5.5 0 0 1 0 1h-2a.5.5 0 0 1 0-1H1zm0 3v-.5a.5.5 0 0 1 1 0V8h.5a.5.5 0 0 1 0 1h-2a.5.5 0 0 1 0-1H1zm0 3v-.5a.5.5 0 0 1 1 0v.5h.5a.5.5 0 0 1 0 1h-2a.5.5 0 0 1 0-1H1z"/></svg>