<svg xmlns="http://www.w3.org/2000/svg" viewBox="0 0 16 16"><path fill-rule="evenodd" d="M5.04.3A.5.5 0 0 1 5.5 0h5c.2 0 .38.12.46.3l3 7a.5.5 0 0 1-.36.69l-.45.08a32.73 32.73 0 0 1-4.65.43v5a.5.5 0 1 1-1 0v-5a32.75 32.75 0 0 1-4.64-.43l-.45-.08a.5.5 0 0 1-.37-.69l3-7ZM3.21 7.12A31.27 31.27 0 0 0 8 7.5a31.27 31.27 0 0 0 4.8-.38L10.16 1H5.83L3.21 7.12Z"/><path d="M6.5 12.57a.5.5 0 0 1-.42.58 5.6 5.6 0 0 0-1.65.5 1.32 1.32 0 0 0-.37.26.3.3 0 0 0-.05.07L4 14a.15.15 0 0 0 .02.04.62.62 0 0 0 .14.15c.17.13.44.27.82.4.75.25 1.82.41 3.02.41s2.27-.16 3.02-.41c.38-.13.65-.27.82-.4a.62.62 0 0 0 .14-.15.15.15 0 0 0 .02-.03V14a.3.3 0 0 0-.06-.1 1.32 1.32 0 0 0-.37-.26 5.7 5.7 0 0 0-1.65-.5.5.5 0 1 1 .16-.98c.77.13 1.45.33 1.96.6.46.24.96.64.96 1.24 0 .43-.26.75-.54.98-.3.22-.68.41-1.12.55-.88.3-2.06.47-3.34.47-1.28 0-2.46-.17-3.34-.47a3.73 3.73 0 0 1-1.12-.55C3.26 14.75 3 14.43 3 14c0-.6.5-1 .96-1.24.5-.27 1.19-.47 1.96-.6a.5.5 0 0 1 .57.41Z"/></svg>