<svg xmlns="http://www.w3.org/2000/svg" width="16" height="16" viewBox="0 0 16 16" id="icon"><path d="M1.4 1.7c.22.29.65.84 1.73 1.27 1.09.44 2.88.78 5.83.53l.37-.02c1.82-.06 3.12.6 3.95 1.58A5.4 5.4 0 0 1 14.5 8.5c0 .58-.03 1.29-.23 2q.2.24.38.54A9.4 9.4 0 0 1 16 15a1 1 0 0 1-1.98.2 8 8 0 0 0-.87-2.77C12.17 13.4 10.56 14 8 14a7 7 0 0 1-4.45-1.43 8 8 0 0 1-2.4-3.39A14.3 14.3 0 0 1 .52 1.9L.73.8zm-.05 1.39c-.15 1.6 0 3.8.74 5.73a7 7 0 0 0 2.08 2.96A6 6 0 0 0 8 13c2.59 0 3.9-.66 4.6-1.44-1.78-2.47-4.11-1.22-6.33-2.69-.74-.48-1.74-1.32-1.85-2.3-.02-.22.24-.28.38-.12 1.4 1.6 3.58 1.76 5.6 2.05 1.22.22 2.2.53 3.02 1.16q.09-.6.08-1.16c0-.91-.29-1.99-.98-2.8-.62-.72-1.62-1.27-3.16-1.22l-.32.02c-3.05.25-5-.08-6.29-.6a5 5 0 0 1-1.4-.81"/></svg>