<svg xmlns="http://www.w3.org/2000/svg" width="16" height="16" viewBox="0 0 16 16" id="icon"><path d="M1.4 1.7c.22.29.65.84 1.73 1.27 1.09.44 2.88.78 5.83.53 2.02-.17 3.43.51 4.32 1.56A5.4 5.4 0 0 1 14.5 8.5q0 .34-.03.73A8 8 0 0 0 10.4 7.5c-2.03-.29-4.2-.44-5.6-2.04-.14-.17-.4-.1-.38.1.1 1 1.1 1.83 1.85 2.32 2.37 1.56 5.77-.12 7.6 3.07.5.8 1.37 2.7 1.75 4.29a.6.6 0 0 1-.36.71l-.16.05a1 1 0 0 1-1.08-.8 8 8 0 0 0-.87-2.77C12.17 13.4 10.56 14 8 14a7 7 0 0 1-4.45-1.43 8 8 0 0 1-2.39-3.39c-1-2.56-1-5.53-.65-7.28L.73.8z"/></svg>