<svg xmlns="http://www.w3.org/2000/svg" width="16" height="16" viewBox="0 0 16 16" id="icon"><path fill-rule="evenodd" d="M2.23 4.35A6 6 0 0 0 2 6c0 1.7.7 3.22 1.83 4.31q.3.3.45.62l.76 1.77a.5.5 0 0 0 .46.3.5.5 0 0 0 0 1 .5.5 0 0 0 0 1l.22.45a1 1 0 0 0 .9.55h2.76a1 1 0 0 0 .9-.55l.22-.45a.5.5 0 0 0 0-1 .5.5 0 0 0 0-1 .5.5 0 0 0 .29-.1l-.91-.9H5.83l-.63-1.47a3 3 0 0 0-.68-.94 5 5 0 0 1-1.45-4.4zM3.82 1.7l.7.7a5 5 0 0 1 7.08 7.07l.7.71A6 6 0 0 0 3.82 1.7m-2.17-.05a.5.5 0 0 1 .7 0l12 12a.5.5 0 0 1-.7.7l-12-12a.5.5 0 0 1 0-.7"/></svg>