<svg viewBox="0 0 16 16"><path d="M8 0c4.41 0 8 2.91 8 6.5 0 1.43-.56 2.71-1.72 3.99-1.67 1.93-5.43 4.28-6.28 4.64-.83.35-.73-.2-.7-.41v-.02l.12-.69c.03-.2.06-.52-.02-.72-.1-.22-.45-.34-.7-.4C2.84 12.4 0 9.7 0 6.5 0 2.91 3.59 0 8 0ZM5.02 7.69H3.5V4.92a.16.16 0 0 0-.16-.16h-.56a.16.16 0 0 0-.16.16V8.4c0 .04.02.08.05.11a.15.15 0 0 0 .11.05h2.24c.09 0 .16-.07.16-.16v-.56a.16.16 0 0 0-.16-.15Zm.8-2.93a.16.16 0 0 0-.16.16V8.4c0 .09.07.16.15.16h.57c.08 0 .15-.07.15-.16V4.92a.16.16 0 0 0-.15-.16H5.8Zm3.86 0a.16.16 0 0 0-.16.16v2.07l-1.6-2.16a.17.17 0 0 0-.01-.01.14.14 0 0 0-.01-.01.1.1 0 0 0-.01-.02h-.01l-.02-.01h-.01a.1.1 0 0 0-.01-.01h-.61a.16.16 0 0 0-.15.15V8.4c0 .08.07.15.15.15h.56c.09 0 .16-.07.16-.15V6.34l1.6 2.16a.15.15 0 0 0 .04.03v.01h.01a.07.07 0 0 0 .01 0l.01.01a.17.17 0 0 0 .01 0 .15.15 0 0 0 .05.01h.56c.08 0 .15-.07.15-.15V4.9a.16.16 0 0 0-.15-.15h-.56Zm3.81.72v-.56a.16.16 0 0 0-.15-.16h-2.25a.15.15 0 0 0-.1.05.15.15 0 0 0-.05.1v3.5c0 .03.02.07.04.1a.15.15 0 0 0 .11.05h2.25c.08 0 .15-.07.15-.16v-.56a.16.16 0 0 0-.15-.15H11.8v-.6h1.52c.1 0 .16-.06.16-.15v-.56a.16.16 0 0 0-.15-.16H11.8v-.59h1.52c.1 0 .16-.07.16-.15Z"/></svg>