<svg xmlns="http://www.w3.org/2000/svg" width="16" height="16" viewBox="0 0 16 16" id="icon"><path d="M8 0c4.41 0 8 2.91 8 6.5a5.8 5.8 0 0 1-1.71 3.99c-1.68 1.93-5.44 4.28-6.29 4.64-.83.35-.73-.2-.7-.41v-.02l.12-.68c.03-.2.06-.53-.02-.73-.1-.22-.45-.34-.7-.4C2.84 12.4 0 9.7 0 6.5 0 2.91 3.59 0 8 0M5.02 7.69H3.5V4.92a.16.16 0 0 0-.16-.16h-.56a.16.16 0 0 0-.16.16V8.4q0 .06.05.11l.11.05h2.24q.15-.01.16-.16v-.56a.16.16 0 0 0-.16-.15m.8-2.93a.16.16 0 0 0-.16.16V8.4q.02.15.15.16h.57q.14-.01.15-.16V4.92a.16.16 0 0 0-.15-.16zm3.86 0a.16.16 0 0 0-.16.16v2.07l-1.6-2.16-.01-.01-.01-.01-.01-.02h-.01l-.02-.01h-.01l-.01-.01h-.61a.2.2 0 0 0-.15.15V8.4q.02.14.15.15h.56q.15-.02.16-.15V6.34l1.6 2.16.04.03v.01h.02l.01.01h.01l.05.01h.56q.13-.02.15-.15V4.9a.2.2 0 0 0-.15-.15zm3.81.72v-.56a.16.16 0 0 0-.15-.16h-2.25l-.1.05-.05.1v3.5q0 .05.04.1l.11.05h2.25q.13-.01.15-.16v-.56a.2.2 0 0 0-.15-.15H11.8v-.6h1.53q.14 0 .15-.15v-.56a.16.16 0 0 0-.15-.16H11.8v-.59h1.53q.14-.02.15-.15"/></svg>