<svg xmlns="http://www.w3.org/2000/svg" width="16" height="16" viewBox="0 0 16 16"><path d="M0 1.15C0 .5.53 0 1.18 0h13.65C15.47 0 16 .51 16 1.15v13.7c0 .64-.53 1.15-1.17 1.15H1.17C.53 16 0 15.49 0 14.85zm4.94 12.24V6.17h-2.4v7.22zm-1.2-8.2c.84 0 1.36-.56 1.36-1.26-.01-.7-.52-1.24-1.34-1.24S2.4 3.23 2.4 3.93s.52 1.25 1.33 1.25zm4.91 8.2V9.36q0-.34.08-.59a1.3 1.3 0 0 1 1.23-.87c.87 0 1.22.66 1.22 1.63v3.86h2.4V9.25C13.58 7.03 12.4 6 10.82 6c-1.28 0-1.85.7-2.17 1.2v.02h-.02l.02-.03V6.17h-2.4c.03.68 0 7.22 0 7.22z"/></svg>