<svg xmlns="http://www.w3.org/2000/svg" viewBox="0 0 16 16"><path fill-rule="evenodd" d="M5 11.5a.5.5 0 0 1 .5-.5h9a.5.5 0 0 1 0 1h-9a.5.5 0 0 1-.5-.5zm0-4a.5.5 0 0 1 .5-.5h9a.5.5 0 0 1 0 1h-9a.5.5 0 0 1-.5-.5zm0-4a.5.5 0 0 1 .5-.5h9a.5.5 0 0 1 0 1h-9a.5.5 0 0 1-.5-.5zM3.85 2.15a.5.5 0 0 1 0 .7l-1.5 1.5a.5.5 0 0 1-.7 0l-.5-.5a.5.5 0 1 1 .7-.7l.15.14 1.15-1.14a.5.5 0 0 1 .7 0zm0 4a.5.5 0 0 1 0 .7l-1.5 1.5a.5.5 0 0 1-.7 0l-.5-.5a.5.5 0 1 1 .7-.7l.15.14 1.15-1.14a.5.5 0 0 1 .7 0zm0 4a.5.5 0 0 1 0 .7l-1.5 1.5a.5.5 0 0 1-.7 0l-.5-.5a.5.5 0 0 1 .7-.7l.15.14 1.15-1.14a.5.5 0 0 1 .7 0z"/></svg>