<svg xmlns="http://www.w3.org/2000/svg" width="16" height="16" viewBox="0 0 16 16"><path fill-rule="evenodd" d="M5 11.5a.5.5 0 0 1 .5-.5h9a.5.5 0 0 1 0 1h-9a.5.5 0 0 1-.5-.5m0-4a.5.5 0 0 1 .5-.5h9a.5.5 0 0 1 0 1h-9a.5.5 0 0 1-.5-.5m0-4a.5.5 0 0 1 .5-.5h9a.5.5 0 0 1 0 1h-9a.5.5 0 0 1-.5-.5"/><path d="M1.71 11.87v-.48H2c.22 0 .36-.14.36-.32s-.15-.3-.36-.3c-.22 0-.37.15-.37.3h-.6c.02-.46.38-.78 1-.78.58 0 .95.29.95.7a.6.6 0 0 1-.49.6v.03a.6.6 0 0 1 .57.63c0 .53-.5.8-1.05.8-.66 0-1-.37-1.01-.8h.58c.01.18.19.31.42.31.26 0 .43-.14.43-.35s-.16-.35-.42-.35zm0-4.7h-.6v-.04c0-.4.29-.84.95-.84.59 0 .96.32.96.75 0 .4-.25.62-.47.85L2 8.46v.03h1.05V9H1.14v-.4l.96-.98c.14-.15.3-.3.3-.51 0-.18-.15-.32-.35-.32a.33.33 0 0 0-.34.33zM2.56 5h-.63V2.92H1.9l-.6.42v-.56l.63-.45h.63z"/></svg>