<svg xmlns="http://www.w3.org/2000/svg" width="16" height="16" viewBox="0 0 16 16"><path fill-rule="evenodd" d="M5 11.5a.5.5 0 0 1 .5-.5h9a.5.5 0 0 1 0 1h-9a.5.5 0 0 1-.5-.5m0-4a.5.5 0 0 1 .5-.5h9a.5.5 0 0 1 0 1h-9a.5.5 0 0 1-.5-.5m0-4a.5.5 0 0 1 .5-.5h9a.5.5 0 0 1 0 1h-9a.5.5 0 0 1-.5-.5"/><path d="M2.24 2.2a.27.27 0 0 1 .52 0l.16.52q.07.19.26.2h.55c.26 0 .37.33.16.5l-.46.35a.3.3 0 0 0-.1.3l.17.57c.08.26-.2.47-.42.3l-.42-.32a.3.3 0 0 0-.32 0l-.42.32a.27.27 0 0 1-.42-.3l.17-.57a.3.3 0 0 0-.1-.3l-.46-.36c-.2-.16-.1-.5.16-.5h.55a.3.3 0 0 0 .26-.19zm0 4a.27.27 0 0 1 .52 0l.16.52q.07.19.26.2h.55c.26 0 .37.33.16.5l-.46.35a.3.3 0 0 0-.1.3l.17.57c.08.26-.2.47-.42.3l-.42-.32a.3.3 0 0 0-.32 0l-.42.32c-.21.17-.5-.04-.42-.3l.17-.57a.3.3 0 0 0-.1-.3l-.46-.36c-.2-.16-.1-.5.16-.5h.55a.3.3 0 0 0 .26-.19zm0 4a.27.27 0 0 1 .52 0l.16.52q.07.19.26.2h.55c.26 0 .37.33.16.5l-.46.35a.3.3 0 0 0-.1.3l.17.57c.08.26-.2.47-.42.3l-.42-.32a.3.3 0 0 0-.32 0l-.42.32c-.21.17-.5-.04-.42-.3l.17-.57a.3.3 0 0 0-.1-.3l-.46-.36c-.2-.16-.1-.5.16-.5h.55a.3.3 0 0 0 .26-.19z"/></svg>