<svg xmlns="http://www.w3.org/2000/svg" viewBox="0 0 16 16"><path d="M8 1a.5.5 0 0 1 .5.5v5.24l.5.36V4.72C9 3.77 9.77 3 10.72 3c.52 0 1.02.27 1.44.6.43.32.85.77 1.22 1.22.73.9 1.35 1.95 1.58 2.48.17.4.4 1.16.55 2.01.17.86.29 1.86.25 2.76-.04.87-.24 1.8-.84 2.33-.67.6-1.62.56-2.74 0l-1.8-.9A2.5 2.5 0 0 1 9 11.26V8.33L8 7.6l-1 .72V7.2a.5.5 0 0 0-.29.1l-2.5 1.78a.5.5 0 1 0 .58.82L7 8.33v2.93a2.5 2.5 0 0 1-1.38 2.24l-1.8.9c-1.12.56-2.07.6-2.74 0-.6-.54-.8-1.46-.84-2.33a12.66 12.66 0 0 1 .8-4.77 13 13 0 0 1 1.58-2.48c.37-.46.79-.9 1.22-1.23.42-.32.92-.59 1.44-.59C6.23 3 7 3.77 7 4.72V7.1l.5-.36V1.5A.5.5 0 0 1 8 1Zm3.21 8.9a.5.5 0 1 0 .58-.8l-2.5-1.8A.5.5 0 0 0 9 7.22v1.12l2.21 1.58Z"/></svg>