<svg viewBox="0 0 16 16"><path d="M8.5 1.5a.5.5 0 1 0-1 0v5.24L7 7.1V4.72C7 3.77 6.23 3 5.28 3c-.52 0-1.02.27-1.44.6a7.4 7.4 0 0 0-1.22 1.22A12.7 12.7 0 0 0 1.04 7.3c-.17.4-.4 1.16-.55 2.01a12.2 12.2 0 0 0-.25 2.76c.04.87.24 1.8.84 2.33.67.6 1.62.56 2.74 0l1.8-.9A2.5 2.5 0 0 0 7 11.26v-.76a.5.5 0 0 0-1 0v.76a1.5 1.5 0 0 1-.83 1.35l-1.8.9c-.97.48-1.4.34-1.62.15-.28-.26-.47-.8-.5-1.64-.04-.79.06-1.7.22-2.52.15-.82.35-1.5.49-1.8.19-.44.75-1.4 1.44-2.25.34-.42.7-.8 1.05-1.07.35-.27.64-.38.83-.38a.72.72 0 0 1 .72.72v3.1L4.21 9.08a.5.5 0 0 0 .58.82L8 7.6l3.21 2.3a.5.5 0 1 0 .58-.82L10 7.81V4.72a.72.72 0 0 1 .72-.72c.2 0 .47.11.83.39.35.26.7.64 1.05 1.06.7.85 1.25 1.81 1.44 2.25a12.04 12.04 0 0 1 .72 4.32c-.04.83-.23 1.39-.5 1.64-.22.19-.66.33-1.64-.16l-1.8-.9a1.5 1.5 0 0 1-.82-1.34v-.76a.5.5 0 0 0-1 0v.76a2.5 2.5 0 0 0 1.38 2.24l1.8.9c1.12.56 2.07.6 2.74 0 .6-.54.8-1.46.84-2.33a12.66 12.66 0 0 0-.8-4.77 13 13 0 0 0-1.58-2.48c-.37-.46-.79-.9-1.22-1.23A2.48 2.48 0 0 0 10.72 3C9.77 3 9 3.77 9 4.72V7.1l-.5-.36V1.5Z"/></svg>