<svg xmlns="http://www.w3.org/2000/svg" width="16" height="16" viewBox="0 0 16 16"><path d="M9.5 2.67a.5.5 0 1 0 1 0V.84a.5.5 0 0 0-1 0zm4.5.04a.5.5 0 0 0-.7-.71L12 3.3a.5.5 0 1 0 .7.7zM7.3 4a.5.5 0 1 0 .7-.7L6.7 2a.5.5 0 0 0-.7.7zm-.63 2.5a.5.5 0 1 0 0-1H4.84a.5.5 0 1 0 0 1zm8.49 0a.5.5 0 1 0 0-1h-1.83a.5.5 0 0 0 0 1zM13.29 10a.5.5 0 1 0 .71-.7L12.7 8a.5.5 0 1 0-.7.7zM9.5 11.16a.5.5 0 0 0 1 0V9.33a.5.5 0 0 0-1 0zm1.85-5.1a.5.5 0 0 0 0-.7l-.7-.71a.5.5 0 0 0-.71 0l-1.3 1.29a.5.5 0 0 0 0 .7l.71.72a.5.5 0 0 0 .71 0zm-3 3a.5.5 0 0 0 0-.7l-.7-.71a.5.5 0 0 0-.71 0l-6.3 6.29a.5.5 0 0 0 0 .7l.71.71a.5.5 0 0 0 .71 0z"/></svg>