<svg viewBox="0 0 16 16"><path d="M9.5 2.67a.5.5 0 1 0 1 0V.84a.5.5 0 0 0-1 0v1.83Zm4.5.04a.5.5 0 0 0-.7-.71L12 3.3a.5.5 0 1 0 .7.7L14 2.7ZM7.3 4a.5.5 0 1 0 .7-.7L6.7 2a.5.5 0 0 0-.7.7L7.3 4Zm-.63 2.5a.5.5 0 1 0 0-1H4.84a.5.5 0 1 0 0 1h1.83Zm8.49 0a.5.5 0 1 0 0-1h-1.83a.5.5 0 0 0 0 1h1.83ZM13.29 10a.5.5 0 1 0 .71-.7L12.7 8a.5.5 0 1 0-.7.7l1.3 1.3ZM9.5 11.16a.5.5 0 0 0 1 0V9.33a.5.5 0 0 0-1 0v1.83Zm1.85-5.1a.5.5 0 0 0 0-.7l-.7-.71a.5.5 0 0 0-.71 0l-1.3 1.29a.5.5 0 0 0 0 .7l.71.72a.5.5 0 0 0 .71 0l1.3-1.3Zm-3 3a.5.5 0 0 0 0-.7l-.7-.71a.5.5 0 0 0-.71 0l-6.3 6.29a.5.5 0 0 0 0 .7l.71.71a.5.5 0 0 0 .71 0l6.3-6.29Z"/></svg>