<svg xmlns="http://www.w3.org/2000/svg" width="16" height="16" viewBox="0 0 16 16"><path d="M14 3a1 1 0 0 1 1 1v8a1 1 0 0 1-1 1H2a1 1 0 0 1-1-1V4a1 1 0 0 1 1-1zM2 2a2 2 0 0 0-2 2v8a2 2 0 0 0 2 2h12a2 2 0 0 0 2-2V4a2 2 0 0 0-2-2z"/><path fill-rule="evenodd" d="M9.15 8.15a.5.5 0 0 1 .7 0l1.65 1.64 1.65-1.64a.5.5 0 0 1 .7.7l-2 2a.5.5 0 0 1-.7 0l-2-2a.5.5 0 0 1 0-.7"/><path fill-rule="evenodd" d="M11.5 5a.5.5 0 0 1 .5.5v4a.5.5 0 0 1-1 0v-4a.5.5 0 0 1 .5-.5"/><path d="M3.56 11V7.01h.06l1.42 3.24h.78L7.24 7h.05v4h1.08V5h-1.2L5.46 8.9h-.04L3.7 5H2.5v6z"/></svg>