<svg xmlns="http://www.w3.org/2000/svg" viewBox="0 0 16 16"><path d="M11.19 12.2c2.02-.24 3.77-1.48 3.99-2.6.35-1.79.32-4.35.32-4.35 0-3.47-2.29-4.49-2.29-4.49C12.06.24 10.08.02 8.03 0h-.05C5.92.02 3.94.24 2.79.77c0 0-2.29 1-2.29 4.48v.67L.51 8c.09 3.39.63 6.74 3.78 7.57 1.46.38 2.7.46 3.71.4a7.44 7.44 0 0 0 2.85-.64l-.06-1.32s-1.3.41-2.77.36c-1.45-.05-2.98-.16-3.21-1.93a3.61 3.61 0 0 1-.03-.5s1.42.35 3.22.43c1.1.05 2.14-.06 3.2-.19zm1.61-2.47h-1.67v-4.1c0-.85-.36-1.29-1.1-1.29-.8 0-1.2.52-1.2 1.54v2.23H7.17V5.9c0-1.02-.4-1.54-1.2-1.54-.74 0-1.1.44-1.1 1.3v4.07H3.2v-4.2a3 3 0 0 1 .66-2.04 2.3 2.3 0 0 1 1.79-.77c.86 0 1.5.33 1.93.99L8 4.4l.42-.7a2.16 2.16 0 0 1 1.93-.98c.74 0 1.34.26 1.8.77a3 3 0 0 1 .65 2.04v4.2z"/></svg>