<svg xmlns="http://www.w3.org/2000/svg" width="16" height="16" viewBox="0 0 16 16" id="icon"><path d="M.04.3A.5.5 0 0 1 .5 0H14a2 2 0 0 1 2 2v5.96a1.04 1.04 0 0 1-2.07.17l-.85-5.1a.04.04 0 0 0-.08.01V14a2 2 0 0 1-2 2H4a2 2 0 0 1-2-2V3.74a2.5 2.5 0 0 0-.73-1.76L.15.85A.5.5 0 0 1 .04.31M1.7 1l.27.27A3.5 3.5 0 0 1 3 3.74V14a1 1 0 0 0 1 1h7a1 1 0 0 0 1-1V3.04a1.04 1.04 0 0 1 2.07-.17l.85 5.1a.04.04 0 0 0 .08-.01V2a1 1 0 0 0-1-1zM4 3h3.5a.5.5 0 1 1 0 1H4zm0 2h1.5a.5.5 0 1 1 0 1H4zm0 2h3.5a.5.5 0 1 1 0 1H4zm0 2h1.5a.5.5 0 1 1 0 1H4zm0 2h3.5a.5.5 0 0 1 0 1H4zm0 2h1.5a.5.5 0 0 1 0 1H4z"/></svg>