<svg xmlns="http://www.w3.org/2000/svg" viewBox="0 0 16 16"><path d="M13 2.5a1.5 1.5 0 0 1 3 0v11a1.5 1.5 0 0 1-3 0v-.21a17 17 0 0 0-6.91-2.09l.4 2.72a1 1 0 0 1-.98 1.18h-.55a1 1 0 0 1-.91-.6L2.2 11.01a68.14 68.14 0 0 0-.2 0A2.01 2.01 0 0 1 0 9V7a2.02 2.02 0 0 1 2-2.01 74.66 74.66 0 0 0 2.48-.08c3.04-.15 6.14-.85 8.52-2.2V2.5zm1 0v11a.5.5 0 0 0 1 0v-11a.5.5 0 0 0-1 0zm-1 1.35a20.98 20.98 0 0 1-8 2.03v4.24l.54.03c2.56.2 5.09.75 7.46 2v-8.3zm-9 6.21V5.93A95.09 95.09 0 0 1 2 6a1.02 1.02 0 0 0-1 1v2a1 1 0 0 0 1 1 60.49 60.49 0 0 1 2 .06zm-.66.98 1.61 3.04.01.02h.55v-.01l-.44-2.97a68.02 68.02 0 0 0-1.73-.08z"/></svg>