<svg xmlns="http://www.w3.org/2000/svg" width="16" height="16" viewBox="0 0 16 16" id="icon"><path d="M13 2.5a1.5 1.5 0 0 1 3 0v11a1.5 1.5 0 0 1-3 0v-.21a17 17 0 0 0-6.91-2.09l.4 2.72a1 1 0 0 1-.98 1.18h-.55a1 1 0 0 1-.91-.6L2.2 11.01H2A2 2 0 0 1 0 9V7a2 2 0 0 1 2-2.01 75 75 0 0 0 2.48-.08c3.04-.15 6.14-.85 8.52-2.2zm1 0v11a.5.5 0 0 0 1 0v-11a.5.5 0 0 0-1 0m-1 1.35a21 21 0 0 1-8 2.03v4.24l.54.03c2.57.2 5.09.75 7.46 2zm-9 6.22V5.93L2 6a1 1 0 0 0-1 1v2a1 1 0 0 0 1 1zm-.66.98 1.61 3.04.01.02h.55v-.01l-.44-2.97z"/></svg>