<svg viewBox="0 0 16 16"><path d="M1 3a1 1 0 0 0-1 1v8a1 1 0 0 0 1 1h4.59a1 1 0 0 0 .7-.3l.36-.35a.5.5 0 0 1 .7 0l.36.36a1 1 0 0 0 .7.29H15a1 1 0 0 0 1-1V4a1 1 0 0 0-1-1H1Zm.5 1h3a.5.5 0 0 1 .5.5v4a.5.5 0 0 1-.5.5h-3a.5.5 0 0 1-.5-.5v-4a.5.5 0 0 1 .5-.5Zm5 0h3a.5.5 0 0 1 .5.5v4a.5.5 0 0 1-.5.5h-3a.5.5 0 0 1-.5-.5v-4a.5.5 0 0 1 .5-.5Zm4.5.5a.5.5 0 0 1 .5-.5h3a.5.5 0 0 1 .5.5v4a.5.5 0 0 1-.5.5h-3a.5.5 0 0 1-.5-.5v-4ZM2 10v2H1v-2h1Zm2 0v2H3v-2h1Zm2 0v2H5v-2h1Zm3 0v2H8v-2h1Zm2 0v2h-1v-2h1Zm2 0v2h-1v-2h1Zm2 0v2h-1v-2h1Z"/></svg>