<svg xmlns="http://www.w3.org/2000/svg" width="16" height="16" viewBox="0 0 16 16"><path d="M7.65.15a.5.5 0 0 1 .7 0L10.21 2H14a2 2 0 0 1 2 2v9a2 2 0 0 1-2 2H2a2 2 0 0 1-2-2V4a2 2 0 0 1 2-2h3.8zM1 7v3h14V7zm14-1V4a1 1 0 0 0-1-1h-3.8a1 1 0 0 1-.7-.3L8 1.2 6.5 2.7a1 1 0 0 1-.7.3H2a1 1 0 0 0-1 1v2zm0 5H1v2a1 1 0 0 0 1 1h12a1 1 0 0 0 1-1zM2 4.5a.5.5 0 0 1 .5-.5h8a.5.5 0 0 1 0 1h-8a.5.5 0 0 1-.5-.5m0 4a.5.5 0 0 1 .5-.5h11a.5.5 0 0 1 0 1h-11a.5.5 0 0 1-.5-.5m0 4a.5.5 0 0 1 .5-.5h6a.5.5 0 0 1 0 1h-6a.5.5 0 0 1-.5-.5"/></svg>