<svg xmlns="http://www.w3.org/2000/svg" width="16" height="16" viewBox="0 0 16 16" id="icon"><path d="M7.65 15.85a.5.5 0 0 0 .7 0L10.21 14H14a2 2 0 0 0 2-2V3a2 2 0 0 0-2-2H2a2 2 0 0 0-2 2v9a2 2 0 0 0 2 2h3.8zM1 9V6h14v3zm14 1v2a1 1 0 0 1-1 1h-3.8a1 1 0 0 0-.7.3L8 14.8l-1.5-1.5a1 1 0 0 0-.7-.3H2a1 1 0 0 1-1-1v-2zm0-5H1V3a1 1 0 0 1 1-1h12a1 1 0 0 1 1 1zM2 11.5a.5.5 0 0 0 .5.5h8a.5.5 0 0 0 0-1h-8a.5.5 0 0 0-.5.5m0-4a.5.5 0 0 0 .5.5h11a.5.5 0 0 0 0-1h-11a.5.5 0 0 0-.5.5m0-4a.5.5 0 0 0 .5.5h6a.5.5 0 0 0 0-1h-6a.5.5 0 0 0-.5.5"/></svg>