<svg xmlns="http://www.w3.org/2000/svg" width="16" height="16" viewBox="0 0 16 16" id="icon"><path fill-rule="evenodd" d="M8.22 5.24C9.14 4 10.17 3 11.48 3 13.96 3 16 6.15 16 9.9c0 2.3-.98 3.73-2.76 3.73-1.54 0-2.4-.86-3.92-3.42l-.67-1.13-.11-.2L8 8.02 6.83 10.1c-1.68 2.93-2.62 3.54-3.93 3.54-1.81 0-2.9-1.41-2.9-3.66C0 6.4 2 3 4.6 3q.48 0 .92.12.46.13.92.4a7 7 0 0 1 1.78 1.72m1.51 2.23q-.37-.62-.72-1.14H9c.85-1.3 1.54-1.96 2.37-1.96 1.73 0 3.1 2.54 3.1 5.65 0 1.2-.39 1.88-1.2 1.88-.76 0-1.13-.5-2.6-2.87zM4.85 4.76c.72.1 1.38.63 2.34 2L5.55 9.3c-1.36 2.13-1.82 2.6-2.58 2.6-.78 0-1.24-.68-1.24-1.9 0-2.6 1.3-5.26 2.85-5.26z"/></svg>