<svg xmlns="http://www.w3.org/2000/svg" viewBox="0 0 16 16"><path fill-rule="evenodd" d="M8.22 5.24C9.14 4 10.17 3 11.48 3 13.96 3 16 6.15 16 9.9c0 2.3-.98 3.73-2.76 3.73-1.54 0-2.4-.86-3.92-3.42l-.67-1.13-.11-.2A54.94 54.94 0 0 0 8 8.02L6.83 10.1c-1.68 2.93-2.62 3.54-3.93 3.54-1.81 0-2.9-1.41-2.9-3.66C0 6.4 2 3 4.6 3a3.43 3.43 0 0 1 1.84.53 7.2 7.2 0 0 1 1.78 1.71Zm1.51 2.23-.72-1.14H9c.84-1.3 1.54-1.96 2.37-1.96 1.73 0 3.1 2.54 3.1 5.65 0 1.2-.39 1.88-1.2 1.88-.76 0-1.13-.5-2.6-2.87l-.94-1.56ZM4.85 4.76c.72.1 1.38.63 2.34 2A212.13 212.13 0 0 0 5.55 9.3c-1.36 2.13-1.82 2.6-2.58 2.6-.78 0-1.24-.68-1.24-1.9 0-2.6 1.3-5.26 2.85-5.26.09 0 .18 0 .27.02Z"/></svg>