<svg xmlns="http://www.w3.org/2000/svg" viewBox="0 0 16 16"><path d="M9.19 4.8a2.42 2.42 0 1 0-2.86-2.45H7.5c.93 0 1.69.75 1.69 1.68v.77Zm-4.3 7.74H7.5a1.7 1.7 0 0 0 1.69-1.69V5.58h2.78a.7.7 0 0 1 .68.72v4.29a4.2 4.2 0 0 1-4.1 4.3 4.2 4.2 0 0 1-3.66-2.36Zm10.74-9.38a1.67 1.67 0 1 1-3.35 0 1.67 1.67 0 0 1 3.35 0Zm-2.24 9.5-.12-.01a5.19 5.19 0 0 0 .38-2.07V6.3a1.7 1.7 0 0 0-.15-.73h1.8c.38 0 .7.32.7.7v3.77a2.6 2.6 0 0 1-2.6 2.6h-.01Z"/><path d="M.68 3.35H7.5c.38 0 .69.3.69.68v6.82a.68.68 0 0 1-.69.69H.68a.68.68 0 0 1-.68-.69V4.03c0-.38.3-.68.68-.68Zm5.2 2.6v-.72H2.3v.72h1.36v3.71h.87V5.95h1.36Z"/></svg>