<svg xmlns="http://www.w3.org/2000/svg" viewBox="0 0 16 16"><path d="M4 15a1 1 0 1 1 0-2 1 1 0 0 1 0 2zm0 1a2 2 0 1 0 0-4 2 2 0 0 0 0 4zm8-1a1 1 0 1 1 0-2 1 1 0 0 1 0 2zm0 1a2 2 0 1 0 0-4 2 2 0 0 0 0 4zM.12 3.18A.5.5 0 0 1 .5 3h15a.5.5 0 0 1 .5.6l-1.5 8a.5.5 0 0 1-.5.4H2a.5.5 0 0 1-.5-.4L0 3.6a.5.5 0 0 1 .11-.42zM1.1 4l1.32 7h11.16l1.32-7H1.1z"/><path fill-rule="evenodd" d="M6 1a2.5 2.5 0 0 1 4 0c.82 0 1.54.4 2 1 .67 0 1.55.57 2 1h-2a1 1 0 0 1-.8-.4A1.5 1.5 0 0 0 10 2a1 1 0 0 1-.8-.4 1.5 1.5 0 0 0-2.4 0A1 1 0 0 1 6 2c-.5 0-.96.25-1.23.64-.09.13-.2.25-.3.36H3c.13-.15.4-.43.56-.55a1.63 1.63 0 0 0 .4-.39A2.5 2.5 0 0 1 6 1z"/></svg>