<svg xmlns="http://www.w3.org/2000/svg" width="16" height="16" viewBox="0 0 16 16" id="icon"><path d="M4 15a1 1 0 1 1 0-2 1 1 0 0 1 0 2m0 1a2 2 0 1 0 0-4 2 2 0 0 0 0 4m8-1a1 1 0 1 1 0-2 1 1 0 0 1 0 2m0 1a2 2 0 1 0 0-4 2 2 0 0 0 0 4M.12 3.18A.5.5 0 0 1 .5 3h15a.5.5 0 0 1 .5.6l-1.5 8a.5.5 0 0 1-.5.4H2a.5.5 0 0 1-.5-.4L0 3.6a.5.5 0 0 1 .11-.42zM1.1 4l1.32 7h11.17l1.3-7z"/><path fill-rule="evenodd" d="M6 1a2.5 2.5 0 0 1 4 0c.82 0 1.55.4 2 1 .67 0 1.55.57 2 1h-2a1 1 0 0 1-.8-.4A1.5 1.5 0 0 0 10 2a1 1 0 0 1-.8-.4 1.5 1.5 0 0 0-2.4 0A1 1 0 0 1 6 2c-.5 0-.96.25-1.23.64q-.13.2-.3.36H3c.13-.15.4-.43.56-.55a2 2 0 0 0 .4-.39A2.5 2.5 0 0 1 6 1"/></svg>