<svg xmlns="http://www.w3.org/2000/svg" width="16" height="16" viewBox="0 0 16 16"><path d="M5.5 1.5A1.5 1.5 0 0 1 7 0h2a1.5 1.5 0 0 1 1.5 1.5v11A1.5 1.5 0 0 1 9.1 14c.35.3.87.68 1.62 1.05a.5.5 0 0 1-.22.95h-5a.5.5 0 0 1-.22-.95A8 8 0 0 0 6.9 14a1.5 1.5 0 0 1-1.4-1.5zM7 1a.5.5 0 0 0-.5.5v11a.5.5 0 0 0 .5.5h2a.5.5 0 0 0 .5-.5v-11A.5.5 0 0 0 9 1z"/><path d="M8.5 2.5a.5.5 0 1 1-1 0 .5.5 0 0 1 1 0m0 2a.5.5 0 1 1-1 0 .5.5 0 0 1 1 0m0 2a.5.5 0 1 1-1 0 .5.5 0 0 1 1 0m0 2a.5.5 0 1 1-1 0 .5.5 0 0 1 1 0"/></svg>