<svg xmlns="http://www.w3.org/2000/svg" width="16" height="16" viewBox="0 0 16 16"><path d="M13.5 0a.5.5 0 0 0 0 1H15v2.75h-.5a.5.5 0 0 0 0 1h.5V7.5h-1.5a.5.5 0 0 0 0 1H15v2.75h-.5a.5.5 0 0 0 0 1h.5V15h-1.5a.5.5 0 0 0 0 1h2a.5.5 0 0 0 .5-.5V.5a.5.5 0 0 0-.5-.5zM7 1.5l.36-.34a.5.5 0 0 0-.72 0h-.01l-.02.03-.08.09a29 29 0 0 0-1.28 1.51c-.77.99-1.71 2.33-2.38 3.73A8 8 0 0 0 2 9.73C2 12.61 4.21 15 7 15s5-2.39 5-5.27a8 8 0 0 0-.87-3.2 21 21 0 0 0-2.38-3.74 29 29 0 0 0-1.36-1.6l-.02-.02v-.01zm0 0-.36-.34zm-.02.77L7 2.25l.02.02a26 26 0 0 1 2.84 3.97H4.14a22 22 0 0 1 2.85-3.97M3 9.73c0-.75.24-1.6.64-2.5h6.72q.62 1.36.64 2.5C11 12.12 9.18 14 7 14s-4-1.88-4-4.27"/></svg>