<svg xmlns="http://www.w3.org/2000/svg" viewBox="0 0 16 16"><path d="M6 .28a.77.77 0 0 1 .08.86A7.2 7.2 0 0 0 5.2 4.6a7.3 7.3 0 0 0 8.85 7.11.79.79 0 0 1 .81.32.73.73 0 0 1-.03.9A8.35 8.35 0 0 1 8.34 16 8.3 8.3 0 0 1 5.12.06.75.75 0 0 1 6 .28zM4.86 1.3a7.27 7.27 0 0 0-3.84 6.4 7.3 7.3 0 0 0 7.32 7.28 7.32 7.32 0 0 0 5.2-2.17A8.32 8.32 0 0 1 4.84 1.3z"/><path d="M10.8 3.15a.22.22 0 0 1 .4 0l.4 1.16c.17.52.57.92 1.09 1.1l1.16.38a.22.22 0 0 1 0 .42l-1.16.38a1.73 1.73 0 0 0-1.1 1.1l-.38 1.16a.22.22 0 0 1-.42 0l-.38-1.16a1.73 1.73 0 0 0-1.1-1.1l-1.16-.38a.22.22 0 0 1 0-.42l1.16-.38a1.73 1.73 0 0 0 1.1-1.1l.38-1.16zM13.85.1a.14.14 0 0 1 .28 0l.25.77c.12.35.4.62.74.74l.77.25a.14.14 0 0 1 0 .28l-.77.26a1.16 1.16 0 0 0-.74.73l-.25.77a.14.14 0 0 1-.28 0l-.25-.77a1.16 1.16 0 0 0-.74-.73l-.77-.26a.14.14 0 0 1 0-.28l.77-.25c.35-.12.62-.4.74-.74l.25-.77z"/></svg>