<svg xmlns="http://www.w3.org/2000/svg" width="16" height="16" viewBox="0 0 16 16"><path d="M7 0q-.9 0-1.53.46-.6.47-.93 1.21C4.12 2.62 4 3.87 4 5.2v.5l-.62.3A2.5 2.5 0 0 0 2 8.24v2.57A5.1 5.1 0 0 0 7 16h2c2.78 0 5-2.34 5-5.19V5.2q-.02-1.69-.75-2.78A4.6 4.6 0 0 0 11.4.82C9.98.12 8.26 0 7 0m2.5 6.1V1.23q.77.16 1.46.5.91.43 1.46 1.23c.35.55.58 1.26.58 2.23v1.69zm-1-5.03v4.8L5 5.1c0-1.24.13-2.3.46-3.02q.24-.55.6-.8Q6.4 1 7 1q.71 0 1.5.07M5 6.12l8 1.78v2.91A4.1 4.1 0 0 1 9 15H7a4.1 4.1 0 0 1-4-4.19V8.24a1.5 1.5 0 0 1 .83-1.35l.19-.09q0 .4.04.92c.07.94.2 2.12.47 2.94a.5.5 0 1 0 .94-.32c-.22-.68-.35-1.75-.4-2.69z"/></svg>