<svg viewBox="0 0 16 16"><path d="M7 0a2.54 2.54 0 0 0-2.46 1.67C4.12 2.62 4 3.87 4 5.2v.5l-.62.3A2.5 2.5 0 0 0 2 8.24v2.57A5.1 5.1 0 0 0 7 16h2c2.78 0 5-2.34 5-5.19v-3.3a.71.71 0 0 0 0-.02v-2.3c0-1.13-.27-2.05-.75-2.78A4.58 4.58 0 0 0 11.4.82C9.98.12 8.26 0 7 0zm2.5 6.1V1.23c.51.11 1 .27 1.46.5.6.29 1.1.69 1.46 1.23.35.55.58 1.26.58 2.23v1.69L9.5 6.1zm-1-5.03v4.8L5 5.1c0-1.24.13-2.3.46-3.02.16-.37.36-.63.6-.8C6.29 1.1 6.59 1 7 1c.47 0 .98.02 1.5.07zM5 6.12l8 1.78v2.91A4.1 4.1 0 0 1 9 15H7a4.1 4.1 0 0 1-4-4.19V8.24a1.5 1.5 0 0 1 .83-1.35l.19-.09c0 .27.02.58.04.92.07.94.2 2.12.47 2.94a.5.5 0 1 0 .94-.32c-.22-.68-.35-1.75-.4-2.69A29.17 29.17 0 0 1 5 6.13z"/></svg>