<svg xmlns="http://www.w3.org/2000/svg" width="16" height="16" viewBox="0 0 16 16" id="icon"><path d="M0 2.5A1.5 1.5 0 0 1 1.5 1h11A1.5 1.5 0 0 1 14 2.5v10.53c0 .3-.05.65-.24.97h.74a.5.5 0 0 0 .5-.5v-9a.5.5 0 0 1 1 0v9a1.5 1.5 0 0 1-1.5 1.5h-13A1.5 1.5 0 0 1 0 13.5zM12 14c.37 0 .65-.21.85-.44q.15-.15.15-.53V2.5a.5.5 0 0 0-.5-.5h-11a.5.5 0 0 0-.5.5v11c0 .28.22.5.5.5z"/><path d="M2 3h10v2H2zm0 3h4v3H2zm0 4h4v1H2zm0 2h4v1H2zm5-6h2v1H7zm3 0h2v1h-2zM7 8h2v1H7zm3 0h2v1h-2zm-3 2h2v1H7zm3 0h2v1h-2zm-3 2h2v1H7zm3 0h2v1h-2z"/></svg>