<svg xmlns="http://www.w3.org/2000/svg" viewBox="0 0 16 16"><path d="M9.34 8c0-4.37.01-7.97.02-7.98.01-.01.68-.02 1.47-.02 1.15 0 1.51.01 1.74.05 1.73.3 3.05 1.6 3.38 3.33.04.24.05.8.05 4.6 0 4.07 0 4.54-.12 4.98l-.08.24a4.14 4.14 0 0 1-3.43 2.77c-.32.03-2.89.05-2.98.01-.05-.02-.05-.75-.05-7.98Zm4.67.27a1.62 1.62 0 0 0-1.1-1.03 1.6 1.6 0 0 0-1.95 1.07 1.9 1.9 0 0 0-.01.94 1.63 1.63 0 0 0 1.95 1.1c.51-.13.91-.5 1.11-1.02.11-.29.12-.75 0-1.06ZM3.71 3.32c-.2.04-.53.2-.7.35-.34.3-.51.72-.49 1.23.01.26.03.33.14.54.15.32.39.56.7.72.23.1.29.12.58.13.26 0 .35 0 .53-.06A1.5 1.5 0 0 0 5.5 4.57a1.52 1.52 0 0 0-1.8-1.25Z"/><path d="M3.42.05A4.14 4.14 0 0 0 .15 3.07C0 3.63-.01 3.96 0 8.3c0 3.99 0 4.08.08 4.39a4.16 4.16 0 0 0 3.22 3.24c.22.05.5.06 2.29.07 1.86 0 2.05 0 2.1-.04.05-.05.05-.7.05-7.94A394 394 0 0 0 7.71.06C7.68 0 7.62 0 5.69 0 4.1 0 3.63.02 3.43.05Zm3 14.67-1.35-.02a6.95 6.95 0 0 1-1.62-.08 2.81 2.81 0 0 1-2.08-2.17c-.07-.33-.07-8.58 0-8.9A2.85 2.85 0 0 1 3.08 1.5c.44-.18.64-.2 2.06-.2h1.28v13.42Z"/></svg>