<svg xmlns="http://www.w3.org/2000/svg" width="16" height="16" viewBox="0 0 16 16"><path d="M13 5.5a.5.5 0 1 1-1 0 .5.5 0 0 1 1 0m-1 1a.5.5 0 1 1-1 0 .5.5 0 0 1 1 0m-1 1a.5.5 0 1 1-1 0 .5.5 0 0 1 1 0m-1 1a.5.5 0 1 1-1 0 .5.5 0 0 1 1 0m-1 1a.5.5 0 1 1-1 0 .5.5 0 0 1 1 0m-1 1a.5.5 0 1 1-1 0 .5.5 0 0 1 1 0m-1 1a.5.5 0 1 1-1 0 .5.5 0 0 1 1 0m-1 1a.5.5 0 1 1-1 0 .5.5 0 0 1 1 0m1 1a.5.5 0 1 1-1 0 .5.5 0 0 1 1 0m.5-.5a.5.5 0 1 0 0-1 .5.5 0 0 0 0 1m1-1a.5.5 0 1 0 0-1 .5.5 0 0 0 0 1m1-1a.5.5 0 1 0 0-1 .5.5 0 0 0 0 1m1-1a.5.5 0 1 0 0-1 .5.5 0 0 0 0 1m1-1a.5.5 0 1 0 0-1 .5.5 0 0 0 0 1m1-1a.5.5 0 1 0 0-1 .5.5 0 0 0 0 1m1-1a.5.5 0 1 0 0-1 .5.5 0 0 0 0 1m-5 7a.5.5 0 1 0 0-1 .5.5 0 0 0 0 1m1.5-1.5a.5.5 0 1 1-1 0 .5.5 0 0 1 1 0m1-1a.5.5 0 1 1-1 0 .5.5 0 0 1 1 0m1-1a.5.5 0 1 1-1 0 .5.5 0 0 1 1 0m1-1a.5.5 0 1 1-1 0 .5.5 0 0 1 1 0m1-1a.5.5 0 1 1-1 0 .5.5 0 0 1 1 0m-3 5a.5.5 0 1 1-1 0 .5.5 0 0 1 1 0m.5-.5a.5.5 0 1 0 0-1 .5.5 0 0 0 0 1m1-1a.5.5 0 1 0 0-1 .5.5 0 0 0 0 1m1-1a.5.5 0 1 0 0-1 .5.5 0 0 0 0 1"/><path d="M8 0a8 8 0 1 0 0 16A8 8 0 0 0 8 0M1 8a7 7 0 0 1 12.83-3.87.5.5 0 1 0 .15.23q.2.32.36.67a.5.5 0 1 0 .36.93q.2.66.27 1.36a.5.5 0 1 0 .02.29 7 7 0 0 1-.1 1.59.5.5 0 1 0-.16.75 7 7 0 0 1-.42 1.09.5.5 0 0 0-.3.55l-.3.46a.5.5 0 0 0-.71.45q0 .16.1.3l-.3.3a.5.5 0 0 0-.75.61l-.46.3a.5.5 0 0 0-.55.3 7 7 0 0 1-1.1.42.5.5 0 1 0-.74.17 7 7 0 0 1-1.6.09.5.5 0 1 0-.28-.02 7 7 0 0 1-1.36-.27.5.5 0 0 0-.46-.7.5.5 0 0 0-.47.34 7 7 0 0 1-.67-.36.5.5 0 0 0 .64-.48.5.5 0 1 0-.87.33A7 7 0 0 1 1 8"/></svg>