<svg xmlns="http://www.w3.org/2000/svg" width="16" height="16" viewBox="0 0 16 16" id="icon"><path d="M1.64 7.15S3.08 5 5.97 4.79v-.77C2.77 4.27 0 6.98 0 6.98s1.57 4.54 5.97 4.95v-.82c-3.23-.4-4.33-3.96-4.33-3.96m4.33 2.32v.76c-2.44-.44-3.12-2.97-3.12-2.97s1.17-1.3 3.12-1.51v.82c-1.02-.12-1.82.83-1.82.83s.44 1.61 1.82 2.07M6 2l-.03 2.02.28-.02c3.64-.12 6 2.98 6 2.98S9.55 10.3 6.7 10.3q-.39 0-.73-.06v.88q.3.04.61.04c2.64 0 4.55-1.35 6.4-2.94.3.24 1.55.84 1.81 1.1-1.75 1.47-5.85 2.66-8.17 2.66l-.65-.03V14H16l.03-12zm-.03 3.75v-.96l.28-.01c2.62-.09 4.33 2.24 4.33 2.24S8.73 9.6 6.74 9.6q-.42 0-.77-.12v-2.9c1.02.12 1.22.57 1.84 1.59l1.36-1.15s-1-1.3-2.67-1.3z"/></svg>