<svg xmlns="http://www.w3.org/2000/svg" width="16" height="16" viewBox="0 0 16 16" id="icon"><path d="M14.95 6.55a4 4 0 0 0-.35-3.28 4.1 4.1 0 0 0-4.4-1.93A4 4 0 0 0 8.42.2 4 4 0 0 0 6.3.09a4 4 0 0 0-1.89.94A4 4 0 0 0 3.26 2.8a4 4 0 0 0-1.57.68A4 4 0 0 0 .55 4.72a4 4 0 0 0 .5 4.73 4 4 0 0 0 .35 3.28 4.1 4.1 0 0 0 4.4 1.93A4 4 0 0 0 8.85 16a4.1 4.1 0 0 0 3.9-2.8 4 4 0 0 0 1.56-.68 4 4 0 0 0 1.14-1.26 4 4 0 0 0-.5-4.71m-6.1 8.4a3 3 0 0 1-1.94-.7l.1-.05 3.22-1.83a.5.5 0 0 0 .27-.46V7.42l1.36.78.03.03v3.73a3.03 3.03 0 0 1-3.04 3M2.32 12.2a3 3 0 0 1-.36-2l.1.05 3.23 1.84a.5.5 0 0 0 .53 0l3.95-2.25v1.56l-.03.04-3.27 1.86a3.06 3.06 0 0 1-4.15-1.1m-.85-6.94a3 3 0 0 1 1.6-1.31v3.78a.5.5 0 0 0 .26.45l3.93 2.24-1.36.78h-.05L2.59 9.34a3 3 0 0 1-1.12-4.1zM12.7 7.83 8.75 5.58l1.36-.78h.05l3.26 1.86a3 3 0 0 1 1.18 1.2 3 3 0 0 1-.27 3.2 3 3 0 0 1-1.36 1V8.28a.5.5 0 0 0-.28-.45m1.36-2.01-.1-.06-3.22-1.85a.5.5 0 0 0-.53 0L6.25 6.15V4.6l.02-.04L9.53 2.7a3.1 3.1 0 0 1 3.26.14 3 3 0 0 1 1.26 2.97zM5.5 8.57 4.14 7.8l-.03-.04V4.05a3 3 0 0 1 1.75-2.71 3.1 3.1 0 0 1 3.24.4L9 1.8 5.77 3.64a.5.5 0 0 0-.26.45zM6.25 7 8 6l1.77 1v2L8 10 6.25 9z"/></svg>