<svg viewBox="0 0 16 16"><path d="M3.34 3c.28-.34.68-.5 1.07-.5h7.18c.39 0 .8.16 1.07.5.58.7 1.84 2.53 1.84 5s-1.26 4.3-1.84 5c-.28.34-.68.5-1.07.5H4.4c-.39 0-.8-.16-1.07-.5A8.13 8.13 0 0 1 1.5 8c0-2.47 1.26-4.3 1.84-5zm1.07.5a.38.38 0 0 0-.3.13A7.13 7.13 0 0 0 2.5 8c0 2.14 1.1 3.74 1.61 4.37.06.08.17.13.3.13h7.17c.14 0 .25-.05.3-.13A7.13 7.13 0 0 0 13.5 8c0-2.14-1.1-3.74-1.61-4.37a.38.38 0 0 0-.3-.13H4.42z"/><path d="M6 5.5a.5.5 0 0 1 .5.5v1.5a.5.5 0 0 1-1 0V6a.5.5 0 0 1 .5-.5zm4 0a.5.5 0 0 1 .5.5v1.5a.5.5 0 0 1-1 0V6a.5.5 0 0 1 .5-.5zM7 10v1h2v-1a1 1 0 0 0-2 0z"/></svg>