<svg xmlns="http://www.w3.org/2000/svg" width="16" height="16" viewBox="0 0 16 16"><path d="M3.34 3c.28-.34.68-.5 1.07-.5h7.18c.39 0 .8.16 1.07.5.58.7 1.84 2.53 1.84 5s-1.26 4.3-1.84 5c-.28.34-.68.5-1.07.5H4.4c-.39 0-.8-.16-1.07-.5-.58-.7-1.84-2.53-1.84-5s1.26-4.3 1.84-5m1.07.5a.4.4 0 0 0-.3.13C3.6 4.26 2.5 5.86 2.5 8s1.1 3.74 1.62 4.37q.09.13.3.13h7.17q.2 0 .3-.13c.51-.63 1.61-2.23 1.61-4.37s-1.1-3.74-1.61-4.37a.4.4 0 0 0-.3-.13z"/><path d="M6 5.5a.5.5 0 0 1 .5.5v1.5a.5.5 0 0 1-1 0V6a.5.5 0 0 1 .5-.5m4 0a.5.5 0 0 1 .5.5v1.5a.5.5 0 0 1-1 0V6a.5.5 0 0 1 .5-.5M7 10v1h2v-1a1 1 0 0 0-2 0"/></svg>