<svg viewBox="0 0 16 16"><path d="M6.2 2.78a9.88 9.88 0 0 0-1.36-1.64 2.97 2.97 0 0 0-.7-.52c-.22-.1-.57-.2-.89-.02-.37.21-.43.63-.43.9 0 .3.06.66.17 1.04.2.69.56 1.53 1.04 2.4L.75 8.22c-.28.28-.27.66-.22.92.06.28.2.6.36.9a9.9 9.9 0 0 0 1.63 2.07c.7.7 1.44 1.28 2.07 1.63.3.17.62.3.9.35.26.05.64.06.92-.21l5.61-5.62c.12.26.1.51.05.94-.03.3-.06.67-.07 1.18v.12a1 1 0 0 0 2 0v-.06a1.01 1.01 0 0 0 0-.11 4.55 4.55 0 0 0-1.86-3.5 4.32 4.32 0 0 0-.21-.43 9.95 9.95 0 0 0-1.63-2.07A9.9 9.9 0 0 0 8.23 2.7c-.31-.17-.62-.3-.9-.36-.27-.05-.64-.05-.92.22l-.22.22zm-2.04-.91c.38.35.84.92 1.31 1.63l-.7.7c-.38-.72-.66-1.4-.82-1.93a3.28 3.28 0 0 1-.13-.68c.1.06.2.15.34.28zm.4 3.96c.53.85 1.1 1.57 1.6 2.03a.5.5 0 1 0 .68-.73 10.18 10.18 0 0 1-1.56-2.02L6.37 4a9.93 9.93 0 0 0 1.81 2.43 9.84 9.84 0 0 0 2.43 1.82l-4.86 4.86a.57.57 0 0 1-.07 0 2.22 2.22 0 0 1-.6-.26c-.53-.3-1.2-.8-1.85-1.46a8.92 8.92 0 0 1-1.46-1.85 2.22 2.22 0 0 1-.25-.6.57.57 0 0 1-.01-.07l3.04-3.05zM7.41 3.9a2.44 2.44 0 0 1-.24-.56 2 2 0 0 1 .57.24 10.22 10.22 0 0 1 2.96 2.77 3.5 3.5 0 0 0-1.07.09 11.27 11.27 0 0 1-.76-.7A8.9 8.9 0 0 1 7.43 3.9z"/></svg>