<svg xmlns="http://www.w3.org/2000/svg" width="16" height="16" viewBox="0 0 16 16" id="icon"><path d="M6.2 2.78a10 10 0 0 0-1.36-1.64 3 3 0 0 0-.7-.52c-.22-.1-.57-.2-.89-.02-.37.21-.43.63-.43.9q0 .46.17 1.04c.2.69.56 1.53 1.04 2.4L.75 8.22c-.28.28-.27.66-.22.92q.1.44.36.9c.35.63.92 1.36 1.63 2.07s1.44 1.28 2.07 1.63q.46.27.9.35c.26.05.64.06.92-.21l5.61-5.62c.12.26.1.51.05.94q-.05.43-.07 1.18v.12a1 1 0 0 0 2 0v-.17a4.6 4.6 0 0 0-1.86-3.5l-.21-.43c-.35-.63-.92-1.36-1.63-2.07S8.86 3.05 8.23 2.7q-.47-.26-.9-.36c-.27-.05-.64-.05-.92.22zm-2.04-.91c.38.35.84.92 1.31 1.63l-.7.7c-.38-.72-.66-1.4-.82-1.93a3 3 0 0 1-.13-.68q.14.1.34.28m.4 3.96c.53.85 1.1 1.57 1.6 2.03a.5.5 0 1 0 .68-.73 10 10 0 0 1-1.56-2.02L6.37 4q.08.19.18.37c.35.63.92 1.36 1.63 2.07s1.44 1.28 2.07 1.63l.36.18-4.86 4.86h-.07q-.21-.04-.6-.26c-.53-.3-1.2-.8-1.85-1.46s-1.17-1.32-1.46-1.85a2 2 0 0 1-.25-.6l-.01-.07zM7.41 3.9a2 2 0 0 1-.24-.56q.21.04.57.24a10 10 0 0 1 2.96 2.77 4 4 0 0 0-1.07.09 11 11 0 0 1-.76-.7A9 9 0 0 1 7.43 3.9z"/></svg>