<svg xmlns="http://www.w3.org/2000/svg" viewBox="0 0 16 16"><path d="M8 5a1.5 1.5 0 1 0 0-3 1.5 1.5 0 0 0 0 3zm4 3a1.5 1.5 0 1 0 0-3 1.5 1.5 0 0 0 0 3zM5.5 7a1.5 1.5 0 1 1-3 0 1.5 1.5 0 0 1 3 0zm.5 6a1.5 1.5 0 1 0 0-3 1.5 1.5 0 0 0 0 3z"/><path d="M16 8c0 3.15-1.87 2.58-3.57 2.07-1.01-.3-1.96-.6-2.43-.07-.6.68-.47 1.82-.35 2.92C9.83 14.49 10 16 8 16a8 8 0 1 1 8-8zm-8 7c.61 0 .65-.17.66-.18.07-.14.12-.46.06-1.12 0-.16-.03-.36-.06-.59-.05-.46-.1-1-.11-1.46-.01-.7.08-1.6.7-2.31a1.9 1.9 0 0 1 1.27-.62c.4-.04.81.03 1.16.1.35.08.7.19 1.03.29h.02c.35.11.66.2.96.27.65.15.9.08.99.03.04-.03.32-.25.32-1.41a7 7 0 1 0-7 7z"/></svg>