<svg xmlns="http://www.w3.org/2000/svg" width="16" height="16" viewBox="0 0 16 16"><path d="M8 5a1.5 1.5 0 1 0 0-3 1.5 1.5 0 0 0 0 3m4 3a1.5 1.5 0 1 0 0-3 1.5 1.5 0 0 0 0 3M5.5 7a1.5 1.5 0 1 1-3 0 1.5 1.5 0 0 1 3 0m.5 6a1.5 1.5 0 1 0 0-3 1.5 1.5 0 0 0 0 3"/><path d="M16 8c0 3.15-1.87 2.59-3.57 2.07-1.01-.3-1.96-.6-2.43-.07-.6.68-.47 1.82-.35 2.92C9.83 14.49 10 16 8 16a8 8 0 1 1 8-8m-8 7c.61 0 .65-.17.66-.18.07-.14.12-.46.06-1.12q0-.24-.06-.59c-.05-.46-.1-1-.11-1.46-.01-.7.08-1.6.7-2.31a2 2 0 0 1 1.27-.62c.4-.04.81.03 1.16.1q.53.13 1.03.29h.02q.52.16.96.27c.65.15.9.08.99.03.04-.03.32-.25.32-1.41a7 7 0 1 0-7 7"/></svg>