<svg viewBox="0 0 16 16"><path fill-rule="evenodd" d="M5.5 8a.5.5 0 0 1 .5-.5h4a.5.5 0 0 1 0 1H6a.5.5 0 0 1-.5-.5z"/><path d="m10.27 2.51-.92-.94.72-.7.62.64.89-.01a2.89 2.89 0 0 1 2.92 2.92v.9l.63.61a2.89 2.89 0 0 1 0 4.14l-.64.62.01.89a2.89 2.89 0 0 1-2.92 2.92h-.9l-.61.63a2.89 2.89 0 0 1-4.14 0l-.62-.64-.89.01a2.89 2.89 0 0 1-2.92-2.92v-.9l-.63-.61a2.89 2.89 0 0 1 0-4.14l.64-.62-.01-.89A2.89 2.89 0 0 1 4.42 1.5h.9l.61-.63a2.89 2.89 0 0 1 4.14 0l-.72.7a1.89 1.89 0 0 0-2.7 0l-.92.94L4.4 2.5a1.89 1.89 0 0 0-1.9 1.9l.01 1.33-.94.92a1.89 1.89 0 0 0 0 2.7l.94.92-.01 1.32a1.89 1.89 0 0 0 1.9 1.91l1.33-.01.92.94a1.89 1.89 0 0 0 2.7 0l.92-.94 1.32.01a1.89 1.89 0 0 0 1.91-1.9l-.01-1.33.94-.92a1.89 1.89 0 0 0 0-2.7l-.94-.92.01-1.32a1.89 1.89 0 0 0-1.9-1.91l-1.33.01z"/></svg>