<svg xmlns="http://www.w3.org/2000/svg" width="16" height="16" viewBox="0 0 16 16" id="icon"><path fill-rule="evenodd" d="M10.35 6.15a.5.5 0 0 1 0 .7l-3 3a.5.5 0 0 1-.7 0l-1.5-1.5a.5.5 0 1 1 .7-.7L7 8.79l2.65-2.64a.5.5 0 0 1 .7 0"/><path d="m10.27 2.51-.92-.94.72-.7.62.64.89-.01a2.9 2.9 0 0 1 2.92 2.92v.9l.63.61a2.9 2.9 0 0 1 0 4.14l-.64.62.01.89a2.9 2.9 0 0 1-2.92 2.92h-.9l-.61.63a2.9 2.9 0 0 1-4.14 0l-.62-.64-.89.01a2.9 2.9 0 0 1-2.92-2.92v-.9l-.63-.61a2.9 2.9 0 0 1 0-4.14l.64-.62-.01-.89A2.9 2.9 0 0 1 4.42 1.5h.9l.61-.63a2.9 2.9 0 0 1 4.14 0l-.72.7a1.9 1.9 0 0 0-2.7 0l-.92.94L4.4 2.5a1.9 1.9 0 0 0-1.9 1.9l.01 1.33-.94.92a1.9 1.9 0 0 0 0 2.7l.94.92-.01 1.32a1.9 1.9 0 0 0 1.9 1.91l1.33-.01.92.94a1.9 1.9 0 0 0 2.7 0l.92-.94 1.32.01a1.9 1.9 0 0 0 1.91-1.9l-.01-1.33.94-.92a1.9 1.9 0 0 0 0-2.7l-.94-.92.01-1.32a1.9 1.9 0 0 0-1.9-1.91z"/></svg>