<svg xmlns="http://www.w3.org/2000/svg" width="16" height="16" viewBox="0 0 16 16"><path d="M8.05 9.6c.34 0 .5-.24.55-.63.04-.53.2-.81.85-1.26a2.3 2.3 0 0 0 1.05-1.98c0-1.33-.92-2.23-2.26-2.23-1.02 0-1.8.5-2.1 1.29a2 2 0 0 0-.14.69q.01.62.55.64.4.01.56-.51.24-.9 1.07-.91c.61 0 1.03.44 1.03 1.08 0 .56-.2.88-.82 1.32s-.93.92-.93 1.64v.11c0 .43.21.75.59.75"/><path d="m10.27 2.51-.92-.94.72-.7.62.64.89-.01a2.9 2.9 0 0 1 2.92 2.92v.9l.63.61a2.9 2.9 0 0 1 0 4.14l-.64.62.01.89a2.9 2.9 0 0 1-2.92 2.92h-.9l-.61.63a2.9 2.9 0 0 1-4.14 0l-.62-.64-.89.01a2.9 2.9 0 0 1-2.92-2.92v-.9l-.63-.61a2.9 2.9 0 0 1 0-4.14l.64-.62-.01-.89A2.9 2.9 0 0 1 4.42 1.5h.9l.61-.63a2.9 2.9 0 0 1 4.14 0l-.72.7a1.9 1.9 0 0 0-2.7 0l-.92.94L4.4 2.5a1.9 1.9 0 0 0-1.9 1.9l.01 1.33-.94.92a1.9 1.9 0 0 0 0 2.7l.94.92-.01 1.32a1.9 1.9 0 0 0 1.9 1.91l1.33-.01.92.94a1.9 1.9 0 0 0 2.7 0l.92-.94 1.32.01a1.9 1.9 0 0 0 1.91-1.9l-.01-1.33.94-.92a1.9 1.9 0 0 0 0-2.7l-.94-.92.01-1.32a1.9 1.9 0 0 0-1.9-1.91z"/><path d="M7 11a1 1 0 1 1 2 0 1 1 0 0 1-2 0"/></svg>