<svg xmlns="http://www.w3.org/2000/svg" width="16" height="16" viewBox="0 0 16 16" id="icon"><path d="M14.06 3.71a3 3 0 0 0-.7-2.52C12.63.36 11.3 0 9.63 0h-4.9a.7.7 0 0 0-.69.59L2.01 13.51a.42.42 0 0 0 .41.49h2.76l-.2 1.28a.63.63 0 0 0 .61.72h2.55c.43 0 .8-.3.86-.73l.03-.13.48-3.04.03-.17a.35.35 0 0 1 .35-.3h.38a5.7 5.7 0 0 0 3.34-.91q.57-.4 1-1a5 5 0 0 0 .87-2.2c.25-1.25.13-2.36-.57-3.15a3 3 0 0 0-.76-.6zM6.54 8.82a1 1 0 0 1 .32-.08H8.3c2.82 0 5.03-1.14 5.67-4.46v-.01q.33.18.55.44.81.94.45 2.7a4.4 4.4 0 0 1-1.66 2.88q-1.22.84-3.04.82h-.38a.9.9 0 0 0-.87.73L9 12l-.48 3.05-.02.13a.35.35 0 0 1-.35.3H5.6a.1.1 0 0 1-.1-.13l.2-1.32z"/></svg>