<svg viewBox="0 0 16 16"><path d="M14.06 3.71a3 3 0 0 0-.7-2.52C12.63.36 11.3 0 9.63 0h-4.9a.7.7 0 0 0-.69.59L2 13.51a.42.42 0 0 0 .42.49h2.76l-.2 1.28a.63.63 0 0 0 .61.72h2.55c.43 0 .8-.3.86-.73l.03-.13.48-3.04.03-.17a.35.35 0 0 1 .35-.3h.38a5.7 5.7 0 0 0 3.34-.91c.38-.27.71-.6 1-1a4.94 4.94 0 0 0 .87-2.2c.25-1.25.13-2.36-.57-3.15a2.69 2.69 0 0 0-.76-.6l-.09-.06ZM6.54 8.82a.7.7 0 0 1 .32-.08H8.3c2.82 0 5.03-1.14 5.67-4.46v-.01c.22.12.4.27.55.44.55.62.68 1.53.45 2.7a4.35 4.35 0 0 1-1.66 2.88c-.8.57-1.84.82-3.04.82h-.38a.87.87 0 0 0-.87.73L9 12l-.48 3.05-.02.13a.35.35 0 0 1-.35.3H5.6a.1.1 0 0 1-.1-.13l.2-1.32.85-5.21Z"/></svg>