<svg xmlns="http://www.w3.org/2000/svg" width="16" height="16" viewBox="0 0 16 16" id="icon"><path d="M7.56 7.39 8 7.04v1.92l-.44-.35a.5.5 0 0 0-.31-.11H6.5v-1h.75a.5.5 0 0 0 .31-.11"/><path d="M.5 1a.5.5 0 0 0 0 1H1v12.5a.5.5 0 0 0 1 0V12h13.5a.5.5 0 0 0 .5-.5v-7a.5.5 0 0 0-.5-.5H2V1.5a.5.5 0 0 0-.5-.5zm11.62 3.88q.15.17.28.37c.48.72.77 1.7.77 2.75s-.29 2.03-.77 2.75q-.13.2-.28.37l-.71-.71.16-.21c.36-.54.6-1.32.6-2.2s-.24-1.66-.6-2.2l-.16-.21zm-1.38 4.86L10 9c.06 0 .17-.04.3-.22q.18-.27.2-.78-.02-.5-.2-.78c-.13-.18-.24-.22-.3-.22l.74-.74q.23.16.38.4.38.57.38 1.34c0 .77-.13.97-.38 1.34a2 2 0 0 1-.38.4M9 6v4a.5.5 0 0 1-.81.39L7.08 9.5H6a.5.5 0 0 1-.5-.5V7a.5.5 0 0 1 .5-.5h1.08l1.1-.89A.5.5 0 0 1 9 6"/><path d="M6.5 12.5H3v1a.5.5 0 0 0 .5.5H6a.5.5 0 0 0 .5-.5zm.5 1v-1h4v1a.5.5 0 0 1-.5.5h-3a.5.5 0 0 1-.5-.5"/></svg>