<svg xmlns="http://www.w3.org/2000/svg" width="16" height="16" viewBox="0 0 16 16"><path d="M15 14s1 0 1-1-1-4-5-4-5 3-5 4 1 1 1 1zm-7.98-1H7c0-.27.17-1.03.76-1.72C8.31 10.63 9.28 10 11 10s2.69.63 3.24 1.28A3 3 0 0 1 15 13h-.02zM11 7a2 2 0 1 0 0-4 2 2 0 0 0 0 4m3-2a3 3 0 1 1-6 0 3 3 0 0 1 6 0M6.94 9.28a6 6 0 0 0-1.23-.25L5 9c-4 0-5 3-5 4q0 1 1 1h4.22A2 2 0 0 1 5 13a4.6 4.6 0 0 1 1.09-2.9q.37-.45.85-.82M4.92 10A5.5 5.5 0 0 0 4 13H1c0-.26.16-1.03.76-1.72.55-.64 1.5-1.26 3.16-1.28M1.5 5.5a3 3 0 1 1 6 0 3 3 0 0 1-6 0m3-2a2 2 0 1 0 0 4 2 2 0 0 0 0-4"/></svg>