<svg xmlns="http://www.w3.org/2000/svg" viewBox="0 0 16 16"><path d="M15 14s1 0 1-1-1-4-5-4-5 3-5 4 1 1 1 1h8Zm-7.98-1A.26.26 0 0 1 7 13c0-.27.17-1.03.76-1.72C8.31 10.63 9.28 10 11 10c1.72 0 2.69.63 3.24 1.28A3 3 0 0 1 15 13a.27.27 0 0 1-.02 0H7.02ZM11 7a2 2 0 1 0 0-4 2 2 0 0 0 0 4Zm3-2a3 3 0 1 1-6 0 3 3 0 0 1 6 0ZM6.94 9.28a5.88 5.88 0 0 0-1.23-.25A7.35 7.35 0 0 0 5 9c-4 0-5 3-5 4 0 .67.33 1 1 1h4.22A2.24 2.24 0 0 1 5 13a4.6 4.6 0 0 1 1.09-2.9c.24-.3.53-.57.85-.82ZM4.92 10A5.5 5.5 0 0 0 4 13H1c0-.26.16-1.03.76-1.72.55-.64 1.5-1.26 3.16-1.28ZM1.5 5.5a3 3 0 1 1 6 0 3 3 0 0 1-6 0Zm3-2a2 2 0 1 0 0 4 2 2 0 0 0 0-4Z"/></svg>