<svg xmlns="http://www.w3.org/2000/svg" width="16" height="16" viewBox="0 0 16 16" id="icon"><path fill-rule="evenodd" d="M8 .19a.5.5 0 0 1 .5.5v3.34l3.03-2.92.05-.05a.5.5 0 0 1 .5-.05.5.5 0 0 1 .3.46v3.25h1.22a.5.5 0 0 1 .4.5v5.55a.5.5 0 0 1-.5.5h-1.12v3.26a.5.5 0 0 1-.31.46.5.5 0 0 1-.55-.1L8.5 11.85v3.45a.5.5 0 0 1-.5.5.5.5 0 0 1-.5-.5v-3.45l-3.02 3.02a.5.5 0 0 1-.55.11.5.5 0 0 1-.31-.46v-3.26H2.5a.5.5 0 0 1-.5-.5V5.22l.01-.1a.5.5 0 0 1 .5-.4h1.11V1.4a.5.5 0 0 1 .3-.4.5.5 0 0 1 .56.11L7.5 4.03V.69c0-.28.22-.5.5-.5M4.63 9.33v3.99l2.87-2.87V6.44zm3.87 1.12 2.87 2.87V9.33L8.5 6.43zm3.74-1.67a.5.5 0 0 1 .14.35v1.14H13V5.72H9.2zM3 10.28h.6V9.12a.5.5 0 0 1 .15-.35L6.8 5.72H3zm1.62-5.56h2.13L4.63 2.65zm4.6 0h2.14V2.65z"/></svg>