<svg xmlns="http://www.w3.org/2000/svg" width="16" height="16" viewBox="0 0 16 16" id="icon"><path d="M11 5a3 3 0 1 1-6 0 3 3 0 0 1 6 0m-9 8c0 1 1 1 1 1h5.26A5 5 0 0 1 8 12.5a4.5 4.5 0 0 1 1.54-3.4Q8.84 9 8 9c-5 0-6 3-6 4m9.89-3.54a.64.64 0 0 1 1.22 0l.05.15a.64.64 0 0 0 .92.38l.13-.07a.64.64 0 0 1 .87.87l-.07.13a.64.64 0 0 0 .38.92l.15.05a.64.64 0 0 1 0 1.22l-.15.05a.64.64 0 0 0-.38.92l.07.13a.64.64 0 0 1-.87.87l-.13-.07a.64.64 0 0 0-.92.38l-.05.15c-.18.61-1.04.61-1.23 0l-.04-.15a.64.64 0 0 0-.92-.38l-.14.07c-.56.31-1.17-.3-.87-.87l.08-.13a.64.64 0 0 0-.38-.92l-.15-.05c-.61-.18-.61-1.04 0-1.23l.15-.04a.64.64 0 0 0 .38-.92l-.07-.14c-.31-.56.3-1.17.86-.87l.14.08a.64.64 0 0 0 .92-.38zM14 12.5a1.5 1.5 0 1 0-3 0 1.5 1.5 0 0 0 3 0"/></svg>