<svg xmlns="http://www.w3.org/2000/svg" width="16" height="16" viewBox="0 0 16 16" id="icon"><path d="M9.5 1.5a1.5 1.5 0 1 1-3 0 1.5 1.5 0 0 1 3 0M6.44 3.75A.8.8 0 0 1 7 3.5h1.45c.74 0 1.32.64 1.24 1.38l-.43 4.08a2 2 0 0 1-.09.4l-.32.9.22.25.1.17 2 4.25a.75.75 0 1 1-1.35.64l-1.95-4.15-1.68-1.93A.8.8 0 0 1 6 8.96l.14-2.61-.44.49-.46 2.78a.75.75 0 1 1-1.48-.24l.5-3A1 1 0 0 1 4.44 6z"/><path d="M6.25 11.75v-1.42l1.2 1.37.26.53-.12.23L5.1 15.7a.75.75 0 1 1-1.18-.92zm4.22-4.22-.5-.5.21-1.84v-.06l1.13 1.12h1.44a.75.75 0 0 1 0 1.5H11a.8.8 0 0 1-.53-.22"/></svg>