<svg xmlns="http://www.w3.org/2000/svg" width="16" height="16" viewBox="0 0 16 16" id="icon"><path d="M4 4a2 2 0 0 1 2-2h4a2 2 0 0 1 2 2v8a2 2 0 0 1-2 2H6a2 2 0 0 1-2-2zm5 7a1 1 0 1 0-2 0 1 1 0 0 0 2 0M1.8 4.73a.5.5 0 1 0-.88-.46A8 8 0 0 0 0 8c0 1.35.33 2.62.92 3.73a.5.5 0 1 0 .89-.46A7 7 0 0 1 1 8c0-1.18.3-2.3.8-3.27m13.28-.46a.5.5 0 0 0-.89.46 7 7 0 0 1 0 6.54.5.5 0 0 0 .89.46A8 8 0 0 0 16 8a8 8 0 0 0-.92-3.73M3.34 6.18a.5.5 0 1 0-.93-.36A6 6 0 0 0 2 8q0 1.16.41 2.18a.5.5 0 1 0 .93-.36A5 5 0 0 1 3 8q0-.96.34-1.82m10.25-.36a.5.5 0 0 0-.93.36 5 5 0 0 1 0 3.64.5.5 0 0 0 .93.36 6 6 0 0 0 0-4.36"/></svg>