<svg viewBox="0 0 16 16"><path d="M4 4a2 2 0 0 1 2-2h4a2 2 0 0 1 2 2v8a2 2 0 0 1-2 2H6a2 2 0 0 1-2-2V4zm5 7a1 1 0 1 0-2 0 1 1 0 0 0 2 0zM1.8 4.73a.5.5 0 1 0-.88-.46A7.97 7.97 0 0 0 0 8c0 1.35.33 2.62.92 3.73a.5.5 0 1 0 .89-.46A6.97 6.97 0 0 1 1 8c0-1.18.3-2.3.8-3.27zm13.28-.46a.5.5 0 0 0-.89.46 6.97 6.97 0 0 1 0 6.54.5.5 0 0 0 .89.46A7.97 7.97 0 0 0 16 8a7.97 7.97 0 0 0-.92-3.73zM3.34 6.18a.5.5 0 1 0-.93-.36A5.99 5.99 0 0 0 2 8c0 .77.14 1.5.41 2.18a.5.5 0 1 0 .93-.36A4.99 4.99 0 0 1 3 8c0-.64.12-1.25.34-1.82zm10.25-.36a.5.5 0 0 0-.93.36 4.98 4.98 0 0 1 0 3.64.5.5 0 0 0 .93.36 5.95 5.95 0 0 0 0-4.36z"/></svg>