<svg xmlns="http://www.w3.org/2000/svg" width="16" height="16" viewBox="0 0 16 16"><path d="M10 3a1 1 0 0 1 1 1v8a1 1 0 0 1-1 1H6a1 1 0 0 1-1-1V4a1 1 0 0 1 1-1zM6 2a2 2 0 0 0-2 2v8a2 2 0 0 0 2 2h4a2 2 0 0 0 2-2V4a2 2 0 0 0-2-2z"/><path d="M8 12a1 1 0 1 0 0-2 1 1 0 0 0 0 2M1.6 4.06a.5.5 0 0 1 .2.67A7 7 0 0 0 1 8c0 1.18.3 2.3.8 3.27a.5.5 0 0 1-.88.46A8 8 0 0 1 0 8c0-1.35.33-2.62.92-3.73a.5.5 0 0 1 .68-.21m12.8 0a.5.5 0 0 1 .68.2A8 8 0 0 1 16 8a8 8 0 0 1-.92 3.73.5.5 0 0 1-.89-.46A7 7 0 0 0 15 8c0-1.18-.3-2.3-.8-3.27a.5.5 0 0 1 .2-.67M3.06 5.53a.5.5 0 0 1 .28.65A5 5 0 0 0 3 8q0 .96.34 1.82a.5.5 0 1 1-.93.36A6 6 0 0 1 2 8q0-1.16.41-2.18a.5.5 0 0 1 .65-.29m9.88 0a.5.5 0 0 1 .65.29 6 6 0 0 1 0 4.36.5.5 0 0 1-.93-.36 5 5 0 0 0 0-3.64.5.5 0 0 1 .28-.65"/></svg>