<svg xmlns="http://www.w3.org/2000/svg" width="16" height="16" viewBox="0 0 16 16" id="icon"><path fill-rule="evenodd" d="M11 1H5a1 1 0 0 0-1 1v6a.5.5 0 0 1-1 0V2a2 2 0 0 1 2-2h6a2 2 0 0 1 2 2v6a.5.5 0 0 1-1 0V2a1 1 0 0 0-1-1m1 13a1 1 0 0 1-1 1H5a1 1 0 0 1-1-1v-2a.5.5 0 0 0-1 0v2a2 2 0 0 0 2 2h6a2 2 0 0 0 2-2v-2a.5.5 0 0 0-1 0zM1.71 7.95a.5.5 0 1 0-.42-.9q-.52.23-.88.57c-.23.22-.41.52-.41.88 0 .55.4.94.82 1.2.44.28 1.05.51 1.75.7 1.4.37 3.33.6 5.43.6h.3l-1.15 1.15a.5.5 0 0 0 .7.7l2-2a.5.5 0 0 0 0-.7l-2-2a.5.5 0 1 0-.7.7L8.29 10H8a21 21 0 0 1-5.17-.57 6 6 0 0 1-1.47-.57C1 8.64 1 8.5 1 8.5s0-.06.11-.17q.17-.17.6-.38m13-.9a.5.5 0 0 0-.42.9q.43.21.6.38c.11.11.11.17.11.17s0 .07-.13.19q-.19.18-.68.4c-.64.28-1.6.52-2.76.68a.5.5 0 0 0 .14 1c1.21-.18 2.26-.44 3.02-.76q.58-.25.96-.6c.25-.22.45-.53.45-.91 0-.36-.18-.66-.41-.88s-.54-.41-.88-.57M7.5 2a.5.5 0 0 0 0 1h1a.5.5 0 0 0 0-1z"/></svg>