<svg xmlns="http://www.w3.org/2000/svg" viewBox="0 0 16 16"><path d="M10 3a1 1 0 0 1 1 1v8a1 1 0 0 1-1 1H6a1 1 0 0 1-1-1V4a1 1 0 0 1 1-1h4zM6 2a2 2 0 0 0-2 2v8a2 2 0 0 0 2 2h4a2 2 0 0 0 2-2V4a2 2 0 0 0-2-2H6z"/><path d="M8 12a1 1 0 1 0 0-2 1 1 0 0 0 0 2zM1.6 4.06a.5.5 0 0 1 .2.67A6.97 6.97 0 0 0 1 8c0 1.18.3 2.3.8 3.27a.5.5 0 0 1-.88.46A7.97 7.97 0 0 1 0 8c0-1.35.33-2.62.92-3.73a.5.5 0 0 1 .68-.21zm12.8 0a.5.5 0 0 1 .68.2A7.97 7.97 0 0 1 16 8a7.97 7.97 0 0 1-.92 3.73.5.5 0 0 1-.89-.46A6.97 6.97 0 0 0 15 8c0-1.18-.3-2.3-.8-3.27a.5.5 0 0 1 .2-.67zM3.06 5.53a.5.5 0 0 1 .28.65A4.99 4.99 0 0 0 3 8c0 .64.12 1.25.34 1.82a.5.5 0 1 1-.93.36A5.99 5.99 0 0 1 2 8c0-.77.14-1.5.41-2.18a.5.5 0 0 1 .65-.29zm9.88 0a.5.5 0 0 1 .65.29 6 6 0 0 1 0 4.36.5.5 0 0 1-.93-.36 4.98 4.98 0 0 0 0-3.64.5.5 0 0 1 .28-.65z"/></svg>