<svg viewBox="0 0 16 16"><path d="M5 6.25a.75.75 0 1 1-1.5 0 .75.75 0 0 1 1.5 0zm1.14-1.5a6.61 6.61 0 0 1 1.82-.25c.67 0 1.3.1 1.9.27a.5.5 0 0 0 .28-.95 7.6 7.6 0 0 0-2.18-.32c-.73 0-1.44.1-2.1.3a.5.5 0 1 0 .28.95z"/><path fill-rule="evenodd" d="M7.96 1.53C5 1.53 2.4 3.23 1.64 5.65H1.1a1 1 0 0 0-.98 1.17l.25 1.46a1.5 1.5 0 0 0 1.48 1.25h.27c.3.51.68.97 1.14 1.38l-.73 2.48a.5.5 0 0 0 .48.64h2a.5.5 0 0 0 .47-.34l.48-1.35a7.65 7.65 0 0 0 4.04 0l.55 1.37a.5.5 0 0 0 .46.32h2a.5.5 0 0 0 .48-.65l-.76-2.5a5.11 5.11 0 0 0 1.76-4.24c.26-.11.5-.27.7-.45.32.31.82.31.82-.41 0 .22-.5.22-.46-.03a.95.95 0 0 0 .09-.25.7.7 0 0 0-.2-.65.58.58 0 0 0-.71-.1.73.73 0 0 0-.38.57c-.02.24.09.48.32.65a2.11 2.11 0 0 1-.25.15c-.54-2.66-3.29-4.6-6.45-4.6zM2.52 6.26c.45-2.07 2.66-3.73 5.44-3.73 3.15 0 5.54 2.11 5.54 4.54a4.2 4.2 0 0 1-1.67 3.25.5.5 0 0 0-.17.53l.67 2.18h-.99l-.59-1.49a.5.5 0 0 0-.63-.29c-.66.23-1.39.36-2.16.36a6.56 6.56 0 0 1-2.15-.36.5.5 0 0 0-.64.3l-.52 1.48h-.98l.63-2.15a.5.5 0 0 0-.17-.54A4.65 4.65 0 0 1 2.85 8.8a.5.5 0 0 0-.45-.27h-.56a.5.5 0 0 1-.5-.42L1.1 6.65h.93a.5.5 0 0 0 .49-.39zm12.62-.86a.56.56 0 0 1-.1.21.7.7 0 0 1-.04-.02c-.15-.1-.16-.18-.16-.23a.24.24 0 0 1 .12-.17c.05-.03.08-.02.11.01a.2.2 0 0 1 .07.2z"/></svg>