<svg xmlns="http://www.w3.org/2000/svg" width="16" height="16" viewBox="0 0 16 16" id="icon"><path d="M7.96 1.53C5 1.53 2.4 3.23 1.64 5.65H1.1a1 1 0 0 0-.98 1.17l.25 1.46a1.5 1.5 0 0 0 1.48 1.25h.27q.45.76 1.14 1.38l-.73 2.48a.5.5 0 0 0 .48.64h2a.5.5 0 0 0 .47-.34l.48-1.35a7.7 7.7 0 0 0 4.04 0l.55 1.37a.5.5 0 0 0 .46.32h2a.5.5 0 0 0 .48-.65l-.76-2.5a5 5 0 0 0 1.78-3.81q0-.22-.02-.43.4-.17.7-.45c.32.31.82.31.82-.41 0 .22-.5.22-.46-.03l.09-.25a.7.7 0 0 0-.2-.65.6.6 0 0 0-.71-.1.7.7 0 0 0-.38.57q-.03.38.32.65l-.25.15c-.54-2.66-3.29-4.6-6.45-4.6m7.18 3.88-.1.21-.05-.02c-.14-.1-.15-.18-.15-.22a.2.2 0 0 1 .12-.18q.07-.04.11.01a.2.2 0 0 1 .07.2m-9-.65a.5.5 0 1 1-.28-.96 8 8 0 0 1 2.1-.29q1.16 0 2.18.32a.5.5 0 1 1-.28.95 7 7 0 0 0-1.9-.27q-.96 0-1.82.25M5 6.25a.75.75 0 1 1-1.5 0 .75.75 0 0 1 1.5 0"/></svg>