<svg xmlns="http://www.w3.org/2000/svg" width="16" height="16" viewBox="0 0 16 16" id="icon"><path d="M5 6.25a.75.75 0 1 1-1.5 0 .75.75 0 0 1 1.5 0m1.14-1.5a7 7 0 0 1 1.82-.25q1 0 1.9.27a.5.5 0 0 0 .28-.95 8 8 0 0 0-2.18-.32q-1.1 0-2.1.3a.5.5 0 1 0 .28.95"/><path fill-rule="evenodd" d="M7.96 1.53C5 1.53 2.4 3.23 1.64 5.65H1.1a1 1 0 0 0-.98 1.17l.25 1.46a1.5 1.5 0 0 0 1.48 1.25h.27q.45.76 1.14 1.38l-.73 2.48a.5.5 0 0 0 .48.64h2a.5.5 0 0 0 .47-.34l.48-1.35a7.7 7.7 0 0 0 4.04 0l.55 1.37a.5.5 0 0 0 .46.32h2a.5.5 0 0 0 .48-.65l-.76-2.5a5 5 0 0 0 1.78-3.81q0-.22-.02-.43.4-.17.7-.45c.32.31.82.31.82-.41 0 .22-.5.22-.46-.03l.09-.25a.7.7 0 0 0-.2-.65.6.6 0 0 0-.71-.1.7.7 0 0 0-.38.57q-.03.38.32.65l-.25.15c-.54-2.66-3.29-4.6-6.45-4.6M2.52 6.27c.45-2.07 2.66-3.73 5.44-3.73 3.15 0 5.54 2.11 5.54 4.54a4.2 4.2 0 0 1-1.67 3.25.5.5 0 0 0-.16.53l.66 2.18h-.99l-.59-1.49a.5.5 0 0 0-.63-.29q-1 .35-2.16.36a7 7 0 0 1-2.15-.36.5.5 0 0 0-.64.3l-.52 1.48h-.98l.63-2.15a.5.5 0 0 0-.17-.54A5 5 0 0 1 2.85 8.8a.5.5 0 0 0-.45-.27h-.56a.5.5 0 0 1-.5-.42L1.1 6.65h.93a.5.5 0 0 0 .49-.39m12.62-.86-.1.21L15 5.6c-.15-.1-.16-.18-.16-.23a.2.2 0 0 1 .12-.17q.07-.04.11.01a.2.2 0 0 1 .07.2"/></svg>