<svg xmlns="http://www.w3.org/2000/svg" viewBox="0 0 16 16"><path d="M9.83.72a.5.5 0 0 1 .35.15l4.95 4.95a.5.5 0 0 1 0 .7c-.48.49-1.07.6-1.5.6a2.8 2.8 0 0 1-.46-.05l-3.14 3.14a5.93 5.93 0 0 1 .16 1.01c.05.7-.03 1.69-.72 2.38a.5.5 0 0 1-.7 0l-2.83-2.83-3.18 3.18c-.2.2-1.22.9-1.42.7-.2-.19.51-1.21.71-1.4l3.18-3.19L2.4 7.23a.5.5 0 0 1 0-.7c.7-.7 1.68-.77 2.38-.72a5.92 5.92 0 0 1 1.01.16l3.14-3.14a2.77 2.77 0 0 1-.04-.46c0-.43.1-1.02.58-1.5a.5.5 0 0 1 .36-.15zm.12 2.11zm0 0a.5.5 0 0 1-.12.51L6.29 6.88a.5.5 0 0 1-.5.12h-.02a4.5 4.5 0 0 0-.3-.08 4.92 4.92 0 0 0-.76-.12c-.42-.03-.83.01-1.17.15l5.5 5.51c.15-.34.19-.75.16-1.17a4.92 4.92 0 0 0-.2-1.06v-.01a.5.5 0 0 1 .12-.51l3.54-3.54a.5.5 0 0 1 .53-.11l.1.02a1.82 1.82 0 0 0 .68 0L9.93 2.02c-.03.11-.04.23-.04.34a1.78 1.78 0 0 0 .06.46z"/></svg>