<svg xmlns="http://www.w3.org/2000/svg" width="16" height="16" viewBox="0 0 16 16"><path d="M9.83.72a.5.5 0 0 1 .35.15l4.95 4.95a.5.5 0 0 1 0 .7c-.48.49-1.07.6-1.5.6l-.46-.05-3.14 3.14a6 6 0 0 1 .16 1.01c.05.7-.03 1.69-.72 2.38a.5.5 0 0 1-.7 0l-2.83-2.83-3.18 3.18c-.2.2-1.22.9-1.42.7s.51-1.21.71-1.4l3.18-3.19L2.4 7.23a.5.5 0 0 1 0-.7c.7-.7 1.68-.77 2.38-.72a6 6 0 0 1 1.01.16l3.14-3.14-.04-.46c0-.43.1-1.02.58-1.5a.5.5 0 0 1 .36-.15m.12 2.11a.5.5 0 0 1-.12.51L6.29 6.88a.5.5 0 0 1-.5.12h-.02l-.3-.08a5 5 0 0 0-.76-.12q-.64-.05-1.17.15l5.5 5.51q.21-.52.16-1.17a5 5 0 0 0-.2-1.06v-.01a.5.5 0 0 1 .12-.51l3.54-3.54a.5.5 0 0 1 .53-.11l.1.02q.13.03.34.03.17 0 .34-.04L9.93 2.03q-.05.17-.04.34a2 2 0 0 0 .06.46"/></svg>