<svg xmlns="http://www.w3.org/2000/svg" viewBox="0 0 16 16"><path d="M4.15.15A.5.5 0 0 1 4.5 0h7a.5.5 0 0 1 .5.5c0 .68-.34 1.17-.65 1.48-.12.12-.25.22-.35.3V6.7l.08.05c.2.12.47.31.75.55.53.47 1.17 1.22 1.17 2.19a.5.5 0 0 1-.5.5h-4v4.5c0 .28-.22 1.5-.5 1.5s-.5-1.22-.5-1.5V10h-4a.5.5 0 0 1-.5-.5c0-.97.64-1.73 1.17-2.19a5.92 5.92 0 0 1 .83-.6V2.28a2.77 2.77 0 0 1-.35-.3C4.35 1.68 4 1.18 4 .5a.5.5 0 0 1 .15-.35zm1.58 1.4zm0 0A.5.5 0 0 1 6 2v5a.5.5 0 0 1-.28.45h-.01l-.05.03a4.92 4.92 0 0 0-.83.58c-.32.28-.59.6-.73.94h7.8a2.67 2.67 0 0 0-.73-.94 4.92 4.92 0 0 0-.88-.6l-.01-.01A.5.5 0 0 1 10 7V2a.5.5 0 0 1 .3-.46 1.77 1.77 0 0 0 .35-.27c.08-.08.15-.17.21-.27H5.14c.06.1.13.2.21.27a1.78 1.78 0 0 0 .37.28z"/></svg>