<svg xmlns="http://www.w3.org/2000/svg" width="16" height="16" viewBox="0 0 16 16"><path d="M4.15.15A.5.5 0 0 1 4.5 0h7a.5.5 0 0 1 .5.5c0 .68-.34 1.17-.65 1.48q-.19.18-.35.3V6.7l.08.05q.31.18.75.55c.53.48 1.17 1.23 1.17 2.2a.5.5 0 0 1-.5.5h-4v4.5c0 .28-.22 1.5-.5 1.5s-.5-1.22-.5-1.5V10h-4a.5.5 0 0 1-.5-.5c0-.97.64-1.72 1.17-2.19a6 6 0 0 1 .83-.6V2.28l-.35-.3C4.35 1.68 4 1.18 4 .5a.5.5 0 0 1 .15-.35m1.58 1.4A.5.5 0 0 1 6 2v5a.5.5 0 0 1-.28.45h-.01l-.05.03a5 5 0 0 0-.83.58q-.5.42-.73.94h7.8a3 3 0 0 0-.73-.94 5 5 0 0 0-.88-.6l-.01-.01A.5.5 0 0 1 10 7V2a.5.5 0 0 1 .3-.46 2 2 0 0 0 .35-.27q.12-.12.21-.27H5.14q.1.15.21.27a2 2 0 0 0 .37.28"/></svg>