<svg xmlns="http://www.w3.org/2000/svg" width="16" height="16" viewBox="0 0 16 16" id="icon"><path d="M8 0a8 8 0 0 0-2.91 15.45c-.07-.63-.14-1.6.02-2.3l.94-3.97s-.24-.48-.24-1.19c0-1.11.65-1.94 1.45-1.94.68 0 1.01.51 1.01 1.12 0 .7-.44 1.72-.66 2.67-.19.8.4 1.44 1.18 1.44 1.43 0 2.52-1.5 2.52-3.66 0-1.92-1.38-3.25-3.34-3.25a3.46 3.46 0 0 0-3.62 3.47c0 .68.27 1.42.6 1.82A.2.2 0 0 1 5 9.9l-.23.91q-.04.22-.26.1c-1-.46-1.63-1.92-1.63-3.1 0-2.52 1.84-4.83 5.29-4.83 2.77 0 4.93 1.97 4.93 4.62 0 2.75-1.74 4.97-4.15 4.97-.81 0-1.58-.42-1.84-.92l-.5 1.9a8 8 0 0 1-.99 2.1A8 8 0 1 0 8 0"/></svg>