<svg xmlns="http://www.w3.org/2000/svg" width="16" height="16" viewBox="0 0 16 16"><path d="M15.86 11.45a3 3 0 0 1-1.08.68l-5.7 2.04v-1.5l4.2-1.5c.47-.17.54-.41.16-.54a3 3 0 0 0-1.56.08l-2.8.99v-1.57l.16-.05s.81-.29 1.95-.42a8 8 0 0 1 3.61.43c1.23.4 1.37.97 1.06 1.36M9.63 8.88V5.02c0-.45-.09-.87-.51-.98-.33-.11-.53.2-.53.65v9.66l-2.6-.83V2c1.1.2 2.72.7 3.58.99 2.21.75 2.96 1.7 2.96 3.82 0 2.07-1.28 2.86-2.9 2.07M1.2 12.51c-1.26-.36-1.47-1.1-.9-1.53.54-.39 1.44-.69 1.44-.69l3.74-1.33v1.52l-2.7.96c-.47.17-.54.41-.15.54a3 3 0 0 0 1.56-.08l1.29-.47v1.36l-.26.04a8.5 8.5 0 0 1-4.02-.32"/></svg>