<svg xmlns="http://www.w3.org/2000/svg" viewBox="0 0 16 16"><path d="M2.5 0c-.17 0-.33.02-.49.05l.2.98A1.51 1.51 0 0 1 2.5 1h.46V0H2.5zm2.3 0h-.93v1h.92V0zm1.82 0h-.91v1h.92V0zm1.84 0h-.92v1h.92V0zm1.83 0h-.91v1h.91V0zm1.84 0h-.92v1h.91V0zm1.37 0h-.46v1h.46l.3.03.19-.98A2.51 2.51 0 0 0 13.5 0zm2.08 1.11a2.51 2.51 0 0 0-.7-.69l-.55.83c.17.11.3.25.42.42l.83-.56zM1.1.42a2.51 2.51 0 0 0-.69.7l.83.55c.11-.17.25-.3.42-.42L1.1.42zM16 2.5c0-.17-.02-.33-.05-.49l-.98.2c.02.1.03.19.03.29v.46h1V2.5zM.05 2.01A2.51 2.51 0 0 0 0 2.5v.46h1V2.5l.03-.3-.98-.19zM0 3.88v.91h1v-.92H0zm16 .91v-.92h-1v.92h1zM0 5.71v.92h1V5.7H0zm16 .92V5.7h-1v.92h1zM0 7.54v.92h1v-.92H0zm15 .92h1v-.92h-1v.92zM0 9.37v.92h1v-.91H0zm16 .92v-.91h-1v.91h1zm-16 .92v.91h1v-.91H0zm16 .91v-.91h-1v.91h1zm-16 .92v.46c0 .17.02.33.05.49l.98-.2A1.51 1.51 0 0 1 1 13.5v-.46H0zm16 .46v-.46h-1v.46l-.03.3.98.19c.03-.16.05-.32.05-.49zM.42 14.89c.18.27.42.5.7.69l.55-.83a1.51 1.51 0 0 1-.42-.42l-.83.56zm14.47.69c.27-.18.5-.42.69-.7l-.83-.55c-.11.17-.25.3-.42.42l.56.83zm-12.88.37c.16.03.32.05.49.05h.46v-1H2.5l-.3-.03-.19.98zM13.5 16c.17 0 .33-.02.49-.05l-.2-.98a1.51 1.51 0 0 1-.29.03h-.46v1h.46zm-9.63 0h.92v-1h-.92v1zm1.84 0h.92v-1H5.7v1zm1.83-1v1h.92v-1h-.92zm1.83 1h.92v-1h-.91v1zm1.84 0h.91v-1h-.91v1zM8.5 4.5a.5.5 0 0 0-1 0v3h-3a.5.5 0 0 0 0 1h3v3a.5.5 0 0 0 1 0v-3h3a.5.5 0 0 0 0-1h-3v-3z"/></svg>