<svg xmlns="http://www.w3.org/2000/svg" viewBox="0 0 16 16"><path d="M8 0c-.18 0-.35 0-.52.02l.06 1a7.12 7.12 0 0 1 .92 0l.06-1A8.11 8.11 0 0 0 8 0zM6.44.15c-.35.07-.68.16-1.01.27l.32.95c.29-.1.58-.18.88-.24L6.44.15zm4.13.27a7.95 7.95 0 0 0-1-.27l-.2.98c.3.06.6.14.88.24l.32-.95zm1.87.93a8 8 0 0 0-.9-.53l-.44.9c.27.14.54.29.79.46l.55-.83zM4.46.82c-.31.16-.62.33-.9.53l.55.83a7.07 7.07 0 0 1 .8-.46l-.45-.9zM2.73 2c-.27.22-.51.47-.74.73l.75.66c.2-.23.41-.44.64-.64l-.65-.76zm11.29.73a8.06 8.06 0 0 0-.75-.74l-.66.76c.23.2.45.41.65.64l.75-.66zm1.16 1.74a7.98 7.98 0 0 0-.53-.9l-.83.55c.17.25.32.52.46.8l.9-.45zm-13.83-.9c-.2.28-.37.59-.53.9l.9.44c.14-.27.29-.54.46-.79l-.83-.56zM.42 5.43a7.95 7.95 0 0 0-.27 1l.98.2c.06-.3.14-.6.24-.88l-.95-.32zm15.43 1.01a7.94 7.94 0 0 0-.27-1.01l-.95.32c.1.29.18.58.24.88l.98-.2zM.02 7.48a8.11 8.11 0 0 0 0 1.04l1-.06a7.12 7.12 0 0 1 0-.92l-1-.06zM16 8a8.1 8.1 0 0 0-.02-.52l-1 .06a7.11 7.11 0 0 1 0 .92l1 .06A8.1 8.1 0 0 0 16 8zM.15 9.56c.07.35.16.68.27 1.01l.95-.32a6.94 6.94 0 0 1-.24-.88l-.98.2zm15.43 1.01c.1-.33.2-.66.27-1l-.98-.2c-.06.3-.14.6-.24.88l.95.32zm-14.76.97a8 8 0 0 0 .53.9l.83-.55a7 7 0 0 1-.46-.8l-.9.45zm13.83.9c.2-.28.37-.59.53-.9l-.9-.44c-.14.27-.29.54-.46.79l.83.55zm-12.67.83c.23.27.48.51.74.74l.66-.75a7.05 7.05 0 0 1-.64-.65l-.76.66zm11.3.74c.26-.23.5-.47.73-.74l-.75-.66c-.2.23-.42.45-.65.65l.66.75zm-1.74 1.17c.31-.16.62-.33.9-.53l-.55-.83a7.07 7.07 0 0 1-.8.46l.45.9zm-7.99-.53c.3.2.6.37.91.53l.44-.9a7 7 0 0 1-.79-.46l-.56.83zm1.88.93c.33.1.66.2 1 .27l.2-.98a6.95 6.95 0 0 1-.88-.24l-.32.95zm4.13.27a7.94 7.94 0 0 0 1.01-.27l-.32-.95a6.95 6.95 0 0 1-.88.24l.2.98zm-2.08.13a8.1 8.1 0 0 0 1.04 0l-.06-1a7.11 7.11 0 0 1-.92 0l-.06 1zM8.5 4.5a.5.5 0 0 0-1 0v3h-3a.5.5 0 0 0 0 1h3v3a.5.5 0 0 0 1 0v-3h3a.5.5 0 0 0 0-1h-3v-3z"/></svg>