<svg xmlns="http://www.w3.org/2000/svg" width="16" height="16" viewBox="0 0 16 16" id="icon"><path d="M3.11 3.65A1.5 1.5 0 0 1 4.61 2H7a.5.5 0 0 1 .5.5v.38c0 .7-.5 1.18-.87 1.47l-.12.12v.02l-.01.01v.01q0 .02.04.06a1 1 0 0 0 .27.19Q7.25 4.98 8 5q.76-.01 1.19-.24a1 1 0 0 0 .27-.2l.04-.05v-.02l-.01-.02-.12-.12C9 4.06 8.5 3.58 8.5 2.88V2.5A.5.5 0 0 1 9 2h2.4a1.5 1.5 0 0 1 1.49 1.65l-.25 2.85h.24q.3 0 .68-.48c.2-.27.52-.52.94-.52.57 0 .95.45 1.15.86.23.45.35 1.03.35 1.64s-.12 1.2-.35 1.64c-.2.41-.58.86-1.15.86a1.2 1.2 0 0 1-.94-.52q-.38-.49-.68-.48h-.24l.25 2.86a1.5 1.5 0 0 1-1.5 1.64H9a.5.5 0 0 1-.5-.5v-.38c0-.7.5-1.18.87-1.47l.12-.12v-.02l.01-.01v-.01l-.04-.06a1 1 0 0 0-.27-.19Q8.75 11.01 8 11c-.75-.01-.91.1-1.19.24a1 1 0 0 0-.27.2l-.04.05v.01l.01.03q.02.05.12.12c.37.29.87.77.87 1.47v.38a.5.5 0 0 1-.5.5H4.6a1.5 1.5 0 0 1-1.49-1.64l.25-2.86h-.24q-.3 0-.68.48a1.2 1.2 0 0 1-.94.52c-.57 0-.95-.45-1.15-.86C.12 9.19 0 8.6 0 8s.12-1.2.35-1.64c.2-.41.58-.86 1.15-.86.42 0 .73.25.94.52q.39.49.68.48h.24z"/></svg>