<svg xmlns="http://www.w3.org/2000/svg" viewBox="0 0 16 16"><path d="M3.11 3.65A1.5 1.5 0 0 1 4.61 2H7a.5.5 0 0 1 .5.5v.38c0 .7-.5 1.18-.87 1.47a.46.46 0 0 0-.12.12.11.11 0 0 0 0 .02l-.01.01v.01l.04.06a.86.86 0 0 0 .27.19C7.09 4.9 7.5 5 8 5s.91-.1 1.19-.24a.86.86 0 0 0 .27-.2.21.21 0 0 0 .04-.06.11.11 0 0 0-.01-.03.46.46 0 0 0-.12-.12C9 4.06 8.5 3.58 8.5 2.88V2.5A.5.5 0 0 1 9 2h2.4a1.5 1.5 0 0 1 1.49 1.65l-.25 2.85h.24c.2 0 .42-.15.68-.48.2-.27.52-.52.94-.52.57 0 .95.45 1.15.86.23.45.35 1.03.35 1.64s-.12 1.2-.35 1.64c-.2.41-.58.86-1.15.86a1.2 1.2 0 0 1-.94-.52c-.26-.33-.48-.48-.68-.48h-.24l.25 2.85a1.5 1.5 0 0 1-1.5 1.65H9a.5.5 0 0 1-.5-.5v-.38c0-.7.5-1.18.87-1.47a.46.46 0 0 0 .12-.12.11.11 0 0 0 0-.02l.01-.01a.21.21 0 0 0-.04-.07.86.86 0 0 0-.27-.19C8.91 11.1 8.5 11 8 11s-.91.1-1.19.24a.86.86 0 0 0-.27.2.21.21 0 0 0-.04.06.11.11 0 0 0 .01.03c.02.03.05.07.12.12.37.29.87.77.87 1.47v.38a.5.5 0 0 1-.5.5H4.6a1.5 1.5 0 0 1-1.49-1.64l.25-2.86h-.24c-.2 0-.42.15-.68.48a1.2 1.2 0 0 1-.94.52c-.57 0-.95-.45-1.15-.86C.12 9.19 0 8.6 0 8s.12-1.2.35-1.64c.2-.41.58-.86 1.15-.86.41 0 .73.25.94.52.26.33.48.48.68.48h.24L3.1 3.65zM4.61 3a.5.5 0 0 0-.5.55l.29 3.4a.5.5 0 0 1-.5.55h-.78c-.7 0-1.18-.5-1.47-.87a.46.46 0 0 0-.12-.12.11.11 0 0 0-.02 0L1.5 6.5a.21.21 0 0 0-.07.04.86.86 0 0 0-.19.27C1.1 7.09 1 7.5 1 8s.1.91.24 1.19c.07.14.14.23.2.27a.21.21 0 0 0 .06.04.11.11 0 0 0 .03-.01.46.46 0 0 0 .12-.12c.29-.37.77-.87 1.47-.87h.78a.5.5 0 0 1 .5.54l-.3 3.41a.5.5 0 0 0 .5.55h1.88c-.05-.17-.2-.35-.46-.56a1.2 1.2 0 0 1-.52-.94c0-.57.45-.95.86-1.15C6.81 10.12 7.4 10 8 10s1.2.12 1.64.35c.41.2.86.58.86 1.15 0 .41-.25.73-.52.94-.27.2-.41.4-.46.56h1.88a.5.5 0 0 0 .5-.55l-.3-3.4a.5.5 0 0 1 .5-.55h.78c.7 0 1.18.5 1.47.87.05.07.1.1.12.12h.02a.02.02 0 0 0 .01.01.21.21 0 0 0 .07-.04.86.86 0 0 0 .19-.27c.14-.28.24-.7.24-1.19 0-.5-.1-.91-.24-1.19a.86.86 0 0 0-.2-.27.21.21 0 0 0-.06-.04.11.11 0 0 0-.03.01.46.46 0 0 0-.12.12c-.29.37-.77.87-1.47.87h-.78a.5.5 0 0 1-.5-.54l.3-3.41a.5.5 0 0 0-.5-.55H9.52c.04.17.2.35.46.56.27.2.52.53.52.94 0 .57-.45.95-.86 1.15C9.19 5.88 8.6 6 8 6s-1.2-.12-1.64-.35c-.41-.2-.86-.58-.86-1.15 0-.41.25-.73.52-.94.27-.2.41-.4.46-.56H4.6z"/></svg>