<svg xmlns="http://www.w3.org/2000/svg" viewBox="0 0 16 16"><path d="M3.11 3.65A1.5 1.5 0 0 1 4.61 2H7a.5.5 0 0 1 .5.5v.38c0 .7-.5 1.18-.87 1.47a.46.46 0 0 0-.12.12.11.11 0 0 0 0 .02l-.01.01v.01l.04.06a.86.86 0 0 0 .27.19C7.09 4.9 7.5 5 8 5s.91-.1 1.19-.24a.86.86 0 0 0 .27-.2.21.21 0 0 0 .04-.05v-.02a.11.11 0 0 0-.01-.02.46.46 0 0 0-.12-.12C9 4.06 8.5 3.58 8.5 2.88V2.5A.5.5 0 0 1 9 2h2.4a1.5 1.5 0 0 1 1.49 1.65l-.25 2.85h.24c.2 0 .42-.15.68-.48.2-.27.52-.52.94-.52.57 0 .95.45 1.15.86.23.45.35 1.03.35 1.64s-.12 1.2-.35 1.64c-.2.41-.58.86-1.15.86a1.2 1.2 0 0 1-.94-.52c-.26-.33-.48-.48-.68-.48h-.24l.25 2.85a1.5 1.5 0 0 1-1.5 1.65H9a.5.5 0 0 1-.5-.5v-.38c0-.7.5-1.18.87-1.47a.46.46 0 0 0 .12-.12.11.11 0 0 0 0-.02l.01-.01v-.01a.21.21 0 0 0-.04-.06.86.86 0 0 0-.27-.19C8.91 11.1 8.5 11 8 11s-.91.1-1.19.24a.86.86 0 0 0-.27.2.21.21 0 0 0-.04.05v.01a.11.11 0 0 0 .01.03c.02.03.05.07.12.12.37.29.87.77.87 1.47v.38a.5.5 0 0 1-.5.5H4.6a1.5 1.5 0 0 1-1.49-1.64l.25-2.86h-.24c-.2 0-.42.15-.68.48a1.2 1.2 0 0 1-.94.52c-.57 0-.95-.45-1.15-.86C.12 9.19 0 8.6 0 8s.12-1.2.35-1.64c.2-.41.58-.86 1.15-.86.41 0 .73.25.94.52.26.33.48.48.68.48h.24L3.1 3.65z"/></svg>