<svg xmlns="http://www.w3.org/2000/svg" viewBox="0 0 16 16"><path d="M2 0a2 2 0 0 0-2 2v12a2 2 0 0 0 2 2h12a2 2 0 0 0 2-2V2a2 2 0 0 0-2-2H2zm3.5 6.03a.24.24 0 0 1-.24-.24C5.35 4.09 6.74 3.5 8 3.5c1.4 0 2.67.73 2.67 2.24 0 1.08-.64 1.6-1.25 2.06-.73.56-1 .77-1 1.48v.1a.25.25 0 0 1-.26.26h-.8a.25.25 0 0 1-.26-.25v-.21c-.04-.93.5-1.5 1.17-2 .59-.44.96-.73.96-1.36 0-.83-.63-1.17-1.31-1.17-.8 0-1.25.48-1.34 1.13-.02.14-.13.25-.27.25H5.5zm2.32 6.45c-.58 0-1-.4-1-.93 0-.55.42-.94 1-.94.61 0 1.03.39 1.03.94 0 .53-.42.93-1.03.93z"/></svg>