<svg xmlns="http://www.w3.org/2000/svg" width="16" height="16" viewBox="0 0 16 16"><path d="M6.95.44a1.5 1.5 0 0 1 2.1 0l6.52 6.51c.58.58.58 1.52 0 2.1l-6.52 6.51c-.58.58-1.52.58-2.1 0L.44 9.06a1.5 1.5 0 0 1 0-2.1zm1.4.7a.5.5 0 0 0-.7 0L1.13 7.65a.5.5 0 0 0 0 .7l6.52 6.52a.5.5 0 0 0 .7 0l6.52-6.52a.5.5 0 0 0 0-.7z"/><path d="M5.26 5.79a.24.24 0 0 0 .24.24h.82q.23-.02.27-.25c.09-.65.54-1.13 1.34-1.13.69 0 1.31.34 1.31 1.17 0 .63-.37.92-.96 1.37-.67.49-1.2 1.06-1.17 1.98v.22a.25.25 0 0 0 .25.25h.81a.25.25 0 0 0 .25-.25v-.1c0-.72.28-.93 1.01-1.5.61-.46 1.25-.97 1.25-2.05C10.68 4.23 9.4 3.5 8 3.5c-1.27 0-2.66.59-2.75 2.29m1.55 5.76c0 .53.43.93 1.01.93.61 0 1.03-.4 1.03-.93 0-.55-.42-.94-1.03-.94-.58 0-1 .39-1 .94"/></svg>