<svg xmlns="http://www.w3.org/2000/svg" viewBox="0 0 16 16"><path d="M16 8A8 8 0 1 1 0 8a8 8 0 0 1 16 0zM5.5 6.03h.82c.14 0 .25-.11.27-.25.09-.65.54-1.13 1.34-1.13.69 0 1.31.34 1.31 1.17 0 .63-.37.92-.96 1.37-.67.49-1.2 1.06-1.17 1.99v.21a.25.25 0 0 0 .25.25h.81a.25.25 0 0 0 .25-.25v-.1c0-.72.28-.93 1.01-1.5.61-.46 1.25-.97 1.25-2.05C10.68 4.23 9.4 3.5 8 3.5c-1.27 0-2.66.59-2.75 2.29a.24.24 0 0 0 .24.24zm2.32 6.45c.61 0 1.03-.4 1.03-.93 0-.55-.42-.94-1.03-.94-.58 0-1 .39-1 .94 0 .53.42.93 1 .93z"/></svg>