<svg viewBox="0 0 16 16"><path d="M9.05.43a1.48 1.48 0 0 0-2.1 0L.44 6.95a1.48 1.48 0 0 0 0 2.1l6.51 6.51c.58.58 1.52.58 2.1 0l6.52-6.51c.58-.58.58-1.52 0-2.1L9.05.43zm-3.56 5.6a.24.24 0 0 1-.24-.24c.1-1.7 1.49-2.29 2.76-2.29 1.4 0 2.67.73 2.67 2.24 0 1.08-.64 1.6-1.25 2.06-.73.56-1 .77-1 1.48v.1a.25.25 0 0 1-.26.26h-.8a.25.25 0 0 1-.26-.25v-.21c-.04-.93.5-1.5 1.17-2 .59-.44.96-.73.96-1.36 0-.83-.63-1.17-1.31-1.17-.8 0-1.25.48-1.34 1.13-.02.14-.13.25-.27.25H5.5zm2.33 6.45c-.58 0-1-.4-1-.93 0-.55.42-.94 1-.94.61 0 1.03.39 1.03.94 0 .53-.42.93-1.03.93z"/></svg>