<svg viewBox="0 0 16 16"><path d="M4.54.15A.5.5 0 0 1 4.89 0h6.22a.5.5 0 0 1 .35.15l4.4 4.39a.5.5 0 0 1 .14.35v6.22a.5.5 0 0 1-.15.35l-4.39 4.4a.5.5 0 0 1-.35.14H4.89a.5.5 0 0 1-.35-.15l-4.4-4.39a.5.5 0 0 1-.14-.35V4.89a.5.5 0 0 1 .15-.35L4.54.14zM5.1 1 1 5.1v5.8L5.1 15h5.8l4.1-4.1V5.1L10.9 1H5.1z"/><path d="M5.25 5.79a.24.24 0 0 0 .25.24h.82c.14 0 .25-.11.27-.25.09-.65.54-1.13 1.34-1.13.69 0 1.31.34 1.31 1.17 0 .63-.37.92-.96 1.37-.67.49-1.2 1.06-1.17 1.98v.22a.25.25 0 0 0 .25.25h.81a.25.25 0 0 0 .25-.25v-.1c0-.72.28-.93 1.01-1.5.61-.46 1.25-.97 1.25-2.05C10.68 4.23 9.4 3.5 8 3.5c-1.27 0-2.66.59-2.75 2.29zm1.56 5.76c0 .53.43.93 1.01.93.61 0 1.03-.4 1.03-.93 0-.55-.42-.94-1.03-.94-.58 0-1 .39-1 .94z"/></svg>