<svg xmlns="http://www.w3.org/2000/svg" viewBox="0 0 16 16"><path d="M8.73 12.48c-.55-1.1-1.2-2.2-2.47-2.2-.24 0-.49.04-.71.15l-.43-.87c.53-.45 1.37-.8 2.46-.8 1.7 0 2.57.81 3.26 1.85.41-.89.6-2.09.6-3.58 0-3.72-1.16-5.64-3.88-5.64-2.68 0-3.83 1.92-3.83 5.64 0 3.7 1.15 5.6 3.84 5.6.42 0 .8-.05 1.16-.15Zm.67 1.3a7.13 7.13 0 0 1-1.84.24A7.05 7.05 0 0 1 .5 7.03C.5 2.85 4 0 7.56 0a7.03 7.03 0 0 1 7.1 7.03 6.8 6.8 0 0 1-2.68 5.46c.51.77 1.04 1.28 1.77 1.28.8 0 1.13-.62 1.18-1.1h1.04c.06.64-.26 3.33-3.17 3.33-1.77 0-2.7-1.02-3.4-2.22Z"/></svg>