<svg xmlns="http://www.w3.org/2000/svg" viewBox="0 0 16 16"><path d="M12 12a1 1 0 0 0 1-1V8.56a1 1 0 0 0-1-1h-1.39a3.97 3.97 0 0 1 .37-2.05c.15-.29.33-.52.56-.68.23-.19.52-.28.87-.28V3a3 3 0 0 0-1.52.37 3.32 3.32 0 0 0-1.08 1 4.92 4.92 0 0 0-.62 1.45A7.71 7.71 0 0 0 9 7.56V11a1 1 0 0 0 1 1h2Zm-6 0a1 1 0 0 0 1-1V8.56a1 1 0 0 0-1-1H4.61a3.97 3.97 0 0 1 .37-2.05c.15-.29.33-.52.56-.68.23-.19.52-.28.87-.28V3a3 3 0 0 0-1.52.37 3.32 3.32 0 0 0-1.08 1 4.92 4.92 0 0 0-.62 1.45A7.71 7.71 0 0 0 3 7.56V11a1 1 0 0 0 1 1h2Z"/></svg>