<svg xmlns="http://www.w3.org/2000/svg" viewBox="0 0 16 16"><path d="M1.92.5a.5.5 0 0 1 .43.15l.65.64.65-.64a.5.5 0 0 1 .7 0l.65.64.65-.64a.5.5 0 0 1 .7 0l.65.64.65-.64a.5.5 0 0 1 .7 0l.65.64.65-.64a.5.5 0 0 1 .7 0l.65.64.65-.64a.5.5 0 0 1 .7 0l.65.64.65-.64a.5.5 0 0 1 .8.13l.5 1A.5.5 0 0 1 15 2v12a.5.5 0 0 1-.05.22l-.5 1a.5.5 0 0 1-.8.13l-.65-.64-.65.64a.5.5 0 0 1-.7 0l-.65-.64-.65.64a.5.5 0 0 1-.7 0L9 14.71l-.65.64a.5.5 0 0 1-.7 0L7 14.71l-.65.64a.5.5 0 0 1-.7 0L5 14.71l-.65.64a.5.5 0 0 1-.7 0L3 14.71l-.65.64a.5.5 0 0 1-.8-.13l-.5-1A.5.5 0 0 1 1 14V2a.5.5 0 0 1 .05-.22l.5-1A.5.5 0 0 1 1.92.5zm.22 1.34L2 2.12v11.76l.14.28.5-.51a.5.5 0 0 1 .71 0l.65.64.65-.64a.5.5 0 0 1 .7 0l.65.64.65-.64a.5.5 0 0 1 .7 0l.65.64.65-.64a.5.5 0 0 1 .7 0l.65.64.65-.64a.5.5 0 0 1 .7 0l.65.64.65-.64a.5.5 0 0 1 .7 0l.51.5.14-.27V2.12l-.14-.28-.5.51a.5.5 0 0 1-.71 0L12 1.71l-.65.64a.5.5 0 0 1-.7 0L10 1.71l-.65.64a.5.5 0 0 1-.7 0L8 1.71l-.65.64a.5.5 0 0 1-.7 0L6 1.71l-.65.64a.5.5 0 0 1-.7 0L4 1.71l-.65.64a.5.5 0 0 1-.7 0l-.51-.5z"/><path d="M3 4.5a.5.5 0 0 1 .5-.5h6a.5.5 0 1 1 0 1h-6a.5.5 0 0 1-.5-.5zm0 2a.5.5 0 0 1 .5-.5h6a.5.5 0 1 1 0 1h-6a.5.5 0 0 1-.5-.5zm0 2a.5.5 0 0 1 .5-.5h6a.5.5 0 1 1 0 1h-6a.5.5 0 0 1-.5-.5zm0 2a.5.5 0 0 1 .5-.5h6a.5.5 0 0 1 0 1h-6a.5.5 0 0 1-.5-.5zm8-6a.5.5 0 0 1 .5-.5h1a.5.5 0 0 1 0 1h-1a.5.5 0 0 1-.5-.5zm0 2a.5.5 0 0 1 .5-.5h1a.5.5 0 0 1 0 1h-1a.5.5 0 0 1-.5-.5zm0 2a.5.5 0 0 1 .5-.5h1a.5.5 0 0 1 0 1h-1a.5.5 0 0 1-.5-.5zm0 2a.5.5 0 0 1 .5-.5h1a.5.5 0 0 1 0 1h-1a.5.5 0 0 1-.5-.5z"/></svg>