<svg xmlns="http://www.w3.org/2000/svg" width="16" height="16" viewBox="0 0 16 16" id="icon"><path d="M3 4.5a.5.5 0 0 1 .5-.5h6a.5.5 0 1 1 0 1h-6a.5.5 0 0 1-.5-.5m0 2a.5.5 0 0 1 .5-.5h6a.5.5 0 1 1 0 1h-6a.5.5 0 0 1-.5-.5m0 2a.5.5 0 0 1 .5-.5h6a.5.5 0 1 1 0 1h-6a.5.5 0 0 1-.5-.5m0 2a.5.5 0 0 1 .5-.5h6a.5.5 0 0 1 0 1h-6a.5.5 0 0 1-.5-.5m0 2a.5.5 0 0 1 .5-.5h6a.5.5 0 0 1 0 1h-6a.5.5 0 0 1-.5-.5M11.5 4a.5.5 0 0 0 0 1h1a.5.5 0 0 0 0-1zm0 2a.5.5 0 0 0 0 1h1a.5.5 0 0 0 0-1zm0 2a.5.5 0 0 0 0 1h1a.5.5 0 0 0 0-1zm0 2a.5.5 0 0 0 0 1h1a.5.5 0 0 0 0-1zm0 2a.5.5 0 0 0 0 1h1a.5.5 0 0 0 0-1z"/><path d="M2.35.65a.5.5 0 0 0-.8.13l-.5 1L1 2v13H.5a.5.5 0 0 0 0 1h15a.5.5 0 0 0 0-1H15V2l-.05-.22-.5-1a.5.5 0 0 0-.8-.13l-.65.64-.65-.64a.5.5 0 0 0-.7 0l-.65.64-.65-.64a.5.5 0 0 0-.7 0L9 1.29 8.35.65a.5.5 0 0 0-.7 0L7 1.29 6.35.65a.5.5 0 0 0-.7 0L5 1.29 4.35.65a.5.5 0 0 0-.7 0L3 1.29zm-.21 1.2.5.5a.5.5 0 0 0 .71 0L4 1.71l.65.64a.5.5 0 0 0 .7 0L6 1.71l.65.64a.5.5 0 0 0 .7 0L8 1.71l.65.64a.5.5 0 0 0 .7 0l.65-.64.65.64a.5.5 0 0 0 .7 0l.65-.64.65.64a.5.5 0 0 0 .7 0l.51-.5.14.27V15H2V2.12z"/></svg>