<svg xmlns="http://www.w3.org/2000/svg" width="16" height="16" viewBox="0 0 16 16" id="icon"><path d="M9.3 1.26a1.5 1.5 0 0 0-2.6 0L5 4.24a.5.5 0 0 0 .86.5l1.7-2.99a.5.5 0 0 1 .87 0l2.54 4.45-1.25-.34a.5.5 0 1 0-.26.96l2.41.65a.5.5 0 0 0 .62-.35l.64-2.42a.5.5 0 1 0-.96-.25l-.34 1.24zM2.97 7.77l-1.25.34a.5.5 0 1 1-.26-.97l2.41-.64a.5.5 0 0 1 .62.35l.64 2.41a.5.5 0 0 1-.96.26l-.34-1.24-2.54 4.46a.5.5 0 0 0 .43.74H5a.5.5 0 0 1 0 1H1.72a1.5 1.5 0 0 1-1.3-2.24zm10.9 1.47a.5.5 0 1 0-.87.5l1.71 3a.5.5 0 0 1-.43.74H8.7l.64-.64a.5.5 0 1 0-.7-.7l-1.5 1.5a.5.5 0 0 0 0 .7l1.5 1.5a.5.5 0 1 0 .7-.7l-.64-.66h5.57a1.5 1.5 0 0 0 1.3-2.24z"/></svg>