<svg viewBox="0 0 16 16"><path d="M6.17 8a.83.83 0 0 0-.83.83c0 .46.37.84.83.83a.83.83 0 0 0 0-1.66zM8 11.65c.32 0 1.4-.04 1.98-.61a.23.23 0 0 0 0-.31.21.21 0 0 0-.31 0c-.35.36-1.13.49-1.67.49s-1.3-.13-1.67-.49a.21.21 0 0 0-.3 0 .21.21 0 0 0 0 .3c.56.57 1.65.62 1.97.62zm1-2.81a.83.83 0 0 0 1.65 0 .83.83 0 0 0-1.66 0z"/><path d="M16 8A8 8 0 1 1 0 8a8 8 0 0 1 16 0zm-3.83-1.17c-.31 0-.6.13-.81.33a5.8 5.8 0 0 0-3.12-1l.53-2.5 1.74.38a.83.83 0 1 0 .83-.87.83.83 0 0 0-.74.47l-1.94-.41a.2.2 0 0 0-.15.03.19.19 0 0 0-.09.13l-.6 2.79a5.79 5.79 0 0 0-3.16.99c-.21-.2-.5-.33-.81-.33a1.16 1.16 0 0 0-.48 2.23c-.02.11-.03.23-.03.35 0 1.8 2.1 3.26 4.67 3.26 2.58 0 4.67-1.45 4.67-3.26 0-.11-.01-.24-.03-.35a1.17 1.17 0 0 0-.48-2.24z"/></svg>