<svg viewBox="0 0 16 16"><path d="M8.1 5.01a.14.14 0 0 1 .2.14V6.3a.5.5 0 0 0 .5.5c.67 0 2.01 0 3.3.82.98.63 1.99 1.76 2.6 3.88a7.46 7.46 0 0 0-3.21-1.8 8.74 8.74 0 0 0-1.92-.3 7.4 7.4 0 0 0-.8 0h-.01l.04.5-.05-.5a.5.5 0 0 0-.45.5v1.15c0 .11-.11.18-.2.14l-4-2.94a.5.5 0 0 0-.04-.02.15.15 0 0 1 0-.26.5.5 0 0 0 .04-.02L8.1 5zm1.2 5.38h.22c.44.02 1.04.09 1.7.27a6.3 6.3 0 0 1 3.94 3.08.5.5 0 0 0 .94-.3c-.47-3.71-1.89-5.66-3.46-6.66A6.6 6.6 0 0 0 9.3 5.8v-.66a1.14 1.14 0 0 0-1.77-.96l-4 2.94a1.15 1.15 0 0 0 0 1.94l4 2.94a1.14 1.14 0 0 0 1.77-.96v-.66z"/><path d="M5.23 4.3a.5.5 0 0 0-.7-.11L.54 7.13a1.15 1.15 0 0 0 0 1.94l4 2.94a.5.5 0 1 0 .59-.8L1.1 8.25a.5.5 0 0 0-.04-.02.15.15 0 0 1 0-.26.5.5 0 0 0 .04-.02l4.02-2.96a.5.5 0 0 0 .1-.7z"/></svg>