<svg xmlns="http://www.w3.org/2000/svg" viewBox="0 0 16 16"><path d="M6 12.5a.5.5 0 0 1 .5-.5h3a.5.5 0 0 1 0 1h-3a.5.5 0 0 1-.5-.5ZM3 8.06c0-1.3 1.24-2.3 2.53-2.17a26.58 26.58 0 0 0 4.94 0c1.3-.13 2.53.87 2.53 2.17v1.16a.93.93 0 0 1-.77.93 25.23 25.23 0 0 1-8.47 0A.93.93 0 0 1 3 9.22V8.06Zm4.54-.83a.25.25 0 0 0-.22.07l-.92.9a24.77 24.77 0 0 1-1.87-.18.25.25 0 0 0-.06.5c.55.07 1.23.14 2.02.19a.25.25 0 0 0 .19-.07l.75-.74.85 1.71a.25.25 0 0 0 .4.06l.93-.97a25.29 25.29 0 0 0 1.92-.19.25.25 0 0 0-.06-.49c-.54.07-1.21.14-1.98.19a.25.25 0 0 0-.17.07l-.75.79-.85-1.7a.25.25 0 0 0-.18-.14Z"/><path d="M8.5 1.87a1 1 0 1 0-1 0V3h-2A4.5 4.5 0 0 0 1 7.5V8a1 1 0 0 0-1 1v2a1 1 0 0 0 1 1v1a2 2 0 0 0 2 2h10a2 2 0 0 0 2-2v-1a1 1 0 0 0 1-1V9a1 1 0 0 0-1-1v-.5A4.5 4.5 0 0 0 10.5 3h-2V1.87ZM14 7.5V13a1 1 0 0 1-1 1H3a1 1 0 0 1-1-1V7.5A3.5 3.5 0 0 1 5.5 4h5A3.5 3.5 0 0 1 14 7.5Z"/></svg>