<svg xmlns="http://www.w3.org/2000/svg" width="16" height="16" viewBox="0 0 16 16" id="icon"><path d="M9.75 6.2c.6.6 1.73.43 2.53-.37s.96-1.93.36-2.53-1.73-.44-2.53.36-.96 1.93-.36 2.53"/><path d="M15.81 3.31c-.36 1.54-1.33 3.63-3.64 6.22l-.24 2.4a2.6 2.6 0 0 1-.73 1.53l-2.38 2.39a.51.51 0 0 1-.87-.43l.27-1.9q.06-.42-.13-.96l-.25-.66-.08-.2a4.7 4.7 0 0 1-2.2-1.27 5 5 0 0 1-1.27-2.2l-.2-.08-.66-.25a2 2 0 0 0-.95-.13l-1.9.27a.51.51 0 0 1-.43-.87l2.38-2.39c.41-.4.95-.67 1.53-.73l2.4-.24C9.01 1.55 11.1.58 12.62.21a6 6 0 0 1 2.65-.1l.16.05c.19.06.28.13.35.3l.03.07a4 4 0 0 1 .16.72c.05.48.05 1.18-.16 2.06m-4.83 7.48.04-.04-.1 1.08a1.5 1.5 0 0 1-.44.91l-1.3 1.3.05-.38c.07-.5-.03-1-.17-1.42l-.16-.45a3.3 3.3 0 0 0 2.08-1M5.21 5a3.3 3.3 0 0 0-1 2.09l-.46-.16a3 3 0 0 0-1.41-.18l-.38.06 1.3-1.3q.38-.38.9-.44l1.09-.1zm9.4-3.96a5 5 0 0 0-1.74.16c-1.56.38-3.92 1.5-6.94 4.52a2.3 2.3 0 0 0-.69 2.05c.1.68.48 1.37 1.05 1.93a3.6 3.6 0 0 0 1.92 1.05 2.3 2.3 0 0 0 2.05-.69c3.08-3.08 4.2-5.44 4.56-6.98a5 5 0 0 0 .13-1.72l-.04-.28z"/><path d="M7 12.14a8 8 0 0 1-1.8-1.35 8 8 0 0 1-1.4-1.93c-1.1 1-1.97 5.05-1.84 5.18s3.93-.9 5.05-1.9"/></svg>