<svg xmlns="http://www.w3.org/2000/svg" width="16" height="16" viewBox="0 0 16 16" id="icon"><path d="M12.17 9.53c2.3-2.6 3.28-4.68 3.64-6.22.21-.89.21-1.58.16-2.06a4 4 0 0 0-.1-.57l-.08-.23c-.08-.16-.17-.23-.36-.3l-.16-.04a4 4 0 0 0-.57-.09 6 6 0 0 0-2.08.19C11.1.58 9.01 1.55 6.46 3.8l-2.4.24a2.6 2.6 0 0 0-1.53.73L.15 7.17a.51.51 0 0 0 .43.87l1.9-.27q.42-.06.95.13.35.11.66.25l.2.08c.2.82.66 1.58 1.28 2.2a5 5 0 0 0 2.19 1.27l.08.2.25.66q.18.54.13.96l-.27 1.9a.51.51 0 0 0 .87.43l2.38-2.39c.4-.4.67-.95.73-1.52zm.11-3.7c-.8.8-1.93.96-2.53.36s-.43-1.73.36-2.53c.8-.8 1.93-.96 2.53-.36s.44 1.73-.36 2.53"/><path d="M5.2 10.79A8 8 0 0 0 7 12.14c-1.1 1-4.92 2.03-5.04 1.9s.73-4.19 1.83-5.18q.54 1.05 1.42 1.93"/></svg>