<svg viewBox="0 0 16 16"><path d="M8 8c.83 0 1.5-.9 1.5-2S8.83 4 8 4s-1.5.9-1.5 2S7.17 8 8 8Z"/><path d="M11.95 8.81c-.2-3.39-.96-5.5-1.77-6.82A5.92 5.92 0 0 0 8.86.45a3.5 3.5 0 0 0-.47-.31 2.19 2.19 0 0 0-.14-.08A.55.55 0 0 0 8 0a.55.55 0 0 0-.27.07 2.31 2.31 0 0 0-.14.08 3.67 3.67 0 0 0-.46.33c-.37.31-.84.8-1.3 1.57-.81 1.33-1.58 3.44-1.78 6.76l-1.5 1.83A2.5 2.5 0 0 0 2 12.2v3.3a.5.5 0 0 0 .9.3l1.13-1.5c.16-.22.42-.4.75-.57.21-.1.41-.2.62-.28l.2-.08c.7.42 1.55.63 2.4.63.85 0 1.7-.2 2.4-.64l.2.09.62.28c.34.17.59.35.76.57l1.12 1.5a.5.5 0 0 0 .9-.3v-3.3a2.5 2.5 0 0 0-.55-1.56l-1.5-1.83Zm.05 1.63v.06c0 .87-.28 1.58-.75 2.14.15.06.3.13.42.2.4.2.8.46 1.1.86l.23.3v-1.8a1.5 1.5 0 0 0-.33-.93l-.67-.82Zm-7.25 2.2A3.25 3.25 0 0 1 4 10.5v-.05l-.67.82a1.5 1.5 0 0 0-.33.93V14l.23-.3a3 3 0 0 1 1.1-.86c.13-.07.27-.14.42-.2ZM8.01 1.07l.23.17c.28.22.68.62 1.09 1.28.8 1.32 1.67 3.72 1.67 7.98 0 .86-.37 1.48-.94 1.9-.54.39-1.28.6-2.06.6s-1.52-.21-2.06-.6A2.23 2.23 0 0 1 5 10.5c0-4.18.86-6.59 1.68-7.93A5.27 5.27 0 0 1 8 1.07Z"/><path d="M9.48 14.36a7.81 7.81 0 0 1-2.96 0L7.6 15.8a.5.5 0 0 0 .8 0l1.08-1.44Z"/></svg>