<svg viewBox="0 0 16 16"><path d="M12.17 9.53c2.3-2.6 3.28-4.68 3.64-6.22.21-.89.21-1.58.16-2.06a3.58 3.58 0 0 0-.1-.57 2.22 2.22 0 0 0-.08-.23c-.08-.16-.17-.23-.36-.3a2.35 2.35 0 0 0-.16-.04 3.8 3.8 0 0 0-.57-.09 6.36 6.36 0 0 0-2.08.19C11.1.58 9.01 1.55 6.46 3.8l-2.4.24a2.55 2.55 0 0 0-1.53.73L.15 7.17a.51.51 0 0 0 .43.87l1.9-.27c.28-.04.6.01.95.13.24.07.44.16.66.25l.2.08c.2.82.66 1.58 1.28 2.2a4.73 4.73 0 0 0 2.19 1.27l.08.2.25.66c.12.36.17.68.13.96l-.27 1.9a.51.51 0 0 0 .87.43l2.38-2.39c.4-.4.67-.95.73-1.52l.24-2.41Zm.11-3.7c-.8.8-1.93.96-2.53.36-.6-.6-.43-1.73.36-2.53.8-.8 1.93-.96 2.53-.36.6.6.44 1.73-.36 2.53Z"/><path d="M5.2 10.79A7.63 7.63 0 0 0 7 12.14c-1.1 1-4.92 2.03-5.04 1.9-.13-.12.73-4.19 1.83-5.18.35.7.84 1.35 1.42 1.93Z"/></svg>