<svg viewBox="0 0 16 16"><path d="M10.18 2c.8 1.3 1.58 3.42 1.77 6.81l1.5 1.83A2.5 2.5 0 0 1 14 12.2v3.3a.5.5 0 0 1-.9.3l-1.13-1.5a2.1 2.1 0 0 0-.75-.57c-.21-.1-.41-.2-.62-.28l-.2-.08A4.7 4.7 0 0 1 8 14c-.85 0-1.7-.2-2.4-.64a9.7 9.7 0 0 1-.2.09l-.62.28a2.1 2.1 0 0 0-.76.57L2.9 15.8a.5.5 0 0 1-.9-.3v-3.3a2.5 2.5 0 0 1 .55-1.56l1.5-1.83c.2-3.32.97-5.43 1.77-6.76C6.3 1.3 6.76.8 7.13.48a3.67 3.67 0 0 1 .6-.4A.55.55 0 0 1 8 0c.1 0 .17.03.25.06l.14.08c.12.07.28.17.47.31.37.3.85.78 1.31 1.54ZM9.5 6c0-1.1-.67-2-1.5-2s-1.5.9-1.5 2S7.17 8 8 8s1.5-.9 1.5-2Z"/><path d="M8 14.5c.5 0 1-.05 1.48-.14L8.4 15.8a.5.5 0 0 1-.8 0l-1.08-1.44c.48.1.98.14 1.48.14Z"/></svg>