<svg xmlns="http://www.w3.org/2000/svg" width="16" height="16" viewBox="0 0 16 16"><path d="M10.18 2c.8 1.3 1.58 3.42 1.77 6.81l1.5 1.83A2.5 2.5 0 0 1 14 12.2v3.3a.5.5 0 0 1-.9.3l-1.12-1.5a2 2 0 0 0-.76-.57q-.31-.16-.62-.28l-.2-.08c-.7.42-1.55.63-2.4.63s-1.7-.2-2.4-.63l-.2.08-.62.28a2 2 0 0 0-.76.57L2.9 15.8a.5.5 0 0 1-.9-.3v-3.3a2.5 2.5 0 0 1 .55-1.56l1.5-1.83c.2-3.32.97-5.43 1.77-6.76Q6.56.95 7.13.48a4 4 0 0 1 .6-.4L8 0q.14 0 .25.06l.14.08q.18.1.47.31c.37.3.85.78 1.31 1.54M9.5 6c0-1.1-.67-2-1.5-2s-1.5.9-1.5 2S7.17 8 8 8s1.5-.9 1.5-2"/><path d="M8 14.5q.75 0 1.48-.14L8.4 15.8a.5.5 0 0 1-.8 0l-1.08-1.44q.73.14 1.48.14"/></svg>