<svg xmlns="http://www.w3.org/2000/svg" width="16" height="16" viewBox="0 0 16 16" id="icon"><path d="M8 8c.83 0 1.5-.9 1.5-2S8.83 4 8 4s-1.5.9-1.5 2S7.17 8 8 8"/><path d="M11.95 8.81c-.2-3.39-.96-5.5-1.77-6.82A6 6 0 0 0 8.86.45L8.39.14 8.25.06 8 0l-.27.07-.13.08a4 4 0 0 0-.46.33c-.37.31-.84.8-1.3 1.57-.81 1.33-1.58 3.44-1.78 6.76l-1.5 1.83A2.5 2.5 0 0 0 2 12.2v3.3a.5.5 0 0 0 .9.3l1.13-1.5q.25-.32.75-.57.31-.16.62-.28l.2-.08c.7.42 1.55.63 2.4.63s1.7-.2 2.4-.63l.2.08.62.28q.5.25.76.57l1.12 1.5a.5.5 0 0 0 .9-.3v-3.3a2.5 2.5 0 0 0-.55-1.56zm.05 1.63v.06c0 .87-.28 1.59-.75 2.14l.43.2c.39.2.8.46 1.1.86l.22.3v-1.8a1.5 1.5 0 0 0-.33-.93zm-7.25 2.2A3.3 3.3 0 0 1 4 10.5v-.05l-.67.82a1.5 1.5 0 0 0-.33.93V14l.23-.3a3 3 0 0 1 1.1-.86zM8.01 1.07q.1.06.23.17c.28.22.68.62 1.09 1.28.8 1.32 1.67 3.72 1.67 7.98 0 .86-.37 1.48-.94 1.9-.54.39-1.28.6-2.06.6s-1.52-.21-2.06-.6A2.2 2.2 0 0 1 5 10.5c0-4.18.86-6.59 1.68-7.93.4-.67.8-1.08 1.1-1.32z"/><path d="M9.48 14.36a8 8 0 0 1-2.96 0L7.6 15.8a.5.5 0 0 0 .8 0z"/></svg>