<svg xmlns="http://www.w3.org/2000/svg" width="16" height="16" viewBox="0 0 16 16"><path d="M5.53 3.03a3.5 3.5 0 0 1 4.95 0 .5.5 0 1 0 .7-.71 4.5 4.5 0 0 0-6.36 0 .5.5 0 0 0 .7.7"/><path d="M6.94 4.44a1.5 1.5 0 0 1 2.12 0 .5.5 0 0 0 .7-.7 2.5 2.5 0 0 0-3.53 0 .5.5 0 0 0 .7.7Z"/><path d="M2.97 2.34a.5.5 0 1 0-.94.32L3.8 8H1.5A1.5 1.5 0 0 0 0 9.5v2A1.5 1.5 0 0 0 1.5 13H2a.5.5 0 0 0 .5.5h2A.5.5 0 0 0 5 13h6a.5.5 0 0 0 .5.5h2a.5.5 0 0 0 .5-.5h.5a1.5 1.5 0 0 0 1.5-1.5v-2A1.5 1.5 0 0 0 14.5 8h-2.3l1.77-5.34a.5.5 0 1 0-.94-.32L11.14 8H4.86zM2.5 11a.5.5 0 1 1 0-1 .5.5 0 0 1 0 1m4.5-.5a.5.5 0 1 1 1 0 .5.5 0 0 1-1 0m2.5.5a.5.5 0 1 1 0-1 .5.5 0 0 1 0 1m1.5-.5a.5.5 0 1 1 1 0 .5.5 0 0 1-1 0m2 0a.5.5 0 1 1 1 0 .5.5 0 0 1-1 0"/><path d="M8.5 5.5a.5.5 0 1 1-1 0 .5.5 0 0 1 1 0"/></svg>