<svg viewBox="0 0 16 16"><path d="M1 1.5A1.5 1.5 0 0 1 2.5 0h12A1.5 1.5 0 0 1 16 1.5v13a1.5 1.5 0 0 1-1.5 1.5h-12A1.5 1.5 0 0 1 1 14.5V13H.5a.5.5 0 0 1 0-1H1V8.5H.5a.5.5 0 0 1 0-1H1V4H.5a.5.5 0 0 1 0-1H1V1.5zM2.5 1a.5.5 0 0 0-.5.5v13a.5.5 0 0 0 .5.5h12a.5.5 0 0 0 .5-.5v-13a.5.5 0 0 0-.5-.5h-12z"/><path d="M13.5 6a.5.5 0 0 1 .5.5v3a.5.5 0 0 1-1 0v-3a.5.5 0 0 1 .5-.5zM4.83 4.46a.5.5 0 0 1 .7 0l1.1 1.1a3 3 0 0 1 3.47 0l1.1-1.1a.5.5 0 1 1 .7.71l-1.1 1.1a3 3 0 0 1 0 3.47l1.1 1.09a.5.5 0 1 1-.7.7l-1.1-1.08a3 3 0 0 1-3.47 0l-1.1 1.09a.5.5 0 1 1-.7-.71l1.09-1.1a3 3 0 0 1 0-3.47l-1.1-1.09a.5.5 0 0 1 0-.7zM6.95 6.6a2 2 0 1 0 2.83 2.8 2 2 0 0 0-2.83-2.8z"/></svg>