<svg xmlns="http://www.w3.org/2000/svg" viewBox="0 0 16 16"><path d="M1 2.5A1.5 1.5 0 0 1 2.5 1h12A1.5 1.5 0 0 1 16 2.5v12a1.5 1.5 0 0 1-1.5 1.5h-12A1.5 1.5 0 0 1 1 14.5V14H.5a.5.5 0 0 1 0-1H1V9H.5a.5.5 0 0 1 0-1H1V4H.5a.5.5 0 0 1 0-1H1v-.5zM2.5 2a.5.5 0 0 0-.5.5v12a.5.5 0 0 0 .5.5h12a.5.5 0 0 0 .5-.5v-12a.5.5 0 0 0-.5-.5h-12z"/><path d="M5.04 8h1.52c.05-.18.12-.36.22-.52L5.7 6.4A3.48 3.48 0 0 0 5.03 8zM6.4 5.7l1.08 1.08c.16-.1.34-.17.52-.22V5.04a3.48 3.48 0 0 0-1.6.66zM9 5.03v1.53c.18.05.36.12.52.22L10.6 5.7A3.48 3.48 0 0 0 9 5.03zm2.3 1.37-1.08 1.08c.1.16.17.34.22.52h1.53a3.48 3.48 0 0 0-.67-1.6zm.66 2.6h-1.52c-.05.18-.12.36-.22.52l1.08 1.08a3.48 3.48 0 0 0 .66-1.6zm-1.36 2.3-1.08-1.08c-.16.1-.34.17-.52.22v1.53a3.48 3.48 0 0 0 1.6-.67zm-2.6.66v-1.52a1.99 1.99 0 0 1-.52-.22L6.4 11.3a3.48 3.48 0 0 0 1.6.66zM5.7 10.6l1.08-1.08A1.99 1.99 0 0 1 6.56 9H5.04c.08.6.31 1.14.66 1.6zM4 8.5a4.5 4.5 0 1 1 9 0 4.5 4.5 0 0 1-9 0zm4.5-1a1 1 0 1 0 0 2 1 1 0 0 0 0-2z"/></svg>