<svg xmlns="http://www.w3.org/2000/svg" width="16" height="16" viewBox="0 0 16 16"><path d="M1 2.5A1.5 1.5 0 0 1 2.5 1h12A1.5 1.5 0 0 1 16 2.5v12a1.5 1.5 0 0 1-1.5 1.5h-12A1.5 1.5 0 0 1 1 14.5V14H.5a.5.5 0 0 1 0-1H1V9H.5a.5.5 0 0 1 0-1H1V4H.5a.5.5 0 0 1 0-1H1zM2.5 2a.5.5 0 0 0-.5.5v12a.5.5 0 0 0 .5.5h12a.5.5 0 0 0 .5-.5v-12a.5.5 0 0 0-.5-.5z"/><path d="M5.04 8h1.52q.08-.28.22-.52L5.7 6.4A3.5 3.5 0 0 0 5.04 8M6.4 5.7l1.08 1.08q.24-.15.52-.22V5.04a3.5 3.5 0 0 0-1.6.66M9 5.04v1.52q.28.08.52.22L10.6 5.7A3.5 3.5 0 0 0 9 5.04m2.3 1.36-1.08 1.08q.15.24.22.52h1.53a3.5 3.5 0 0 0-.67-1.6m.66 2.6h-1.52q-.08.28-.22.52l1.08 1.08a3.5 3.5 0 0 0 .66-1.6m-1.36 2.3-1.08-1.08q-.24.15-.52.22v1.53a3.5 3.5 0 0 0 1.6-.67m-2.6.66v-1.52a2 2 0 0 1-.52-.22L6.4 11.3a3.5 3.5 0 0 0 1.6.66M5.7 10.6l1.08-1.08A2 2 0 0 1 6.56 9H5.04q.13.9.66 1.6M4 8.5a4.5 4.5 0 1 1 9 0 4.5 4.5 0 0 1-9 0m4.5-1a1 1 0 1 0 0 2 1 1 0 0 0 0-2"/></svg>