<svg xmlns="http://www.w3.org/2000/svg" viewBox="0 0 16 16"><path d="M9.78 9.41A2 2 0 1 1 6.95 6.6a2 2 0 0 1 2.83 2.8z"/><path d="M2.5 0A1.5 1.5 0 0 0 1 1.5V3H.5a.5.5 0 0 0 0 1H1v3.5H.5a.5.5 0 0 0 0 1H1V12H.5a.5.5 0 0 0 0 1H1v1.5A1.5 1.5 0 0 0 2.5 16h12a1.5 1.5 0 0 0 1.5-1.5v-13A1.5 1.5 0 0 0 14.5 0h-12zm3.04 4.46 1.09 1.1a3 3 0 0 1 3.47 0l1.1-1.1a.5.5 0 1 1 .7.71l-1.1 1.1a3 3 0 0 1 0 3.47l1.1 1.09a.5.5 0 1 1-.7.7l-1.1-1.08a3 3 0 0 1-3.47 0l-1.1 1.09a.5.5 0 1 1-.7-.71l1.09-1.1a3 3 0 0 1 0-3.47l-1.1-1.09a.5.5 0 1 1 .72-.7zM14 6.5v3a.5.5 0 0 1-1 0v-3a.5.5 0 0 1 1 0z"/></svg>