<svg viewBox="0 0 16 16"><path d="M6.56 8H5.04a3.48 3.48 0 0 1 .66-1.6l1.08 1.08c-.1.16-.17.34-.22.52zm.92-1.22L6.4 5.7A3.48 3.48 0 0 1 8 5.03v1.53c-.18.05-.36.12-.52.22zM9 6.56V5.04a3.48 3.48 0 0 1 1.6.66L9.52 6.78A1.99 1.99 0 0 0 9 6.56zm1.22.92L11.3 6.4c.35.46.58 1 .67 1.6h-1.53a1.99 1.99 0 0 0-.22-.52zM10.44 9h1.52a3.48 3.48 0 0 1-.66 1.6l-1.08-1.08c.1-.16.17-.34.22-.52zm-.92 1.22 1.08 1.08a3.48 3.48 0 0 1-1.6.66v-1.52c.18-.05.36-.12.52-.22zM8 10.44v1.52a3.48 3.48 0 0 1-1.6-.66l1.08-1.08c.16.1.34.17.52.22zm-1.22-.92L5.7 10.6A3.48 3.48 0 0 1 5.03 9h1.53c.05.18.12.36.22.52zM7.5 8.5a1 1 0 1 1 2 0 1 1 0 0 1-2 0z"/><path d="M2.5 1A1.5 1.5 0 0 0 1 2.5V3H.5a.5.5 0 0 0 0 1H1v4H.5a.5.5 0 0 0 0 1H1v4H.5a.5.5 0 0 0 0 1H1v.5A1.5 1.5 0 0 0 2.5 16h12a1.5 1.5 0 0 0 1.5-1.5v-12A1.5 1.5 0 0 0 14.5 1h-12zm6 3a4.5 4.5 0 1 1 0 9 4.5 4.5 0 0 1 0-9z"/></svg>