<svg xmlns="http://www.w3.org/2000/svg" width="16" height="16" viewBox="0 0 16 16"><path d="M6.56 8H5.04a3.5 3.5 0 0 1 .66-1.6l1.08 1.08q-.15.24-.22.52m.92-1.22L6.4 5.7A3.5 3.5 0 0 1 8 5.04v1.52q-.28.08-.52.22M9 6.56V5.04a3.5 3.5 0 0 1 1.6.66L9.52 6.78A2 2 0 0 0 9 6.56m1.22.92L11.3 6.4q.53.7.67 1.6h-1.53a2 2 0 0 0-.22-.52M10.44 9h1.53a3.5 3.5 0 0 1-.67 1.6l-1.08-1.08q.14-.24.22-.52m-.92 1.22 1.08 1.08a3.5 3.5 0 0 1-1.6.66v-1.52q.28-.08.52-.22M8 10.44v1.53a3.5 3.5 0 0 1-1.6-.67l1.08-1.08q.24.14.52.22m-1.22-.92L5.7 10.6A3.5 3.5 0 0 1 5.04 9h1.52q.08.28.22.52M7.5 8.5a1 1 0 1 1 2 0 1 1 0 0 1-2 0"/><path d="M2.5 1A1.5 1.5 0 0 0 1 2.5V3H.5a.5.5 0 0 0 0 1H1v4H.5a.5.5 0 0 0 0 1H1v4H.5a.5.5 0 0 0 0 1H1v.5A1.5 1.5 0 0 0 2.5 16h12a1.5 1.5 0 0 0 1.5-1.5v-12A1.5 1.5 0 0 0 14.5 1zm6 3a4.5 4.5 0 1 1 0 9 4.5 4.5 0 0 1 0-9"/></svg>