<svg xmlns="http://www.w3.org/2000/svg" width="16" height="16" viewBox="0 0 16 16" id="icon"><path d="M6.25 3.5a.75.75 0 0 0-1.5 0v2a.75.75 0 0 0 1.5 0zm2 0a.75.75 0 0 0-1.5 0v2a.75.75 0 0 0 1.5 0zm2 0a.75.75 0 0 0-1.5 0v2a.75.75 0 0 0 1.5 0zm2 0a.75.75 0 0 0-1.5 0v2a.75.75 0 0 0 1.5 0z"/><path fill-rule="evenodd" d="M5.91 0h6.59A1.5 1.5 0 0 1 14 1.5v13a1.5 1.5 0 0 1-1.5 1.5h-9A1.5 1.5 0 0 1 2 14.5V3.91c0-.4.16-.78.44-1.06L4.85.44A1.5 1.5 0 0 1 5.91 0M13 1.5a.5.5 0 0 0-.5-.5H5.91a.5.5 0 0 0-.35.15L3.15 3.56a.5.5 0 0 0-.15.35V14.5a.5.5 0 0 0 .5.5h9a.5.5 0 0 0 .5-.5z"/></svg>