<svg xmlns="http://www.w3.org/2000/svg" width="16" height="16" viewBox="0 0 16 16" id="icon"><path fill-rule="evenodd" d="M15.85.15a.5.5 0 0 1 .11.54l-2.93 7.34A4.5 4.5 0 0 0 8 12.5c0 .5 0 1.5-.77.36l-1.6-2.5L.65 7.18l-.4-.26a.5.5 0 0 1 .08-.88l.45-.18L15.3.03a.5.5 0 0 1 .54.1m-9.21 9.93 7.5-7.5.46-1.17-1.18.47-7.49 7.5.34.2.15.16z"/><path fill-rule="evenodd" d="M12.5 16a3.5 3.5 0 1 0 0-7 3.5 3.5 0 0 0 0 7m.35-5.35a.5.5 0 0 0-.72.01l-1.15 1.25a.5.5 0 1 0 .74.68l.28-.3V14a.5.5 0 0 0 1 0v-1.8l.4.4a.5.5 0 0 0 .7-.7z"/></svg>