<svg xmlns="http://www.w3.org/2000/svg" width="16" height="16" viewBox="0 0 16 16" id="icon"><path fill-rule="evenodd" d="M15.85.15a.5.5 0 0 1 .11.54l-2.8 7a.5.5 0 1 1-.92-.38l1.9-4.73-7.5 7.49L8 12.23a.5.5 0 1 1-.84.54l-1.53-2.4-5-3.19a.75.75 0 0 1 .13-1.33L15.3.04a.5.5 0 0 1 .54.1M5.93 9.36l7.5-7.5L1.58 6.6z"/><path fill-rule="evenodd" d="M12.5 16a3.5 3.5 0 1 0 0-7 3.5 3.5 0 0 0 0 7m.35-5.35a.5.5 0 0 0-.72.01l-1.15 1.25a.5.5 0 1 0 .74.68l.28-.3V14a.5.5 0 0 0 1 0v-1.8l.4.4a.5.5 0 0 0 .7-.7z"/></svg>