<svg xmlns="http://www.w3.org/2000/svg" width="16" height="16" viewBox="0 0 16 16" id="icon"><path d="M1.33 2.67C1.33 1.19 4.32 0 8 0s6.67 1.2 6.67 2.67V4c0 1.47-2.99 2.67-6.67 2.67S1.33 5.47 1.33 4z"/><path d="M1.33 6.33v3C1.33 10.8 4.32 12 8 12s6.67-1.2 6.67-2.67v-3a7 7 0 0 1-1.46.8C11.8 7.67 9.97 8 8 8s-3.8-.32-5.2-.88a7 7 0 0 1-1.47-.79"/><path d="M14.67 11.67a7 7 0 0 1-1.46.79c-1.4.56-3.24.87-5.21.87s-3.81-.31-5.2-.87a7 7 0 0 1-1.47-.8v1.67C1.33 14.81 4.32 16 8 16s6.67-1.2 6.67-2.67z"/></svg>