<svg viewBox="0 0 16 16"><path d="M8 0a14 14 0 0 0-2.93.56c-1.1.3-2.23.66-2.89.87a1.54 1.54 0 0 0-1.04 1.26c-.6 4.48.79 7.8 2.47 10a11.78 11.78 0 0 0 2.51 2.45c.39.27.75.48 1.05.62.28.13.58.24.83.24s.55-.1.83-.24a7.16 7.16 0 0 0 1.05-.63 11.78 11.78 0 0 0 2.51-2.45 13.15 13.15 0 0 0 2.47-9.99 1.54 1.54 0 0 0-1.05-1.26 62.47 62.47 0 0 0-2.88-.87C9.84.26 8.69 0 8 0zM6.85 5.15 8 6.29l1.15-1.14a.5.5 0 1 1 .7.7L8.71 7l1.14 1.15a.5.5 0 0 1-.7.7L8 7.71 6.85 8.85a.5.5 0 1 1-.7-.7L7.29 7 6.15 5.85a.5.5 0 1 1 .7-.7z"/></svg>