<svg viewBox="0 0 16 16"><path fill-rule="evenodd" d="M8 14.93a.61.61 0 0 0 .1-.02l.3-.12c.23-.11.54-.29.89-.53a10.73 10.73 0 0 0 2.28-2.24c1.53-2 2.81-5.03 2.26-9.18a.48.48 0 0 0-.33-.4c-.65-.2-1.75-.55-2.84-.85A13 13 0 0 0 8 1.07v13.86zM5.07.56C6.16.26 7.31 0 8 0s1.84.27 2.93.56c1.1.3 2.23.66 2.89.87a1.54 1.54 0 0 1 1.04 1.26c.6 4.48-.79 7.8-2.47 10a11.78 11.78 0 0 1-2.51 2.45 7.16 7.16 0 0 1-1.05.62c-.28.13-.58.24-.83.24s-.55-.1-.83-.24a7.16 7.16 0 0 1-1.05-.63 11.78 11.78 0 0 1-2.51-2.45A13.15 13.15 0 0 1 1.14 2.7 1.54 1.54 0 0 1 2.2 1.43 62.46 62.46 0 0 1 5.06.56z"/></svg>