<svg xmlns="http://www.w3.org/2000/svg" width="16" height="16" viewBox="0 0 16 16" id="icon"><path fill-rule="evenodd" d="M8 0a14 14 0 0 0-2.93.56c-1.1.3-2.23.66-2.88.87a1.5 1.5 0 0 0-1.05 1.26c-.6 4.48.79 7.8 2.47 10a12 12 0 0 0 2.51 2.45q.6.4 1.05.62c.28.13.58.24.83.24s.55-.1.83-.24a7 7 0 0 0 1.05-.62 12 12 0 0 0 2.51-2.46 13.2 13.2 0 0 0 2.47-9.99 1.5 1.5 0 0 0-1.05-1.26 63 63 0 0 0-2.88-.87C9.84.26 8.69 0 8 0m0 5a1.5 1.5 0 0 1 .5 2.92l.39 1.99a.5.5 0 0 1-.5.59h-.78a.5.5 0 0 1-.5-.6l.39-1.99A1.5 1.5 0 0 1 8 5"/></svg>