<svg xmlns="http://www.w3.org/2000/svg" width="16" height="16" viewBox="0 0 16 16"><path d="M5.34 1.59a61 61 0 0 0-2.84.86.5.5 0 0 0-.33.39c-.55 4.15.73 7.19 2.26 9.18a11 11 0 0 0 2.28 2.24q.53.36.9.53.18.09.29.12l.1.02.1-.02.3-.12q.36-.17.89-.53a11 11 0 0 0 2.28-2.24c1.53-2 2.81-5.03 2.26-9.18a.5.5 0 0 0-.33-.4c-.65-.2-1.75-.55-2.84-.85A13 13 0 0 0 8 1.07a13 13 0 0 0-2.66.52M5.07.56C6.16.26 7.31 0 8 0s1.84.27 2.93.56c1.1.3 2.23.66 2.89.87a1.5 1.5 0 0 1 1.04 1.26c.6 4.48-.79 7.8-2.47 10a12 12 0 0 1-2.51 2.45 7 7 0 0 1-1.05.62c-.28.13-.58.24-.83.24s-.55-.1-.83-.24a7 7 0 0 1-1.05-.62 12 12 0 0 1-2.51-2.46A13.2 13.2 0 0 1 1.14 2.7 1.5 1.5 0 0 1 2.2 1.43 63 63 0 0 1 5.06.56"/></svg>