<svg xmlns="http://www.w3.org/2000/svg" width="16" height="16" viewBox="0 0 16 16" id="icon"><path fill-rule="evenodd" d="M1.1 3.1c-.47 4.27.88 7.45 2.5 9.58a12 12 0 0 0 2.52 2.46q.6.4 1.05.62c.28.13.58.24.83.24s.55-.1.83-.24a7 7 0 0 0 1.05-.62 11 11 0 0 0 1.73-1.53l-.74-.74a10 10 0 0 1-1.58 1.39q-.53.36-.9.53-.18.09-.29.12l-.1.02-.1-.02-.3-.12a6 6 0 0 1-.89-.53 11 11 0 0 1-2.28-2.24 11.8 11.8 0 0 1-2.37-7.96zm2.88-1.12-.85-.85L5.07.56C6.16.26 7.31 0 8 0s1.84.27 2.93.56c1.1.3 2.23.66 2.89.87a1.5 1.5 0 0 1 1.04 1.26 13.4 13.4 0 0 1-1.55 8.62l-.77-.77a12.4 12.4 0 0 0 1.29-7.7.5.5 0 0 0-.33-.4c-.65-.2-1.75-.55-2.84-.85A13 13 0 0 0 8 1.07a13 13 0 0 0-2.66.52zm9.67 12.37-13-13 .7-.7 13 13z"/></svg>