<svg viewBox="0 0 16 16"><path fill-rule="evenodd" d="M1.1 3.1c-.47 4.27.88 7.45 2.5 9.58a11.78 11.78 0 0 0 2.52 2.46c.39.27.75.48 1.05.62.28.13.58.24.83.24s.55-.1.83-.24a7.16 7.16 0 0 0 1.05-.63 11.32 11.32 0 0 0 1.73-1.52l-.74-.74a10.27 10.27 0 0 1-1.58 1.39 6.08 6.08 0 0 1-1.19.65.55.55 0 0 1-.1.02.61.61 0 0 1-.1-.02 2.35 2.35 0 0 1-.3-.12 6.14 6.14 0 0 1-.89-.53 10.72 10.72 0 0 1-2.28-2.24 11.83 11.83 0 0 1-2.37-7.96l-.97-.97zm2.88-1.12-.85-.85A58.94 58.94 0 0 1 5.07.56C6.16.26 7.31 0 8 0s1.84.27 2.93.56c1.1.3 2.23.66 2.89.87a1.54 1.54 0 0 1 1.04 1.26 13.4 13.4 0 0 1-1.55 8.62l-.77-.77a12.37 12.37 0 0 0 1.29-7.7.48.48 0 0 0-.33-.4c-.65-.2-1.75-.55-2.84-.85A13 13 0 0 0 8 1.07a13 13 0 0 0-2.66.52 49.7 49.7 0 0 0-1.36.4zm9.67 12.37-13-13 .7-.7 13 13-.7.7z"/></svg>