<svg xmlns="http://www.w3.org/2000/svg" width="16" height="16" viewBox="0 0 16 16" id="icon"><path d="M2.97 1.35A1 1 0 0 1 3.73 1h8.54a1 1 0 0 1 .76.35l2.6 3.04a1.5 1.5 0 0 1 .37.98v.26a2.38 2.38 0 0 1-4.25 1.45A2.4 2.4 0 0 1 9.88 8 2.4 2.4 0 0 1 8 7.08 2.4 2.4 0 0 1 6.13 8a2.4 2.4 0 0 1-1.88-.92A2.38 2.38 0 0 1 0 5.63v-.26a1.5 1.5 0 0 1 .36-.98zm1.78 4.28a1.38 1.38 0 0 0 2.75 0 .5.5 0 0 1 1 0 1.38 1.38 0 0 0 2.75 0 .5.5 0 0 1 1 0 1.38 1.38 0 1 0 2.75 0v-.26a.5.5 0 0 0-.12-.32L12.27 2H3.73L1.12 5.05a.5.5 0 0 0-.12.32v.26a1.38 1.38 0 0 0 2.75 0 .5.5 0 0 1 1 0M1.5 8.5A.5.5 0 0 1 2 9v6h1v-5a1 1 0 0 1 1-1h3a1 1 0 0 1 1 1v5h6V9a.5.5 0 0 1 1 0v6h.5a.5.5 0 0 1 0 1H.5a.5.5 0 0 1 0-1H1V9a.5.5 0 0 1 .5-.5M4 15h3v-5H4zm5-5a1 1 0 0 1 1-1h2a1 1 0 0 1 1 1v3a1 1 0 0 1-1 1h-2a1 1 0 0 1-1-1zm3 0h-2v3h2z"/></svg>