<svg viewBox="0 0 16 16"><path d="M2.97 1.35A1 1 0 0 1 3.73 1h8.54a1 1 0 0 1 .76.35l2.6 3.04a1.5 1.5 0 0 1 .37.98v.26a2.38 2.38 0 0 1-4.25 1.45A2.37 2.37 0 0 1 9.87 8 2.37 2.37 0 0 1 8 7.08 2.37 2.37 0 0 1 6.12 8a2.37 2.37 0 0 1-1.87-.92A2.38 2.38 0 0 1 0 5.62v-.25a1.5 1.5 0 0 1 .36-.98l2.61-3.04zm1.78 4.28a1.38 1.38 0 0 0 2.75 0 .5.5 0 0 1 1 0 1.38 1.38 0 0 0 2.75 0 .5.5 0 0 1 1 0 1.38 1.38 0 1 0 2.75 0v-.26a.5.5 0 0 0-.12-.33L12.27 2H3.73L1.12 5.04a.5.5 0 0 0-.12.33v.26a1.38 1.38 0 0 0 2.75 0 .5.5 0 0 1 1 0zM1.5 8.5A.5.5 0 0 1 2 9v6h12V9a.5.5 0 0 1 1 0v6h.5a.5.5 0 0 1 0 1H.5a.5.5 0 0 1 0-1H1V9a.5.5 0 0 1 .5-.5zm2 .5a.5.5 0 0 1 .5.5V13h8V9.5a.5.5 0 0 1 1 0V13a1 1 0 0 1-1 1H4a1 1 0 0 1-1-1V9.5a.5.5 0 0 1 .5-.5z"/></svg>