<svg viewBox="0 0 16 16"><path fill-rule="evenodd" d="M0 3.5A.5.5 0 0 1 .5 3H1c2.2 0 3.83 1.24 4.87 2.42.5.55.87 1.1 1.13 1.53.26-.43.64-.98 1.13-1.53A6.56 6.56 0 0 1 13 3v1a5.56 5.56 0 0 0-4.13 2.08A9.62 9.62 0 0 0 7.56 8a9.62 9.62 0 0 0 1.31 1.92A5.57 5.57 0 0 0 13 12v1a6.56 6.56 0 0 1-4.87-2.42A10.6 10.6 0 0 1 7 9.05c-.26.43-.64.98-1.13 1.53A6.56 6.56 0 0 1 1 13H.5a.5.5 0 0 1 0-1H1c1.8 0 3.17-1.01 4.13-2.08A9.62 9.62 0 0 0 6.44 8a9.62 9.62 0 0 0-1.31-1.92A5.57 5.57 0 0 0 1 4H.5a.5.5 0 0 1-.5-.5z"/><path d="M13 5.47V1.53a.25.25 0 0 1 .41-.19l2.36 1.97c.12.1.12.28 0 .38l-2.36 1.97a.25.25 0 0 1-.41-.2zm0 9v-3.94a.25.25 0 0 1 .41-.19l2.36 1.97c.12.1.12.28 0 .38l-2.36 1.97a.25.25 0 0 1-.41-.2z"/></svg>