<svg xmlns="http://www.w3.org/2000/svg" viewBox="0 0 16 16"><path d="M3.16 10.08c-.93 0-1.45-.5-1.5-1.13h.66c.06.34.4.58.89.58.52 0 .83-.24.83-.62 0-.3-.2-.47-.64-.57l-.65-.16c-.61-.15-.98-.51-.98-1.08 0-.7.6-1.19 1.44-1.19.86 0 1.39.48 1.44 1.09H4c-.06-.32-.35-.54-.8-.54-.47 0-.76.24-.76.6 0 .26.2.44.55.52l.65.16c.68.17 1.06.49 1.06 1.11 0 .74-.57 1.23-1.54 1.23Zm3.43-3.51V10h-.67V6.57H4.75V6h3v.57H6.6Z"/><path fill-rule="evenodd" d="M11.04 7.73v.54c0 1.14-.63 1.8-1.66 1.8-1.02 0-1.66-.66-1.66-1.8v-.54c0-1.14.64-1.8 1.66-1.8 1.03 0 1.66.67 1.66 1.8Zm-.67.55v-.56c0-.82-.42-1.23-.99-1.23-.57 0-.99.4-.99 1.23v.56c0 .83.42 1.23 1 1.23.56 0 .98-.4.98-1.23ZM11.52 6h1.54c.82 0 1.31.55 1.31 1.3 0 .74-.5 1.28-1.32 1.28h-.86V10h-.67V6Zm1.44 2.04c.46 0 .73-.27.73-.75s-.27-.74-.73-.74h-.78v1.49h.78Z"/><path fill-rule="evenodd" d="M4.9 0a.5.5 0 0 0-.36.15L.14 4.54a.5.5 0 0 0-.14.35v6.22a.5.5 0 0 0 .15.35l4.39 4.4a.5.5 0 0 0 .35.14h6.22a.5.5 0 0 0 .35-.15l4.4-4.39a.5.5 0 0 0 .14-.35V4.89a.5.5 0 0 0-.15-.35L11.46.14a.5.5 0 0 0-.35-.14H4.89ZM1 5.1 5.1 1h5.8L15 5.1v5.8L10.9 15H5.1L1 10.9V5.1Z"/></svg>