<svg viewBox="0 0 16 16"><path d="M5.12 6.28h.32c.4 0 .58.24.58.72s-.19.72-.58.72h-.32V6.28Zm3.63.07.27.84h-.55l.27-.84h.01Zm1.33-.07h.32c.4 0 .58.24.58.72s-.19.72-.58.72h-.32V6.28Zm-.8 3h.33c.4 0 .58.24.58.72s-.19.72-.58.72h-.32V9.28Z"/><path d="M9.05.43a1.48 1.48 0 0 0-2.1 0L.44 6.95a1.48 1.48 0 0 0 0 2.1l6.51 6.51c.58.58 1.52.58 2.1 0l6.52-6.51c.58-.58.58-1.52 0-2.1L9.05.43ZM4.78 6h.7c.59 0 .88.35.88 1s-.3 1-.89 1h-.69V6Zm3.04 1.72V8H6.57V6h1.25v.28H6.9v.57h.87v.27H6.9v.6h.92Zm.4.28h-.34l.69-2h.37l.69 2h-.36l-.17-.55h-.7L8.21 8Zm1.53-2h.69c.6 0 .88.35.88 1s-.29 1-.88 1h-.7V6Zm-2.93 4.72V11H5.57V9h1.25v.28h-.91v.57h.86v.27H5.9v.6h.91Zm.58.28h-.32V9h.29l.93 1.44h.02V9h.32v2h-.3l-.93-1.44H7.4V11Zm1.56-2h.69c.6 0 .88.35.88 1s-.3 1-.88 1h-.7V9Z"/></svg>