<svg viewBox="0 0 16 16"><path fill-rule="evenodd" d="M6 4a1 1 0 0 1 1-1h2a1 1 0 0 1 1 1v8a1 1 0 0 1-1 1H7a1 1 0 0 1-1-1V4Zm2 2a1 1 0 1 0 0-2 1 1 0 0 0 0 2Zm0 3a1 1 0 1 0 0-2 1 1 0 0 0 0 2Zm1 2a1 1 0 1 1-2 0 1 1 0 0 1 2 0Z"/><path fill-rule="evenodd" d="M9.05.43a1.48 1.48 0 0 0-2.1 0L.44 6.95a1.48 1.48 0 0 0 0 2.1l6.51 6.51c.58.58 1.52.58 2.1 0l6.52-6.51c.58-.58.58-1.52 0-2.1L9.05.43Zm-1.4.7a.5.5 0 0 1 .7 0l6.52 6.52a.5.5 0 0 1 0 .7l-6.52 6.52a.5.5 0 0 1-.7 0L1.13 8.35a.5.5 0 0 1 0-.7l6.52-6.52Z"/></svg>