<svg viewBox="0 0 16 16"><path d="M5.5 6.23V7h-.39v-.76L4.44 5h.44l.42.85h.02L5.75 5h.43L5.5 6.23ZM6.64 5v2h-.4V5h.4Zm.68 1.68h.9V7H6.9V5h1.3v.32h-.9v.52h.84v.3H7.3v.54Zm1.52-.02h.85V7H8.44V5h.4v1.66Z"/><path fill-rule="evenodd" d="M9.8 7V5h.73c.61 0 .9.36.9 1 0 .63-.3 1-.9 1H9.8Zm.68-1.68h-.28v1.36h.28c.37 0 .54-.23.54-.68 0-.45-.17-.68-.54-.68Z"/><path fill-rule="evenodd" d="M7.02 14.43a1.13 1.13 0 0 0 1.96 0l6.86-11.66c.46-.78-.1-1.77-.98-1.77H1.14C.26 1-.29 1.99.16 2.77l6.86 11.66ZM8 14a.13.13 0 0 1-.06-.02.15.15 0 0 1-.06-.05L1.03 2.26a.18.18 0 0 1 0-.18.16.16 0 0 1 .05-.06.12.12 0 0 1 .06-.02h13.72a.12.12 0 0 1 .06.02c.02 0 .04.03.06.06a.18.18 0 0 1 0 .18L8.12 13.93a.15.15 0 0 1-.05.05A.13.13 0 0 1 8 14Z"/></svg>