<svg xmlns="http://www.w3.org/2000/svg" width="16" height="16" viewBox="0 0 16 16" id="icon"><path d="m8.34 6.98.8 1.39a.25.25 0 0 0 .45-.04l1.06-2.88a.25.25 0 0 0-.2-.34L7.43 4.6a.25.25 0 0 0-.26.37l.67 1.16-.63.37A2.5 2.5 0 0 0 6 8.63V11h1V8.63a1.5 1.5 0 0 1 .73-1.28z"/><path fill-rule="evenodd" d="M6.95.44a1.5 1.5 0 0 1 2.1 0l6.52 6.51c.58.58.58 1.52 0 2.1l-6.52 6.51c-.58.58-1.52.58-2.1 0L.44 9.06a1.5 1.5 0 0 1 0-2.1zm1.4.7a.5.5 0 0 0-.7 0L1.13 7.65a.5.5 0 0 0 0 .7l6.52 6.52a.5.5 0 0 0 .7 0l6.52-6.52a.5.5 0 0 0 0-.7z"/></svg>