<svg xmlns="http://www.w3.org/2000/svg" width="16" height="16" viewBox="0 0 16 16" id="icon"><path d="M9.05.44a1.5 1.5 0 0 0-2.1 0L4.22 3.16 8 6.94l3.78-3.78zm3.27 7.42V7h.47c.28 0 .47.15.47.44q-.02.42-.48.42z"/><path d="M12.84 4.22 9.06 8l3.78 3.78 2.72-2.73c.58-.58.58-1.52 0-2.1zm.03 2.36c.59 0 .93.34.93.85a.8.8 0 0 1-.48.75l.53 1.07h-.59l-.46-1h-.48v1h-.52V6.58zm-1.1 6.26L8 9.06l-3.78 3.78 2.73 2.72c.58.58 1.52.58 2.1 0zM2.83 7v.86h.46q.46 0 .48-.42c0-.29-.19-.44-.47-.44z"/><path d="M3.16 11.78 6.94 8 3.16 4.22.44 6.95a1.5 1.5 0 0 0 0 2.1zm-.86-5.2h1.07c.59 0 .93.34.93.85a.8.8 0 0 1-.48.75l.53 1.07h-.59l-.46-1h-.48v1H2.3z"/></svg>