<svg xmlns="http://www.w3.org/2000/svg" width="16" height="16" viewBox="0 0 16 16" id="icon"><path d="m6.08.23.18.73a7 7 0 0 0-2.01.83l-.38-.64a8 8 0 0 1 2.2-.92zm3.84 0-.18.73a7 7 0 0 1 2.01.83l.39-.64A8 8 0 0 0 9.92.23M1.15 3.86a8 8 0 0 0-.92 2.22l.73.18a7 7 0 0 1 .83-2.01zM.75 8a7 7 0 0 1 .08-1.09L.1 6.8a8 8 0 0 0 0 2.4l.74-.11A7 7 0 0 1 .75 8m11.38 6.85-.38-.64a7 7 0 0 1-2 .83l.17.73a8 8 0 0 0 2.21-.92M15.25 8q0 .55-.08 1.09l.74.1a8 8 0 0 0 0-2.39l-.74.11q.08.54.08 1.09m.52 1.92-.73-.18a7 7 0 0 1-.83 2.01l.64.39a8 8 0 0 0 .92-2.22m-6.68 5.25a7 7 0 0 1-2.18 0l-.1.74a8 8 0 0 0 2.39 0zm4.75-2.87a7 7 0 0 1-1.54 1.53l.45.6a8 8 0 0 0 1.7-1.68zM12.3 2.16q.88.66 1.54 1.54l.6-.45a8 8 0 0 0-1.69-1.7zM2.16 3.7A7 7 0 0 1 3.7 2.16l-.45-.6a8 8 0 0 0-1.7 1.69zm12.7.16-.65.39q.56.94.83 2l.73-.17a8 8 0 0 0-.92-2.22M6.91.83a7 7 0 0 1 2.18 0l.1-.74A8 8 0 0 0 6.8.1zM2.55 14.64 1 15l.36-1.55-.73-.17-.36 1.55a.75.75 0 0 0 .9.9l1.55-.36zM.79 12.61l.73.17.25-1.07a7 7 0 0 1-.81-1.97l-.73.18a8 8 0 0 0 .74 1.9zm3.5 1.63-1.08.24.17.74.8-.19q.9.5 1.9.74l.18-.73a7 7 0 0 1-1.97-.81zM8 1.5A6.5 6.5 0 0 0 1.5 8a6.5 6.5 0 0 0 1 3.46l-.62 2.66 2.66-.62a6.5 6.5 0 0 0 6.93-11A6.5 6.5 0 0 0 8 1.5"/></svg>