<svg xmlns="http://www.w3.org/2000/svg" width="16" height="16" viewBox="0 0 16 16" id="icon"><path d="m7.67 6.98-.8 1.39a.25.25 0 0 1-.46-.04L5.35 5.45a.25.25 0 0 1 .2-.34l3.02-.52a.25.25 0 0 1 .26.37l-.66 1.16.62.37A2.5 2.5 0 0 1 10 8.63V11H9V8.63a1.5 1.5 0 0 0-.73-1.28z"/><path fill-rule="evenodd" d="M6.95.44a1.5 1.5 0 0 1 2.1 0l6.52 6.51c.58.58.58 1.52 0 2.1l-6.52 6.51c-.58.58-1.52.58-2.1 0L.44 9.06a1.5 1.5 0 0 1 0-2.1zm1.4.7a.5.5 0 0 0-.7 0L1.13 7.65a.5.5 0 0 0 0 .7l6.52 6.52a.5.5 0 0 0 .7 0l6.52-6.52a.5.5 0 0 0 0-.7z"/></svg>