<svg xmlns="http://www.w3.org/2000/svg" width="16" height="16" viewBox="0 0 16 16" id="icon"><path d="M3.58 6V4h.7c.59 0 .88.36.88 1s-.3 1-.89 1zm.66-1.72h-.32v1.44h.32q.59 0 .58-.72 0-.72-.58-.72m2.73.59v.27c0 .56-.32.9-.83.9-.52 0-.84-.34-.84-.9v-.27c0-.57.32-.9.84-.9.5 0 .83.33.83.9m-.34.27v-.28c0-.41-.21-.61-.5-.61-.28 0-.49.2-.49.61v.28c0 .41.21.62.5.62.28 0 .49-.2.49-.62m1.36-.58V6h-.32V4h.3l.92 1.44h.02V4h.32v2h-.3zm3.14.3v.28c0 .56-.32.9-.83.9s-.83-.34-.83-.9v-.27c0-.57.32-.9.83-.9s.83.33.83.9m-.34.28v-.28c0-.41-.2-.61-.5-.61-.28 0-.49.2-.49.61v.28c0 .41.21.62.5.62.28 0 .5-.2.5-.62m1.23-.85V6h-.33V4.29h-.59V4h1.5v.28zM4.5 11.72h.91V12H4.16v-2h1.25v.28H4.5v.57h.86v.27H4.5zm1.49-1.16V12h-.32v-2h.29l.93 1.44h.02V10h.32v2h-.3zm2.27-.28V12h-.33v-1.71h-.58V10h1.5v.28zm1.04 1.44h.92V12H8.97v-2h1.25v.28H9.3v.57h.86v.27H9.3zM10.47 10h.77c.42 0 .67.24.67.62a.6.6 0 0 1-.37.56l.4.82h-.37l-.36-.77h-.41V12h-.33zm.33.27v.7h.38q.38 0 .39-.34-.02-.35-.38-.36zM3.5 7a.5.5 0 0 0-.5.5v1a.5.5 0 0 0 .5.5h9a.5.5 0 0 0 .5-.5v-1a.5.5 0 0 0-.5-.5z"/><path d="M8 16A8 8 0 1 0 8 0a8 8 0 0 0 0 16m0-1A7 7 0 1 1 8 1a7 7 0 0 1 0 14"/></svg>