<svg xmlns="http://www.w3.org/2000/svg" viewBox="0 0 16 16"><path d="M3.58 6V4h.7c.59 0 .88.35.88 1s-.3 1-.89 1h-.69Zm.66-1.72h-.32v1.44h.32c.4 0 .58-.24.58-.72s-.19-.72-.58-.72Zm2.73.58v.28c0 .56-.32.9-.83.9-.52 0-.84-.34-.84-.9v-.27c0-.57.32-.9.84-.9.5 0 .83.33.83.9Zm-.34.28v-.28c0-.41-.21-.62-.5-.62-.28 0-.49.2-.49.62v.28c0 .41.21.62.5.62.28 0 .49-.2.49-.62Zm1.36-.58V6h-.32V4h.3l.92 1.44h.02V4h.32v2h-.3L8 4.56h-.01Zm3.14.3v.28c0 .56-.32.9-.83.9s-.83-.34-.83-.9v-.27c0-.57.32-.9.83-.9s.83.33.83.9Zm-.34.28v-.28c0-.41-.2-.62-.5-.62-.28 0-.49.2-.49.62v.28c0 .41.21.62.5.62.28 0 .5-.2.5-.62Zm1.24-.85V6h-.33V4.29h-.59V4h1.5v.28h-.58ZM4.5 11.71h.91V12H4.16v-2h1.25v.28H4.5v.57h.86v.27H4.5v.6Zm1.49-1.16V12h-.32v-2h.29l.93 1.44h.02V10h.32v2h-.3L6 10.56h-.01Zm2.27-.28V12h-.33v-1.72h-.58V10h1.5v.28h-.59Zm1.04 1.44h.92V12H8.97v-2h1.25v.28H9.3v.57h.86v.27H9.3v.6ZM10.47 10h.77c.42 0 .67.24.67.62a.57.57 0 0 1-.37.56l.4.82h-.37l-.36-.77h-.41V12h-.33v-2Zm.33.27v.7h.38c.24 0 .39-.12.39-.34 0-.23-.15-.36-.38-.36h-.4ZM3.5 7a.5.5 0 0 0-.5.5v1a.5.5 0 0 0 .5.5h9a.5.5 0 0 0 .5-.5v-1a.5.5 0 0 0-.5-.5h-9Z"/><path d="M8 16A8 8 0 1 0 8 0a8 8 0 0 0 0 16Zm0-1A7 7 0 1 1 8 1a7 7 0 0 1 0 14Z"/></svg>