<svg xmlns="http://www.w3.org/2000/svg" viewBox="0 0 16 16"><path d="M7.25 6v1c-.14.3-.34.62-.59.95-.54.72-1.26 1.44-2.01 2.2l.7.7.02-.01a26.3 26.3 0 0 0 1.88-2.02V12h1.5V6h1.22a.25.25 0 0 0 .19-.41L8.19 3.23a.25.25 0 0 0-.38 0L5.84 5.59a.25.25 0 0 0 .2.41h1.21Z"/><path d="M9.05.43a1.48 1.48 0 0 0-2.1 0L.44 6.95a1.48 1.48 0 0 0 0 2.1l6.51 6.51c.58.58 1.52.58 2.1 0l6.52-6.51c.58-.58.58-1.52 0-2.1L9.05.43Zm-1.4.7a.5.5 0 0 1 .7 0l6.52 6.52a.5.5 0 0 1 0 .7l-6.52 6.52a.5.5 0 0 1-.7 0L1.13 8.35a.5.5 0 0 1 0-.7l6.52-6.52Z"/></svg>