<svg xmlns="http://www.w3.org/2000/svg" width="16" height="16" viewBox="0 0 16 16"><path d="M5.5 6.23V7h-.39v-.76L4.44 5h.44l.42.85h.02L5.75 5h.43zM6.64 5v2h-.4V5zm.68 1.68h.9V7H6.9V5h1.3v.32h-.9v.52h.84v.3H7.3zm1.52-.02h.85V7H8.44V5h.4z"/><path fill-rule="evenodd" d="M9.8 7V5h.73c.61 0 .9.36.9 1 0 .63-.3 1-.9 1zm.68-1.68h-.28v1.36h.28q.55 0 .54-.68 0-.68-.54-.68"/><path fill-rule="evenodd" d="M7.02 14.43a1.13 1.13 0 0 0 1.96 0l6.86-11.66c.46-.78-.1-1.77-.98-1.77H1.14C.26 1-.29 1.99.16 2.77zM8 14l-.06-.02-.06-.05L1.03 2.26a.2.2 0 0 1 0-.18l.05-.06.06-.02h13.72l.06.02q.03.01.06.06a.2.2 0 0 1 0 .18L8.12 13.93l-.05.05z"/></svg>