<svg xmlns="http://www.w3.org/2000/svg" viewBox="0 0 16 16"><path d="M11.3 6.58h1.07c.59 0 .93.34.93.85a.79.79 0 0 1-.48.75l.53 1.07h-.59l-.46-1h-.48v1h-.52V6.58Zm.52.42v.86h.46c.3 0 .48-.14.48-.42 0-.29-.19-.44-.47-.44h-.47Zm-8.77-.42h1.07c.59 0 .93.34.93.85a.8.8 0 0 1-.48.75l.53 1.07h-.59l-.46-1h-.48v1h-.52V6.58Zm.52.42v.86h.46c.3 0 .48-.14.48-.42 0-.29-.19-.44-.47-.44h-.47Z"/><path d="M6.95.43a1.48 1.48 0 0 1 2.1 0l6.51 6.52c.59.58.59 1.52 0 2.1l-6.51 6.51c-.58.58-1.52.58-2.1 0L.43 9.05a1.48 1.48 0 0 1 0-2.1L6.95.43Zm1.4.7a.5.5 0 0 0-.7 0L4.92 3.87 8 6.94l3.08-3.08-2.73-2.73Zm3.79 3.8L9.06 8l3.08 3.08 2.73-2.73a.5.5 0 0 0 0-.7l-2.73-2.73Zm-1.06 7.2L8 9.07l-3.08 3.08 2.73 2.73a.5.5 0 0 0 .7 0l2.73-2.73Zm-7.22-1.05L6.94 8 3.86 4.92 1.13 7.65a.5.5 0 0 0 0 .7l2.73 2.73Z"/></svg>