<svg xmlns="http://www.w3.org/2000/svg" width="16" height="16" viewBox="0 0 16 16" id="icon"><path d="M11 8.5A2.5 2.5 0 0 0 8.5 6H7V4.53a.25.25 0 0 0-.41-.19L4.23 6.31a.25.25 0 0 0 0 .38l2.36 1.97a.25.25 0 0 0 .41-.2V7h1.5A1.5 1.5 0 0 1 10 8.5V11h1z"/><path fill-rule="evenodd" d="M6.95.44a1.5 1.5 0 0 1 2.1 0l6.52 6.51c.58.58.58 1.52 0 2.1l-6.52 6.51c-.58.58-1.52.58-2.1 0L.44 9.06a1.5 1.5 0 0 1 0-2.1zm1.4.7a.5.5 0 0 0-.7 0L1.13 7.65a.5.5 0 0 0 0 .7l6.52 6.52a.5.5 0 0 0 .7 0l6.52-6.52a.5.5 0 0 0 0-.7z"/></svg>