<svg xmlns="http://www.w3.org/2000/svg" width="16" height="16" viewBox="0 0 16 16" id="icon"><path d="M11.3 6.58h1.07c.59 0 .93.34.93.85a.8.8 0 0 1-.48.75l.53 1.07h-.59l-.46-1h-.48v1h-.52zm.52.42v.86h.46q.46 0 .48-.42c0-.29-.19-.44-.47-.44zm-8.77-.42h1.07c.59 0 .93.34.93.85a.8.8 0 0 1-.48.75l.53 1.07h-.59l-.46-1h-.48v1h-.52zm.52.42v.86h.46q.46 0 .48-.42c0-.29-.19-.44-.47-.44z"/><path d="M6.95.44a1.5 1.5 0 0 1 2.1 0l6.52 6.51c.58.58.58 1.52 0 2.1l-6.52 6.51c-.58.58-1.52.58-2.1 0L.44 9.06a1.5 1.5 0 0 1 0-2.1zm1.4.7a.5.5 0 0 0-.7 0L4.92 3.86 8 6.94l3.08-3.08zm3.79 3.78L9.06 8l3.08 3.08 2.73-2.73a.5.5 0 0 0 0-.7zm-1.06 7.22L8 9.06l-3.08 3.08 2.73 2.73a.5.5 0 0 0 .7 0zm-7.22-1.06L6.94 8 3.86 4.92 1.13 7.65a.5.5 0 0 0 0 .7z"/></svg>