<svg xmlns="http://www.w3.org/2000/svg" width="16" height="16" viewBox="0 0 16 16"><path d="M10.37 8.28v-.56c0-.82-.42-1.23-.99-1.23s-.99.4-.99 1.23v.56c0 .83.42 1.23 1 1.23.56 0 .98-.4.98-1.23m2.59-.24c.46 0 .73-.28.73-.75s-.27-.74-.73-.74h-.78v1.49z"/><path d="M4.9 0a.5.5 0 0 0-.36.15L.14 4.54a.5.5 0 0 0-.14.35v6.22a.5.5 0 0 0 .15.35l4.39 4.4a.5.5 0 0 0 .35.14h6.22a.5.5 0 0 0 .35-.15l4.4-4.39a.5.5 0 0 0 .14-.35V4.89a.5.5 0 0 0-.15-.35L11.46.14a.5.5 0 0 0-.35-.14zM3.15 10.08c-.93 0-1.45-.5-1.5-1.13h.66c.06.34.4.58.89.58.52 0 .83-.24.83-.62q.01-.44-.64-.57l-.65-.16c-.61-.15-.98-.51-.98-1.08 0-.7.6-1.19 1.44-1.19.86 0 1.39.48 1.44 1.09H4c-.06-.32-.35-.54-.8-.54-.47 0-.76.24-.76.6q.01.4.55.52l.65.16c.68.17 1.06.49 1.06 1.11 0 .74-.57 1.23-1.54 1.23m3.43-3.51V10h-.67V6.57H4.75V6h3v.57zm4.46 1.16v.54c0 1.14-.64 1.8-1.67 1.8s-1.66-.66-1.66-1.8v-.54c0-1.14.64-1.8 1.66-1.8s1.66.67 1.66 1.8M11.52 6h1.54c.81 0 1.31.55 1.31 1.3 0 .74-.5 1.28-1.32 1.28h-.86V10h-.67z"/></svg>