<svg xmlns="http://www.w3.org/2000/svg" width="16" height="16" viewBox="0 0 16 16" id="icon"><path d="M8.75 6v1q.21.45.59.95c.53.72 1.26 1.44 2.01 2.2l-.7.7-.02-.01a26 26 0 0 1-1.88-2.02V12h-1.5V6H6.03a.25.25 0 0 1-.19-.41l1.97-2.36a.25.25 0 0 1 .38 0l1.97 2.36a.25.25 0 0 1-.2.41z"/><path fill-rule="evenodd" d="M9.05.44a1.5 1.5 0 0 0-2.1 0L.44 6.94a1.5 1.5 0 0 0 0 2.1l6.51 6.51c.58.58 1.52.58 2.1 0l6.52-6.51c.58-.58.58-1.52 0-2.1zm-1.4.7a.5.5 0 0 1 .7 0l6.52 6.51a.5.5 0 0 1 0 .7l-6.52 6.52a.5.5 0 0 1-.7 0L1.13 8.35a.5.5 0 0 1 0-.7z"/></svg>