<svg xmlns="http://www.w3.org/2000/svg" viewBox="0 0 16 16"><path d="M11 8.5A2.5 2.5 0 0 0 8.5 6H7V4.53a.25.25 0 0 0-.41-.19L4.23 6.31a.25.25 0 0 0 0 .38l2.36 1.97a.25.25 0 0 0 .41-.2V7h1.5A1.5 1.5 0 0 1 10 8.5V11h1V8.5Z"/><path fill-rule="evenodd" d="M6.95.43a1.48 1.48 0 0 1 2.1 0l6.51 6.52c.59.58.59 1.52 0 2.1l-6.51 6.51c-.58.58-1.52.58-2.1 0L.43 9.05a1.48 1.48 0 0 1 0-2.1L6.95.43Zm1.4.7a.5.5 0 0 0-.7 0L1.13 7.65a.5.5 0 0 0 0 .7l6.52 6.52a.5.5 0 0 0 .7 0l6.52-6.52a.5.5 0 0 0 0-.7L8.35 1.13Z"/></svg>