<svg xmlns="http://www.w3.org/2000/svg" viewBox="0 0 16 16"><path d="m6.08.23.18.73a7.26 7.26 0 0 0-2.01.83l-.38-.64a7.9 7.9 0 0 1 2.2-.92zm3.84 0-.18.73a7.26 7.26 0 0 1 2.01.83l.39-.64A7.96 7.96 0 0 0 9.92.23zM1.15 3.86a7.94 7.94 0 0 0-.92 2.22l.73.18a7.26 7.26 0 0 1 .83-2.01l-.64-.39zM.75 8a7.3 7.3 0 0 1 .08-1.09L.1 6.8a8 8 0 0 0 0 2.4l.74-.11A7.26 7.26 0 0 1 .75 8zm11.38 6.85-.38-.64a7.23 7.23 0 0 1-2 .83l.17.73a7.96 7.96 0 0 0 2.21-.92zM15.25 8a8 8 0 0 1-.08 1.09l.74.1a7.97 7.97 0 0 0 0-2.39l-.74.11A8 8 0 0 1 15.25 8zm.52 1.92-.73-.18a7.25 7.25 0 0 1-.83 2.01l.64.39a7.93 7.93 0 0 0 .92-2.22zm-6.68 5.25a7.2 7.2 0 0 1-2.18 0l-.1.74a7.99 7.99 0 0 0 2.39 0l-.11-.74zm4.75-2.87a7.23 7.23 0 0 1-1.54 1.53l.45.6a8.07 8.07 0 0 0 1.7-1.68l-.61-.45zM12.3 2.16c.59.44 1.1.95 1.54 1.54l.6-.45a8.06 8.06 0 0 0-1.69-1.7l-.45.61zM2.16 3.7A7.24 7.24 0 0 1 3.7 2.16l-.45-.6a8.06 8.06 0 0 0-1.7 1.69l.61.45zm12.7.16-.65.39c.37.62.65 1.3.83 2l.73-.17a7.93 7.93 0 0 0-.92-2.22zM6.9.83a7.25 7.25 0 0 1 2.18 0l.1-.74A7.99 7.99 0 0 0 6.8.1l.11.74zM2.55 14.64 1 15l.36-1.55-.73-.17-.36 1.55a.75.75 0 0 0 .9.9l1.55-.36-.17-.73zM.79 12.61l.73.17.25-1.07a7.19 7.19 0 0 1-.81-1.97l-.73.18a8 8 0 0 0 .74 1.9l-.18.8zm3.5 1.63-1.08.24.17.74.8-.19c.6.33 1.23.58 1.9.74l.18-.73a7.2 7.2 0 0 1-1.97-.81zM8 1.5A6.5 6.5 0 0 0 1.5 8a6.52 6.52 0 0 0 1 3.46l-.63 2.66 2.67-.62a6.5 6.5 0 0 0 6.93-11A6.52 6.52 0 0 0 8 1.5"/></svg>