<svg xmlns="http://www.w3.org/2000/svg" width="16" height="16" viewBox="0 0 16 16"><path d="M4.78 6v2h.7c.59 0 .88-.36.88-1s-.29-1-.89-1zm.34.28h.32q.59 0 .58.72 0 .72-.58.72h-.32zm2.7 1.44H6.9v-.6h.86v-.27H6.9v-.57h.92V6H6.57v2h1.25zm.57-.27L8.22 8h-.34l.68-2h.37l.7 2h-.36l-.17-.55zm.63-.26-.27-.84h-.01l-.27.84zM9.75 6v2h.69c.59 0 .88-.36.88-1s-.29-1-.88-1zm.33.28h.32q.59 0 .58.72.01.72-.58.72h-.32zM5.9 10.72h.91V11H5.57V9h1.25v.28h-.91v.57h.86v.27H5.9zm1.5.28V9.56L8.35 11h.3V9h-.32v1.44H8.3L7.37 9h-.3v2zm1.56 0V9h.68q.9.02.9 1c0 .98-.3 1-.9 1zm.65-1.72h-.32v1.44h.32q.59 0 .58-.72 0-.72-.58-.72"/><path d="M9.05.44a1.5 1.5 0 0 0-2.1 0L.44 6.94a1.5 1.5 0 0 0 0 2.1l6.51 6.51c.58.58 1.52.58 2.1 0l6.52-6.51c.58-.58.58-1.52 0-2.1zm-1.4.7a.5.5 0 0 1 .7 0l6.52 6.51a.5.5 0 0 1 0 .7l-6.52 6.52a.5.5 0 0 1-.7 0L1.13 8.35a.5.5 0 0 1 0-.7z"/></svg>