<svg xmlns="http://www.w3.org/2000/svg" width="16" height="16" viewBox="0 0 16 16" id="icon"><path d="M5.12 6.28h.32q.59 0 .58.72 0 .72-.58.72h-.32zm3.63.07.27.84h-.55l.27-.84zm1.33-.07h.32q.59 0 .58.72 0 .72-.58.72h-.32zm-.8 3h.33q.59 0 .58.72 0 .72-.58.72h-.32z"/><path d="M9.05.44a1.5 1.5 0 0 0-2.1 0L.44 6.94a1.5 1.5 0 0 0 0 2.1l6.51 6.51c.58.58 1.52.58 2.1 0l6.52-6.51c.58-.58.58-1.52 0-2.1zM4.78 6h.7c.59 0 .88.36.88 1s-.3 1-.89 1h-.69zm3.04 1.72V8H6.57V6h1.25v.28H6.9v.57h.87v.27H6.9v.6zm.4.28h-.34l.69-2h.37l.69 2h-.36l-.17-.55h-.7zm1.53-2h.69c.6 0 .88.36.88 1s-.29 1-.88 1h-.7zm-2.93 4.72V11H5.57V9h1.25v.28h-.91v.57h.86v.27H5.9v.6zm.58.28h-.32V9h.29l.93 1.44h.02V9h.32v2h-.3l-.93-1.44H7.4zm1.56-2h.69q.89.01.88 1c0 .99-.3 1-.88 1h-.7z"/></svg>