<svg viewBox="0 0 16 16"><path d="M9.05.43a1.48 1.48 0 0 0-2.1 0L4.22 3.17 8 6.94l3.78-3.78L9.05.43Zm3.27 7.43V7h.47c.28 0 .47.15.47.44 0 .28-.18.42-.48.42h-.46Z"/><path d="M12.84 4.22 9.06 8l3.78 3.78 2.72-2.73c.58-.58.58-1.52 0-2.1l-2.72-2.73Zm.03 2.36c.59 0 .93.34.93.85a.79.79 0 0 1-.48.75l.53 1.07h-.59l-.46-1h-.48v1h-.52V6.58h1.07Zm-1.1 6.26L8 9.06l-3.78 3.78 2.73 2.72c.58.58 1.52.58 2.1 0l2.73-2.72ZM2.83 7v.86h.46c.3 0 .48-.14.48-.42 0-.29-.19-.44-.47-.44h-.47Z"/><path d="M3.16 11.78 6.94 8 3.16 4.22.43 6.95a1.48 1.48 0 0 0 0 2.1l2.73 2.73Zm-.86-5.2h1.07c.59 0 .93.34.93.85a.8.8 0 0 1-.48.75l.53 1.07h-.59l-.46-1h-.48v1H2.3V6.58Z"/></svg>