<svg xmlns="http://www.w3.org/2000/svg" width="16" height="16" viewBox="0 0 16 16" id="icon"><path d="m11.65.44.9.9-1.71 1.7L10.5 3h-5A1.5 1.5 0 0 0 4 4.5v5.38l-2 2V1.5A1.5 1.5 0 0 1 3.5 0h7.09a1.5 1.5 0 0 1 1.06.44M8.5 5.38 9.88 4H8.5zM5 8.88 6.88 7H5zm6-1.76L9.12 9H11zm-3.5 3.5L6.12 12H7.5zM5.5 13q-.17 0-.34-.04L2.5 15.62q.42.37 1 .38h9a1.5 1.5 0 0 0 1.5-1.5V4.12l-2 2v5.38a1.5 1.5 0 0 1-1.5 1.5zM5 4.5a.5.5 0 0 1 .5-.5h2v2H5zM8.5 10H11v1.5a.5.5 0 0 1-.5.5h-2zm6.35-8.15a.5.5 0 0 0-.7-.7l-13 13a.5.5 0 0 0 .7.7z"/></svg>