<svg xmlns="http://www.w3.org/2000/svg" width="16" height="16" viewBox="0 0 16 16" id="icon"><path d="m11.65.44.9.9-.71.7-.9-.9a.5.5 0 0 0-.35-.14H3.5a.5.5 0 0 0-.5.5v9.38l-1 1V1.5A1.5 1.5 0 0 1 3.5 0h7.09a1.5 1.5 0 0 1 1.06.44M10.5 3q.18 0 .34.04L9.88 4H8.5v1.38L6.88 7H5v1.88l-1 1V4.5A1.5 1.5 0 0 1 5.5 3zM12 6.12l-1 1V9H9.12L7.5 10.62V12H6.12l-.96.96q.17.04.34.04h5a1.5 1.5 0 0 0 1.5-1.5zM3.5 15a.5.5 0 0 1-.29-.1l-.7.72q.4.37.99.38h9a1.5 1.5 0 0 0 1.5-1.5V4.12l-1 1v9.38a.5.5 0 0 1-.5.5zm2-11a.5.5 0 0 0-.5.5V6h2.5V4zm5.5 6v1.5a.5.5 0 0 1-.5.5h-2v-2zm3.85-8.15a.5.5 0 0 0-.7-.7l-13 13a.5.5 0 0 0 .7.7z"/></svg>