<svg xmlns="http://www.w3.org/2000/svg" width="16" height="16" viewBox="0 0 16 16" id="icon"><path d="M10.88 1.1a4.2 4.2 0 0 1 4.03 1.3 4.2 4.2 0 0 1 .88 4.14.61.61 0 0 1-1.16-.38 3.01 3.01 0 0 0-3.5-3.87.61.61 0 1 1-.25-1.2M3.75 9.47A2.9 2.9 0 0 1 7 8.05c1.3.34 1.97 1.57 1.43 2.77a2.86 2.86 0 0 1-3.41 1.45c-1.27-.41-1.82-1.67-1.26-2.8m2.66.56c.16.07.37 0 .46-.17.09-.16.03-.34-.13-.4s-.35.02-.45.17c-.09.16-.04.34.12.4m-1.6 1.32c.4.18.96 0 1.21-.4.26-.42.12-.89-.3-1.07a1 1 0 0 0-1.19.4c-.25.4-.13.88.27 1.07"/><path d="M12.01 7.24c.93.28 1.95.97 1.95 2.19 0 2-2.9 4.53-7.25 4.53C3.4 13.96 0 12.36 0 9.71c0-1.39.88-2.99 2.38-4.5C4.4 3.2 6.75 2.28 7.63 3.18c.4.39.43 1.06.18 1.87-.13.4.38.18.38.18 1.63-.68 3.05-.72 3.57.02.28.4.25.95 0 1.6-.12.28.03.33.25.4m-10.4 3.1c.18 1.74 2.46 2.94 5.11 2.67 2.65-.26 4.66-1.88 4.49-3.62S8.75 6.45 6.1 6.72c-2.65.26-4.66 1.88-4.49 3.62M13.3 3.86a2 2 0 0 0-1.97-.64.53.53 0 1 0 .22 1.03 1 1 0 0 1 1.17 1.3.53.53 0 0 0 1 .32 2 2 0 0 0-.43-2.01"/></svg>