<svg xmlns="http://www.w3.org/2000/svg" width="16" height="16" viewBox="0 0 16 16"><path d="M4.67 0c.88 0 1.73.25 2.47.7a7.4 7.4 0 0 1 6.02 2.12 7.4 7.4 0 0 1 2.17 5.22q0 .51-.08 1.02a5 5 0 0 1 .6 2.28 4.6 4.6 0 0 1-1.37 3.3 4.7 4.7 0 0 1-3.3 1.36c-.84 0-1.66-.23-2.37-.64a7.4 7.4 0 0 1-6.11-2.11A7.4 7.4 0 0 1 .53 8.04q0-.55.08-1.09a4.64 4.64 0 0 1 .76-5.59A4.7 4.7 0 0 1 4.67 0m.45 7.01q.27.46.73.77a7 7 0 0 0 1.25.65q.74.31 1.15.53.35.16.61.44.21.23.21.53a.9.9 0 0 1-.33.72q-.46.3-1 .27a3 3 0 0 1-1.04-.2l-.53-.26a1.3 1.3 0 0 0-.59-.15.7.7 0 0 0-.5.18.6.6 0 0 0-.2.49 1 1 0 0 0 .15.48 1 1 0 0 0 .46.35 5 5 0 0 0 2.21.42 5 5 0 0 0 1.63-.26 2.3 2.3 0 0 0 1.08-.8q.4-.61.38-1.33a2 2 0 0 0-.28-1.1 2.5 2.5 0 0 0-.77-.8A7 7 0 0 0 8.5 7.3l-.15-.06-1.01-.45a2 2 0 0 1-.54-.38.7.7 0 0 1-.2-.51.8.8 0 0 1 .38-.72 2 2 0 0 1 .97-.25q.4 0 .77.1.42.11.8.29.17.07.34.07a.6.6 0 0 0 .45-.19.7.7 0 0 0 .18-.5.7.7 0 0 0-.17-.47 1.4 1.4 0 0 0-.55-.35 4 4 0 0 0-.71-.18 6 6 0 0 0-1.02-.08 5 5 0 0 0-1.54.26 3 3 0 0 0-1.17.78 2 2 0 0 0-.45 1.29q-.02.56.25 1.06"/></svg>