<svg xmlns="http://www.w3.org/2000/svg" viewBox="0 0 16 16"><path d="M4.67 0c.88 0 1.73.25 2.47.7a7.42 7.42 0 0 1 6.02 2.12 7.37 7.37 0 0 1 2.17 5.21c0 .35-.03.7-.08 1.03a4.66 4.66 0 0 1 .6 2.28 4.64 4.64 0 0 1-1.37 3.3 4.67 4.67 0 0 1-3.3 1.36c-.84 0-1.66-.23-2.37-.64a7.42 7.42 0 0 1-6.11-2.11A7.37 7.37 0 0 1 .53 8.04c0-.37.02-.73.08-1.09a4.64 4.64 0 0 1 .76-5.59A4.68 4.68 0 0 1 4.67 0zm.45 7.01c.18.3.43.57.73.77a7.07 7.07 0 0 0 1.25.65c.5.2.88.38 1.15.53.23.1.44.26.61.44.14.15.21.33.21.53a.87.87 0 0 1-.33.72c-.3.2-.64.3-1 .27a2.62 2.62 0 0 1-1.04-.2 11.44 11.44 0 0 1-.53-.26 1.28 1.28 0 0 0-.59-.15.72.72 0 0 0-.5.18.63.63 0 0 0-.2.49.8.8 0 0 0 .15.48 1.2 1.2 0 0 0 .46.35 5.11 5.11 0 0 0 2.21.42 4.55 4.55 0 0 0 1.63-.26 2.3 2.3 0 0 0 1.08-.8c.26-.4.4-.86.38-1.33a2.09 2.09 0 0 0-.28-1.1 2.53 2.53 0 0 0-.77-.8A7.2 7.2 0 0 0 8.5 7.3a1.05 1.05 0 0 0-.15-.06 18.18 18.18 0 0 1-1.01-.45 1.83 1.83 0 0 1-.54-.38.73.73 0 0 1-.2-.51.8.8 0 0 1 .38-.72 1.76 1.76 0 0 1 .97-.25 4.23 4.23 0 0 1 1.57.39c.11.05.23.07.34.07a.6.6 0 0 0 .45-.19.69.69 0 0 0 .18-.5.72.72 0 0 0-.17-.47 1.37 1.37 0 0 0-.55-.35 3.69 3.69 0 0 0-.71-.18 5.96 5.96 0 0 0-1.02-.08 4.53 4.53 0 0 0-1.54.26 2.71 2.71 0 0 0-1.17.78 1.91 1.91 0 0 0-.45 1.29c-.01.37.07.73.25 1.06z"/></svg>