<svg xmlns="http://www.w3.org/2000/svg" width="16" height="16" viewBox="0 0 16 16"><path d="M3.36 10.11a1.68 1.68 0 0 1-3.36 0c0-.92.76-1.68 1.68-1.68h1.68zm.85 0a1.69 1.69 0 0 1 3.36 0v4.21c0 .92-.76 1.68-1.68 1.68a1.7 1.7 0 0 1-1.68-1.68zm1.68-6.75a1.68 1.68 0 1 1 1.68-1.68v1.68zm0 .85a1.69 1.69 0 0 1 0 3.36H1.68a1.68 1.68 0 0 1 0-3.36zm6.75 1.68a1.68 1.68 0 1 1 1.68 1.68h-1.68zm-.85 0c0 .92-.75 1.68-1.68 1.68a1.7 1.7 0 0 1-1.68-1.68V1.68a1.68 1.68 0 0 1 3.36 0zm-1.68 6.75a1.68 1.68 0 1 1-1.68 1.68v-1.68zm0-.85a1.68 1.68 0 0 1 0-3.36h4.21a1.68 1.68 0 0 1 0 3.36z"/></svg>