<svg xmlns="http://www.w3.org/2000/svg" viewBox="0 0 16 16"><path d="M9 5a.5.5 0 0 0-1 0v3H6a.5.5 0 0 0 0 1h2.5a.5.5 0 0 0 .5-.5V5z"/><path d="M4 1.67v.38A2.5 2.5 0 0 0 2 4.5v7a2.5 2.5 0 0 0 2 2.45v.38c0 .92.75 1.67 1.67 1.67h4.66c.92 0 1.67-.75 1.67-1.67v-.38a2.5 2.5 0 0 0 2-2.45V8h.5a.5.5 0 0 0 .5-.5v-2a.5.5 0 0 0-.5-.5H14v-.5a2.5 2.5 0 0 0-2-2.45v-.38C12 .75 11.25 0 10.33 0H5.67C4.75 0 4 .75 4 1.67zM4.5 3h7A1.5 1.5 0 0 1 13 4.5v7a1.5 1.5 0 0 1-1.5 1.5h-7A1.5 1.5 0 0 1 3 11.5v-7A1.5 1.5 0 0 1 4.5 3z"/></svg>