<svg xmlns="http://www.w3.org/2000/svg" width="16" height="16" viewBox="0 0 16 16" id="icon"><path d="M15.94 11.53c-.1-.3-.32-.47-.56-.6l-.12-.07-.22-.1q-1.13-.6-1.75-1.5a3 3 0 0 1-.3-.54q-.04-.14 0-.2l.09-.1.72-.48q.46-.33.66-.7a1.4 1.4 0 0 0 .07-1.16c-.2-.54-.71-.87-1.33-.87a2 2 0 0 0-.48.06q.01-.56-.04-1.14a4 4 0 0 0-1.08-2.6 4 4 0 0 0-1.1-.89A5 5 0 0 0 8 0Q6.62 0 5.5.64a4.3 4.3 0 0 0-2.18 3.5q-.04.58-.04 1.13a2 2 0 0 0-.48-.06c-.62 0-1.13.33-1.33.87a1.4 1.4 0 0 0 .07 1.16q.2.39.66.7l.37.25.34.22.1.1q.04.08 0 .23a3 3 0 0 1-.3.52q-.6.87-1.7 1.47c-.38.2-.78.34-.95.8-.13.35-.05.74.28 1.07q.18.2.4.31a4 4 0 0 0 1 .4l.2.1c.13.1.11.25.27.48q.12.18.3.3c.32.23.7.24 1.09.26.35.01.76.03 1.21.18q.3.1.62.33c.55.33 1.3.8 2.57.8s2.02-.47 2.58-.8q.33-.23.6-.33c.46-.15.87-.17 1.22-.18.4-.01.77-.03 1.1-.26a1 1 0 0 0 .33-.37c.12-.19.11-.32.22-.42l.19-.08a5 5 0 0 0 1.01-.4q.25-.14.43-.34c.31-.33.39-.72.26-1.05m-1.12.6c-.68.38-1.14.33-1.5.56-.3.2-.11.61-.33.76-.27.19-1.06 0-2.09.33-.84.28-1.38 1.08-2.9 1.08s-2.04-.8-2.9-1.08c-1.03-.34-1.82-.14-2.09-.33-.22-.15-.04-.57-.34-.76-.35-.23-.8-.19-1.49-.56-.44-.24-.19-.4-.04-.46C3.6 10.47 4 8.62 4.03 8.48c.02-.17.04-.3-.14-.47s-.96-.65-1.18-.8c-.36-.25-.52-.5-.4-.81.08-.21.28-.3.49-.3l.2.03c.39.08.77.28 1 .33l.08.02q.17 0 .15-.2C4.2 5.85 4.14 5 4.2 4.21c.1-1.08.44-1.62.86-2.1A3.8 3.8 0 0 1 8 .9c1.8 0 2.73.98 2.93 1.21.42.48.77 1.02.86 2.1.07.79 0 1.63-.02 2.07q-.02.2.15.2l.08-.02c.23-.05.61-.25 1-.34l.2-.02c.21 0 .41.08.5.3q.14.44-.4.8c-.23.16-1.01.64-1.19.8-.18.18-.16.3-.14.47.02.14.42 2 2.9 3.2.14.07.39.22-.05.46"/></svg>