<svg viewBox="0 0 16 16"><path d="M15.94 11.53c-.1-.3-.32-.47-.56-.6a1.42 1.42 0 0 0-.12-.07l-.22-.1a4.9 4.9 0 0 1-1.75-1.5 3.39 3.39 0 0 1-.3-.54c-.03-.1-.03-.15 0-.2a.34.34 0 0 1 .09-.1 29.16 29.16 0 0 1 .72-.48c.31-.22.53-.45.66-.7a1.4 1.4 0 0 0 .07-1.16c-.2-.54-.71-.87-1.33-.87a1.83 1.83 0 0 0-.48.06c0-.37 0-.76-.04-1.14a4.15 4.15 0 0 0-1.08-2.6 4.3 4.3 0 0 0-1.1-.89A5 5 0 0 0 8 0a5 5 0 0 0-2.5.64 4.3 4.3 0 0 0-2.18 3.5c-.03.38-.04.77-.04 1.13a1.83 1.83 0 0 0-.48-.06c-.62 0-1.13.33-1.33.87a1.4 1.4 0 0 0 .07 1.16c.13.26.35.49.66.7l.37.25.34.22a.38.38 0 0 1 .1.1c.03.06.03.12 0 .23a3.36 3.36 0 0 1-.3.52c-.4.58-.97 1.07-1.7 1.47-.38.2-.78.34-.95.8-.13.35-.05.74.28 1.07.12.13.25.23.4.31a4.43 4.43 0 0 0 1 .4.66.66 0 0 1 .2.1c.13.1.11.25.27.48.08.12.18.22.3.3.32.23.7.24 1.09.26.35.01.76.03 1.21.18.2.06.4.18.62.33.55.33 1.3.8 2.57.8 1.26 0 2.02-.47 2.57-.8.23-.15.43-.27.61-.33.46-.15.87-.17 1.22-.18.4-.01.77-.03 1.1-.26a1.14 1.14 0 0 0 .33-.37c.12-.19.11-.32.22-.42a.63.63 0 0 1 .19-.08 4.45 4.45 0 0 0 1.01-.4c.16-.1.31-.2.43-.34.31-.33.39-.72.26-1.05Zm-1.12.6c-.68.38-1.14.33-1.5.56-.3.2-.11.61-.33.76-.27.19-1.06 0-2.09.33-.84.28-1.38 1.08-2.9 1.08s-2.04-.8-2.9-1.08c-1.03-.34-1.82-.14-2.09-.33-.22-.15-.04-.57-.34-.76-.35-.23-.8-.19-1.49-.56-.44-.24-.19-.4-.04-.46C3.6 10.47 4 8.62 4.03 8.48c.02-.17.04-.3-.14-.47-.18-.16-.96-.65-1.18-.8-.36-.25-.52-.5-.4-.81.08-.21.28-.3.49-.3a.93.93 0 0 1 .2.03c.39.08.77.28 1 .34h.08c.11 0 .16-.05.15-.19C4.2 5.85 4.14 5 4.2 4.22c.1-1.09.44-1.63.86-2.1A3.83 3.83 0 0 1 8 .9c1.8 0 2.73.99 2.93 1.21.42.48.77 1.02.86 2.1.07.79 0 1.63-.02 2.07-.01.14.03.2.15.2a.35.35 0 0 0 .08-.02c.23-.05.61-.25 1-.34a.91.91 0 0 1 .2-.02c.21 0 .41.08.5.3.11.3-.05.56-.4.8-.23.16-1.01.65-1.19.8-.18.18-.16.3-.14.48.02.14.42 1.99 2.9 3.18.14.08.39.23-.05.47Z"/></svg>