<svg viewBox="0 0 16 16"><path d="M8 16a.5.5 0 0 1-.5-.5v-1.3l-.65.65a.5.5 0 0 1-.7-.7l1.35-1.36v-1.08l-.65.64a.5.5 0 0 1-.7-.7l1.35-1.36V8.87l-1.24.7-.5 1.86a.5.5 0 1 1-.96-.26l.24-.88-.94.54-.5 1.85a.5.5 0 1 1-.96-.26l.23-.88-1.12.64a.5.5 0 0 1-.5-.86l1.13-.65-.89-.24a.5.5 0 1 1 .26-.96l1.85.5.94-.55-.88-.24a.5.5 0 1 1 .25-.96l1.85.5L7 8l-1.24-.71-1.84.5a.5.5 0 1 1-.26-.97l.88-.24-.94-.54-1.85.5a.5.5 0 0 1-.26-.97l.89-.24-1.13-.65a.5.5 0 1 1 .5-.86l1.13.64-.24-.88a.5.5 0 0 1 .96-.26l.5 1.85.94.54-.24-.88a.5.5 0 0 1 .97-.26l.5 1.85 1.23.71V5.71L6.15 4.35a.5.5 0 1 1 .7-.7l.65.64V3.21L6.15 1.85a.5.5 0 1 1 .7-.7l.65.64V.5a.5.5 0 0 1 1 0v1.3l.65-.65a.5.5 0 1 1 .7.7L8.5 3.21v1.08l.65-.64a.5.5 0 1 1 .7.7L8.5 5.71v1.42l1.24-.7.5-1.86a.5.5 0 1 1 .96.26l-.24.88.94-.54.5-1.85a.5.5 0 1 1 .96.26l-.23.88 1.12-.64a.5.5 0 0 1 .5.86l-1.12.65.88.24a.5.5 0 1 1-.26.96l-1.85-.5-.94.55.88.24a.5.5 0 1 1-.26.96l-1.84-.5L9 8l1.24.71 1.85-.5a.5.5 0 0 1 .25.97l-.88.24.94.54 1.85-.5a.5.5 0 0 1 .26.97l-.88.24 1.12.65a.5.5 0 0 1-.5.86l-1.12-.64.23.88a.5.5 0 1 1-.96.26l-.5-1.85-.94-.54.24.88a.5.5 0 0 1-.97.26l-.5-1.85-1.23-.71v1.42l1.35 1.36a.5.5 0 0 1-.7.7l-.65-.64v1.08l1.35 1.36a.5.5 0 0 1-.7.7l-.65-.64v1.29a.5.5 0 0 1-.5.5z"/></svg>