<svg xmlns="http://www.w3.org/2000/svg" width="16" height="16" viewBox="0 0 16 16" id="icon"><path d="M8 7.5a.5.5 0 1 0 0 1 .5.5 0 0 0 0-1"/><path d="M8 16a.5.5 0 0 1-.5-.5v-1.3l-.65.65a.5.5 0 0 1-.7-.7l1.35-1.36v-1.5l-2.05-1.24-1.35.78-.5 1.85a.5.5 0 1 1-.96-.26l.23-.88-1.12.64a.5.5 0 0 1-.5-.86l1.13-.65-.89-.24a.5.5 0 1 1 .26-.96l1.85.5L5 9.14v-2.3l-1.4-.81-1.85.5a.5.5 0 1 1-.26-.97l.89-.24-1.12-.65a.5.5 0 0 1 .5-.86l1.12.64-.24-.88a.5.5 0 1 1 .96-.26l.5 1.85 1.35.78L7.5 4.72V3.2L6.15 1.85a.5.5 0 1 1 .7-.7l.65.64V.5a.5.5 0 0 1 1 0v1.3l.65-.65a.5.5 0 1 1 .7.7L8.5 3.21v1.5l2.05 1.24 1.35-.78.5-1.85a.5.5 0 1 1 .96.26l-.23.88 1.12-.64a.5.5 0 0 1 .5.86l-1.12.65.88.24a.5.5 0 1 1-.26.96l-1.85-.5-1.4.81v2.31l1.4.81 1.85-.5a.5.5 0 1 1 .26.97l-.88.24 1.12.65a.5.5 0 0 1-.5.86l-1.12-.64.23.88a.5.5 0 1 1-.96.26l-.5-1.85-1.35-.78-2.05 1.23v1.51l1.35 1.36a.5.5 0 0 1-.7.7l-.65-.64v1.29a.5.5 0 0 1-.5.5m2-6.78V6.78l-2-1.2-2 1.2v2.44l2 1.2z"/></svg>