<svg xmlns="http://www.w3.org/2000/svg" width="16" height="16" viewBox="0 0 16 16" id="icon"><path d="M8 16a.5.5 0 0 1-.5-.5v-1.3l-.65.65a.5.5 0 0 1-.7-.7l1.35-1.36V8.87l-3.4 1.96-.5 1.85a.5.5 0 1 1-.96-.26l.23-.88-1.12.64a.5.5 0 0 1-.5-.86l1.13-.65-.89-.24a.5.5 0 1 1 .26-.96l1.85.5L7 8 3.6 6.04l-1.85.5a.5.5 0 0 1-.26-.97l.89-.24-1.12-.65a.5.5 0 1 1 .5-.86l1.12.64-.24-.88a.5.5 0 1 1 .96-.26l.5 1.85 3.4 1.96V3.21L6.15 1.85a.5.5 0 1 1 .7-.7l.65.64V.5a.5.5 0 1 1 1 0v1.3l.65-.65a.5.5 0 1 1 .7.7L8.5 3.21v3.92l3.4-1.96.5-1.85a.5.5 0 1 1 .96.26l-.23.88 1.12-.64a.5.5 0 0 1 .5.86l-1.12.65.88.24a.5.5 0 1 1-.26.96l-1.85-.5L9 8l3.4 1.96 1.85-.5a.5.5 0 0 1 .26.97l-.88.24 1.11.65a.5.5 0 0 1-.5.86l-1.11-.64.23.88a.5.5 0 1 1-.96.26l-.5-1.85-3.4-1.96v3.92l1.35 1.36a.5.5 0 0 1-.7.7l-.65-.64v1.29a.5.5 0 0 1-.5.5"/></svg>