<svg xmlns="http://www.w3.org/2000/svg" width="16" height="16" viewBox="0 0 16 16" id="icon"><path d="M12.44 1.67V7h-1.05V2.68h-.05l-1.21.86v-.97l1.26-.9z"/><path fill-rule="evenodd" d="M11.36 14.1c-1.14 0-1.7-.66-1.76-1.28h1c.06.22.34.45.77.45.83 0 1.17-.83 1.14-1.86h-.06c-.15.4-.57.75-1.26.75-.91 0-1.72-.62-1.72-1.76s.85-1.84 1.97-1.84c1.1 0 2.06.64 2.06 2.69 0 1.87-.72 2.85-2.14 2.85m.06-2.74c.5 0 .93-.33.93-.97s-.4-1-.94-1c-.52 0-.92.37-.92 1s.42.97.93.97"/><path d="M4.5 13.5a.5.5 0 0 1-1 0V3.7L2.35 4.86a.5.5 0 1 1-.7-.7l2-2v-.01a.5.5 0 0 1 .7 0l2 2a.5.5 0 1 1-.7.71L4.5 3.71z"/></svg>