<svg xmlns="http://www.w3.org/2000/svg" width="16" height="16" viewBox="0 0 16 16"><path d="M9.13 8.43c0-2.6-.93-3.79-1.42-4.24a.14.14 0 0 0-.23.12c.1 1.48-1.76 1.84-1.76 4.15v.01c0 1.4 1.06 2.55 2.37 2.55s2.38-1.15 2.38-2.55v-.01c0-.66-.25-1.29-.5-1.75-.05-.1-.18-.05-.17.03.45 1.99-.67 3.22-.67 1.69"/><path d="M6.3 13.92a.3.3 0 0 1-.16-.06L.06 7.79c-.08-.08-.08-.23 0-.33l6.42-6.4A.3.3 0 0 1 6.63 1h1.84q.17.02.2.14a.2.2 0 0 1-.05.24L2.6 7.41a.3.3 0 0 0 0 .43l4.77 4.77c.08.09.08.24 0 .33l-.92.93a.3.3 0 0 1-.15.05M7.52 15a.22.22 0 0 1-.15-.39l6.03-6.02a.3.3 0 0 0 .1-.22.3.3 0 0 0-.1-.22L8.63 3.37c-.08-.08-.08-.23 0-.32l.93-.93a.2.2 0 0 1 .17-.07q.09.01.15.08l6.06 6.07q.06.06.07.16a.2.2 0 0 1-.07.17l-6.42 6.4a.2.2 0 0 1-.16.07z"/></svg>