<svg xmlns="http://www.w3.org/2000/svg" viewBox="0 0 16 16"><path d="M8 2a.5.5 0 0 1 .5.5V4a.5.5 0 0 1-1 0V2.5A.5.5 0 0 1 8 2zM3.73 3.73a.5.5 0 0 1 .7 0l.92.92a.5.5 0 1 1-.7.7l-.92-.91a.5.5 0 0 1 0-.7zM2 8a.5.5 0 0 1 .5-.5h1.59a.5.5 0 0 1 0 1H2.5A.5.5 0 0 1 2 8zm9.5 0a.5.5 0 0 1 .5-.5h1.5a.5.5 0 0 1 0 1H12a.5.5 0 0 1-.5-.5zm.75-4.25a.39.39 0 0 0-.52-.02L7.55 7.31a.91.91 0 1 0 1.3 1.26l3.43-4.3a.39.39 0 0 0-.03-.52z"/><path fill-rule="evenodd" d="M6.66 15.89A8 8 0 1 1 9.34.1a8 8 0 0 1-2.68 15.78zM2 11.6A11.95 11.95 0 0 1 8 10c2.19 0 4.24.58 6 1.6a7 7 0 1 0-12 0z"/></svg>