<svg xmlns="http://www.w3.org/2000/svg" width="16" height="16" viewBox="0 0 16 16" id="icon"><path d="M8 4a.5.5 0 0 1 .5.5V6a.5.5 0 0 1-1 0V4.5A.5.5 0 0 1 8 4M3.73 5.73a.5.5 0 0 1 .7 0l.92.92a.5.5 0 1 1-.7.7l-.92-.91a.5.5 0 0 1 0-.7M2 10a.5.5 0 0 1 .5-.5h1.59a.5.5 0 0 1 0 1H2.5A.5.5 0 0 1 2 10m9.5 0a.5.5 0 0 1 .5-.5h1.5a.5.5 0 0 1 0 1H12a.5.5 0 0 1-.5-.5m.75-4.25a.4.4 0 0 0-.52-.02L7.55 9.31a.91.91 0 1 0 1.3 1.26l3.43-4.3a.4.4 0 0 0-.03-.52"/><path fill-rule="evenodd" d="M0 10a8 8 0 1 1 15.55 2.66c-.45 1.25-1.85 1.6-2.93 1.25A17 17 0 0 0 8 13c-1.47 0-3.31.49-4.61.91-1.1.35-2.5 0-2.94-1.25A8 8 0 0 1 0 10m8-7a7 7 0 0 0-6.6 9.33c.2.57.92.88 1.68.63C4.4 12.53 6.36 12 8 12s3.6.53 4.92.96c.76.25 1.48-.06 1.68-.63A7 7 0 0 0 8 3"/></svg>