<svg xmlns="http://www.w3.org/2000/svg" width="16" height="16" viewBox="0 0 16 16" id="icon"><path d="M8 2a.5.5 0 0 1 .5.5V4a.5.5 0 0 1-1 0V2.5A.5.5 0 0 1 8 2M3.73 3.73a.5.5 0 0 1 .7 0l.92.92a.5.5 0 1 1-.7.7l-.92-.91a.5.5 0 0 1 0-.7M2 8a.5.5 0 0 1 .5-.5h1.59a.5.5 0 0 1 0 1H2.5A.5.5 0 0 1 2 8m9.5 0a.5.5 0 0 1 .5-.5h1.5a.5.5 0 0 1 0 1H12a.5.5 0 0 1-.5-.5m.75-4.25a.4.4 0 0 0-.52-.02L7.55 7.31a.91.91 0 1 0 1.3 1.26l3.43-4.3a.4.4 0 0 0-.03-.52"/><path fill-rule="evenodd" d="M6.66 15.89A8 8 0 1 1 9.34.1a8 8 0 0 1-2.68 15.78M2 11.6A12 12 0 0 1 8 10c2.19 0 4.24.59 6 1.6a7 7 0 1 0-12 0"/></svg>