<svg viewBox="0 0 16 16"><path d="M8.22 11.07c1.21 0 1.94-.87 1.94-2.31v-.7c0-1.44-.72-2.3-1.92-2.3-.75 0-1.33.34-1.5.88h-.07V3.98H5.38V11h1.27v-.8h.07c.2.54.77.87 1.5.87zm-.43-1.03c-.66 0-1.12-.51-1.12-1.28v-.64c0-.82.42-1.34 1.1-1.34.69 0 1.08.51 1.08 1.41v.45c0 .9-.39 1.4-1.06 1.4zM2.2 11.08c.77 0 1.2-.36 1.41-.74h.06V11h1.22V7.52c0-1.31-.95-1.78-2.11-1.78-1.42 0-2.03.68-2.09 1.53h1.22c.06-.32.3-.55.84-.55.52 0 .86.25.86.77v.46H2.35C1.15 7.95.5 8.57.5 9.5c0 .97.7 1.58 1.7 1.58zm.42-.95c-.44 0-.84-.23-.84-.72 0-.4.27-.68.84-.68h.99v.54c0 .5-.44.86-.99.86zm8.9.57c-.58-.4-.9-1.09-.9-1.98v-.66c0-1.42.9-2.33 2.3-2.33 1.36 0 2.13.82 2.15 1.8h-1.2c-.03-.35-.27-.77-.91-.77-.67 0-1.04.51-1.04 1.32v.63c0 .47.12.83.34 1.07l-.74.92z"/><path d="M14.47 9.41a.75.75 0 0 1 .12 1.06l-4 5a.75.75 0 0 1-1.12.06l-2.5-2.5a.75.75 0 1 1 1.06-1.06l1.9 1.9 3.48-4.34a.75.75 0 0 1 1.06-.12z"/></svg>