<svg xmlns="http://www.w3.org/2000/svg" width="16" height="16" viewBox="0 0 16 16"><path d="M7.66 6.25a.36.36 0 0 1 .68 0L9 8.18a2.9 2.9 0 0 0 1.83 1.83l1.93.65c.33.1.33.57 0 .68l-1.93.65A2.9 2.9 0 0 0 9 13.82l-.65 1.93a.36.36 0 0 1-.68 0L7 13.82a2.9 2.9 0 0 0-1.83-1.83l-1.93-.65a.36.36 0 0 1 0-.68L5.18 10a2.9 2.9 0 0 0 1.83-1.83zm-3.87-5.1a.22.22 0 0 1 .42 0l.38 1.16c.18.52.58.92 1.1 1.1l1.16.38a.22.22 0 0 1 0 .42l-1.16.38a1.7 1.7 0 0 0-1.1 1.1l-.38 1.16a.22.22 0 0 1-.42 0L3.41 5.7a1.7 1.7 0 0 0-1.1-1.1l-1.16-.38a.22.22 0 0 1 0-.42l1.16-.38a1.7 1.7 0 0 0 1.1-1.1zM10.86.1a.14.14 0 0 1 .28 0l.25.77c.12.35.4.62.74.74l.77.25a.14.14 0 0 1 0 .28l-.77.25a1.2 1.2 0 0 0-.74.74l-.25.77a.14.14 0 0 1-.28 0l-.25-.77a1.2 1.2 0 0 0-.74-.74l-.77-.25a.14.14 0 0 1 0-.28l.77-.26q.54-.19.74-.73z"/></svg>