<svg xmlns="http://www.w3.org/2000/svg" width="16" height="16" viewBox="0 0 16 16" id="icon"><path d="M.33 10.33A8 8 0 0 0 7.99 16a8 8 0 1 0 0-16A8 8 0 0 0 0 7.47l4.3 1.77a2.2 2.2 0 0 1 1.32-.36l1.96-2.84V6a3.05 3.05 0 0 1 3.04-3.05A3.05 3.05 0 0 1 13.66 6a3.05 3.05 0 0 1-3.1 3.04l-2.81 2a2.22 2.22 0 0 1-3.08 2.11 2.2 2.2 0 0 1-1.3-1.57z"/><path d="M4.87 12.68a1.72 1.72 0 0 0 1.32-3.16 1.7 1.7 0 0 0-1.27-.02l1.03.42a1.26 1.26 0 1 1-.97 2.33l-1-.4a1.7 1.7 0 0 0 .89.83M8.59 6a2.03 2.03 0 0 0 2.03 2.02A2.03 2.03 0 0 0 12.65 6a2.03 2.03 0 0 0-2.03-2.03A2.03 2.03 0 0 0 8.6 6m2.03-1.53a1.52 1.52 0 1 1 0 3.05 1.52 1.52 0 0 1 0-3.05"/></svg>