<svg xmlns="http://www.w3.org/2000/svg" width="16" height="16" viewBox="0 0 16 16"><path d="M8 1a3.25 3.25 0 0 0-3.25 3.25 3 3 0 0 0 .14.94l.19.66-.7-.03a3.25 3.25 0 1 0 2.36 5.34.5.5 0 0 1 .85.52l-.01.02-.03.05-.44.92a22 22 0 0 1-1.26 2.2q-.02.03 0 .09l.03.03.02.01h4.22l.03-.04q.03-.06 0-.1a23 23 0 0 1-1.7-3.1l-.03-.06v-.02a.5.5 0 0 1 .83-.53c.6.7 1.52 1.17 2.5 1.17a3.25 3.25 0 1 0-.14-6.5l-.7.03.2-.67c.14-.47.14-.74.14-.92v-.01A3.25 3.25 0 0 0 8 1m2.2 12.02q.35.61.79 1.3c.45.68-.02 1.68-.89 1.68H5.9c-.88 0-1.34-1-.89-1.68q.45-.68.78-1.29a4.25 4.25 0 1 1-2-8.18l-.02-.07q-.03-.26-.02-.52v-.01a4.25 4.25 0 0 1 8.5 0q.01.2-.04.6a4.25 4.25 0 0 1-.46 8.47 4 4 0 0 1-1.54-.3"/></svg>