<svg xmlns="http://www.w3.org/2000/svg" viewBox="0 0 16 16"><path d="m8 6.24-.9-1.8a5.86 5.86 0 0 0-1.15-1.59A2.8 2.8 0 0 0 4 2C2.32 2 1 3.33 1 4.92c0 1.21.55 2.07 1.87 3.37L4 9.39a52.63 52.63 0 0 1 4 4.05 52.63 52.63 0 0 1 3.99-4.07l1.14-1.09C14.45 6.99 15 6.13 15 4.92 15 3.32 13.68 2 12 2a2.8 2.8 0 0 0-1.95.85 5.86 5.86 0 0 0-1.16 1.6L8 6.24zm.4 8.29a.51.51 0 0 1-.8 0 48.78 48.78 0 0 0-4.24-4.38C1.3 8.2 0 6.99 0 4.92A3.96 3.96 0 0 1 4 1c1.6 0 2.72 1.05 3.4 2 .26.37.46.72.6 1a7.55 7.55 0 0 1 .6-1c.68-.95 1.8-2 3.4-2 2.21 0 4 1.75 4 3.92 0 2.07-1.3 3.29-3.37 5.23-1.19 1.12-2.64 2.48-4.24 4.38z"/></svg>