<svg xmlns="http://www.w3.org/2000/svg" width="16" height="16" viewBox="0 0 16 16" id="icon"><path d="m8 6.24-.9-1.8a6 6 0 0 0-1.15-1.59A2.8 2.8 0 0 0 4 2C2.32 2 1 3.33 1 4.92c0 1.21.55 2.07 1.87 3.37L4 9.39a53 53 0 0 1 4 4.05 53 53 0 0 1 3.99-4.07l1.14-1.09C14.45 6.99 15 6.13 15 4.92 15 3.32 13.68 2 12 2a2.8 2.8 0 0 0-1.95.85 6 6 0 0 0-1.16 1.6zm.4 8.29a.5.5 0 0 1-.8 0 49 49 0 0 0-4.24-4.38C1.3 8.2 0 6.99 0 4.92A3.96 3.96 0 0 1 4 1c1.6 0 2.72 1.05 3.4 2q.39.57.6 1a8 8 0 0 1 .6-1c.68-.95 1.8-2 3.4-2 2.21 0 4 1.76 4 3.92 0 2.07-1.3 3.29-3.36 5.23a48 48 0 0 0-4.25 4.38"/></svg>