<svg xmlns="http://www.w3.org/2000/svg" viewBox="0 0 16 16"><path d="M8 1a3.25 3.25 0 0 0-3.25 3.25 3.22 3.22 0 0 0 .14.94l.19.66-.7-.03a3.25 3.25 0 1 0 2.36 5.34.5.5 0 0 1 .85.52l-.01.02-.03.05a21.9 21.9 0 0 1-.44.92 22.38 22.38 0 0 1-1.26 2.2.1.1 0 0 0 0 .09c0 .02.02.03.03.03a.04.04 0 0 0 .02.01h4.22a.1.1 0 0 0 .03-.04c.02-.04.02-.07 0-.1a22.88 22.88 0 0 1-1.7-3.1l-.03-.06v-.02a.5.5 0 0 1 .83-.53c.6.7 1.52 1.17 2.5 1.17a3.25 3.25 0 1 0-.14-6.5l-.7.03.2-.67c.14-.47.14-.74.14-.92v-.01A3.25 3.25 0 0 0 8 1zm2.2 12.02c.23.4.5.85.79 1.3.45.68-.02 1.68-.89 1.68H5.9c-.88 0-1.34-1-.89-1.68.3-.45.56-.88.78-1.29a4.25 4.25 0 1 1-2-8.18 2.79 2.79 0 0 1-.02-.07c-.02-.18-.02-.34-.02-.52v-.01a4.25 4.25 0 0 1 8.5 0c0 .14 0 .33-.04.6a4.25 4.25 0 0 1-.46 8.47 4.19 4.19 0 0 1-1.54-.3z"/></svg>