<svg viewBox="0 0 16 16"><path d="M8 0a.5.5 0 0 1 .43.24 20.27 20.27 0 0 0 4.25 4.88l.28.26C14.31 6.6 15.5 7.75 15.5 9.5a4 4 0 0 1-5.4 3.75c.23.39.49.78.72 1.13.43.66-.01 1.62-.86 1.62H6.04c-.84 0-1.29-.96-.86-1.62.27-.4.51-.78.73-1.14A4 4 0 0 1 .5 9.5c0-1.75 1.2-2.9 2.54-4.12l.28-.26c1.33-1.2 2.9-2.61 4.25-4.88A.5.5 0 0 1 8 0zM3.71 6.12C2.31 7.4 1.5 8.25 1.5 9.5a3 3 0 0 0 5.28 1.96.5.5 0 0 1 .86.43c-.1.43-.33.93-.6 1.42a29.25 29.25 0 0 1-1.02 1.62.03.03 0 0 0 0 .02.07.07 0 0 0 .02.05h3.92a.07.07 0 0 0 .03-.05.03.03 0 0 0 0-.02c-.3-.46-.67-1-.97-1.54a5.86 5.86 0 0 1-.66-1.5.5.5 0 0 1 .87-.43A3 3 0 0 0 14.5 9.5c0-1.25-.8-2.1-2.21-3.38L12 5.86a22.63 22.63 0 0 1-4-4.42c-1.33 2-2.8 3.34-4 4.42l-.29.26z"/></svg>