<svg viewBox="0 0 16 16"><path d="M7.65 1.15a.5.5 0 0 1 .7 0l1.5 1.5a.5.5 0 0 1-.7.7l-.65-.64V4.5a.5.5 0 0 1-1 0V2.7l-.65.65a.5.5 0 1 1-.7-.7l1.5-1.5zm-5.3 3.2a.5.5 0 0 1 .7 0l1.41 1.4a.5.5 0 0 1-.7.71L2.34 5.05a.5.5 0 0 1 0-.7zm11.3 0a.5.5 0 0 1 0 .7l-1.4 1.41a.5.5 0 1 1-.71-.7l1.41-1.42a.5.5 0 0 1 .7 0zM8 7a3 3 0 0 1 2.6 4.5H5.4A3 3 0 0 1 8 7zm3.71 4.5a4 4 0 1 0-7.42 0H.5a.5.5 0 0 0 0 1h15a.5.5 0 0 0 0-1h-3.78zM0 10a.5.5 0 0 1 .5-.5h2a.5.5 0 0 1 0 1h-2A.5.5 0 0 1 0 10zm13 0a.5.5 0 0 1 .5-.5h2a.5.5 0 0 1 0 1h-2a.5.5 0 0 1-.5-.5z"/></svg>