<svg xmlns="http://www.w3.org/2000/svg" width="16" height="16" viewBox="0 0 16 16" id="icon"><path d="M7.65 4.85a.5.5 0 0 0 .7 0l1.5-1.5a.5.5 0 0 0-.7-.7l-.65.64V1.5a.5.5 0 0 0-1 0v1.8l-.65-.65a.5.5 0 1 0-.7.7zm-5.3-.5a.5.5 0 0 1 .7 0l1.41 1.4a.5.5 0 0 1-.7.71L2.34 5.05a.5.5 0 0 1 0-.7zm11.3 0a.5.5 0 0 1 0 .7l-1.4 1.41a.5.5 0 1 1-.71-.7l1.41-1.42a.5.5 0 0 1 .7 0m-1.94 7.15a4 4 0 1 0-7.42 0H.5a.5.5 0 0 0 0 1h15a.5.5 0 0 0 0-1zM0 10a.5.5 0 0 1 .5-.5h2a.5.5 0 0 1 0 1h-2A.5.5 0 0 1 0 10m13 0a.5.5 0 0 1 .5-.5h2a.5.5 0 0 1 0 1h-2a.5.5 0 0 1-.5-.5"/></svg>