<svg viewBox="0 0 16 16"><path d="m4.86 5.28-.95 1.91a.51.51 0 0 0 .5.73c.9-.07 2.34-.17 3.59-.17s2.69.1 3.6.17a.51.51 0 0 0 .5-.73l-.96-1.91a.5.5 0 0 0-.45-.28H5.31a.5.5 0 0 0-.45.28ZM4 10a1 1 0 1 1-2 0 1 1 0 0 1 2 0Zm10 0a1 1 0 1 1-2 0 1 1 0 0 1 2 0Zm-9 0a1 1 0 0 1 1-1h4a1 1 0 1 1 0 2H6a1 1 0 0 1-1-1Z"/><path d="M6 1a1 1 0 0 0-1 1v1h-.18a2.5 2.5 0 0 0-2.3 1.51l-.8 1.85a.8.8 0 0 1-.37.4c-.5.26-.86.72-.97 1.27L.05 9.7a2.5 2.5 0 0 0-.05.49v.41c0 .82.4 1.54 1 2v1.89a.5.5 0 0 0 .5.5h2a.5.5 0 0 0 .5-.5v-1.34c1.3.05 2.75.09 4 .09s2.7-.04 4-.09v1.34a.5.5 0 0 0 .5.5h2a.5.5 0 0 0 .5-.5v-1.9c.61-.45 1-1.17 1-1.99v-.41c0-.17-.02-.33-.05-.5l-.33-1.67a1.8 1.8 0 0 0-.97-1.26.8.8 0 0 1-.38-.4l-.79-1.85A2.5 2.5 0 0 0 11.18 3H11V2a1 1 0 0 0-1-1H6ZM4.82 4h6.36a1.5 1.5 0 0 1 1.38.91l.8 1.85a1.8 1.8 0 0 0 .85.9c.22.11.38.32.42.56l.34 1.68.03.3v.41a1.48 1.48 0 0 1-1.4 1.49c-1.56.07-3.8.15-5.6.15-1.8 0-4.04-.08-5.6-.15A1.48 1.48 0 0 1 1 10.6v-.41l.03-.3.34-1.68a.8.8 0 0 1 .42-.56c.39-.19.69-.51.86-.9l.79-1.85A1.5 1.5 0 0 1 4.82 4Z"/></svg>