<svg viewBox="0 0 16 16"><path d="M15.85.15a.5.5 0 0 1 0 .7L11.71 5h2.79a.5.5 0 0 1 0 1h-4a.5.5 0 0 1-.5-.5v-4a.5.5 0 0 1 1 0v2.8L15.15.14a.5.5 0 0 1 .7 0zM3.65 1.33a.68.68 0 0 0-1.01-.07L1.6 2.3a1.72 1.72 0 0 0-.45 1.77 17.57 17.57 0 0 0 4.17 6.6 17.57 17.57 0 0 0 6.61 4.18c.6.2 1.29.03 1.77-.45l1.04-1.04a.68.68 0 0 0-.07-1.01l-2.3-1.8a.68.68 0 0 0-.58-.12l-2.2.55a1.75 1.75 0 0 1-1.65-.46L5.48 8.06a1.75 1.75 0 0 1-.46-1.66l.55-2.19a.68.68 0 0 0-.12-.58l-1.8-2.3zM1.88.5A1.75 1.75 0 0 1 4.5.67l1.79 2.31c.33.42.45.97.32 1.5l-.55 2.18a.68.68 0 0 0 .18.65l2.45 2.45a.68.68 0 0 0 .65.18l2.19-.54a1.75 1.75 0 0 1 1.49.31l2.3 1.8c.84.64.91 1.86.17 2.6l-1.03 1.04a2.78 2.78 0 0 1-2.88.7 18.63 18.63 0 0 1-7.01-4.42 18.63 18.63 0 0 1-4.42-7 2.78 2.78 0 0 1 .7-2.88L1.88.5z"/></svg>