<svg viewBox="0 0 16 16"><path d="M16 8A8 8 0 1 1 0 8a8 8 0 0 1 16 0zM8.29 5.9c-.78.33-2.34 1-4.67 2.02-.38.15-.58.3-.6.44-.02.24.28.34.7.47l.17.05c.4.14.96.3 1.24.3.26 0 .55-.1.87-.32a82.86 82.86 0 0 1 3.38-2.23c.05-.02.12-.03.16.01.05.04.04.12.04.14-.03.13-1.23 1.24-1.85 1.82-.19.18-.33.3-.35.34a8.15 8.15 0 0 1-.2.18c-.37.37-.66.64.02 1.1A66.24 66.24 0 0 1 9 11.41c.1.05.18.12.27.18.33.23.63.45 1 .41.2-.02.43-.22.54-.82.27-1.42.79-4.48.9-5.75a1.43 1.43 0 0 0 0-.31.34.34 0 0 0-.12-.22.53.53 0 0 0-.3-.1c-.3.01-.77.17-3 1.1z"/></svg>