<svg xmlns="http://www.w3.org/2000/svg" width="16" height="16" viewBox="0 0 16 16" id="icon"><path fill-rule="evenodd" d="M1.89.51a1.75 1.75 0 0 1 2.6.16l1.8 2.31c.33.42.45.97.32 1.5l-.55 2.18a.7.7 0 0 0 .18.65l2.45 2.45a.7.7 0 0 0 .65.18l2.19-.54a1.8 1.8 0 0 1 1.49.31l2.3 1.8c.84.64.91 1.86.17 2.6l-1.03 1.04a2.8 2.8 0 0 1-2.88.7 18.6 18.6 0 0 1-7.01-4.42 18.6 18.6 0 0 1-4.42-7 2.8 2.8 0 0 1 .7-2.88zM15.85.15a.5.5 0 0 1 0 .7L11.71 5h2.79a.5.5 0 0 1 0 1h-4a.5.5 0 0 1-.5-.5v-4a.5.5 0 0 1 1 0v2.8L15.15.14a.5.5 0 0 1 .7 0"/></svg>