<svg xmlns="http://www.w3.org/2000/svg" viewBox="0 0 16 16"><path fill-rule="evenodd" d="M1.89.51a1.75 1.75 0 0 1 2.6.16l1.8 2.31c.33.42.45.97.32 1.5l-.55 2.18a.68.68 0 0 0 .18.65l2.45 2.45a.68.68 0 0 0 .65.18l2.19-.54a1.75 1.75 0 0 1 1.49.31l2.3 1.8c.84.64.91 1.86.17 2.6l-1.03 1.04a2.78 2.78 0 0 1-2.88.7 18.63 18.63 0 0 1-7.01-4.42 18.63 18.63 0 0 1-4.42-7 2.78 2.78 0 0 1 .7-2.88L1.88.5zm10.76.14a.5.5 0 0 1 .7 0l2.5 2.5a.5.5 0 0 1 0 .7l-2.5 2.5a.5.5 0 0 1-.7-.7L14.29 4H9.5a.5.5 0 0 1 0-1h4.8l-1.65-1.65a.5.5 0 0 1 0-.7z"/></svg>