<svg xmlns="http://www.w3.org/2000/svg" width="16" height="16" viewBox="0 0 16 16" id="icon"><path d="M3.65 1.33a.7.7 0 0 0-1.01-.06L1.6 2.3a1.7 1.7 0 0 0-.45 1.77 18 18 0 0 0 4.17 6.6 17.6 17.6 0 0 0 6.61 4.18c.6.2 1.29.03 1.77-.45l1.04-1.04a.7.7 0 0 0-.07-1.01l-2.3-1.8a.7.7 0 0 0-.58-.12l-2.2.55a1.8 1.8 0 0 1-1.65-.46L5.48 8.06a1.8 1.8 0 0 1-.46-1.66l.55-2.19a.7.7 0 0 0-.12-.58zM1.88.5A1.75 1.75 0 0 1 4.5.67l1.79 2.31c.33.42.45.97.32 1.5l-.55 2.18a.7.7 0 0 0 .18.65l2.45 2.45a.7.7 0 0 0 .65.18l2.19-.54a1.8 1.8 0 0 1 1.49.31l2.3 1.8c.84.64.91 1.86.17 2.6l-1.03 1.04a2.8 2.8 0 0 1-2.88.7 18.6 18.6 0 0 1-7.01-4.42 18.6 18.6 0 0 1-4.42-7 2.8 2.8 0 0 1 .7-2.88z"/><path fill-rule="evenodd" d="M11.15 1.65a.5.5 0 0 1 .7 0L13 2.79l1.15-1.14a.5.5 0 0 1 .7.7L13.71 3.5l1.14 1.15a.5.5 0 0 1-.7.7L13 4.21l-1.15 1.14a.5.5 0 0 1-.7-.7l1.14-1.15-1.14-1.15a.5.5 0 0 1 0-.7"/></svg>