<svg viewBox="0 0 16 16"><path d="M6.05 3.32c.02.28-.13.53-.34.55-.21.03-.4-.17-.42-.45-.02-.28.13-.52.34-.55.2-.03.4.18.42.45Zm2.26-.24c-.6-.14-.9.26-.93.34-.03.04-.01.11.03.15.05.03.1.02.12 0 .36-.4.75-.18.83-.14l.01.01c.06.03.15.03.2-.1a.17.17 0 0 0-.01-.14.53.53 0 0 0-.25-.12Z"/><path d="M11.73 6.72v-.56c0-3.07-1.44-6.15-5-6.15C3.15 0 1.7 3.09 1.7 6.16v.56L1 8.52a25.85 25.85 0 0 0-.54 1.5c-.68 2.19-.46 3.1-.29 3.11.36.05 1.4-1.64 1.4-1.64 0 .98.5 2.25 1.6 3.18-.41.12-.91.32-1.23.55-.3.22-.25.43-.2.52.23.39 3.92.25 4.98.13 1.07.12 4.76.26 4.99-.13.05-.09.08-.3-.2-.52a4.5 4.5 0 0 0-1.23-.55 4.37 4.37 0 0 0 1.6-3.18s1.03 1.69 1.4 1.64c.16-.02.38-.92-.3-3.1a25.78 25.78 0 0 0-.53-1.52l-.72-1.8ZM9.77 5.53a.1.1 0 0 1 0 .1c-.12.16-1.56.94-3.04.94h-.02a5.61 5.61 0 0 1-3.03-.94.1.1 0 0 1-.02-.06l.01-.04c.13-.29 1.43-.6 3.04-.6h.02c1.61 0 2.91.31 3.04.6Zm-4.32-.99c-.48.02-.9-.53-.92-1.23-.03-.7.34-1.28.83-1.3.48-.03.9.52.92 1.22.03.7-.34 1.29-.83 1.31Zm2.54 0c-.48-.02-.85-.6-.83-1.3.03-.7.44-1.26.93-1.24.48.03.85.61.82 1.31-.02.7-.44 1.25-.92 1.23ZM2.93 9l.64.12v2.33s1.1.23 2.2.07V9.36l.94.03h.02c1.12 0 2.48-.14 3.79-.4.1.62.15 1.39.1 2.28-.15 2.45-1.6 4-3.85 4.02h-.1c-2.24-.03-3.7-1.57-3.84-4.02-.05-.9 0-1.66.1-2.28Z"/></svg>