<svg xmlns="http://www.w3.org/2000/svg" width="16" height="16" viewBox="0 0 16 16" id="icon"><path d="M6.05 3.32c.02.28-.13.53-.34.55s-.4-.17-.42-.45.13-.52.34-.55c.2-.03.4.18.42.45m2.26-.24c-.6-.14-.9.26-.93.34q-.04.08.03.15.08.04.12 0c.36-.4.75-.18.83-.14l.01.01c.06.03.15.03.2-.1q.02-.09-.01-.14-.02-.04-.25-.12"/><path d="M11.73 6.72v-.56c0-3.07-1.44-6.15-5-6.15S1.7 3.09 1.7 6.16v.56L1 8.52a26 26 0 0 0-.54 1.5c-.68 2.19-.46 3.1-.29 3.11.36.05 1.4-1.64 1.4-1.64 0 .98.5 2.25 1.6 3.18-.41.12-.91.32-1.23.55-.3.22-.25.43-.2.52.23.39 3.92.25 4.98.13 1.07.12 4.76.26 4.99-.13.05-.09.08-.3-.2-.52a5 5 0 0 0-1.23-.55 4.4 4.4 0 0 0 1.6-3.18s1.03 1.69 1.4 1.64c.16-.02.38-.92-.3-3.1a26 26 0 0 0-.53-1.52zM9.77 5.53a.1.1 0 0 1 0 .1c-.12.16-1.56.94-3.04.94h-.02a5.6 5.6 0 0 1-3.03-.94l-.02-.06.01-.04c.13-.29 1.43-.6 3.04-.6h.02c1.61 0 2.91.31 3.04.6m-4.32-.99c-.48.02-.9-.53-.92-1.23s.34-1.28.83-1.3.9.52.92 1.22-.34 1.29-.83 1.31m2.54 0c-.48-.02-.85-.6-.83-1.3S7.6 1.97 8.1 2c.48.03.85.61.82 1.31-.02.7-.44 1.25-.92 1.23ZM2.93 9l.64.12v2.33s1.1.23 2.2.07V9.36q.5.03.94.03h.02c1.12 0 2.48-.14 3.79-.4q.16.94.1 2.28c-.15 2.45-1.6 4-3.85 4.02h-.1c-2.24-.03-3.7-1.57-3.84-4.02q-.06-1.35.1-2.28"/></svg>