<svg xmlns="http://www.w3.org/2000/svg" width="16" height="16" viewBox="0 0 16 16"><path d="M2 3a1 1 0 0 0-1 1v8a1 1 0 0 0 1 1h5.5a.5.5 0 0 1 0 1H2a2 2 0 0 1-2-2V4a2 2 0 0 1 2-2h11a2 2 0 0 1 2 2v4a.5.5 0 0 1-1 0V4a1 1 0 0 0-1-1z"/><path d="M3.15 5.15a.5.5 0 0 1 .7 0l1.33 1.32a.75.75 0 0 1 0 1.06L3.85 8.85a.5.5 0 1 1-.7-.7L4.29 7 3.15 5.85a.5.5 0 0 1 0-.7M5.5 9a.5.5 0 0 1 .5-.5h2a.5.5 0 0 1 0 1H6a.5.5 0 0 1-.5-.5M16 12.5a3.5 3.5 0 1 1-7 0 3.5 3.5 0 0 1 7 0m-5.5 0a.5.5 0 0 0 .5.5h3a.5.5 0 0 0 0-1h-3a.5.5 0 0 0-.5.5"/></svg>