<svg xmlns="http://www.w3.org/2000/svg" width="16" height="16" viewBox="0 0 16 16"><path d="M1.5 2.5A1.5 1.5 0 0 1 3 1h10a1.5 1.5 0 0 1 1.5 1.5v3.56a2 2 0 0 1 0 3.88v3.56A1.5 1.5 0 0 1 13 15H3a1.5 1.5 0 0 1-1.5-1.5V9.94a2 2 0 0 1 0-3.88zm1 3.56a2 2 0 0 1 0 3.88v3.56a.5.5 0 0 0 .5.5h10a.5.5 0 0 0 .5-.5V9.94a2 2 0 0 1 0-3.88V2.5A.5.5 0 0 0 13 2H3a.5.5 0 0 0-.5.5zM2 7a1 1 0 1 0 0 2 1 1 0 0 0 0-2m12 0a1 1 0 1 0 0 2 1 1 0 0 0 0-2"/><path d="M11.43 4H4.57L4.5 6h.39c.2-1.26.6-1.45 2.17-1.5l.34-.01v6.34c0 .54-.11.67-1.05.75V12h3.3v-.42c-.94-.08-1.06-.21-1.06-.75V4.5h.35c1.56.06 1.96.25 2.17 1.5h.39z"/></svg>