<svg xmlns="http://www.w3.org/2000/svg" width="16" height="16" viewBox="0 0 16 16"><path d="M5 12.5a1.5 1.5 0 1 1-2-1.41V9.5a.5.5 0 0 1 1 0v1.59a1.5 1.5 0 0 1 1 1.41"/><path d="M1 2.5a2.5 2.5 0 0 1 5 0v7.55a3.5 3.5 0 1 1-5 0zM3.5 1A1.5 1.5 0 0 0 2 2.5v7.99l-.17.15a2.5 2.5 0 1 0 3.34 0L5 10.49V2.5A1.5 1.5 0 0 0 3.5 1m5 1a.5.5 0 0 1 .5.5v1.3l.65-.65a.5.5 0 0 1 .7.7L9 5.21v1.92l1.67-.96.5-1.85a.5.5 0 1 1 .96.26l-.24.88 1.12-.64a.5.5 0 0 1 .5.86l-1.12.65.89.24a.5.5 0 1 1-.26.96l-1.85-.5L9.5 8l1.67.96 1.85-.5a.5.5 0 1 1 .26.97l-.89.24 1.12.65a.5.5 0 0 1-.5.86l-1.12-.64.24.88a.5.5 0 1 1-.97.26l-.49-1.85L9 8.87v1.92l1.35 1.36a.5.5 0 0 1-.7.7L9 12.21v1.29a.5.5 0 0 1-1 0v-11a.5.5 0 0 1 .5-.5"/></svg>