<svg xmlns="http://www.w3.org/2000/svg" viewBox="0 0 16 16"><path d="M5 12.5a1.5 1.5 0 1 1-2-1.42V2.5a.5.5 0 0 1 1 0v8.59a1.5 1.5 0 0 1 1 1.41z"/><path d="M1 2.5a2.5 2.5 0 0 1 5 0v7.55a3.5 3.5 0 1 1-5 0V2.5zM3.5 1A1.5 1.5 0 0 0 2 2.5v7.99l-.17.15a2.5 2.5 0 1 0 3.34 0L5 10.49V2.5A1.5 1.5 0 0 0 3.5 1zm5 1a.5.5 0 0 1 .5.5v1a.5.5 0 0 1-1 0v-1a.5.5 0 0 1 .5-.5zm4.24 1.76a.5.5 0 0 1 0 .7l-.7.71a.5.5 0 1 1-.71-.7l.7-.71a.5.5 0 0 1 .71 0zM8 5.5a.5.5 0 0 1 .5-.5 3 3 0 1 1 0 6 .5.5 0 0 1 0-1 2 2 0 0 0 0-4 .5.5 0 0 1-.5-.5zM12.5 8a.5.5 0 0 1 .5-.5h1a.5.5 0 1 1 0 1h-1a.5.5 0 0 1-.5-.5zm-1.17 2.83a.5.5 0 0 1 .7 0l.71.7a.5.5 0 0 1-.7.71l-.71-.7a.5.5 0 0 1 0-.71zM8.5 12a.5.5 0 0 1 .5.5v1a.5.5 0 0 1-1 0v-1a.5.5 0 0 1 .5-.5z"/></svg>