<svg xmlns="http://www.w3.org/2000/svg" width="16" height="16" viewBox="0 0 16 16"><path d="m6.32 6.02-1.17-.8c.76-1.09 1.76-1.5 3.14-1.5.97 0 1.8.32 2.4.94s.92 1.5 1 2.64q.49.21.9.49a3.7 3.7 0 0 1 1.72 3.14c0 2.71-2.23 5.07-6.26 5.07C4.6 16 1 13.99 1 8c0-5.97 3.48-8 7.04-8C9.7 0 13.55.24 15 5.04l-1.36.35c-1.12-3.42-3.48-3.96-5.63-3.96-3.57 0-5.59 2.17-5.59 6.79 0 4.14 2.26 6.34 5.63 6.34 2.78 0 4.85-1.44 4.85-3.55 0-1.44-1.2-2.13-1.27-2.13-.24 1.23-.87 3.31-3.64 3.31-1.62 0-3.02-1.12-3.02-2.58 0-2.1 1.99-2.85 3.55-2.85.59 0 1.3.04 1.67.12 0-.64-.54-1.73-1.9-1.73-1.25 0-1.57.4-1.97.87m2.4 2.17c-2.04 0-2.3.87-2.3 1.42 0 .87 1.03 1.16 1.6 1.16 1.01 0 2.06-.28 2.22-2.42a6 6 0 0 0-1.52-.16"/></svg>