<svg xmlns="http://www.w3.org/2000/svg" width="16" height="16" viewBox="0 0 16 16" id="icon"><path d="M6.81 9.2c0-.4.2-1.06 1.73-1.06.47 0 .75.04 1.14.12-.12 1.6-.9 1.82-1.67 1.82-.42 0-1.2-.22-1.2-.88"/><path d="M2.59 16h10.82A2.6 2.6 0 0 0 16 13.41V2.59A2.6 2.6 0 0 0 13.41 0H2.59A2.6 2.6 0 0 0 0 2.59v10.82A2.6 2.6 0 0 0 2.59 16M5.87 5.91c.56-.81 1.31-1.13 2.35-1.13q1.11 0 1.8.72.65.7.74 1.98.37.15.68.36c.84.56 1.3 1.4 1.3 2.35 0 2.04-1.68 3.81-4.7 3.81-2.6 0-5.29-1.51-5.29-6 0-4.47 2.61-6 5.28-6 1.24 0 4.13.18 5.22 3.78l-1.02.26c-.84-2.56-2.6-2.97-4.22-2.97-2.68 0-4.2 1.63-4.2 5.1 0 3.1 1.7 4.75 4.23 4.75 2.08 0 3.64-1.08 3.64-2.66 0-1.08-.9-1.6-.96-1.6-.17.93-.65 2.48-2.73 2.48-1.21 0-2.26-.83-2.26-1.93 0-1.57 1.49-2.14 2.66-2.14.44 0 .97.03 1.25.09 0-.48-.4-1.3-1.43-1.3-.9 0-1.16.29-1.45.63l-.02.02z"/></svg>