<svg xmlns="http://www.w3.org/2000/svg" viewBox="0 0 16 16"><path d="M1 0 0 1l2.2 3.08a1 1 0 0 0 .81.42h.08a1 1 0 0 1 .7.3l2.68 2.67-2.62 2.65A3 3 0 0 0 0 13a3 3 0 1 0 5.88-.85l2.65-2.62.97.97-.3.91a1 1 0 0 0 .24 1.03l3.27 3.27a1 1 0 0 0 1.41 0l1.59-1.59a1 1 0 0 0 0-1.41l-3.27-3.27a1 1 0 0 0-1.03-.25l-.91.31-.96-.96 2.68-2.64A3 3 0 0 0 16 3c0-.27-.04-.53-.1-.78l-2.14 2.14L12 4l-.36-1.76L13.78.1a3 3 0 0 0-3.68 3.68L7.46 6.46 4.8 3.79a1 1 0 0 1-.29-.7v-.07a1 1 0 0 0-.42-.82L1 0Zm9.65 10.65a.5.5 0 0 1 .7 0l2.92 2.91a.5.5 0 0 1-.7.7l-2.92-2.9a.5.5 0 0 1 0-.71ZM3 11l.47.24.53.03.29.44.44.29.03.53L5 13l-.24.47-.03.53-.44.29-.29.44-.53.03L3 15l-.47-.24-.53-.03-.29-.44-.44-.29-.03-.53L1 13l.24-.47.03-.53.44-.29.29-.44.53-.03L3 11Z"/></svg>