<svg viewBox="0 0 16 16"><path d="M1.13 2.45A.9.9 0 0 1 1 2c0-.26.12-.47.26-.63a1.9 1.9 0 0 1 .51-.4C2.16.78 2.68.6 3.3.46 4.51.17 6.18 0 8 0c1.82 0 3.49.17 4.7.45.62.14 1.14.32 1.53.53.2.1.37.23.51.39s.26.37.26.63c0 1.01-.35 1.61-.63 2.1l-.12.2a2.55 2.55 0 0 0-.31.81 2.94 2.94 0 0 0-.01.9.5.5 0 0 1 .42.84l-.21.2c.2 1.12.09 1.99-.3 2.71a5.13 5.13 0 0 1-2.02 1.86l-.62.36c-1.44.83-2.93 1.69-3.74 3.7a.5.5 0 0 1-.74.23H6.7l-.01-.01a2.14 2.14 0 0 1-.15-.12 4.1 4.1 0 0 1-1.18-1.65 3.79 3.79 0 0 1-.24-1.3.5.5 0 0 1-.13-.33v-.02a.62.62 0 0 1 0-.08.73.73 0 0 1 .2-.38c.09-.5.27-1.02.57-1.58a.5.5 0 0 1 .07-.91 3.29 3.29 0 0 1 .62-.15l.15-.2c.28-.35.4-.63.44-.85a.95.95 0 0 0-.13-.62c-.24-.46-.81-.9-1.6-1.43l-.62-.4-.12-.07a12.3 12.3 0 0 1-1.24-.34.5.5 0 0 1-.28-.7l-.23-.18a5.34 5.34 0 0 1-1.7-2.14zM3.1 3.5l.36.3c.47.39.99.73 1.51 1.07 1.54.32 3.63.5 5.43.14a.5.5 0 0 1 .2.98c-1.22.24-2.54.26-3.76.16.4.32.74.68.96 1.08.2.37.3.79.23 1.24-.05.33-.18.66-.39.99l.22.05h.01c.48.13.86.22 1.47.02a.5.5 0 1 1 .32.95c-.89.29-1.5.14-2.03 0a3.9 3.9 0 0 0-.65-.12c-.37.55-.6 1.05-.72 1.5.14.04.3.1.46.2a.5.5 0 1 1-.44.89 3.11 3.11 0 0 0-.15-.07c.01.34.08.64.18.9.14.36.34.66.53.88.99-1.9 2.58-2.82 3.88-3.56l.58-.34a4.17 4.17 0 0 0 1.66-1.47c.21-.4.33-.9.26-1.62A6.74 6.74 0 0 1 10 8.5a.5.5 0 0 1 0-1 5.76 5.76 0 0 0 3.02-.87.52.52 0 0 1-.01-.03 4.37 4.37 0 0 1-.06-1.67c.09-.46.26-.8.43-1.11l.13-.23.18-.33c-.3.11-.62.2-.98.29A22.1 22.1 0 0 1 8 4c-1.82 0-3.49-.17-4.7-.45l-.2-.05zM13.96 2a1.12 1.12 0 0 0-.21-.14 5.1 5.1 0 0 0-1.27-.43A20.95 20.95 0 0 0 8 1c-1.77 0-3.35.17-4.48.43-.57.13-1 .28-1.27.43a1.12 1.12 0 0 0-.21.14c.04.04.1.09.21.14.27.15.7.3 1.27.43C4.65 2.83 6.23 3 8 3c1.77 0 3.35-.17 4.48-.43.57-.13 1-.28 1.27-.42a1.12 1.12 0 0 0 .21-.15z"/></svg>