<svg xmlns="http://www.w3.org/2000/svg" width="16" height="16" viewBox="0 0 16 16"><path d="M1.13 2.45A1 1 0 0 1 1 2c0-.26.12-.47.26-.63a2 2 0 0 1 .51-.4q.6-.3 1.52-.52C4.51.17 6.18 0 8 0s3.49.17 4.7.45q.94.21 1.53.53.3.15.51.39c.14.16.26.37.26.63 0 1.01-.35 1.61-.63 2.1l-.12.2a3 3 0 0 0-.31.81 3 3 0 0 0-.01.9.5.5 0 0 1 .42.84q-.09.1-.21.2c.2 1.12.09 1.99-.3 2.71a5 5 0 0 1-2.02 1.86l-.62.36c-1.44.83-2.93 1.69-3.74 3.7a.5.5 0 0 1-.74.23H6.7l-.01-.01-.15-.12a4 4 0 0 1-1.18-1.65 4 4 0 0 1-.24-1.3.5.5 0 0 1-.13-.33v-.1a1 1 0 0 1 .2-.38q.13-.74.57-1.58a.5.5 0 0 1 .07-.91 3 3 0 0 1 .62-.15l.15-.2q.4-.52.44-.85a1 1 0 0 0-.13-.62c-.24-.46-.81-.9-1.6-1.43l-.62-.4-.12-.07a12 12 0 0 1-1.24-.34.5.5 0 0 1-.28-.7l-.23-.18a5.3 5.3 0 0 1-1.7-2.14M3.1 3.5q.17.16.36.3.72.57 1.51 1.07c1.54.32 3.63.5 5.43.14a.5.5 0 0 1 .2.98c-1.22.24-2.54.26-3.76.16q.62.48.96 1.08.32.56.23 1.24-.07.5-.39.99l.22.05h.01c.48.13.86.22 1.47.02a.5.5 0 1 1 .32.95c-.89.29-1.5.14-2.03 0a4 4 0 0 0-.65-.12q-.55.83-.72 1.5.21.07.46.2a.5.5 0 1 1-.44.89l-.15-.07q.02.51.18.9.23.54.53.88c.99-1.9 2.58-2.82 3.88-3.56l.58-.34a4 4 0 0 0 1.66-1.47c.21-.4.33-.9.26-1.62A7 7 0 0 1 10 8.5a.5.5 0 0 1 0-1 6 6 0 0 0 3.02-.87L13 6.6a4 4 0 0 1-.06-1.67c.09-.46.26-.8.43-1.11l.13-.23.18-.33q-.44.16-.98.29C11.49 3.83 9.82 4 8 4s-3.49-.17-4.7-.45zM13.96 2l-.21-.14q-.41-.23-1.27-.43C11.35 1.17 9.77 1 8 1s-3.35.17-4.48.43q-.86.2-1.27.43L2.04 2q.05.06.21.14.41.23 1.27.43C4.65 2.83 6.23 3 8 3s3.35-.17 4.48-.43q.86-.2 1.27-.42z"/></svg>