<svg xmlns="http://www.w3.org/2000/svg" width="16" height="16" viewBox="0 0 16 16"><path d="M6.5 0a.5.5 0 0 0 0 1h1v1.01c-1.52.07-3.35.4-4.59.66A2.4 2.4 0 0 0 1 5.05v8.45A2.5 2.5 0 0 0 3.5 16h9a2.5 2.5 0 0 0 2.5-2.5V5.06c0-1.14-.77-2.15-1.91-2.4a31 31 0 0 0-4.59-.65V1h1a.5.5 0 0 0 0-1zM8 4a26 26 0 0 1 3.6.35c.83.12 1.36.9 1.25 1.7l-.07.52A29 29 0 0 0 12.5 10q0 .65.06 1.46a57 57 0 0 0 .38 3.54h-1.01a63 63 0 0 1-.33-3H9.35q-.56 0-.95-.4a.4.4 0 0 0-.25-.1h-.3a.4.4 0 0 0-.25.1 1.4 1.4 0 0 1-.95.4H4.4a63 63 0 0 1-.33 3h-1a78 78 0 0 0 .37-3.54q.06-.8.06-1.46a28 28 0 0 0-.28-3.43l-.07-.53a1.5 1.5 0 0 1 1.25-1.7C5.36 4.2 6.86 4 8 4m-1.35 7H4.47a19 19 0 0 0-.19-4h7.44a19 19 0 0 0-.19 4H9.35a.4.4 0 0 1-.25-.1 1.4 1.4 0 0 0-.95-.4h-.3q-.56 0-.95.4a.4.4 0 0 1-.25.1m5.2-5h-7.7v-.1a.5.5 0 0 1 .4-.57C5.5 5.2 6.95 5 8 5s2.5.19 3.45.33a.5.5 0 0 1 .4.57zM6 13.5a.5.5 0 1 1-1 0 .5.5 0 0 1 1 0m0 0a.5.5 0 1 1 1 0 .5.5 0 0 1-1 0m4 0a.5.5 0 1 1-1 0 .5.5 0 0 1 1 0m0 0a.5.5 0 1 1 1 0 .5.5 0 0 1-1 0"/></svg>