<svg viewBox="0 0 16 16"><path d="M5.07.16A1.5 1.5 0 0 1 5.74 0h4.52a1.5 1.5 0 0 1 .67.16l3.24 1.62A1.5 1.5 0 0 1 15 3.12V13.5a2.5 2.5 0 0 1-2.5 2.5h-9A2.5 2.5 0 0 1 1 13.5V3.12a1.5 1.5 0 0 1 .83-1.34L5.07.16ZM2 9.37v4.13A1.5 1.5 0 0 0 3.5 15h4V8h-.85a.5.5 0 0 0-.15.02L2 9.37ZM8.5 15h4a1.5 1.5 0 0 0 1.5-1.5V9.37L9.5 8.02A.5.5 0 0 0 9.35 8H8.5v7ZM14 8.33V3.12a.5.5 0 0 0-.28-.45L10.5 1.05a.5.5 0 0 0-.23-.05H5.74a.5.5 0 0 0-.23.05L2.28 2.67a.5.5 0 0 0-.28.45v5.2l1-.3V5a1 1 0 0 1 1-1h8a1 1 0 0 1 1 1v3.03l1 .3Zm-2-.6V5H8.5v2h.85a1.5 1.5 0 0 1 .43.06l2.22.67ZM7.5 7V5H4v2.73l2.22-.67A1.5 1.5 0 0 1 6.65 7h.85Zm-1-5a.5.5 0 0 0 0 1h3a.5.5 0 0 0 0-1h-3Zm-3 8a.5.5 0 1 0 0 1 .5.5 0 0 0 0-1Zm9 0a.5.5 0 1 0 0 1 .5.5 0 0 0 0-1ZM5 13a1 1 0 1 1-2 0 1 1 0 0 1 2 0Zm7 1a1 1 0 1 0 0-2 1 1 0 0 0 0 2Z"/></svg>