<svg xmlns="http://www.w3.org/2000/svg" width="16" height="16" viewBox="0 0 16 16"><path d="M10.62.52a9.4 9.4 0 0 0-5.24 0c-.92.23-1.98.76-2.78 1.21A3.2 3.2 0 0 0 1 4.59v8.92A2.5 2.5 0 0 0 3.5 16h9a2.5 2.5 0 0 0 2.5-2.5V4.58c0-1.15-.56-2.26-1.6-2.85A13 13 0 0 0 10.62.51ZM6.5 2h3a.5.5 0 0 1 0 1h-3a.5.5 0 0 1 0-1m-2 2h7A1.5 1.5 0 0 1 13 5.5v2A1.5 1.5 0 0 1 11.5 9h-7A1.5 1.5 0 0 1 3 7.5v-2A1.5 1.5 0 0 1 4.5 4m.5 9a1 1 0 1 1-2 0 1 1 0 0 1 2 0m0 0a1 1 0 1 1 2 0 1 1 0 0 1-2 0m8 0a1 1 0 1 1-2 0 1 1 0 0 1 2 0m-3-1a1 1 0 1 1 0 2 1 1 0 0 1 0-2M4 5.5a.5.5 0 0 1 .5-.5h3v3h-3a.5.5 0 0 1-.5-.5zM8.5 8V5h3a.5.5 0 0 1 .5.5v2a.5.5 0 0 1-.5.5z"/></svg>