<svg xmlns="http://www.w3.org/2000/svg" width="16" height="16" viewBox="0 0 16 16" id="icon"><path d="M5.62 1.49a8.5 8.5 0 0 1 4.76 0c.78.2 1.74.67 2.53 1.11C13.59 3 14 3.75 14 4.58v8.92a1.5 1.5 0 0 1-1.5 1.5h-9A1.5 1.5 0 0 1 2 13.5V4.58C2 3.75 2.4 3 3.1 2.6c.78-.44 1.74-.92 2.52-1.11m5-.97a9.4 9.4 0 0 0-5.24 0c-.92.23-1.98.76-2.78 1.21A3.2 3.2 0 0 0 1 4.59v8.92A2.5 2.5 0 0 0 3.5 16h9a2.5 2.5 0 0 0 2.5-2.5V4.58c0-1.15-.56-2.26-1.6-2.85A13 13 0 0 0 10.62.51ZM5 13a1 1 0 1 1-2 0 1 1 0 0 1 2 0m0 0a1 1 0 1 1 2 0 1 1 0 0 1-2 0m7 1a1 1 0 1 0-1-1 1 1 0 1 0-2 0 1 1 0 0 0 2 0 1 1 0 0 0 1 1M4.5 5a.5.5 0 0 0-.5.5v2a.5.5 0 0 0 .5.5h3V5zm4 0v3h3a.5.5 0 0 0 .5-.5v-2a.5.5 0 0 0-.5-.5zM3 5.5A1.5 1.5 0 0 1 4.5 4h7A1.5 1.5 0 0 1 13 5.5v2A1.5 1.5 0 0 1 11.5 9h-7A1.5 1.5 0 0 1 3 7.5zM6.5 2a.5.5 0 0 0 0 1h3a.5.5 0 0 0 0-1z"/></svg>