<svg viewBox="0 0 16 16"><path d="M6.5 0a.5.5 0 0 0 0 1h1v1.01c-1.52.07-3.35.4-4.59.66A2.42 2.42 0 0 0 1 5.05v8.45A2.5 2.5 0 0 0 3.5 16h9a2.5 2.5 0 0 0 2.5-2.5V5.05c0-1.14-.78-2.15-1.91-2.39a30.6 30.6 0 0 0-4.59-.65V1h1a.5.5 0 0 0 0-1h-3ZM8 4a26 26 0 0 1 3.6.35c.83.12 1.36.9 1.25 1.7l-.07.52A29.1 29.1 0 0 0 12.5 10c0 .43.02.93.06 1.46a56.92 56.92 0 0 0 .38 3.54h-1.01a62.7 62.7 0 0 1-.33-3H9.35c-.36 0-.7-.14-.95-.4a.35.35 0 0 0-.25-.1h-.3a.35.35 0 0 0-.25.1 1.35 1.35 0 0 1-.95.4H4.4a62.7 62.7 0 0 1-.33 3h-1a77.53 77.53 0 0 0 .37-3.54 19.8 19.8 0 0 0-.22-4.9 51.76 51.76 0 0 0-.07-.52 1.5 1.5 0 0 1 1.25-1.7C5.36 4.2 6.86 4 8 4Zm-1.35 7H4.47a18.9 18.9 0 0 0-.19-4h7.44a18.9 18.9 0 0 0-.19 4H9.35a.35.35 0 0 1-.25-.1 1.35 1.35 0 0 0-.95-.4h-.3c-.36 0-.7.14-.95.4a.35.35 0 0 1-.25.1Zm5.2-5h-7.7v-.1a.5.5 0 0 1 .4-.57C5.5 5.2 6.95 5 8 5s2.5.19 3.45.33a.5.5 0 0 1 .4.57V6ZM6 13.5a.5.5 0 1 1-1 0 .5.5 0 0 1 1 0Zm0 0a.5.5 0 1 1 1 0 .5.5 0 0 1-1 0Zm4 0a.5.5 0 1 1-1 0 .5.5 0 0 1 1 0Zm0 0a.5.5 0 1 1 1 0 .5.5 0 0 1-1 0Z"/></svg>