<svg xmlns="http://www.w3.org/2000/svg" viewBox="0 0 16 16"><path d="M6.5 0a.5.5 0 0 0 0 1h1v1.01c-1.52.07-3.35.4-4.59.66A2.42 2.42 0 0 0 1 5.05v8.45A2.5 2.5 0 0 0 3.5 16h9a2.5 2.5 0 0 0 2.5-2.5V5.05c0-1.14-.78-2.15-1.91-2.39a30.6 30.6 0 0 0-4.59-.65V1h1a.5.5 0 0 0 0-1h-3ZM8 3c1.5 0 3.5.36 4.88.64.66.14 1.12.73 1.12 1.42v8.44a1.5 1.5 0 0 1-1.07 1.44 76 76 0 0 1-.1-.8c-.1-.75-.2-1.75-.27-2.68A21.26 21.26 0 0 1 12.5 10a29.1 29.1 0 0 1 .35-3.96 1.5 1.5 0 0 0-1.25-1.7C10.64 4.2 9.14 4 8 4a26 26 0 0 0-3.6.35 1.5 1.5 0 0 0-1.25 1.7l.07.52a19.8 19.8 0 0 1 .22 4.89 57.32 57.32 0 0 1-.27 2.69l-.1.79A1.5 1.5 0 0 1 2 13.5V5.05c0-.69.46-1.27 1.12-1.4C4.5 3.34 6.5 3 8 3Zm3.83 11.27.1.73H4.07a62.7 62.7 0 0 0 .33-3h2.25c.36 0 .7-.14.95-.4a.35.35 0 0 1 .25-.1h.3a.35.35 0 0 1 .25.1c.25.26.6.4.95.4h2.25c.07.8.16 1.62.24 2.27ZM6 13.5a.5.5 0 1 1-1 0 .5.5 0 0 1 1 0Zm0 0a.5.5 0 1 1 1 0 .5.5 0 0 1-1 0Zm3.5.5a.5.5 0 0 0 .5-.5.5.5 0 1 0 1 0 .5.5 0 0 0-1 0 .5.5 0 1 0-.5.5Zm-5.03-3a18.9 18.9 0 0 0-.19-4h7.44a18.9 18.9 0 0 0-.19 4H9.35a.35.35 0 0 1-.25-.1 1.35 1.35 0 0 0-.95-.4h-.3c-.36 0-.7.14-.95.4a.35.35 0 0 1-.25.1H4.47Zm-.32-5v-.1a.5.5 0 0 1 .4-.57C5.5 5.2 6.95 5 8 5s2.5.19 3.45.33a.5.5 0 0 1 .4.57V6h-7.7Z"/></svg>