<svg xmlns="http://www.w3.org/2000/svg" width="16" height="16" viewBox="0 0 16 16"><path d="M6.5 0a.5.5 0 0 0 0 1h1v1.01c-1.52.07-3.35.4-4.59.66A2.4 2.4 0 0 0 1 5.05v8.45A2.5 2.5 0 0 0 3.5 16h9a2.5 2.5 0 0 0 2.5-2.5V5.06c0-1.14-.77-2.15-1.91-2.4a31 31 0 0 0-4.59-.65V1h1a.5.5 0 0 0 0-1zM8 3c1.5 0 3.5.36 4.88.64.66.14 1.12.73 1.12 1.42v8.44a1.5 1.5 0 0 1-1.07 1.44l-.1-.8c-.1-.75-.2-1.75-.27-2.68A21 21 0 0 1 12.5 10a28 28 0 0 1 .28-3.43l.07-.53a1.5 1.5 0 0 0-1.25-1.7C10.64 4.2 9.14 4 8 4s-2.64.2-3.6.35a1.5 1.5 0 0 0-1.25 1.7l.07.52A28 28 0 0 1 3.5 10q0 .65-.06 1.46a57 57 0 0 1-.27 2.69l-.1.79A1.5 1.5 0 0 1 2 13.5V5.06c0-.7.46-1.28 1.12-1.41C4.5 3.35 6.5 3 8 3m3.84 11.27.09.73H4.07a63 63 0 0 0 .33-3h2.25q.56 0 .95-.4a.4.4 0 0 1 .25-.1h.3a.4.4 0 0 1 .25.1c.25.26.6.4.95.4h2.25c.07.8.16 1.62.24 2.27M6 13.5a.5.5 0 1 1-1 0 .5.5 0 0 1 1 0m0 0a.5.5 0 1 1 1 0 .5.5 0 0 1-1 0m3.5.5a.5.5 0 0 0 .5-.5.5.5 0 1 0 1 0 .5.5 0 0 0-1 0 .5.5 0 1 0-.5.5m-5.03-3a19 19 0 0 0-.19-4h7.44a19 19 0 0 0-.19 4H9.35a.4.4 0 0 1-.25-.1 1.4 1.4 0 0 0-.95-.4h-.3q-.56 0-.95.4a.4.4 0 0 1-.25.1zm-.31-5-.02-.1a.5.5 0 0 1 .4-.57C5.5 5.2 6.95 5 8 5s2.5.19 3.45.33a.5.5 0 0 1 .4.57V6z"/></svg>