<svg viewBox="0 0 16 16"><path d="M10.62.52a9.43 9.43 0 0 0-5.24 0c-.92.23-1.98.76-2.78 1.21A3.24 3.24 0 0 0 1 4.58v8.92A2.5 2.5 0 0 0 3.5 16h9a2.5 2.5 0 0 0 2.5-2.5V4.58c0-1.15-.56-2.26-1.6-2.85A12.6 12.6 0 0 0 10.62.51ZM6.5 2h3a.5.5 0 0 1 0 1h-3a.5.5 0 0 1 0-1Zm-2 2h7A1.5 1.5 0 0 1 13 5.5v2A1.5 1.5 0 0 1 11.5 9h-7A1.5 1.5 0 0 1 3 7.5v-2A1.5 1.5 0 0 1 4.5 4Zm.5 9a1 1 0 1 1-2 0 1 1 0 0 1 2 0Zm0 0a1 1 0 1 1 2 0 1 1 0 0 1-2 0Zm8 0a1 1 0 1 1-2 0 1 1 0 0 1 2 0Zm-3-1a1 1 0 1 1 0 2 1 1 0 0 1 0-2ZM4 5.5a.5.5 0 0 1 .5-.5h3v3h-3a.5.5 0 0 1-.5-.5v-2ZM8.5 8V5h3a.5.5 0 0 1 .5.5v2a.5.5 0 0 1-.5.5h-3Z"/></svg>