<svg xmlns="http://www.w3.org/2000/svg" width="16" height="16" viewBox="0 0 16 16"><path d="M5.74 0a1.5 1.5 0 0 0-.67.16L1.83 1.78A1.5 1.5 0 0 0 1 3.12v5.5l2-.6V5a1 1 0 0 1 1-1h8a1 1 0 0 1 1 1v3.03l2 .6V3.12a1.5 1.5 0 0 0-.83-1.34L10.94.16a1.5 1.5 0 0 0-.68-.16zM15 9.67 9.5 8.02 9.35 8H8.5v8h4a2.5 2.5 0 0 0 2.5-2.5zM7.5 16V8h-.85l-.15.02L1 9.67v3.83A2.5 2.5 0 0 0 3.5 16zm-1-14h3a.5.5 0 0 1 0 1h-3a.5.5 0 0 1 0-1M12 5v2.73l-2.22-.67A2 2 0 0 0 9.35 7H8.5V5zM7.5 5v2h-.85a2 2 0 0 0-.43.06L4 7.73V5zm-4 5a.5.5 0 1 1 0 1 .5.5 0 0 1 0-1m9 0a.5.5 0 1 1 0 1 .5.5 0 0 1 0-1M5 13a1 1 0 1 1-2 0 1 1 0 0 1 2 0m7 1a1 1 0 1 1 0-2 1 1 0 0 1 0 2"/></svg>