<svg xmlns="http://www.w3.org/2000/svg" viewBox="0 0 16 16"><path d="M4.54 6.71 4.12 8H3l1.86-5h1.29L8 8H6.83L6.4 6.71H4.54zm1.64-.73L5.5 3.96h-.05l-.68 2.02h1.41z"/><path d="M0 2a2 2 0 0 1 2-2h7a2 2 0 0 1 2 2v3h3a2 2 0 0 1 2 2v7a2 2 0 0 1-2 2H7a2 2 0 0 1-2-2v-3H2a2 2 0 0 1-2-2V2zm2-1a1 1 0 0 0-1 1v7a1 1 0 0 0 1 1h7a1 1 0 0 0 1-1V2a1 1 0 0 0-1-1H2zm7.14 10c.2.3.4.58.63.84-.75.58-1.67 1-2.77 1.3.18.21.45.63.56.86a8.76 8.76 0 0 0 2.88-1.5 7.17 7.17 0 0 0 2.93 1.48c.13-.26.42-.68.63-.9a7.08 7.08 0 0 1-2.82-1.28 8.09 8.09 0 0 0 1.62-2.75H14V8h-3v1.05h.77a6.52 6.52 0 0 1-1.28 2.13 6.07 6.07 0 0 1-.41-.5 1.99 1.99 0 0 1-.94.31z"/></svg>