<svg xmlns="http://www.w3.org/2000/svg" width="16" height="16" viewBox="0 0 16 16"><path d="M0 6.5a6.5 6.5 0 0 1 12.35-2.85 6.5 6.5 0 1 1-8.7 8.7A6.5 6.5 0 0 1 0 6.5m5.14 6.36a5.5 5.5 0 1 0 7.72-7.72 6.5 6.5 0 0 1-7.72 7.72m-.73-1.27q.55.23 1.15.33l-1.48-1.47q.1.6.33 1.14m2.62.39a6 6 0 0 0 1.17-.25L4.37 7.91a6 6 0 0 0-.3 1.12zm2.15-.68q.45-.25.84-.57l-4.6-4.6a6 6 0 0 0-.59.82zm1.55-1.28q.32-.4.57-.84L6.95 4.83a6 6 0 0 0-.82.59zm1-1.82q.19-.57.25-1.17L9.03 4.07q-.58.1-1.12.3zm.19-2.64a6 6 0 0 0-.33-1.15 6 6 0 0 0-1.14-.33z"/></svg>