<svg xmlns="http://www.w3.org/2000/svg" width="16" height="16" viewBox="0 0 16 16"><path d="M4.55 6.71 4.1 8H3l1.86-5h1.29L8 8H6.83L6.4 6.71zm1.63-.73L5.5 3.96h-.05l-.68 2.02z"/><path d="M0 2a2 2 0 0 1 2-2h7a2 2 0 0 1 2 2v3h3a2 2 0 0 1 2 2v7a2 2 0 0 1-2 2H7a2 2 0 0 1-2-2v-3H2a2 2 0 0 1-2-2zm2-1a1 1 0 0 0-1 1v7a1 1 0 0 0 1 1h7a1 1 0 0 0 1-1V2a1 1 0 0 0-1-1zm7.14 10q.29.45.63.84-1.12.86-2.77 1.3c.18.21.45.63.56.86a9 9 0 0 0 2.88-1.5 7 7 0 0 0 2.93 1.48c.13-.26.42-.68.63-.9a7 7 0 0 1-2.82-1.28 8 8 0 0 0 1.62-2.75H14V8h-3v1.05h.77a7 7 0 0 1-1.28 2.13l-.41-.5a2 2 0 0 1-.94.31"/></svg>