<svg xmlns="http://www.w3.org/2000/svg" width="16" height="16" viewBox="0 0 16 16"><path d="M11 1.5v1h3.5a.5.5 0 0 1 0 1h-.54l-.85 10.66a2 2 0 0 1-2 1.84H4.9a2 2 0 0 1-2-1.84L2.04 3.5H1.5a.5.5 0 0 1 0-1H5v-1A1.5 1.5 0 0 1 6.5 0h3A1.5 1.5 0 0 1 11 1.5m-5 0v1h4v-1a.5.5 0 0 0-.5-.5h-3a.5.5 0 0 0-.5.5M4.5 5.03l.5 8.5a.5.5 0 1 0 1-.06l-.5-8.5a.5.5 0 1 0-1 .06m6.53-.53a.5.5 0 0 0-.53.47l-.5 8.5a.5.5 0 0 0 1 .06l.5-8.5a.5.5 0 0 0-.47-.53M8 4.5a.5.5 0 0 0-.5.5v8.5a.5.5 0 0 0 1 0V5a.5.5 0 0 0-.5-.5"/></svg>