<svg viewBox="0 0 16 16"><path d="M6.5 1h3a.5.5 0 0 1 .5.5v1H6v-1a.5.5 0 0 1 .5-.5ZM11 2.5v-1A1.5 1.5 0 0 0 9.5 0h-3A1.5 1.5 0 0 0 5 1.5v1H1.5a.5.5 0 0 0 0 1h.54l.85 10.66a2 2 0 0 0 2 1.84h6.23a2 2 0 0 0 1.99-1.84l.85-10.66h.54a.5.5 0 0 0 0-1H11Zm1.96 1-.85 10.58a1 1 0 0 1-1 .92H4.9a1 1 0 0 1-1-.92L3.04 3.5h9.92Zm-7.49 1a.5.5 0 0 1 .53.47l.5 8.5a.5.5 0 0 1-1 .06L5 5.03a.5.5 0 0 1 .47-.53Zm5.06 0a.5.5 0 0 1 .47.53l-.5 8.5a.5.5 0 1 1-1-.06l.5-8.5a.5.5 0 0 1 .53-.47ZM8 4.5a.5.5 0 0 1 .5.5v8.5a.5.5 0 0 1-1 0V5a.5.5 0 0 1 .5-.5Z"/></svg>