<svg xmlns="http://www.w3.org/2000/svg" viewBox="0 0 16 16"><path d="M5 11a1 1 0 1 1-2 0 1 1 0 0 1 2 0Zm8 0a1 1 0 1 1-2 0 1 1 0 0 1 2 0Zm-6-1a1 1 0 1 0 0 2h2a1 1 0 1 0 0-2H7ZM4 2a1 1 0 0 0-1 1v3.9a1 1 0 0 0 1.17 1c.9-.15 2.62-.4 3.83-.4 1.2 0 2.92.25 3.83.4a1 1 0 0 0 1.17-1V3a1 1 0 0 0-1-1H4Zm0 1h8v3.9h-.01c-.9-.14-2.7-.4-3.99-.4s-3.09.26-3.99.4H4V3Z"/><path d="M1 2.5A2.5 2.5 0 0 1 3.5 0h9A2.5 2.5 0 0 1 15 2.5v9c0 .82-.4 1.54-1 2v2a.5.5 0 0 1-.5.5h-2a.5.5 0 0 1-.5-.5V14H5v1.5a.5.5 0 0 1-.5.5h-2a.5.5 0 0 1-.5-.5v-2a2.5 2.5 0 0 1-1-2v-9ZM3.5 1A1.5 1.5 0 0 0 2 2.5v9A1.5 1.5 0 0 0 3.5 13h9a1.5 1.5 0 0 0 1.5-1.5v-9A1.5 1.5 0 0 0 12.5 1h-9Z"/></svg>