<svg xmlns="http://www.w3.org/2000/svg" width="16" height="16" viewBox="0 0 16 16"><path d="M.04 12.31a.5.5 0 0 1 .65-.27l1.75.7a1.5 1.5 0 0 0 1.12 0l1.01-.4a2.5 2.5 0 0 1 1.86 0l1.01.4a1.5 1.5 0 0 0 1.12 0l1.01-.4a2.5 2.5 0 0 1 1.86 0l1.01.4a1.5 1.5 0 0 0 1.12 0l1.75-.7a.5.5 0 1 1 .38.92l-1.76.7a2.5 2.5 0 0 1-1.86 0l-1.01-.4a1.5 1.5 0 0 0-1.12 0l-1.01.4a2.5 2.5 0 0 1-1.86 0l-1.01-.4a1.5 1.5 0 0 0-1.12 0l-1.01.4a2.5 2.5 0 0 1-1.86 0l-1.76-.7a.5.5 0 0 1-.27-.65m0 2a.5.5 0 0 1 .65-.27l1.75.7a1.5 1.5 0 0 0 1.12 0l1.01-.4a2.5 2.5 0 0 1 1.86 0l1.01.4a1.5 1.5 0 0 0 1.12 0l1.01-.4a2.5 2.5 0 0 1 1.86 0l1.01.4a1.5 1.5 0 0 0 1.12 0l1.75-.7a.5.5 0 1 1 .38.92l-1.76.7a2.5 2.5 0 0 1-1.86 0l-1.01-.4a1.5 1.5 0 0 0-1.12 0l-1.01.4a2.5 2.5 0 0 1-1.86 0l-1.01-.4a1.5 1.5 0 0 0-1.12 0l-1.01.4a2.5 2.5 0 0 1-1.86 0l-1.76-.7a.5.5 0 0 1-.27-.65m2.62-6.23c-.45 1.06-1 2.1-1.84 2.8a.5.5 0 0 1-.64-.76 6 6 0 0 0 1.56-2.43l.43-1.05c.3-.75.62-1.56 1.01-2.3A8 8 0 0 1 5.7 1.3 8.2 8.2 0 0 1 10.5 0c1.46 0 2.51.4 3.18 1.06s.9 1.52.82 2.3a3 3 0 0 1-1.02 1.97 1.9 1.9 0 0 1-1.9.27 2.9 2.9 0 0 0-.72 2.6c.22 1.02.92 1.8 2.14 1.8h2.5a.5.5 0 0 1 0 1H13a3.1 3.1 0 0 1-3.11-2.58c-.24-1.1 0-2.38.75-3.29l-.14-.07-.78.39a.5.5 0 0 1-.44 0l-1-.5a.5.5 0 0 1 .44-.9l.78.4.78-.4a.5.5 0 0 1 .44 0l1 .5.04.02c.44.27.8.2 1.1-.03.33-.26.6-.73.64-1.27.05-.53-.1-1.08-.52-1.5S11.78 1 10.5 1c-1.92 0-3.25.45-4.23 1.12a7 7 0 0 0-2.2 2.67q-.52 1.07-.94 2.16-.22.57-.47 1.13"/></svg>