<svg xmlns="http://www.w3.org/2000/svg" width="16" height="16" viewBox="0 0 16 16" id="icon"><path d="M9 4.5c.1-.08.1-.17.18-.16s.02.1-.1.2-.3.25-.46.33c-.29.15-.63.33-.99.33s-.65-.16-.85-.33l-.25-.22c-.11-.08-.1-.2-.05-.2.07.01.08.1.13.15l.24.22c.2.15.46.3.78.3s.7-.19.93-.32c.13-.07.3-.2.44-.3m-1.66-.72q.1-.04.17 0 .03 0 .02.03c0 .04-.07.03-.1.05l-.1.06c-.03 0-.09-.02-.09-.05s.06-.07.1-.09m.58 0q.08-.04.17 0 .1.03.1.1-.02.04-.09.04l-.09-.06c-.03-.02-.1-.01-.1-.05q-.01-.02.01-.03"/><path fill-rule="evenodd" d="M8.45.02c2.52 0 2.38 2.66 2.36 4.1-.01.93.5 1.57 1.04 2.24.47.56 1.1 1.38 1.45 2.32.29.76.4 1.6.11 2.46a1 1 0 0 1 .26.15c.2.18.27.45.33.7.06.26.11.5.22.62q.52.56.48.92c-.01.25-.2.43-.43.57-.47.28-1.17.5-1.59 1-.44.53-.99.83-1.5.87a1.25 1.25 0 0 1-1.26-.71l-.08-.21c-.67.03-1.25-.17-1.72-.13-.68.04-1.11.2-1.5.2-.15.34-.45.55-.8.63-.5.12-1.14 0-1.75-.32-.58-.3-1.31-.28-1.85-.39-.27-.06-.51-.16-.63-.38q-.18-.33.07-1c.05-.15.01-.39-.02-.64l-.04-.37a1 1 0 0 1 .09-.38c.14-.27.36-.38.57-.46s.4-.12.53-.26c.15-.15.27-.37.45-.56l.07-.07q-.11-.8.2-1.66a10 10 0 0 1 1.8-3.01c.5-.71.65-1.29.7-2.02.04-1-.7-3.97 2.11-4.2zm2.6 10.87-.04.01q-.32.18-.43.66t-.13 1.2c-.02.37-.19.83-.3 1.27s-.18.86-.04 1.13c.22.45.6.64 1.05.6s.95-.3 1.36-.8c.47-.57 1.22-.79 1.64-1.04q.3-.19.33-.4c.01-.16-.1-.4-.42-.77-.17-.2-.22-.46-.28-.71-.05-.25-.12-.47-.26-.58-.18-.16-.36-.18-.56-.17h-.14c-.24.28-.8.62-1.2.51-.36-.09-.56-.5-.59-.91m-7.2.03q-.26.01-.44.22c-.15.16-.28.38-.44.56-.19.19-.42.24-.62.31s-.35.15-.46.35c-.08.16-.06.38-.03.63.04.24.1.5.02.74-.16.44-.15.69-.08.83q.1.2.48.27c.5.1 1.26.07 1.9.41.59.3 1.17.4 1.6.3s.72-.36.75-.86c.03-.3-.2-.67-.48-1.05-.3-.38-.63-.76-.8-1.1l-.6-1.1q-.32-.45-.69-.5zm5.74-6.07q-.22.31-.7.47c-.14.04-.3.17-.49.28a1.3 1.3 0 0 1-.74.19 1 1 0 0 1-.58-.23q-.2-.18-.4-.32L6.5 5.1c-.07 1.18-.85 2.66-1.23 3.51a5 5 0 0 0-.43 1.92c-.68-.9-.18-2.07.08-2.57.3-.55.34-.7.27-.65a7 7 0 0 0-.85 1.85q-.14.56.01 1.1.15.52.77.92.85.54 1.2 1.02c.34.48.3.58.22.78a.4.4 0 0 1-.21.22 1 1 0 0 1-.3.05l.18.24.26.37c1.18.8 2.57.5 3.57-.21.1-.35.2-.67.21-.9q.02-.72.14-1.25c.12-.53.24-.64.53-.8l.14-.06.01-.08c.08-.55.57-.57 1.18-.3q.87.37.71.8h.13c.12-.39-.13-.68-.82-1.02l-.14-.06a2.4 2.4 0 0 0-.01-1.1A4 4 0 0 0 11 7.03q-.12 0 .08.2c.36.34 1.16 1.54.73 2.65a1 1 0 0 0-.34-.04 7 7 0 0 0-.74-2.02 16 16 0 0 1-1.16-2.98M7.72 3.5a1 1 0 0 0-.31.06c-.27.09-.45.28-.56.39l-.12.09-.32.24q-.2.15-.13.38t.46.47q.23.16.4.34l.22.13a1 1 0 0 0 .3.06q.42.01.67-.17c.25-.18.34-.23.52-.29.37-.11.63-.34.71-.56a.4.4 0 0 0 0-.31q-.08-.15-.33-.26c-.35-.15-.5-.16-.7-.29q-.48-.29-.81-.28m-.89-1.12h-.02a.4.4 0 0 0-.28.14 1 1 0 0 0-.2.33 1 1 0 0 0-.04.44q0 .24.1.44.07.17.18.28l.09-.07.12-.09-.03-.02a.4.4 0 0 1-.1-.16l-.06-.22.01-.24a.4.4 0 0 1 .08-.18q.06-.07.13-.07h.01a.2.2 0 0 1 .13.05q.06.06.1.16l.06.22v.18a1 1 0 0 1 .31-.15v-.19a1 1 0 0 0-.1-.44 1 1 0 0 0-.22-.3.4.4 0 0 0-.27-.1m1.95-.16a.6.6 0 0 0-.4.14 1 1 0 0 0-.28.37 1 1 0 0 0-.1.51v.17c.12.03.29.07.41.14v-.17a1 1 0 0 1 .05-.28l.14-.2a.3.3 0 0 1 .18-.07.3.3 0 0 1 .18.08q.09.08.12.2.05.14.04.28v.01a1 1 0 0 1-.05.28c-.03.06-.1.1-.13.14l.15.06.25.1a1.2 1.2 0 0 0 .24-.77 1 1 0 0 0-.1-.5 1 1 0 0 0-.3-.36.6.6 0 0 0-.4-.13"/></svg>