<svg xmlns="http://www.w3.org/2000/svg" width="16" height="16" viewBox="0 0 16 16" id="icon"><path fill-rule="evenodd" d="M14 0a2 2 0 0 1 2 2v12a2 2 0 0 1-2 2H2a2 2 0 0 1-2-2V2a2 2 0 0 1 2-2zm-1.14 7.49q-.58 0-1 .24a1.7 1.7 0 0 0-.64.68 2 2 0 0 0-.22 1q0 .75.29 1.17.3.42.97.74l.47.21q.43.19.62.43t.19.64q0 .47-.17.7-.16.22-.53.22-.36 0-.54-.24-.2-.24-.21-.75h-1.16q.02 1 .5 1.52.48.53 1.38.53.91 0 1.42-.52t.5-1.48q0-.81-.33-1.3t-1.04-.78l-.45-.2q-.39-.17-.56-.38-.16-.21-.16-.58 0-.4.16-.6.18-.19.51-.19.36 0 .5.24.16.23.18.7h1.13q-.03-.98-.5-1.48-.47-.52-1.3-.52M7 7.59v1.12h1.3v5.79h1.22V8.7h1.29V7.6z"/></svg>