<svg xmlns="http://www.w3.org/2000/svg" width="16" height="16" viewBox="0 0 16 16" id="icon"><path d="M15.6 5.18h-1.3c-.1-.45-.62-1.07-1.7-1.07-1.34 0-2.33 1.26-2.33 3.94h.07c.27-.67 1.04-1.44 2.44-1.44 1.5 0 3.02 1.06 3.02 3.07 0 2.12-1.43 3.32-3.32 3.32-1.04 0-2.1-.36-2.77-1.45A6 6 0 0 1 9 8.37C9 4.66 10.5 3 12.64 3c1.8 0 2.88 1.11 2.96 2.18m-5.15 4.56c0 1.37.94 2.15 2.04 2.15 1.13 0 2.03-.68 2.03-2.13 0-1.41-1-2.07-2.03-2.07-1.19 0-2.05.86-2.05 2.05M7.5 13V3.2H6.17v4.15H1.32V3.2H0V13h1.32V8.51h4.85V13z"/></svg>