<svg viewBox="0 0 16 16"><path d="M2.27 9.53a2.27 2.27 0 1 0 0-4.55 2.27 2.27 0 0 0 0 4.55Zm9.47-4.98a2.27 2.27 0 1 0 0-4.55 2.27 2.27 0 0 0 0 4.55ZM7.4 13.1a5.54 5.54 0 0 1-3.77-2.88 3.27 3.27 0 0 1-1.95.24 7.4 7.4 0 0 0 5.33 4.46c.53.12 1.07.17 1.61.17a3.25 3.25 0 0 1-.66-1.9 5.64 5.64 0 0 1-.56-.1Zm3.83 2.28a2.27 2.27 0 1 0 0-4.54 2.27 2.27 0 0 0 0 4.54Zm3.16-3.1a7.44 7.44 0 0 0 .37-8.73 3.28 3.28 0 0 1-1.27 1.5 5.57 5.57 0 0 1-.19 5.53 3.26 3.26 0 0 1 1.1 1.7ZM2.1 3.98a3.28 3.28 0 0 1 1.9.5 5.54 5.54 0 0 1 4.47-2.4A3.3 3.3 0 0 1 9.15.26 7.47 7.47 0 0 0 2.1 4Z"/></svg>