<svg xmlns="http://www.w3.org/2000/svg" width="16" height="16" viewBox="0 0 16 16"><path d="M2.27 9.53a2.27 2.27 0 1 0 0-4.55 2.27 2.27 0 0 0 0 4.55m9.47-4.98a2.27 2.27 0 1 0 0-4.55 2.27 2.27 0 0 0 0 4.55M7.4 13.1a5.5 5.5 0 0 1-3.77-2.88 3.3 3.3 0 0 1-1.95.24 7.4 7.4 0 0 0 5.33 4.46q.8.18 1.61.17a3.3 3.3 0 0 1-.66-1.9zm3.83 2.3a2.27 2.27 0 1 0 0-4.55 2.27 2.27 0 0 0 0 4.54m3.16-3.1a7.4 7.4 0 0 0 .37-8.73 3.3 3.3 0 0 1-1.27 1.5 5.6 5.6 0 0 1-.19 5.53 3.3 3.3 0 0 1 1.1 1.7M2.1 3.98a3.3 3.3 0 0 1 1.9.5 5.5 5.5 0 0 1 4.46-2.4A3.3 3.3 0 0 1 9.15.26 7.5 7.5 0 0 0 2.1 4"/></svg>