<svg viewBox="0 0 16 16"><path d="M7 2.5a.5.5 0 0 1 .5-.5h7a.5.5 0 0 1 .5.5v1a.5.5 0 0 1-.5.5h-7a.5.5 0 0 1-.5-.5v-1zM2 1a2 2 0 0 0-2 2v2a2 2 0 0 0 2 2h2a2 2 0 0 0 2-2V3a2 2 0 0 0-2-2H2zm0 8a2 2 0 0 0-2 2v2a2 2 0 0 0 2 2h2a2 2 0 0 0 2-2v-2a2 2 0 0 0-2-2H2zm.85-3.65a.5.5 0 0 1-.7 0l-1-1a.5.5 0 1 1 .7-.7l.65.64 1.65-1.64a.5.5 0 1 1 .7.7l-2 2zm0 8a.5.5 0 0 1-.7 0l-1-1a.5.5 0 0 1 .7-.7l.65.64 1.65-1.64a.5.5 0 0 1 .7.7l-2 2zM7 10.5a.5.5 0 0 1 .5-.5h7a.5.5 0 0 1 .5.5v1a.5.5 0 0 1-.5.5h-7a.5.5 0 0 1-.5-.5v-1zm0-5a.5.5 0 0 1 .5-.5h5a.5.5 0 0 1 0 1h-5a.5.5 0 0 1-.5-.5zm0 8a.5.5 0 0 1 .5-.5h5a.5.5 0 0 1 0 1h-5a.5.5 0 0 1-.5-.5z"/></svg>