<svg viewBox="0 0 16 16"><path fill-rule="evenodd" d="M8 0a.5.5 0 0 1 .5.5v.51C12.63 1.24 16 4.22 16 8c0 0 0 .5-.5.5-.15 0-.35-.14-.35-.14l-.03-.03a3.48 3.48 0 0 0-.56-.4A3.17 3.17 0 0 0 13 7.5c-.64 0-1.18.21-1.56.43a3.48 3.48 0 0 0-.56.4l-.02.02s-.21.15-.36.15-.35-.14-.35-.14l-.03-.03a3.48 3.48 0 0 0-.56-.4 3.3 3.3 0 0 0-1.06-.39v5.96H8h.5v.12a2.96 2.96 0 0 1-.3 1.1 2.26 2.26 0 0 1-.77.88c-.37.25-.84.4-1.43.4s-1.06-.15-1.43-.4a2.25 2.25 0 0 1-.77-.88 2.96 2.96 0 0 1-.3-1.18v-.03l.5-.01h-.5V13a.5.5 0 0 1 1 0v.55a1.96 1.96 0 0 0 .2.73c.1.19.23.36.42.5.2.12.47.22.88.22s.69-.1.88-.23c.2-.13.33-.3.42-.5a1.96 1.96 0 0 0 .2-.76V7.54a3.3 3.3 0 0 0-1.06.4 3.48 3.48 0 0 0-.58.41s-.21.15-.36.15-.35-.14-.35-.14a3.48 3.48 0 0 0-.59-.43A3.17 3.17 0 0 0 3 7.5c-.64 0-1.18.21-1.56.43a3.48 3.48 0 0 0-.58.42S.64 8.5.5 8.5C0 8.5 0 8 0 8c0-3.78 3.38-6.76 7.5-6.99V.5A.5.5 0 0 1 8 0z"/></svg>