<svg viewBox="0 0 16 16"><path d="m7.8.31-1.54 2.3a.25.25 0 0 0 .2.39H7.5v7.32a2.5 2.5 0 0 0-.52-.3l-1.07-.46A1.5 1.5 0 0 1 5 8.18v-.27a1.5 1.5 0 1 0-1 0v.27a2.5 2.5 0 0 0 1.51 2.3l1.08.46a1.5 1.5 0 0 1 .89 1.13 2 2 0 1 0 1.02 0v-.91a1.5 1.5 0 0 1 .76-1.3L10.74 9a2.5 2.5 0 0 0 1.25-2h.76a.25.25 0 0 0 .25-.25v-2.5a.25.25 0 0 0-.25-.25h-2.5a.25.25 0 0 0-.25.25v2.5c0 .14.11.25.25.25h.74a1.5 1.5 0 0 1-.75 1.14L8.76 9a2.58 2.58 0 0 0-.26.17V3h1.03a.25.25 0 0 0 .21-.39L8.21.31a.25.25 0 0 0-.42 0Z"/></svg>