<svg xmlns="http://www.w3.org/2000/svg" width="16" height="16" viewBox="0 0 16 16" id="icon"><path d="m7.8.31-1.54 2.3a.25.25 0 0 0 .2.39H7.5v7.32a3 3 0 0 0-.51-.3L5.9 9.56A1.5 1.5 0 0 1 5 8.18v-.27a1.5 1.5 0 1 0-1 0v.27a2.5 2.5 0 0 0 1.52 2.3l1.07.46a1.5 1.5 0 0 1 .89 1.13 2 2 0 1 0 1.02 0v-.91a1.5 1.5 0 0 1 .76-1.3L10.74 9a2.5 2.5 0 0 0 1.25-2h.76a.25.25 0 0 0 .25-.25v-2.5a.25.25 0 0 0-.25-.25h-2.5a.25.25 0 0 0-.25.25v2.5c0 .14.11.25.25.25h.74a1.5 1.5 0 0 1-.75 1.14L8.76 9l-.26.17V3h1.03a.25.25 0 0 0 .21-.39L8.21.31a.25.25 0 0 0-.42 0"/></svg>