<svg xmlns="http://www.w3.org/2000/svg" viewBox="0 0 16 16"><path d="M8 6c1.66-1.72 5.83 1.28 0 5.13-5.83-3.86-1.66-6.85 0-5.14ZM2.25 4a.25.25 0 0 0-.25.25v1.5a.25.25 0 0 0 .5 0V4.5h1.25a.25.25 0 0 0 0-.5h-1.5Zm10 0a.25.25 0 1 0 0 .5h1.25v1.25a.25.25 0 1 0 .5 0v-1.5a.25.25 0 0 0-.25-.25h-1.5ZM2.5 10.25a.25.25 0 1 0-.5 0v1.5c0 .14.11.25.25.25h1.5a.25.25 0 1 0 0-.5H2.5v-1.25Zm11.5 0a.25.25 0 1 0-.5 0v1.25h-1.25a.25.25 0 1 0 0 .5h1.5a.25.25 0 0 0 .25-.25v-1.5Z"/><path fill-rule="evenodd" d="M0 3v-.07a1 1 0 0 1 .86-.99l13-1.85a1 1 0 0 1 1.14.99V2a1 1 0 0 1 1 1v10a1 1 0 0 1-1 1H1a1 1 0 0 1-1-1V3Zm1 0v10h14V3H1Z"/></svg>