<svg xmlns="http://www.w3.org/2000/svg" width="16" height="16" viewBox="0 0 16 16" id="icon"><path d="M8 6.5c1.66-1.72 5.83 1.28 0 5.13-5.82-3.86-1.66-6.85 0-5.14M4.25 3a.25.25 0 0 0-.25.25v1.5a.25.25 0 0 0 .5 0V3.5h1.25a.25.25 0 0 0 0-.5zm6 0a.25.25 0 1 0 0 .5h1.25v1.25a.25.25 0 1 0 .5 0v-1.5a.25.25 0 0 0-.25-.25zM4.5 12.25a.25.25 0 1 0-.5 0v1.5c0 .14.11.25.25.25h1.5a.25.25 0 0 0 0-.5H4.5zm7.5 0a.25.25 0 1 0-.5 0v1.25h-1.25a.25.25 0 1 0 0 .5h1.5a.25.25 0 0 0 .25-.25z"/><path fill-rule="evenodd" d="M2 2v-.05a1 1 0 0 1 .9-1l9-.9A1 1 0 0 1 13 1a1 1 0 0 1 1 1v13a1 1 0 0 1-1 1H3a1 1 0 0 1-1-1zm1 0v13h10V2z"/></svg>