<svg viewBox="0 0 16 16"><path d="M8 6.5c1.66-1.72 5.83 1.28 0 5.13-5.83-3.86-1.66-6.85 0-5.14ZM4.25 3a.25.25 0 0 0-.25.25v1.5a.25.25 0 0 0 .5 0V3.5h1.25a.25.25 0 0 0 0-.5h-1.5Zm6 0a.25.25 0 1 0 0 .5h1.25v1.25a.25.25 0 1 0 .5 0v-1.5a.25.25 0 0 0-.25-.25h-1.5ZM4.5 12.25a.25.25 0 1 0-.5 0v1.5c0 .14.11.25.25.25h1.5a.25.25 0 0 0 0-.5H4.5v-1.25Zm7.5 0a.25.25 0 1 0-.5 0v1.25h-1.25a.25.25 0 1 0 0 .5h1.5a.25.25 0 0 0 .25-.25v-1.5Z"/><path fill-rule="evenodd" d="M2 2v-.05a1 1 0 0 1 .9-1l9-.9A1 1 0 0 1 13 1a1 1 0 0 1 1 1v13a1 1 0 0 1-1 1H3a1 1 0 0 1-1-1V2Zm1 0v13h10V2H3Z"/></svg>