<svg xmlns="http://www.w3.org/2000/svg" width="16" height="16" viewBox="0 0 16 16" id="icon"><path d="M8 1a7 7 0 1 0 0 14A7 7 0 0 0 8 1M0 8a8 8 0 1 1 16 0A8 8 0 0 1 0 8"/><path d="M8.5 4.5a.5.5 0 1 1-1 0 .5.5 0 0 1 1 0m0 7a.5.5 0 1 1-1 0 .5.5 0 0 1 1 0m1.68-6.28a.5.5 0 1 1-.86-.5.5.5 0 0 1 .86.5m-3.5 6.06a.5.5 0 1 1-.86-.5.5.5 0 0 1 .86.5m4.6-4.6a.5.5 0 1 1-.5-.86.5.5 0 0 1 .5.86m-6.06 3.5a.5.5 0 1 1-.5-.86.5.5 0 0 1 .5.86M11.5 8.5a.5.5 0 1 1 0-1 .5.5 0 0 1 0 1m-7 0a.5.5 0 1 1 0-1 .5.5 0 0 1 0 1m6.28 1.68a.5.5 0 1 1 .5-.86.5.5 0 0 1-.5.86m-6.06-3.5a.5.5 0 1 1 .5-.86.5.5 0 0 1-.5.86m4.6 4.6a.5.5 0 1 1 .86-.5.5.5 0 0 1-.86.5m-3.5-6.06a.5.5 0 1 1 .86-.5.5.5 0 0 1-.86.5"/></svg>