<svg viewBox="0 0 16 16"><path d="M8 0a1 1 0 0 1 1 1v1.4c0 .51.68.7.93.25l.7-1.21a1 1 0 0 1 1.74 1l-.7 1.21a.5.5 0 0 0 .68.69l1.21-.7a1 1 0 0 1 1 1.73l-1.21.7c-.45.25-.26.93.25.93H15a1 1 0 1 1 0 2h-1.4c-.51 0-.7.68-.25.93l1.21.7a1 1 0 1 1-1 1.74l-1.21-.7c-.44-.26-.94.24-.68.68l.7 1.21a1 1 0 1 1-1.74 1l-.7-1.21c-.25-.44-.93-.26-.93.25V15a1 1 0 1 1-2 0v-1.4c0-.51-.68-.7-.93-.25l-.7 1.21a1 1 0 0 1-1.74-1l.7-1.21c.26-.44-.24-.94-.68-.68l-1.21.7a1 1 0 1 1-1-1.74l1.21-.7C3.1 9.68 2.91 9 2.4 9H1a1 1 0 1 1 0-2h1.4c.51 0 .7-.68.25-.93l-1.21-.7a1 1 0 1 1 1-1.74l1.21.7a.5.5 0 0 0 .69-.68l-.7-1.21a1 1 0 0 1 1.73-1l.7 1.21c.25.45.93.26.93-.25V1a1 1 0 0 1 1-1Zm2 5a1 1 0 1 0-2 0 1 1 0 0 0 2 0ZM6 7a1 1 0 1 0-2 0 1 1 0 0 0 2 0Zm1 4a1 1 0 1 0 0-2 1 1 0 0 0 0 2Zm5-3a1 1 0 1 0-2 0 1 1 0 0 0 2 0Z"/></svg>