<svg xmlns="http://www.w3.org/2000/svg" width="16" height="16" viewBox="0 0 16 16" id="icon"><path d="M8 0a1 1 0 0 0-1 1v1.14c0 .56-.4 1.03-.92 1.24-.52.22-1.12.17-1.51-.23l-.81-.8a1 1 0 1 0-1.42 1.4l.81.82c.4.39.45 1 .23 1.5-.21.52-.68.93-1.24.93H1a1 1 0 0 0 0 2h1.14c.56 0 1.03.4 1.24.92.22.51.17 1.12-.23 1.51l-.8.81a1 1 0 0 0 1.4 1.42l.82-.81c.39-.4 1-.45 1.5-.23.52.21.93.68.93 1.24V15a1 1 0 1 0 2 0v-1.14c0-.56.4-1.03.92-1.24.51-.22 1.12-.17 1.51.23l.81.8a1 1 0 0 0 1.42-1.4l-.81-.82c-.4-.39-.45-1-.23-1.5.21-.52.68-.93 1.24-.93H15a1 1 0 1 0 0-2h-1.14c-.56 0-1.03-.4-1.24-.92-.22-.52-.17-1.12.23-1.51l.8-.81a1 1 0 0 0-1.4-1.42l-.82.81c-.39.4-1 .45-1.5.23C9.4 3.17 9 2.7 9 2.14V1a1 1 0 0 0-1-1m2 5a1 1 0 1 1-2 0 1 1 0 0 1 2 0M7 7a1 1 0 1 1-2 0 1 1 0 0 1 2 0m1 5a1 1 0 1 1 0-2 1 1 0 0 1 0 2m4-4a1 1 0 1 1-2 0 1 1 0 0 1 2 0"/></svg>