<svg viewBox="0 0 16 16"><path d="M11.54 14.01A8.47 8.47 0 0 0 14.03 8a8.47 8.47 0 0 0-2.5-6.01l-.7.7A7.48 7.48 0 0 1 13.03 8c0 2.07-.84 3.95-2.2 5.3l.7.71z"/><path d="M10.12 12.6a6.48 6.48 0 0 0 1.9-4.6 6.48 6.48 0 0 0-1.9-4.6l-.7.71A5.48 5.48 0 0 1 11.01 8a5.48 5.48 0 0 1-1.6 3.89l.7.7z"/><path d="M8.7 11.18A4.49 4.49 0 0 0 10.04 8 4.49 4.49 0 0 0 8.7 4.82l-.71.7A3.49 3.49 0 0 1 9.03 8 3.49 3.49 0 0 1 8 10.47l.7.71zM6.73 3.55A.5.5 0 0 1 7 4v8a.5.5 0 0 1-.81.39L3.82 10.5H1.5A.5.5 0 0 1 1 10V6a.5.5 0 0 1 .5-.5h2.33l2.36-1.89a.5.5 0 0 1 .53-.06z"/></svg>