<svg xmlns="http://www.w3.org/2000/svg" width="16" height="16" viewBox="0 0 16 16"><path d="M11.54 14.01A8.5 8.5 0 0 0 14.03 8a8.5 8.5 0 0 0-2.5-6.01l-.7.7A7.5 7.5 0 0 1 13.03 8c0 2.07-.84 3.95-2.2 5.3z"/><path d="M10.12 12.6a6.5 6.5 0 0 0 1.9-4.6 6.5 6.5 0 0 0-1.9-4.6l-.7.71A5.5 5.5 0 0 1 11.01 8a5.5 5.5 0 0 1-1.6 3.89z"/><path d="M8.7 11.18A4.5 4.5 0 0 0 10.04 8 4.5 4.5 0 0 0 8.7 4.82l-.71.7A3.5 3.5 0 0 1 9.03 8 3.5 3.5 0 0 1 8 10.47zM6.73 3.55A.5.5 0 0 1 7 4v8a.5.5 0 0 1-.81.39L3.82 10.5H1.5A.5.5 0 0 1 1 10V6a.5.5 0 0 1 .5-.5h2.33l2.36-1.89a.5.5 0 0 1 .53-.06"/></svg>