<svg xmlns="http://www.w3.org/2000/svg" width="16" height="16" viewBox="0 0 16 16"><path d="M11.54 14.01A8.5 8.5 0 0 0 14.03 8a8.5 8.5 0 0 0-2.5-6.01l-.7.7A7.5 7.5 0 0 1 13.03 8c0 2.07-.84 3.95-2.2 5.3z"/><path d="M10.12 12.6a6.5 6.5 0 0 0 1.9-4.6 6.5 6.5 0 0 0-1.9-4.6l-.7.71A5.5 5.5 0 0 1 11.01 8a5.5 5.5 0 0 1-1.6 3.89z"/><path d="M10.03 8a4.5 4.5 0 0 1-1.32 3.18l-.71-.7A3.5 3.5 0 0 0 9.03 8c0-.97-.4-1.84-1.03-2.47l.7-.71A4.5 4.5 0 0 1 10.04 8M7 4a.5.5 0 0 0-.81-.39L3.82 5.5H1.5A.5.5 0 0 0 1 6v4a.5.5 0 0 0 .5.5h2.33l2.36 1.89A.5.5 0 0 0 7 12zM4.31 6.39 6 5.04v5.92L4.31 9.61A.5.5 0 0 0 4 9.5H2v-3h2a.5.5 0 0 0 .31-.11"/></svg>