<svg viewBox="0 0 16 16"><path d="M.04 3.31a.5.5 0 0 1 .65-.27l1.75.7a1.5 1.5 0 0 0 1.12 0l1.01-.4a2.5 2.5 0 0 1 1.86 0l1.01.4a1.5 1.5 0 0 0 1.12 0l1.01-.4a2.5 2.5 0 0 1 1.86 0l1.01.4a1.5 1.5 0 0 0 1.12 0l1.75-.7a.5.5 0 1 1 .38.92l-1.76.7a2.5 2.5 0 0 1-1.86 0l-1.01-.4a1.5 1.5 0 0 0-1.12 0l-1.01.4a2.5 2.5 0 0 1-1.86 0l-1.01-.4a1.5 1.5 0 0 0-1.12 0l-1.01.4a2.5 2.5 0 0 1-1.86 0l-1.76-.7a.5.5 0 0 1-.27-.65zm0 3a.5.5 0 0 1 .65-.27l1.75.7a1.5 1.5 0 0 0 1.12 0l1.01-.4a2.5 2.5 0 0 1 1.86 0l1.01.4a1.5 1.5 0 0 0 1.12 0l1.01-.4a2.5 2.5 0 0 1 1.86 0l1.01.4a1.5 1.5 0 0 0 1.12 0l1.75-.7a.5.5 0 1 1 .38.92l-1.76.7a2.5 2.5 0 0 1-1.86 0l-1.01-.4a1.5 1.5 0 0 0-1.12 0l-1.01.4a2.5 2.5 0 0 1-1.86 0l-1.01-.4a1.5 1.5 0 0 0-1.12 0l-1.01.4a2.5 2.5 0 0 1-1.86 0l-1.76-.7a.5.5 0 0 1-.27-.65zm0 3a.5.5 0 0 1 .65-.27l1.75.7a1.5 1.5 0 0 0 1.12 0l1.01-.4a2.5 2.5 0 0 1 1.86 0l1.01.4a1.5 1.5 0 0 0 1.12 0l1.01-.4a2.5 2.5 0 0 1 1.86 0l1.01.4a1.5 1.5 0 0 0 1.12 0l1.75-.7a.5.5 0 1 1 .38.92l-1.76.7a2.5 2.5 0 0 1-1.86 0l-1.01-.4a1.5 1.5 0 0 0-1.12 0l-1.01.4a2.5 2.5 0 0 1-1.86 0l-1.01-.4a1.5 1.5 0 0 0-1.12 0l-1.01.4a2.5 2.5 0 0 1-1.86 0l-1.76-.7a.5.5 0 0 1-.27-.65zm0 3a.5.5 0 0 1 .65-.27l1.75.7a1.5 1.5 0 0 0 1.12 0l1.01-.4a2.5 2.5 0 0 1 1.86 0l1.01.4a1.5 1.5 0 0 0 1.12 0l1.01-.4a2.5 2.5 0 0 1 1.86 0l1.01.4a1.5 1.5 0 0 0 1.12 0l1.75-.7a.5.5 0 1 1 .38.92l-1.76.7a2.5 2.5 0 0 1-1.86 0l-1.01-.4a1.5 1.5 0 0 0-1.12 0l-1.01.4a2.5 2.5 0 0 1-1.86 0l-1.01-.4a1.5 1.5 0 0 0-1.12 0l-1.01.4a2.5 2.5 0 0 1-1.86 0l-1.76-.7a.5.5 0 0 1-.27-.65z"/></svg>