<svg xmlns="http://www.w3.org/2000/svg" width="16" height="16" viewBox="0 0 16 16"><path d="M11.18 14.43c-2.67 0-4.83-1.8-4.83-4.02S8.51 6.4 11.17 6.4 16 8.2 16 10.41c0 1.21-.65 2.3-1.67 3.04a.3.3 0 0 0-.12.36l.22.81.03.12a.2.2 0 0 1-.16.16l-.1-.03-1.05-.6-.26-.08-.14.02a6 6 0 0 1-1.57.22M9.06 9.54a.65.65 0 1 0 .56-1 .65.65 0 0 0-.64.65.6.6 0 0 0 .08.35m3.24 0a.65.65 0 1 0 .54-1 .65.65 0 0 0-.64.65.6.6 0 0 0 .1.35"/><path d="M0 6.83c0 1.45.78 2.76 2 3.65a.4.4 0 0 1 .14.44l-.16.6-.1.37-.03.14a.2.2 0 0 0 .2.2q.05 0 .1-.03l1.27-.74a1 1 0 0 1 .31-.08q.09 0 .17.02a7 7 0 0 0 1.63.26 5 5 0 0 1-.18-1.25c0-2.94 2.79-5.02 5.82-5.02h.15C10.6 3.43 8.4 2 5.8 2 2.6 2 0 4.16 0 6.83m4.63-1.56a.77.77 0 1 1-1.54 0 .77.77 0 0 1 1.54 0m3.88 0a.77.77 0 1 1-1.54 0 .77.77 0 0 1 1.54 0"/></svg>