<svg xmlns="http://www.w3.org/2000/svg" viewBox="0 0 16 16"><path d="M11.18 14.43c-2.67 0-4.83-1.8-4.83-4.02 0-2.22 2.16-4.02 4.82-4.02S16 8.2 16 10.41c0 1.21-.65 2.3-1.67 3.04a.32.32 0 0 0-.12.36l.22.81a.62.62 0 0 1 .03.12.17.17 0 0 1-.16.16.18.18 0 0 1-.1-.03l-1.05-.6a.52.52 0 0 0-.26-.08.5.5 0 0 0-.14.02 5.67 5.67 0 0 1-1.57.22ZM9.06 9.54a.65.65 0 1 0 .56-1 .65.65 0 0 0-.64.65.61.61 0 0 0 .08.35Zm3.24 0a.65.65 0 1 0 .54-1 .65.65 0 0 0-.64.65.63.63 0 0 0 .1.35Z"/><path d="M0 6.83c0 1.45.78 2.76 2 3.65a.39.39 0 0 1 .14.44l-.16.6-.1.37a.5.5 0 0 0-.03.14.2.2 0 0 0 .2.2.2.2 0 0 0 .1-.03l1.27-.74a.62.62 0 0 1 .31-.08c.06 0 .12 0 .17.02a6.83 6.83 0 0 0 1.63.26 4.45 4.45 0 0 1-.18-1.25c0-2.94 2.79-5.02 5.82-5.02h.15C10.6 3.43 8.4 2 5.8 2 2.6 2 0 4.16 0 6.83Zm4.63-1.56a.77.77 0 1 1-1.54 0 .77.77 0 0 1 1.54 0Zm3.88 0a.77.77 0 1 1-1.54 0 .77.77 0 0 1 1.54 0Z"/></svg>