<svg xmlns="http://www.w3.org/2000/svg" width="16" height="16" viewBox="0 0 16 16"><path d="M13.6 2.33A8 8 0 0 0 8 0a7.94 7.94 0 0 0-6.88 11.9L0 16l4.2-1.1a8 8 0 0 0 3.8.96 7.94 7.94 0 0 0 7.93-7.93 8 8 0 0 0-2.33-5.6M8 14.53a6.6 6.6 0 0 1-3.36-.93l-.24-.14-2.5.65.67-2.43-.16-.25a6.6 6.6 0 0 1-1-3.5A6.6 6.6 0 0 1 8 1.32a6.6 6.6 0 0 1 4.66 1.94 6.6 6.6 0 0 1 1.93 4.66 6.6 6.6 0 0 1-6.6 6.6m3.62-4.94c-.2-.1-1.17-.58-1.35-.65-.19-.06-.32-.1-.45.1s-.51.65-.63.78q-.15.2-.43.04c-.2-.1-.83-.3-1.59-.98a6 6 0 0 1-1.1-1.37c-.12-.2-.01-.3.09-.4l.3-.35c.1-.11.13-.2.2-.33.06-.13.02-.25-.02-.35L6 4.61c-.16-.39-.32-.33-.44-.34h-.38a.7.7 0 0 0-.53.24c-.18.2-.7.68-.7 1.66s.72 1.91.82 2.05 1.4 2.13 3.38 2.99q.7.29 1.13.41c.48.16.9.13 1.25.09.38-.06 1.17-.49 1.34-.95.16-.46.16-.86.1-.94q-.06-.1-.37-.23"/></svg>