<svg xmlns="http://www.w3.org/2000/svg" width="16" height="16" viewBox="0 0 16 16"><path d="M10.7 3.3A13 13 0 0 0 8 3C5.26 3 2.72 3.88.66 5.38a.5.5 0 0 0-.04.73.5.5 0 0 0 .66.05A11.5 11.5 0 0 1 8 4q.95 0 1.85.15zM8 6c-1.9 0-3.68.56-5.17 1.53a.48.48 0 0 0-.06.74.5.5 0 0 0 .65.07 8.5 8.5 0 0 1 3.51-1.27zm2.6 1.4.78-.78q.95.36 1.79.9a.48.48 0 0 1 .06.75.5.5 0 0 1-.65.07 9 9 0 0 0-1.98-.94M8 10l.93-.93a7 7 0 0 1 2.02.63c.28.15.32.53.1.75l-.02.02a.5.5 0 0 1-.61.09A5.5 5.5 0 0 0 8 10m4.9-4.9.75-.75q.89.45 1.69 1.03a.5.5 0 0 1 .04.74.5.5 0 0 1-.66.05A12 12 0 0 0 12.9 5.1m-3.89 6.68c.24.14.24.46.04.66l-.7.7a.5.5 0 0 1-.71 0l-.71-.7c-.2-.2-.2-.52.04-.66A2 2 0 0 1 8 11.5q.56 0 1.02.28zm4.36-9.9a.53.53 0 0 1 .74.75L3.39 13.38a.53.53 0 0 1-.75-.76z"/></svg>