<svg viewBox="0 0 16 16"><path d="M13.23 8.27c.21-.21.2-.58-.06-.74A9.46 9.46 0 0 0 8 6c-1.9 0-3.68.56-5.17 1.53a.48.48 0 0 0-.06.74.53.53 0 0 0 .65.07A8.46 8.46 0 0 1 8 7a8.46 8.46 0 0 1 4.58 1.34c.2.13.48.1.65-.07zm-2.18 2.18a.47.47 0 0 0-.1-.75A6.47 6.47 0 0 0 8 9c-1.06 0-2.06.25-2.95.7a.47.47 0 0 0-.1.75l.02.02c.16.16.4.19.61.09A5.48 5.48 0 0 1 8 10c.87 0 1.69.2 2.42.56.2.1.45.07.61-.1h.02zm-1.99 1.99c.2-.2.2-.52-.04-.66A1.99 1.99 0 0 0 8 11.5a1.99 1.99 0 0 0-1.02.28c-.24.14-.24.46-.04.66l.7.7a.5.5 0 0 0 .71 0l.71-.7z"/></svg>