<svg xmlns="http://www.w3.org/2000/svg" width="16" height="16" viewBox="0 0 16 16"><path d="M13.23 8.27c.21-.21.2-.58-.06-.74A9.5 9.5 0 0 0 8 6c-1.9 0-3.68.56-5.17 1.53a.48.48 0 0 0-.06.74.5.5 0 0 0 .65.07A8.5 8.5 0 0 1 8 7a8.5 8.5 0 0 1 4.58 1.34c.2.13.48.1.65-.07m-2.18 2.18a.47.47 0 0 0-.1-.75A6.5 6.5 0 0 0 8 9q-1.6.01-2.95.7a.47.47 0 0 0-.1.75l.02.02c.16.16.4.19.61.09A5.5 5.5 0 0 1 8 10q1.31.01 2.42.56c.2.1.45.07.61-.1zm-1.99 1.99c.2-.2.2-.52-.04-.66A2 2 0 0 0 8 11.5a2 2 0 0 0-1.02.28c-.24.14-.24.46-.04.66l.7.7a.5.5 0 0 0 .71 0z"/></svg>