<svg xmlns="http://www.w3.org/2000/svg" viewBox="0 0 16 16"><path d="M10.7 3.3A12.54 12.54 0 0 0 8 3C5.26 3 2.72 3.88.66 5.38a.48.48 0 0 0-.04.73.52.52 0 0 0 .66.05A11.45 11.45 0 0 1 8 4c.63 0 1.25.05 1.85.15l.86-.86zM8 6c-1.9 0-3.68.56-5.17 1.53a.48.48 0 0 0-.06.74.53.53 0 0 0 .65.07 8.45 8.45 0 0 1 3.51-1.27L8 6zm2.6 1.4.78-.78c.63.24 1.23.54 1.79.9a.48.48 0 0 1 .06.75.53.53 0 0 1-.65.07 8.46 8.46 0 0 0-1.98-.94zM8 10l.93-.93a6.46 6.46 0 0 1 2.02.63c.28.15.32.53.1.75l-.02.02a.53.53 0 0 1-.61.09A5.48 5.48 0 0 0 8 10zm4.9-4.9.75-.75c.6.3 1.16.64 1.69 1.03a.48.48 0 0 1 .04.74.52.52 0 0 1-.66.05A11.5 11.5 0 0 0 12.9 5.1zm-3.88 6.68c.24.14.24.46.04.66l-.7.7a.5.5 0 0 1-.71 0l-.71-.7c-.2-.2-.2-.52.04-.66A1.99 1.99 0 0 1 8 11.5c.37 0 .72.1 1.02.28zm4.36-9.9a.53.53 0 0 1 .74.75L3.38 13.38a.53.53 0 0 1-.75-.76L13.38 1.88z"/></svg>