<svg xmlns="http://www.w3.org/2000/svg" width="16" height="16" viewBox="0 0 16 16" id="icon"><path d="M8.84 3h2.68l.04.03v.3q0 .11-.14.11c-.43.02-.52.06-.68.3l-.43.68-1.52 2.85-.04.09 1.85 3.8.12.03 2.92-6.95q.15-.42-.04-.6c-.13-.1-.23-.17-.56-.19l-.28-.01-.1-.04a.1.1 0 0 1-.04-.08v-.29l.04-.03h3.3l.04.03v.3q0 .1-.13.1-.65.04-.96.29a1.6 1.6 0 0 0-.5.7s-2.68 6.16-3.6 8.21c-.36.67-.7.61-1-.02l-1.77-3.8a104 104 0 0 1-1.9 3.81c-.4.72-.74.62-1.01.02A99 99 0 0 0 3.3 8.66C2.57 7.09 1.83 5.5 1.37 4.38q-.25-.6-.42-.75-.18-.15-.74-.18Q0 3.42 0 3.35v-.31L.03 3h3.6l.03.03v.29q0 .12-.15.11l-.37.02q-.49.02-.49.29 0 .12.11.4c.72 1.75 3.21 7 3.21 7l.1.02 1.6-3.2-.33-.7-1.1-2.17-.29-.58-.1-.2c-.38-.77-.4-.82-.86-.88q-.2 0-.2-.1v-.3L4.81 3h2.86l.07.02v.3q0 .1-.15.1l-.2.04c-.53.04-.44.25-.1.94l1.06 2.17 1.17-2.34c.2-.42.16-.53.08-.63-.05-.05-.2-.14-.54-.16l-.14-.01-.1-.04a.1.1 0 0 1-.04-.08v-.29z"/></svg>