<svg viewBox="0 0 16 16"><path d="M8.84 3h2.68l.04.03v.3c0 .07-.05.11-.14.11-.43.02-.52.06-.68.3l-.43.68-1.52 2.85-.04.09 1.85 3.8.12.03 2.92-6.95c.1-.28.09-.47-.04-.6-.13-.1-.23-.17-.56-.19l-.28-.01a.16.16 0 0 1-.1-.04.1.1 0 0 1-.04-.08v-.29l.04-.03h3.3l.04.03v.3c0 .07-.04.1-.13.1-.44.03-.76.12-.96.29a1.64 1.64 0 0 0-.5.7s-2.68 6.16-3.6 8.21c-.36.67-.7.61-1-.02a224.05 224.05 0 0 1-1.77-3.8c-.62 1.28-1.47 3.03-1.9 3.81-.4.72-.74.62-1.01.02A99 99 0 0 0 3.3 8.66C2.57 7.09 1.83 5.5 1.37 4.38c-.17-.4-.3-.65-.42-.75-.12-.1-.36-.16-.74-.18-.14-.02-.21-.06-.21-.1v-.31L.03 3h3.6l.03.03v.29c0 .08-.05.11-.15.11l-.37.02c-.33.01-.49.11-.49.29 0 .08.04.21.11.4.72 1.75 3.21 7 3.21 7l.1.02 1.6-3.2-.33-.7-1.1-2.17-.29-.58-.1-.2c-.38-.77-.4-.82-.86-.88-.14-.01-.2-.03-.2-.1v-.3L4.81 3h2.86l.07.02v.3c0 .07-.05.1-.15.1l-.2.04c-.53.04-.44.25-.1.94l1.06 2.17 1.17-2.34c.2-.42.16-.53.08-.63-.05-.05-.2-.14-.54-.16l-.14-.01a.16.16 0 0 1-.1-.04.1.1 0 0 1-.04-.08v-.29L8.83 3Z"/></svg>