<svg xmlns="http://www.w3.org/2000/svg" width="16" height="16" viewBox="0 0 16 16"><path d="M12.63 7.65c0-.85-.3-1.43-.56-1.89l-.08-.13c-.32-.5-.6-.96-.6-1.48 0-.63.48-1.22 1.15-1.22h.09A6.8 6.8 0 0 0 8 1.14a6.9 6.9 0 0 0-5.73 3.1h.44c.72 0 1.83-.08 1.83-.08.37-.02.41.52.04.57 0 0-.37.04-.78.06l2.5 7.44L7.8 7.7 6.73 4.78C6.36 4.76 6 4.72 6 4.72c-.37-.03-.33-.6.04-.57 0 0 1.13.09 1.8.09.72 0 1.84-.09 1.84-.09.37-.02.41.52.04.57 0 0-.37.04-.79.06l2.48 7.38.69-2.29.05-.17c.27-.86.47-1.5.47-2.05zM1.13 8a6.9 6.9 0 0 0 3.88 6.18L1.73 5.2a7 7 0 0 0-.6 2.8"/><path d="M6.06 14.58 8.12 8.6l2.11 5.78.05.1a7 7 0 0 1-4.22.1m7.96-9.87q.05.32.05.7c0 .7-.13 1.48-.52 2.46l-2.1 6.06a6.86 6.86 0 0 0 2.57-9.22"/><path fill-rule="evenodd" d="M0 8a8 8 0 0 1 16 0A8.01 8.01 0 0 1 0 8m.37 0a7.64 7.64 0 1 0 15.28-.02A7.64 7.64 0 0 0 .37 8"/></svg>