<svg viewBox="0 0 16 16"><path d="M12.63 7.65c0-.85-.3-1.43-.56-1.89l-.08-.13c-.32-.5-.6-.96-.6-1.48 0-.63.48-1.22 1.15-1.22h.09A6.84 6.84 0 0 0 8 1.14a6.86 6.86 0 0 0-5.73 3.1h.44c.72 0 1.83-.08 1.83-.08.37-.02.41.52.04.57 0 0-.37.04-.79.06l2.5 7.44L7.8 7.7 6.72 4.78c-.36-.02-.71-.06-.71-.06-.37-.03-.33-.6.04-.57 0 0 1.13.09 1.8.09.72 0 1.84-.09 1.84-.09.37-.02.41.52.04.57 0 0-.37.04-.79.06l2.48 7.38.69-2.29.05-.17c.27-.86.47-1.5.47-2.05zM1.13 8a6.86 6.86 0 0 0 3.88 6.18L1.73 5.2a6.84 6.84 0 0 0-.6 2.8z"/><path d="M6.06 14.58 8.12 8.6l2.11 5.78.05.1a6.85 6.85 0 0 1-4.22.1zm7.96-9.87a6.47 6.47 0 0 1-.47 3.16l-2.1 6.06a6.86 6.86 0 0 0 2.57-9.22z"/><path fill-rule="evenodd" d="M0 8a8 8 0 0 1 16 0A8.01 8.01 0 0 1 0 8zm.37 0a7.64 7.64 0 1 0 15.28-.02A7.64 7.64 0 0 0 .37 8z"/></svg>