<svg xmlns="http://www.w3.org/2000/svg" viewBox="0 0 16 16"><path d="M12.5 8a4.5 4.5 0 0 1-1.7 3.53L9.5 8.5l2.96-1.11c.02.2.04.4.04.61Z"/><path d="M16 8A8 8 0 1 1 0 8a8 8 0 0 1 16 0Zm-1 0a7 7 0 1 0-13.2 3.25l1.99-1.66a4.5 4.5 0 0 1 7.53-4.62L7.5 6.5l1 2.5 1.33 3.11c-.56.25-1.18.39-1.83.39a4.49 4.49 0 0 1-1.6-.29L4.75 14.2A7 7 0 0 0 15 8Zm-8.3.14a.25.25 0 0 0-.28-.38l-1.5.5.16.48.8-.27-.6.9a.25.25 0 0 0 .3.37l.8-.27-.6.9a.25.25 0 0 0 .3.37l1.5-.5-.16-.48-.81.27.6-.9a.25.25 0 0 0-.3-.37l-.8.27.6-.9Z"/></svg>