<svg xmlns="http://www.w3.org/2000/svg" viewBox="0 0 16 16"><path d="M16 4.5a4.5 4.5 0 0 1-1.7 3.53L13 5l2.96-1.11c.03.2.04.4.04.61Z"/><path d="M11.5 9c.65 0 1.27-.14 1.83-.39L12 5.5 11 3l3.83-1.53a4.5 4.5 0 0 0-7.54 4.62l-6.12 5.1a2.58 2.58 0 1 0 3.64 3.64l5.1-6.12A4.49 4.49 0 0 0 11.5 9Zm-1.3-4.36-.59.9.81-.28a.25.25 0 0 1 .29.38l-.6.9.81-.28.16.48-1.5.5a.25.25 0 0 1-.29-.38l.6-.9-.81.28a.25.25 0 0 1-.29-.38l.6-.9-.81.28-.16-.48 1.5-.5a.25.25 0 0 1 .29.38ZM3 14a1 1 0 1 1 0-2 1 1 0 0 1 0 2Z"/></svg>