<svg xmlns="http://www.w3.org/2000/svg" width="16" height="16" viewBox="0 0 16 16"><path d="M7.99 16a1.5 1.5 0 0 1-1.07-.45L.45 9.08a1.53 1.53 0 0 1 0-2.16L6.92.45a1.53 1.53 0 0 1 2.16 0l6.47 6.47a1.5 1.5 0 0 1 .45 1.1 1.5 1.5 0 0 1-.45 1.06l-6.47 6.47a1.5 1.5 0 0 1-1.1.45zM7.64 1.17 4.77 4.04 8 7.28l3.23-3.24-2.87-2.87a.5.5 0 0 0-.72 0M8.72 8l3.24 3.23 2.87-2.87a.5.5 0 0 0 0-.72l-2.87-2.87zM8 8.72l-3.23 3.24 2.87 2.87c.2.2.52.2.72 0l2.87-2.87zM7.28 8 4.04 4.77 1.17 7.64a.5.5 0 0 0 0 .72l2.87 2.87z"/></svg>