<svg xmlns="http://www.w3.org/2000/svg" width="16" height="16" viewBox="0 0 16 16"><path d="M4.54.15A.5.5 0 0 1 4.89 0h6.22a.5.5 0 0 1 .35.15l4.4 4.39a.5.5 0 0 1 .14.35v6.22a.5.5 0 0 1-.15.35l-4.39 4.4a.5.5 0 0 1-.35.14H4.89a.5.5 0 0 1-.35-.15l-4.4-4.39a.5.5 0 0 1-.14-.35V4.89a.5.5 0 0 1 .15-.35zM5.1 1 1 5.1v5.8L5.1 15h5.8l4.1-4.1V5.1L10.9 1z"/><path d="M4.65 4.65a.5.5 0 0 1 .7 0L8 7.29l2.65-2.64a.5.5 0 0 1 .7.7L8.71 8l2.64 2.65a.5.5 0 0 1-.7.7L8 8.71l-2.65 2.64a.5.5 0 0 1-.7-.7L7.29 8 4.65 5.35a.5.5 0 0 1 0-.7"/></svg>