<svg viewBox="0 0 16 16"><path d="M7.2 15.97a7.99 7.99 0 0 1-3.55-1.26c-.9-.59-1.1-.83-1.1-1.3 0-.97 1.06-2.67 2.88-4.6C6.46 7.73 7.9 6.45 8.05 6.48c.3.07 2.72 2.43 3.62 3.54 1.43 1.75 2.1 3.19 1.76 3.83-.26.48-1.83 1.43-2.99 1.8-.95.3-2.2.43-3.24.33ZM1.34 12.4A8.28 8.28 0 0 1 .03 8.5c-.06-.54-.04-.85.14-1.95A8 8 0 0 1 2.11 2.6c.4-.42.44-.43.93-.27.6.2 1.23.64 2.21 1.53l.58.52-.32.39a24.9 24.9 0 0 0-3.57 5.88c-.32.86-.44 1.71-.3 2.07.08.24 0 .15-.3-.32Zm13.1.2a3.87 3.87 0 0 0-.24-1.7c-.47-1.44-2.06-4.12-3.5-5.95l-.47-.57.5-.46c.64-.59 1.1-.94 1.58-1.25.38-.23.93-.44 1.16-.44.14 0 .65.52 1.06 1.1a8.37 8.37 0 0 1 1.35 3.1c.15.73.16 2.29.02 3.01a9.5 9.5 0 0 1-.6 1.9 9.96 9.96 0 0 1-.82 1.4c-.1.13-.1.13-.04-.15ZM7.34 1.94a9.9 9.9 0 0 0-2.28-.8 4.17 4.17 0 0 0-.76-.04c-.47.02-.45 0 .3-.36A7.78 7.78 0 0 1 6.48.13c.8-.17 2.3-.17 3.1 0a8.3 8.3 0 0 1 2.41.9l.17.1-.39-.02a7 7 0 0 0-3.07.85c-.36.18-.68.32-.7.31a12.25 12.25 0 0 1-.66-.32Z"/></svg>