<svg xmlns="http://www.w3.org/2000/svg" viewBox="0 0 16 16"><path d="m4.19 10.1.73-.17A.82.82 0 0 0 5 9.9a.81.81 0 0 0 .45-1.26 1.02 1.02 0 0 0-.3-.26 2.78 2.78 0 0 0-.43-.2l-.8-.3a76.03 76.03 0 0 0-1.37-.48l-.77-.27-.12-.04a2.14 2.14 0 0 0-.6-.11.72.72 0 0 0-.58.24 1.63 1.63 0 0 0-.1.13 1.55 1.55 0 0 0-.16.31A4.4 4.4 0 0 0 0 9.05c0 .42.01.96.25 1.33a.79.79 0 0 0 .22.24c.16.12.33.13.5.14.26.02.52-.04.77-.1l2.45-.57Zm8.22-3.92a4.18 4.18 0 0 0-.8-1.14 1.6 1.6 0 0 0-.28-.2 1.6 1.6 0 0 0-.15-.08.72.72 0 0 0-.62.03c-.14.07-.3.18-.5.37l-.09.1c-.17.15-.35.34-.57.57L8.39 6.87l-.6.62a2.79 2.79 0 0 0-.3.36 1 1 0 0 0-.16.37.81.81 0 0 0 .01.3v.01a.81.81 0 0 0 .95.62.77.77 0 0 0 .07-.02l3.19-.73c.25-.06.5-.11.73-.24.15-.1.3-.18.4-.35a.79.79 0 0 0 .09-.32c.05-.43-.18-.92-.36-1.3ZM6.7 7.52c.23-.29.23-.72.25-1.07l.2-3.55c.02-.44.07-.89.04-1.34-.02-.37-.02-.8-.26-1.1-.41-.54-1.3-.5-1.9-.41a5.3 5.3 0 0 0-.55.1 7.59 7.59 0 0 0-.55.15C3.35.5 2.54.84 2.4 1.5c-.07.38.11.77.25 1.11.18.42.41.8.63 1.19l1.73 3.1c.17.3.36.7.7.85l.06.03a.8.8 0 0 0 .47.03h.03a.8.8 0 0 0 .37-.23.73.73 0 0 0 .06-.06Zm-.28 3.16a.74.74 0 0 0-.92-.23.98.98 0 0 0-.15.09 1.9 1.9 0 0 0-.34.35c-.03.04-.05.08-.08.1l-.52.71-.86 1.2-.47.67-.07.1c-.15.24-.24.41-.28.57a.73.73 0 0 0-.03.31.8.8 0 0 0 .1.31l.1.14a1.55 1.55 0 0 0 .26.24 4.48 4.48 0 0 0 2.2.76 1.6 1.6 0 0 0 .35-.03 1.57 1.57 0 0 0 .16-.05.8.8 0 0 0 .28-.17.73.73 0 0 0 .17-.27c.06-.15.1-.34.12-.61l.01-.13.05-.82.06-1.47.03-.87a2.09 2.09 0 0 0-.05-.63.93.93 0 0 0-.12-.27Zm5.78 1.37a2.2 2.2 0 0 0-.5-.38l-.1-.07-.73-.4-1.3-.7-.76-.4-.12-.06a1.9 1.9 0 0 0-.46-.16 1 1 0 0 0-.17-.02.74.74 0 0 0-.73.61.95.95 0 0 0 .01.3c.04.2.13.4.23.58l.4.77.7 1.3.4.71.07.11c.14.24.26.4.38.5a.73.73 0 0 0 .6.2 1.55 1.55 0 0 0 .16-.03 1.58 1.58 0 0 0 .33-.13 4.06 4.06 0 0 0 .85-.64 4.5 4.5 0 0 0 .87-1.17 1.58 1.58 0 0 0 .05-.16l.03-.17a.8.8 0 0 0-.04-.32.73.73 0 0 0-.17-.27Z"/></svg>