<svg xmlns="http://www.w3.org/2000/svg" width="16" height="16" viewBox="0 0 16 16" id="icon"><path d="m4.19 10.1.73-.17L5 9.9a.8.8 0 0 0 .45-1.26 1 1 0 0 0-.3-.26l-.43-.2-.8-.3-1.37-.48-.77-.27-.12-.04a2 2 0 0 0-.6-.11.7.7 0 0 0-.58.24l-.1.13-.16.31Q0 8.34 0 9.05c0 .42.01.96.25 1.33a1 1 0 0 0 .22.24c.16.12.33.13.5.14q.4.01.77-.1zm8.22-3.92a4 4 0 0 0-.8-1.14l-.28-.2-.15-.08a.7.7 0 0 0-.62.03q-.2.1-.5.37l-.09.1q-.25.22-.57.57-.51.51-1.01 1.04l-.6.62-.3.36a1 1 0 0 0-.16.37 1 1 0 0 0 .01.3v.01a.8.8 0 0 0 .95.62l.07-.02 3.19-.73c.25-.06.5-.11.73-.24.15-.1.3-.18.4-.35a1 1 0 0 0 .09-.32c.05-.43-.18-.92-.36-1.3M6.7 7.51c.23-.29.23-.72.25-1.07l.2-3.55c.02-.44.07-.89.04-1.34-.02-.37-.02-.8-.26-1.1-.41-.54-1.3-.5-1.9-.41q-.28.04-.55.1L3.94.3c-.58.2-1.39.54-1.53 1.2-.07.38.11.77.25 1.11q.29.62.63 1.19l1.73 3.1c.17.3.36.7.7.85l.06.03a1 1 0 0 0 .47.03h.03a1 1 0 0 0 .37-.23zm-.28 3.16a.74.74 0 0 0-.92-.23l-.15.09a2 2 0 0 0-.34.35l-.08.1-.52.71-.86 1.2-.47.67-.07.1q-.22.35-.28.57a1 1 0 0 0-.03.31q.02.17.1.31l.1.14.26.24a4.5 4.5 0 0 0 2.2.76l.35-.03.16-.05a1 1 0 0 0 .28-.17 1 1 0 0 0 .17-.27q.09-.22.12-.61l.01-.13.05-.82.06-1.47.03-.87a2 2 0 0 0-.05-.63 1 1 0 0 0-.12-.27m5.78 1.37a2 2 0 0 0-.5-.38l-.1-.07-.73-.4-1.3-.7-.76-.4-.12-.06a2 2 0 0 0-.46-.16l-.17-.02a.74.74 0 0 0-.73.61 1 1 0 0 0 .01.3q.07.3.23.58l.4.77.7 1.3.4.71.07.11q.2.36.38.5a.7.7 0 0 0 .6.2l.16-.03.33-.13a4 4 0 0 0 .85-.64q.46-.45.79-1 .05-.08.08-.17l.05-.16.03-.17a1 1 0 0 0-.04-.32 1 1 0 0 0-.17-.27"/></svg>