<svg viewBox="0 0 16 16"><path d="M8.05 2h.09c.82 0 4.99.03 6.11.33a2.01 2.01 0 0 1 1.42 1.42c.1.38.17.89.21 1.4l.01.11.03.26v.1c.07.92.08 1.77.08 1.96v.08c0 .19-.01 1.1-.08 2.06l-.01.1-.01.1a9.9 9.9 0 0 1-.24 1.56 2 2 0 0 1-1.41 1.42c-1.16.31-5.57.34-6.18.34h-.14A96 96 0 0 1 5 13.19l-.17-.01h-.09l-.17-.01H4.4a16.08 16.08 0 0 1-2.65-.27 2 2 0 0 1-1.42-1.42A9.89 9.89 0 0 1 .1 9.93l-.01-.11v-.1A31.4 31.4 0 0 1 0 7.68v-.12c0-.22.01-.96.06-1.78l.01-.1v-.06l.01-.1.02-.26.01-.1c.05-.52.12-1.03.22-1.4a2 2 0 0 1 1.42-1.43c.49-.13 1.54-.2 2.65-.26h.35l.08-.01H5A99.79 99.79 0 0 1 7.86 2h.2zM6.4 5.2v4.83l4.16-2.41L6.4 5.2z"/></svg>