<!-- Generated by IcoMoon.io -->
<svg version="1.1" xmlns="http://www.w3.org/2000/svg" width="32" height="32" viewBox="0 0 32 32">
<path d="M14.286 23.314l1.486 2.857c-0.979 3.391-4.055 5.829-7.7 5.829-0.025 0-0.050-0-0.075-0l0.004 0c-4.418 0-8-3.582-8-8v0-0.114c0-3.543 2.286-6.743 5.371-7.886l0.229 1.829c-2.114 1.074-3.537 3.233-3.537 5.724 0 3.412 2.67 6.2 6.034 6.39l0.017 0.001c3.429-0.055 6.188-2.848 6.188-6.285 0-0.161-0.006-0.321-0.018-0.479l0.001 0.021zM21.943 24.8l0.8 1.6-3.543 1.829h-0.457c-0.295-0.037-0.544-0.21-0.683-0.453l-0.002-0.004-3.429-6.743h-6.514c-0.002 0-0.005 0-0.007 0-0.465 0-0.848-0.347-0.907-0.795l-0-0.005-1.371-10.971c0-1.257 1.143-2.286 2.286-2.286 1.257 0 2.286 1.143 2.286 2.286 0 0.003 0 0.007 0 0.011 0 1.262-1.023 2.286-2.286 2.286-0.081 0-0.16-0.004-0.238-0.012l0.010 0.001 0.571 4.114h5.829v1.714h-5.6l0.229 1.829h6.286c0.343 0 0.686 0.229 0.8 0.571l3.2 6.4zM32 9.486c0 0.914-0.8 1.143-1.143 0.457l-1.6-3.086h-0.229v1.143l1.6 3.771c0.229 0.343 0 0.914-0.343 0.914h-1.257v2.286c0 0.686-0.343 1.143-0.8 1.143h-1.143c-0.343 0-0.686-0.571-0.686-1.143v-2.4h-1.143c-0.457 0-0.686-0.571-0.457-0.914l1.486-3.657v-1.143l-1.6 2.971c-0.114 0.343-0.571 0.457-0.8 0.229-0.343-0.343-0.457-0.8-0.229-1.143l1.714-3.429c0.229-0.571 0.686-1.143 1.143-1.143l2.629 0.114c0.457 0 0.914 0.457 1.143 1.143l1.714 3.429 0.114 0.457zM21.6 6.171v3.771c0 0.457-0.343 0.914-0.686 0.914s-0.8-0.457-0.8-0.914v-3.086h-0.457v8.229c0 0.571-0.457 1.143-0.914 1.143s-0.8-0.571-0.8-1.143v-4.229h-0.571v4c0 0.571-0.343 1.143-0.8 1.143s-0.8-0.571-0.8-1.143v-8h-0.571v3.2c0 0.457-0.343 0.914-0.686 0.914s-0.8-0.686-0.8-1.029v-3.771c0-0.914 0.686-1.714 1.486-1.714h4.914c0.8 0 1.486 0.8 1.486 1.714zM19.314 2.171c0 0.914-0.686 1.714-1.6 1.829-0.914 0-1.6-0.914-1.6-1.829s0.8-1.6 1.6-1.6c0.914 0 1.6 0.686 1.6 1.6zM29.143 2.171c0 0.914-0.686 1.714-1.6 1.829-0.914 0-1.714-0.914-1.6-1.829 0-0.914 0.686-1.6 1.6-1.6 0.8 0 1.486 0.686 1.6 1.6zM22.629 0.571c0.114 0 0.343 0.114 0.343 0.343v14.743c0 0.229-0.229 0.343-0.457 0.343h0.114c-0.189 0-0.343-0.153-0.343-0.343v0-14.743c0-0.229 0.229-0.343 0.343-0.343z"></path>
</svg>
