<svg xmlns="http://www.w3.org/2000/svg" width="32" height="32" viewBox="0 0 32 32" id="icon"><path d="m14.29 23.31 1.48 2.86A8 8 0 0 1 8.07 32H8a8 8 0 0 1-8-8v-.11A8.5 8.5 0 0 1 5.37 16l.23 1.83a6.4 6.4 0 0 0-3.54 5.72 6.4 6.4 0 0 0 6.04 6.4h.01a6.3 6.3 0 0 0 6.17-6.77v.02zm7.65 1.49.8 1.6-3.54 1.83h-.46a1 1 0 0 1-.68-.45l-3.43-6.75H8.1a.9.9 0 0 1-.9-.8L5.82 9.26a2.37 2.37 0 0 1 2.29-2.29 2.37 2.37 0 0 1 2.28 2.29 2.3 2.3 0 0 1-2.52 2.28l.58 4.12h5.83v1.71h-5.6l.23 1.83h6.28a.9.9 0 0 1 .8.57l3.2 6.4zM32 9.49c0 .91-.8 1.14-1.14.45l-1.6-3.08h-.23V8l1.6 3.77c.23.34 0 .92-.34.92h-1.26v2.28c0 .69-.35 1.14-.8 1.14h-1.15c-.34 0-.68-.57-.68-1.14v-2.4h-1.14c-.46 0-.69-.57-.46-.91L26.28 8V6.86l-1.6 2.97c-.1.34-.57.45-.8.23-.34-.35-.45-.8-.22-1.15l1.71-3.43c.23-.57.69-1.14 1.14-1.14l2.63.12c.46 0 .92.45 1.14 1.14L32 9.03l.11.45zM21.6 6.17v3.77c0 .46-.34.92-.69.92s-.8-.46-.8-.92V6.86h-.45v8.22c0 .58-.46 1.15-.92 1.15s-.8-.57-.8-1.15v-4.22h-.57v4c0 .57-.34 1.14-.8 1.14s-.8-.57-.8-1.14v-8h-.57v3.2c0 .45-.34.91-.69.91s-.8-.69-.8-1.03V6.17c0-.91.7-1.71 1.5-1.71h4.9c.8 0 1.5.8 1.5 1.71zm-2.29-4A1.85 1.85 0 0 1 17.71 4c-.91 0-1.6-.91-1.6-1.83s.8-1.6 1.6-1.6c.92 0 1.6.69 1.6 1.6m9.83 0A1.85 1.85 0 0 1 27.54 4a1.7 1.7 0 0 1-1.6-1.83c0-.91.69-1.6 1.6-1.6.8 0 1.49.69 1.6 1.6M22.63.57c.11 0 .34.12.34.34v14.75c0 .23-.23.34-.45.34h.1a.34.34 0 0 1-.33-.34V.9c0-.23.23-.34.34-.34"/></svg>