<svg xmlns="http://www.w3.org/2000/svg" width="32" height="32" viewBox="0 0 512 512" id="icon"><path d="M309.3 256H74.7c-3.4 0-6.6 1.6-8.6 4.3l-64 85.3c-.1.2 0 .5-.2.7a9.2 9.2 0 0 0-1.5 4l-.3 1.1-.1.6v149.3c0 6 4.8 10.7 10.7 10.7h298.6c6 0 10.7-4.8 10.7-10.7V266.7c0-6-4.8-10.7-10.7-10.7zM128 458.7c0 5.9-4.8 10.6-10.7 10.6h-64c-5.9 0-10.6-4.7-10.6-10.6v-32a42.7 42.7 0 0 1 85.3 0v32zm149.3 0c0 5.9-4.7 10.6-10.6 10.6h-64c-6 0-10.7-4.7-10.7-10.6v-32a42.7 42.7 0 0 1 85.3 0v32zm233.3-240-84-146.9V42.7h10.7a10.7 10.7 0 0 0 0-21.4h-10.6V10.7a10.7 10.7 0 0 0-21.4 0v10.6h-10.6a10.7 10.7 0 0 0 0 21.4h10.6v29.1l-83.9 147a10.7 10.7 0 0 0 0 10.6 11 11 0 0 0 9.3 5.3h10.6v266.6c0 6 4.8 10.7 10.7 10.7h128c5.9 0 10.7-4.8 10.7-10.7V234.7h10.6c3.8 0 7.4-2 9.3-5.3 1.9-3.3 1.9-7.4 0-10.7zM416 341.3a32 32 0 1 1 0-64 32 32 0 0 1 0 64z"/></svg>