<svg xmlns="http://www.w3.org/2000/svg" width="32" height="32" viewBox="0 0 512 512" id="icon"><path d="M406.3 116.9h-83.5V33.4c0-18.4-15-33.4-33.4-33.4h-66.8c-18.4 0-33.4 15-33.4 33.4v83.5h-83.5c-18.4 0-33.4 15-33.4 33.4V217c0 18.5 15 33.4 33.4 33.4h83.5v228.2c0 18.4 15 33.4 33.4 33.4h66.8c18.4 0 33.4-15 33.4-33.4V250.4h83.5c18.4 0 33.4-15 33.4-33.4v-66.7c0-18.5-15-33.4-33.4-33.4zm0 100.1H306c-9.2 0-16.7 7.5-16.7 16.7v245h-66.8v-245c0-9.2-7.5-16.7-16.7-16.7H105.7v-66.7H206c9.2 0 16.7-7.5 16.7-16.7V33.4h66.8v100.2c0 9.2 7.5 16.7 16.7 16.7h100.2V217z"/></svg>