<svg xmlns="http://www.w3.org/2000/svg" width="32" height="32" viewBox="0 0 32 32" id="icon"><path d="m29.17 8.14-9.13 3.88 4.14-9.98c-.07.07-3.31 1.45-4.06 2.84l-5.15 9.29-3.37 1.4a3 3 0 0 1-.88.15c-.54 0-.86-.2-.88-.22a7 7 0 0 0-1.62-.83 4 4 0 0 0-1.2-.2c-2.04 0-3.61 1.49-3.9 1.78a3.2 3.2 0 0 0-1.08 2.28 3.6 3.6 0 0 0 3.57 3.51c1.41 0 2.82-.76 3.87-1.69.51-.44.96-1.3 1.05-1.74l3.91-1.05-.76 4.14c-.46.08-1.24.16-2.17 1.05-1.09 1.2-2.53 4.1-.6 6.24.64.73 1.77 1.03 2.75.98.8-.04 1.54-.53 2.19-1.03a5.2 5.2 0 0 0 1.55-4.95c-.02-.05-.29-.88-.82-1.63-.02-.03-.4-.76.04-1.93 0 0 .56-1.46 1.32-3.34l9.13-5.18c1.37-.75 2.9-4.1 2.96-4.17zM8.74 18.28a3 3 0 0 1-1.15 1.54 3 3 0 0 1-1.87.66 2.5 2.5 0 0 1-1.77-.8c-.3-.38-.43-.95-.3-1.41.2-.71.86-1.27 1.51-1.63.53-.3 1.2-.45 1.8-.37s1.3.32 1.66.83c.22.33.23.8.12 1.18m6.75 8.81c-.59.91-1.67 1.72-3.1 1.01-1.25-.62-1.02-2.12-.56-3.05.55-1.1 1.9-2.43 3.29-1.63s1.04 2.64.37 3.67m1.28-11.02c-.44 0-.8-.34-.8-.76s.36-.76.8-.76.8.34.8.76-.36.76-.8.76"/></svg>