<svg xmlns="http://www.w3.org/2000/svg" width="32" height="32" viewBox="0 0 512 512" id="icon"><path d="M458.9 224.5c-1.8-1.1-3.4-2.3-5-3.4-6.5-4.8-10.2-7.4-19.3-7.4-9.1 0-12.7 2.6-19.3 7.4-8.3 6-19.6 14-40.2 14-20.7 0-32-8-40.2-14-6.6-4.8-10.2-7.4-19.4-7.4-9 0-12.7 2.6-19.3 7.4-8.3 6-19.6 14-40.2 14s-32-8-40.2-14c-6.6-4.8-10.2-7.4-19.3-7.4-9.2 0-12.8 2.6-19.4 7.4-8.2 6-19.5 14-40.2 14-20.6 0-32-8-40.2-14-6.6-4.8-10.2-7.4-19.3-7.4-9.1 0-12.8 2.6-19.3 7.4-1.6 1-3.2 2.3-5 3.4A406.2 406.2 0 0 0 48 278h416a409 409 0 0 0-5.2-53.5zm-24.3 167.8c-9.1 0-12.7 2.6-19.3 7.4-8.3 6-19.6 14-40.2 14-20.7 0-32-8-40.2-14-6.6-4.8-10.2-7.4-19.4-7.4-9 0-12.7 2.6-19.3 7.4-8.2 6-19.6 14-40.2 14s-32-8-40.2-14c-6.6-4.8-10.2-7.4-19.3-7.4-9.2 0-12.8 2.6-19.4 7.4-8.2 6-19.5 14-40.2 14-20.6 0-32-8-40.2-14-6.6-4.8-10.2-7.4-19.3-7.4-2.5 0-4.6.2-6.4.6C105.7 463.6 175.6 512 256 512s150.3-48.4 185-119a24 24 0 0 0-6.4-.7zM431.5 134h-351a342 342 0 0 0-17 45.4c4.1-.9 8.7-1.4 13.9-1.4 20.6 0 32 8.1 40.2 14 6.6 4.8 10.2 7.4 19.3 7.4s12.8-2.6 19.4-7.3c8.2-6 19.5-14 40.2-14 20.6 0 32 8 40.2 14 6.5 4.7 10.2 7.3 19.3 7.3s12.8-2.6 19.3-7.3c8.3-6 19.6-14 40.2-14 20.7 0 32 8 40.2 14 6.6 4.7 10.3 7.3 19.4 7.3s12.7-2.6 19.3-7.3c8.3-6 19.6-14 40.2-14 5.2 0 9.8.4 14 1.3-4.8-15.8-10.4-31-17-45.4zm-26.1-46.1C366 31.2 312.9 0 256 0S146 31.2 106.6 87.9l-6.8 10.3h312.4c-2.2-3.5-4.5-7-6.8-10.3zM48.7 313.7a228 228 0 0 0 9 45.8 63.6 63.6 0 0 1 19.7-2.9c20.6 0 32 8.2 40.2 14.1 6.6 4.7 10.2 7.3 19.3 7.3s12.8-2.6 19.4-7.3c8.2-6 19.5-14 40.2-14 20.6 0 32 8 40.2 14 6.5 4.7 10.2 7.3 19.3 7.3s12.8-2.6 19.3-7.3c8.3-6 19.6-14 40.2-14 20.7 0 32 8 40.2 14 6.6 4.7 10.3 7.3 19.4 7.3s12.7-2.6 19.3-7.3c8.3-6 19.6-14 40.2-14 7.8 0 14.2 1 19.7 2.8 4.5-14.6 7.5-30 9-45.8H48.7z"/></svg>