<svg xmlns="http://www.w3.org/2000/svg" width="32" height="32" viewBox="0 0 32 32" id="icon"><path d="m9.66 8.67 2.1.92 4.1 1.82q.13.05.25.01l2.88-1.28 3.4-1.5c.08-.05.18-.14.2-.23q.33-1.37.08-2.78a6.7 6.7 0 0 0-2.06-3.8A6.7 6.7 0 0 0 13.26.6a6.8 6.8 0 0 0-4.04 6.2l-.04.02.21 1.54q.03.23.26.32zm20.42-2.18a2 2 0 0 0-.54.13l-8.61 3.83-4.84 2.14a.3.3 0 0 1-.21-.01l-1.57-.7L3.62 7.14q-.67-.31-1.36-.6A.94.94 0 0 0 .98 7.56l.12.75.79 4.56q.3 1.79.63 3.58l.23 1.29q.42-.13.82-.2a.7.7 0 0 0 .56-.46l1.2-2.7.06-.26-.16-1.32q-.06-.49.34-.73c.35-.22.7-.14 1.02.06.56.35.89.9 1.03 1.53.13.57.1 1.16.02 1.73q-.09.47.05.93.05.16.2.13l2.07-.25 1.73-.17a1 1 0 0 1 .32.04c.28.12.52.57.49.92a1 1 0 0 1-.61.79l-.14.05c.25.32.48.62.4 1.03q-.13.58-.78.78c.36.24.68.5.55.97q-.18.62-.88.71l.13.15q.16.19.27.39a.9.9 0 0 1-.69 1.29q-.83.12-1.67.2c-.71.08-1.44.13-2.14.26q-1.1.17-2.13-.21-.54-.2-1.12-.37l.01.13.25 1.41q.03.29.1.56c.1.41.4.6.75.8l7.26 3.96 3.83 2.08q.11.05.22.01l5.18-2.83 6.16-3.36q.48-.26.55-.79l.87-5.04.95-5.4.9-5.12q.17-.96.31-1.9a.9.9 0 0 0-.94-1.05zm-4.01 15.2-6.32 2.83a1 1 0 0 1-.33.07.83.83 0 0 1-.34-1.58l6.3-2.83a.83.83 0 1 1 .69 1.5m.86-4.55-7.24 3.09a.83.83 0 0 1-.65-1.53l7.25-3.08a.83.83 0 1 1 .64 1.52m.98-4.42-8.24 3.27a.83.83 0 0 1-1.08-.47.83.83 0 0 1 .47-1.07l8.24-3.27a.83.83 0 1 1 .61 1.54"/></svg>