<svg xmlns="http://www.w3.org/2000/svg" width="32" height="32" viewBox="0 0 32 32"><path d="M15.35 2.02A14 14 0 0 0 3.81 9.1 14 14 0 0 0 2 16a14 14 0 0 0 14 14 14 14 0 0 0 14-14 14 14 0 0 0-6.92-12.08L23 3.88A14 14 0 0 0 16 2l-.68.02zm.22 4.66a9.3 9.3 0 0 1 5.15 1.26l-.04-.02A9.3 9.3 0 0 1 25.33 16 9.33 9.33 0 0 1 16 25.33 9.33 9.33 0 0 1 6.67 16a9.33 9.33 0 0 1 9.03-9.33z"/><path d="M18.34 11.96a4.67 4.67 0 0 1 1.69 6.4 4.66 4.66 0 0 1-6.39 1.67 4.66 4.66 0 0 1-1.67-6.39 4.66 4.66 0 0 1 6.39-1.67z"/></svg>