<svg xmlns="http://www.w3.org/2000/svg" width="32" height="32" viewBox="0 0 32 32" id="icon"><path d="M15.35 2.02A14 14 0 0 0 2 15.93a14 14 0 0 0 2.82 8.48l-2.38 2.37c-.47.47-.44 1.38 0 1.86s1.37.5 1.88 0L28.58 4.38c.42-.5.48-1.3 0-1.87s-1.4-.46-1.86 0l-2.3 2.3a14 14 0 0 0-1.4-.93H23A14 14 0 0 0 15.35 2zm.22 4.66c2.53-.01 3.96.48 5.5 1.48l-3.47 3.46a5 5 0 0 0-1.82-.28 4.7 4.7 0 0 0-3.82 2.32 4.7 4.7 0 0 0-.33 3.94l-3.46 3.46a9.3 9.3 0 0 1-.25-9.73 9.3 9.3 0 0 1 7.65-4.65m12.01 1.47-3.39 3.4a9.3 9.3 0 0 1-.11 9.12 9.33 9.33 0 0 1-12.54 3.52l-3.4 3.4q.42.28.85.53A14 14 0 0 0 16.07 30a14 14 0 0 0 13.92-14.1 14 14 0 0 0-2.4-7.74"/><path d="m20.58 15.15-5.43 5.44a4.7 4.7 0 0 0 4.88-2.23l.01-.02a4.7 4.7 0 0 0 .54-3.22z"/></svg>