<svg xmlns="http://www.w3.org/2000/svg" width="32" height="32" viewBox="0 0 32 32"><path d="M28.77 2.02c-2.02 0-4.06.28-5.99.91C18.7 4.4 15.63 7.68 13 11H8.25c-.75.1-1.66-.26-2.25.35l-3.32 5.81c-.21.55-.95 1.12-.5 1.7.52.4.9 1.3 1.66 1.1C5.59 19.03 7.28 17.98 9 17l6 6-2.3 4.04c-.24.58-1.04 1.2-.46 1.8.49.4.82 1.33 1.57 1.1l5.4-3.1c.62-.46 1.58-.62 1.8-1.44v-6.26a35 35 0 0 0 5.68-5.71C29.1 10.35 30.06 6.4 30 2.55a.5.5 0 0 0-.36-.5zM24.5 5a2.5 2.5 0 1 1 0 5 2.5 2.5 0 0 1 0-5"/><path d="m8 20 4 4-10 6z"/></svg>