<svg xmlns="http://www.w3.org/2000/svg" width="32" height="32" viewBox="0 0 32 32" id="icon"><path d="M7.72 2H3.28C2.58 2 2 2.56 2 3.24v4.52C2 8.45 2.57 9 3.28 9h4.44C8.42 9 9 8.45 9 7.76V3.24C9 2.56 8.43 2 7.72 2m10.5 0h-4.44c-.7 0-1.28.56-1.28 1.24v4.52c0 .69.57 1.24 1.28 1.24h4.44c.7 0 1.28-.55 1.28-1.24V3.24c0-.68-.57-1.24-1.28-1.24m10.5 0h-4.44c-.7 0-1.28.56-1.28 1.24v4.52c0 .69.57 1.24 1.28 1.24h4.44c.7 0 1.28-.55 1.28-1.24V3.24C30 2.56 29.43 2 28.72 2m-21 10.5H3.28c-.7 0-1.28.56-1.28 1.24v4.52c0 .68.57 1.24 1.28 1.24h4.44c.7 0 1.28-.55 1.28-1.24v-4.52c0-.68-.57-1.24-1.28-1.24m10.5 0h-4.44c-.7 0-1.28.56-1.28 1.24v4.52c0 .68.57 1.24 1.28 1.24h4.44c.7 0 1.28-.55 1.28-1.24v-4.52c0-.68-.57-1.24-1.28-1.24m10.5 0h-4.44c-.7 0-1.28.56-1.28 1.24v4.52c0 .68.57 1.24 1.28 1.24h4.44c.7 0 1.28-.55 1.28-1.24v-4.52c0-.68-.57-1.24-1.28-1.24M7.72 23H3.28c-.7 0-1.28.56-1.28 1.24v4.52c0 .68.57 1.24 1.28 1.24h4.44c.7 0 1.28-.55 1.28-1.24v-4.52C9 23.56 8.43 23 7.72 23m10.5 0h-4.44c-.7 0-1.28.56-1.28 1.24v4.52c0 .68.57 1.24 1.28 1.24h4.44c.7 0 1.28-.55 1.28-1.24v-4.52c0-.68-.57-1.24-1.28-1.24m10.5 0h-4.44c-.7 0-1.28.56-1.28 1.24v4.52c0 .68.57 1.24 1.28 1.24h4.44c.7 0 1.28-.55 1.28-1.24v-4.52c0-.68-.57-1.24-1.28-1.24"/></svg>