<svg xmlns="http://www.w3.org/2000/svg" width="32" height="32" viewBox="0 0 32 32" id="icon"><path d="M12.47 2c-.63 0-1.14.5-1.14 1.14V5.1H4.62a1.06 1.06 0 0 0-1.07 1.06v.99a1.06 1.06 0 0 0 1.07 1.06h.5v19.65c0 1.18.94 2.13 2.12 2.13h17.52a2.1 2.1 0 0 0 2.13-2.13V8.22h.5a1.06 1.06 0 0 0 1.05-1.06v-.99a1.06 1.06 0 0 0-1.06-1.06h-6.71V3.14c0-.63-.51-1.14-1.14-1.14zm.45 1.56h6.16l.03.02v1.5l-.03.03h-6.16l-.03-.03v-1.5zM9.24 9.79h1.08a1 1 0 0 1 1.01 1.02V25.9c0 .56-.45 1.02-1.01 1.02H9.24a1 1 0 0 1-1.02-1.02V10.8c0-.56.46-1.01 1.02-1.01m6.3 0h.92c.6 0 1.1.49 1.1 1.1V25.8c0 .61-.5 1.1-1.1 1.1h-.92a1.1 1.1 0 0 1-1.1-1.1V10.87c0-.6.5-1.1 1.1-1.1m6.18 0h1c.59 0 1.06.48 1.06 1.06v15.02c0 .59-.47 1.06-1.06 1.06h-1a1.05 1.05 0 0 1-1.05-1.06V10.83c0-.58.47-1.05 1.05-1.05"/></svg>