<svg xmlns="http://www.w3.org/2000/svg" width="16" height="16" viewBox="0 0 1539 1539" id="icon"><path d="M637 1513a351 351 0 0 0 382-77l417-417a351 351 0 0 0 78-383c-18-43-44-83-78-117l-416-416a353 353 0 0 0-383-77c-44 18-84 43-118 77L103 519a352 352 0 0 0-77 383c18 44 44 84 77 117l417 417c34 33 73 59 117 77zm292-168c-88 88-230 88-318 0L194 928c-88-88-88-230 0-318l417-417c88-88 230-88 318 0l417 417c88 88 88 230 0 318l-417 417z"/><path d="m708 769 307 307 7-5 232-233a98 98 0 0 0 1-137l-239-239-308 307zm-91-91 308-307-87-87a98 98 0 0 0-137 0L462 523l155 155zm221 576 87-87-554-553-87 87a97 97 0 0 0 1 137l416 416c38 38 99 38 137 0z"/></svg>