<svg xmlns="http://www.w3.org/2000/svg" width="32" height="32" viewBox="0 0 32 32" id="icon"><path d="M32 18.06c0 1.48-1.49 2.05-2.06.8l-2.63-5.49h-.57v2.06l2.86 6.63c.34.68 0 1.48-.57 1.48h-2.29v4.35c0 .91-.57 1.71-1.25 1.71h-1.95c-.68 0-1.25-.91-1.25-1.83v-4.34H20c-.57 0-.91-.92-.69-1.6l2.98-6.52v-2.05h-.58l-2.63 5.37c-.34.68-1.14.8-1.6.34s-.68-1.37-.34-2.06l3.09-6.05c.45-.92 1.14-1.72 2.05-1.72l4.58.12c.8 0 1.48.8 1.94 1.83l2.97 6.17zm-18.29-5.72v6.52c0 .8-.57 1.48-1.25 1.48s-1.26-.68-1.26-1.48v-5.72h-.91v14.63c0 .92-.69 1.72-1.49 1.72s-1.49-.8-1.49-1.72v-7.43H6.4v7.43c0 .92-.69 1.72-1.49 1.72s-1.48-.8-1.48-1.72V13.26H2.5v5.71c0 .69-.57 1.37-1.25 1.37S0 19.66 0 18.86v-6.63c0-1.72 1.14-3.09 2.51-3.09h8.69c1.37 0 2.51 1.49 2.51 3.09zM9.83 5.03c0 1.71-1.14 3.2-2.86 3.2-1.6 0-2.85-1.49-2.74-3.2 0-1.49 1.14-2.74 2.74-2.74s2.75 1.25 2.86 2.74m17.14 0c0 1.71-1.26 3.2-2.86 3.2s-2.85-1.37-2.85-3.09a2.86 2.86 0 0 1 5.6-.02v.02zM15.66 2.29h-.23c.34 0 .68.34.68.8V28.8c0 .34-.34.69-.68.69h.23a.7.7 0 0 1-.69-.69V3.09c0-.46.34-.69.69-.69z"/></svg>