<svg xmlns="http://www.w3.org/2000/svg" xmlns:xlink="http://www.w3.org/1999/xlink" width="624" height="64" viewBox="0 0 624 64"><svg width="24" height="24" viewBox="0 0 24 24"><path fill="#1bb39a" d="M1 0h22c.6 0 1 .4 1 1v22c0 .6-.4 1-1 1H1a1 1 0 0 1-1-1V1c0-.6.4-1 1-1z"/><path fill="#fff" d="M5.5 6h13c.3 0 .5.3.5.5v1c0 .3-.2.5-.5.5h-13a.5.5 0 0 1-.5-.5v-1c0-.2.2-.4.5-.4zM5.5 10h5c.3 0 .5.2.5.5s-.2.5-.5.5h-5a.5.5 0 0 1 0-1zM5.5 12h5c.3 0 .5.2.5.5s-.2.5-.5.5h-5a.5.5 0 0 1 0-1zM5.5 14h5a.5.5 0 0 1 0 1h-5a.5.5 0 0 1 0-1z"/><path fill="#0d2c56" d="M19 14v3h-7v-2l1.5-2 1.5 1 2-3z"/><path fill="#fff" d="M13.5 10.1a1 1 0 1 1-.5-.1l.5.1zM5.5 16h5a.5.5 0 0 1 0 1h-5a.5.5 0 0 1 0-1z"/><path fill="#fff" d="M3.1 3C2.5 3 2 3.5 2 4.1V19c0 .6.5 1.1 1.1 1.1H21c.6 0 1.1-.5 1.1-1.1V4c0-.6-.5-1.1-1.1-1.1zM3 4h18v15H3z"/></svg><svg width="24" height="24" x="40" viewBox="0 0 24 24"><path fill="#2197db" d="M1 0h22c.6 0 1 .4 1 1v22c0 .6-.4 1-1 1H1a1 1 0 0 1-1-1V1c0-.6.4-1 1-1z"/><path fill="#a8adb4" d="M4.7 2h14.6c.4 0 .7.3.7.7v6.6c0 .4-.3.7-.7.7H4.7a.7.7 0 0 1-.7-.7V2.7c0-.4.3-.7.7-.7z"/><path fill="#fff" d="M7.3 3.2a1.5 1.5 0 1 1-.8-.2c.3 0 .5 0 .8.2z"/><path fill="#0d2c56" d="M4 9.3c0 .4.3.7.8.7h14.4c.6 0 .8-.4.8-.8V6l-4-2-5.1 4L7 7 4 9z"/><path fill="#fff" d="M4.5 12h15c.3 0 .5.3.5.5v1c0 .3-.2.5-.5.5h-15a.5.5 0 0 1-.5-.5v-1c0-.2.2-.4.5-.4zM4.5 16h11c.3 0 .5.2.5.5s-.2.5-.5.5h-11a.5.5 0 0 1 0-1zM4.5 18h11a.5.5 0 0 1 0 1h-11a.5.5 0 0 1 0-1zM4.5 20h11a.5.5 0 0 1 0 1h-11a.5.5 0 0 1 0-1z"/></svg><svg width="24" height="24" x="80" viewBox="0 0 24 24"><path fill="#2197db" d="M1 0h22c.6 0 1 .4 1 1v22c0 .6-.4 1-1 1H1a1 1 0 0 1-1-1V1c0-.6.4-1 1-1z"/><path fill="#fff" d="M9 7.8V4.3 4L8.7 4H7V8l.2.1h1.6l.1-.3zm8 0V4.3 4l-.3-.1h-1.5-.1l-.1.3v3.6l.2.1H17l.1-.3zM21 6v14c0 .3-.1.5-.3.7s-.4.3-.7.3H4c-.3 0-.5-.1-.7-.3S3 20.3 3 20V6c0-.3.1-.5.3-.7S3.7 5 4 5h2v-.8c0-.3.1-.6.4-.8s.5-.4.9-.4h1.5c.3 0 .6.1.8.4s.5.5.4.9V5h4v-.8c0-.3.1-.6.4-.8s.5-.4.8-.4h1.5c.4 0 .7.1 1 .4s.4.5.3.9V5h2c.3 0 .5.1.7.3s.3.4.3.7z"/><path fill="#a8adb4" d="M4 9h16v11H4V9z"/></svg><svg width="24" height="24" x="120" viewBox="0 0 24 24"><path fill="#2197db" d="M1 0h22c.6 0 1 .4 1 1v22c0 .6-.4 1-1 1H1a1 1 0 0 1-1-1V1c0-.6.4-1 1-1z"/><path fill="#a8adb4" d="M9 15h6v6H9v-6z"/><path fill="#fff" d="M11 10l-5 4v6c0 .5.5 1 1 1h4v-4h2v4h4c.5 0 1-.5 1-1v-6l-5-4zM14 7V3z"/><path fill="#fff" d="M13 7h3V5h-3V2h-2v3H8v2h3v3h2z"/></svg><svg width="24" height="24" x="160" viewBox="0 0 24 24"><path fill="#2197db" d="M1 0h22c.6 0 1 .4 1 1v22c0 .6-.4 1-1 1H1a1 1 0 0 1-1-1V1c0-.6.4-1 1-1z"/><path fill="#0d2c56" d="M3 3h2c.6 0 1 .4 1 1v2c0 .6-.4 1-1 1H3a1 1 0 0 1-1-1V4c0-.6.4-1 1-1zM3 10h2c.6 0 1 .4 1 1v2c0 .6-.4 1-1 1H3a1 1 0 0 1-1-1v-2c0-.6.4-1 1-1zM3 17h2c.6 0 1 .4 1 1v2c0 .6-.4 1-1 1H3a1 1 0 0 1-1-1v-2c0-.6.4-1 1-1z"/><path fill="#fff" d="M8.5 3h13c.3 0 .5.2.5.5v1c0 .3-.2.5-.5.5h-13a.5.5 0 0 1-.5-.5v-1c0-.3.2-.5.5-.5zM8.5 10h13c.3 0 .5.2.5.5v1c0 .3-.2.5-.5.5h-13a.5.5 0 0 1-.5-.5v-1c0-.3.2-.5.5-.5zM8.5 17h13c.3 0 .5.2.5.5v1c0 .3-.2.5-.5.5h-13a.5.5 0 0 1-.5-.5v-1c0-.3.2-.5.5-.5z"/></svg><svg width="24" height="24" x="200" viewBox="0 0 24 24"><path fill="#2197db" d="M1 0h22c.6 0 1 .4 1 1v22c0 .6-.4 1-1 1H1a1 1 0 0 1-1-1V1c0-.6.4-1 1-1z"/><path fill="#fff" d="M4 5h16c.6 0 1 .4 1 1v12c0 .6-.4 1-1 1H4a1 1 0 0 1-1-1V6c0-.6.4-1 1-1z"/><path fill="#a8adb4" d="M4 6h16v12H4V6z"/><path fill="#fff" d="M9 7.3a2 2 0 0 1 .7 2.7 2 2 0 0 1-2.7.7A2 2 0 0 1 6.3 8 2 2 0 0 1 9 7.3z"/><path fill="#0d2c56" d="M4 16v2h16v-5l-4-4-5 5-3-2z"/></svg><svg width="24" height="24" x="240" viewBox="0 0 24 24"><path fill="#b31b34" d="M1 0h22c.6 0 1 .4 1 1v22c0 .6-.4 1-1 1H1a1 1 0 0 1-1-1V1c0-.6.4-1 1-1z"/><path fill="#fff" d="M21 17.3l-.2 1-.3.8q-.3.6-1.7 1.3-1.3.6-2.5.6h-.7q-.4 0-.7-.2t-.6-.2-.7-.3-.7-.2L10.7 19Q9 18 7.3 16.2t-2.6-3.4q-.6-1-1-2.2l-.2-.7-.2-.7-.2-.6q-.2-.4 0-.7T3 7.2q0-1.1.8-2.3.8-1.3 1.5-1.6l.9-.2q.6-.2 1-.1h.2q.2.1.7 1l.3.7.4.8.4.7.2.3.3.5v.3q0 .3-.4.7t-.8.6-.9.7-.4.6v.3q0 .3.2.2t.1.3.2.3q.9 1.7 2 3t3 2.2l.3.2.3.2h.3q.3 0 .3.2.2 0 .6-.4t.7-.8.8-.7.7-.4l.4.1.4.3.3.2.7.4.8.5.7.4q.9.4 1 .6v.3z"/></svg><svg width="24" height="24" x="280" viewBox="0 0 24 24"><path fill="#b31b34" d="M1 0h22c.6 0 1 .4 1 1v22c0 .6-.4 1-1 1H1a1 1 0 0 1-1-1V1c0-.6.4-1 1-1z"/><path fill="#fff" d="M12 3C9 3 6 5.5 6 9s5 7 6 14c1-7 6-10.5 6-14s-3-6-6-6z" opacity=".9"/><path d="M14.5 9a2.5 2.5 0 1 1-5 0 2.5 2.5 0 0 1 5 0z"/></svg><svg width="24" height="24" x="320" viewBox="0 0 24 24"><path fill="#b31b34" d="M1 0h22c.6 0 1 .4 1 1v22c0 .6-.4 1-1 1H1a1 1 0 0 1-1-1V1c0-.6.4-1 1-1z"/><path fill="#0d2c56" d="M16.2 4.8a8.4 8.4 0 1 1-8.4 14.4 8.4 8.4 0 0 1 8.4-14.4z"/><path fill="#fff" d="M12 3a9 9 0 1 0 0 18 9 9 0 0 0 0-18zM9.2 4.6v.7L6.4 8H5.2a7.9 7.9 0 0 1 4-3.5zm2.8 9.6l-4 4.6-.5-.3v-3.7l-2.3-1.7v-2.8c0-.3.3-.6.6-.6h1.7S9.2 12 12 12.6zm6.8-2.6c-.3-1-.5-1-1.7-1.4-.5-.1-.8-.4-1.2-.7a2.8 2.8 0 0 1 .2-4.2A7.9 7.9 0 0 1 18.8 16c.3-1.9.2-3.4 0-4.4z"/></svg><svg width="24" height="24" x="360" viewBox="0 0 24 24"><path fill="#7f8691" d="M1 0h22c.6 0 1 .4 1 1v22c0 .6-.4 1-1 1H1a1 1 0 0 1-1-1V1c0-.6.4-1 1-1z"/><path fill="#fff" d="M9 15c.3.3.7.3 1 0l5-5c.3-.3.3-.7 0-1s-.7-.3-1 0l-5 5c-.3.3-.3.7 0 1zm2.5-.5a1 1 0 0 1-.2 1.2l-2.6 2.6c-.2.2-.4.3-.7.3s-.5-.1-.7-.3l-1.6-1.6c-.2-.2-.3-.4-.3-.7s.1-.5.3-.7l2.6-2.6c.2-.2.4-.3.7-.3l.5.1 1-1a2.4 2.4 0 0 0-3.2.2l-2.6 2.6c-1 1-1 2.5 0 3.4l1.6 1.6a2.4 2.4 0 0 0 3.4 0l2.6-2.6c.8-.8.9-2.2.2-3.2zm7.8-8.2l-1.6-1.6a2.4 2.4 0 0 0-3.4 0l-2.6 2.6c-.8.8-1 2.2-.2 3.2l1-1a1 1 0 0 1 .2-1.2l2.6-2.6c.2-.2.4-.3.7-.3s.5.1.7.3l1.6 1.6c.2.2.3.4.3.7s-.1.5-.3.7l-2.6 2.6a1 1 0 0 1-1.2.2l-1 1a2.4 2.4 0 0 0 3.2-.2l2.6-2.6c1-1 1-2.5 0-3.4z"/></svg><svg width="24" height="24" x="400" viewBox="0 0 24 24"><path fill="#7f8691" d="M1 0h22c.6 0 1 .4 1 1v22c0 .6-.4 1-1 1H1a1 1 0 0 1-1-1V1c0-.6.4-1 1-1z"/><path fill="#fff" d="M10 16l-.1-.8c0-1 .2-1.8.6-2.6.3-.8.7-1.4 1.2-2 .4-.4.9-.7 1.2-1.2.3-.5.5-1.2.5-1.7 0-.6-.2-1-.5-1.3-.4-.3-1-.5-1.5-.5s-1.1 0-1.7.3L8 7 7 4.4c.6-.5 1.4-.8 2.2-1S11 3 11.8 3c1 0 1.9.2 2.6.5.6.3 1.2.7 1.6 1.1s.6 1 .8 1.6l.2 1.5c0 .6-.1 1.2-.3 1.6l-.8 1.4-1 1.2c-.6.8-1.3 1.6-1.6 2.5A5 5 0 0 0 13 16zM12.5 17.5c.6.3 1 1 1 1.6 0 .4-.1.7-.3 1-.3.5-1 .9-1.7.9-.4 0-.7 0-1-.3a1.8 1.8 0 0 1-.7-2.6c.3-.5 1-.9 1.7-.9.4 0 .7.1 1 .3z"/></svg><svg width="24" height="24" x="440" viewBox="0 0 24 24"><path fill="#7f8691" d="M1 0h22c.6 0 1 .4 1 1v22c0 .6-.4 1-1 1H1a1 1 0 0 1-1-1V1c0-.6.4-1 1-1z"/><path fill="#fff" d="M9 7h6V5H9zM5 7v12h-.3c-.4 0-.8-.2-1.2-.5s-.5-.8-.5-1.2V8.7c0-.4.2-.8.5-1.2S4.3 7 4.8 7zm13 0v12H6V7h1V4.7c0-.2 0-.3.2-.5s.3-.2.6-.2h8.4c.3 0 .4 0 .6.2s.2.3.2.6V7zm3 1.8v8.4c0 .5-.2 1-.5 1.3s-.8.5-1.2.5H19V7h.3c.4 0 .8.2 1.2.5s.5.8.5 1.3z"/><path fill="#a8adb4" d="M5 7h1v12H5V7zM18 7h1v12h-1V7z"/></svg><svg width="24" height="24" x="480" viewBox="0 0 24 24"><path fill="#7f8691" d="M1 0h22c.6 0 1 .4 1 1v22c0 .6-.4 1-1 1H1a1 1 0 0 1-1-1V1c0-.6.4-1 1-1z"/><path d="M3 5h2v2H3V5z"/><path fill="#fff" d="M2 4h20v16H2V4z"/><path fill="#a8adb4" d="M3 17h2v2H3v-2zM19 17h2v2h-2v-2zM7 17h2v2H7v-2zM3 5h18v11H3V5zM11 17h2v2h-2v-2zM15 17h2v2h-2v-2z"/><path fill="#0d2c56" d="M20 10.5L16 7v7zM4 10.5L8 7v7z"/></svg><svg width="24" height="24" x="520" viewBox="0 0 24 24"><path fill="#144382" d="M1 0h22c.6 0 1 .4 1 1v22c0 .6-.4 1-1 1H1a1 1 0 0 1-1-1V1c0-.6.4-1 1-1z"/><path fill="#fff" d="M15 17l1.6 2 5.4-7-5.4-7L15 7l3.8 5zM9 7L7.4 5 2 12l5.4 7L9 17l-3.8-5zM11.6 4l2.4.3L12.6 20l-2.5-.3L11.6 4z"/></svg><svg width="24" height="24" x="560" viewBox="0 0 24 24"><path fill="#144382" d="M1 0h22c.6 0 1 .4 1 1v22c0 .6-.4 1-1 1H1a1 1 0 0 1-1-1V1c0-.6.4-1 1-1z"/><path fill="#fff" d="M7.8 10.6v7.7c0 .2 0 .4-.2.5L7 19H3.9c-.2 0-.4 0-.5-.2l-.3-.5v-7.7c0-.2.1-.3.3-.5s.3-.2.5-.2H7c.2 0 .3 0 .5.2s.2.3.2.5zm13.2.5c0 .7-.6 1.2-1 1.6.1.4.5 1 .5 1.3 0 .6-.4 1-.8 1.5.2.4.5 1 .4 1.4-.1.5-.8 1-1.1 1.4 0 .8.4 1.3 0 1.8-.6.6-1.3.9-2.3 1h-1.4l-1.6-.3c-.6 0-1-.2-1.4-.3L11 20c-1-.3-1.5-1-1.8-1-.2 0-.3 0-.5-.2s-.2-.3-.2-.5v-7.7c0-.2 0-.3.2-.5l.5-.2c.2 0 .4-.3.8-.7s.8-.4 1.2-.9l1-1.4.4-.5.2-.6a34.4 34.4 0 0 0 .5-2l.4-.6.5-.2 1 .1.6.3.5.5c.2.2.2.4.2.5l.2.6v1.8c0 .3-.2.6-.3.7a9.7 9.7 0 0 1-.5 1.1l-.1.4h3c.5 0 1.1.2 1.6.7s.6.8.6 1.4z"/></svg><svg width="24" height="24" x="600" viewBox="0 0 24 24"><path fill="#1bb39a" d="M1 0h22c.6 0 1 .4 1 1v22c0 .6-.4 1-1 1H1a1 1 0 0 1-1-1V1c0-.6.4-1 1-1z"/><path fill="#fff" d="M3 5c-.5 0-1 .5-1 1v13h20v-9H8V6c0-.5-.5-1-1-1z"/><path fill="#fff" d="M10 5c-.5 0-1 .5-1 1v3h6V6c0-.5-.5-1-1-1zM16 6v3h6V6c0-.5-.5-1-1-1h-4a1 1 0 0 0-1 1z"/></svg><svg width="24" height="24" y="40" viewBox="0 0 24 24"><path fill="#1bb39a" d="M1 0h22c.6 0 1 .4 1 1v22c0 .6-.4 1-1 1H1a1 1 0 0 1-1-1V1c0-.6.4-1 1-1z"/><path fill="#a8adb4" d="M4 6h16v12H4V6z"/><path fill="#fff" d="M20 5H4a1 1 0 0 0-1 1v12c0 .6.5 1 1 1h16c.6 0 1-.4 1-1V6c0-.5-.5-1-1-1zm-1 2v.7l-7 3.6-7-3.6V7zM5 17V9.5l7 3.5 7-3.5V17z"/></svg><svg width="24" height="24" x="40" y="40" viewBox="0 0 24 24"><path fill="#7f8691" d="M1 0h22c.6 0 1 .4 1 1v22c0 .6-.4 1-1 1H1a1 1 0 0 1-1-1V1c0-.6.4-1 1-1z"/><path fill="#fff" d="M11 4h3c.6 0 1 .4 1 1v3c0 .6-.4 1-1 1h-3a1 1 0 0 1-1-1V5c0-.6.4-1 1-1zM4 15h3c.6 0 1 .4 1 1v3c0 .6-.4 1-1 1H4a1 1 0 0 1-1-1v-3c0-.6.4-1 1-1zM11 15h3c.6 0 1 .4 1 1v3c0 .6-.4 1-1 1h-3a1 1 0 0 1-1-1v-3c0-.6.4-1 1-1zM18 15h3c.6 0 1 .4 1 1v3c0 .6-.4 1-1 1h-3a1 1 0 0 1-1-1v-3c0-.6.4-1 1-1z"/><path fill="#fff" d="M12 8v3H6c-.5 0-1 .5-1 1v4h1v-4h6v4h1v-4h6v4h1v-4c0-.5-.5-1-1-1h-6V8z"/></svg><svg width="24" height="24" x="80" y="40" viewBox="0 0 24 24"><path fill="#7f8691" d="M1 0h22c.6 0 1 .4 1 1v22c0 .6-.4 1-1 1H1a1 1 0 0 1-1-1V1c0-.6.4-1 1-1z"/><path fill="#fff" d="M9 14h10c.5 0 1-.5 1-1v-2c0-.5-.3-1-1-1H9a1 1 0 0 0-1 1H7V8h8c.5 0 1-.5 1-1V5c0-.5-.5-1-1-1H5c-.5 0-1 .5-1 1v2c0 .5.5 1 1 1h1v10h2v1c0 .5.5 1 1 1h10c.5 0 1-.5 1-1v-2c0-.5-.5-1-1-1H9a1 1 0 0 0-1 1H7v-5h1v1c0 .8.5 1 1 1zm0-3h2v2H9zm0 6h2v2H9zM5 7V5h2v2z"/></svg><svg width="24" height="24" x="120" y="40" viewBox="0 0 24 24"><path fill="#7f8691" d="M1 0h22c.6 0 1 .4 1 1v22c0 .6-.4 1-1 1H1a1 1 0 0 1-1-1V1c0-.6.4-1 1-1z"/><path fill="#fff" d="M17 20l-5-4-5 4 2-6-5-4h6l2-6 2 6h6l-5 4z"/><path fill="#fff" d="M14 5c0 1.1-.9 2-2 2s-1.8-.9-1.8-2S11 3 12 3s1.9.9 1.9 2zM20.8 10.5c0 1.1-.8 2-1.9 2s-1.9-.9-1.9-2 .9-2 2-2 1.8.9 1.8 2zM18 19c0 1.1-1 2-2 2s-2-.9-2-2 1-2 2-2 2 .9 2 2zM10 19c0 1.1-.9 2-2 2s-1.8-.9-1.8-2S7 17 8 17s1.9.9 1.9 2zM7 10.5c0 1.1-.9 2-2 2s-1.8-.9-1.8-2 .8-2 1.9-2 1.9.9 1.9 2z"/></svg><svg width="24" height="24" x="160" y="40" viewBox="0 0 24 24"><path fill="#7f8691" d="M1 0h22c.6 0 1 .4 1 1v22c0 .6-.4 1-1 1H1a1 1 0 0 1-1-1V1c0-.6.4-1 1-1z"/><path fill="#fff" d="M4 5h16c.6 0 1 .4 1 1v12c0 .6-.4 1-1 1H4a1 1 0 0 1-1-1V6c0-.6.4-1 1-1z"/><path fill="#a8adb4" d="M4 6h16v12H4V6z"/><path fill="#fff" d="M9 7.3a2 2 0 0 1 .7 2.7 2 2 0 0 1-2.7.7A2 2 0 0 1 6.3 8 2 2 0 0 1 9 7.3z"/><path fill="#0d2c56" d="M4 16v2h16v-5l-4-4-5 5-3-2z"/></svg><svg width="24" height="24" x="200" y="40" viewBox="0 0 24 24"><path fill="#7f8691" d="M1 0h22c.6 0 1 .4 1 1v22c0 .6-.4 1-1 1H1a1 1 0 0 1-1-1V1c0-.6.4-1 1-1z"/><path fill="#fff" d="M9 7.8V4.3 4L8.7 4H7V8l.2.1h1.6l.1-.3zm8 0V4.3 4l-.3-.1h-1.5-.1l-.1.3v3.6l.2.1H17l.1-.3zM21 6v14c0 .3-.1.5-.3.7s-.4.3-.7.3H4c-.3 0-.5-.1-.7-.3S3 20.3 3 20V6c0-.3.1-.5.3-.7S3.7 5 4 5h2v-.8c0-.3.1-.6.4-.8s.5-.4.9-.4h1.5c.3 0 .6.1.8.4s.5.5.4.9V5h4v-.8c0-.3.1-.6.4-.8s.5-.4.8-.4h1.5c.4 0 .7.1 1 .4s.4.5.3.9V5h2c.3 0 .5.1.7.3s.3.4.3.7z"/><path fill="#144382" d="M16.6 11.5c-.5-.7-1-1.3-1.8-1.8a5.5 5.5 0 1 0 2.7 4.3H12v1.7h3.3l-.3.6a3.5 3.5 0 1 1-1.2-4.8c.5.3 1 .7 1.2 1.2z"/></svg><svg width="24" height="24" x="240" y="40" viewBox="0 0 24 24"><path fill="#0d2c56" d="M1 0h22c.6 0 1 .4 1 1v22c0 .6-.4 1-1 1H1a1 1 0 0 1-1-1V1c0-.6.4-1 1-1z"/><path fill="#fff" d="M5 5h14v2H5V5z"/><path fill="#a8adb4" d="M5 17h14v2H5v-2z"/><path fill="#fff" d="M5 9h6v6H5V9z"/><path fill="#a8adb4" d="M13 9h6v6h-6V9z"/><path fill="#fff" d="M3.1 2C2.5 2 2 2.5 2 3.1V21c0 .6.5 1.1 1.1 1.1H21c.6 0 1.1-.5 1.1-1.1V3c0-.6-.5-1.1-1.1-1.1zM21 3v18H3V3z"/></svg><svg width="24" height="24" x="280" y="40" viewBox="0 0 24 24"><path fill="#0d2c56" d="M1 0h22c.6 0 1 .4 1 1v22c0 .6-.4 1-1 1H1a1 1 0 0 1-1-1V1c0-.6.4-1 1-1z"/><path fill="#fff" d="M5 9h14v6H5V9z"/><path fill="#fff" d="M3.1 2C2.5 2 2 2.5 2 3.1V21c0 .6.5 1.1 1.1 1.1H21c.6 0 1.1-.5 1.1-1.1V3c0-.6-.5-1.1-1.1-1.1zM21 3v18H3V3z"/></svg><svg width="24" height="24" x="320" y="40" viewBox="0 0 24 24"><path fill="#0d2c56" d="M1 0h22c.6 0 1 .4 1 1v22c0 .6-.4 1-1 1H1a1 1 0 0 1-1-1V1c0-.6.4-1 1-1z"/><path fill="#fff" d="M5 5h14v4H5V5z"/><path fill="#fff" d="M3.1 2C2.5 2 2 2.5 2 3.1V21c0 .6.5 1.1 1.1 1.1H21c.6 0 1.1-.5 1.1-1.1V3c0-.6-.5-1.1-1.1-1.1zM21 3v18H3V3z"/></svg><svg width="24" height="24" x="360" y="40" viewBox="0 0 24 24"><path fill="#0d2c56" d="M1 0h22c.6 0 1 .4 1 1v22c0 .6-.4 1-1 1H1a1 1 0 0 1-1-1V1c0-.6.4-1 1-1z"/><path fill="#fff" d="M5 15h14v4H5v-4z"/><path fill="#fff" d="M3.1 2C2.5 2 2 2.5 2 3.1V21c0 .6.5 1.1 1.1 1.1H21c.6 0 1.1-.5 1.1-1.1V3c0-.6-.5-1.1-1.1-1.1zM21 3v18H3V3z"/></svg><svg width="24" height="24" x="400" y="40" viewBox="0 0 24 24"><path fill="#b31b34" d="M1 0h22c.6 0 1 .4 1 1v22c0 .6-.4 1-1 1H1a1 1 0 0 1-1-1V1c0-.6.4-1 1-1z"/><path fill="#fff" d="M5 5h14v2H5V5z"/><path fill="#a8adb4" d="M5 17h14v2H5v-2z"/><path fill="#fff" d="M5 9h6v6H5V9z"/><path fill="#a8adb4" d="M13 9h6v6h-6V9z"/><path fill="#fff" d="M3.1 2C2.5 2 2 2.5 2 3.1V21c0 .6.5 1.1 1.1 1.1H21c.6 0 1.1-.5 1.1-1.1V3c0-.6-.5-1.1-1.1-1.1zM21 3v18H3V3z"/></svg><svg width="24" height="24" x="440" y="40" viewBox="0 0 24 24"><path fill="#b31b34" d="M1 0h22c.6 0 1 .4 1 1v22c0 .6-.4 1-1 1H1a1 1 0 0 1-1-1V1c0-.6.4-1 1-1z"/><path fill="#fff" d="M5 9h14v6H5V9z"/><path fill="#fff" d="M3.1 2C2.5 2 2 2.5 2 3.1V21c0 .6.5 1.1 1.1 1.1H21c.6 0 1.1-.5 1.1-1.1V3c0-.6-.5-1.1-1.1-1.1zM21 3v18H3V3z"/></svg></svg>