<svg xmlns="http://www.w3.org/2000/svg" xmlns:xlink="http://www.w3.org/1999/xlink" width="496" height="48" viewBox="0 0 496 48"><svg width="16" height="16" viewBox="0 0 16 16"><path fill="#1bb39a" d="M1 0h14c.6 0 1 .4 1 1v14c0 .6-.4 1-1 1H1a1 1 0 0 1-1-1V1c0-.6.4-1 1-1z"/><path fill="#fff" d="M3.5 5h9c.3 0 .5.2.5.5s-.2.5-.5.5h-9a.5.5 0 0 1 0-1zM3.3 7.5h4.5s.2.1.2.3c0 .1-.1.2-.3.2H3.3a.3.3 0 0 1 0-.5zM3.3 8.5h4.5s.2.1.2.3c0 .1-.1.2-.3.2H3.3a.3.3 0 0 1 0-.5zM3.3 9.5h4.4a.3.3 0 1 1 0 .5H3.3a.3.3 0 1 1 0-.5z"/><path fill="#0d2c56" d="M13 9.5V11H9v-1l1-1 .7.5L12 8z"/><path fill="#fff" d="M9.8 7a.5.5 0 0 1 .1.8.5.5 0 0 1-.7.1.5.5 0 0 1-.1-.7.5.5 0 0 1 .7-.1zM3.3 10.5h4.4a.3.3 0 1 1 0 .5H3.3a.3.3 0 1 1 0-.5z"/><path fill="#fff" d="M1.6 3c-.4 0-.6.2-.6.6v8.8c0 .4.2.6.6.6h12.8c.4 0 .6-.2.6-.6V3.6c0-.4-.2-.6-.6-.6zM2 4h12v8H2z"/></svg><svg width="16" height="16" x="32" viewBox="0 0 16 16"><path fill="#2197db" d="M1 0h14c.6 0 1 .4 1 1v14c0 .6-.4 1-1 1H1a1 1 0 0 1-1-1V1c0-.6.4-1 1-1z"/><path fill="#a8adb4" d="M2.4 2h11.2c.2 0 .4.2.4.4v4.2c0 .2-.2.4-.4.4H2.4a.4.4 0 0 1-.4-.4V2.4c0-.2.2-.4.4-.4z"/><path fill="#fff" d="M4.5 2.5A1 1 0 0 1 4.9 4a1 1 0 0 1-1.4.3A1 1 0 0 1 3.1 3a1 1 0 0 1 1.4-.4z"/><path fill="#0d2c56" d="M2 6.5c0 .3.2.5.6.5h10.8c.5 0 .6-.2.6-.5v-2L11 3 7 6 4 5 2 6.5z"/><path fill="#fff" d="M2.2 9h11.6l.2.2v.5c0 .2-.1.3-.2.3H2.2a.2.2 0 0 1-.2-.3v-.5l.2-.2zM2.2 12h8.6l.2.2c0 .2-.1.3-.2.3H2.2a.2.2 0 1 1 0-.5zM2.3 13h8.4a.3.3 0 0 1 0 .5H2.3a.3.3 0 0 1 0-.5zM2.3 14h8.4a.3.3 0 0 1 0 .5H2.3a.3.3 0 0 1 0-.5z"/></svg><svg width="16" height="16" x="64" viewBox="0 0 16 16"><path fill="#2197db" d="M1 0h14c.6 0 1 .4 1 1v14c0 .6-.4 1-1 1H1a1 1 0 0 1-1-1V1c0-.6.4-1 1-1z"/><path fill="#fff" d="M5 4.4V2.6l-.1-.1H4v2H5l.1-.1zm7 0V2.6l-.1-.1H11l-.1.1v1.8l.1.1h.8l.1-.1zm2-.9v10c0 .1 0 .3-.2.4l-.3.1h-11l-.3-.1a.5.5 0 0 1-.2-.4v-10c0-.1 0-.3.2-.4l.3-.1h1v-.4c0-.1 0-.3.2-.4L4 2H5c.2 0 .3 0 .4.2l.2.4V3h5v-.4c0-.1 0-.3.2-.4L11 2h.8c.1 0 .3 0 .4.2l.2.4V3h1l.3.1.2.4z"/><path fill="#a8adb4" d="M3 6h10v7H3V6z"/></svg><svg width="16" height="16" x="96" viewBox="0 0 16 16"><path fill="#2197db" d="M1 0h14c.6 0 1 .4 1 1v14c0 .6-.4 1-1 1H1a1 1 0 0 1-1-1V1c0-.6.4-1 1-1z"/><path fill="#a8adb4" d="M6.5 11h3v3.5h-3V11z"/><path fill="#fff" d="M7 7L4 9.5V14c0 .3.3.5.5.5H7v-3h2v3h2.5c.3 0 .5-.3.5-.5V9.5L9 7zM9 7V5z"/><path fill="#fff" d="M9 5h2V3H9V1H7v2H5v2h2v2h2z"/></svg><svg width="16" height="16" x="128" viewBox="0 0 16 16"><path fill="#2197db" d="M1 0h14c.6 0 1 .4 1 1v14c0 .6-.4 1-1 1H1a1 1 0 0 1-1-1V1c0-.6.4-1 1-1z"/><path fill="#0d2c56" d="M1.5 2h2c.3 0 .5.2.5.5v2c0 .3-.2.5-.5.5h-2a.5.5 0 0 1-.5-.5v-2c0-.3.2-.5.5-.5zM1.5 7h2c.3 0 .5.2.5.5v2c0 .3-.2.5-.5.5h-2a.5.5 0 0 1-.5-.5v-2c0-.3.2-.5.5-.5zM1.5 12h2c.3 0 .5.2.5.5v2c0 .3-.2.5-.5.5h-2a.5.5 0 0 1-.5-.5v-2c0-.3.2-.5.5-.5z"/><path fill="#fff" d="M5.5 2h9c.3 0 .5.2.5.5v1c0 .3-.2.5-.5.5h-9a.5.5 0 0 1-.5-.5v-1c0-.3.2-.5.5-.5zM5.5 7h9c.3 0 .5.2.5.5v1c0 .3-.2.5-.5.5h-9a.5.5 0 0 1-.5-.5v-1c0-.3.2-.5.5-.5zM5.5 12h9c.3 0 .5.2.5.5v1c0 .3-.2.5-.5.5h-9a.5.5 0 0 1-.5-.5v-1c0-.3.2-.5.5-.5z"/></svg><svg width="16" height="16" x="160" viewBox="0 0 16 16"><path fill="#2197db" d="M1 0h14c.6 0 1 .4 1 1v14c0 .6-.4 1-1 1H1a1 1 0 0 1-1-1V1c0-.6.4-1 1-1z"/><path fill="#fff" d="M1.6 2h12.8c.4 0 .6.2.6.6v9.8c0 .4-.2.6-.5.6h-13a.5.5 0 0 1-.5-.6V2.5c0-.3.2-.5.6-.5z"/><path fill="#a8adb4" d="M2 3h12v9H2V3z"/><path fill="#fff" d="M5.2 4.2a1.5 1.5 0 0 1 .6 2 1.5 1.5 0 0 1-2.1.6 1.5 1.5 0 0 1-.5-2 1.5 1.5 0 0 1 2-.6z"/><path fill="#0d2c56" d="M2 10.5V12h12V9l-3-3-4 4.1L4.5 8z"/></svg><svg width="16" height="16" x="192" viewBox="0 0 16 16"><path fill="#b31b34" d="M1 0h14c.6 0 1 .4 1 1v14c0 .6-.4 1-1 1H1a1 1 0 0 1-1-1V1c0-.6.4-1 1-1z"/><path fill="#fff" d="M14 11.6l-.1.5-.2.6q-.2.4-1.2.9-.8.4-1.6.4h-.5l-.5-.1-.4-.2-.5-.2-.4-.1-1.5-.7q-1-.7-2.2-1.9T3 8.6q-.4-.7-.6-1.5l-.2-.4q-.2-.3-.1-.5T2 5.8 2 5.3t0-.4q0-.8.5-1.6.6-.8 1-1l.6-.2H5q.2 0 .5.6l.2.5.3.5.2.5.2.2q.2.2.1.3t0 .2l-.2.4-.5.5-.6.4q-.3.1-.3.4v.2L5 7l.1.2.1.2q.6 1.1 1.4 2t2 1.4l.2.1.2.2H9.2l.5-.1q.3-.1.5-.6t.5-.5.4-.2h.3q.2 0 .3.2t.2.2l.4.3.6.3q.4 0 .4.2.6.3.7.5v.2z"/></svg><svg width="16" height="16" x="224" viewBox="0 0 16 16"><path fill="#b31b34" d="M1 0h14c.6 0 1 .4 1 1v14c0 .6-.4 1-1 1H1a1 1 0 0 1-1-1V1c0-.6.4-1 1-1z"/><path fill="#fff" d="M8 2C6 2 4 3.3 4 5.5s3.5 5 4 9.5c.5-4.5 4-7.3 4-9.5S10 2 8 2z" opacity=".9"/><path d="M9.5 6a1.5 1.5 0 1 1-3 0 1.5 1.5 0 0 1 3 0z"/></svg><svg width="16" height="16" x="256" viewBox="0 0 16 16"><path fill="#b31b34" d="M1 0h14c.6 0 1 .4 1 1v14c0 .6-.4 1-1 1H1a1 1 0 0 1-1-1V1c0-.6.4-1 1-1z"/><path fill="#0d2c56" d="M10.8 3.2a5.6 5.6 0 0 1 2 7.6 5.6 5.6 0 0 1-7.6 2 5.6 5.6 0 0 1-2-7.6 5.6 5.6 0 0 1 7.6-2z"/><path fill="#fff" d="M8 2a6 6 0 1 0 0 12A6 6 0 0 0 8 2zM6.1 3.1v.4L4.3 5.4h-.8C4 4.4 5 3.5 6 3zM8 9.5l-2.7 3-.3-.2V10L3.5 8.7V7c0-.2.2-.4.4-.4H5S6.1 8 8 8.4zm4.5-1.7c-.1-.7-.3-.7-1.1-1a1.9 1.9 0 0 1-.6-3.3 5.2 5.2 0 0 1 1.7 7.2c.2-1.3.1-2.3 0-3z"/></svg><svg width="16" height="16" x="288" viewBox="0 0 16 16"><path fill="#7f8691" d="M1 0h14c.6 0 1 .4 1 1v14c0 .6-.4 1-1 1H1a1 1 0 0 1-1-1V1c0-.6.4-1 1-1z"/><path fill="#fff" d="M5.8 10.3c.2.2.5.1.7 0l3.7-3.8c.2-.2.3-.5 0-.8s-.5-.1-.7 0L5.8 9.6c-.2.2-.3.5 0 .8zm1.8-.4a.8.8 0 0 1-.2.9l-1.9 2-.5.1c-.2 0-.4 0-.6-.2l-1.1-1.1c-.2-.2-.2-.4-.2-.6l.2-.5 1.9-2 .5-.2.4.1.8-.8a1.8 1.8 0 0 0-2.5.2l-1.9 2c-.7.6-.7 1.8 0 2.5l1.2 1.2a1.8 1.8 0 0 0 2.6 0l1.9-2c.7-.6.7-1.6.2-2.4zm5.9-6.2l-1.2-1.2a1.8 1.8 0 0 0-2.6 0l-1.9 2c-.7.6-.7 1.6-.2 2.4l.8-.8a.8.8 0 0 1 .2-.9l1.9-2 .5-.1c.2 0 .4 0 .6.2l1.1 1.1c.2.2.2.4.2.6l-.2.5-1.9 2-.5.2-.4-.1-.8.8a1.8 1.8 0 0 0 2.5-.2l1.9-2c.7-.6.7-1.8 0-2.5z"/></svg><svg width="16" height="16" x="320" viewBox="0 0 16 16"><path fill="#7f8691" d="M1 0h14c.6 0 1 .4 1 1v14c0 .6-.4 1-1 1H1a1 1 0 0 1-1-1V1c0-.6.4-1 1-1z"/><path fill="#fff" d="M7 10V9c.2-.9.4-1.2 1-1.9.3-.4 1-1 1-1.5 0-.9-1.5-.8-2.2-.6-.4 0-.6.2-1 .5L5 4c.3-.3.6-.4 1-.5.6-.3 1.4-.5 1.9-.5a4 4 0 0 1 1.5.3c.4.1.7.3 1 .6s.4.5.5.8l.1.9c0 .3 0 .6-.2.8l-.5.8A6 6 0 0 0 9 9v1zM8.5 11.1a1 1 0 0 1 .4 1.4 1 1 0 0 1-1.4.4 1 1 0 0 1-.4-1.4 1 1 0 0 1 1.4-.4z"/></svg><svg width="16" height="16" x="352" viewBox="0 0 16 16"><path fill="#7f8691" d="M1 0h14c.6 0 1 .4 1 1v14c0 .6-.4 1-1 1H1a1 1 0 0 1-1-1V1c0-.6.4-1 1-1z"/><path fill="#fff" d="M3 5h10c.6 0 1 .4 1 1v6c0 .6-.4 1-1 1H3a1 1 0 0 1-1-1V6c0-.6.4-1 1-1z"/><path fill="#a8adb4" d="M3 5h1v8H3V5zM12 5h1v8h-1V5z"/><path fill="#fff" d="M5 5V3.5c0-.3.3-.5.5-.5h5c.2 0 .5.3.5.5V5h-1V4H6v1z"/></svg><svg width="16" height="16" x="384" viewBox="0 0 16 16"><path fill="#7f8691" d="M1 0h14c.6 0 1 .4 1 1v14c0 .6-.4 1-1 1H1a1 1 0 0 1-1-1V1c0-.6.4-1 1-1z"/><path d="M1.5 5.5h1v1h-1v-1z"/><path fill="#fff" d="M1 3h14v10H1V3z"/><path fill="#a8adb4" d="M3.5 11.5h1v1h-1v-1zM11.5 11.5h1v1h-1v-1zM5.5 11.5h1v1h-1v-1zM2 4h12v7H2V4zM7.5 11.5h1v1h-1v-1zM9.5 11.5h1v1h-1v-1z"/><path fill="#0d2c56" d="M13 7.5L10 5v5zM3 7.5L6 5v5z"/></svg><svg width="16" height="16" x="416" viewBox="0 0 16 16"><path fill="#144382" d="M1 0h14c.6 0 1 .4 1 1v14c0 .6-.4 1-1 1H1a1 1 0 0 1-1-1V1c0-.6.4-1 1-1z"/><path fill="#fff" d="M10 11.8l1 1.2 4-5-4-5-1 1.3L13.1 8zM6 4.3L5 3 1 8l4 5 1-1.3L2.9 8zM8 2l1.5.3L8 14l-1.5-.3L8 2z"/></svg><svg width="16" height="16" x="448" viewBox="0 0 16 16"><path fill="#144382" d="M1 0h14c.6 0 1 .4 1 1v14c0 .6-.4 1-1 1H1a1 1 0 0 1-1-1V1c0-.6.4-1 1-1z"/><path fill="#fff" d="M5.5 7v5.2l-.1.3-.3.2H3.4s-.2 0-.2-.2l-.2-.3V7c0-.1 0-.3.2-.4l.2-.1h1.7l.3.1.1.4zm7.5.4c0 .5-.3.8-.6 1l.3 1c0 .3-.2.6-.4 1 0 .2.3.6.2.9 0 .3-.5.7-.6.9 0 .5.2.8 0 1.2-.3.4-.7.6-1.3.6h-.8l-.9-.1-.7-.3-.8-.3c-.5-.2-.8-.6-1-.6 0 0-.2 0-.3-.2V7.1v-.4l.3-.1L7 6c.2-.3.4-.2.6-.6l.6-.9.2-.4.1-.3a19.2 19.2 0 0 0 .3-1.4l.2-.4.3-.1h.5l.4.3.3.3.1.3v.4l.1.4a12 12 0 0 1 0 .9 3.7 3.7 0 0 1-.4 1v.2L10 6h1.7c.3 0 .6.1.8.4s.4.6.4 1z"/></svg><svg width="16" height="16" x="480" viewBox="0 0 16 16"><path fill="#1bb39a" d="M1 0h14c.6 0 1 .4 1 1v14c0 .6-.4 1-1 1H1a1 1 0 0 1-1-1V1c0-.6.4-1 1-1z"/><path fill="#fff" d="M1.5 4c-.3 0-.5.3-.5.5V12h14V7H5V4.5c0-.3-.3-.5-.5-.5z"/><path fill="#fff" d="M6.5 4c-.3 0-.5.3-.5.5V6h4V4.5c0-.3-.3-.5-.5-.5zM11 4.5V6h4V4.5c0-.3-.3-.5-.5-.5h-3c-.3 0-.5.3-.5.5z"/></svg><svg width="16" height="16" y="32" viewBox="0 0 16 16"><path fill="#1bb39a" d="M1 0h14c.6 0 1 .4 1 1v14c0 .6-.4 1-1 1H1a1 1 0 0 1-1-1V1c0-.6.4-1 1-1z"/><path fill="#a8adb4" d="M2.5 3.5h11v9h-11v-9z"/><path fill="#fff" d="M13.5 3h-11c-.3 0-.5.2-.5.5v9c0 .3.2.5.5.5h11c.3 0 .5-.2.5-.5v-9c0-.3-.2-.5-.5-.5zM13 4v1L8 6.8 3 5V4zM3 12V6l5 1.8L13 6v6z"/></svg><svg width="16" height="16" x="32" y="32" viewBox="0 0 16 16"><path fill="#7f8691" d="M1 0h14c.6 0 1 .4 1 1v14c0 .6-.4 1-1 1H1a1 1 0 0 1-1-1V1c0-.6.4-1 1-1z"/><path fill="#fff" d="M7.8 2h1.5c.4 0 .7.3.7.8v1.5c0 .4-.3.7-.8.7H7.8a.8.8 0 0 1-.8-.8V2.8c0-.4.3-.7.8-.7zM2.6 10h1.8c.3 0 .6.3.6.6v1.8c0 .3-.3.6-.6.6H2.6a.6.6 0 0 1-.6-.6v-1.8c0-.3.3-.6.6-.6z"/><path fill="#fff" d="M8 4.6V7H4c-.5 0-1 .5-1 1v2.6h1V8h4v2.6h1V8h4v2.6h1V8c0-.5-.5-1-1-1H9V4.6z"/><path fill="#fff" d="M7.6 10h1.8c.3 0 .6.3.6.6v1.8c0 .3-.3.6-.6.6H7.6a.6.6 0 0 1-.6-.6v-1.8c0-.3.3-.6.6-.6zM12.6 10h1.8c.3 0 .6.3.6.6v1.8c0 .3-.3.6-.6.6h-1.8a.6.6 0 0 1-.6-.6v-1.8c0-.3.3-.6.6-.6z"/></svg><svg width="16" height="16" x="64" y="32" viewBox="0 0 16 16"><path fill="#7f8691" d="M1 0h14c.6 0 1 .4 1 1v14c0 .6-.4 1-1 1H1a1 1 0 0 1-1-1V1c0-.6.4-1 1-1z"/><path fill="#fff" d="M2.5 3c-.3 0-.5.2-.5.5v2c0 .3.3.5.6.5H3v7h2v.5s0 .5.5.5h7c.3 0 .5-.2.5-.5v-2c0-.3-.2-.5-.5-.5h-7c-.5 0-.5.5-.5.5v.5H4V9h1v.5s0 .5.5.5h7c.3 0 .5-.2.5-.5v-2c0-.3-.2-.5-.5-.5h-7c-.5 0-.5.5-.5.5V8H4V6h6.5c.3 0 .5-.2.5-.5v-2c0-.3-.2-.5-.5-.5zm.5.5h2v2H3zm3 4h2v2H6zm0 4h2v2H6z"/></svg><svg width="16" height="16" x="96" y="32" viewBox="0 0 16 16"><path fill="#7f8691" d="M1 0h14c.6 0 1 .4 1 1v14c0 .6-.4 1-1 1H1a1 1 0 0 1-1-1V1c0-.6.4-1 1-1z"/><path fill="#fff" d="M11.3 13.3L8 10.6l-3.3 2.7 1.3-4-3.3-2.7h4l1.3-4 1.3 4h4L10 9.3z"/><path fill="#fff" d="M9.2 3.3c0 .8-.6 1.4-1.3 1.4S6.6 4 6.6 3.3C6.6 2.6 7.2 2 8 2s1.3.6 1.3 1.3zM13.7 7c0 .7-.6 1.3-1.3 1.3s-1.2-.6-1.2-1.3c0-.8.5-1.3 1.2-1.3s1.3.5 1.3 1.3zM11.8 12.6c0 .8-.6 1.3-1.3 1.3s-1.3-.5-1.3-1.3c0-.7.6-1.3 1.3-1.3s1.3.6 1.3 1.3zM6.5 12.6c0 .8-.5 1.3-1.2 1.3S4 13.4 4 12.6c0-.7.6-1.3 1.3-1.3s1.2.6 1.2 1.3zM4.5 7c0 .7-.5 1.3-1.2 1.3S2 7.7 2 7c0-.8.6-1.3 1.3-1.3s1.2.5 1.2 1.3z"/></svg><svg width="16" height="16" x="128" y="32" viewBox="0 0 16 16"><path fill="#7f8691" d="M1 0h14c.6 0 1 .4 1 1v14c0 .6-.4 1-1 1H1a1 1 0 0 1-1-1V1c0-.6.4-1 1-1z"/><path fill="#fff" d="M1.6 2h12.8c.4 0 .6.2.6.6v9.8c0 .4-.2.6-.5.6h-13a.5.5 0 0 1-.5-.6V2.5c0-.3.2-.5.6-.5z"/><path fill="#a8adb4" d="M2 3h12v9H2V3z"/><path fill="#fff" d="M5.2 4.2a1.5 1.5 0 0 1 .6 2 1.5 1.5 0 0 1-2.1.6 1.5 1.5 0 0 1-.5-2 1.5 1.5 0 0 1 2-.6z"/><path fill="#0d2c56" d="M2 10.5V12h12V9l-3-3-4 4.1L4.5 8z"/></svg><svg width="16" height="16" x="160" y="32" viewBox="0 0 16 16"><path fill="#7f8691" d="M1 0h14c.6 0 1 .4 1 1v14c0 .6-.4 1-1 1H1a1 1 0 0 1-1-1V1c0-.6.4-1 1-1z"/><path fill="#fff" d="M5 4.4V2.6l-.1-.1H4v2H5l.1-.1zm7 0V2.6l-.1-.1H11l-.1.1v1.8l.1.1h.8l.1-.1zm2-.9v10c0 .1 0 .3-.2.4l-.3.1h-11l-.3-.1a.5.5 0 0 1-.2-.4v-10c0-.1 0-.3.2-.4l.3-.1h1v-.4c0-.1 0-.3.2-.4L4 2H5c.2 0 .3 0 .4.2l.2.4V3h5v-.4c0-.1 0-.3.2-.4L11 2h.8c.1 0 .3 0 .4.2l.2.4V3h1l.3.1.2.4z"/><path fill="#144382" d="M11.3 6.8a4 4 0 1 0 .1 4.2c.5-.7.6-1.7.6-2.5H8v1.2h2.4l-.2.6a2.5 2.5 0 1 1-4.4-2.6 2.5 2.5 0 0 1 3.5-.9c.4.2.7.6.9 1z"/></svg><svg width="16" height="16" x="192" y="32" viewBox="0 0 16 16"><path fill="#0d2c56" d="M1 0h14c.6 0 1 .4 1 1v14c0 .6-.4 1-1 1H1a1 1 0 0 1-1-1V1c0-.6.4-1 1-1z"/><path fill="#fff" d="M3 3h10v2H3V3z"/><path fill="#a8adb4" d="M3 11h10v2H3v-2z"/><path fill="#fff" d="M3 6h4v4H3V6z"/><path fill="#a8adb4" d="M9 6h4v4H9V6z"/><path fill="#fff" d="M1.5 1c-.3 0-.5.3-.5.5v13c0 .3.3.5.5.5h13c.3 0 .5-.3.5-.5v-13c0-.3-.3-.5-.5-.5zM14 2v12H2V2z"/></svg><svg width="16" height="16" x="224" y="32" viewBox="0 0 16 16"><path fill="#0d2c56" d="M1 0h14c.6 0 1 .4 1 1v14c0 .6-.4 1-1 1H1a1 1 0 0 1-1-1V1c0-.6.4-1 1-1z"/><path fill="#fff" d="M3 6h10v4H3V6z"/><path fill="#fff" d="M1.5 1c-.3 0-.5.3-.5.5v13c0 .3.3.5.5.5h13c.3 0 .5-.3.5-.5v-13c0-.3-.3-.5-.5-.5zM14 2v12H2V2z"/></svg><svg width="16" height="16" x="256" y="32" viewBox="0 0 16 16"><path fill="#0d2c56" d="M1 0h14c.6 0 1 .4 1 1v14c0 .6-.4 1-1 1H1a1 1 0 0 1-1-1V1c0-.6.4-1 1-1z"/><path fill="#fff" d="M3 3h10v3H3V3z"/><path fill="#fff" d="M1.5 1c-.3 0-.5.3-.5.5v13c0 .3.3.5.5.5h13c.3 0 .5-.3.5-.5v-13c0-.3-.3-.5-.5-.5zM14 2v12H2V2z"/></svg><svg width="16" height="16" x="288" y="32" viewBox="0 0 16 16"><path fill="#0d2c56" d="M1 0h14c.6 0 1 .4 1 1v14c0 .6-.4 1-1 1H1a1 1 0 0 1-1-1V1c0-.6.4-1 1-1z"/><path fill="#fff" d="M3 10h10v3H3v-3z"/><path fill="#fff" d="M1.5 1c-.3 0-.5.3-.5.5v13c0 .3.3.5.5.5h13c.3 0 .5-.3.5-.5v-13c0-.3-.3-.5-.5-.5zM14 2v12H2V2z"/></svg><svg width="16" height="16" x="320" y="32" viewBox="0 0 16 16"><path fill="#b31b34" d="M1 0h14c.6 0 1 .4 1 1v14c0 .6-.4 1-1 1H1a1 1 0 0 1-1-1V1c0-.6.4-1 1-1z"/><path fill="#fff" d="M3 3h10v2H3V3z"/><path fill="#a8adb4" d="M3 11h10v2H3v-2z"/><path fill="#fff" d="M3 6h4v4H3V6z"/><path fill="#a8adb4" d="M9 6h4v4H9V6z"/><path fill="#fff" d="M1.5 1c-.3 0-.5.3-.5.5v13c0 .3.3.5.5.5h13c.3 0 .5-.3.5-.5v-13c0-.3-.3-.5-.5-.5zM14 2v12H2V2z"/></svg><svg width="16" height="16" x="352" y="32" viewBox="0 0 16 16"><path fill="#b31b34" d="M1 0h14c.6 0 1 .4 1 1v14c0 .6-.4 1-1 1H1a1 1 0 0 1-1-1V1c0-.6.4-1 1-1z"/><path fill="#fff" d="M3 6h10v4H3V6z"/><path fill="#fff" d="M1.5 1c-.3 0-.5.3-.5.5v13c0 .3.3.5.5.5h13c.3 0 .5-.3.5-.5v-13c0-.3-.3-.5-.5-.5zM14 2v12H2V2z"/></svg></svg>