<svg xmlns="http://www.w3.org/2000/svg" viewBox="0 0 22 28"><path d="m21.9 24.17-.1.1A12.67 12.67 0 0 1 17.75 27a12.75 12.75 0 0 1-9.9 0 12.53 12.53 0 0 1-4.05-2.73 12.44 12.44 0 0 1-2.74-4.04c-.39-.95-.7-1.93-.84-2.95-.06-.44.55-.53.75-.56.48-.08.81-.05.87.31.02.02.02.03.02.07.06.3.22 1.25.72 2.48a10.6 10.6 0 0 0 2.37 3.53 10.97 10.97 0 0 0 12.16 2.38 11.16 11.16 0 0 0 3.52-2.38l.09-.1a.36.36 0 0 1 .39-.09c.14.03.31.16.52.35.5.51.39.76.26.9zm-7.38-9.6-1.04 1.02.99.99c.1.1.31.34-.11.76-.17.18-.34.27-.5.27-.1 0-.2-.05-.3-.16l-.97-.95-1.03 1.03a.34.34 0 0 1-.23.08c-.14 0-.31-.08-.49-.25l-.03-.03c-.1-.1-.28-.27-.28-.45 0-.1.05-.18.13-.27l1.03-1.02-1.03-1.03c-.17-.17-.1-.39.22-.7.18-.19.34-.28.48-.28a.3.3 0 0 1 .2.08l1.02 1.03 1.02-1.02c.17-.17.45-.1.75.2.18.2.39.46.17.7zm7.35.88a9.19 9.19 0 0 1-17.61 3.56 5.1 5.1 0 0 1-.23-.62h-.02c-.14-.44.49-.62.68-.69.45-.14.8-.2.93.19.38 1 .96 1.97 1.52 2.6h.02v-5.32a5.25 5.25 0 0 1 1.59-3.62 5.6 5.6 0 0 1 3.95-1.61 5.53 5.53 0 1 1 0 11.04 5.51 5.51 0 0 1-1.75-.25c-.08-.03-.44-.18-.2-.95.06-.2.25-.8.69-.67.03 0 .8.19 1.2.19a3.82 3.82 0 0 0 3.88-3.85 3.82 3.82 0 0 0-3.86-3.78 3.65 3.65 0 0 0-2.78 1.25c-.63.7-1 1.64-1 2.5v6.45a7.2 7.2 0 0 0 3.78 1.05c2 0 3.93-.8 5.32-2.19a7.43 7.43 0 0 0-.02-10.58c-1.4-1.4-3.27-2.18-5.29-2.18s-3.9.78-5.31 2.19c-.02.01-.9.93-1.2 1.35l-.03.04c-.2.26-.36.51-1.15.34-.39-.1-.8-.33-.8-.67V.59c0-.28.21-.6.59-.6h13.7c.47 0 .47.66.47.87 0 .22 0 .86-.47.86H5.8v7.54h.01C6.7 8.34 8.21 7.37 9.1 7a9.35 9.35 0 0 1 3.6-.72 8.9 8.9 0 0 1 3.57.72 9.27 9.27 0 0 1 4.89 4.87 9.31 9.31 0 0 1 .72 3.58zm-.48-9.07c.3.26.1.54-.2.89-.19.18-.4.4-.61.4a.33.33 0 0 1-.25-.1 11.85 11.85 0 0 0-3.23-2.08c-1.36-.6-2.82-.88-4.32-.88a11.79 11.79 0 0 0-4.1.77c-.4.15-.62-.38-.7-.58a1.4 1.4 0 0 1-.12-.6c.03-.15.11-.26.25-.3A12.73 12.73 0 0 1 21.4 6.37z"/></svg>