<svg xmlns="http://www.w3.org/2000/svg" viewBox="0 0 32 28"><path d="M16 17.67c0 1.36-.9 2.33-2 2.33H6c-1.1 0-2-.97-2-2.33 0-2.42.6-5.1 3.06-5.1.77.43 1.8 1.18 2.94 1.18s2.17-.75 2.94-1.19c2.47 0 3.06 2.7 3.06 5.11zm-2.45-8.12a3.54 3.54 0 1 1-7.1 0 3.54 3.54 0 0 1 7.1 0zM28 16.5v1a.5.5 0 0 1-.5.5h-9a.5.5 0 0 1-.5-.5v-1c0-.28.22-.5.5-.5h9c.28 0 .5.22.5.5zm0-3.94v.88a.56.56 0 0 1-.56.56h-8.88a.56.56 0 0 1-.56-.56v-.88a.56.56 0 0 1 .56-.56h8.88a.56.56 0 0 1 .56.56zm0-4.06v1a.5.5 0 0 1-.5.5h-9a.5.5 0 0 1-.5-.5v-1c0-.28.22-.5.5-.5h9c.28 0 .5.22.5.5zm2 15v-19a.5.5 0 0 0-.5-.5h-27a.5.5 0 0 0-.5.5v19c0 .27.23.5.5.5H8v-1.5c0-.28.22-.5.5-.5h1c.28 0 .5.22.5.5V24h12v-1.5c0-.28.22-.5.5-.5h1c.28 0 .5.22.5.5V24h5.5a.5.5 0 0 0 .5-.5zm2-19v19a2.5 2.5 0 0 1-2.5 2.5h-27A2.5 2.5 0 0 1 0 23.5v-19A2.5 2.5 0 0 1 2.5 2h27A2.5 2.5 0 0 1 32 4.5z"/></svg>