<svg xmlns="http://www.w3.org/2000/svg" viewBox="0 0 32 28"><path d="M16 17.67c0-2.42-.6-5.1-3.06-5.1-.77.43-1.8 1.18-2.94 1.18S7.83 13 7.06 12.56C4.6 12.56 4 15.26 4 17.67 4 19.03 4.89 20 6 20h8c1.1 0 2-.97 2-2.33zm-2.45-8.12a3.55 3.55 0 1 0-7.11.01 3.55 3.55 0 0 0 7.1-.01zM28 17.5v-1a.5.5 0 0 0-.5-.5h-9a.5.5 0 0 0-.5.5v1c0 .28.22.5.5.5h9a.5.5 0 0 0 .5-.5zm0-4.06v-.88a.56.56 0 0 0-.56-.56h-8.88a.56.56 0 0 0-.56.56v.88c0 .31.25.56.56.56h8.88a.56.56 0 0 0 .56-.56zm0-3.94v-1a.5.5 0 0 0-.5-.5h-9a.5.5 0 0 0-.5.5v1c0 .28.22.5.5.5h9a.5.5 0 0 0 .5-.5zm4-5v19a2.5 2.5 0 0 1-2.5 2.5H24v-1.5a.5.5 0 0 0-.5-.5h-1a.5.5 0 0 0-.5.5V26H10v-1.5a.5.5 0 0 0-.5-.5h-1a.5.5 0 0 0-.5.5V26H2.5A2.5 2.5 0 0 1 0 23.5v-19A2.5 2.5 0 0 1 2.5 2h27A2.5 2.5 0 0 1 32 4.5z"/></svg>