<svg xmlns="http://www.w3.org/2000/svg" viewBox="0 0 26 28"><path d="M16.06 10.06a4.06 4.06 0 1 1-8.12-.03 4.06 4.06 0 0 1 8.12.03zm-.75 3.44c2.99 0 3.46 3.55 3.46 5.84 0 1.32-.83 2.66-2.27 2.66h-9c-1.44 0-2.27-1.34-2.27-2.66 0-2.2.47-5.84 3.38-5.84h.08c1.03.6 2.07 1.36 3.31 1.36s2.28-.75 3.31-1.36zM26 9.5a.5.5 0 0 1-.5.5H24v2h1.5c.27 0 .5.23.5.5v3a.5.5 0 0 1-.5.5H24v2h1.5c.27 0 .5.23.5.5v3a.5.5 0 0 1-.5.5H24v3.5a2.5 2.5 0 0 1-2.5 2.5h-19A2.5 2.5 0 0 1 0 25.5v-23A2.5 2.5 0 0 1 2.5 0h19A2.5 2.5 0 0 1 24 2.5V6h1.5c.27 0 .5.23.5.5v3zm-4 16v-23a.5.5 0 0 0-.5-.5h-19a.5.5 0 0 0-.5.5v23c0 .27.23.5.5.5h19a.5.5 0 0 0 .5-.5z"/></svg>