<svg xmlns="http://www.w3.org/2000/svg" viewBox="0 0 26 28"><path d="M18.77 19.34c0-2.76-.68-5.84-3.46-5.84-.86.5-2.03 1.36-3.31 1.36S9.55 14 8.69 13.5c-2.78 0-3.46 3.08-3.46 5.84C5.23 20.9 6.25 22 7.5 22h9c1.25 0 2.27-1.1 2.27-2.66zm-2.7-9.28a4.06 4.06 0 1 0-8.13 0 4.06 4.06 0 0 0 8.12 0zM26 18.5v3a.5.5 0 0 1-.5.5H24v3.5a2.5 2.5 0 0 1-2.5 2.5h-19A2.5 2.5 0 0 1 0 25.5v-23A2.5 2.5 0 0 1 2.5 0h19A2.5 2.5 0 0 1 24 2.5V6h1.5c.28 0 .5.22.5.5v3a.5.5 0 0 1-.5.5H24v2h1.5c.28 0 .5.22.5.5v3a.5.5 0 0 1-.5.5H24v2h1.5c.28 0 .5.22.5.5z"/></svg>