<svg xmlns="http://www.w3.org/2000/svg" viewBox="0 0 28 28" id="icon"><path d="M24.23 23.06c.47-.23.83.13.35.75s-4.38 4.2-10.9 4.2S2.13 23.52.6 21.68c-.42-.49.06-.7.34-.52 4.58 2.78 11.74 7.36 23.28 1.9zm3.24-1.8c.23.32 0 1.7-.4 2.7a5.2 5.2 0 0 1-1.33 1.93c-.35.28-.6.17-.41-.23s1.2-2.9.8-3.44c-.41-.52-2.32-.27-3-.2-.68.06-.82.12-.88-.02-.14-.36 1.36-.97 2.35-1.1.98-.1 2.56-.04 2.87.37zm-6.16-6.92c0 1.72 2.02 3.3 2.02 3.3l-3.55 3.5c-1.39-1.31-2.44-2.4-2.44-2.4a3.02 3.02 0 0 1-.39-.52c-2.82 4.42-11.47 4.14-11.47-2.7 0-6.38 7.55-7.24 10.6-7.35V6.2c0-.42.15-2.35-2.22-2.35 0 0-2.38 0-3.4 3.1l-4.59-.42C5.87 3.44 8.8 0 14.3 0c5.48 0 7.01 3.56 7.01 5.14v9.2zm-10.5.33c0 3.17 5.27 3.92 5.27-1.08v-2.53c-2.11.07-5.27.66-5.27 3.61z"/></svg>