<svg xmlns="http://www.w3.org/2000/svg" viewBox="0 0 31 28"><path d="M10 22a2 2 0 1 0-4 0 2 2 0 0 0 4 0zm-6-8h6v-4H7.53a.94.94 0 0 0-.34.14L4.14 13.2c-.05.08-.13.25-.14.34V14zm20 8a2 2 0 1 0-4 0 2 2 0 0 0 4 0zm2-10.5v-3a.5.5 0 0 0-.5-.5H22V4.5a.5.5 0 0 0-.5-.5h-3a.5.5 0 0 0-.5.5V8h-3.5a.5.5 0 0 0-.5.5v3c0 .28.22.5.5.5H18v3.5c0 .28.22.5.5.5h3a.5.5 0 0 0 .5-.5V12h3.5a.5.5 0 0 0 .5-.5zM30 3v18a1 1 0 0 1-1 1h-3a4 4 0 1 1-8 0h-6a4 4 0 1 1-8 0H2c-.55 0-1-.45-1-1s.45-1 1-1v-6.5c0-.55.31-1.31.7-1.7l3.1-3.1c.39-.39 1.15-.7 1.7-.7H10V3a1 1 0 0 1 1-1h18a1 1 0 0 1 1 1z"/></svg>