<svg xmlns="http://www.w3.org/2000/svg" viewBox="0 0 36 28" id="icon"><path d="M16.13 15a1.5 1.5 0 0 1-1.32-.86A2 2 0 0 0 13 13a2 2 0 0 0-2 2c0 .53.19 1.05.56 1.4l.16.12A1.89 1.89 0 0 0 13 17a2 2 0 0 0 1.81-1.14 1.5 1.5 0 0 1 1.31-.86zM25 13c0-.53-.19-1.05-.56-1.4l-.16-.12A1.89 1.89 0 0 0 23 11a2 2 0 0 0-1.81 1.14 1.5 1.5 0 0 1-1.31.86 1.5 1.5 0 0 1 1.3.86A2 2 0 0 0 23 15a2 2 0 0 0 2-2zm-6.66-3.45a1.5 1.5 0 0 1-2 .68 4.6 4.6 0 0 0-3.64-.22h.3a5.03 5.03 0 0 1 4.52 2.85 1.5 1.5 0 0 1-.72 2 1.34 1.34 0 0 1-.61.14c.22 0 .42.05.6.14a1.5 1.5 0 0 1 .73 2A5.03 5.03 0 0 1 13 20h-.1a10.59 10.59 0 0 0-.68-.06l-4.53-.42-3.74 1.87a1 1 0 0 1-1.34-.44l-2.5-5a1.02 1.02 0 0 1 .39-1.32l3.27-1.86 2.3-4.18a12.44 12.44 0 0 1 4.5-8.25 1.49 1.49 0 0 1 2.1.2 1.5 1.5 0 0 1-.2 2.12 10.06 10.06 0 0 0-1.83 2 9.4 9.4 0 0 1 4.17-1.58 1.48 1.48 0 0 1 1.67 1.3 1.48 1.48 0 0 1-1.3 1.67 6.36 6.36 0 0 0-2.48.86 7.78 7.78 0 0 1 4.95.63 1.5 1.5 0 0 1 .7 2zm15.05-2.5 2.5 5a1.02 1.02 0 0 1-.39 1.32l-3.27 1.86-2.3 4.18a12.44 12.44 0 0 1-4.5 8.25 1.5 1.5 0 0 1-2.1-.2 1.5 1.5 0 0 1 .2-2.12 10.06 10.06 0 0 0 1.83-2 9.4 9.4 0 0 1-4.17 1.58c-.06.02-.13.02-.19.02a1.5 1.5 0 0 1-1.48-1.32 1.48 1.48 0 0 1 1.3-1.67 6.36 6.36 0 0 0 2.48-.86c-.5.11-1.02.16-1.55.16a7.78 7.78 0 0 1-3.4-.78 1.5 1.5 0 0 1-.7-2.02 1.5 1.5 0 0 1 2-.68 4.6 4.6 0 0 0 3.64.22H23a5.03 5.03 0 0 1-4.51-2.85 1.5 1.5 0 0 1 .71-2 1.34 1.34 0 0 1 .61-.14c-.22 0-.42-.05-.6-.14a1.5 1.5 0 0 1-.72-2A5.03 5.03 0 0 1 23 8h.11l.66.06 4.54.42 3.74-1.87a1 1 0 0 1 1.34.44z"/></svg>