<svg xmlns="http://www.w3.org/2000/svg" viewBox="0 0 28 28" id="icon"><path d="M15 4c0-.55-.45-1-1-1s-1 .45-1 1 .45 1 1 1 1-.45 1-1zm13 14.5V24a.51.51 0 0 1-.31.47.77.77 0 0 1-.19.03.55.55 0 0 1-.36-.14L25.7 22.9c-2.46 2.95-6.86 4.84-11.69 4.84s-9.23-1.9-11.69-4.84L.86 24.36a.52.52 0 0 1-.36.14l-.19-.03A.51.51 0 0 1 0 24v-5.5c0-.28.22-.5.5-.5H6c.2 0 .4.13.47.31s.03.4-.11.55L4.8 20.42c1.4 1.9 4.1 3.27 7.2 3.69v-10.1H9a1 1 0 0 1-1-1v-2a1 1 0 0 1 1-1h3V7.44A3.99 3.99 0 0 1 10 4a4 4 0 0 1 8 0 3.98 3.98 0 0 1-2 3.45V10h3a1 1 0 0 1 1 1v2a1 1 0 0 1-1 1h-3v10.11c3.1-.42 5.8-1.8 7.2-3.69l-1.56-1.56c-.14-.16-.19-.36-.1-.55S21.8 18 22 18h5.5c.28 0 .5.22.5.5z"/></svg>