<svg xmlns="http://www.w3.org/2000/svg" viewBox="0 0 22 28"><path d="M7.7 7.55a.61.61 0 0 0 0-1.22c-.32 0-.6.28-.6.6s.28.62.6.62zm6.6 0c.32 0 .6-.28.6-.61s-.28-.61-.6-.61a.61.61 0 0 0 0 1.22zM1.6 10.42a1.6 1.6 0 0 1 1.6 1.6v6.72c0 .89-.7 1.6-1.6 1.6S0 19.63 0 18.74v-6.72c0-.88.72-1.6 1.6-1.6zm16.57.3v10.4a1.7 1.7 0 0 1-1.7 1.72H15.3v3.55a1.6 1.6 0 1 1-3.22 0v-3.55H9.92v3.55c0 .9-.72 1.61-1.6 1.61a1.6 1.6 0 0 1-1.6-1.6l-.02-3.56H5.55a1.71 1.71 0 0 1-1.72-1.72v-10.4h14.34zm-3.62-6.33a6.53 6.53 0 0 1 3.67 5.77H3.77a6.52 6.52 0 0 1 3.68-5.77l-1.1-2.05a.23.23 0 0 1 .07-.3.24.24 0 0 1 .32.08L7.86 4.2a7.74 7.74 0 0 1 6.28 0l1.13-2.07c.06-.1.2-.14.31-.09a.23.23 0 0 1 .08.31zM22 12.02v6.72c0 .89-.72 1.6-1.6 1.6a1.6 1.6 0 0 1-1.6-1.6v-6.72a1.59 1.59 0 0 1 1.6-1.6c.88 0 1.6.7 1.6 1.6z"/></svg>