<svg xmlns="http://www.w3.org/2000/svg" viewBox="0 0 20 28"><path d="m14.9 5.9-1.79 5.13 1.83.33c.47-1.28 2.58-7.05 2.58-8.1 0-.39-.13-.87-.6-.87-.87 0-1.81 2.84-2.03 3.52zm-4.68 10.74c.17.45.36.9.52 1.38a7.01 7.01 0 0 1 1.1-1.05c-.54-.11-1.09-.16-1.62-.33zm-4.56-14c0 1.6 1.89 6.56 2.48 8.14.22-.12.5-.15.77-.15.37 0 .8.04 1.17.07l-1.9-5.48c-.2-.6-1.1-3.44-1.92-3.44-.42 0-.6.5-.6.86zM4.42 14.5c0 1.14 3.06 5.34 4.2 5.34.32 0 .58-.34.58-.62 0-.36-.36-1.25-.5-1.6-.4-1.04-1.89-4.28-3.17-4.28-.42 0-1.1.74-1.1 1.16zm-2.47 5.23c0 .57.19 1.11.4 1.63a7.63 7.63 0 0 0 7.26 4.83c2.38 0 4.38-.9 5.97-2.66a9.66 9.66 0 0 0 2.37-6.67c0-.88.02-2.27-.67-2.9-1.31-1.15-5.76-1.59-7.53-1.59-.22 0-.6.02-.76.18-.2.07-.2.37-.2.54 0 2.4 5.06 2.18 6.57 2.18.3 0 .44.07.63.3.2.24.26.54.3.85-.41.4-.98.64-1.5.85a5.5 5.5 0 0 0-1.46.71c-1.2.88-2.4 2.38-2.4 3.93 0 .97.59 1.8.59 2.75 0 .01-.11.36-.11.4-1.78-.12-2.22-1.89-2.28-3.37-.19.04-.44.03-.64.03.03.1.03.22.03.33 0 1.14-1.02 1.97-2.11 1.97-1.69 0-3.92-1.99-3.92-3.7 0-.48.2-.74.51-1.05.32.39.64.78.94 1.18.45.61 1.23 1.63 2.08 1.63.22 0 .64-.19.64-.45 0-.7-2.56-4-3.19-4-.98 0-1.51 1.3-1.51 2.1zm-1.78.15c0-2.04.78-3.38 2.8-3.93-.17-.45-.44-1.14-.44-1.62 0-1.28 1.58-2.88 2.86-2.88.38 0 .75.11 1.1.24-.66-1.86-2.55-7.1-2.55-8.86 0-1.58.8-2.83 2.5-2.83 2.18 0 4.67 7.88 5.2 9.44.69-1.72 2.84-8.92 5.28-8.92 1.53 0 2.4 1.22 2.4 2.67 0 1.65-1.85 6.81-2.5 8.6 2.63.63 3 2.76 3 5.12 0 6.25-3.98 11.1-10.43 11.1a9.9 9.9 0 0 1-3.48-.67C2.94 26.22.17 23.17.17 19.88z"/></svg>