<svg xmlns="http://www.w3.org/2000/svg" viewBox="0 0 18 28" id="icon"><path d="M16.8 20.5a.54.54 0 0 1-.16.36l-.78.78a.5.5 0 0 1-.36.16.54.54 0 0 1-.36-.16L9 15.5l-6.14 6.14c-.1.1-.23.16-.36.16s-.27-.07-.36-.16l-.78-.78c-.1-.1-.16-.23-.16-.36s.07-.27.16-.36l7.28-7.28c.1-.1.24-.16.36-.16s.27.07.36.16l7.28 7.28a.54.54 0 0 1 .16.36zm0-6a.54.54 0 0 1-.16.36l-.78.78a.5.5 0 0 1-.36.16.54.54 0 0 1-.36-.16L9 9.5l-6.14 6.14c-.1.1-.23.16-.36.16s-.27-.07-.36-.16l-.78-.78c-.1-.1-.16-.23-.16-.36s.07-.27.16-.36l7.28-7.28c.1-.1.24-.16.36-.16s.27.07.36.16l7.28 7.28a.54.54 0 0 1 .16.36z"/></svg>