<svg xmlns="http://www.w3.org/2000/svg" viewBox="0 0 18 28"><path d="M16.8 13.5a.54.54 0 0 1-.16.36l-7.28 7.28c-.1.1-.23.16-.36.16s-.27-.07-.36-.16l-7.28-7.28c-.1-.1-.16-.23-.16-.36s.07-.27.16-.36l.78-.78a.5.5 0 0 1 .36-.16.54.54 0 0 1 .36.16L9 18.5l6.14-6.14c.1-.1.24-.16.36-.16s.27.07.36.16l.78.78a.54.54 0 0 1 .16.36zm0-6a.54.54 0 0 1-.16.36l-7.28 7.28c-.1.1-.23.16-.36.16s-.27-.07-.36-.16L1.36 7.86c-.1-.1-.16-.24-.16-.36s.07-.27.16-.36l.78-.78a.5.5 0 0 1 .36-.16.54.54 0 0 1 .36.16L9 12.5l6.14-6.14c.1-.1.24-.16.36-.16s.27.07.36.16l.78.78a.54.54 0 0 1 .16.36z"/></svg>