<svg xmlns="http://www.w3.org/2000/svg" viewBox="0 0 22 28" id="icon"><path d="M21.77 18.98a15.55 15.55 0 0 1-1.93 3.91c-1.34 2.05-2.68 3.06-4.01 3.06a7.2 7.2 0 0 1-2.19-.5 6.94 6.94 0 0 0-2.36-.5c-.62 0-1.37.18-2.22.52A5.7 5.7 0 0 1 7 26c-1.61 0-3.16-1.36-4.7-4.05A15.97 15.97 0 0 1 0 14.1c0-2.39.6-4.32 1.77-5.84A5.4 5.4 0 0 1 6.2 6c.77 0 1.68.16 2.77.47 1.08.31 1.8.47 2.16.47.45 0 1.2-.17 2.23-.53a8.81 8.81 0 0 1 2.7-.53 5.7 5.7 0 0 1 3.33 1.01c.55.38 1.1.9 1.63 1.57a9.99 9.99 0 0 0-1.79 1.84 5.97 5.97 0 0 0 .06 6.72 4.78 4.78 0 0 0 2.48 1.97zM15.89.66A6.42 6.42 0 0 1 14 4.94a4.5 4.5 0 0 1-1.7 1.12c-.35.11-.88.2-1.62.27.03-1.55.44-2.9 1.22-4.02S14 .42 15.8 0l.09.34.01.32z"/></svg>