<svg xmlns="http://www.w3.org/2000/svg" viewBox="0 0 24 28"><path d="m22.8 3-.43.83H.73L.36 3 11.56.05zm-.46 1.67v2.19H.78V4.67h21.56zm-2.7 12.42c-.05-1.01-.06-1.93-.05-2.78 0-.39.02-.95.05-1.68l.05-1.43.08-1.62.07-1.67c0-.02.02-.05.02-.11v-.16a5.02 5.02 0 0 1 2.16 0c.32 5.08.32 9.85 0 14.32a3.65 3.65 0 0 1-1.93.01l-.17-.03c-.02 0-.05-.03-.05-.05l-.01-.14a90.4 90.4 0 0 1-.16-2.58zM1.25 18.23c-.02-.14-.02-.34-.02-.59l-.01-.33-.02-.34-.01-.9v-3.42c.03-.59.04-1.06.04-1.37l.05-1.1c.02-.12.02-.24.02-.42l.01-.26.02-.28.01-.19c0-.19 0-.34.02-.44 0-.17.02-.31.03-.42 0-.17 0-.3.02-.37 0-.07.03-.1.1-.11a3.17 3.17 0 0 1 1.5-.13c.18.03.35.08.5.14.04 0 .05.03.05.1a61.54 61.54 0 0 1 .14 2.92l.04 1.37.01 1.33c0 .6.02 1.03.03 1.31a302.73 302.73 0 0 0-.06 3.22 114.4 114.4 0 0 1-.16 3.97c0 .05-.03.08-.1.1-.43.14-.91.17-1.46.12l-.28-.08L1.5 22c-.06 0-.1-.02-.1-.07l-.01-.4-.02-.22-.01-.2c0-.15 0-.24-.02-.32l-.01-.37V20a1.72 1.72 0 0 1-.04-.39l-.01-.39c0-.26-.02-.46-.03-.62v-.38zm6 1.79v-.4l-.02-.39-.01-.62a1.93 1.93 0 0 1-.03-.38c0-.25 0-.45-.02-.59v-.67c-.01-.2-.03-.5-.03-.9v-.45l-.02-.42v-1.6c0-.41 0-.73.02-.95 0-.28.02-.75.05-1.37 0-.27.01-.63.04-1.1 0-.18 0-.32.02-.42 0-.23.02-.42.03-.54v-.19l.02-.23v-.2l.03-.2.01-.23.03-.37c0-.07.02-.1.08-.11a3.21 3.21 0 0 1 1.5-.13c.18.03.35.08.5.14.07 0 .1.04.1.1l.05 1.5.06 2.78c.03 1.22.05 2.11.05 2.65l-.02 1.62a114.4 114.4 0 0 1-.19 5.56c0 .05-.02.08-.1.1a3.05 3.05 0 0 1-1.61.09l-.2-.06a.84.84 0 0 1-.16-.06c-.03 0-.05-.02-.05-.07l-.01-.4a2.87 2.87 0 0 1-.03-.42.72.72 0 0 1-.05-.32zm9.1-11.04.06 1.79.03 1.78c.03 1.04.04 1.76.04 2.18l-.01 1.49c0 .66-.02 1.14-.03 1.47a140.06 140.06 0 0 1-.14 3.67c0 .25 0 .44-.02.56 0 .05-.03.08-.1.1-.43.14-.91.17-1.46.12-.08-.02-.19-.03-.31-.08l-.2-.08c-.05 0-.08-.01-.08-.07 0-.2 0-.49-.03-.88l-.08-.9-.03-1.15c-.01-.52-.03-.92-.05-1.2l-.03-.94-.02-.94v-1.06a46.88 46.88 0 0 1 .23-7.05c0-.06.04-.09.1-.1a3.13 3.13 0 0 1 1.48-.13c.2.03.36.08.52.14.05 0 .06.03.06.1zM.93 24.28v-1.53h21.72v1.53H.94zM0 26v-1.14h23.53V26H0z"/></svg>