<svg xmlns="http://www.w3.org/2000/svg" viewBox="0 0 24 28"><path d="M20.05 8.45 14.5 14l5.55 5.55 2.25-2.25a.98.98 0 0 1 1.1-.22 1 1 0 0 1 .6.92v7a1 1 0 0 1-1 1h-7a1 1 0 0 1-.92-.63.96.96 0 0 1 .22-1.07l2.25-2.25L12 16.5l-5.55 5.55L8.7 24.3a.96.96 0 0 1 .22 1.07A1 1 0 0 1 8 26H1a1 1 0 0 1-1-1v-7a1 1 0 0 1 .63-.92.96.96 0 0 1 1.07.22l2.25 2.25L9.5 14 3.95 8.45 1.7 10.7a1 1 0 0 1-.7.3 1 1 0 0 1-.38-.08A1 1 0 0 1 0 10V3a1 1 0 0 1 1-1h7a1 1 0 0 1 .92.63.96.96 0 0 1-.22 1.07L6.45 5.95 12 11.5l5.55-5.55L15.3 3.7A1 1 0 0 1 16 2h7a1 1 0 0 1 1 1v7c0 .4-.25.77-.6.92a1.16 1.16 0 0 1-.4.08.99.99 0 0 1-.7-.3z"/></svg>