<svg xmlns="http://www.w3.org/2000/svg" viewBox="0 0 28 28"><path d="M28 14a.99.99 0 0 1-.3.7l-4 4a1 1 0 0 1-.7.3 1 1 0 0 1-1-1v-2h-6v6h2a1 1 0 0 1 1 1 .99.99 0 0 1-.3.7l-4 4c-.18.19-.43.3-.7.3s-.52-.1-.7-.3l-4-4A1 1 0 0 1 9 23a1 1 0 0 1 1-1h2v-6H6v2a1 1 0 0 1-1 1 .99.99 0 0 1-.7-.3l-4-4c-.19-.18-.3-.43-.3-.7s.1-.52.3-.7l4-4A1 1 0 0 1 5 9a1 1 0 0 1 1 1v2h6V6h-2a1 1 0 0 1-1-1 .99.99 0 0 1 .3-.7l4-4c.18-.19.43-.3.7-.3s.52.1.7.3l4 4a1 1 0 0 1 .3.7 1 1 0 0 1-1 1h-2v6h6v-2a1 1 0 0 1 1-1 .99.99 0 0 1 .7.3l4 4a1 1 0 0 1 .3.7z"/></svg>