<svg xmlns="http://www.w3.org/2000/svg" viewBox="0 0 28 28" id="icon"><path d="M13.88.16c1.23 0 2.46.12 3.4.37a14.26 14.26 0 0 1 10.1 10.1c.5 1.87.5 4.93 0 6.8A14.25 14.25 0 0 1 17.36 27.5c-1.58.42-4.52.53-5.95.23-5.49-1.15-9.61-5-11.03-10.3a15.6 15.6 0 0 1 0-6.8A14.26 14.26 0 0 1 10.47.53c.94-.25 2.17-.37 3.4-.37zm6.84 4.6c-.34.02-.66.41-.95 1.13-.2.47-.32.95-.27 1.08s.38.25.75.31 1.08.35 1.6.63c1.15.64 1.35.67 1.17.17-.08-.2-.43-.92-.77-1.61-.58-1.16-1.08-1.72-1.53-1.7zM4.6 7.54c-.25.02-.45.16-.6.45-.24.52-.45 3.63-.23 3.55.1-.03.44-.42.8-.87s.9-1 1.25-1.22.62-.46.62-.52-.31-.4-.68-.76c-.46-.44-.85-.65-1.16-.63zm13.97 2.19a2.59 2.59 0 0 0-1.81.72c-3.13 2.95 1.03 10.45 4.89 8.8 2.12-.91 2.43-4.44.62-7.18-1.01-1.51-2.42-2.34-3.7-2.34zm-9.4 1.56c-2.02 0-4.04 2.63-3.63 6.27.34 3.07 2.7 4.75 4.76 3.39s2.82-5.05 1.57-7.6c-.7-1.43-1.7-2.06-2.7-2.06zm5.74 6.31a1.22 1.22 0 0 0-.84.33c-.47.45-.44.75.14 1.72.98 1.66 1.17 1.64 1.58.03.31-1.26.31-1.4-.07-1.78-.2-.2-.5-.3-.8-.3zm-5.37-4.01c.18.06.47.2.62.33a3.66 3.66 0 0 1 1.25 2.4c.05.53-.1 1.31-.31 1.77-.36.75-1.22 1.39-1.94 1.45-.44.03-1.1-.16-1.47-.44a3.66 3.66 0 0 1-1.25-2.4c-.01-.27 0-.7.05-.94h.13c.5 0 1.03-.4 1.18-.86.03-.1.05-.27.05-.38 0-.2-.1-.5-.2-.67a2.6 2.6 0 0 1 1.04-.37 2.61 2.61 0 0 1 .85.1zm9.54-1.97c.2 0 .52.08.7.14.74.25 1.59 1.1 1.91 1.9a4 4 0 0 1 .24 1.8 2.65 2.65 0 0 1-1.43 1.96c-.4.15-1.09.17-1.53.01a3.66 3.66 0 0 1-1.9-1.9 4.65 4.65 0 0 1-.24-.93c.55-.1.99-.64.99-1.2 0-.33-.2-.75-.45-.95.2-.25.6-.56.89-.67a2.43 2.43 0 0 1 .82-.16z"/></svg>