<svg xmlns="http://www.w3.org/2000/svg" viewBox="0 0 28 28" id="icon"><path d="M2 27c0 .55-.45 1-1 1s-1-.45-1-1 .45-1 1-1 1 .45 1 1zm3-3c0 .55-.45 1-1 1s-1-.45-1-1 .45-1 1-1 1 .45 1 1zm.7-5.7 4 4-1.4 1.4-4-4zM11 18c0 .55-.45 1-1 1s-1-.45-1-1 .45-1 1-1 1 .45 1 1zm11.05-5c0 2.6-1.22 3.98-2.28 5.22C18.78 19.34 18 20.24 18 22a6 6 0 0 1-6 6c-.55 0-1-.45-1-1s.45-1 1-1a4 4 0 0 0 4-4c0-2.52 1.2-3.9 2.25-5.1.97-1.1 1.8-2.06 1.8-3.9a7 7 0 0 0-14 0c0 .55-.46 1-1 1s-1-.45-1-1a9 9 0 0 1 18 0zM14 15c0 .55-.45 1-1 1s-1-.45-1-1 .45-1 1-1 1 .45 1 1zm4.5-2c0 .55-.45 1-1 1s-1-.45-1-1A3.5 3.5 0 0 0 13 9.5 3.5 3.5 0 0 0 9.5 13c0 .55-.45 1-1 1s-1-.45-1-1a5.5 5.5 0 0 1 11 0zm6.16-4.52a1 1 0 0 1-.58 1.3.91.91 0 0 1-.36.06.97.97 0 0 1-.92-.64 10.5 10.5 0 0 0-3.5-4.6 1 1 0 0 1-.2-1.4 1.02 1.02 0 0 1 1.4-.2 12.53 12.53 0 0 1 4.16 5.48zm3.28-1.26a1.02 1.02 0 0 1-.58 1.3.96.96 0 0 1-.36.06 1 1 0 0 1-.94-.64 13.98 13.98 0 0 0-4.64-6.14.98.98 0 0 1-.2-1.4.98.98 0 0 1 1.39-.2 15.96 15.96 0 0 1 5.33 7.02z"/></svg>