<svg xmlns="http://www.w3.org/2000/svg" viewBox="0 0 24 28"><path d="M15.19 12.1c0-2.24-1.17-3.58-3.14-3.58-2.6 0-5.38 2.57-5.38 6.75 0 2.32 1.16 3.65 3.19 3.65 3.14 0 5.33-3.6 5.33-6.81zM24 14c0 4.86-3.47 6.69-6.44 6.78l-.5.02c-.97 0-1.73-.28-2.22-.83a2.2 2.2 0 0 1-.51-1.3 6.2 6.2 0 0 1-4.77 2.4c-3.36 0-5.28-2.07-5.28-5.7 0-4.98 3.45-9.03 7.67-9.03 1.83 0 3.3.78 4.08 2.11l.03-.3.17-.87c.02-.12.13-.28.24-.28h1.84c.08 0 .16.1.2.17.05.05.07.17.05.25l-1.87 9.6a3.46 3.46 0 0 0-.08.75c0 .84.25 1.01.89 1.01 1.06-.03 4.5-.47 4.5-4.78 0-6.08-3.92-10-10-10a10 10 0 0 0 0 20 10.04 10.04 0 0 0 6.33-2.25.48.48 0 0 1 .7.06l.64.77a.53.53 0 0 1 .11.38.55.55 0 0 1-.19.34A12.02 12.02 0 0 1 0 14C0 7.4 5.4 2 12 2c7.18 0 12 4.83 12 12z"/></svg>