<svg xmlns="http://www.w3.org/2000/svg" viewBox="0 0 24 28" id="icon"><path d="M12 2.02c2.25 0 4.34.6 6.14 1.68.48.3.72.47.72.75 0 1.14-3.22 2.35-7.38 2.35-4.18 0-6.54-1.1-6.54-2.11 0-.35.3-.61.84-.94A11.9 11.9 0 0 1 12 2.02zM4.27 4.84l-.02.04a1.9 1.9 0 0 0-.48 1.23C3.77 7.23 4.66 9 9.42 9 15.92 9 20 6.64 20 5.31a.54.54 0 0 0-.08-.28 16.05 16.05 0 0 1 1.16 1.14c.6.67.83 1.03.83 1.63 0 1.67-2.6 3.56-8.43 3.56-5.46 0-11.32-1.69-11.32-4.02 0-.15.15-.43.39-.73a11.87 11.87 0 0 1 1.72-1.77zM22.75 8.7s.02 0 .02.02c.28.56.62 1.39.8 2.08.15.62.15 1.07.02 1.51-.67 2.38-4.8 3.67-10.09 3.67-8.69 0-12.4-2.5-13.14-4.06-.1-.18-.11-.31-.06-.58.1-.6.5-1.78.85-2.48.02-.02.02-.02.02 0a2.7 2.7 0 0 0-.1.7c0 2.4 3.96 4.28 8.71 4.28 4.4 0 13.08-2.01 12.97-5.12V8.7zm1.22 4.63.02.03.01.64c0 1.05-.14 2.28-.44 2.97-.4.95-2.4 3.87-11.15 3.87-6.43 0-10.14-2.17-11.63-3.71a2.32 2.32 0 0 1-.6-1.05C.05 15.52 0 14.66 0 14c0-.03.03-.03.03 0 .53 1.95 3.42 4.81 9.56 4.81 6.46 0 13.93-3.12 14.36-5.47l.02-.01zm-.81 5.04.01.04a11.16 11.16 0 0 1-.73 1.5 6.42 6.42 0 0 1-1.49 1.78c-1.93 1.6-5.18 2.4-8.14 2.4-5.6 0-10.14-1.73-11.64-4.92-.01-.03 0-.03.02-.02 1.6 2.33 5.72 3.55 9.53 3.55 5.39 0 10.6-1.65 12.42-4.31 0-.02.02-.02.02-.02zM19.9 23v.03a11.97 11.97 0 0 1-15.26.45c-.03-.01-.03-.04 0-.03 1.32.74 3.66 1.57 7.35 1.57 4.25 0 6.94-1.4 7.9-2.02z"/></svg>