<svg xmlns="http://www.w3.org/2000/svg" viewBox="0 0 36 28"><path d="M7.88 15.53h2.67l-.02-4.14zm16.03-1.55c0-1.73-1-3.01-3.08-3.01h-.85v6.06h.82c1.95 0 3.1-1.42 3.1-3.05zM14.94 8.1l.01 11.82a.52.52 0 0 1-.51.53h-3.38a.52.52 0 0 1-.51-.53v-.97H6l-.86 1.26a.54.54 0 0 1-.44.24H.53a.51.51 0 0 1-.42-.83L8.8 7.78a.5.5 0 0 1 .42-.22h5.18c.3 0 .54.24.54.53zM27.86 14c0 4.1-3 6.45-7.03 6.45H16.6a.53.53 0 0 1-.53-.53V8.09c0-.3.23-.53.53-.53h4.19c4.06 0 7.06 2.31 7.06 6.42zm2.44.01s.06 4.06-2.32 6.45h-.8c2.13-2.53 2.18-6.47 2.18-6.47s.03-3.09-2.1-6.4h.66C30.23 10.22 30.3 14 30.3 14zm2.87 0s.06 4.06-2.33 6.45h-.8c2.13-2.53 2.18-6.47 2.18-6.47s.03-3.09-2.1-6.4h.68c2.3 2.64 2.37 6.42 2.37 6.42zM36 14s.06 4.06-2.31 6.45h-.8c2.11-2.53 2.16-6.47 2.16-6.47s.03-3.09-2.1-6.4h.68C35.92 10.22 36 14 36 14z"/></svg>