<svg xmlns="http://www.w3.org/2000/svg" viewBox="0 0 32 28"><path d="M7.5 17c0-1.38-1.13-2.5-2.5-2.5S2.5 15.63 2.5 17s1.13 2.5 2.5 2.5 2.5-1.13 2.5-2.5zm.56-5h15.88l-1.4-5.58C22.5 6.25 22.2 6 22 6H10c-.19 0-.5.25-.55.42zm21.44 5c0-1.38-1.13-2.5-2.5-2.5s-2.5 1.13-2.5 2.5 1.13 2.5 2.5 2.5 2.5-1.13 2.5-2.5zm2.5-1.5v6a.5.5 0 0 1-.5.5H30v2a3 3 0 0 1-6 0v-2H8v2a3 3 0 0 1-6 0v-2H.5a.5.5 0 0 1-.5-.5v-6A3.5 3.5 0 0 1 3.5 12h.44l1.64-6.55A4.66 4.66 0 0 1 10 2h12a4.66 4.66 0 0 1 4.42 3.45L28.06 12h.44a3.5 3.5 0 0 1 3.5 3.5z"/></svg>