<svg xmlns="http://www.w3.org/2000/svg" viewBox="0 0 34 28" id="icon"><path d="m27 7-6 11h12zM7 7 1 18h12zm12.83-3A3.02 3.02 0 0 1 18 5.83V26h9.5c.28 0 .5.22.5.5v1a.5.5 0 0 1-.5.5h-21a.5.5 0 0 1-.5-.5v-1c0-.28.22-.5.5-.5H16V5.83A3.02 3.02 0 0 1 14.17 4H6.5a.5.5 0 0 1-.5-.5v-1c0-.28.22-.5.5-.5h7.67a3 3 0 0 1 5.66 0h7.67c.28 0 .5.22.5.5v1a.5.5 0 0 1-.5.5h-7.67zM17 4.25a1.25 1.25 0 0 0 0-2.5 1.25 1.25 0 0 0 0 2.5zM34 18c0 3.22-4.45 4.5-7 4.5s-7-1.28-7-4.5c0-.6 5.45-10.27 6.13-11.48.17-.32.51-.52.87-.52s.7.2.88.52C28.55 7.74 34 17.39 34 18zm-20 0c0 3.22-4.45 4.5-7 4.5S0 21.22 0 18c0-.6 5.45-10.27 6.13-11.48C6.3 6.2 6.63 6 7 6s.7.2.88.52C8.54 7.74 14 17.39 14 18z"/></svg>