<svg xmlns="http://www.w3.org/2000/svg" viewBox="0 0 28 28"><path d="M26 17v3c0 1.78-.78 3.36-2 4.47v3.03a.5.5 0 0 1-.5.5h-1a.5.5 0 0 1-.5-.5v-1.84a6.04 6.04 0 0 1-2 .34H8a6.04 6.04 0 0 1-2-.34v1.71c0 .35-.22.63-.5.63h-1c-.28 0-.5-.28-.5-.63v-2.9A6.02 6.02 0 0 1 2 20v-3h24zm-15-6.5c0 .28-.22.5-.5.5s-.5-.22-.5-.5.22-.5.5-.5.5.22.5.5zm1-1c0 .28-.22.5-.5.5s-.5-.22-.5-.5.22-.5.5-.5.5.22.5.5zm-1-1c0 .28-.22.5-.5.5s-.5-.22-.5-.5.22-.5.5-.5.5.22.5.5zm2 0c0 .28-.22.5-.5.5s-.5-.22-.5-.5.22-.5.5-.5.5.22.5.5zm-1-1c0 .28-.22.5-.5.5s-.5-.22-.5-.5.22-.5.5-.5.5.22.5.5zm-1-1c0 .28-.22.5-.5.5s-.5-.22-.5-.5.22-.5.5-.5.5.22.5.5zm17 8v1a.5.5 0 0 1-.5.5H.5a.5.5 0 0 1-.5-.5v-1c0-.28.22-.5.5-.5H2V4a4 4 0 0 1 6.88-2.78 3.04 3.04 0 0 1 2.98.42l.34-.34a.24.24 0 0 1 .35 0l.65.65a.24.24 0 0 1 0 .35L8.3 7.2a.24.24 0 0 1-.35 0l-.65-.65a.24.24 0 0 1 0-.35l.34-.34a3.02 3.02 0 0 1-.26-3.31A2 2 0 0 0 4 4v10h23.5c.28 0 .5.22.5.5zm-14-7c0 .28-.22.5-.5.5s-.5-.22-.5-.5.22-.5.5-.5.5.22.5.5zm-1-1c0 .28-.22.5-.5.5s-.5-.22-.5-.5.22-.5.5-.5.5.22.5.5zm-1-1c0 .28-.22.5-.5.5s-.5-.22-.5-.5.22-.5.5-.5.5.22.5.5zm3 1c0 .28-.22.5-.5.5s-.5-.22-.5-.5.22-.5.5-.5.5.22.5.5zm-1-1c0 .28-.22.5-.5.5s-.5-.22-.5-.5.22-.5.5-.5.5.22.5.5zm-1-1c0 .28-.22.5-.5.5s-.5-.22-.5-.5.22-.5.5-.5.5.22.5.5zm3 1c0 .28-.22.5-.5.5s-.5-.22-.5-.5.22-.5.5-.5.5.22.5.5zm-1-1c0 .28-.22.5-.5.5s-.5-.22-.5-.5.22-.5.5-.5.5.22.5.5zm2 0c0 .28-.22.5-.5.5s-.5-.22-.5-.5.22-.5.5-.5.5.22.5.5z"/></svg>