<svg xmlns="http://www.w3.org/2000/svg" viewBox="0 0 32 28" id="icon"><path d="M28.88 5.3h-7.99v1.93h7.98V5.3zm-3.94 6.65c-1.88 0-3.13 1.18-3.25 3.05h6.37c-.17-1.9-1.15-3.05-3.12-3.05zm.25 9.14c1.19 0 2.72-.64 3.1-1.85h3.45c-1.07 3.26-3.27 4.8-6.68 4.8-4.5 0-7.3-3.05-7.3-7.5 0-4.27 2.96-7.54 7.3-7.54C29.53 9 32 12.52 32 16.74c0 .25-.02.5-.03.73H21.69c0 2.28 1.2 3.62 3.5 3.62zm-20.86-.78h4.62c1.77 0 3.2-.62 3.2-2.6 0-2.02-1.2-2.82-3.1-2.82H4.33v5.42zm0-8.39h4.39c1.55 0 2.64-.67 2.64-2.34 0-1.81-1.4-2.25-2.97-2.25H4.33v4.6zM0 3.97h9.28c3.38 0 6.3.95 6.3 4.87 0 1.99-.92 3.27-2.69 4.11 2.42.7 3.6 2.52 3.6 4.99 0 4-3.37 5.72-6.94 5.72H0V3.96z"/></svg>