<svg xmlns="http://www.w3.org/2000/svg" viewBox="0 0 24 28"><path d="M19.5 2A4.5 4.5 0 0 1 24 6.5v15a4.5 4.5 0 0 1-4.5 4.5h-15A4.5 4.5 0 0 1 0 21.5v-15A4.5 4.5 0 0 1 4.5 2h15zM7.8 7.73H2v12.3h5.97c2.23 0 4.33-1.06 4.33-3.56 0-1.55-.74-2.69-2.24-3.13 1.1-.53 1.68-1.32 1.68-2.56 0-2.45-1.83-3.05-3.94-3.05zm-.35 4.97H4.7V9.83h2.55c.97 0 1.86.26 1.86 1.4 0 1.05-.69 1.47-1.66 1.47zm.14 5.24H4.7v-3.4h2.96c1.18 0 1.93.52 1.93 1.77s-.89 1.63-2 1.63zm10.16.5c-1.44 0-2.19-.85-2.19-2.27h6.42c.02-.15.02-.31.02-.47 0-2.62-1.55-4.83-4.34-4.83-2.7 0-4.57 2.05-4.57 4.72 0 2.78 1.75 4.68 4.57 4.68 2.14 0 3.51-.96 4.17-2.99h-2.16c-.23.75-1.19 1.16-1.92 1.16zm-.16-5.72c1.22 0 1.83.73 1.94 1.9h-3.97c.08-1.17.86-1.9 2.03-1.9zm-2.53-4.16h4.99v1.2h-4.99v-1.2z"/></svg>