<svg xmlns="http://www.w3.org/2000/svg" viewBox="0 0 32 28"><path d="M16.25 26.5a.25.25 0 0 0-.25-.25A2.26 2.26 0 0 1 13.75 24c0-.14-.1-.25-.25-.25s-.25.1-.25.25A2.75 2.75 0 0 0 16 26.75c.14 0 .25-.1.25-.25zm-8.4-7.42L21.57 7.2C20.78 5.56 18.96 4 16 4c-4.1 0-6 2.98-6 5 0 4-.7 7.34-2.14 10.08zM29 22a2 2 0 0 1-2 2h-7a4 4 0 0 1-8 .02L14.33 22h11.83a15.77 15.77 0 0 1-3.55-7.17l1.73-1.52c.8 4.66 2.85 7.16 4.66 8.69zM30.34.25l1.32 1.5a.53.53 0 0 1-.05.72L2.36 27.8a.5.5 0 0 1-.7-.06l-1.32-1.5c-.17-.22-.15-.53.05-.7l2.9-2.52A1.99 1.99 0 0 1 3 22c2.31-1.95 5-5.45 5-13 0-3 2.48-6.28 6.63-6.9a1.57 1.57 0 0 1-.13-.6 1.5 1.5 0 0 1 3 0c0 .22-.05.42-.13.6a7.8 7.8 0 0 1 5.74 3.76L29.64.19a.5.5 0 0 1 .7.06z"/></svg>