<svg xmlns="http://www.w3.org/2000/svg" viewBox="0 0 26 28" id="icon"><path d="M13 0a1.5 1.5 0 0 1 1.5 1.5c0 .22-.05.42-.13.6C18.52 2.73 21 6 21 9c0 7.55 2.69 11.05 5 13a2 2 0 0 1-2 2h-7a4 4 0 0 1-8 0H2a2 2 0 0 1-2-2c2.31-1.95 5-5.45 5-13 0-3 2.48-6.28 6.63-6.9a1.57 1.57 0 0 1-.13-.6A1.5 1.5 0 0 1 13 0zM4.33 1.27l1.34 1.47A7.96 7.96 0 0 0 3 9H1a10.08 10.08 0 0 1 3.33-7.73zm17.34 0A10.08 10.08 0 0 1 25 9h-2a7.97 7.97 0 0 0-2.67-6.27zM13 4C8.9 4 7 6.98 7 9c0 5.56-1.36 9.84-4.16 13h20.32C20.36 18.84 19 14.56 19 9c0-2.02-1.9-5-6-5zm-2.5 19.75a.25.25 0 0 0-.25.25A2.75 2.75 0 0 0 13 26.75c.14 0 .25-.1.25-.25s-.1-.25-.25-.25A2.26 2.26 0 0 1 10.75 24a.25.25 0 0 0-.25-.25z"/></svg>