<svg xmlns="http://www.w3.org/2000/svg" viewBox="0 0 36 28"><path d="M11.9 18H7a1 1 0 0 1-.8-1.6l2.94-3.92A5.01 5.01 0 0 0 2 17c0 2.75 2.25 5 5 5a5.01 5.01 0 0 0 4.9-4zM9 16h2.9a5 5 0 0 0-1.17-2.31zm7.5 0 4.5-6h-7.5l-1.55 2.06A6.88 6.88 0 0 1 13.92 16h2.58zM34 17a5.01 5.01 0 0 0-6.9-4.63l2.73 4.07a1 1 0 0 1-.27 1.39.95.95 0 0 1-.56.17.97.97 0 0 1-.83-.45l-2.72-4.07A5.01 5.01 0 0 0 29 22c2.75 0 5-2.25 5-5zm2 0a7 7 0 0 1-14 0 7 7 0 0 1 2.33-5.2l-1.02-1.53-5.51 7.32a.96.96 0 0 1-.8.41h-3.08a7 7 0 1 1-3.56-7.14L12.5 8H9c-.55 0-1-.45-1-1s.45-1 1-1h6v2h6.8l-1.33-2H17c-.55 0-1-.45-1-1s.45-1 1-1h4c.33 0 .64.17.83.44L26 10.69A7 7 0 0 1 36 17z"/></svg>