<svg xmlns="http://www.w3.org/2000/svg" viewBox="0 0 28 28"><path d="M28 22v6H0v-6a4.2 4.2 0 0 0 2.98-1.23c.54-.47.9-.77 1.7-.77s1.13.3 1.68.77C7 21.3 7.79 22 9.34 22c1.53 0 2.33-.69 2.99-1.23.53-.47.87-.77 1.67-.77s1.15.3 1.69.77a4.2 4.2 0 0 0 5.96 0c.53-.47.9-.77 1.69-.77.78 0 1.14.3 1.67.77A4.2 4.2 0 0 0 28 22zm0-5v3c-.8 0-1.14-.3-1.69-.77-.64-.54-1.43-1.23-2.97-1.23-1.54 0-2.34.69-2.98 1.23-.55.47-.9.77-1.69.77s-1.15-.3-1.68-.77C16.35 18.7 15.55 18 14 18c-1.53 0-2.33.69-2.98 1.23-.53.47-.88.77-1.67.77s-1.16-.3-1.7-.77A4.2 4.2 0 0 0 4.68 18c-1.54 0-2.34.69-2.98 1.23-.54.47-.9.77-1.7.77v-3a3 3 0 0 1 3-3h1V7h4v7h4V7h4v7h4V7h4v7h1a3 3 0 0 1 3 3zM8 3.5C8 5.16 7.1 6 6 6s-2-.9-2-2c0-1.94 2-1.44 2-4 .75 0 2 1.84 2 3.5zm8 0c0 1.66-.9 2.5-2 2.5s-2-.9-2-2c0-1.94 2-1.44 2-4 .75 0 2 1.84 2 3.5zm8 0c0 1.66-.9 2.5-2 2.5s-2-.9-2-2c0-1.94 2-1.44 2-4 .75 0 2 1.84 2 3.5z"/></svg>