<svg xmlns="http://www.w3.org/2000/svg" viewBox="0 0 24 28"><path d="M13.25 13.6c0-.9-1.1-1.5-1.84-1.05-.9.42-.9 1.86.01 2.23.81.48 1.96-.25 1.83-1.19zm1.25-.26c.17 1.38-.9 2.72-2.28 2.85s-2.67-1-2.74-2.4a2.63 2.63 0 0 1 1.54-2.45c1.47-.65 3.28.41 3.48 2zm2.69-6.1c-.7.7-1.74.8-2.66.9-1.67.22-3.37.2-5.06 0-.92-.13-1.94-.23-2.66-.9.44-.63 1.22-.76 1.92-.87a19 19 0 0 1 6.38-.01c.75.1 1.6.23 2.08.87zm.65 11.65c0-.37.4-1.02-.14-1.17a10.63 10.63 0 0 1-11.42 0l-.19.1-.07.18c.18 1.1.36 2.2.64 3.28.64 1.11 2.01 1.48 3.18 1.69 2.22.4 4.68.28 6.7-.83 1.16-.66.98-2.14 1.3-3.25zm2.04-10.83c.06-.37.14-.83-.13-1.17a4.66 4.66 0 0 0-2.42-1.38 20.17 20.17 0 0 0-7.61-.56c-1.2.11-2.4.32-3.53.72-.85.33-1.99.77-2.13 1.77.28 2.34.74 4.64 1.13 6.97.12.65.12 1.43.72 1.9a8.84 8.84 0 0 0 4.43 1.57c2.32.25 4.77.07 6.88-.99.6-.31 1.28-.72 1.4-1.44a362.44 362.44 0 0 0 1.26-7.39zM24 6.5v15a4.5 4.5 0 0 1-4.5 4.5h-15A4.5 4.5 0 0 1 0 21.5v-15A4.5 4.5 0 0 1 4.5 2h15A4.5 4.5 0 0 1 24 6.5z"/></svg>