<svg xmlns="http://www.w3.org/2000/svg" viewBox="0 0 22 28" id="icon"><path d="M12.73 13.42c.18 1.31-1.42 2.35-2.53 1.67-1.25-.54-1.25-2.53-.03-3.09 1.05-.64 2.56.2 2.56 1.42zm1.74-.33c-.28-2.21-2.8-3.68-4.85-2.76a3.61 3.61 0 0 0-2.1 3.4c.07 1.91 1.89 3.47 3.8 3.3S14.7 15 14.46 13.1zm3.73-8.46c-.68-.91-1.86-1.07-2.89-1.24a26.68 26.68 0 0 0-8.84.03c-.97.16-2.06.33-2.67 1.2 1 .94 2.42 1.08 3.7 1.24 2.31.3 4.69.31 7 .02 1.3-.16 2.73-.29 3.7-1.25zm.9 16.17c-.44 1.53-.2 3.6-1.82 4.48-2.8 1.55-6.19 1.72-9.26 1.17-1.63-.3-3.54-.8-4.43-2.34-.39-1.5-.64-3.03-.89-4.56l.1-.25.28-.14a14.75 14.75 0 0 0 15.84 0c.74.22.19 1.1.17 1.64zm2.82-15.02c-.53 3.42-1.14 6.83-1.73 10.24-.17 1-1.14 1.56-1.95 1.98-2.93 1.47-6.33 1.72-9.54 1.37-2.17-.23-4.39-.8-6.15-2.17-.83-.64-.83-1.73-.99-2.65C1.02 11.35.4 8.14 0 4.9c.2-1.4 1.77-2 2.94-2.45a19.3 19.3 0 0 1 4.89-1c3.53-.34 7.14-.22 10.56.78 1.22.36 2.53.86 3.36 1.9.38.5.25 1.1.17 1.65z"/></svg>