<svg xmlns="http://www.w3.org/2000/svg" viewBox="0 0 21 28" id="icon"><path d="M18.23 10c.2 2.08-.67 3.33-2.04 4.03 2.28.55 3.72 1.9 3.43 4.95-.35 3.8-3.17 4.82-7.2 5.03V28h-2.4v-3.92c-.61 0-1.25 0-1.91-.02V28H5.7v-4H.87l.49-2.86c1.76.03 1.73 0 1.73 0 .68 0 .86-.48.9-.8v-6.28h.26L4 14.05V9.56c-.1-.5-.4-1.06-1.4-1.06 0 0 .04-.03-1.73 0V5.94l3.32.01 1.51-.01V2h2.4v3.86a76.97 76.97 0 0 1 1.92-.03V2h2.4v3.94c3.1.26 5.55 1.22 5.81 4.06zm-3.35 8.52c0-3.1-5.1-2.65-6.72-2.65v5.29c1.62 0 6.72.34 6.72-2.65zm-1.11-7.44c0-2.83-4.25-2.4-5.61-2.4v4.79c1.36 0 5.6.31 5.6-2.4z"/></svg>