<svg xmlns="http://www.w3.org/2000/svg" viewBox="0 0 22 28" id="icon"><path d="M5.72 4.86a2.44 2.44 0 0 1-2.44-2.44 2.43 2.43 0 0 1 4.86 0 2.43 2.43 0 0 1-2.42 2.44zm8.6 10.03c0 1.69-1.79 1.31-2.2.63L6.4 8.67c-.25-.4-.44-.22-.44-.22s-.1.13.07.33l1.9 2.17.02 5.53c-1.35 3.91-2.52 7.15-2.52 7.15-.73 2.09-1.34 3.9-1.87 4.15-.64.33-1.11.25-1.61.02-.66-.3-.85-1.1-.8-1.57 0 0 .03-.25 3.08-9.65l.08-6.5-1.33 2.56.55 3.47c.2 1.31-.91 1.48-.91 1.48-1.06.17-1.28-1.06-1.28-1.1L.6 11.84l3.3-5.96c.25-.37.8-.53 1.76-.53.85 0 1.38.25 1.68.63l6.62 8.14a.74.74 0 0 1 .22.27l.05.04-.02.02a.93.93 0 0 1 .1.45zm-6.29 2.34c1.5 3.99 2.84 7 2.84 7 .46 1.16 1.24 2.82.1 3.47a1.59 1.59 0 0 1-2.28-.64h-.02c-.05-.12-.1-.25-.12-.39L6.6 21.2zm12.88 9.25c.32.52.6.9.43 1-.3.2-.39-.35-.72-.89 0 0-1.76-2.67-6.6-10.32.09.03.26-.11.26-.11s.17-.14.17-.27c4.82 7.86 6.46 10.6 6.46 10.6z"/></svg>