<svg xmlns="http://www.w3.org/2000/svg" viewBox="0 0 28 28"><path d="M21.47.17c1.89 0 2.84.02 3.6.35a4.8 4.8 0 0 1 2.16 2.15c.33.77.35 1.72.35 3.61v15.36c0 1.9-.02 2.84-.35 3.6a4.8 4.8 0 0 1-2.15 2.17c-.77.32-1.72.34-3.61.34H6.1c-1.9 0-2.84-.02-3.6-.34a4.8 4.8 0 0 1-2.17-2.16C.02 24.48 0 23.53 0 21.64V6.28c0-1.89.02-2.84.34-3.6A4.8 4.8 0 0 1 2.5.51C3.22.19 4.22.17 6.11.17h15.36zm-3.28 15.7a2.5 2.5 0 1 0 .02 5 2.5 2.5 0 0 0-.02-5zm-8.8 0a2.51 2.51 0 0 0-2.5 2.5 2.5 2.5 0 0 0 4.99 0 2.5 2.5 0 0 0-2.49-2.5zm8.8-8.8a2.5 2.5 0 1 0 .02 4.98 2.5 2.5 0 0 0-.02-4.99zm-8.8 0a2.49 2.49 0 1 0-.02 4.99 2.49 2.49 0 0 0 .02-5z"/></svg>