<svg xmlns="http://www.w3.org/2000/svg" viewBox="0 0 22 28"><path d="M8.67 23.77c.69.3 1.44.5 2.19.5 3.56 0 5.88-1.43 5.88-5.24 0-.97-.13-1.98-.65-2.81-1.45-2.34-3.54-2.47-6.06-2.47-.47 0-1.14 0-1.58.16l-.01 4.95c0 1.08-.14 4 .23 4.9zM8.45 12.1c.57.1 1.14.1 1.7.1 3.23 0 5.52-.9 5.52-4.5 0-3.06-2.7-4.1-5.31-4.1-.69 0-1.36.1-2.03.2 0 1.58.12 3.16.12 4.73l-.01 2.49.01 1.08zM0 26l.03-1.47c1-.25 2.02-.27 2.98-.67.55-.92.47-2.55.47-3.6 0-.34.04-15.28-.34-16.01C2.91 3.8.61 3.69.09 3.62l-.06-1.3C3.75 2.27 7.47 2 11.17 2h2.13c3.53 0 7.42 1.7 7.42 5.75 0 2.8-2.13 3.85-4.33 4.85 2.97.67 5.6 2.69 5.6 5.97 0 5.37-4.88 7.15-9.46 7.15-1.37 0-2.75-.09-4.12-.09-2.8 0-5.63.25-8.41.36z"/></svg>