<svg xmlns="http://www.w3.org/2000/svg" viewBox="0 0 28 28"><path d="M8.92 9.2a.99.99 0 0 0-1.3-.54 9.02 9.02 0 0 0-4.96 4.96.99.99 0 0 0 .54 1.3c.13.05.25.08.38.08.4 0 .76-.23.94-.63a6.98 6.98 0 0 1 3.86-3.85 1 1 0 0 0 .54-1.32zm14.72-5.56.72.72-3.81 3.8 1.06 1.06a1 1 0 0 1 0 1.42l-1 1a11 11 0 1 1-4.25-4.25l1-1a1 1 0 0 1 1.42 0l1.06 1.06zm.13-.87a.5.5 0 0 1-.35.15.5.5 0 0 1-.36-.15l-1.42-1.41a.53.53 0 0 1 0-.72.53.53 0 0 1 .72 0l1.4 1.42a.48.48 0 0 1 0 .7zm3.59 3.59c-.11.1-.24.14-.36.14s-.25-.05-.36-.14l-1.4-1.42a.48.48 0 0 1 0-.7.48.48 0 0 1 .7 0l1.42 1.4a.53.53 0 0 1 0 .72zM28 3.5a.5.5 0 0 1-.5.5H26c-.28 0-.5-.22-.5-.5s.22-.5.5-.5h1.5c.28 0 .5.22.5.5zm-3-3V2c0 .28-.22.5-.5.5S24 2.28 24 2V.5c0-.28.22-.5.5-.5s.5.22.5.5zm2.36.86-1.42 1.4a.5.5 0 0 1-.35.16.5.5 0 0 1-.36-.16.48.48 0 0 1 0-.7L26.64.64a.53.53 0 0 1 .72 0 .53.53 0 0 1 0 .72z"/></svg>