<svg xmlns="http://www.w3.org/2000/svg" viewBox="0 0 34 28"><path d="M3 18.5C1.62 18.5.5 19.63.5 21s1.13 2.5 2.5 2.5 2.5-1.13 2.5-2.5-1.13-2.5-2.5-2.5zm8 0c-1.38 0-2.5 1.13-2.5 2.5s1.13 2.5 2.5 2.5 2.5-1.13 2.5-2.5-1.13-2.5-2.5-2.5zm0-8c-1.38 0-2.5 1.13-2.5 2.5s1.13 2.5 2.5 2.5 2.5-1.13 2.5-2.5-1.13-2.5-2.5-2.5zm12 8c-1.38 0-2.5 1.13-2.5 2.5s1.13 2.5 2.5 2.5 2.5-1.13 2.5-2.5-1.13-2.5-2.5-2.5zm8 0c-1.38 0-2.5 1.13-2.5 2.5s1.13 2.5 2.5 2.5 2.5-1.13 2.5-2.5-1.13-2.5-2.5-2.5zm-8-8c-1.38 0-2.5 1.13-2.5 2.5s1.13 2.5 2.5 2.5 2.5-1.13 2.5-2.5-1.13-2.5-2.5-2.5zm8 0c-1.38 0-2.5 1.13-2.5 2.5s1.13 2.5 2.5 2.5 2.5-1.13 2.5-2.5-1.13-2.5-2.5-2.5zm0-8c-1.38 0-2.5 1.13-2.5 2.5s1.13 2.5 2.5 2.5 2.5-1.13 2.5-2.5-1.13-2.5-2.5-2.5zM6 21a3 3 0 0 1-6 0 3 3 0 0 1 6 0zm8 0a3 3 0 0 1-6 0 3 3 0 0 1 6 0zm-8-8a3 3 0 0 1-6 0 3 3 0 0 1 6 0zm8 0a3 3 0 0 1-6 0 3 3 0 0 1 6 0zM6 5a3 3 0 0 1-6 0 3 3 0 0 1 6 0zm20 16a3 3 0 0 1-6 0 3 3 0 0 1 6 0zM14 5a3 3 0 0 1-6 0 3 3 0 0 1 6 0zm20 16a3 3 0 0 1-6 0 3 3 0 0 1 6 0zm-8-8a3 3 0 0 1-6 0 3 3 0 0 1 6 0zm8 0a3 3 0 0 1-6 0 3 3 0 0 1 6 0zm-8-8a3 3 0 0 1-6 0 3 3 0 0 1 6 0zm8 0a3 3 0 0 1-6 0 3 3 0 0 1 6 0z"/></svg>