<svg xmlns="http://www.w3.org/2000/svg" viewBox="0 0 26 28"><path d="M25.5 15a1 1 0 0 1-1 1H21c0 1.95-.42 3.42-1.05 4.53l3.25 3.27a.99.99 0 0 1 0 1.4c-.18.2-.45.3-.7.3s-.52-.1-.7-.3l-3.1-3.08S16.66 24 14 24V10h-2v14a7.66 7.66 0 0 1-4.9-2.06l-2.85 3.23a1.03 1.03 0 0 1-1.42.08c-.4-.38-.44-1-.08-1.42l3.16-3.55A9.32 9.32 0 0 1 5 16H1.5c-.55 0-1-.45-1-1s.45-1 1-1H5V9.4L2.3 6.7c-.4-.39-.4-1.01 0-1.4s1.01-.4 1.4 0L6.4 8h13.2l2.7-2.7c.39-.4 1.01-.4 1.4 0s.4 1.01 0 1.4L21 9.4V14h3.5a1 1 0 0 1 1 1zM18 6H8a5 5 0 1 1 10 0z"/></svg>