<svg xmlns="http://www.w3.org/2000/svg" viewBox="0 0 22 28"><path d="M21 0a1 1 0 0 1 1 1v26a1 1 0 0 1-1 1H1a1 1 0 0 1-1-1V1a1 1 0 0 1 1-1h20zM8 4.5v1c0 .28.22.5.5.5h1a.5.5 0 0 0 .5-.5v-1a.5.5 0 0 0-.5-.5h-1a.5.5 0 0 0-.5.5zm0 4v1c0 .28.22.5.5.5h1a.5.5 0 0 0 .5-.5v-1a.5.5 0 0 0-.5-.5h-1a.5.5 0 0 0-.5.5zm0 4v1c0 .28.22.5.5.5h1a.5.5 0 0 0 .5-.5v-1a.5.5 0 0 0-.5-.5h-1a.5.5 0 0 0-.5.5zm0 4v1c0 .28.22.5.5.5h1a.5.5 0 0 0 .5-.5v-1a.5.5 0 0 0-.5-.5h-1a.5.5 0 0 0-.5.5zm-2 5v-1a.5.5 0 0 0-.5-.5h-1a.5.5 0 0 0-.5.5v1c0 .28.22.5.5.5h1a.5.5 0 0 0 .5-.5zm0-4v-1a.5.5 0 0 0-.5-.5h-1a.5.5 0 0 0-.5.5v1c0 .28.22.5.5.5h1a.5.5 0 0 0 .5-.5zm0-4v-1a.5.5 0 0 0-.5-.5h-1a.5.5 0 0 0-.5.5v1c0 .28.22.5.5.5h1a.5.5 0 0 0 .5-.5zm0-4v-1a.5.5 0 0 0-.5-.5h-1a.5.5 0 0 0-.5.5v1c0 .28.22.5.5.5h1a.5.5 0 0 0 .5-.5zm0-4v-1a.5.5 0 0 0-.5-.5h-1a.5.5 0 0 0-.5.5v1c0 .28.22.5.5.5h1a.5.5 0 0 0 .5-.5zm8 20v-3a.5.5 0 0 0-.5-.5h-5a.5.5 0 0 0-.5.5v3c0 .28.22.5.5.5h5a.5.5 0 0 0 .5-.5zm0-8v-1a.5.5 0 0 0-.5-.5h-1a.5.5 0 0 0-.5.5v1c0 .28.22.5.5.5h1a.5.5 0 0 0 .5-.5zm0-4v-1a.5.5 0 0 0-.5-.5h-1a.5.5 0 0 0-.5.5v1c0 .28.22.5.5.5h1a.5.5 0 0 0 .5-.5zm0-4v-1a.5.5 0 0 0-.5-.5h-1a.5.5 0 0 0-.5.5v1c0 .28.22.5.5.5h1a.5.5 0 0 0 .5-.5zm0-4v-1a.5.5 0 0 0-.5-.5h-1a.5.5 0 0 0-.5.5v1c0 .28.22.5.5.5h1a.5.5 0 0 0 .5-.5zm4 16v-1a.5.5 0 0 0-.5-.5h-1a.5.5 0 0 0-.5.5v1c0 .28.22.5.5.5h1a.5.5 0 0 0 .5-.5zm0-4v-1a.5.5 0 0 0-.5-.5h-1a.5.5 0 0 0-.5.5v1c0 .28.22.5.5.5h1a.5.5 0 0 0 .5-.5zm0-4v-1a.5.5 0 0 0-.5-.5h-1a.5.5 0 0 0-.5.5v1c0 .28.22.5.5.5h1a.5.5 0 0 0 .5-.5zm0-4v-1a.5.5 0 0 0-.5-.5h-1a.5.5 0 0 0-.5.5v1c0 .28.22.5.5.5h1a.5.5 0 0 0 .5-.5zm0-4v-1a.5.5 0 0 0-.5-.5h-1a.5.5 0 0 0-.5.5v1c0 .28.22.5.5.5h1a.5.5 0 0 0 .5-.5z"/></svg>