<svg xmlns="http://www.w3.org/2000/svg" viewBox="0 0 22 28" id="icon"><path d="M6 20.5v1a.5.5 0 0 1-.5.5h-1a.51.51 0 0 1-.5-.5v-1c0-.27.23-.5.5-.5h1c.27 0 .5.23.5.5zm0-4v1a.5.5 0 0 1-.5.5h-1a.51.51 0 0 1-.5-.5v-1c0-.27.23-.5.5-.5h1c.27 0 .5.23.5.5zm4 0v1a.5.5 0 0 1-.5.5h-1a.51.51 0 0 1-.5-.5v-1c0-.27.23-.5.5-.5h1c.27 0 .5.23.5.5zm-4-4v1a.5.5 0 0 1-.5.5h-1a.51.51 0 0 1-.5-.5v-1c0-.27.23-.5.5-.5h1c.27 0 .5.23.5.5zm12 8v1a.5.5 0 0 1-.5.5h-1a.51.51 0 0 1-.5-.5v-1c0-.27.23-.5.5-.5h1c.27 0 .5.23.5.5zm-4-4v1a.5.5 0 0 1-.5.5h-1a.51.51 0 0 1-.5-.5v-1c0-.27.23-.5.5-.5h1c.27 0 .5.23.5.5zm-4-4v1a.5.5 0 0 1-.5.5h-1a.51.51 0 0 1-.5-.5v-1c0-.27.23-.5.5-.5h1c.27 0 .5.23.5.5zm-4-4v1a.5.5 0 0 1-.5.5h-1a.51.51 0 0 1-.5-.5v-1c0-.27.23-.5.5-.5h1c.27 0 .5.23.5.5zm12 8v1a.5.5 0 0 1-.5.5h-1a.51.51 0 0 1-.5-.5v-1c0-.27.23-.5.5-.5h1c.27 0 .5.23.5.5zm-4-4v1a.5.5 0 0 1-.5.5h-1a.51.51 0 0 1-.5-.5v-1c0-.27.23-.5.5-.5h1c.27 0 .5.23.5.5zm-4-4v1a.5.5 0 0 1-.5.5h-1a.51.51 0 0 1-.5-.5v-1c0-.27.23-.5.5-.5h1c.27 0 .5.23.5.5zm-4-4v1a.5.5 0 0 1-.5.5h-1a.51.51 0 0 1-.5-.5v-1c0-.27.23-.5.5-.5h1c.27 0 .5.23.5.5zm12 8v1a.5.5 0 0 1-.5.5h-1a.51.51 0 0 1-.5-.5v-1c0-.27.23-.5.5-.5h1c.27 0 .5.23.5.5zm-4-4v1a.5.5 0 0 1-.5.5h-1a.51.51 0 0 1-.5-.5v-1c0-.27.23-.5.5-.5h1c.27 0 .5.23.5.5zm-4-4v1a.5.5 0 0 1-.5.5h-1a.51.51 0 0 1-.5-.5v-1c0-.27.23-.5.5-.5h1c.27 0 .5.23.5.5zm8 4v1a.5.5 0 0 1-.5.5h-1a.51.51 0 0 1-.5-.5v-1c0-.27.23-.5.5-.5h1c.27 0 .5.23.5.5zm-4-4v1a.5.5 0 0 1-.5.5h-1a.51.51 0 0 1-.5-.5v-1c0-.27.23-.5.5-.5h1c.27 0 .5.23.5.5zm4 0v1a.5.5 0 0 1-.5.5h-1a.51.51 0 0 1-.5-.5v-1c0-.27.23-.5.5-.5h1c.27 0 .5.23.5.5zM14 26h6V2H2v24h6v-3.5c0-.27.23-.5.5-.5h5c.27 0 .5.23.5.5V26zm8-25v26a1 1 0 0 1-1 1H1a1 1 0 0 1-1-1V1a1 1 0 0 1 1-1h20a1 1 0 0 1 1 1z"/></svg>