<svg xmlns="http://www.w3.org/2000/svg" viewBox="0 0 18 28"><path d="M8.44 28a7.94 7.94 0 0 1-1.22-.14h-.1l-.8.08a7.05 7.05 0 0 1-.6.03 8.28 8.28 0 0 1-.9 0 9.24 9.24 0 0 1-4.04-.86c-.45-.27-.72-.55-.77-.88L0 26.11l.01-.13c.05-.23.18-.45.43-.65a4.8 4.8 0 0 1 1.89-.78l.06-.02s-.02-.01-.03-.05a6.79 6.79 0 0 1-.45-.89 7.26 7.26 0 0 1-.58-3.25c.06-.98.51-2.47 1.01-3.31A7.5 7.5 0 0 1 4.16 15a8.04 8.04 0 0 1 .9-.6l-.01-.02a4.3 4.3 0 0 1-.57-1.02 4.3 4.3 0 0 1-.28-1.94 4.56 4.56 0 0 1 .61-1.89c.02-.01.02-.03.02-.03l-.13-.16a13.73 13.73 0 0 1-2.13-6.56v-.72c.04-.77.2-1.35.45-1.69A.9.9 0 0 1 3.6 0a.8.8 0 0 1 .42.07c.04.01.06.04.1.06.23.1.48.3.71.58.3.34.6.82.9 1.39a14 14 0 0 1 1.05 3.03c.19.83.32 1.64.35 2.36v.15l.04-.01a4.22 4.22 0 0 1 1.18-.22h.45a4.4 4.4 0 0 1 1.67.42l.06.03.08.05s0-.02.02-.03.03-.07.04-.08a13.04 13.04 0 0 1 2.55-3.17c.97-.9 2-1.61 2.85-1.97.5-.22.92-.31 1.26-.27a.84.84 0 0 1 .49.19l.09.1c.1.12.16.26.19.45l.01.18-.01.2a5.03 5.03 0 0 1-.86 1.99 14.7 14.7 0 0 1-2.78 3.1c-.66.54-1.28.96-1.88 1.28l-.04.03.01.01a4.44 4.44 0 0 1 .4 2.3 4.25 4.25 0 0 1-.84 2.14l-.03.05.02.01.2.11c.36.22.9.63 1.2.9a7.42 7.42 0 0 1 1.76 2.5c.28.65.53 1.74.56 2.46l.01.36-.01.36a7.14 7.14 0 0 1-.24 1.52 7.48 7.48 0 0 1-.78 1.85l-.03.05.05.02.26.06c.77.2 1.36.47 1.7.78l.12.13c.09.1.17.22.22.34a.79.79 0 0 1-.05.6c-.14.3-.5.59-1.02.82-.89.4-2.25.64-3.73.69a7.98 7.98 0 0 1-.88 0c-.47-.02-.93-.03-1.37-.1l-.08-.01h-.02a7.18 7.18 0 0 1-1.53.14zm.26-1.34.24-.04a1.54 1.54 0 0 0 1.15-1.3l.02-.18c0-.08 0-.12-.02-.2A1.53 1.53 0 0 0 9 23.66a1.62 1.62 0 0 0-.9.01 1.43 1.43 0 0 0-.76.55 1.67 1.67 0 0 0-.25.6c-.07.26-.03.53.04.8.07.2.16.37.3.52l.13.13c.15.14.34.25.54.31l.36.08h.25z"/></svg>