<svg xmlns="http://www.w3.org/2000/svg" viewBox="0 0 19 28"><path d="m17.31 6.52-.01-.02-.05-.02a.12.12 0 0 0 .06.03zm.28 2h-.01zm-.26-2zm-.02 0zm.27 2 .03-.03h.01l.02-.02-.06.05zm-.2-1.96c-.02 0-.04-.03-.05-.04l.01.01zM9.4 25.96l-.04.04-.03.02c.02-.02.03-.04.07-.05zm4.62-.9v.08-.08zm-.47.9c-.01.03-.03.03-.04.04l-.02.02c.02-.02.03-.04.06-.05zm-7.4.23-.02-.02-.05-.01a.1.1 0 0 1 .07.03zm-.74-.7-.01-.1.01.1zm4.92-12.55a6.3 6.3 0 0 1 2.65-.72c.56 0 1.06.1 1.54.28l-1.1 11.6a1.75 1.75 0 0 1-1.74 1.61s-1.58.09-2.1.09c-.48 0-1.93-.08-1.93-.08A1.78 1.78 0 0 1 5.9 24.1L4.89 13.59a6.54 6.54 0 0 0 1.83.27 8.6 8.6 0 0 0 3.62-.92zM1.72 8.45l.01.02h.02l-.03-.02zm17.53-.97c.19.75.1 1.5-.44 2.07-.33.36-.8.51-1.26.6-.13.02-.22.08-.3.18s-.14.18-.16.31l-.25 2.44-.54 5.31c-.18 1.63-.33 3.25-.5 4.88l-.15 1.47c-.17 1.7-1.42 2.8-3.06 3.1-1.1.2-2.23.16-3.36.15-.87-.02-1.78-.05-2.64-.2-1.48-.23-2.69-1.07-2.86-2.63-.03-.28-.04-.6-.08-.88L3.2 19.8l-.55-5.28-.27-2.55c-.04-.44.4-.78.78-.8.46-.01.75.4.8.8l.02.17.36 3.44.54 5.31.3 2.88c.08.72.17 1.56.72 2.1.62.6 1.62.66 2.44.66.76 0 1.53.03 2.3.03a9.07 9.07 0 0 0 2.04-.25c.73-.17 1.23-.6 1.38-1.35.09-.47.09-.97.14-1.46l.15-1.45.53-5.17c.18-1.64.33-3.28.5-4.92l.1-.82c.01-.07 0-.17-.03-.25s-.08-.15-.14-.22-.13-.09-.2-.12-.18-.05-.26-.03l-.8.08a45.73 45.73 0 0 1-9.93-.14 43.61 43.61 0 0 1-2.5-.38A1.94 1.94 0 0 1 0 8.33c-.04-.4.08-.84.16-1.23s.14-.8.31-1.17a1.87 1.87 0 0 1 2.1-1l1.14.18.33.05.15.02c.18.01.36.06.53.07a41 41 0 0 0 4.96.28l1.23-.01a43.78 43.78 0 0 0 2.45-.13 24 24 0 0 0 1.22-.12l.63-.08h.06l.06-.02c.04 0 .08-.01.11-.03s.07-.04.08-.07.05-.08.05-.11v-.11l-.33-1.52-.05-.22a2.61 2.61 0 0 0-.12-.5c-.2-.5-.8-.54-1.25-.64a18.48 18.48 0 0 0-.92-.15l-.11-.02-.18-.03-.4-.05a28.46 28.46 0 0 0-5.94.02l-.45.06c-.08.02-.17.02-.25.03-.25.03-.49.1-.74.14-.03 0-.06.03-.07.05s-.03.05-.03.08.01.06.03.08.04.04.07.04c.29.07.57.11.85.16l.14.01h.02l.56.07.92.08a29.77 29.77 0 0 0 4.13 0c.3-.02.62-.07.93-.1l.44-.05h.05c.06-.01.14-.01.2-.03.44-.06.83.1.97.55.13.38-.16.9-.56.97l-1.05.14a27.64 27.64 0 0 1-4.25.14 21.01 21.01 0 0 1-3.83-.44 6.42 6.42 0 0 1-1.31-.42 1.7 1.7 0 0 1-.81-.67c-.25-.44-.14-.98.2-1.34C2.72 1 3.11.85 3.5.7 4.5.33 5.63.23 6.69.13A30.58 30.58 0 0 1 11 .05a17.52 17.52 0 0 1 4.33.71c.47.18.94.45 1.16.92.17.34.23.78.3 1.15.07.44.13.9.21 1.33.05.24.1.49.27.66s.44.2.67.28c.72.25 1.02.9 1.16 1.6zm-17.67.54v.07c0-.04-.02-.07 0-.07zm.04.34zm.05.06c.03.05.02.03 0 0zm.1.08zm15.76-.1a.68.68 0 0 0 .2-.45c.03-.37 0-.8-.18-1.12-.28-.49-.8-.33-1.27-.25-.52.1-1.05.17-1.58.25-2.87.39-5.8.42-8.7.15-.67-.06-1.36-.12-2.03-.23-.56-.08-1.22-.33-1.78-.27-.36.05-.49.46-.55.75-.06.33-.19.9.06 1.18.14.14.36.17.57.2 2.01.28 4.03.51 6.06.58 2.84.1 5.72-.11 8.53-.53.25-.04.5-.11.67-.27z"/></svg>