<svg xmlns="http://www.w3.org/2000/svg" viewBox="0 0 32 28"><path d="M28.5 14a3.5 3.5 0 0 1 3.5 3.5v6a.5.5 0 0 1-.5.5H30v1a3 3 0 0 1-6 0v-1H8v1a3 3 0 0 1-6 0v-1H.5a.5.5 0 0 1-.5-.5v-6A3.5 3.5 0 0 1 3.5 14h.44l1.64-6.55A4.66 4.66 0 0 1 10 4h2V.5c0-.28.22-.5.5-.5h7c.28 0 .5.22.5.5V4h2a4.66 4.66 0 0 1 4.42 3.45L28.06 14h.44zM5 21.5c1.38 0 2.5-1.13 2.5-2.5S6.37 16.5 5 16.5 2.5 17.63 2.5 19s1.13 2.5 2.5 2.5zM8.06 14h15.88l-1.4-5.58C22.5 8.25 22.2 8 22 8H10c-.19 0-.5.25-.55.42zM27 21.5c1.38 0 2.5-1.13 2.5-2.5s-1.13-2.5-2.5-2.5-2.5 1.13-2.5 2.5 1.13 2.5 2.5 2.5z"/></svg>