<svg xmlns="http://www.w3.org/2000/svg" viewBox="0 0 26 28" id="icon"><path d="M6 24a2 2 0 1 0-4 0 2 2 0 0 0 4 0zm6 0a2 2 0 1 0-4 0 2 2 0 0 0 4 0zm-6-6a2 2 0 1 0-4 0 2 2 0 0 0 4 0zm12 6a2 2 0 1 0-4 0 2 2 0 0 0 4 0zm-6-6a2 2 0 1 0-4 0 2 2 0 0 0 4 0zm-6-6a2 2 0 1 0-4 0 2 2 0 0 0 4 0zm12 6a2 2 0 1 0-4 0 2 2 0 0 0 4 0zm-6-6a2 2 0 1 0-4 0 2 2 0 0 0 4 0zm12 12v-6c0-1.1-.9-2-2-2s-2 .9-2 2v6c0 1.1.9 2 2 2s2-.9 2-2zm-6-12a2 2 0 1 0-4 0 2 2 0 0 0 4 0zm6-5V3a1 1 0 0 0-1-1H3a1 1 0 0 0-1 1v4a1 1 0 0 0 1 1h20a1 1 0 0 0 1-1zm0 5a2 2 0 1 0-4 0 2 2 0 0 0 4 0zm2-10v24a2 2 0 0 1-2 2H2a2 2 0 0 1-2-2V2C0 .9.9 0 2 0h22a2 2 0 0 1 2 2z"/></svg>