<svg xmlns="http://www.w3.org/2000/svg" viewBox="0 0 26 28" id="icon"><path d="m20.36 15.06-8 8a.53.53 0 0 1-.72 0l-4.5-4.5a.51.51 0 0 1 0-.7l.72-.72a.51.51 0 0 1 .7 0L12 20.58l6.94-6.94a.51.51 0 0 1 .7 0l.72.72a.51.51 0 0 1 0 .7zM2 26h22V10H2v16zM8 7V2.5a.5.5 0 0 0-.5-.5h-1a.5.5 0 0 0-.5.5V7c0 .28.22.5.5.5h1A.5.5 0 0 0 8 7zm12 0V2.5a.5.5 0 0 0-.5-.5h-1a.5.5 0 0 0-.5.5V7c0 .28.22.5.5.5h1A.5.5 0 0 0 20 7zm6-1v20a2 2 0 0 1-2 2H2a2 2 0 0 1-2-2V6c0-1.1.9-2 2-2h2V2.5A2.5 2.5 0 0 1 6.5 0h1A2.5 2.5 0 0 1 10 2.5V4h6V2.5A2.5 2.5 0 0 1 18.5 0h1A2.5 2.5 0 0 1 22 2.5V4h2a2 2 0 0 1 2 2z"/></svg>