<svg xmlns="http://www.w3.org/2000/svg" viewBox="0 0 26 28"><path d="M24 4a2 2 0 0 1 2 2v20a2 2 0 0 1-2 2H2a2 2 0 0 1-2-2V6c0-1.1.9-2 2-2h2V2.5A2.5 2.5 0 0 1 6.5 0h1A2.5 2.5 0 0 1 10 2.5V4h6V2.5A2.5 2.5 0 0 1 18.5 0h1A2.5 2.5 0 0 1 22 2.5V4h2zm-6-1.5V7c0 .28.22.5.5.5h1A.5.5 0 0 0 20 7V2.5a.5.5 0 0 0-.5-.5h-1a.5.5 0 0 0-.5.5zm-12 0V7c0 .28.22.5.5.5h1A.5.5 0 0 0 8 7V2.5a.5.5 0 0 0-.5-.5h-1a.5.5 0 0 0-.5.5zM24 26V10H2v16h22zm-10-9h3.5c.28 0 .5.22.5.5v1a.5.5 0 0 1-.5.5H14v3.5a.5.5 0 0 1-.5.5h-1a.5.5 0 0 1-.5-.5V19H8.5a.5.5 0 0 1-.5-.5v-1c0-.28.22-.5.5-.5H12v-3.5c0-.28.22-.5.5-.5h1c.28 0 .5.22.5.5V17z"/></svg>