<svg xmlns="http://www.w3.org/2000/svg" viewBox="0 0 26 28" id="icon"><path d="M2 26h4.5v-4.5H2V26zm5.5 0h5v-4.5h-5V26zM2 20.5h4.5v-5H2v5zm5.5 0h5v-5h-5v5zm-5.5-6h4.5V10H2v4.5zM13.5 26h5v-4.5h-5V26zm-6-11.5h5V10h-5v4.5zm12 11.5H24v-4.5h-4.5V26zm-6-5.5h5v-5h-5v5zM8 7V2.5a.5.5 0 0 0-.5-.5h-1a.5.5 0 0 0-.5.5V7c0 .27.23.5.5.5h1A.5.5 0 0 0 8 7zm11.5 13.5H24v-5h-4.5v5zm-6-6h5V10h-5v4.5zm6 0H24V10h-4.5v4.5zM20 7V2.5a.5.5 0 0 0-.5-.5h-1a.5.5 0 0 0-.5.5V7c0 .27.23.5.5.5h1A.5.5 0 0 0 20 7zm6-1v20a2 2 0 0 1-2 2H2a2 2 0 0 1-2-2V6c0-1.1.9-2 2-2h2V2.5A2.5 2.5 0 0 1 6.5 0h1A2.5 2.5 0 0 1 10 2.5V4h6V2.5A2.5 2.5 0 0 1 18.5 0h1A2.5 2.5 0 0 1 22 2.5V4h2a2 2 0 0 1 2 2z"/></svg>