<svg xmlns="http://www.w3.org/2000/svg" viewBox="0 0 26 28" id="icon"><path d="M19 11a1 1 0 0 0-1-1h-2V8c0-.55-.45-1-1-1s-1 .45-1 1v2h-2c-.55 0-1 .45-1 1s.45 1 1 1h2v2c0 .55.45 1 1 1s1-.45 1-1v-2h2a1 1 0 0 0 1-1zm-9 13a2 2 0 1 1-4 0 2 2 0 0 1 4 0zm14 0a2 2 0 1 1-4 0 2 2 0 0 1 4 0zm2-17v8c0 .5-.38.94-.9 1L8.8 17.9c.06.35.2.74.2 1.1s-.22.69-.38 1H23c.55 0 1 .45 1 1s-.45 1-1 1H7a1 1 0 0 1-1-1c0-.48.73-1.69.95-2.14L4.2 6H1c-.55 0-1-.45-1-1s.45-1 1-1h4c1.06 0 1.08 1.25 1.23 2H25a1 1 0 0 1 1 1z"/></svg>