<svg xmlns="http://www.w3.org/2000/svg" viewBox="0 0 26 28"><path d="M20 11a1 1 0 0 0-1-1 .99.99 0 0 0-.7.3L16 12.58V8c0-.55-.45-1-1-1s-1 .45-1 1v4.58l-2.3-2.28a1 1 0 0 0-.7-.3 1 1 0 0 0-1 1 .99.99 0 0 0 .3.7l4 4c.18.19.43.3.7.3s.52-.1.7-.3l4-4a1 1 0 0 0 .3-.7zM10 24a2 2 0 1 1-4 0 2 2 0 0 1 4 0zm14 0a2 2 0 1 1-4 0 2 2 0 0 1 4 0zm2-17v8c0 .5-.38.94-.9 1L8.8 17.9c.06.35.2.74.2 1.1s-.22.69-.38 1H23c.55 0 1 .45 1 1s-.45 1-1 1H7a1 1 0 0 1-1-1c0-.48.73-1.69.95-2.14L4.2 6H1c-.55 0-1-.45-1-1s.45-1 1-1h4c1.06 0 1.08 1.25 1.23 2H25a1 1 0 0 1 1 1z"/></svg>