<svg xmlns="http://www.w3.org/2000/svg" viewBox="0 0 36 28"><path d="M1.86 10.66h1.39l-.7-1.7zm9.7 8.21 1.16-1.23-1.1-1.23H9.08v.76h2.22v.86H9.08v.85h2.48zm2.47-1.21 1.55 1.71v-3.39zm4.5-.74c0-.37-.28-.51-.62-.51h-1.32v1.07h1.3c.36 0 .64-.17.64-.56zm4.52-.06c0-.4-.35-.45-.66-.45h-1.28v.95h1.27c.34 0 .67-.08.67-.5zM18.7 9.58c0-.4-.34-.46-.65-.46h-1.28v.94h1.26c.35 0 .67-.07.67-.48zm7.17 1.08h1.4l-.7-1.7zM10.92 8.23v4.24H9.9V9.15l-1.47 3.32h-.89L6.06 9.15v3.32H4l-.4-.94H1.5l-.4.94H.02l1.82-4.24h1.5l1.72 4.02V8.23H6.7l1.33 2.88 1.2-2.88h1.69zm8.69 8.7c0 1.7-1.86 1.41-3.02 1.41v1.43h-1.97l-1.25-1.41-1.3 1.4h-4v-4.23h4.07l1.25 1.4 1.28-1.4h3.23c.96 0 1.7.33 1.7 1.4zm-4.55-5.34v.88h-3.39V8.23h3.4v.9h-2.38v.76h2.3v.86h-2.3v.84h2.37zM36 20.33v3.58c0 1.14-.92 2.09-2.06 2.09H2.06A2.09 2.09 0 0 1 0 23.9V13.32h1.73l.4-.95h.85l.4.95h3.4v-.72l.3.72h1.76l.32-.73v.73h8.45v-1.55l.16-.01c.14 0 .15.1.15.22v1.34h4.36v-.36c1.02.53 2.4.36 3.47.36l.39-.95h.88l.39.95h3.54v-.9l.53.9h2.85v-5.9h-2.81v.68l-.4-.68h-2.89v.68l-.36-.68h-3.89c-.57 0-1.18.06-1.7.34v-.34H19.6v.34c-.31-.28-.73-.34-1.14-.34H8.64l-.67 1.51-.67-1.51H4.2v.68l-.34-.68H1.22L0 10.2V4.08C0 2.95.92 2 2.06 2h31.88C35.08 2 36 2.95 36 4.1v10.59h-1.88c-.43 0-.9.08-1.26.34v-.34h-2.77c-.39 0-.92.06-1.22.34v-.34h-4.93v.34a2.45 2.45 0 0 0-1.36-.34H19.3v.34c-.33-.31-1-.34-1.42-.34h-3.66l-.84.9-.78-.9H7.16v5.9h5.35l.86-.92.82.92h3.3V19.2h.32c.47 0 .95-.01 1.4-.2v1.6h2.72v-1.55h.13c.16 0 .19.01.19.18v1.36h8.26c.46 0 1.02-.1 1.38-.37v.37h2.62c.5 0 1.03-.04 1.49-.26zm-11.84-3.66c0 .47-.25.94-.72 1.13.56.2.67.57.67 1.12v.85h-1.02v-.7c0-.73-.23-.85-.9-.85H21.1v1.55h-1.02v-4.24h2.4c.8 0 1.66.14 1.66 1.14zm-4.33-7.3c0 .49-.27.96-.72 1.15.58.2.67.56.67 1.12v.83h-1.02c-.01-.9.22-1.53-.9-1.53h-1.1v1.53h-1V8.23l2.4.02c.8 0 1.67.13 1.67 1.13zm8.26 9.52v.88h-3.37v-4.24h3.37v.88h-2.35v.76h2.3v.86h-2.3v.85zM21.44 8.23v4.24H20.4V8.23h1.03zm10.83 10.2c0 1-.7 1.34-1.6 1.34H28.7v-.91h1.97c.25 0 .53-.06.53-.4 0-.9-2.6.35-2.6-1.66 0-.86.65-1.27 1.43-1.27h2.03v.9H30.2c-.26 0-.56.04-.56.38 0 .93 2.63-.42 2.63 1.61zm3.73-.79v1.58c-.3.44-.88.55-1.38.55h-1.95v-.91h1.95c.26 0 .52-.08.52-.4 0-.88-2.6.35-2.6-1.66 0-.86.66-1.27 1.44-1.27H36v.9h-1.84c-.28 0-.57.04-.57.38 0 .75 1.77-.01 2.41.83zm-2.58-9.39v4.22h-1.44l-1.9-3.17v3.17h-2.06l-.41-.94h-2.1l-.39.94h-1.17c-1.39 0-2.01-.72-2.01-2.08 0-1.42.64-2.15 2.07-2.15H25v.92c-1.06-.02-2.03-.25-2.03 1.2 0 .72.17 1.22.98 1.22h.45l1.44-3.33h1.52l1.7 4v-4h1.55l1.78 2.94V8.25h1.03z"/></svg>