<svg xmlns="http://www.w3.org/2000/svg" viewBox="0 0 28 28" id="icon"><path d="M13.97 0c3.94 0 7.25 1.34 9.95 4.05A13.53 13.53 0 0 1 28 14c0 3.94-1.33 7.22-4 9.83A13.86 13.86 0 0 1 13.97 28c-3.78 0-7.06-1.38-9.85-4.13C1.38 21.13 0 17.84 0 14s1.38-7.16 4.13-9.95A13.4 13.4 0 0 1 13.96 0zm.06 2.53a10.9 10.9 0 0 0-8.08 3.35A11.27 11.27 0 0 0 2.53 14c0 3.1 1.13 5.78 3.4 8.05s4.96 3.4 8.1 3.4c3.11 0 5.83-1.14 8.14-3.42 2.2-2.1 3.3-4.8 3.3-8.03 0-3.19-1.11-5.9-3.34-8.13s-4.93-3.34-8.1-3.34zm3.75 8v5.72h-1.6v6.8h-4.35v-6.8h-1.61v-5.72a.9.9 0 0 1 .91-.91h5.75c.23 0 .43.1.62.27s.28.4.28.64zm-5.73-3.6c0-1.32.65-1.98 1.95-1.98s1.95.66 1.95 1.97c0 1.3-.65 1.96-1.95 1.96s-1.95-.66-1.95-1.96z"/></svg>