<svg xmlns="http://www.w3.org/2000/svg" viewBox="0 0 28 28"><path d="M13.97 0c3.92 0 7.25 1.36 10 4.1 1.31 1.3 2.31 2.82 3 4.51S28 12.09 28 14.01c0 1.91-.34 3.71-1.02 5.38s-1.67 3.16-2.98 4.44A14.44 14.44 0 0 1 13.97 28a13.73 13.73 0 0 1-9.86-4.14A13.8 13.8 0 0 1 0 14a13.94 13.94 0 0 1 4.16-9.92A13.2 13.2 0 0 1 13.96 0zm.06 2.53c-3.2 0-5.89 1.11-8.08 3.35C4.85 6.97 4 8.25 3.41 9.63s-.88 2.84-.88 4.36c0 1.5.28 2.95.88 4.34a11.89 11.89 0 0 0 6.26 6.22 11.24 11.24 0 0 0 8.72-.01c1.4-.58 2.67-1.42 3.81-2.52A10.75 10.75 0 0 0 25.47 14a11.08 11.08 0 0 0-3.31-8.1 11.07 11.07 0 0 0-8.13-3.37zm-.19 9.14-1.87.99c-.2-.43-.44-.7-.74-.88s-.56-.25-.8-.25c-1.26 0-1.88.81-1.88 2.47 0 .75.17 1.34.48 1.8s.78.67 1.4.67c.8 0 1.4-.4 1.73-1.19l1.72.88a4.1 4.1 0 0 1-3.67 2.19c-1.26 0-2.27-.38-3.04-1.15S6.03 15.36 6.03 14c0-1.33.38-2.4 1.16-3.17s1.75-1.18 2.94-1.18c1.73 0 2.96.68 3.71 2.02zm8.08 0-1.84.99c-.2-.43-.44-.7-.74-.88s-.57-.25-.84-.25c-1.25 0-1.88.81-1.88 2.47 0 .75.16 1.34.47 1.8s.78.67 1.41.67c.81 0 1.4-.4 1.72-1.19l1.75.88a4.14 4.14 0 0 1-3.67 2.18 4.05 4.05 0 0 1-3.03-1.14 4.34 4.34 0 0 1-1.15-3.2c0-1.33.38-2.4 1.16-3.17s1.75-1.18 2.94-1.18c1.73 0 2.97.68 3.7 2.02z"/></svg>