<svg xmlns="http://www.w3.org/2000/svg" viewBox="0 0 36 28" id="icon"><path d="M4.9 12.14c0 .5-.21.98-.57 1.31-.31.29-.74.41-1.4.41h-.26v-3.44h.27c.65 0 1.06.11 1.39.43.36.3.56.8.56 1.3zm27.74-1.02c0 .54-.34.82-1 .82h-.3v-1.58h.32c.64 0 .98.27.98.77zm-26.7 1.02c0-1.53-1.14-2.6-2.8-2.6H1.66v5.2h1.48a2.6 2.6 0 0 0 2.8-2.6zm.47 2.6h1.01v-5.2H6.41v5.2zm5-1.58c0-.83-.35-1.2-1.5-1.63-.61-.22-.79-.37-.79-.65 0-.33.32-.58.75-.58.32 0 .57.12.83.42l.53-.69a2.26 2.26 0 0 0-1.53-.58c-.92 0-1.62.64-1.62 1.49 0 .72.33 1.1 1.28 1.43.39.15.6.22.7.3a.6.6 0 0 1 .3.53c0 .42-.33.74-.78.74a1.2 1.2 0 0 1-1.11-.7l-.66.63a2 2 0 0 0 1.8 1c1.06 0 1.8-.7 1.8-1.72zm4.34 1.4v-1.2c-.4.4-.77.58-1.22.58-1.03 0-1.75-.75-1.75-1.8 0-1 .75-1.8 1.7-1.8.49 0 .85.18 1.27.6v-1.2a2.73 2.73 0 0 0-4.02 2.4 2.7 2.7 0 0 0 2.75 2.72c.44 0 .82-.08 1.27-.3zM35 24v-8.23C32.5 17.33 23.7 22.33 9.48 25H34a1 1 0 0 0 1-1zM21.7 12.17a2.83 2.83 0 1 0-5.65 0 2.83 2.83 0 1 0 5.65 0zm2.38 2.7 2.25-5.34h-1.11l-1.4 3.5-1.4-3.5h-1.1l2.21 5.34h.55zm2.7-.14h2.88v-.87H27.8v-1.4h1.8v-.88h-1.8v-1.16h1.86v-.89h-2.88v5.2zm6.11 0h1.25l-1.64-2.18c.77-.16 1.19-.68 1.19-1.47 0-.99-.67-1.55-1.85-1.55h-1.51v5.2h1.01v-2.07h.15zM36 4.1v19.82c0 1.15-.92 2.09-2.06 2.09H2.06A2.08 2.08 0 0 1 0 23.9V4.1C0 2.93.92 2 2.06 2h31.88C35.08 2 36 2.94 36 4.1z"/></svg>