<svg xmlns="http://www.w3.org/2000/svg" viewBox="0 0 36 28"><path d="M30.48 15.6c0 .56-.37.96-.84 1.06a1.52 1.52 0 0 1-.28.03h-2.4v-2.2h2.4a1.6 1.6 0 0 1 .28.04c.47.1.84.52.84 1.06zm-.28-3.33a.97.97 0 0 1-.82.98c-.05.02-.16.02-.24.02h-2.17v-2.02h2.17l.24.02a.99.99 0 0 1 .82 1zm-18.82 2.56V10H7.8v4.82c0 1.17-.8 2.04-2.23 2.04a8.22 8.22 0 0 1-3.57-.9v1.75c1.88.52 4.25.52 4.25.52 3.97 0 5.13-1.52 5.13-3.4zm11.15 2.87v-1.76c-.81.42-1.84.82-3.12.92-2.25.17-3.6-.92-3.6-2.86s1.35-3.03 3.6-2.86c1.28.1 2.3.48 3.12.9V10.3c-1.67-.43-3.25-.49-3.25-.49-5.5-.25-7.06 1.92-7.06 4.2s1.56 4.43 7.06 4.18c0 0 1.58-.06 3.25-.49zM34 15.9c0-1.15-1.03-1.9-2.38-2v-.04c1.22-.17 1.9-.97 1.9-1.9 0-1.18-.99-1.87-2.32-1.93l-.4-.01h-7.11v7.96h7.67c1.52 0 2.64-.8 2.64-2.07zM36 4v20a2 2 0 0 1-2 2H2a2 2 0 0 1-2-2V4c0-1.1.9-2 2-2h32a2 2 0 0 1 2 2z"/></svg>