<svg xmlns="http://www.w3.org/2000/svg" viewBox="0 0 36 28" id="icon"><path d="M17.48 5.33a7.95 7.95 0 0 0-12.34 6.61 7.96 7.96 0 0 0 7.95 7.95 7.97 7.97 0 0 0 4.4-1.33 8.56 8.56 0 0 1 0-13.23zm.52.37a7.95 7.95 0 0 0 0 12.49A7.95 7.95 0 0 0 18 5.7zm.52-.37a8.56 8.56 0 0 1 0 13.23 8.01 8.01 0 0 0 4.39 1.33 7.95 7.95 0 1 0 0-15.9 7.97 7.97 0 0 0-4.4 1.34zM30.09 16.6h.11v-.05h-.26v.05h.1v.27h.05v-.27zm.46.27h.06v-.32h-.08l-.1.2-.09-.2h-.07v.32h.04v-.24l.1.2h.06l.08-.2v.23zm-.13 6.87v.03h-.08v-.05h.08v.02zm0 .14h.05l-.06-.08.04-.01c.02-.02.02-.03.02-.05l-.02-.05-.06-.01h-.1v.2h.05v-.08h.02zM10.7 22.83c0-.38.24-.67.64-.67.38 0 .63.3.63.67 0 .39-.25.67-.63.67-.4 0-.64-.3-.64-.67zm7.4-.69c.3 0 .5.17.54.5h-1.1c.05-.3.24-.5.55-.5zm5.56.69c0-.38.23-.67.62-.67s.64.3.64.67c0 .39-.25.67-.64.67s-.62-.3-.62-.67zm4.25 0c0-.38.25-.67.64-.67.37 0 .64.3.64.67 0 .39-.27.67-.64.67-.4 0-.64-.3-.64-.67zm2.46 1.12-.06-.01-.05-.03a.06.06 0 0 1-.03-.05l-.01-.06.01-.07c0-.03.02-.04.03-.06s.04-.02.05-.03l.06-.02c.01 0 .05 0 .07.02l.06.03c.02.01.02.03.03.06 0 .02.02.03.02.07l-.02.06-.03.05c-.02.02-.03.03-.06.03l-.07.01zM9.36 23.9h.47v-1.33c0-.5-.33-.82-.85-.84a.82.82 0 0 0-.73.37.77.77 0 0 0-.7-.37.72.72 0 0 0-.61.31v-.25h-.47v2.11h.47v-1.17c0-.38.2-.56.51-.56s.47.2.47.56v1.17h.46v-1.17c0-.38.21-.56.51-.56.31 0 .47.2.47.56v1.17zm2.6 0h.45v-2.1h-.46v.24a.84.84 0 0 0-.67-.31c-.6 0-1.05.47-1.05 1.1s.46 1.12 1.05 1.12c.3 0 .52-.11.67-.32v.27zm2.77-.64c0-.38-.28-.56-.73-.63l-.22-.03c-.2-.03-.36-.07-.36-.21s.14-.24.4-.24c.27 0 .52.1.66.17l.2-.37a1.59 1.59 0 0 0-.87-.22c-.53 0-.87.26-.87.69 0 .34.25.54.73.6l.2.04c.27.04.38.1.38.22 0 .17-.17.26-.48.26s-.55-.1-.7-.22l-.21.36c.25.17.56.27.9.27.62 0 .98-.28.98-.69zm2.04.53-.13-.39a.84.84 0 0 1-.4.1c-.24 0-.3-.13-.3-.33v-.96h.75v-.42h-.75v-.64h-.47v.64h-.44v.42h.44v.96c0 .48.19.78.73.78.19 0 .43-.07.57-.16zm1.34-2.06c-.61 0-1.05.45-1.05 1.1 0 .68.45 1.12 1.08 1.12.31 0 .6-.08.86-.3l-.22-.34a1.02 1.02 0 0 1-.6.23c-.3 0-.57-.14-.65-.52h1.58v-.18c0-.66-.4-1.11-1-1.11zm2.48 0a.6.6 0 0 0-.54.31v-.25h-.47v2.11h.47v-1.2c0-.34.14-.54.45-.54a.61.61 0 0 1 .28.06l.14-.44a.86.86 0 0 0-.33-.06zm.47 1.1c0 .65.44 1.12 1.13 1.12.31 0 .53-.07.75-.25l-.22-.38a.8.8 0 0 1-.55.19c-.37 0-.64-.27-.64-.67s.27-.68.64-.68c.2 0 .38.07.55.2l.22-.38a1.12 1.12 0 0 0-.75-.25c-.69 0-1.13.47-1.13 1.1zm3.83 1.07h.47v-2.1h-.47v.24a.79.79 0 0 0-.66-.31c-.59 0-1.06.47-1.06 1.1s.47 1.12 1.06 1.12c.3 0 .52-.11.66-.32v.27zm2.08-2.17a.6.6 0 0 0-.55.31v-.25h-.45v2.11h.45v-1.2c0-.34.16-.54.45-.54a.61.61 0 0 1 .29.06l.14-.44a.81.81 0 0 0-.33-.06zm2.19 2.17h.45v-2.97h-.45v1.11a.8.8 0 0 0-.68-.31c-.57 0-1.04.47-1.04 1.1s.47 1.12 1.04 1.12c.32 0 .53-.11.68-.32v.27zm1.21-.31-.07.01a.23.23 0 0 0-.07.05.09.09 0 0 0-.04.06c-.02.03-.02.07-.02.1l.02.08c0 .01.01.04.04.06l.07.05c.03.02.06.01.07.01l.1-.01.06-.05.05-.06.02-.08c0-.03 0-.07-.02-.1l-.05-.06-.06-.05-.1-.01zM36 4v20a2 2 0 0 1-2 2H2a2 2 0 0 1-2-2V4c0-1.1.9-2 2-2h32a2 2 0 0 1 2 2z"/></svg>