<svg xmlns="http://www.w3.org/2000/svg" viewBox="0 0 28 28" id="icon"><path d="M13.97 0c3.92 0 7.23 1.36 9.95 4.08 2.72 2.7 4.08 6 4.08 9.92s-1.33 7.19-4 9.84A13.85 13.85 0 0 1 13.97 28c-3.78 0-7.06-1.38-9.85-4.13A13.48 13.48 0 0 1 0 14c0-3.81 1.38-7.13 4.13-9.92 2.7-2.72 6-4.08 9.83-4.08zm.06 2.53c-3.19 0-5.87 1.13-8.08 3.38A11.18 11.18 0 0 0 2.53 14c0 3.1 1.13 5.8 3.4 8.05a11.08 11.08 0 0 0 8.1 3.4c3.11 0 5.83-1.14 8.14-3.42 2.2-2.14 3.3-4.81 3.3-8.03 0-3.2-1.11-5.9-3.34-8.1a10.92 10.92 0 0 0-8.1-3.37zm5.27 8.17v2.4H9.12v-2.4H19.3zm0 4.5v2.4H9.12v-2.4H19.3z"/></svg>