<svg xmlns="http://www.w3.org/2000/svg" viewBox="0 0 28 28" id="icon"><path d="M23.94 4.06C26.64 6.76 28 10.08 28 14s-1.34 7.19-4 9.83A13.8 13.8 0 0 1 13.98 28c-3.8 0-7.09-1.38-9.84-4.13S0 17.84 0 14s1.39-7.14 4.14-9.94A13.36 13.36 0 0 1 13.98 0c3.93 0 7.25 1.36 9.96 4.06zm-1.75 17.96a11.01 11.01 0 0 0 1.72-2.13l-4.58-2.03v2.02H15.7v3.15h-3.48v-3.15h-3.6v-2.2h3.6v-1.04l-.31-.67H8.63V13.8h1.57l-7.17-3.2c-.34 1.07-.5 2.21-.5 3.4 0 3.1 1.13 5.78 3.4 8.05s4.96 3.39 8.09 3.39 5.86-1.14 8.17-3.42zm-3.24-4.33-3.07-1.38-.18.33v1.05h3.25zm.38-2.9 5.7 2.54c.3-1.03.44-2.14.44-3.33 0-3.2-1.11-5.9-3.36-8.13a11 11 0 0 0-8.1-3.35 10.9 10.9 0 0 0-8.06 3.35 12.5 12.5 0 0 0-1.73 2.2l4.6 2.06-1.52-2.9h3.72l2.23 4.85 1.3.58 2.44-5.42h3.72l-3.55 6.56h2.17v1z"/></svg>