<svg xmlns="http://www.w3.org/2000/svg" viewBox="0 0 28 28" id="icon"><path d="M13.97 0c3.94 0 7.25 1.34 9.95 4.05C26.64 6.75 28 10.06 28 14s-1.33 7.22-4 9.83A13.86 13.86 0 0 1 13.97 28c-3.8 0-7.08-1.4-9.85-4.16A13.44 13.44 0 0 1 0 14c0-3.83 1.38-7.16 4.13-9.95A13.4 13.4 0 0 1 13.96 0zM3.16 10.22A10.97 10.97 0 0 0 2.53 14a11 11 0 0 0 3.4 8.05c2.27 2.25 5 3.37 8.1 3.37A11.1 11.1 0 0 0 22.17 22c.81-.78 1.45-1.6 1.92-2.45l-5.26-2.35c-.19.9-.64 1.6-1.35 2.16s-1.54.89-2.51.97v2.14h-1.63v-2.14a6.52 6.52 0 0 1-4.25-1.67l1.94-1.96a4.49 4.49 0 0 0 3.13 1.27c.48 0 .89-.1 1.23-.31s.52-.58.52-1.08a1.1 1.1 0 0 0-.38-.86l-1.36-.56-1.64-.75-2.23-.99zM14.03 2.5c-3.19 0-5.87 1.13-8.08 3.38a13.4 13.4 0 0 0-1.54 1.87l5.34 2.4c.23-.73.67-1.32 1.33-1.76s1.4-.69 2.26-.73V5.5h1.63v2.16c1.28.06 2.45.5 3.5 1.3l-1.81 1.87a4.18 4.18 0 0 0-2.41-.83c-.44 0-.81.08-1.16.25s-.51.44-.51.84c0 .11.05.25.12.36l1.77.8 3.48 1.55 7.18 3.2c.23-.98.34-1.98.34-3 0-3.22-1.11-5.92-3.34-8.13a10.92 10.92 0 0 0-8.1-3.37z"/></svg>