<svg xmlns="http://www.w3.org/2000/svg" viewBox="0 0 28 28"><path d="M23.94 4.06C26.64 6.76 28 10.08 28 14s-1.34 7.19-4 9.83A13.8 13.8 0 0 1 13.98 28c-3.8 0-7.09-1.38-9.84-4.13S0 17.84 0 14s1.39-7.14 4.14-9.94A13.36 13.36 0 0 1 13.98 0c3.93 0 7.25 1.36 9.96 4.06zm-1.75 17.96a10.56 10.56 0 0 0 1.9-2.47l-7.23-3.2h-5.1c.16.7.43 1.24.77 1.63.75.85 1.86 1.2 3.03 1.2 1.08 0 2.17-.35 2.67-.6l.57 2.6c-.8.45-2.16.88-3.66.88-2.3 0-4.4-.93-5.72-2.67a6.7 6.7 0 0 1-1.31-3.05H6.58V14.7h1.3v-.4l.01-.71H6.58v-1.66h.26l-3.7-1.64A11.26 11.26 0 0 0 2.52 14c0 3.11 1.14 5.78 3.4 8.05s4.97 3.39 8.1 3.39 5.86-1.14 8.17-3.42zm-9.11-7.33-.03-.03.04.03h-.01zm4.36-1.11 7.68 3.4a12.32 12.32 0 0 0 .35-2.98c0-3.2-1.13-5.9-3.36-8.13a11 11 0 0 0-8.1-3.35 10.9 10.9 0 0 0-8.06 3.35A12.87 12.87 0 0 0 4.38 7.8l4.6 2.04a7.34 7.34 0 0 1 .79-1.14 7.13 7.13 0 0 1 5.42-2.39 8.9 8.9 0 0 1 3.51.7l-.65 2.68a7.12 7.12 0 0 0-2.61-.57 3.56 3.56 0 0 0-3.38 2.08l1.61.72h3.97v1.66h-.2z"/></svg>