<svg xmlns="http://www.w3.org/2000/svg" viewBox="0 0 36 28" id="icon"><path d="M11.64 14.16c0 .76-.6 1.34-1.37 1.34-.58 0-1-.33-1-.94 0-.76.59-1.37 1.36-1.37.57 0 1.01.36 1.01.97zm12.27-2.33c0 .94-.57 1.12-1.38 1.12l-.5.02.27-1.67a.2.2 0 0 1 .2-.18h.28c.53 0 1.13.04 1.13.7zm5.48 2.33c0 .76-.6 1.34-1.36 1.34-.58 0-1.01-.33-1.01-.94 0-.76.59-1.37 1.35-1.37.58 0 1.02.36 1.02.97zM8.02 11.48c0-1.3-1.02-1.75-2.18-1.75h-2.5a.34.34 0 0 0-.32.3L2 16.41c-.02.12.08.25.2.25h1.2c.16 0 .32-.13.34-.3l.28-1.72c.06-.45.82-.3 1.12-.3 1.78 0 2.88-1.06 2.88-2.86zm4.82 4.88.64-4.08c.02-.12-.07-.25-.2-.25H12.1c-.23 0-.25.35-.26.52-.36-.53-.9-.63-1.49-.63-1.53 0-2.7 1.35-2.7 2.83 0 1.22.77 2.02 1.98 2.02.57 0 1.27-.25 1.66-.7a1.23 1.23 0 0 0-.06.34c0 .14.06.25.2.25h1.08a.35.35 0 0 0 .34-.3zm6.99-4.11c0-.1-.1-.22-.2-.22h-1.2a.35.35 0 0 0-.29.16l-1.66 2.44-.68-2.35a.37.37 0 0 0-.35-.25h-1.17c-.1 0-.2.11-.2.22 0 .08 1.22 3.6 1.33 3.94-.18.23-1.29 1.69-1.29 1.87 0 .11.1.2.2.2h1.21a.35.35 0 0 0 .28-.15l3.99-5.75c.03-.03.03-.06.03-.1zm5.94-.77c0-1.3-1.02-1.75-2.18-1.75h-2.48c-.17 0-.33.13-.34.3l-1.02 6.38c-.02.12.08.25.2.25h1.28c.13 0 .22-.1.25-.2l.28-1.82c.07-.45.83-.3 1.13-.3 1.78 0 2.87-1.06 2.87-2.86zm4.82 4.88.64-4.08c.02-.12-.07-.25-.2-.25h-1.19c-.23 0-.25.35-.26.52-.35-.53-.88-.63-1.49-.63-1.53 0-2.7 1.35-2.7 2.83 0 1.22.77 2.02 1.98 2.02.58 0 1.29-.25 1.66-.7-.02.1-.06.24-.06.34 0 .14.06.25.2.25h1.08a.35.35 0 0 0 .34-.3zM34 9.96c0-.13-.1-.23-.2-.23h-1.16a.22.22 0 0 0-.2.18l-1.02 6.5-.01.03c0 .1.09.22.21.22h1.04a.34.34 0 0 0 .32-.3zm-27.88 2.1c-.12.8-.65.9-1.34.9l-.52.01.27-1.67a.2.2 0 0 1 .2-.17h.3c.7 0 1.23.09 1.1.93zM36 4v20a2 2 0 0 1-2 2H2a2 2 0 0 1-2-2V4c0-1.1.9-2 2-2h32a2 2 0 0 1 2 2z"/></svg>