<svg xmlns="http://www.w3.org/2000/svg" viewBox="0 0 28 28"><path d="M14 0a14 14 0 1 1 0 28 14 14 0 0 1 0-28zm0 25.38c4.3 0 8.03-2.41 9.97-5.93h-.03L11.67 14c.02 1.81.9 4.05 3.05 4.05.19 0 1.06 0 1.86-.75l.19-.19 2.03 2.48c-.18.15-.33.29-.53.43a6.83 6.83 0 0 1-3.94 1.23c-2.63 0-6.8-1.56-6.8-7.16 0-.51.08-1.35.19-1.85l-4.46-1.99A11.4 11.4 0 0 0 14 25.38zm10.97-8.47c.02.01 0 .01.02.03A11.4 11.4 0 0 0 14 2.63a11.38 11.38 0 0 0-9.53 5.13l4.24 1.9c1.1-1.75 3.01-2.91 5.69-2.91 1.14 0 2.87.23 4.4 1.55l-2.28 2.34c-.12-.12-.26-.23-.42-.36a2.7 2.7 0 0 0-1.53-.47c-1.1 0-1.81.63-2.27 1.46z"/></svg>