<svg xmlns="http://www.w3.org/2000/svg" viewBox="0 0 28 28" id="icon"><path d="M13.97 0c3.92 0 7.23 1.36 9.95 4.08 2.72 2.7 4.08 6 4.08 9.92s-1.33 7.19-4 9.84A13.85 13.85 0 0 1 13.97 28c-3.78 0-7.06-1.38-9.85-4.13A13.48 13.48 0 0 1 0 14c0-3.81 1.38-7.13 4.13-9.92 2.7-2.72 6-4.08 9.83-4.08zm.06 2.53c-3.19 0-5.87 1.13-8.08 3.38A11.18 11.18 0 0 0 2.53 14c0 3.13 1.13 5.8 3.4 8.05a11.08 11.08 0 0 0 8.1 3.4c3.11 0 5.83-1.14 8.14-3.42 2.2-2.14 3.3-4.81 3.3-8.03 0-3.2-1.11-5.9-3.34-8.1a10.92 10.92 0 0 0-8.1-3.37zm-6.25 9.5c.27-1.72.95-3.06 2.06-4s2.49-1.4 4.08-1.4c2.2 0 3.96.7 5.25 2.12s1.95 3.23 1.95 5.45c0 2.16-.68 3.94-2.03 5.36S16 21.7 13.84 21.7c-1.57 0-2.93-.47-4.09-1.42s-1.84-2.31-2.08-4.06h3.53c.08 1.7 1.11 2.56 3.08 2.56.99 0 1.78-.44 2.38-1.28s.89-1.98.89-3.4c0-1.49-.28-2.6-.83-3.38s-1.35-1.17-2.38-1.17c-1.87 0-2.9.82-3.14 2.48h1.02L9.45 14.8l-2.78-2.77h1.11z"/></svg>