<svg xmlns="http://www.w3.org/2000/svg" viewBox="0 0 28 28" id="icon"><path d="M13.97 0c3.92 0 7.23 1.36 9.95 4.08 2.72 2.7 4.08 6 4.08 9.92s-1.33 7.19-4 9.84A13.85 13.85 0 0 1 13.97 28c-3.78 0-7.06-1.38-9.85-4.13A13.48 13.48 0 0 1 0 14c0-3.81 1.38-7.13 4.13-9.92 2.7-2.72 6-4.08 9.83-4.08zm.06 2.53c-3.19 0-5.87 1.13-8.08 3.38A11.18 11.18 0 0 0 2.53 14c0 3.13 1.13 5.8 3.4 8.05a11.08 11.08 0 0 0 8.1 3.4c3.11 0 5.83-1.14 8.14-3.42 2.2-2.14 3.3-4.81 3.3-8.03 0-3.2-1.11-5.9-3.34-8.1a10.92 10.92 0 0 0-8.1-3.37zM19.72 10a.75.75 0 0 1 .78.78v10.3c0 .22-.06.39-.22.55s-.34.21-.56.21h-7.63a.73.73 0 0 1-.77-.77v-3.04H8.29c-.22 0-.4-.08-.56-.23s-.22-.33-.22-.55V6.95c0-.2.06-.37.2-.51a.83.83 0 0 1 .5-.27h7.7c.22 0 .4.08.55.23s.22.33.22.55V10h3.05zM9.03 16.5h2.3v-5.72c0-.2.06-.37.2-.52s.28-.23.47-.26h3.16V7.72H9.03v8.78zm9.94-4.97h-6.13v8.77h6.13v-8.77z"/></svg>