<svg xmlns="http://www.w3.org/2000/svg" viewBox="0 0 36 28" id="icon"><path d="M24.95 14.1c0 .73-.1 1.28-.32 1.67-.2.34-.49.54-.82.54a1.43 1.43 0 0 1-.64-.14v-3.5c.4-.42.77-.47.9-.47.59 0 .88.66.88 1.9zm6.85-.55h-1.72c.06-1.05.34-1.53.87-1.53s.82.5.85 1.53zm-24.36 2.1c0-1.3-.8-1.85-2.1-2.32-.68-.25-1.06-.45-1.06-.77 0-.26.22-.4.6-.4.71 0 1.43.26 1.93.51l.28-1.75a5.5 5.5 0 0 0-2.32-.5c-.8 0-1.46.2-1.93.6-.5.4-.75 1-.75 1.7 0 1.28.79 1.84 2.07 2.3.8.3 1.1.5 1.1.82 0 .32-.27.49-.76.49-.6 0-1.58-.3-2.22-.67L2 17.42c.55.31 1.56.64 2.63.64.84 0 1.53-.2 2.01-.58.53-.42.8-1.03.8-1.82zm4.6-3.35.3-1.74h-1.5v-2.1l-2.01.32-.28 1.78-.72.13-.27 1.6h.97v3.43c0 .89.23 1.5.69 1.87.39.32.95.47 1.73.47.61 0 .97-.1 1.24-.17v-1.84c-.14.03-.47.1-.7.1-.44 0-.65-.24-.65-.77V12.3h1.2zm4.94.39v-2.17a2.22 2.22 0 0 0-.43-.05c-.66 0-1.2.34-1.4.97l-.15-.88h-2.05v7.36h2.35v-4.78c.3-.36.71-.48 1.28-.48.12 0 .25 0 .4.03zm.58 5.23h2.35v-7.36h-2.35v7.36zm9.72-3.89c0-1.25-.23-2.2-.7-2.8-.42-.54-1-.8-1.74-.8a2.4 2.4 0 0 0-1.82.87l-.13-.74h-2.06v10.08l2.34-.39v-2.36c.36.11.74.17 1.06.17a2.8 2.8 0 0 0 2.1-.87c.64-.69.95-1.75.95-3.16zM19.97 8.6c0-.68-.55-1.23-1.24-1.23s-1.23.55-1.23 1.23.55 1.25 1.23 1.25 1.24-.56 1.24-1.25zM34 14.17c0-1.17-.25-2.1-.75-2.75-.52-.65-1.28-1-2.25-1-2 0-3.23 1.47-3.23 3.85 0 1.3.32 2.3.98 2.93.58.58 1.42.86 2.52.86 1 0 1.92-.23 2.5-.62l-.25-1.61a4.16 4.16 0 0 1-2 .48c-.46 0-.77-.1-.99-.3-.25-.2-.39-.54-.44-1.02h3.88l.03-.82zM36 4v20a2 2 0 0 1-2 2H2a2 2 0 0 1-2-2V4c0-1.1.9-2 2-2h32a2 2 0 0 1 2 2z"/></svg>