<svg xmlns="http://www.w3.org/2000/svg" viewBox="0 0 36 28" id="icon"><path d="M30.86 15.47H28.7l1.03-2.8.35-.95.19.86.59 2.89zM8.3 14.45l-.9-4.6C7.26 9.2 6.77 9 6.21 9H2.03L2 9.2c2.88.74 5.23 2.3 6.3 5.25zM11.1 9l-2.54 6.84-.26-1.39a6.27 6.27 0 0 0-3.38-3.4l2.11 7.97h2.73L13.85 9H11.1zm2.17 10.03h2.59L17.49 9h-2.6zm12-9.78a6.45 6.45 0 0 0-2.33-.42c-2.56 0-4.36 1.36-4.38 3.31-.01 1.44 1.28 2.23 2.27 2.72 1.02.48 1.34.81 1.34 1.25 0 .67-.8.97-1.54.97a4.93 4.93 0 0 1-2.44-.52l-.35-.17-.35 2.25c.6.28 1.71.53 2.89.53 2.71.02 4.48-1.34 4.51-3.42 0-1.14-.7-2-2.19-2.72-.9-.45-1.45-.78-1.45-1.25 0-.42.47-.86 1.48-.86.85-.01 1.47.16 1.94.38l.24.12zM31.9 9h-2c-.63 0-1.1.19-1.36.84l-3.85 9.2h2.72c.44-1.24.55-1.5.55-1.5h3.31l.31 1.5H34zM36 4v20a2 2 0 0 1-2 2H2a2 2 0 0 1-2-2V4c0-1.1.9-2 2-2h32a2 2 0 0 1 2 2z"/></svg>