<svg xmlns="http://www.w3.org/2000/svg" viewBox="0 0 28 28"><path d="M14 5.94c4.63 0 5.78 4.36 5.78 8.06s-1.16 8.06-5.78 8.06S8.22 17.7 8.22 14 9.37 5.94 14 5.94zm0 3.04c-2.38 0-2.48 3.4-2.48 5.02 0 .53.01 1.22.1 1.94l3.08-5.66c.32-.55.14-.95-.18-1.23a1.79 1.79 0 0 0-.52-.07zm2.3 2.61-3.44 5.94c-.48.72-.14 1.14.4 1.36l.13.05c.03.01.07.01.1.03.15.05.32.05.51.05 2.38 0 2.49-3.4 2.49-5.02 0-.64-.03-1.53-.2-2.4zM13.97 0c3.92 0 7.26 1.36 10.01 4.1a13.5 13.5 0 0 1 3 4.53A14.05 14.05 0 0 1 28 14c0 1.92-.33 3.72-1.02 5.4A12.8 12.8 0 0 1 24 23.84c-1.37 1.34-2.9 2.37-4.64 3.1S15.81 28 13.96 28s-3.62-.34-5.32-1.05a14.18 14.18 0 0 1-7.6-7.63A13.68 13.68 0 0 1 0 14c0-1.84.34-3.63 1.05-5.33a14.24 14.24 0 0 1 3.1-4.6A13.22 13.22 0 0 1 13.96 0zm.06 2.52c-3.2 0-5.89 1.12-8.08 3.35a12.15 12.15 0 0 0-2.54 3.77A11.27 11.27 0 0 0 2.5 14a11.31 11.31 0 0 0 3.44 8.06 11.64 11.64 0 0 0 3.72 2.5 11.3 11.3 0 0 0 8.7-.02 12.09 12.09 0 0 0 3.83-2.52A10.73 10.73 0 0 0 25.48 14a11.19 11.19 0 0 0-3.34-8.1 11.03 11.03 0 0 0-8.1-3.38z"/></svg>