<svg xmlns="http://www.w3.org/2000/svg" viewBox="0 0 32 28"><path d="M12.27 15.75h3.23c-.3 3.3-2.19 5.3-4.9 5.3-3.37 0-5.41-2.6-5.41-6.75 0-4.13 2.25-6.7 5.1-6.7 3.12 0 4.87 1.93 5.13 5.21h-3.17c-.1-1.32-.77-2.1-1.83-2.1-1.17 0-1.87 1.26-1.87 3.73 0 1.8.31 3.48 2.01 3.48 1.08 0 1.58-.94 1.7-2.17zm11.12 0h3.22c-.3 3.3-2.17 5.3-4.88 5.3-3.37 0-5.42-2.6-5.42-6.75 0-4.13 2.25-6.7 5.1-6.7 3.12 0 4.87 1.93 5.14 5.21h-3.19c-.1-1.32-.76-2.1-1.81-2.1-1.17 0-1.88 1.26-1.88 3.73 0 1.8.3 3.48 2 3.48 1.08 0 1.6-.94 1.72-2.17zM29 13.89c0-4.19-.22-6-1.19-7.31-.2-.27-.53-.44-.8-.63-.98-.72-5.56-.98-10.89-.98S6 5.24 5.03 5.95c-.28.2-.62.36-.83.63-.97 1.3-1.17 3.12-1.17 7.31 0 4.2.22 6.02 1.17 7.31.22.3.55.43.83.65.97.71 5.77 1.01 11.1 1.01s9.9-.28 10.89-1.02c.26-.2.6-.32.8-.64.98-1.28 1.18-3.1 1.18-7.3zM32 2v24H0V2h32z"/></svg>