<svg xmlns="http://www.w3.org/2000/svg" viewBox="0 0 24 28" id="icon"><path d="m21.5 14 2.16 2.1c.3.29.4.71.3 1.1a1.13 1.13 0 0 1-.8.8l-2.94.75.83 2.9c.1.4 0 .82-.3 1.1a1.1 1.1 0 0 1-1.1.3l-2.9-.83-.75 2.94a1.13 1.13 0 0 1-.8.8 1.87 1.87 0 0 1-.3.04c-.3 0-.59-.12-.8-.34L12 23.5l-2.1 2.16a1.14 1.14 0 0 1-1.1.3 1.1 1.1 0 0 1-.8-.8l-.75-2.94-2.9.83c-.4.1-.82 0-1.1-.3a1.1 1.1 0 0 1-.3-1.1l.83-2.9L.84 18a1.13 1.13 0 0 1-.8-.8 1.14 1.14 0 0 1 .3-1.1L2.5 14 .34 11.9a1.14 1.14 0 0 1-.3-1.1c.1-.4.41-.7.8-.8l2.94-.75-.83-2.9c-.1-.4 0-.82.3-1.1a1.1 1.1 0 0 1 1.1-.3l2.9.83L8 2.84a1.13 1.13 0 0 1 1.9-.5L12 4.51l2.1-2.17a1.09 1.09 0 0 1 1.1-.3c.4.1.7.41.8.8l.75 2.94 2.9-.83c.4-.1.82 0 1.1.3.3.28.4.7.3 1.1l-.83 2.9 2.94.75c.39.1.7.4.8.8a1.14 1.14 0 0 1-.3 1.1z"/></svg>