<svg xmlns="http://www.w3.org/2000/svg" viewBox="0 0 26 28" id="icon"><path d="m6.86 19.86-4 4c-.11.1-.23.14-.36.14s-.25-.05-.36-.14a.53.53 0 0 1 0-.72l4-4a.53.53 0 0 1 .72 0 .53.53 0 0 1 0 .72zm2.64.64v5c0 .28-.22.5-.5.5s-.5-.22-.5-.5v-5c0-.28.22-.5.5-.5s.5.22.5.5zM6 17a.5.5 0 0 1-.5.5h-5c-.28 0-.5-.22-.5-.5s.22-.5.5-.5h5c.28 0 .5.22.5.5zm19.75 2a4.4 4.4 0 0 1-1.33 3.17l-2.3 2.28c-.84.85-1.96 1.3-3.17 1.3s-2.34-.47-3.18-1.33l-5.22-5.23a4.38 4.38 0 0 1-.66-.88l3.73-.28 4.27 4.28c.56.57 1.56.58 2.13.02l2.3-2.28a1.48 1.48 0 0 0 0-2.11l-4.29-4.3.28-3.73c.32.18.61.39.88.65l5.25 5.25a4.52 4.52 0 0 1 1.31 3.2zM16.11 7.69l-3.73.28L8.1 3.69c-.28-.28-.66-.44-1.06-.44s-.78.16-1.06.42l-2.3 2.28a1.48 1.48 0 0 0 0 2.11l4.28 4.28-.28 3.75a4.42 4.42 0 0 1-.88-.65l-5.25-5.25a4.52 4.52 0 0 1 .02-6.36l2.3-2.28C4.71.7 5.83.25 7.04.25s2.34.47 3.18 1.33l5.22 5.23c.27.27.47.56.66.88zM26 9a.5.5 0 0 1-.5.5h-5c-.28 0-.5-.22-.5-.5s.22-.5.5-.5h5c.28 0 .5.22.5.5zM17.5.5v5c0 .28-.22.5-.5.5s-.5-.22-.5-.5v-5c0-.28.22-.5.5-.5s.5.22.5.5zm6.36 2.36-4 4c-.11.1-.23.14-.36.14s-.25-.05-.36-.14a.53.53 0 0 1 0-.72l4-4a.53.53 0 0 1 .72 0 .53.53 0 0 1 0 .72z"/></svg>