<svg xmlns="http://www.w3.org/2000/svg" viewBox="0 0 26 28"><path d="M22.75 19c0-.4-.16-.78-.44-1.06l-3.25-3.25a1.52 1.52 0 0 0-1.06-.44c-.45 0-.81.17-1.13.5.52.52 1.13.95 1.13 1.75a1.5 1.5 0 0 1-1.5 1.5c-.8 0-1.23-.6-1.75-1.13a1.5 1.5 0 0 0-.08 2.2l3.22 3.24c.28.28.67.42 1.06.42s.78-.14 1.07-.4l2.3-2.28a1.48 1.48 0 0 0 .43-1.05zM11.77 7.98a1.51 1.51 0 0 0-.44-1.06L8.1 3.7a1.52 1.52 0 0 0-2.13-.02l-2.3 2.28a1.48 1.48 0 0 0 0 2.11l3.26 3.25a1.5 1.5 0 0 0 1.06.42c.45 0 .81-.15 1.13-.48C8.6 10.73 8 10.3 8 9.5A1.5 1.5 0 0 1 9.5 8c.8 0 1.23.6 1.75 1.13.33-.32.52-.68.52-1.15zM25.75 19a4.47 4.47 0 0 1-1.33 3.17l-2.3 2.28a4.47 4.47 0 0 1-3.17 1.3 4.44 4.44 0 0 1-3.18-1.33l-3.22-3.23a4.58 4.58 0 0 1 .08-6.44l-1.38-1.37A4.54 4.54 0 0 1 8 14.75a4.51 4.51 0 0 1-3.19-1.31l-3.25-3.25a4.47 4.47 0 0 1 .01-6.36l2.3-2.28A4.47 4.47 0 0 1 7.05.25a4.44 4.44 0 0 1 3.18 1.33l3.22 3.23a4.58 4.58 0 0 1-.08 6.44l1.38 1.38a4.51 4.51 0 0 1 6.44-.06l3.25 3.24A4.45 4.45 0 0 1 25.75 19z"/></svg>