<svg xmlns="http://www.w3.org/2000/svg" viewBox="0 0 26 28"><path d="M22 14.53v4.97a4.5 4.5 0 0 1-4.5 4.5h-13A4.5 4.5 0 0 1 0 19.5v-13A4.5 4.5 0 0 1 4.5 2h13c.63 0 1.25.13 1.83.4.14.05.25.2.28.35a.5.5 0 0 1-.14.45l-.77.77a.54.54 0 0 1-.36.15.35.35 0 0 1-.14-.03 2.7 2.7 0 0 0-.7-.09h-13A2.5 2.5 0 0 0 2 6.5v13A2.5 2.5 0 0 0 4.5 22h13a2.5 2.5 0 0 0 2.5-2.5v-3.97a.5.5 0 0 1 .14-.34l1-1a.5.5 0 0 1 .36-.16c.06 0 .12.02.19.05a.5.5 0 0 1 .3.45zm3.6-7.64L12.9 19.61c-.5.5-1.28.5-1.78 0L4.4 12.89c-.5-.5-.5-1.28 0-1.78l1.72-1.72c.5-.5 1.28-.5 1.78 0L12 13.5 22.12 3.4c.5-.5 1.28-.5 1.78 0l1.7 1.7c.5.5.5 1.28 0 1.78z"/></svg>