<svg xmlns="http://www.w3.org/2000/svg" viewBox="0 0 28 28" id="icon"><path d="M28 14a14 14 0 1 1-28 0 14 14 0 0 1 28 0zm-6.16-7.5c.04-.14.04-.27-.07-.38-.07-.1-.2-.14-.3-.14-2 .11-5.27 1.32-5.4 1.35a.44.44 0 0 0-.18.17l-.45.92-.35-.34c-.1-.11-.23-.13-.37-.06-.38.2-2.34 1.23-2.75 1.75-.28.48-.48.96-.55 1.51l-.2-.45c-.06-.11-.14-.14-.25-.17h-.08a.28.28 0 0 0-.19.07c-.1.11-2.54 2.27-2.03 5.02a20 20 0 0 1 8.16-6.98c.14-.14.33-.1.47.04s.1.33-.03.47c-.03.03-.11.08-.14.08-.24.1-.44.2-.64.34l-.18.07-.48.28-.17.1c-.4.23-.8.5-1.17.73l-.11.06a4.41 4.41 0 0 0-.49.34l-.06.07c-3.64 2.64-5.53 6.03-7.84 10.12-.07.14 0 .33.14.44.06.03.1.03.17.03.1 0 .2-.06.26-.17a70.05 70.05 0 0 1 2.7-4.5 1.92 1.92 0 0 0 1.54.69c2.52 0 6.66-3.68 7.06-4.85a.7.7 0 0 0-.04-.28c-.04-.1-.1-.14-.2-.17l-1.1-.27 2.44-.42a.27.27 0 0 0 .23-.17z"/></svg>