<svg xmlns="http://www.w3.org/2000/svg" viewBox="0 0 28 28" id="icon"><path d="M27.9 2.67c.1.19.13.4.02.58l-4.64 9.33a.59.59 0 0 1-.42.31l-4.24.7 1.94.49c.16.04.3.15.38.3s.1.3.04.46c-.73 2.08-8.03 8.54-12.43 8.54a3.27 3.27 0 0 1-2.7-1.2A133 133 0 0 0 1.1 30.1a.6.6 0 0 1-.52.3H.56a.58.58 0 0 1-.28-.08.62.62 0 0 1-.22-.8c4.03-7.12 7.4-13.1 13.77-17.75l.14-.1c.27-.21.56-.41.84-.6l.16-.11a26.54 26.54 0 0 1 2.05-1.28l.26-.16.86-.47.28-.17c.38-.22.75-.4 1.14-.6a.58.58 0 0 0 .25-.74.58.58 0 0 0-.76-.3 35.83 35.83 0 0 0-14.3 12.3c-.89-4.82 3.4-8.67 3.61-8.86.14-.13.31-.16.48-.13s.35.16.43.32l.4.8a7.29 7.29 0 0 1 .94-2.66c.73-.9 4.17-2.7 4.84-3.05a.62.62 0 0 1 .7.1l.6.6.8-1.6a.53.53 0 0 1 .33-.29c.26-.09 5.95-2.18 9.5-2.37.2 0 .4.1.51.26z"/></svg>