<svg xmlns="http://www.w3.org/2000/svg" viewBox="0 0 16 28" id="icon"><path d="M9.42 24H6.73a.5.5 0 0 1-.5-.5v-5.16h-4.5a.5.5 0 0 1-.5-.5v-1.6c0-.29.22-.5.5-.5h4.5V14.4h-4.5a.5.5 0 0 1-.5-.5v-1.63c0-.26.22-.5.5-.5h3.35L.06 2.75a.56.56 0 0 1 0-.5A.52.52 0 0 1 .5 2h3.03c.19 0 .36.11.45.28l3.36 6.64c.38.74.63 1.36.88 1.96.26-.68.6-1.33.9-2.02l2.99-6.56a.5.5 0 0 1 .45-.3h2.98c.18 0 .33.1.43.25a.49.49 0 0 1 .01.48l-4.89 9.05h3.36c.28 0 .5.24.5.5v1.63a.5.5 0 0 1-.5.5H9.92v1.32h4.53c.28 0 .5.22.5.5v1.61a.5.5 0 0 1-.5.5H9.92v5.16a.5.5 0 0 1-.5.5z"/></svg>