<svg xmlns="http://www.w3.org/2000/svg" viewBox="0 0 30 28"><path d="m9.64 21.86-.78.78a.5.5 0 0 1-.72 0L.86 15.36a.5.5 0 0 1 0-.72l7.28-7.28a.5.5 0 0 1 .72 0l.78.78a.5.5 0 0 1 0 .72L3.5 15l6.14 6.14a.5.5 0 0 1 0 .72zm9.23-16.67-5.82 20.17a.5.5 0 0 1-.61.34l-.97-.26a.5.5 0 0 1-.34-.63l5.82-20.17a.5.5 0 0 1 .61-.34l.97.26a.5.5 0 0 1 .34.63zm10.27 10.17-7.28 7.28a.5.5 0 0 1-.72 0l-.78-.78a.5.5 0 0 1 0-.72L26.5 15l-6.14-6.14a.5.5 0 0 1 0-.72l.78-.78a.5.5 0 0 1 .72 0l7.28 7.28a.5.5 0 0 1 0 .72z"/></svg>