<svg xmlns="http://www.w3.org/2000/svg" viewBox="0 0 28 28"><path d="m3.38 18.27 9.42 6.28v-5.61l-5.22-3.49zm-.97-2.25L5.42 14l-3.01-2.02v4.03zm12.8 8.53 9.42-6.28-4.2-2.82-5.23 3.49v5.6zM14 16.85 18.25 14 14 11.16 9.75 14zm-6.42-4.3 5.22-3.49v-5.6L3.37 9.72zm15 1.45 3.01 2.02v-4.04zm-2.16-1.45 4.2-2.81-9.42-6.29v5.61zM28 9.73v8.54c0 .39-.2.78-.53 1l-12.8 8.53c-.2.12-.44.2-.67.2s-.47-.08-.67-.2L.53 19.26a1.22 1.22 0 0 1-.53-1V9.74c0-.39.2-.78.53-1L13.33.2c.2-.12.44-.2.67-.2s.47.08.67.2l12.8 8.53c.33.22.53.61.53 1z"/></svg>