<svg xmlns="http://www.w3.org/2000/svg" viewBox="0 0 24 28"><path d="M16 14a4 4 0 0 0-8 0 4 4 0 0 0 8 0zm8-1.7v3.47c0 .23-.19.51-.44.56l-2.89.44a8.86 8.86 0 0 1-.6 1.42c.52.76 1.09 1.45 1.66 2.15.1.11.16.25.16.4s-.05.25-.14.35c-.38.5-2.49 2.8-3.02 2.8a.8.8 0 0 1-.4-.14l-2.16-1.69a9.45 9.45 0 0 1-1.42.6c-.11.95-.2 1.97-.45 2.9a.57.57 0 0 1-.57.44h-3.47c-.28 0-.53-.2-.56-.47l-.43-2.87a9.2 9.2 0 0 1-1.41-.58l-2.2 1.67c-.11.1-.25.14-.4.14s-.28-.06-.39-.17c-.82-.75-1.92-1.72-2.57-2.63a.6.6 0 0 1 .01-.71c.53-.72 1.11-1.4 1.64-2.14a8.32 8.32 0 0 1-.64-1.55l-2.86-.42A.57.57 0 0 1 0 15.7v-3.47c0-.24.19-.52.42-.57l2.9-.43c.16-.5.37-.97.62-1.44a37.64 37.64 0 0 0-1.67-2.16c-.1-.1-.16-.23-.16-.37s.06-.25.14-.36c.38-.52 2.48-2.8 3.02-2.8a.7.7 0 0 1 .4.16l2.16 1.67a9.45 9.45 0 0 1 1.42-.6c.1-.95.2-1.96.45-2.9a.57.57 0 0 1 .57-.44h3.46c.28 0 .53.2.57.47l.43 2.88c.49.15.96.34 1.41.57l2.22-1.67c.1-.1.23-.14.37-.14s.28.06.4.16c.82.76 1.92 1.73 2.57 2.65a.53.53 0 0 1 .11.35c0 .14-.04.25-.12.36-.53.72-1.11 1.4-1.64 2.14.26.5.48 1.01.64 1.53l2.86.44a.57.57 0 0 1 .45.56z"/></svg>