<svg xmlns="http://www.w3.org/2000/svg" viewBox="0 0 30 28" id="icon"><path d="M14 14a4 4 0 0 0-8 0 4 4 0 0 0 8 0zm12 8c0-1.1-.9-2-2-2s-2 .9-2 2a2 2 0 0 0 4 0zm0-16c0-1.1-.9-2-2-2s-2 .9-2 2a2 2 0 0 0 4 0zm-6 6.58v2.89c0 .2-.16.44-.36.47l-2.42.37a7.14 7.14 0 0 1-.5 1.2c.44.62.9 1.2 1.4 1.79a.54.54 0 0 1 .11.31.41.41 0 0 1-.1.3c-.32.42-2.07 2.33-2.52 2.33a.6.6 0 0 1-.33-.11l-1.8-1.4a6.7 6.7 0 0 1-1.2.47c-.08.8-.16 1.66-.36 2.43a.5.5 0 0 1-.47.37h-2.9c-.22 0-.44-.17-.47-.39l-.36-2.39a7.76 7.76 0 0 1-1.17-.48L4.7 22.13a.45.45 0 0 1-.31.1.5.5 0 0 1-.33-.12c-.4-.37-2.25-2.05-2.25-2.5 0-.1.05-.2.11-.3.45-.59.92-1.17 1.38-1.78a8.35 8.35 0 0 1-.55-1.28l-2.38-.37a.45.45 0 0 1-.37-.46v-2.89c0-.2.16-.43.36-.47l2.42-.37a7.14 7.14 0 0 1 .5-1.19 25.56 25.56 0 0 0-1.4-1.8.5.5 0 0 1-.01-.62c.32-.42 2.07-2.31 2.52-2.31a.6.6 0 0 1 .33.1l1.8 1.41a8.2 8.2 0 0 1 1.2-.5c.08-.78.15-1.64.36-2.4A.5.5 0 0 1 8.55 4h2.9c.22 0 .44.17.47.4l.36 2.38c.4.13.8.3 1.17.49l1.85-1.4a.48.48 0 0 1 .3-.1.5.5 0 0 1 .34.12c.4.38 2.25 2.06 2.25 2.5a.54.54 0 0 1-.11.3c-.46.6-.92 1.17-1.36 1.78.2.42.39.84.53 1.28l2.37.36c.22.05.38.25.38.47zm10 8.33v2.18c0 .24-2.02.46-2.33.49a3.77 3.77 0 0 1-.47.81c.14.31.8 1.87.8 2.16 0 .04-.02.07-.06.1-.19.11-1.86 1.11-1.94 1.11-.2 0-1.38-1.56-1.53-1.8-.16.02-.31.04-.47.04s-.31-.02-.47-.03c-.16.23-1.33 1.8-1.53 1.8-.08 0-1.75-1-1.94-1.12a.14.14 0 0 1-.06-.1c0-.27.66-1.85.8-2.16a3.84 3.84 0 0 1-.47-.81c-.31-.03-2.33-.25-2.33-.49v-2.18c0-.24 2.02-.46 2.33-.49.12-.28.28-.56.47-.81-.14-.31-.8-1.9-.8-2.16 0-.03.02-.07.06-.1.19-.1 1.86-1.1 1.94-1.1.2 0 1.38 1.55 1.53 1.78.16-.01.31-.03.47-.03s.31.02.47.03c.44-.6.9-1.22 1.44-1.75l.09-.03c.08 0 1.75.98 1.94 1.1a.14.14 0 0 1 .06.1c0 .28-.66 1.85-.8 2.16.19.25.35.53.47.81.32.03 2.33.25 2.33.49zm0-16v2.18c0 .24-2.02.46-2.33.49a3.77 3.77 0 0 1-.47.8c.14.32.8 1.88.8 2.16 0 .05-.02.08-.06.11-.19.11-1.86 1.11-1.94 1.11-.2 0-1.38-1.56-1.53-1.8-.16.02-.31.04-.47.04s-.31-.02-.47-.03c-.16.23-1.33 1.8-1.53 1.8-.08 0-1.75-1-1.94-1.12a.14.14 0 0 1-.06-.1c0-.27.66-1.85.8-2.16a3.84 3.84 0 0 1-.47-.81c-.31-.03-2.33-.25-2.33-.49V4.91c0-.24 2.02-.46 2.33-.49.12-.28.28-.56.47-.81-.14-.31-.8-1.9-.8-2.16 0-.03.02-.07.06-.1.19-.1 1.86-1.1 1.94-1.1.2 0 1.38 1.55 1.53 1.78.16-.02.31-.03.47-.03s.31.02.47.03c.44-.6.9-1.22 1.44-1.75L26 .25c.08 0 1.75.98 1.94 1.1a.14.14 0 0 1 .06.1c0 .28-.66 1.85-.8 2.16.19.25.35.53.47.81.31.03 2.33.25 2.33.49z"/></svg>