<svg xmlns="http://www.w3.org/2000/svg" viewBox="0 0 28 28"><path d="M22 12c0 4.42-4.92 8-11 8-.95 0-1.88-.1-2.75-.25a13.11 13.11 0 0 1-4.34 2 11.58 11.58 0 0 1-1.35.25h-.05c-.23 0-.45-.19-.5-.45-.06-.3.15-.49.32-.7.6-.68 1.3-1.29 1.83-2.58C1.62 16.8 0 14.53 0 12c0-4.42 4.92-8 11-8s11 3.58 11 8zm6 4c0 2.55-1.63 4.8-4.16 6.27.54 1.3 1.22 1.9 1.83 2.59.17.2.38.4.31.69-.06.28-.3.48-.54.45a11.58 11.58 0 0 1-1.35-.25 13.11 13.11 0 0 1-4.34-2c-.88.16-1.8.25-2.75.25-2.83 0-5.42-.78-7.38-2.06a15.34 15.34 0 0 0 10.33-2.66C22.56 17.38 24 14.8 24 12c0-.81-.13-1.6-.36-2.37C26.28 11.08 28 13.39 28 16z"/></svg>