<svg xmlns="http://www.w3.org/2000/svg" viewBox="0 0 30 28"><path d="M9.27 14a5.53 5.53 0 0 0-4.14 2h-2.1C1.47 16 0 15.25 0 13.52 0 12.25-.05 8 1.94 8 2.27 8 3.89 9.33 6 9.33c.72 0 1.4-.13 2.08-.36A7.06 7.06 0 0 0 9.27 14zM26 23.95c0 2.53-1.67 4.05-4.17 4.05H8.17C5.67 28 4 26.48 4 23.95 4 20.42 4.83 15 9.4 15c.54 0 2.48 2.17 5.6 2.17S20.06 15 20.6 15c4.57 0 5.4 5.42 5.4 8.95zM10 4a4 4 0 0 1-8 0 4 4 0 0 1 8 0zm11 6a6 6 0 1 1-12 0 6 6 0 0 1 12 0zm9 3.52c0 1.73-1.47 2.48-3.03 2.48h-2.1a5.53 5.53 0 0 0-4.14-2A7.07 7.07 0 0 0 22 10a7.6 7.6 0 0 0-.08-1.03 6.26 6.26 0 0 0 2.08.36c2.1 0 3.73-1.33 4.06-1.33C30.05 8 30 12.25 30 13.52zM28 4a4 4 0 0 1-8 0 4 4 0 0 1 8 0z"/></svg>