<svg xmlns="http://www.w3.org/2000/svg" viewBox="0 0 32 28" id="icon"><path d="M32 13.98a.89.89 0 0 1-.72.88l-3.2 5.56a.87.87 0 0 1-.66 1.14l-3.01 5.27a.65.65 0 0 1 .04.25.9.9 0 0 1-.89.89.87.87 0 0 1-.64-.28h-6.25a.88.88 0 0 1-1.34 0H9.09a.86.86 0 0 1-.67.31.9.9 0 0 1-.89-.89 1 1 0 0 1 .06-.31l-3.01-5.24a.87.87 0 0 1-.66-1.14L.7 14.86a.9.9 0 0 1-.7-.88c0-.43.31-.8.73-.87l3.11-5.38-.01-.09c0-.36.21-.66.53-.8l3.26-5.67A.82.82 0 0 1 7.56.9.89.89 0 0 1 9.14.33h6.19a.84.84 0 0 1 1.34 0h6.22a.9.9 0 0 1 1.58.56.89.89 0 0 1-.06.28l3.23 5.6a.89.89 0 0 1 .86.87.95.95 0 0 1-.11.42l2.92 5.07a.87.87 0 0 1 .69.86zM16.6 26.47h6.09l-5.35-5.53h-2.23l-5.34 5.53h5.62c.16-.14.38-.25.6-.25s.46.1.62.25zM1.76 13.78c.02.06.02.13.02.2s0 .16-.04.24l3.25 5.62c.08.02.16.07.24.1l2.94-3.11V11.4L5.24 8.37a.98.98 0 0 1-.46.16zM15.41 1.53H9.34l2.97 3.13 8.66-3.13h-4.38a.83.83 0 0 1-1.18 0zm10.98 18.94a.59.59 0 0 1 .08-.17l-1-1.07-.27 1.24h1.2zm-1.66 0 .35-1.64-3.94-4.16-4.63 4.8.99 1h7.23zm-1.37 5.75.25-.44 1.01-4.84h-6.67l5.2 5.36a.56.56 0 0 1 .2-.08zm-14.33.25h.08l5.34-5.53H8.63v5.23l.06.1c.14.04.25.1.34.2zm-.4-6h6.28l1-1.03-4.83-5.02-2.46 2.6v3.45zm-3.02 0h2.55v-2.95l-2.63 2.76.08.19zm-.02-12.9.02.07a.85.85 0 0 1-.13.45l2.68 2.77v-4.2zm3.04-1.09v4.86l2.39 2.46 4.64-4.91-3.49-3.69zm.06-4.75-.07.13v4.12l3.2-1.15-2.98-3.14a2.04 2.04 0 0 1-.15.04zm13.92-.2h-.25l-9.7 3.5 3.32 3.52zm-6.63 7.69-4.64 4.92 4.86 4.98 4.63-4.8zm-5.23 4.87-2.12-2.2v4.44zm5.47 5.7-.66.68h1.33zm5.25-5.45 3.72 3.93 2.06-9.75-.05-.08-.01-.02zm5.37-6.25a.85.85 0 0 1-.12-.45v-.03l-3.38-5.88a.8.8 0 0 1-.2-.07l-6.83 7.23L21.16 14zM8.16 6.16V2.67L5.6 7.07zm0 14.78H5.6l2.55 4.42v-4.42zm16.95 0-.75 3.54 2.03-3.54h-1.28zm1.9-1.1 3.24-5.64a.78.78 0 0 1-.03-.22c0-.09.03-.17.05-.25l-2.68-4.62-2.01 9.56 1.2 1.28a.82.82 0 0 1 .24-.1z"/></svg>