<svg xmlns="http://www.w3.org/2000/svg" viewBox="0 0 28 28" id="icon"><path d="M2.16 2h3.07a12.43 12.43 0 0 0-1.97 2.33c-2.42 3.73-1.43 7.83-.5 12.23.77 3.58 1.41 6.99 3.65 9.44H2.16c-1 0-1.82-.81-1.82-1.81V3.8c0-1 .81-1.81 1.82-1.81zm18.87 0h4.81c1 0 1.82.81 1.82 1.81V24.2c0 1-.82 1.81-1.82 1.81h-2.78c2.07-2.05 3.24-5.02 3.07-8.83l-7.33 1.58c-.1 1.73-.69 3.4-3.07 3.9-1.32.29-2.42-.02-3.1-.62-.85-.72-1.52-1.65-2.65-7-1.14-5.36-.9-6.48-.43-7.48a3.6 3.6 0 0 1 2.57-1.85c2.4-.5 3.61.8 4.41 2.35l7.31-1.57A12.88 12.88 0 0 0 21.04 2z"/></svg>