<svg xmlns="http://www.w3.org/2000/svg" viewBox="0 0 28 28" id="icon"><path d="M0 0h28v28H0V0zm.3.3v8.93h8.93V.3H.3zm9.23 0v8.93h8.94V.3H9.53zm9.24 0v8.93h8.93V.3h-8.93zM14 .8a3.97 3.97 0 0 1 3.95 3.96A3.97 3.97 0 0 1 14 8.71a3.97 3.97 0 0 1-3.95-3.96A3.97 3.97 0 0 1 14 .82zM.3 9.53v8.94h8.93V9.53H.3zm9.23 0v8.94h8.94V9.53H9.53zm9.24 0v8.94h8.93V9.53h-8.93zm4.46.52A3.97 3.97 0 0 1 27.2 14a3.97 3.97 0 0 1-3.96 3.95A3.97 3.97 0 0 1 19.28 14a3.97 3.97 0 0 1 3.95-3.95zM.3 18.77v8.93h8.93v-8.93H.3zm9.23 0v8.93h8.94v-8.93H9.53zm9.24 0v8.93h8.93v-8.93h-8.93zm-14 .51a3.97 3.97 0 0 1 3.95 3.95 3.97 3.97 0 0 1-3.95 3.96A3.97 3.97 0 0 1 .8 23.23a3.97 3.97 0 0 1 3.96-3.95zm9.23 0a3.97 3.97 0 0 1 3.95 3.95A3.97 3.97 0 0 1 14 27.2a3.97 3.97 0 0 1-3.95-3.96A3.97 3.97 0 0 1 14 19.28zm9.23 0a3.97 3.97 0 0 1 3.96 3.95 3.97 3.97 0 0 1-3.96 3.96 3.97 3.97 0 0 1-3.95-3.96 3.97 3.97 0 0 1 3.95-3.95z"/></svg>