<svg xmlns="http://www.w3.org/2000/svg" viewBox="0 0 24 28" id="icon"><path d="M17.97 16.78v1.7c0 2.2-3.52 3.02-5.72 3.02a7.38 7.38 0 0 1-7.5-7.58 7.26 7.26 0 0 1 7.42-7.42c1.55 0 5.6.55 5.6 3.03v1.7c0 .14-.11.25-.25.25h-1.85a.25.25 0 0 1-.25-.25v-1.09c0-.98-1.89-1.44-3.17-1.44-2.92 0-4.95 2.11-4.95 5.14 0 3.15 2.12 5.44 5.08 5.44 1.12 0 3.25-.42 3.25-1.4v-1.1c0-.14.1-.25.23-.25h1.86c.12 0 .25.11.25.25zM12 4a10 10 0 1 0 .02 20.02A10 10 0 0 0 12 4zm12 10a12 12 0 1 1-24 0 12 12 0 0 1 24 0z"/></svg>