<svg xmlns="http://www.w3.org/2000/svg" viewBox="0 0 28 28"><path d="M9.45 19.27c2.56 0 3.96-1.57 4.02-1.63a.5.5 0 0 0 .05-.56l-.7-1.28a.56.56 0 0 0-.38-.27.5.5 0 0 0-.42.17c-.02 0-1 1.05-2.44 1.05a2.65 2.65 0 0 1-2.72-2.77c0-1.59 1.1-2.73 2.65-2.73 1.3 0 2.16.88 2.16.88.11.1.25.17.4.15s.3-.1.38-.22l.83-1.22a.52.52 0 0 0-.03-.6 5.08 5.08 0 0 0-3.8-1.5A5.2 5.2 0 0 0 4.08 14a5.14 5.14 0 0 0 5.37 5.27zm9.85 0c2.57 0 3.95-1.57 4.01-1.63a.53.53 0 0 0 .07-.56l-.7-1.28a.55.55 0 0 0-.4-.27.5.5 0 0 0-.42.17c-.02 0-1 1.05-2.44 1.05a2.65 2.65 0 0 1-2.72-2.77c0-1.59 1.11-2.73 2.66-2.73a3.2 3.2 0 0 1 2.15.88.51.51 0 0 0 .79-.07l.82-1.22a.52.52 0 0 0-.03-.6 5.08 5.08 0 0 0-3.8-1.5A5.2 5.2 0 0 0 13.93 14a5.14 5.14 0 0 0 5.38 5.27zM14 2.5a11.5 11.5 0 0 0 0 23 11.5 11.5 0 0 0 0-23zM14 0a14 14 0 1 1 0 28 14 14 0 0 1 0-28z"/></svg>