<svg xmlns="http://www.w3.org/2000/svg" viewBox="0 0 24 28" id="icon"><path d="M18.7 16H17a1 1 0 0 1-1-1v-2a1 1 0 0 1 1-1h1.7A7.03 7.03 0 0 0 14 7.3V9a1 1 0 0 1-1 1h-2a1 1 0 0 1-1-1V7.3A7.03 7.03 0 0 0 5.3 12H7a1 1 0 0 1 1 1v2a1 1 0 0 1-1 1H5.3a7.03 7.03 0 0 0 4.7 4.7V19a1 1 0 0 1 1-1h2a1 1 0 0 1 1 1v1.7a7.03 7.03 0 0 0 4.7-4.7zm5.3-3v2a1 1 0 0 1-1 1h-2.23A9 9 0 0 1 14 22.77V25a1 1 0 0 1-1 1h-2a1 1 0 0 1-1-1v-2.23A9 9 0 0 1 3.23 16H1a1 1 0 0 1-1-1v-2a1 1 0 0 1 1-1h2.23A9 9 0 0 1 10 5.23V3a1 1 0 0 1 1-1h2a1 1 0 0 1 1 1v2.23A9 9 0 0 1 20.77 12H23a1 1 0 0 1 1 1z"/></svg>