<svg xmlns="http://www.w3.org/2000/svg" viewBox="0 0 28 28"><path d="M.03 27.84 0 27.83V.03h27.8v27.8h-.02l-27.75.01zm9.88-8.34c.28-.02.53-.03.78-.08.53-.1 1.34-.37 1.81-.64l.22-.12-.61-.85-.6-.83-.02.02c-.05.02-.2.1-.24.1-.67.3-1.39.41-2.12.3a3.66 3.66 0 0 1-1.85-.85 7.44 7.44 0 0 1-.36-.35 3.61 3.61 0 0 1-.73-1.25A3.85 3.85 0 0 1 6 13.31c.08-.75.38-1.45.86-2.01a4.24 4.24 0 0 1 .36-.38 3.7 3.7 0 0 1 1.95-.9 3.78 3.78 0 0 1 2.6.56l.04.03 1.11-1.72-.23-.14a5.52 5.52 0 0 0-2.25-.78 5.75 5.75 0 0 0-5.02 1.87A5.71 5.71 0 0 0 4 12.87a4.79 4.79 0 0 0-.07.83c0 .22.02.4.03.6a5.87 5.87 0 0 0 1.38 3.17 5.95 5.95 0 0 0 2.25 1.63 5.8 5.8 0 0 0 1.94.4h.39zm6.45-1.75.45-1.34s.07-.02.9-.02h.9l-.94 2.7h1.88l.45-1.34.47-1.36h1.95l.31-.88c.18-.48.3-.87.3-.87s-.1-.02-.97-.02h-.98l.3-.87.3-.88h.98l.98-.01.61-1.75h-.98c-.66 0-.97-.02-.97-.02l.9-2.62h-1.86l-.46 1.31-.46 1.33h-1.78l.45-1.33.46-1.31h-1.86s-.19.6-.44 1.3l-.47 1.3v.04h-1.64l-.3.87-.31.88.81.01h.83l-.31.88-.3.87h-1.64v.02l-.61 1.75h1.64v.02l-.47 1.34-.45 1.33.92.01h.94zm1.08-3.13.3-.87.3-.88h1.77l-.31.94-.28.82h-1.78z"/></svg>