<svg xmlns="http://www.w3.org/2000/svg" viewBox="0 0 34 28"><path d="m10 25.5 6-3v-4.9l-6 2.56v5.34zm-1-7.1 6.31-2.7L9 13l-6.31 2.7zm17 7.1 6-3v-4.9l-6 2.56v5.34zm-1-7.1 6.31-2.7L25 13l-6.31 2.7zm-7-4.57 6-2.58V7.09l-6 2.57v4.17zM17 7.9l6.9-2.96L17 2l-6.9 2.95zM34 16v6.5c0 .75-.42 1.45-1.1 1.78l-7 3.5c-.29.16-.59.22-.9.22s-.6-.06-.9-.22l-7-3.5a.25.25 0 0 1-.1-.06.26.26 0 0 1-.1.06l-7 3.5c-.29.16-.59.22-.9.22s-.6-.06-.9-.22l-7-3.5A1.97 1.97 0 0 1 0 22.5V16a2 2 0 0 1 1.22-1.84L8 11.25V5a2 2 0 0 1 1.22-1.84l7-3a1.96 1.96 0 0 1 1.56 0l7 3A2.03 2.03 0 0 1 26 5v6.25l6.78 2.9A2 2 0 0 1 34 16z"/></svg>