<svg xmlns="http://www.w3.org/2000/svg" viewBox="0 0 28 28"><path d="M15 14c.55 0 1 .45 1 1s-.45 1-1 1-1-.45-1-1 .45-1 1-1zm4.69 1 7.92 6.22a.97.97 0 0 1 .4.87c-.06.35-.26.65-.56.8l-2 1a1.01 1.01 0 0 1-.94-.02l-10.77-6.04-1.72 1.03-.19.08c.14.48.2 1 .16 1.51-.15 1.61-1.22 3.14-2.94 4.24A8.2 8.2 0 0 1 4.72 26c-1.4 0-2.6-.42-3.47-1.22a3.92 3.92 0 0 1-1.23-3.23c.14-1.6 1.22-3.14 2.92-4.24A8.25 8.25 0 0 1 7.28 16c.88 0 1.68.17 2.36.48a1.2 1.2 0 0 1 .35-.34l1.9-1.14-1.9-1.14a1.2 1.2 0 0 1-.35-.35c-.69.32-1.48.49-2.36.49a8.25 8.25 0 0 1-4.34-1.31C1.24 11.59.16 10.04.02 8.45a3.88 3.88 0 0 1 1.23-3.22A4.96 4.96 0 0 1 4.72 4c1.47 0 3 .47 4.33 1.31 1.72 1.08 2.8 2.63 2.94 4.24a4.13 4.13 0 0 1-.16 1.51.96.96 0 0 1 .19.08l1.72 1.03 10.78-6.05a1.02 1.02 0 0 1 .93-.01l2 1c.3.15.5.45.55.8a.97.97 0 0 1-.39.87zM9.05 10.94c.95-.88.36-2.45-1.33-3.52a5.78 5.78 0 0 0-3-.92 2.6 2.6 0 0 0-1.77.56c-.95.88-.36 2.46 1.33 3.52.95.6 2.05.92 3 .92a2.6 2.6 0 0 0 1.77-.56zM7.72 22.58c1.69-1.06 2.28-2.64 1.33-3.52a2.6 2.6 0 0 0-1.77-.56c-.95 0-2.05.31-3 .92C2.6 20.48 2 22.06 2.95 22.94c.4.37 1.05.56 1.77.56.94 0 2.05-.31 3-.92zM10.5 13l1.5.9v-.17c0-.36.2-.68.52-.87l.22-.13L11.5 12l-.4.4c-.13.13-.22.26-.35.37l-.1.09zm3.5 3.5 1.5.5L27 8l-2-1-12 6.73v1.77L10.5 17l.14.13c.03.04.06.06.11.09.13.12.22.25.34.37l.41.41zM25 23l2-1-8.13-6.38-2.76 2.16c-.05.06-.13.08-.2.11z"/></svg>