<svg xmlns="http://www.w3.org/2000/svg" viewBox="0 0 28 28"><path d="M6 18a2 2 0 1 0-4 0 2 2 0 0 0 4 0zm3-7a2 2 0 1 0-4 0 2 2 0 0 0 4 0zm6.69 7.52 1.58-5.97a1.02 1.02 0 0 0-.72-1.22 1 1 0 0 0-1.22.72l-1.58 5.97a3 3 0 0 0-2.66 2.21 3.01 3.01 0 0 0 2.14 3.68 3.01 3.01 0 0 0 3.68-2.14 3.03 3.03 0 0 0-1.22-3.25zM26 18a2 2 0 1 0-4 0 2 2 0 0 0 4 0zM16 8a2 2 0 1 0-4 0 2 2 0 0 0 4 0zm7 3a2 2 0 1 0-4 0 2 2 0 0 0 4 0zm5 7c0 2.69-.77 5.28-2.2 7.55a1.01 1.01 0 0 1-.85.45H3.05c-.35 0-.66-.17-.85-.45A14.02 14.02 0 0 1 14 4c7.72 0 14 6.28 14 14z"/></svg>