<svg xmlns="http://www.w3.org/2000/svg" viewBox="0 0 28 28" id="icon"><path d="M16.5 13c0 .55.45 1 1 1s1-.45 1-1a5.5 5.5 0 0 0-11 0c0 .55.45 1 1 1s1-.45 1-1a3.5 3.5 0 0 1 7 0zm-3.45-9a9 9 0 0 0-9 9c0 .55.45 1 1 1s1-.45 1-1a7 7 0 0 1 14 0c0 1.84-.83 2.8-1.8 3.9C17.2 18.1 16 19.49 16 22a4 4 0 0 1-4 4c-.55 0-1 .45-1 1s.45 1 1 1a6 6 0 0 0 6-6c0-1.77.78-2.66 1.77-3.78 1.06-1.23 2.28-2.63 2.28-5.22a9 9 0 0 0-9-9zM9.23 15.23l3.53 3.53-9.04 9.05a.64.64 0 0 1-.9 0L.18 25.2a.64.64 0 0 1 0-.9zM25.2.2l2.6 2.6a.66.66 0 0 1 0 .92l-3.64 3.64-.4.4-1.11 1.1a10.54 10.54 0 0 0-3.05-4.03L24.27.2a.66.66 0 0 1 .92 0z"/></svg>