<svg xmlns="http://www.w3.org/2000/svg" viewBox="0 0 23 28"><path d="M.02 9.1c.04-.35-.18-.46.23-.98-.06.27-.1.52-.23.97zM.95 6c0 .28.47-.28.13.48-.63.44-.05.2-.13-.48zM11.78.14c.31-.1.77-.06 1.1-.14-.44.03-.86.05-1.29.1l.2.04zm10.08 12.48a8.2 8.2 0 0 1-.88 2.76 8.37 8.37 0 0 0 .8-2.58zM9.09 15.41l.16.42c-.19-.33-.4-.66-.52-1.03.11.22.2.43.36.6zm-.72.03c.4.73.6.95.88 1.5-.4-.33-.63-.77-.94-1.2zm11.54-3.35c.03.75-.24 1.13-.46 1.77l-.39.2c-.33.64.03.4-.2.9-.52.46-1.56 1.43-1.9 1.53-.24 0 .18-.3.23-.41-.7.47-.57.72-1.61 1l-.03-.06c-2.6 1.22-6.18-1.2-6.13-4.49-.03.2-.08.16-.14.24a4.14 4.14 0 0 1 2.33-4.1 3.9 3.9 0 0 1 4.36.58 3.86 3.86 0 0 0-3.17-1.53c-1.38.02-2.68.89-3.1 1.84-.7.44-.76 1.7-1.08 1.94-.4 3.03.77 4.33 2.78 5.88.32.21.08.25.13.4a5.37 5.37 0 0 1-1.78-1.36c.26.4.55.77.92 1.06-.62-.22-1.45-1.53-1.7-1.57 1.08 1.93 4.4 3.4 6.14 2.68-.8.03-1.83.02-2.74-.3-.37-.2-.89-.62-.8-.7 2.38.9 4.82.68 6.87-.97.51-.4 1.1-1.09 1.26-1.1-.25.37.03.18-.15.51.51-.84-.22-.34.54-1.45l.28.39c-.1-.7.86-1.55.77-2.64.22-.35.25.36.02 1.14.32-.86.07-1.02.15-1.72.1.23.22.5.28.75-.22-.83.22-1.4.33-1.88-.1-.04-.34.36-.39-.62 0-.42.13-.22.17-.33-.08-.04-.3-.37-.44-1 .1-.14.27.4.4.4-.08-.5-.24-.88-.24-1.26-.39-.8-.14.11-.45-.34-.4-1.28.34-.3.39-.88.62.9.98 2.3 1.14 2.88a11.36 11.36 0 0 0-.58-2.05c.19.08-.3-1.45.25-.44-.6-2.15-2.51-4.15-4.28-5.1.22.2.49.45.4.48-.88-.53-.73-.58-.85-.8-.72-.3-.77.02-1.24 0C14.86.84 14.6.94 13.35.48l.06.27c-.9-.3-1.05.1-2.02 0-.06-.05.32-.17.61-.22-.86.1-.83-.17-1.67.03.2-.14.44-.23.66-.36-.7.05-1.68.4-1.38.08-1.15.52-3.2 1.22-4.34 2.3l-.03-.24c-.53.63-2.3 1.9-2.44 2.7l-.14.04c-.27.47-.46 1-.67 1.47-.36.6-.52.23-.47.32a21.82 21.82 0 0 0-1.36 3.61c.22.33.01 1.93.1 3.22-.37 6.38 4.46 12.57 9.74 14 .78.28 1.92.27 2.9.3-1.15-.33-1.3-.17-2.43-.56-.81-.38-.99-.83-1.56-1.33l.23.4c-1.13-.4-.66-.48-1.58-.78l.25-.3c-.36-.04-.97-.63-1.14-.96l-.39.01c-.48-.59-.73-1.01-.72-1.34l-.12.23c-.15-.25-1.79-2.22-.94-1.76-.16-.14-.36-.24-.58-.64l.17-.2c-.4-.52-.75-1.2-.72-1.41.22.3.36.34.5.39-1.01-2.53-1.06-.14-1.84-2.58l.15-.01c-.12-.2-.2-.4-.3-.6l.09-.7c-.74-.85-.22-3.63-.11-5.14.07-.61.62-1.27 1.03-2.3l-.25-.05c.48-.82 2.72-3.34 3.76-3.22.5-.64-.09-.01-.18-.17 1.1-1.15 1.45-.81 2.2-1.01.81-.49-.7.2-.31-.18 1.39-.35.98-.8 2.8-1 .2.11-.43.18-.59.32 1.18-.56 3.68-.44 5.32.31 1.9.9 4.04 3.52 4.12 5.98l.1.03c-.05.99.15 2.11-.19 3.16l.23-.5zM12.17.5 12 .53l.17-.01V.5zM11.7.36c.83.03.75.08.48.14.05-.06-.23-.1-.48-.14zm5.17 11.42c-.08.35-.16-.2-.25-.25.08-.31.31-.58.25.25zm-.92 2.4c.28-.38.47-.8.54-1.24-.06.31-.23.58-.39.86-.87.54-.07-.33 0-.66-.93 1.17-.12.7-.15 1.03zm-2.5.62c-.47 0 .1.23.7.32l.45-.39c-.37.1-.76.1-1.15.07z"/></svg>