<svg xmlns="http://www.w3.org/2000/svg" viewBox="0 0 28 28" id="icon"><path d="M6 8.5v9a.5.5 0 0 1-.5.5.52.52 0 0 1-.36-.14l-4.5-4.5A.52.52 0 0 1 .5 13c0-.13.05-.27.14-.36l4.5-4.5A.52.52 0 0 1 5.5 8c.27 0 .5.23.5.5zm22 12v3a.5.5 0 0 1-.5.5H.5a.51.51 0 0 1-.5-.5v-3c0-.27.23-.5.5-.5h27c.27 0 .5.23.5.5zm0-6v3a.5.5 0 0 1-.5.5h-17a.51.51 0 0 1-.5-.5v-3c0-.27.23-.5.5-.5h17c.27 0 .5.23.5.5zm0-6v3a.5.5 0 0 1-.5.5h-17a.51.51 0 0 1-.5-.5v-3c0-.27.23-.5.5-.5h17c.27 0 .5.23.5.5zm0-6v3a.5.5 0 0 1-.5.5H.5a.51.51 0 0 1-.5-.5v-3c0-.27.23-.5.5-.5h27c.27 0 .5.23.5.5z"/></svg>