<svg xmlns="http://www.w3.org/2000/svg" viewBox="0 0 25 28" id="icon"><path d="M15.7 24.25c14 20.37 13.2 19.28 12.41 18.19L13.31 20.9c-.65-.9-1.17-1.6-1.2-1.6s-1.03 1.36-2.38 3.21a143.6 143.6 0 0 1-2.36 3.2c-.03 0-4.63-3.23-4.64-3.26 0-.02 1.03-1.55 2.3-3.4s2.33-3.38 2.33-3.42c0-.05-.42-.2-3.66-1.28L0 13.12a148.24 148.24 0 0 1 1.7-5.46c.01-.02 1.76.54 3.88 1.24l3.9 1.27c.02 0 .05-.03.06-.07l.04-4.02c.01-2.17.03-3.96.05-3.98.02-.03.62-.04 2.8-.04 1.53 0 2.8 0 2.82.02.02.02.06 1.21.13 3.89.12 4.4.12 4.46.2 4.46l3.73-1.26c2.03-.69 3.7-1.24 3.71-1.22.04.04 1.7 5.46 1.68 5.48 0 .01-1.7.6-3.76 1.29a50.14 50.14 0 0 0-3.75 1.32c0 .03.97 1.49 2.2 3.3a103.3 103.3 0 0 1 2.21 3.27c-.01.04-4.57 3.4-4.6 3.4-.02 0-.6-.8-1.3-1.76z"/></svg>