<svg xmlns="http://www.w3.org/2000/svg" viewBox="0 0 24 28" id="icon"><path d="m8.73 5.06.2.25c-3.7 1.07-5.4 2.7-5.4 2.7s.45-.26 1.22-.6a15.4 15.4 0 0 1 4.66-1.3c.12-.02.23-.05.36-.05A16.63 16.63 0 0 1 20.1 8s-1.62-1.55-5.12-2.6l.29-.34s2.82-.06 5.78 2.16c0 0 2.95 5.36 2.95 11.97 0 0-1.73 2.98-6.28 3.12 0 0-.75-.87-1.36-1.65 2.69-.77 3.72-2.45 3.72-2.45-.84.54-1.64.95-2.36 1.21a14.45 14.45 0 0 1-8.31.86 16.58 16.58 0 0 1-3.02-.89 13.6 13.6 0 0 1-1.5-.69l-.19-.1a.15.15 0 0 1-.07-.07c-.38-.2-.58-.34-.58-.34s.98 1.64 3.6 2.42c-.62.78-1.38 1.7-1.38 1.7C1.72 22.17 0 19.2 0 19.2 0 12.58 2.95 7.22 2.95 7.22 5.91 5 8.74 5.06 8.74 5.06zm-.57 7.66c-1.18 0-2.1 1.03-2.1 2.28s.94 2.28 2.1 2.28c1.17 0 2.09-1.03 2.09-2.28.02-1.25-.92-2.28-2.1-2.28zm7.5 0c-1.18 0-2.1 1.03-2.1 2.28s.94 2.28 2.1 2.28c1.17 0 2.09-1.03 2.09-2.28s-.92-2.28-2.1-2.28z"/></svg>