<svg xmlns="http://www.w3.org/2000/svg" viewBox="0 0 24 28" id="icon"><path d="M2.81.31H21.2A2.82 2.82 0 0 1 24 3.14v24.61l-2.94-2.6-1.66-1.54-1.75-1.64.72 2.55H2.8A2.82 2.82 0 0 1 0 21.69V3.14A2.82 2.82 0 0 1 2.81.31zm7.1 6.4S8 6.65 6.05 8.13c0 0-1.97 3.58-1.97 8 0 0 1.14 2 4.17 2.1 0 0 .52-.63.92-1.15-1.73-.51-2.39-1.62-2.39-1.62s.13.1.38.23l.06.05.12.06a11.97 11.97 0 0 0 3.02 1.06 9.62 9.62 0 0 0 5.53-.57 7.29 7.29 0 0 0 1.58-.81s-.69 1.14-2.48 1.64c.4.51.9 1.1.9 1.1 3.03-.09 4.2-2.09 4.2-2.09 0-4.42-1.98-8-1.98-8-1.97-1.48-3.84-1.44-3.84-1.44l-.2.22a9.1 9.1 0 0 1 3.42 1.75 11.32 11.32 0 0 0-4.13-1.32 11.64 11.64 0 0 0-2.77.03l-.23.03c-.48.04-1.66.22-3.13.86-.5.23-.8.4-.8.4s1.13-1.08 3.6-1.8zm-.4 5.12c.79 0 1.43.67 1.41 1.51 0 .85-.62 1.53-1.4 1.53-.77 0-1.4-.68-1.4-1.53s.61-1.51 1.4-1.51zm5.02 0c.78 0 1.4.67 1.4 1.51s-.62 1.53-1.4 1.53c-.77 0-1.4-.68-1.4-1.53s.62-1.51 1.4-1.51z"/></svg>