<svg xmlns="http://www.w3.org/2000/svg" viewBox="0 0 24 28" id="icon"><path d="M12 2.06a12 12 0 0 1 12 11.97 12 12 0 0 1-24 0A12 12 0 0 1 12 2.06zm0 1.6a10.39 10.39 0 1 0 0 20.75 10.39 10.39 0 1 0 0-20.75zm0 1.23c10.44-.05 13.2 14.34 3.31 17.94-.8.3-2.3.45-2.57.27-.15-.1.09-1.74.46-3.35.32-1.37.44-1.31-1.21-.58a30.53 30.53 0 0 1-1.5.64c-.08.02-.36-.35-.94-1.21a5.58 5.58 0 0 0-.86-1.16L8 19.84c-.78 2.77-.6 2.58-1.73 1.72C-.8 16.26 2.86 5.13 11.75 4.9H12zm.55 1.34c-3.93 0-7.9 4.08-6.49 7.16.22.48.3.47.14-.02-1.03-3.34 3.22-7.25 7.16-6.56 4.4.77 6.81 6.61 3.98 9.58-.76.8-.32.83.49.03 2.87-2.83.26-9.16-4.17-10.08a5.24 5.24 0 0 0-1.11-.1zM6.8 8.41l-.16.01c-2.06.28-2.95 3.02-1.5 4.63.42.47.47.45.35-.08-.29-1.17.1-2.61 1.07-4.03.3-.44.38-.53.24-.53zm5.78.62c-.19 0-.55.42-.55.69 0 .31-.1.34-.39.1-.66-.58-1.92-.83-2.6-.54-.23.1-.23.08.08.13.96.12 1.58 1.17 1.08 1.82a3.4 3.4 0 0 0-.69 1.93c-.06.95-.46 1.26-.8.6-.41-.84.16-2.1.98-2.1.17 0 0-.13-.24-.18-1.39-.26-2.22 2.2-.87 2.61.22.07.1.18-.22.18a1.6 1.6 0 0 1-1.08-.49c-.36-.34-.16.1.38.83.18.25.89 1.31 1.57 2.34 1.47 2.18 1.4 2.07 1.49 2.02l2.04-.94c1.1-.5 2.25-1 2.6-1.12.62-.24 1.3-.58 1.23-.64-.01-.02-.1 0-.17.04-.37.2-1.25.03-1.53-.28-.14-.15-.14-.14.23-.14 1.52 0 1.9-2.27.44-2.7-.25-.08-.28-.11-.31-.4l-.08-.52c-.08-.52 1.22-.93 1.9-.58.29.15.23 0-.15-.33-.58-.52-1-.67-1.86-.67-1.1 0-1.2-.1-.87-.77.14-.3.15-.36.06-.37-.16-.03-.36.17-.47.45-.08.23-.2.31-.3.17-.03-.04.02-.18.1-.31.17-.27.18-.47.04-.47-.12 0-.26.17-.42.47-.06.12-.15.23-.18.23-.1 0-.07-.28.04-.48a.7.7 0 0 0 .1-.31c0-.25-.35.03-.5.39-.08.18-.2.34-.25.34-.14 0-.11-.19.1-.58.08-.2.15-.37.13-.39s-.03-.03-.06-.03zm6.83 3.16c-.08 0-.08.25-.08.92 0 1.56-.36 2.72-1.13 3.53-.4.42-.3.45.5.1a2.8 2.8 0 0 0 .9-4.38c-.09-.11-.15-.17-.2-.17zm-4.07 1.04c.05 0 .1.05.16.13.6.7.4 1.83-.44 2.25-.37.19-.44.17-.58-.13-.12-.25-.12-.25.05-.43.25-.27.53-.86.63-1.35.06-.33.12-.47.18-.47zm-4.72 2.38c.16 0 .32.12.33.34.03.4-.25.61-.56.43-.17-.1-.17-.5.02-.68a.3.3 0 0 1 .22-.1zm1.54.44c.15 0 .3.17.3.43 0 .35-.37.52-.6.29-.16-.16-.14-.43.03-.6a.37.37 0 0 1 .27-.12z"/></svg>