<svg xmlns="http://www.w3.org/2000/svg" viewBox="0 0 16 28" id="icon"><path d="M15.28 18.52c0 3.18-2.28 5.7-5.6 6.25v2.73a.5.5 0 0 1-.5.5h-2.1a.5.5 0 0 1-.5-.5v-2.73a9.89 9.89 0 0 1-5.74-2.8.52.52 0 0 1-.03-.64l1.61-2.11c.08-.11.22-.17.36-.19s.28.03.38.14c.03.02 2.21 2.11 4.98 2.11 1.53 0 3.19-.81 3.19-2.58 0-1.5-1.85-2.23-3.96-3.07-2.8-1.11-6.3-2.52-6.3-6.44 0-2.88 2.24-5.25 5.5-5.88V.51c0-.29.24-.5.5-.5H9.2c.28 0 .5.21.5.5v2.74c3.17.36 4.86 2.08 4.92 2.14a.5.5 0 0 1 .08.6l-1.27 2.28a.46.46 0 0 1-.36.25.52.52 0 0 1-.42-.11A7.19 7.19 0 0 0 8.4 6.72c-1.98 0-3.36.98-3.36 2.4 0 1.66 1.9 2.4 4.13 3.26 2.87 1.1 6.12 2.37 6.12 6.14z"/></svg>