<svg xmlns="http://www.w3.org/2000/svg" viewBox="0 0 26 28" id="icon"><path d="M20 21c0-.55-.45-1-1-1s-1 .45-1 1 .45 1 1 1 1-.45 1-1zm4 0c0-.55-.45-1-1-1s-1 .45-1 1 .45 1 1 1 1-.45 1-1zm2-3.5v5a1.5 1.5 0 0 1-1.5 1.5h-23A1.5 1.5 0 0 1 0 22.5v-5A1.5 1.5 0 0 1 1.5 16h7.27l2.1 2.13a3.03 3.03 0 0 0 4.26 0L17.25 16h7.25a1.5 1.5 0 0 1 1.5 1.5zm-5.08-8.9a.98.98 0 0 1-.22 1.1l-7 7c-.18.2-.45.3-.7.3s-.52-.1-.7-.3l-7-7a.98.98 0 0 1-.22-1.1A1 1 0 0 1 6 8h4V1a1 1 0 0 1 1-1h4a1 1 0 0 1 1 1v7h4c.4 0 .77.25.92.6z"/></svg>