<svg xmlns="http://www.w3.org/2000/svg" viewBox="0 0 24 28"><path d="M16 23.44c-.16-.9-.75-4.03-2.19-7.78l-.06.01s-6.08 2.13-8.05 6.4l-.23-.16A10.3 10.3 0 0 0 12 24.25c1.42 0 2.76-.3 4-.81zm-2.9-9.49a29.02 29.02 0 0 0-.82-1.73C7 13.8 1.94 13.67 1.77 13.67c-.02.11-.02.22-.02.33 0 2.63 1 5.03 2.62 6.84 2.8-4.98 8.33-6.76 8.33-6.76.14-.05.28-.08.4-.13zm-1.66-3.3a61.66 61.66 0 0 0-3.81-5.92 10.27 10.27 0 0 0-5.66 7.16c.27 0 4.55.05 9.47-1.25zm10.69 4.97c-.22-.06-3.08-.96-6.4-.45 1.35 3.7 1.9 6.72 2 7.33a10.3 10.3 0 0 0 4.4-6.88zM9.54 4.05l-.03.01.03-.01zm9.22 2.26a10.17 10.17 0 0 0-9.2-2.26c.16.2 2.1 2.75 3.85 5.97 3.86-1.44 5.31-3.66 5.35-3.7zm3.48 7.58a10.27 10.27 0 0 0-2.33-6.4c-.03.03-1.67 2.4-5.72 4.06.24.48.47.98.7 1.48.07.17.13.36.21.53 3.53-.45 7.02.32 7.14.33zM24 14a12 12 0 1 1-24 0 12 12 0 0 1 24 0z"/></svg>