<svg xmlns="http://www.w3.org/2000/svg" viewBox="0 0 32 28" id="icon"><path d="M14 18.94c0-2.07-.5-4.44-2.56-4.44a3.46 3.46 0 0 1-4.88 0C4.5 14.5 4 16.87 4 18.94 4 20.08 4.75 21 5.67 21h6.66c.92 0 1.67-.92 1.67-2.06zM12 12a3 3 0 0 0-6 0 3 3 0 0 0 6 0zm16 7.5v-1a.5.5 0 0 0-.5-.5h-11a.5.5 0 0 0-.5.5v1c0 .28.22.5.5.5h11a.5.5 0 0 0 .5-.5zm-6-4v-1a.5.5 0 0 0-.5-.5h-5a.5.5 0 0 0-.5.5v1c0 .28.22.5.5.5h5a.5.5 0 0 0 .5-.5zm6 0v-1a.5.5 0 0 0-.5-.5h-3a.5.5 0 0 0-.5.5v1c0 .28.22.5.5.5h3a.5.5 0 0 0 .5-.5zm0-4v-1a.5.5 0 0 0-.5-.5h-11a.5.5 0 0 0-.5.5v1c0 .28.22.5.5.5h11a.5.5 0 0 0 .5-.5zM2 6h28V4.5a.5.5 0 0 0-.5-.5h-27a.5.5 0 0 0-.5.5V6zm30-1.5v19a2.5 2.5 0 0 1-2.5 2.5h-27A2.5 2.5 0 0 1 0 23.5v-19A2.5 2.5 0 0 1 2.5 2h27A2.5 2.5 0 0 1 32 4.5z"/></svg>