<svg xmlns="http://www.w3.org/2000/svg" viewBox="0 0 32 28"><path d="M14 18.94c0 1.14-.75 2.06-1.67 2.06H5.67C4.75 21 4 20.08 4 18.94c0-2.07.5-4.44 2.56-4.44a3.46 3.46 0 0 0 4.88 0c2.06 0 2.56 2.37 2.56 4.44zM12 12a3 3 0 0 1-6 0 3 3 0 0 1 6 0zm16 6.5v1a.5.5 0 0 1-.5.5h-11a.5.5 0 0 1-.5-.5v-1c0-.28.22-.5.5-.5h11c.28 0 .5.22.5.5zm-6-4v1a.5.5 0 0 1-.5.5h-5a.5.5 0 0 1-.5-.5v-1c0-.28.22-.5.5-.5h5c.28 0 .5.22.5.5zm6 0v1a.5.5 0 0 1-.5.5h-3a.5.5 0 0 1-.5-.5v-1c0-.28.22-.5.5-.5h3c.28 0 .5.22.5.5zm0-4v1a.5.5 0 0 1-.5.5h-11a.5.5 0 0 1-.5-.5v-1c0-.28.22-.5.5-.5h11c.28 0 .5.22.5.5zm2 13V6H2v17.5c0 .27.23.5.5.5h27a.5.5 0 0 0 .5-.5zm2-19v19a2.5 2.5 0 0 1-2.5 2.5h-27A2.5 2.5 0 0 1 0 23.5v-19A2.5 2.5 0 0 1 2.5 2h27A2.5 2.5 0 0 1 32 4.5z"/></svg>