<svg xmlns="http://www.w3.org/2000/svg" viewBox="0 0 24 28"><path d="M18.23 24.78c-.03-.1-.12-.27-.37-.08-.53.4-1.72.88-3.4.88s-2.5-.36-3.02-.77c-.08-.06-.05-.06-.2-.06-.18 0-.27.08-.41.19a.4.4 0 0 0 0 .56c1.15 1.06 3.1.97 4.51.84a5.85 5.85 0 0 0 2.79-1.1c.18-.2.14-.35.1-.46zm-.6-1.8c-.11-.26-.3-.73-.61-.95-.32-.2-.77-.23-1.2-.23s-.65-.03-1.1.15-.92.61-1.22.88-.34.47-.19.69c.16.2.33.07.77-.3.45-.36.75-.69 1.67-.69s1.08.34 1.27.69.2.39.39.3c.22-.11.33-.27.22-.54zm5.54-4.39c0-.8-.36-2.18-1.69-2.18-1.25 0-3.78 2.59-5.1 2.6-1.55.04-3.7-3.06-6.79-3.03C7.16 16 5.24 17.94 5.2 20c-.01 1.16.36 2.02 1.16 2.56.53.36 1.02.58 2.6.58 2.62 0 5.95-3.25 7.48-3.2 1.22.04 3.1 3.03 4.06 3.1.75.05 1.14-.29 1.78-1.21.63-.94.9-2.4.9-3.24zm.83-2.5c0 7-5.53 11.63-11.9 11.63S0 22.7 0 15.88 5.31 5.9 6.3 5.38c1.17-.62 2.01-.95 3.34-2.01.66-.52 1.2-1.27 1.38-3.1a18.88 18.88 0 0 0 2.9 3.02c1.33.87 2.66 1.22 4.05 2.1.84.5 6.03 3.68 6.03 10.7z"/></svg>