<svg xmlns="http://www.w3.org/2000/svg" viewBox="0 0 28 28"><path d="m13.88 18.5 1.8-1.81-2.37-2.38-1.81 1.82V17H13v1.5h.88zm6.87-11.25a.37.37 0 0 0-.52.02l-5.46 5.47c-.15.14-.16.37-.02.51s.37.13.52-.02l5.46-5.46c.15-.15.16-.38.02-.52zM22 16.53v2.97a4.5 4.5 0 0 1-4.5 4.5h-13A4.5 4.5 0 0 1 0 19.5v-13A4.5 4.5 0 0 1 4.5 2h13c.63 0 1.25.13 1.83.4.14.05.25.2.28.35a.5.5 0 0 1-.14.45l-.77.77a.47.47 0 0 1-.5.12 2.7 2.7 0 0 0-.7-.09h-13A2.5 2.5 0 0 0 2 6.5v13A2.5 2.5 0 0 0 4.5 22h13a2.5 2.5 0 0 0 2.5-2.5v-1.97a.5.5 0 0 1 .14-.34l1-1c.16-.16.36-.19.55-.11s.31.25.31.45zM20.5 5 25 9.5 14.5 20H10v-4.5zm6.94 2.06L26 8.5 21.5 4l1.44-1.44a1.52 1.52 0 0 1 2.12 0l2.38 2.38a1.52 1.52 0 0 1 0 2.12z"/></svg>