<svg xmlns="http://www.w3.org/2000/svg" viewBox="0 0 27 28" id="icon"><path d="M20.95 12.25c.55-.84-.1-2.98-2-4.25-1.89-1.27-4.3-1.17-4.87-.33-.55.83.62.3 2.76 1.1 3.54 1.3 3.57 4.32 4.11 3.48zm5.67 8.97C22.2 32.09 2.29 29.34 2.7 15.24c.05-1.8.55-3 1.06-4.72-3.3 13.5 15.1 21.36 22.65 10.7.28-.4.35-.36.21 0zM22.9 14.2c0 4.43-3.56 8.02-7.95 8.02s-7.96-3.6-7.96-8.02 3.57-8.01 7.96-8.01 7.95 3.6 7.95 8.01zm4.48-4.5C21.82-2.92-1.16 1.73 1.4 18.9-3.89 1.7 17.87-6.18 25.92 6.07c.66 1 1.4 2.75 1.45 3.64zm-.96 5.35c.26-5.28-3.4-8.9-8.33-10.25-.08 0-.42-.14.22-.2 12.06.4 12.5 19.68-.64 19.9 4.28-1.19 8.48-4.16 8.75-9.45z"/></svg>