<svg xmlns="http://www.w3.org/2000/svg" viewBox="0 0 33 28"><path d="M2.17 28H2.1a2.25 2.25 0 0 1-1.03-.34 2.3 2.3 0 0 1-.95-1.22 1.97 1.97 0 0 1-.1-.53V10.1a2.3 2.3 0 0 1 1.73-2.05l.07-.01v17.73l.02.03a.59.59 0 0 0 .08.17l.1.11a.56.56 0 0 0 .18.08l.03.02 21.05-.02a.5.5 0 0 0 .37-.4v-.27h1.82v.45c-.05.52-.29 1-.66 1.38a2.3 2.3 0 0 1-1.5.67H2.17zm3.63-3.94a2.3 2.3 0 0 1-1-.3 1.9 1.9 0 0 1-.49-.37 2.27 2.27 0 0 1-.42-.6 2.18 2.18 0 0 1-.23-.84V6.17c.03-.31.1-.56.22-.82A2.34 2.34 0 0 1 5.4 4.13a.07.07 0 0 0 .04-.02v8.44c0 4.64.02 8.62.02 8.86v.46a.59.59 0 0 0 .08.18l.1.1a.67.67 0 0 0 .2.08c.03 0 .48.02 10.53.02 10.25 0 10.5-.02 10.53-.02a.48.48 0 0 0 .35-.3c.02-.07.02-.06.02-.29v-.2h1.83v.2c0 .2 0 .28-.02.38a2.33 2.33 0 0 1-.86 1.56 2.27 2.27 0 0 1-1.28.48H5.8zM9.44 20a2.36 2.36 0 0 1-.66-.14.8.8 0 0 1-.23-.1 2.33 2.33 0 0 1-.6-.43 2.2 2.2 0 0 1-.65-1.5c0-.05-.02-1.7-.02-5.72l.02-5.66.04.05a8.64 8.64 0 0 0 1.33 1.16l.9.6a309.31 309.31 0 0 1 3.79 2.6c.94.65 1.89 1.34 2.53 1.81.56.4.92.66 1.28.88.88.54 1.64.87 2.36.96.3.05.6.05.9.02a4.42 4.42 0 0 0 1.3-.37c.24-.11.5-.24.75-.38a17.4 17.4 0 0 0 1.63-1.1c.55-.4 1.6-1.15 2.55-1.8a272.87 272.87 0 0 1 4.25-2.91c.42-.28.46-.33.57-.4a7.56 7.56 0 0 0 1.25-1.1l.02-.02v5.7c0 5.38-.02 5.72-.02 5.77a2.4 2.4 0 0 1-.23.83A2.28 2.28 0 0 1 30.6 20H9.43zm10.48-7.27-.15-.03a4.5 4.5 0 0 1-1.64-.68 16.98 16.98 0 0 1-1.22-.85l-.72-.52c-.94-.65-2-1.4-3.32-2.3L10.2 6.47c-.15-.09-.38-.26-.52-.36l-.13-.09a7.06 7.06 0 0 1-1.59-1.67 4.02 4.02 0 0 1-.58-1.2 3.08 3.08 0 0 1 .03-1.5 3 3 0 0 1 .32-.7A1.99 1.99 0 0 1 8.84.08L9.4 0h21.25l.39.06a2.3 2.3 0 0 1 1.7 1.99c.02.15.02.36 0 .54A4.1 4.1 0 0 1 32 4.5a6.53 6.53 0 0 1-1.6 1.62l-1.74 1.2c-2.16 1.5-3.2 2.2-4.32 3l-1.12.8c-.66.48-.95.67-1.3.9s-.65.38-.94.5a2.57 2.57 0 0 1-.86.21l-.2.02z"/></svg>