<svg xmlns="http://www.w3.org/2000/svg" viewBox="0 0 33 28" id="icon"><path d="M2.17 28H2.1a2.25 2.25 0 0 1-1.03-.34 2.3 2.3 0 0 1-.95-1.22 1.97 1.97 0 0 1-.1-.53V10.1a2.3 2.3 0 0 1 1.73-2.05l.07-.01v17.73l.02.03a.59.59 0 0 0 .08.17l.1.11a.56.56 0 0 0 .18.08l.03.02 21.05-.02a.5.5 0 0 0 .37-.4v-.27h1.82v.45c-.05.52-.29 1-.66 1.38a2.3 2.3 0 0 1-1.5.67H2.17zm3.63-3.94a2.3 2.3 0 0 1-1-.3 1.9 1.9 0 0 1-.49-.37 2.27 2.27 0 0 1-.42-.6 2.18 2.18 0 0 1-.23-.84V6.17c.03-.31.1-.56.22-.82A2.34 2.34 0 0 1 5.4 4.13l.04-.02v8.42c0 4.64.02 8.64.02 8.88v.47a.59.59 0 0 0 .08.17l.1.1a.67.67 0 0 0 .2.09l10.53.01 10.53-.01a.48.48 0 0 0 .35-.32c.02-.06.02-.04.02-.28v-.2h1.83v.2c0 .2 0 .28-.02.38a2.33 2.33 0 0 1-.86 1.56 2.27 2.27 0 0 1-1.28.48H5.8zM9.44 20a2.36 2.36 0 0 1-.66-.14.8.8 0 0 1-.23-.1 2.33 2.33 0 0 1-.6-.43 2.1 2.1 0 0 1-.43-.61 2.13 2.13 0 0 1-.22-.88V2.04A2.27 2.27 0 0 1 8.73.16c.22-.07.43-.14.68-.15h21.23l.33.05a2.26 2.26 0 0 1 1.78 2.1v7.9c0 7.39-.02 7.82-.02 7.87a2.4 2.4 0 0 1-.23.83A2.28 2.28 0 0 1 30.6 20H9.43zm21.12-1.83c.1-.03.17-.06.24-.12s.09-.14.12-.24v-5.5l.02-5.5-.05.05a7.43 7.43 0 0 1-.88.84l-.2.16a183.57 183.57 0 0 0-5.97 4.75c-.14.13-.31.25-.37.3-.69.56-1.19.92-1.7 1.18s-1 .4-1.47.44a3.48 3.48 0 0 1-.58 0 4.57 4.57 0 0 1-2.02-.78 13.47 13.47 0 0 1-1.39-1.04 183.46 183.46 0 0 0-6.01-4.79 3.83 3.83 0 0 1-.26-.2 8.21 8.21 0 0 1-.92-.89l-.01-.02v11.02c.01.06.04.1.07.16a.36.36 0 0 0 .11.1.6.6 0 0 0 .2.1h21.04zm-10.44-5.45a1.9 1.9 0 0 0 .65-.17l.3-.14a8.45 8.45 0 0 0 1.15-.82l.62-.53c.24-.18.25-.22.68-.54a740.7 740.7 0 0 1 4.96-3.93c.41-.3.43-.34.5-.4a6.9 6.9 0 0 0 1.66-2.2 3.14 3.14 0 0 0 .28-1.08l.02-.5a1.02 1.02 0 0 0-.1-.4.39.39 0 0 0-.3-.18c-.04 0-3-.02-10.54-.02H9.5l-.03.02c-.08.01-.14.06-.2.1s-.1.13-.13.2a.26.26 0 0 0-.03.14l.02.32c.06 1.03.46 2 1.17 2.85.17.2.39.44.6.62l.65.52a600.7 600.7 0 0 1 5.03 3.98l.66.53c.51.44.7.6.96.8.29.22.5.36.74.48.37.22.7.35.98.36l.2-.01z"/></svg>