<svg xmlns="http://www.w3.org/2000/svg" viewBox="0 0 28 28" id="icon"><path d="M13.66 25.6v1.02a12.69 12.69 0 0 1-10.44-6.01l.9-.53c.33.55.72 1.06 1.15 1.55l1.01-.9a10.32 10.32 0 0 0 5.75 3.32l-.26 1.34c.6.11 1.25.19 1.89.2zM4.3 17.3l-1.3.44c.22.61.47 1.19.77 1.75l-.89.52a12.6 12.6 0 0 1 0-12.03l.9.51a11.07 11.07 0 0 0-.77 1.75l1.28.44a10.1 10.1 0 0 0 .01 6.63zm19.57 2.77.9.53a12.7 12.7 0 0 1-10.44 6.02v-1.04a12.6 12.6 0 0 0 1.9-.2l-.27-1.34a10.32 10.32 0 0 0 5.75-3.32l1.02.9a11 11 0 0 0 1.14-1.55zm-2.36-8.66-3.65 1.25a4.14 4.14 0 0 1 0 2.66l3.63 1.25a7.71 7.71 0 0 1-1.53 2.64l-2.9-2.53a4.07 4.07 0 0 1-2.29 1.33l.75 3.76a8.05 8.05 0 0 1-3.06 0l.75-3.76a4.07 4.07 0 0 1-2.3-1.33l-2.89 2.53a7.7 7.7 0 0 1-1.53-2.64l3.63-1.25a4.14 4.14 0 0 1 0-2.66l-3.65-1.25a8.02 8.02 0 0 1 1.55-2.64l2.9 2.53a4.1 4.1 0 0 1 2.29-1.34l-.75-3.75a7 7 0 0 1 3.06 0l-.75 3.75a4.1 4.1 0 0 1 2.3 1.34l2.89-2.53a8 8 0 0 1 1.55 2.64zM13.66 1.38V2.4c-.65.01-1.29.07-1.9.2l.27 1.34a10.2 10.2 0 0 0-5.75 3.3l-1.02-.87c-.42.46-.8.98-1.14 1.53l-.89-.52a12.63 12.63 0 0 1 10.42-6.02zM26.64 14c0 2.17-.56 4.23-1.53 6.02l-.9-.52c.3-.56.56-1.14.78-1.75l-1.3-.44a10.1 10.1 0 0 0 .01-6.62l1.28-.44a10.98 10.98 0 0 0-.76-1.75l.89-.52A12.6 12.6 0 0 1 26.64 14zm-1.87-6.6-.9.5a11.15 11.15 0 0 0-1.14-1.52l-1.01.87a10.2 10.2 0 0 0-5.75-3.3l.26-1.34a10.8 10.8 0 0 0-1.89-.2V1.38a12.63 12.63 0 0 1 10.43 6.01zM27.3 14A13.32 13.32 0 0 0 .7 14a13.32 13.32 0 0 0 26.62 0zm.69 0a14 14 0 1 1-28 0 14 14 0 0 1 28 0z"/></svg>