<svg xmlns="http://www.w3.org/2000/svg" viewBox="0 0 28 28" id="icon"><path d="m23.03 14.27.61.8a.5.5 0 0 1-.08.68l-5.31 4.11c-1.11.9-2.61 2.16-4.23 2.14h-.04c-1.62 0-3.12-1.23-4.23-2.14l-5.17-4a.48.48 0 0 1-.1-.69l.58-.81a.5.5 0 0 1 .72-.1 860.51 860.51 0 0 0 4.78 3.7c.78.59 2.33 2.04 3.42 2.04h.04c1.09 0 2.64-1.45 3.42-2.05 2.3-1.76 3.82-2.94 4.89-3.78a.5.5 0 0 1 .7.1zM26 25.5V11c-1.56-1.45-1.33-1.33-8.56-6.92C16.66 3.47 15.1 2 14 2h-.03c-1.09 0-2.64 1.47-3.42 2.08C3.33 9.68 3.56 9.55 2 11v14.5c0 .27.23.5.5.5h23c.26 0 .5-.23.5-.5zM28 11v14.5a2.5 2.5 0 0 1-2.5 2.5h-23A2.5 2.5 0 0 1 0 25.5V11a2 2 0 0 1 .64-1.47c3.2-2.97 6.9-5.55 9.11-7.37 1.1-.91 2.6-2.16 4.23-2.16h.03c1.63 0 3.15 1.25 4.24 2.16 2.06 1.7 5.98 4.46 9.1 7.37A2 2 0 0 1 28 11z"/></svg>