<svg xmlns="http://www.w3.org/2000/svg" viewBox="0 0 28 28"><path d="M26 23.5v-12a8.4 8.4 0 0 1-1.08 1.03 216.05 216.05 0 0 0-6.65 5.28c-1.18.99-2.63 2.19-4.25 2.19h-.03c-1.63 0-3.08-1.2-4.25-2.19a213.06 213.06 0 0 0-6.66-5.28A8.41 8.41 0 0 1 2 11.5v12c0 .27.23.5.5.5h23a.5.5 0 0 0 .5-.5zm0-16.42c0-.4.1-1.08-.5-1.08h-23a.5.5 0 0 0-.5.5c0 1.78.9 3.33 2.3 4.44a980.43 980.43 0 0 1 6.26 4.95C11.4 16.56 12.9 18 14 18h.03c1.09 0 2.59-1.44 3.42-2.1a946.2 946.2 0 0 1 6.26-4.96c1.02-.8 2.3-2.53 2.3-3.86zm2-.58v17a2.5 2.5 0 0 1-2.5 2.5h-23A2.5 2.5 0 0 1 0 23.5v-17A2.5 2.5 0 0 1 2.5 4h23A2.5 2.5 0 0 1 28 6.5z"/></svg>