<svg xmlns="http://www.w3.org/2000/svg" viewBox="0 0 28 28"><path d="M28 10.22V25.5a2.5 2.5 0 0 1-2.5 2.5h-23A2.5 2.5 0 0 1 0 25.5V10.22a.5.5 0 0 1 .17-.38c1.64-1.43 1.66-1.6 9.81-7.56C10.97 1.56 12.7 0 14 0s3.05 1.58 4.02 2.28c8.15 5.96 8.17 6.13 9.8 7.56a.5.5 0 0 1 .18.38zm-8.81 9.14c2.43-1.77 4.14-3 5.39-3.94a.48.48 0 0 0 .1-.69l-.6-.8a.5.5 0 0 0-.7-.1c-1.24.9-2.93 2.15-5.36 3.9-.97.7-2.72 2.27-4.02 2.27s-3.05-1.56-4.02-2.27l-5.36-3.9a.5.5 0 0 0-.7.1l-.6.8a.48.48 0 0 0 .1.7c1.25.93 2.95 2.16 5.4 3.93 1.2.87 3.12 2.64 5.18 2.64 2.06 0 4.03-1.8 5.19-2.64z"/></svg>