<svg xmlns="http://www.w3.org/2000/svg" viewBox="0 0 24 28" id="icon"><path d="M19.5 2A4.5 4.5 0 0 1 24 6.5v15a4.5 4.5 0 0 1-4.5 4.5h-15A4.5 4.5 0 0 1 0 21.5v-15A4.5 4.5 0 0 1 4.5 2h15zm.5 16.5v-6.81a4.77 4.77 0 0 1-1 .86c-1.47.97-2.98 1.87-4.44 2.87-.73.52-1.64 1.08-2.56 1.08-.92 0-1.83-.56-2.56-1.08-1.45-1-2.99-1.89-4.44-2.89-.36-.23-.64-.58-1-.84v6.8A1.5 1.5 0 0 0 5.5 20h13a1.5 1.5 0 0 0 1.5-1.5zm0-8.95A1.5 1.5 0 0 0 18.5 8h-13A1.5 1.5 0 0 0 4 9.5c0 .84.88 1.77 1.53 2.2 1.38.93 2.8 1.78 4.17 2.7.6.38 1.58 1.1 2.3 1.1s1.7-.72 2.3-1.1c1.39-.92 2.78-1.8 4.17-2.73.6-.4 1.53-1.34 1.53-2.12z"/></svg>