<svg xmlns="http://www.w3.org/2000/svg" viewBox="0 0 24 28"><path d="M8.1 2.86v10.23c3.62.03 5.52-.15 5.52-.15 1.47-.05 1.7-.43 2.04-1.86l.51-2.22h1.61l-.22 5.03.11 4.98h-1.6l-.46-1.98c-.33-1.48-.97-1.84-2.02-1.86 0 0-1.34-.12-5.5-.12v8.68c0 1.63.9 2.4 2.77 2.4h5.58c1.87 0 3.56-.2 4.72-2.86l1.45-3.38H24c-.1.67-.86 6.88-.97 8.25-5.14-.19-7.34-.19-7.34-.19H5.88L0 28v-1.6l1.98-.38c1.4-.27 1.82-.68 1.83-1.82.1-3.78.13-10.04.13-10.04s.04-6.29-.13-10.08c-.04-1.3-.44-1.61-1.83-1.88L0 1.83V.23l5.88.19h10.96s2.18 0 5.85-.42c-.22 2.39-.49 7.9-.49 7.9h-1.45l-.5-1.93c-.6-2.43-1.42-3.72-2.92-3.72H8.77c-.64 0-.68.22-.68.6z"/></svg>