<svg xmlns="http://www.w3.org/2000/svg" viewBox="0 0 16 28" id="icon"><path d="m15.25 20.42.55 2.49c.06.25-.08.5-.32.57-.06.02-1.51.52-3.39.52A10.2 10.2 0 0 1 2 16.47H.5a.5.5 0 0 1-.5-.5V14.2c0-.26.22-.5.5-.5h1.03c-.02-.5-.02-1.1.02-1.64H.5a.5.5 0 0 1-.5-.5V9.78c0-.28.22-.5.5-.5h1.53C3.43 4.91 7.43 2 12.1 2c1.63 0 2.97.34 3.03.36a.58.58 0 0 1 .32.23.5.5 0 0 1 .04.38l-.67 2.48a.47.47 0 0 1-.6.35s-1.07-.27-2.18-.27a6.29 6.29 0 0 0-5.87 3.75h7.3c.16 0 .3.06.4.19a.48.48 0 0 1 .1.4l-.37 1.78a.5.5 0 0 1-.5.41H5.47c-.05.5-.03 1.03 0 1.64h7.17c.16 0 .3.08.4.19.09.12.12.28.09.42l-.38 1.75a.5.5 0 0 1-.48.4H6.22a6.28 6.28 0 0 0 5.9 3.98c1.37 0 2.48-.38 2.49-.38a.53.53 0 0 1 .4.03.54.54 0 0 1 .24.33z"/></svg>