<svg xmlns="http://www.w3.org/2000/svg" viewBox="0 0 24 28"><path d="M11.8 16.5a.54.54 0 0 1-.16.36l-5.19 5.19L8.7 24.3a1 1 0 0 1 .3.7 1 1 0 0 1-1 1H1a1 1 0 0 1-1-1v-7a1 1 0 0 1 1-1 .99.99 0 0 1 .7.3l2.25 2.25 5.2-5.2c.09-.08.23-.15.35-.15s.27.07.36.16l1.78 1.78a.54.54 0 0 1 .16.36zM24 3v7a1 1 0 0 1-1 1 .99.99 0 0 1-.7-.3l-2.25-2.25-5.19 5.19c-.1.1-.23.16-.36.16s-.27-.07-.36-.16l-1.78-1.78c-.1-.1-.16-.23-.16-.36s.07-.27.16-.36l5.19-5.19L15.3 3.7A1 1 0 0 1 15 3a1 1 0 0 1 1-1h7a1 1 0 0 1 1 1z"/></svg>