<svg xmlns="http://www.w3.org/2000/svg" viewBox="0 0 28 28" id="icon"><path d="M14 1a13.01 13.01 0 0 0 0 26 13.01 13.01 0 0 0 0-26zm0-1a14 14 0 1 1 0 28 14 14 0 0 1 0-28zM7.75 13c.14 0 .25.1.25.25v7.5c0 .14-.1.25-.25.25h-.5a.25.25 0 0 1-.25-.25v-7.5c0-.14.1-.25.25-.25h.5zM14 14a1.99 1.99 0 0 1 1 3.72v1.78a.5.5 0 0 1-.5.5h-1a.5.5 0 0 1-.5-.5v-1.78A2 2 0 0 1 14 14zm0-12a12 12 0 1 1 0 24 12 12 0 0 1 0-24zM8.5 9.5V11c0 .28.22.5.5.5h1a.5.5 0 0 0 .5-.5V9.5a3.5 3.5 0 1 1 7 0V11c0 .28.22.5.5.5h1a.5.5 0 0 0 .5-.5V9.5a5.5 5.5 0 0 0-11 0zM22 21v-8a1 1 0 0 0-1-1H7a1 1 0 0 0-1 1v8a1 1 0 0 0 1 1h14a1 1 0 0 0 1-1z"/></svg>