<svg xmlns="http://www.w3.org/2000/svg" viewBox="0 0 28 28"><path d="m8.67 20.86 1.22-2.2a6.95 6.95 0 0 1-1.94-9.17A15.77 15.77 0 0 0 2 15a15.73 15.73 0 0 0 6.67 5.86zM14.75 9a.76.76 0 0 0-.75-.75A4.77 4.77 0 0 0 9.25 13c0 .4.34.75.75.75s.75-.34.75-.75A3.26 3.26 0 0 1 14 9.75a.76.76 0 0 0 .75-.75zm5.67-2.98-.01.14c-3.3 5.89-6.57 11.81-9.86 17.7l-.77 1.4a.52.52 0 0 1-.44.24c-.28 0-1.76-.9-2.1-1.1a.5.5 0 0 1-.24-.43c0-.25.53-1.1.69-1.36A17.44 17.44 0 0 1 .3 16.08a2 2 0 0 1 0-2.16C3.41 9.17 8.23 6 14 6c.94 0 1.89.1 2.81.27l.85-1.52a.5.5 0 0 1 .43-.25c.28 0 1.75.9 2.08 1.1.16.09.25.25.25.42zM21 13a6.99 6.99 0 0 1-4.5 6.53l4.38-7.84c.07.43.12.87.12 1.31zm7 2a2 2 0 0 1-.31 1.08c-.49.8-1.1 1.56-1.7 2.26A15.82 15.82 0 0 1 14 24l1.16-2.06c4.54-.4 8.4-3.16 10.84-6.94a16.24 16.24 0 0 0-4.4-4.6l.98-1.74a17.76 17.76 0 0 1 5.1 5.26c.21.35.32.67.32 1.08z"/></svg>