<svg xmlns="http://www.w3.org/2000/svg" viewBox="0 0 28 28"><path d="M26 15a15.77 15.77 0 0 0-5.95-5.52A7 7 0 1 1 7 13c0-1.23.33-2.45.95-3.52A15.77 15.77 0 0 0 2 15c2.67 4.13 6.98 7 12 7s9.33-2.88 12-7zM14.75 9a.76.76 0 0 0-.75-.75A4.77 4.77 0 0 0 9.25 13c0 .4.34.75.75.75s.75-.34.75-.75A3.27 3.27 0 0 1 14 9.75a.76.76 0 0 0 .75-.75zM28 15c0 .4-.13.75-.31 1.08C24.8 20.8 19.55 24 14 24S3.19 20.8.31 16.08C.13 15.75 0 15.39 0 15s.13-.75.31-1.08C3.2 9.2 8.45 6 14 6s10.81 3.2 13.69 7.92c.18.33.31.69.31 1.08z"/></svg>