<svg xmlns="http://www.w3.org/2000/svg" viewBox="0 0 26 28" id="icon"><path d="M.73.16c.2 0 .46.12.57.28L3.28 3c.16-.05.42-.1.58-.1h18.47c.15 0 .42.05.58.1L24.89.44a.84.84 0 0 1 .53-.28h.08a.73.73 0 0 1 .69.71.8.8 0 0 1-.16.46l-2.08 2.69c.06.17.11.45.11.62v4.03a1.74 1.74 0 0 1-1.73 1.74H3.86a1.74 1.74 0 0 1-1.74-1.74V4.64c0-.17.05-.45.11-.62L.15 1.32A.8.8 0 0 1 0 .88C0 .47.3.17.72.17h.01zm6.8 4.9a1.95 1.95 0 0 0 0 3.9 1.95 1.95 0 0 0 0-3.9zm11.27 0a1.95 1.95 0 1 0 1.95 1.96 1.95 1.95 0 0 0-1.95-1.96zM3.86 10.98h18.47a1.74 1.74 0 0 1 1.73 1.74v11.54A1.74 1.74 0 0 1 22.33 26H3.86a1.74 1.74 0 0 1-1.73-1.73V12.71a1.74 1.74 0 0 1 1.73-1.74zm9.23 1.46a6.07 6.07 0 1 0 .02 12.13 6.07 6.07 0 0 0-.02-12.13zm0 1.1a4.96 4.96 0 1 1 .02 9.91 4.96 4.96 0 0 1-.02-9.92zm0 1.35a3.6 3.6 0 0 0-3.48 2.67h1.86a1.87 1.87 0 0 1 3.5.94 1.87 1.87 0 0 1-3.56.8H9.58a3.65 3.65 0 0 0 3.52 2.81 3.62 3.62 0 0 0 0-7.22z"/></svg>