<svg xmlns="http://www.w3.org/2000/svg" viewBox="0 0 28 28"><path d="M4.5 6A2.5 2.5 0 0 1 7 8.5v17A2.5 2.5 0 0 1 4.5 28h-2A2.5 2.5 0 0 1 0 25.5v-17A2.5 2.5 0 0 1 2.5 6h2zM26 8.55A4 4 0 0 1 28 12v12a4 4 0 0 1-4 4H10.5A2.5 2.5 0 0 1 8 25.5v-24A1.5 1.5 0 0 1 9.5 0H20c.83 0 1.98.48 2.56 1.06l2.38 2.38A4.19 4.19 0 0 1 26 6v2.55zM14.5 24v-2a.5.5 0 0 0-.5-.5h-2a.5.5 0 0 0-.5.5v2c0 .28.22.5.5.5h2a.5.5 0 0 0 .5-.5zm0-4v-2a.5.5 0 0 0-.5-.5h-2a.5.5 0 0 0-.5.5v2c0 .28.22.5.5.5h2a.5.5 0 0 0 .5-.5zm0-4v-2a.5.5 0 0 0-.5-.5h-2a.5.5 0 0 0-.5.5v2c0 .28.22.5.5.5h2a.5.5 0 0 0 .5-.5zm4 8v-2a.5.5 0 0 0-.5-.5h-2a.5.5 0 0 0-.5.5v2c0 .28.22.5.5.5h2a.5.5 0 0 0 .5-.5zm0-4v-2a.5.5 0 0 0-.5-.5h-2a.5.5 0 0 0-.5.5v2c0 .28.22.5.5.5h2a.5.5 0 0 0 .5-.5zm0-4v-2a.5.5 0 0 0-.5-.5h-2a.5.5 0 0 0-.5.5v2c0 .28.22.5.5.5h2a.5.5 0 0 0 .5-.5zm4 8v-2a.5.5 0 0 0-.5-.5h-2a.5.5 0 0 0-.5.5v2c0 .28.22.5.5.5h2a.5.5 0 0 0 .5-.5zm0-4v-2a.5.5 0 0 0-.5-.5h-2a.5.5 0 0 0-.5.5v2c0 .28.22.5.5.5h2a.5.5 0 0 0 .5-.5zm0-4v-2a.5.5 0 0 0-.5-.5h-2a.5.5 0 0 0-.5.5v2c0 .28.22.5.5.5h2a.5.5 0 0 0 .5-.5zm1.5-6V6h-2.5A1.5 1.5 0 0 1 20 4.5V2H10v8h14z"/></svg>