<svg xmlns="http://www.w3.org/2000/svg" viewBox="0 0 22 28"><path d="M6 21a3 3 0 0 1-6 0 3 3 0 0 1 6 0zm8 1.92a1 1 0 0 1-.27.75.95.95 0 0 1-.73.33h-2.1a.99.99 0 0 1-1-.9 10 10 0 0 0-9-9 .99.99 0 0 1-.9-.99v-2.1c0-.29.11-.56.33-.74A.96.96 0 0 1 1 10h.08a14.04 14.04 0 0 1 8.83 4.1 14.04 14.04 0 0 1 4.1 8.82zm8 .03a.95.95 0 0 1-.28.74.96.96 0 0 1-.72.31h-2.23a1 1 0 0 1-1-.94A17.89 17.89 0 0 0 .94 6.22 1 1 0 0 1 0 5.23V3c0-.28.1-.53.31-.72a.97.97 0 0 1 .7-.28h.04a22 22 0 0 1 14.48 6.47A22 22 0 0 1 22 22.95z"/></svg>