<svg xmlns="http://www.w3.org/2000/svg" viewBox="0 0 24 28" id="icon"><path d="M22.94 5.94A4.19 4.19 0 0 1 24 8.5v18a1.5 1.5 0 0 1-1.5 1.5h-21A1.5 1.5 0 0 1 0 26.5v-25A1.5 1.5 0 0 1 1.5 0h14c.83 0 1.98.48 2.56 1.06zM16 2.12V8h5.88c-.1-.27-.24-.53-.35-.64l-4.89-4.9a2 2 0 0 0-.64-.34zM22 26V10h-6.5A1.5 1.5 0 0 1 14 8.5V2H2v24h20zM12 12a2 2 0 0 1 2 2v6a2 2 0 0 1-2 2H6a2 2 0 0 1-2-2v-6c0-1.1.9-2 2-2h6zm7.69.03a.51.51 0 0 1 .31.47v9a.51.51 0 0 1-.31.47.77.77 0 0 1-.19.03.52.52 0 0 1-.36-.14L15 17.7v-1.4l4.14-4.16a.52.52 0 0 1 .36-.14l.19.03z"/></svg>