<svg xmlns="http://www.w3.org/2000/svg" viewBox="0 0 24 28" id="icon"><path d="M22.94 5.94A4.19 4.19 0 0 1 24 8.5v18a1.5 1.5 0 0 1-1.5 1.5h-21A1.5 1.5 0 0 1 0 26.5v-25A1.5 1.5 0 0 1 1.5 0h14c.83 0 1.98.48 2.56 1.06zM16 2.12V8h5.88c-.1-.27-.24-.53-.35-.64l-4.89-4.9a2 2 0 0 0-.64-.34zM22 26V10h-6.5A1.5 1.5 0 0 1 14 8.5V2H2v24h20zM6.7 22.34V24h4.4v-1.66H9.91l1.61-2.51c.19-.3.28-.53.33-.53h.03c.02.06.05.1.08.15.06.13.15.22.26.38l1.68 2.51h-1.2V24h4.55v-1.66H16.2l-3-4.26 3.05-4.4h1.05V12h-4.36v1.67h1.15l-1.6 2.49c-.2.3-.33.53-.33.51h-.03c-.02-.06-.05-.1-.08-.15a2.1 2.1 0 0 0-.27-.36l-1.65-2.49h1.18V12H6.78v1.67h1.07l2.95 4.25-3.03 4.42H6.7z"/></svg>