<svg xmlns="http://www.w3.org/2000/svg" viewBox="0 0 24 28" id="icon"><path d="M22.94 5.94A4.19 4.19 0 0 1 24 8.5v18a1.5 1.5 0 0 1-1.5 1.5h-21A1.5 1.5 0 0 1 0 26.5v-25A1.5 1.5 0 0 1 1.5 0h14c.83 0 1.98.48 2.56 1.06zM16 2.12V8h5.88c-.1-.27-.24-.53-.35-.64l-4.89-4.9a2 2 0 0 0-.64-.34zM22 26V10h-6.5A1.5 1.5 0 0 1 14 8.5V2H2v24h20zM3.64 12v1.67h1.1L7.3 24h2.48l2-7.58a3.67 3.67 0 0 0 .19-1.1h.06l.05.38c.05.22.06.47.14.72l2 7.58h2.48l2.57-10.33h1.09V12h-4.69v1.67h1.4l-1.54 6.85c-.06.25-.1.51-.1.72l-.04.32h-.06c0-.1-.03-.22-.05-.32-.05-.2-.08-.47-.14-.72L12.89 12H11.1l-2.25 8.52c-.07.25-.08.51-.13.71l-.06.33H8.6l-.03-.32a4.58 4.58 0 0 0-.11-.72l-1.55-6.85h1.4V12H3.65z"/></svg>