<svg xmlns="http://www.w3.org/2000/svg" viewBox="0 0 24 28"><path d="M22.94 5.94A4.19 4.19 0 0 1 24 8.5v18a1.5 1.5 0 0 1-1.5 1.5h-21A1.5 1.5 0 0 1 0 26.5v-25A1.5 1.5 0 0 1 1.5 0h14c.83 0 1.98.48 2.56 1.06zM16 2.12V8h5.88c-.1-.27-.24-.53-.35-.64l-4.89-4.9a2 2 0 0 0-.64-.34zM22 26V10h-6.5A1.5 1.5 0 0 1 14 8.5V2H2v24h20zm-8.03-9.27c.39.32.83.6 1.31.88a15.46 15.46 0 0 1 1.83-.11c1.05 0 2.37.13 2.76.77.11.15.2.43.04.8l-.05.07v.02c-.05.28-.28.6-1.11.6-1 0-2.52-.46-3.83-1.15a29.7 29.7 0 0 0-6.12 1.3C7.19 22.66 5.95 24 5.02 24a.87.87 0 0 1-.44-.12l-.38-.19c-.04-.01-.06-.04-.1-.07-.07-.08-.13-.25-.08-.57.15-.71 1-1.92 2.93-2.93.13-.08.28-.03.36.1a.12.12 0 0 1 .03.05 40.7 40.7 0 0 0 1.67-3.07c.7-1.41 1.25-2.79 1.63-4.1-.5-1.7-.66-3.45-.38-4.48.11-.4.35-.63.66-.63h.34c.24 0 .43.08.55.24.19.22.24.56.14 1.06-.01.05-.03.1-.06.12a.34.34 0 0 1 .02.13v.47c-.02.98-.04 1.92-.22 3a8.15 8.15 0 0 0 2.28 3.72zm-9 6.43c.47-.22 1.14-.9 2.14-2.47a7.46 7.46 0 0 0-2.14 2.47zm6.22-14.38a4.87 4.87 0 0 0-.03 2.06l.1-.68.11-.68a.46.46 0 0 1 .07-.12c-.02-.02-.02-.05-.03-.08a.9.9 0 0 0-.2-.56l-.02.06zM9.25 19.11a23.88 23.88 0 0 1 4.44-1.27c-.16-.12-.32-.23-.46-.36a8.3 8.3 0 0 1-1.98-2.75c-.3.96-.73 1.97-1.3 3.08l-.7 1.3zm10.1-.25c-.08-.08-.49-.38-2.2-.38.77.29 1.48.44 1.94.44l.28-.01c0-.02-.01-.03-.03-.05z"/></svg>