<svg xmlns="http://www.w3.org/2000/svg" viewBox="0 0 24 28" id="icon"><path d="M22.94 5.94A4.19 4.19 0 0 1 24 8.5v18a1.5 1.5 0 0 1-1.5 1.5h-21A1.5 1.5 0 0 1 0 26.5v-25A1.5 1.5 0 0 1 1.5 0h14c.83 0 1.98.48 2.56 1.06zM16 2.12V8h5.88c-.1-.27-.24-.53-.35-.64l-4.89-4.9a2 2 0 0 0-.64-.34zM22 26V10h-6.5A1.5 1.5 0 0 1 14 8.5V2H2v24h20zM6.5 22.34V24h5.1v-1.66h-1.44v-2.6h2.14c.67 0 1.28-.04 1.84-.24 1.4-.48 2.28-1.94 2.28-3.64s-.84-3.02-2.14-3.56c-.6-.24-1.31-.3-2.03-.3H6.5v1.67h1.44v8.67H6.5zm5.52-4.37h-1.86v-4.19h1.87c.55 0 .97.1 1.3.28.56.33.87.97.87 1.8 0 .87-.3 1.55-.96 1.87a2.8 2.8 0 0 1-1.22.24z"/></svg>