<svg xmlns="http://www.w3.org/2000/svg" viewBox="0 0 24 28" id="icon"><path d="M10 6V4H8v2h2zm2 2V6h-2v2h2zm-2 2V8H8v2h2zm2 2v-2h-2v2h2zm10.94-6.06A4.19 4.19 0 0 1 24 8.5v18a1.5 1.5 0 0 1-1.5 1.5h-21A1.5 1.5 0 0 1 0 26.5v-25A1.5 1.5 0 0 1 1.5 0h14c.83 0 1.98.48 2.56 1.06zM16 2.12V8h5.88c-.1-.27-.24-.53-.35-.64l-4.89-4.9a2 2 0 0 0-.64-.34zM22 26V10h-6.5A1.5 1.5 0 0 1 14 8.5V2h-2v2h-2V2H2v24h20zm-9.8-11.27a137.4 137.4 0 0 0 1.68 5.46c.07.26.12.53.12.8 0 1.74-1.69 3-4 3s-4-1.26-4-3c0-.27.05-.54.13-.8 0 0 .32-.97 1.87-6.2v-2h2v2h1.23a1 1 0 0 1 .97.74zM10 22c1.1 0 2-.45 2-1s-.9-1-2-1-2 .45-2 1 .9 1 2 1z"/></svg>