<svg xmlns="http://www.w3.org/2000/svg" viewBox="0 0 24 28"><path d="m11.3 21.94 7.15-7.16 1.1 1.11a.98.98 0 0 1 0 1.38L12 24.8a1 1 0 0 1-1.4 0l-7.54-7.54a.98.98 0 0 1 0-1.38l7.55-7.56a1 1 0 0 1 1.39 0L16.66 13l-5.36 5.36-1.78-1.78L13.09 13l-1.8-1.78-5.35 5.36zm11.64-16A4.19 4.19 0 0 1 24 8.5v18a1.5 1.5 0 0 1-1.5 1.5h-21A1.5 1.5 0 0 1 0 26.5v-25A1.5 1.5 0 0 1 1.5 0h14c.83 0 1.98.48 2.56 1.06zM16 2.12V8h5.88c-.1-.27-.24-.53-.35-.64l-4.89-4.9a2 2 0 0 0-.64-.34zM22 26V10h-6.5A1.5 1.5 0 0 1 14 8.5V2H2v24h20z"/></svg>