<svg xmlns="http://www.w3.org/2000/svg" viewBox="0 0 24 28" id="icon"><path d="M22.94 5.94A4.19 4.19 0 0 1 24 8.5v18a1.5 1.5 0 0 1-1.5 1.5h-21A1.5 1.5 0 0 1 0 26.5v-25A1.5 1.5 0 0 1 1.5 0h14c.83 0 1.98.48 2.56 1.06zM16 2.12V8h5.88c-.1-.27-.24-.53-.35-.64l-4.89-4.9a2 2 0 0 0-.64-.34zM22 26V10h-6.5A1.5 1.5 0 0 1 14 8.5V2H2v24h20zM7.5 12a.5.5 0 0 1 .7-.1l.8.6a.5.5 0 0 1 .1.7L6.24 17l2.84 3.8a.5.5 0 0 1-.09.7l-.8.6a.5.5 0 0 1-.7-.1l-3.53-4.7a.52.52 0 0 1 0-.6zm12.53 4.7a.52.52 0 0 1 0 .6L16.5 22a.5.5 0 0 1-.7.1l-.8-.6a.5.5 0 0 1-.1-.7l2.85-3.8-2.84-3.8a.5.5 0 0 1 .09-.7l.8-.6a.5.5 0 0 1 .7.1zm-9.69 7.2a.5.5 0 0 1-.4-.57l2.15-12.99a.5.5 0 0 1 .58-.4l.99.15a.5.5 0 0 1 .4.58l-2.15 12.99a.5.5 0 0 1-.58.4z"/></svg>