<svg xmlns="http://www.w3.org/2000/svg" viewBox="0 0 24 28" id="icon"><path d="M22.94 5.94A4.19 4.19 0 0 1 24 8.5v18a1.5 1.5 0 0 1-1.5 1.5h-21A1.5 1.5 0 0 1 0 26.5v-25A1.5 1.5 0 0 1 1.5 0h14c.83 0 1.98.48 2.56 1.06zM16 2.12V8h5.88c-.1-.27-.24-.53-.35-.64l-4.89-4.9a2 2 0 0 0-.64-.34zM22 26V10h-6.5A1.5 1.5 0 0 1 14 8.5V2H2v24h20zM9.69 13.28a.51.51 0 0 1 .31.47v8.5a.51.51 0 0 1-.31.47.77.77 0 0 1-.19.03.55.55 0 0 1-.36-.14L6.54 20H4.5a.5.5 0 0 1-.5-.5v-3c0-.28.22-.5.5-.5h2.05l2.6-2.6a.51.51 0 0 1 .54-.12zm6.51 10.77a.99.99 0 0 0 .78-.38 9.02 9.02 0 0 0 0-11.34 1 1 0 1 0-1.54 1.26 6.98 6.98 0 0 1 0 8.81.98.98 0 0 0 .14 1.41.97.97 0 0 0 .62.24zm-3.3-2.32c.27 0 .54-.1.74-.3a4.99 4.99 0 0 0 0-6.85 1.01 1.01 0 0 0-1.42-.05 1 1 0 0 0-.03 1.42 3.02 3.02 0 0 1 0 4.1 1.01 1.01 0 0 0 .03 1.42c.2.17.45.26.69.26z"/></svg>