<svg xmlns="http://www.w3.org/2000/svg" viewBox="0 0 27 28"><path d="M14.1 28a14.02 14.02 0 0 1-13.02-8.58C-1.4 13.82.58 4.82 4.97.86l-.17 4.4c.22-.29 1.89-.37 2.15 0 .9-1.74 3.83-3.04 6.18-3.09-.9.75-2.96 3.49-2.79 4.88 1.14.36 2.9.37 3.82.44.28.15.23 1.1-.33 1.89 0 0-.73 1.01-2.72 1.37l.23 2.95-2.17-1.04c-.7 1.78.99 3.36 2.74 3.06 1.93-.33 2.62-1.6 3.98-1.52 1.34.08 1.88.83 1.7 1.54 0 0-.22.84-1.67.7-1.23 1.95-2.87 2.81-5.53 2.58 4.03 3.34 9.47.31 10.84-2.43 1.38-2.71.18-6.76-1.2-7.9 1.63.7 2.75 1.42 3.35 3 .3-3.5-1.3-7.47-4.18-9.8 5.4 1.58 8.7 5.77 8.8 12.46S22.08 28 14.1 28z"/></svg>