<svg xmlns="http://www.w3.org/2000/svg" viewBox="0 0 22 28" id="icon"><path d="M8 3c0-.55-.45-1-1-1s-1 .45-1 1 .45 1 1 1 1-.45 1-1zm14-.5v5a.48.48 0 0 1-.19.4.48.48 0 0 1-.31.1c-.03 0-.06 0-.1-.02l-7-1.5A.5.5 0 0 1 14 6h-4v1.6a5 5 0 0 1 4 4.9V25a1 1 0 0 1-1 1H5a1 1 0 0 1-1-1V12.5a4.99 4.99 0 0 1 3.5-4.77V6H7C3.69 6 1.9 9.42 1.9 9.45a1 1 0 0 1-1.35.44A1 1 0 0 1 .1 8.55c.08-.16 1.64-3.19 4.78-4.2A2.5 2.5 0 0 1 6.99.5a2.5 2.5 0 0 1 2.5 2.49c0 .36-.07.69-.21 1H14a.5.5 0 0 1 .39-.48l7-1.5.1-.02a.48.48 0 0 1 .32.1.47.47 0 0 1 .19.4z"/></svg>