<svg xmlns="http://www.w3.org/2000/svg" viewBox="0 0 29 28"><path d="M26 16.33V6.7c-1.25.67-3 1.42-4.78 1.42-.83 0-1.6-.15-2.27-.5C17.28 6.8 15.47 6 13.3 6c-2.02 0-4.5.98-6.3 1.98v9.36c2.06-.95 4.69-1.76 6.77-1.76 2.4 0 3.97.8 5.64 1.62l.43.22c.44.22.97.34 1.58.34 1.74 0 3.61-.92 4.58-1.43zM5 4a1.99 1.99 0 0 1-1 1.72V25.5a.5.5 0 0 1-.5.5h-1a.5.5 0 0 1-.5-.5V5.72A2 2 0 0 1 3 2a2 2 0 0 1 2 2zm23 1v11.92c0 .38-.22.72-.55.9a4.73 4.73 0 0 0-.26.13c-1 .54-3.36 1.82-5.77 1.82-.92 0-1.75-.19-2.47-.55l-.44-.22c-1.57-.8-2.82-1.42-4.75-1.42-2.25 0-5.42 1.17-7.25 2.28a1.02 1.02 0 0 1-1.01.02A1.01 1.01 0 0 1 5 19V7.4a1 1 0 0 1 .48-.85c1-.6 4.53-2.55 7.81-2.55 2.61 0 4.74.95 6.54 1.83.4.2.87.3 1.39.3 1.84 0 3.87-1.18 4.84-1.75.2-.11.38-.2.48-.27.32-.16.68-.14.97.03.3.19.49.52.49.86z"/></svg>