<svg xmlns="http://www.w3.org/2000/svg" viewBox="0 0 29 28"><path d="M13 15.63v-3c-1.9.17-4.2.93-6 1.82v2.9a18.8 18.8 0 0 1 6-1.73zm0-6.54V6.02c-1.97.09-4.28 1.01-6 1.97v2.95c1.84-.95 4.06-1.77 6-1.85zm13 7.24v-2.88c-1.42.7-3.9 1.75-6 1.11v-3.5a5.07 5.07 0 0 1-.6-.23c-1.8-.9-3.28-1.75-5.63-1.75-.25 0-.5.01-.77.05v3.46h.3c2.36 0 4.3.85 6.1 1.74.2.1.4.17.6.23v2.94c.42.17.9.27 1.42.27 1.74 0 3.61-.93 4.58-1.44zm0-6.67V6.7c-1.25.68-3 1.43-4.78 1.43A5.2 5.2 0 0 1 20 8v3.06c2.1.6 4.58-.6 6-1.4zM5 4a1.99 1.99 0 0 1-1 1.72V25.5a.5.5 0 0 1-.5.5h-1a.5.5 0 0 1-.5-.5V5.72A2 2 0 0 1 3 2a2 2 0 0 1 2 2zm23 1v11.92c0 .38-.22.72-.55.9a4.73 4.73 0 0 0-.26.13c-1 .54-3.36 1.82-5.77 1.82-.92 0-1.75-.19-2.47-.55l-.44-.22c-1.57-.8-2.82-1.42-4.75-1.42-2.25 0-5.42 1.17-7.25 2.28a1.02 1.02 0 0 1-1.01.02A1.01 1.01 0 0 1 5 19V7.4a1 1 0 0 1 .48-.85c1-.6 4.53-2.55 7.81-2.55 2.61 0 4.74.95 6.54 1.83.4.2.87.3 1.39.3 1.84 0 3.87-1.18 4.84-1.75.2-.11.38-.2.48-.27.32-.16.68-.14.97.03.3.19.49.52.49.86z"/></svg>