<svg xmlns="http://www.w3.org/2000/svg" viewBox="0 0 30 28" id="icon"><path d="M27.83 14.55c0-.44-.49-.55-.83-.55H10a3.6 3.6 0 0 0-2.45 1.16l-4.6 5.67c-.14.19-.28.39-.28.62 0 .44.49.55.83.55h17c.83 0 1.92-.52 2.45-1.17l4.6-5.67c.14-.18.28-.38.28-.61zM10 12h12V9.5A1.5 1.5 0 0 0 20.5 8h-9A1.5 1.5 0 0 1 10 6.5v-1A1.5 1.5 0 0 0 8.5 4h-5A1.5 1.5 0 0 0 2 5.5v13.33l4-4.92A5.57 5.57 0 0 1 10 12zm19.83 2.55c0 .68-.3 1.34-.72 1.87L24.5 22.1a5.65 5.65 0 0 1-4 1.91h-17A3.51 3.51 0 0 1 0 20.5v-15C0 3.58 1.58 2 3.5 2h5C10.42 2 12 3.58 12 5.5V6h8.5C22.42 6 24 7.58 24 9.5V12h3c1.06 0 2.13.48 2.6 1.48.15.33.23.7.23 1.07z"/></svg>