<svg xmlns="http://www.w3.org/2000/svg" viewBox="0 0 26 28"><path d="m11.33 8.73-2.66 7.03c1.55.02 3.1.07 4.64.07l.9-.03a61.37 61.37 0 0 0-2.88-7.07zM0 26l.03-1.23c1.47-.46 3.06-.15 3.72-1.83l3.7-9.63 4.38-11.3h2l.17.32 3.2 7.5c1.18 2.76 2.25 5.56 3.44 8.31.7 1.63 1.25 3.3 2.03 4.9.11.24.33.71.55.88.51.41 1.95.5 2.69.78.04.3.09.6.09.9l-.02.4c-1.98 0-3.96-.25-5.95-.25-2.05 0-4.1.17-6.14.24 0-.41.02-.82.06-1.22l2.05-.44c.42-.1 1.25-.2 1.25-.78 0-.56-2.02-5.2-2.27-5.85l-7.03-.03c-.4.9-1.98 5-1.98 5.6 0 1.2 2.3 1.25 3.19 1.37l.01.9a3 3 0 0 1-.03.43c-1.81 0-3.64-.31-5.45-.31-.22 0-.53.1-.75.12C1.95 25.95.98 26 0 26z"/></svg>