<svg xmlns="http://www.w3.org/2000/svg" viewBox="0 0 24 28" id="icon"><path d="M0 2h24v24H0V2zm14.19 5-.19.52 1.17 1.3-.48 1.77.39.4 1.67-.9 1.67.9.4-.4-.49-1.78 1.17-1.3-.18-.51h-1.49L17 5.5h-.5L15.68 7h-1.49zm-4.17 2.55c.64 0 .89.23.87 1.23l2.72-.33c0-2.39-1.64-2.82-3.47-2.82C7.42 7.63 6 8.72 6 11.38v1.12H4.5v2h1.19c.15 0 .31 0 .31.13v5.96c0 .3-.08.4-.36.43l-1.14.1v1.38h7v-1.34l-2.33-.22c-.28-.03-.17-.08-.17-.4V14.5h2.98l.6-2H8.97c-.16 0 .03-.11.03-.24v-1.25c0-.93.03-1.46 1.02-1.46zM19.5 22.5v-1.34l-.84-.15c-.3-.04-.16-.07-.16-.39V12.5h-4.3l-.36 1.58 1.3.34c.2.06.36.2.36.42v5.78c0 .3-.13.36-.4.4l-1.1.14v1.34h5.5z"/></svg>