<svg xmlns="http://www.w3.org/2000/svg" viewBox="0 0 24 28" id="icon"><path d="M11.97 2.06A11.97 11.97 0 0 0 0 14.03v.48a11.98 11.98 0 0 0 10.95 11.47v-.02a12.43 12.43 0 0 0 2.09 0h-.05v.02a11.97 11.97 0 0 0 10.95-11.47v-.48c0-6.61-5.36-11.97-11.97-11.97zM9.28 7.04c-.06 2.98-.2 6.82.1 10.07.12 1.27 1.62 1.29 1.67 0 .14-3.3.25-6.76.42-10.05h1c.18 3.3.21 6.73.4 9.99.1 1.36 1.56 1.38 1.69 0 .3-3.3.17-7.04.12-10h1.02c.53 4 .84 8.2.44 11.12s-2.27 2.45-2.83 5.49a24 24 0 0 0-.22 1.4 11.43 11.43 0 0 1-2.3-.01h.05a25 25 0 0 0-.21-1.4c-.57-3.03-2.44-2.55-2.84-5.48-.4-2.91-.09-7.2.47-11.13z"/></svg>