<svg xmlns="http://www.w3.org/2000/svg" viewBox="0 0 26 28"><path d="M10 15.75v-3.5a.25.25 0 0 0-.25-.25h-1.5a.25.25 0 0 0-.25.25v3.5c0 .14.1.25.25.25h1.5c.14 0 .25-.1.25-.25zm8 0v-3.5a.25.25 0 0 0-.25-.25h-1.5a.25.25 0 0 0-.25.25v3.5c0 .14.1.25.25.25h1.5c.14 0 .25-.1.25-.25zm8 .5V28H16v-5a3 3 0 0 0-6 0v5H0V16.25c0-.14.1-.25.25-.25h1.5c.14 0 .25.1.25.25V18h2V8.25c0-.14.1-.25.25-.25h1.5c.14 0 .25.1.25.25V10h2V8.25c0-.14.1-.25.25-.25h1.5c.14 0 .25.1.25.25V10h2V8.25c0-.33.44-.25.64-.25V1.9a.88.88 0 0 1-.5-.79c0-.47.4-.86.86-.86s.86.4.86.86a.88.88 0 0 1-.5.78v.27a5.99 5.99 0 0 1 1.3-.16c.64 0 1.25.23 1.78.23.48 0 1.03-.23 1.31-.23.14 0 .25.11.25.25v3.28c0 .38-1.27.44-1.52.44-.57 0-1.12-.23-1.71-.23-.47 0-.96.07-1.41.18V8c.2 0 .64-.08.64.25V10h2V8.25c0-.14.1-.25.25-.25h1.5c.14 0 .25.11.25.25V10h2V8.25c0-.14.1-.25.25-.25h1.5c.14 0 .25.11.25.25V18h2v-1.75c0-.14.1-.25.25-.25h1.5c.14 0 .25.11.25.25z"/></svg>