<svg xmlns="http://www.w3.org/2000/svg" viewBox="0 0 24 28" id="icon"><path d="M14.6 2.34A24.63 24.63 0 0 0 .3 16.77 11.96 11.96 0 0 1 14.6 2.35zm4.2 1.86a11.75 11.75 0 0 1 2.56 2.42A24.55 24.55 0 0 0 4.63 23.45a11.66 11.66 0 0 1-2.43-2.53A24.56 24.56 0 0 1 18.8 4.2zM7.34 25.05A24.56 24.56 0 0 1 22.95 9.33c.43.97.7 2 .85 3.04a24.6 24.6 0 0 0-13.43 13.49 11.93 11.93 0 0 1-3.03-.81zm16.66.9a56.75 56.75 0 0 1-5.73-1.8 11.8 11.8 0 0 1-4.54 1.68 24.8 24.8 0 0 1 10.05-10.1 11.82 11.82 0 0 1-1.58 4.44 57.6 57.6 0 0 1 1.8 5.78z"/></svg>