<svg xmlns="http://www.w3.org/2000/svg" viewBox="0 0 20 28" id="icon"><path d="m15.63 6.78.57-3.03a.72.72 0 0 0-.68-.9H4.38c-.5 0-.84.46-.84.85v17.2c0 .05.04.07.09.02 4.1-4.92 4.55-5.5 4.55-5.5.47-.55.65-.64 1.34-.64h3.73a.9.9 0 0 0 .86-.69l.58-2.98c.1-.45-.33-.92-.75-.92h-4.6c-.6 0-1.04-.44-1.04-1.05v-.66a1 1 0 0 1 1.05-1.03h5.4c.38 0 .8-.34.86-.67zm3.54-3.47c-.58 2.81-2.31 11.7-2.47 12.35-.18.73-.47 2.01-2.25 2.01h-4.23c-.17 0-.19-.01-.35.16l-6.65 7.72c-.52.6-1.36.48-1.67.36s-.86-.5-.86-1.53V2.34c0-.9.56-2.34 2.47-2.34h13.87c2.03 0 2.58 1.16 2.14 3.31zm0 0L16.7 15.66c.16-.64 1.9-9.53 2.47-12.35z"/></svg>