<svg xmlns="http://www.w3.org/2000/svg" viewBox="0 0 28 28"><path d="M2.38 4.1h.15c1.4.03 2.81.56 4.25 1.23l.24.1c.1.05.2.12.3.16a12 12 0 0 1 4.18 3.28l.05.05c.03.03.06.11.1.14l-4 2.31.15 7.7.58-7.27.78.45.15 7.67.58-7.25.77.45.15 7.66.58-7.23.78.45.14 7.62.58-7.2.78.45.16 7.61.58-7.28L21 11.37l-4.17-2.42c.03-.04.08-.08.1-.12l.12-.14a12.25 12.25 0 0 1 4.34-3.25c1.58-.75 3.13-1.35 4.63-1.35h.14c.7.02 1.3.24 1.72.69 1.25 1.44-.13 2.77-.61 4.58-.64 2.42.09 5.01-1.85 6.7a3.8 3.8 0 0 1-2.23.81 5.5 5.5 0 0 1 1.28 4.57 4.83 4.83 0 0 1-.28.95c-.1.26-.2.5-.35.73l-.14.24-.07.1a5.74 5.74 0 0 1-4.4 2.52l-.26.02h-.14a7.15 7.15 0 0 1-.83-.08 6.09 6.09 0 0 1-1.05-.3l-.14-.05a5.1 5.1 0 0 1-2.48-2.23c-.03-.05-.07-.08-.08-.12-.03-.05-.08-.05-.11 0l-.08.12-.06.13a5.18 5.18 0 0 1-3.61 2.45 6.73 6.73 0 0 1-.55.06l-.28.02a5.7 5.7 0 0 1-5.64-4.56 5.51 5.51 0 0 1 1.3-4.57 3.85 3.85 0 0 1-2.25-.8c-1.94-1.7-1.22-4.29-1.86-6.71C.62 7.55-.73 6.22.5 4.78a2.3 2.3 0 0 1 1.72-.69h.14z"/></svg>