<svg xmlns="http://www.w3.org/2000/svg" viewBox="0 0 24 28"><path d="M5.17 3.14a8 8 0 0 1 3.45.83c.94.48 1.7.65 2.26.87.53.2.89.52 1.07 1.16.19-.64.55-.95 1.08-1.16.56-.22 1.31-.39 2.23-.87a9.13 9.13 0 0 1 4.65-.83h.04l.02.05c.3.89.03 1.87-.5 2.62s-1.33 1.28-2.13 1.7c-.8.43-1.67.5-2.42.94-.5.27-.8.6-1.1 1.08-.48.72-.46 1.63-.46 1.63v.01l-.08 1.02v.02s-.08.26-.28.53-.55.53-1.03.53c-.45 0-.78-.27-1-.53s-.3-.53-.3-.53l-.01-.02-.07-1.02v-.01s.02-.9-.45-1.63c-.31-.48-.6-.78-1.1-1.08-.76-.43-1.63-.51-2.45-.93a6.48 6.48 0 0 1-2.17-1.7 3 3 0 0 1-.48-2.63v-.05h.04a12 12 0 0 1 1.2 0zm-.01.13c1.18.04 2.43.3 3.42.82.95.5 1.7.66 2.25.88s.89.47 1.04 1.2l.02.05h.13l.01-.05c.16-.72.5-.98 1.05-1.2s1.31-.38 2.25-.88c1.31-.7 3.03-.9 4.53-.82a2.9 2.9 0 0 1-.5 2.48 5.66 5.66 0 0 1-2.08 1.64c-.78.4-1.64.5-2.42.95-.53.28-.84.63-1.16 1.13-.5.76-.48 1.7-.48 1.7l-.06 1c0 .02-.08.25-.27.49-.19.25-.48.48-.92.48-.4 0-.69-.23-.9-.48a2.07 2.07 0 0 1-.29-.49l-.06-1.01v.01s.03-.95-.47-1.7a3.08 3.08 0 0 0-1.16-1.13c-.78-.45-1.65-.54-2.44-.95-.8-.39-1.56-.9-2.12-1.64a2.86 2.86 0 0 1-.48-2.48c.36-.02.73-.02 1.1 0zm1.46 4.18c.8.4 1.68.49 2.44.94.5.3.83.63 1.14 1.11.49.73.46 1.66.46 1.66l.06 1.03s.4 1.01 1.25 1.01c.92 0 1.25-1.01 1.25-1.01l.06-1.03s-.01-.91.47-1.66c.32-.48.63-.84 1.14-1.1.77-.46 1.63-.54 2.43-.95s1.57-.93 2.1-1.67.77-1.72.49-2.58a9.12 9.12 0 0 0-4.61.83c-1.86.99-3 .64-3.33 2.13h-.03c-.33-1.5-1.47-1.14-3.34-2.13a9.12 9.12 0 0 0-4.61-.83c-.3.86-.03 1.83.5 2.58a6 6 0 0 0 2.14 1.67zm-6.34 5.1h1.53c.16 0 .28.14.28.3a9.88 9.88 0 0 0 19.79 0c0-.16.12-.3.28-.3h1.56c.15 0 .28.14.28.3 0 6.6-5.4 12-12 12s-12-5.4-12-12c0-.16.12-.3.28-.3zm0 .14h1.53c.08 0 .16.08.16.15a10.03 10.03 0 0 0 20.03 0c0-.07.08-.15.16-.15h1.56c.08 0 .15.08.15.15a11.88 11.88 0 0 1-23.75 0c0-.07.08-.15.16-.15zm23.44-.06h-1.56a.24.24 0 0 0-.22.21 9.96 9.96 0 0 1-19.9 0 .24.24 0 0 0-.23-.22H.28a.24.24 0 0 0-.22.22 11.94 11.94 0 0 0 23.88 0 .24.24 0 0 0-.22-.22zM4.2 12.54h1.53c.16 0 .28.14.28.3a5.97 5.97 0 1 0 11.96 0c0-.16.12-.3.28-.3h1.55c.15 0 .3.14.3.3a8.1 8.1 0 0 1-16.2 0c0-.16.15-.3.3-.3zm0 .14h1.53c.08 0 .16.08.16.15 0 3.38 2.72 6.1 6.1 6.1s6.1-2.72 6.1-6.1c0-.07.08-.15.16-.15h1.55c.07 0 .15.08.15.15A7.98 7.98 0 0 1 12 20.8a7.94 7.94 0 0 1-7.95-7.96c0-.07.07-.15.15-.15zm7.8 8.17c4.42 0 8.02-3.6 8.02-8.02a.24.24 0 0 0-.22-.22h-1.55a.24.24 0 0 0-.22.22 6.05 6.05 0 0 1-12.08 0 .24.24 0 0 0-.22-.22H4.2a.24.24 0 0 0-.22.22A8 8 0 0 0 12 20.86zm-3.92-8.31h1.56a.28.28 0 0 1 .28.28c0 1.15.94 2.06 2.08 2.06a2.06 2.06 0 0 0 2.08-2.06.28.28 0 0 1 .28-.28h1.56a.28.28 0 0 1 .28.28 4.2 4.2 0 0 1-8.4 0 .28.28 0 0 1 .28-.28zm0 .12h1.56c.08 0 .16.08.16.16 0 1.22 1 2.2 2.2 2.2 1.22 0 2.2-1 2.2-2.2 0-.08.08-.16.16-.16h1.56c.08 0 .14.08.14.16a4.05 4.05 0 1 1-8.12 0c0-.08.06-.16.14-.16zM12 16.95a4.14 4.14 0 0 0 4.14-4.12.24.24 0 0 0-.22-.22h-1.56a.24.24 0 0 0-.22.22A2.14 2.14 0 0 1 12 14.97a2.14 2.14 0 0 1-2.14-2.14.24.24 0 0 0-.22-.22H8.08a.24.24 0 0 0-.22.22A4.12 4.12 0 0 0 12 16.95z"/></svg>