<svg xmlns="http://www.w3.org/2000/svg" viewBox="0 0 28 28"><path d="M27.67 24c0 .53-.22 1.05-.58 1.4l-1.67 1.7a2.01 2.01 0 0 1-2.83 0l-5.67-5.7a1.96 1.96 0 0 1-.6-1.4c0-.6.26-1.08.68-1.5l-4-4-1.97 1.97a.75.75 0 0 1-1.06 0c.47.47.9.81.9 1.53 0 .4-.15.77-.43 1.06-.53.56-1.1 1.31-1.94 1.31a1.51 1.51 0 0 1-1.06-.43l-6.38-6.38a1.52 1.52 0 0 1-.44-1.06c0-.84.75-1.4 1.32-1.94A1.52 1.52 0 0 1 3 10.12c.72 0 1.06.44 1.53.91a.75.75 0 0 1 0-1.06l5.44-5.44a.75.75 0 0 1 1.06 0c-.47-.47-.9-.81-.9-1.53 0-.4.15-.77.43-1.06.53-.56 1.1-1.31 1.94-1.31.39 0 .78.15 1.06.43l6.38 6.38c.28.28.43.67.43 1.06 0 .84-.75 1.4-1.3 1.94a1.52 1.52 0 0 1-1.07.43c-.72 0-1.06-.43-1.53-.9a.75.75 0 0 1 0 1.06L14.5 13l4 4c.42-.42.9-.67 1.5-.67a2.08 2.08 0 0 1 1.42.58l5.67 5.67c.36.37.58.89.58 1.42z"/></svg>