<svg xmlns="http://www.w3.org/2000/svg" viewBox="0 0 16 28" id="icon"><path d="M15.94 17.77v5.73a.5.5 0 0 1-.5.5H.5a.5.5 0 0 1-.5-.5v-2.34c0-.27.22-.5.5-.5h1.52v-5.99H.53a.5.5 0 0 1-.5-.5v-2.05c0-.28.22-.5.5-.5h1.49V8.14C2.02 4.58 4.88 2 8.86 2c3.12 0 5.14 1.88 5.23 1.95a.5.5 0 0 1 .05.67l-1.6 1.99a.5.5 0 0 1-.35.19.5.5 0 0 1-.36-.11A5.3 5.3 0 0 0 8.89 5.6c-1.77 0-2.95 1.06-2.95 2.65v3.36h4.76c.28 0 .5.22.5.5v2.05a.5.5 0 0 1-.5.5H5.94v5.92h6.47v-2.82c0-.29.22-.5.5-.5h2.53c.28 0 .5.21.5.5z"/></svg>