<svg xmlns="http://www.w3.org/2000/svg" viewBox="0 0 24 28" id="icon"><path d="M14.5 21.19V9.99h-5v11.2c0 .54.45.8 1 .8h3c.55 0 1-.26 1-.8zM7.37 8h3.05L8.45 5.48A1.43 1.43 0 0 0 7.38 5a1.5 1.5 0 0 0 0 3zm10.75-1.5a1.5 1.5 0 0 0-1.5-1.5c-.53 0-.9.28-1.07.48L13.59 8h3.03a1.5 1.5 0 0 0 1.5-1.5zm5.88 4v5a.5.5 0 0 1-.5.5H22v6.5a1.5 1.5 0 0 1-1.5 1.5h-17A1.5 1.5 0 0 1 2 22.5V16H.5a.5.5 0 0 1-.5-.5v-5c0-.28.22-.5.5-.5h6.88a3.5 3.5 0 1 1 0-7c1.04 0 2.01.44 2.62 1.2l2 2.58 2-2.58c.6-.76 1.58-1.2 2.63-1.2a3.5 3.5 0 1 1 0 7h6.87c.28 0 .5.22.5.5z"/></svg>