<svg xmlns="http://www.w3.org/2000/svg" viewBox="0 0 28 28"><path d="M27.5 1.3c3.8 28.54-15.23 24.22-22.38 18.53.44-.06.86-.2 1.22-.47.79-.6 1.16-1.6 1.15-2.7s-.4-2.35-1.15-3.44a3.72 3.72 0 0 0-.3-.4l.4-9.18s2.48 5.72 7.51 5.6c10.53-.29 12.4-6.52 13.55-7.94zM9.56 9.36c-1.51 0-2.76 1.33-2.76 3.02s1.25 3.03 2.76 3.03c.25 0 .49-.07.72-.13a2.06 2.06 0 0 1-1.9-2.08c0-1.14.89-2.07 1.98-2.07.87 0 1.75.73 1.94 1.62l.03-.37c0-1.7-1.25-3.02-2.77-3.02zm6.55.14c-1.86 0-3.38 1.6-3.38 3.56s1.52 3.55 3.38 3.55c.7 0 1.36-.22 1.9-.6a2.92 2.92 0 0 1-1.03.22c-1.4 0-2.53-1.2-2.53-2.67s1.13-2.65 2.53-2.65c1.18 0 2.3.98 2.5 2.2v-.05a3.48 3.48 0 0 0-3.37-3.56zM2.47 11.16c1.23.03 2.6.9 3.55 2.28.71 1.04 1.09 2.2 1.09 3.22s-.33 1.89-1 2.39-1.56.58-2.47.25-1.84-1.05-2.56-2.1S0 15 0 13.98s.33-1.89 1-2.39c.4-.31.9-.45 1.47-.43zm13.81.28c-.66 0-1.19.56-1.19 1.25s.53 1.25 1.2 1.25 1.18-.56 1.18-1.25-.53-1.25-1.19-1.25zm-6.67.26a.79.79 0 0 0-.78.82c0 .45.34.82.78.82s.78-.37.78-.82a.79.79 0 0 0-.78-.82zm-7.58.27c-.73 0-1.33.73-1.33 1.66 0 .92.6 1.67 1.33 1.67s1.31-.75 1.31-1.67c0-.93-.57-1.66-1.3-1.66zm16.75 4.72s.69.6 1.08 1.12c-1.5 1.22-4.08 2.2-9.11 1.14 2.55.94 4.69 1.38 6.34 1.27-1 .34-2.28.6-3.9.69 3.64.36 6.36-.35 7.31-1.83.25.28.5.77.73 1.4.16-1.09.57-1.59-.06-2.43s-2.39-1.36-2.39-1.36z"/></svg>