<svg xmlns="http://www.w3.org/2000/svg" viewBox="0 0 24 28"><path d="M9.1 20.44c0 .84-.77 1.03-1.46 1.03-.67 0-1.67-.11-1.67-.99 0-.85.84-1 1.53-1 .66 0 1.6.11 1.6.96zm-.57-7.28c0 .78-.31 1.32-1.16 1.32-.85 0-1.2-.5-1.2-1.3s.31-1.42 1.2-1.42c.8 0 1.16.66 1.16 1.4zm2.6-1.18v-1.95c-.68.25-1.4.45-2.11.45a3.44 3.44 0 0 0-1.72-.45 3.09 3.09 0 0 0-3.19 3.13c0 .96.64 2.3 1.6 2.64v.04c-.5.22-.59.83-.59 1.33 0 .52.2.94.65 1.2v.05C4.7 18.77 4 19.44 4 20.6c0 1.99 1.9 2.55 3.55 2.55 2 0 3.5-.73 3.5-2.94 0-1.56-1.43-2.03-2.72-2.26-.44-.08-1.19-.4-1.19-.94 0-.52.28-.73.77-.81A3.12 3.12 0 0 0 10.5 13c0-.28-.06-.55-.15-.81l.77-.2zm.92 6.55h2.14c-.03-.42-.03-.86-.03-1.28V11.2c0-.36 0-.72.03-1.07h-2.14c.04.35.04.74.04 1.1v6.13c0 .39 0 .78-.04 1.17zm7.95-.25V16.4a1.85 1.85 0 0 1-1.06.33c-.7 0-.83-.7-.83-1.28v-3.52h.81c.28 0 .55.03.83.03v-1.83h-1.64c0-.53-.03-1.06.05-1.59h-2.2c.06.28.07.56.07.86v.73h-.94v1.83c.19-.01.38-.05.58-.05l.36.02v.03H16v3.4c0 1.68.25 3.3 2.31 3.3.58 0 1.17-.09 1.69-.37zM14.44 7.25c0-.73-.55-1.42-1.31-1.42s-1.33.67-1.33 1.42c0 .73.57 1.4 1.32 1.4s1.32-.68 1.32-1.4zM24 6.5v15a4.5 4.5 0 0 1-4.5 4.5h-15A4.5 4.5 0 0 1 0 21.5v-15A4.5 4.5 0 0 1 4.5 2h15A4.5 4.5 0 0 1 24 6.5z"/></svg>