<svg xmlns="http://www.w3.org/2000/svg" viewBox="0 0 28 28"><path d="M9.3 23.66c0-1.38-1.52-1.57-2.58-1.57-1.11 0-2.47.24-2.47 1.63 0 1.4 1.6 1.58 2.69 1.58 1.14 0 2.36-.29 2.36-1.65zm-.93-11.8c0-1.17-.56-2.24-1.85-2.24-1.44 0-1.94.96-1.94 2.27 0 1.3.56 2.11 1.94 2.11 1.36 0 1.86-.88 1.86-2.14zm4.2-5.06v3.15c-.4.14-.8.25-1.23.35a5 5 0 0 1-3.97 6.45c-.78.16-1.23.48-1.23 1.33 0 2.39 6.31.76 6.31 5.17 0 3.58-2.42 4.75-5.67 4.75-2.67 0-5.72-.89-5.72-4.1 0-1.88 1.14-2.96 2.85-3.52v-.07a2.16 2.16 0 0 1-1.05-1.97c0-.8.17-1.78.98-2.14v-.06c-1.58-.53-2.6-2.7-2.6-4.28A5 5 0 0 1 6.38 6.8c.97 0 1.94.25 2.78.73 1.17 0 2.33-.31 3.4-.73zm4.98 13.76h-3.47c.06-.7.06-1.39.06-2.1v-9.5c0-.68.02-1.35-.06-2h3.47c-.08.63-.07 1.29-.07 1.93v9.58c0 .7 0 1.39.07 2.1zm9.39-3.47v3.07c-.83.45-1.78.6-2.72.6-3.34 0-3.73-2.64-3.73-5.35V9.92h.03v-.06c-.2 0-.4-.03-.58-.03-.32 0-.63.05-.92.1V6.94h1.5V5.77c0-.47-.02-.94-.1-1.4h3.55c-.13.86-.1 1.72-.1 2.58h2.68v2.97c-.46 0-.9-.06-1.35-.06h-1.33v5.7c0 .92.2 2.05 1.36 2.05a3 3 0 0 0 1.7-.52zm-9-14.8c0 1.18-.9 2.27-2.11 2.27-1.23 0-2.16-1.08-2.16-2.26 0-1.2.9-2.3 2.16-2.3 1.23 0 2.1 1.12 2.1 2.3z"/></svg>