<svg xmlns="http://www.w3.org/2000/svg" viewBox="0 0 32 28" id="icon"><path d="M5.72 4c.97 0 1.87.13 2.5.13 5.14.28 7.84.45 10.92.45l.02 5.67.82.42v-6.1c2.68-.02 5.8-.16 11.08-.45h.02c.23 0 .44.11.6.27s.27.4.37.67c.19.57.25 1.33.23 2.24-.04 1.82-.47 4.25-1.17 6.67s-1.67 4.86-2.84 6.73-2.55 3.19-4.05 3.3H14.6c-1.17-.13-2.44-1.33-3.5-2.64-.53-.66-1-1.36-1.36-1.97a6.28 6.28 0 0 1-.64-1.38 12.23 12.23 0 0 1-5.33-1.25C1.83 15.73.14 13.79 0 10.3c-.1-2.24.7-3.83 1.84-4.85S4.46 4 5.72 4zm.34 2.7c-1.4.02-2.3.46-2.81 1.11a3.31 3.31 0 0 0-.6 2.56 4.8 4.8 0 0 0 1.98 3.58 8.3 8.3 0 0 0 3.6 1.22 31.07 31.07 0 0 1-2-8.47h-.17zm11.4 3.35c-.52 0-1.02.3-1.27.8l-2.69 5.51a1.41 1.41 0 0 0 .66 1.9l5.53 2.68a1.41 1.41 0 0 0 1.89-.66l2.67-5.53a1.41 1.41 0 0 0-.66-1.89l-3.89-1.89-.7 1.45a.92.92 0 0 1 .19.32.92.92 0 0 1 .04.3v.06c.47.22.85.39 1.16.56.47.26.81.53.92.97s-.01.89-.26 1.48a37.41 37.41 0 0 1-.8 1.74c.06.07.14.2.17.3a.92.92 0 0 1 .06.29c0 .34-.26.72-.59.84a1.02 1.02 0 0 1-.31.07.97.97 0 0 1-.85-.6 1.02 1.02 0 0 1-.04-.31c0-.35.26-.72.59-.85a.99.99 0 0 1 .3-.04h.03c.34-.72.64-1.28.81-1.7.23-.57.28-.86.23-1.04s-.2-.3-.6-.54a17.4 17.4 0 0 0-1.11-.57.92.92 0 0 1-.3.18.99.99 0 0 1-.3.04h-.1l-1.2 2.47a.94.94 0 0 1 .22.33.92.92 0 0 1 .05.3c0 .34-.26.72-.6.84a.92.92 0 0 1-.29.07.97.97 0 0 1-.84-.6 1.02 1.02 0 0 1-.05-.31c0-.35.25-.72.58-.85a1.09 1.09 0 0 1 .31-.04l1.23-2.53c-.04-.07-.12-.18-.15-.25s-.05-.22-.05-.32c0-.34.27-.72.6-.84a.99.99 0 0 1 .3-.05l.73-1.47-1-.48a1.44 1.44 0 0 0-.61-.14z"/></svg>