<svg xmlns="http://www.w3.org/2000/svg" viewBox="0 0 24 28" id="icon"><path d="M8.1 18.75c.04-.05.03-.14-.04-.2-.08-.07-.17-.08-.22-.03-.03.04-.01.14.05.2.08.06.17.08.22.03zm-.43-.64c-.05-.06-.12-.1-.19-.06-.04.03-.04.12 0 .18.07.08.15.11.2.08.04-.03.04-.12 0-.2zm-.64-.63c.02-.03-.02-.09-.08-.12-.04-.02-.1-.02-.12.03-.03.05 0 .1.06.13.06.01.13.01.14-.04zm.33.36c.03-.03.03-.1-.03-.15-.05-.06-.13-.08-.16-.05-.04.05-.03.11.02.17.05.05.12.08.17.03zm1.34 1.18c.02-.07-.04-.14-.14-.18s-.17 0-.2.07c-.02.06.05.14.14.17s.17 0 .2-.06zm.66.04c0-.06-.08-.12-.19-.12-.1 0-.15.06-.15.12s.07.13.17.13.17-.06.17-.13zm.6-.1c0-.07-.1-.1-.2-.08s-.15.07-.13.14.09.1.18.09.16-.1.16-.16zM20 14a8 8 0 1 0-10.53 7.6c.4.07.55-.18.55-.4 0-.18 0-.8-.02-1.48 0 0-2.22.48-2.69-.95 0 0-.36-.93-.89-1.16 0 0-.72-.5.06-.5 0 0 .79.06 1.22.83.7 1.23 1.88.87 2.33.67.08-.52.28-.87.52-1.08-1.78-.2-3.66-.89-3.66-3.95 0-.88.31-1.58.83-2.14A2.9 2.9 0 0 1 7.8 9.3c.67-.2 2.2.83 2.2.83a7 7 0 0 1 2-.26 7 7 0 0 1 2 .26s1.53-1.03 2.2-.83a2.9 2.9 0 0 1 .08 2.13c.52.56.83 1.26.83 2.14 0 3.08-1.88 3.75-3.66 3.95.28.25.55.74.55 1.49l-.02 2.18c0 .22.14.47.55.4A8.02 8.02 0 0 0 20 14zm4-7.5v15a4.5 4.5 0 0 1-4.5 4.5h-15A4.5 4.5 0 0 1 0 21.5v-15A4.5 4.5 0 0 1 4.5 2h15A4.5 4.5 0 0 1 24 6.5z"/></svg>