<svg xmlns="http://www.w3.org/2000/svg" viewBox="0 0 24 28" id="icon"><path d="M12 2a12 12 0 0 1 3.8 23.4c-.61.1-.83-.28-.83-.59l.02-3.3c0-1.12-.38-1.84-.82-2.21 2.68-.3 5.49-1.32 5.49-5.93 0-1.3-.47-2.37-1.24-3.21.13-.32.53-1.54-.12-3.2-1-.3-3.3 1.24-3.3 1.24a11.28 11.28 0 0 0-6 0S6.7 6.66 5.7 6.97a4.34 4.34 0 0 0-.12 3.19 4.65 4.65 0 0 0-1.24 3.22c0 4.59 2.8 5.62 5.47 5.92-.34.31-.65.84-.76 1.6-.69.32-2.44.85-3.49-1a2.53 2.53 0 0 0-1.84-1.23c-1.17-.01-.08.74-.08.74.78.35 1.33 1.75 1.33 1.75.7 2.14 4.05 1.42 4.05 1.42l.01 2.23c0 .31-.22.69-.82.58A12 12 0 0 1 12 1.99zM4.55 19.23c.03-.06-.02-.14-.11-.18-.1-.03-.17-.02-.2.03-.04.06.01.14.1.19.08.04.18.03.2-.04zm.48.54c.06-.05.05-.16-.03-.25-.08-.08-.19-.11-.25-.05-.06.05-.05.16.03.25.08.08.19.1.25.05zm.47.7c.08-.06.08-.19 0-.3-.06-.1-.19-.15-.27-.1-.07.05-.07.18 0 .29s.2.15.27.1zm.66.66c.06-.07.03-.2-.07-.3-.1-.11-.25-.13-.31-.05-.08.06-.05.2.06.3.11.1.25.12.32.05zm.89.39c.03-.1-.07-.2-.2-.25-.13-.04-.27.01-.3.1s.06.2.2.24c.13.05.27 0 .3-.1zm.98.07c0-.1-.12-.18-.27-.17-.14 0-.25.08-.25.17 0 .11.11.2.27.18.14 0 .25-.08.25-.18zm.9-.15c0-.1-.13-.16-.27-.14-.15.03-.24.12-.22.23.01.1.14.16.28.13s.23-.13.22-.22z"/></svg>