<svg xmlns="http://www.w3.org/2000/svg" viewBox="0 0 26 28" id="icon"><path d="M10 19c0 1.14-.6 3-2 3s-2-1.86-2-3 .6-3 2-3 2 1.86 2 3zm10 0c0 1.14-.6 3-2 3s-2-1.86-2-3 .6-3 2-3 2 1.86 2 3zm2.5 0c0-2.4-1.45-4.5-4-4.5-1.03 0-2.02.19-3.05.33a16.53 16.53 0 0 1-4.9 0c-1.02-.14-2.02-.33-3.05-.33-2.55 0-4 2.1-4 4.5 0 4.78 4.38 5.52 8.19 5.52h2.62c3.82 0 8.2-.74 8.2-5.52zm3.5-2.75c0 1.73-.17 3.58-.95 5.17C22.98 25.6 17.3 26 13.25 26 9.12 26 3.11 25.64.97 21.42.17 19.84 0 17.98 0 16.25c0-2.28.63-4.44 2.13-6.19a8.59 8.59 0 0 1-.43-2.65c0-1.18.27-2.35.8-3.41 2.47 0 4.05 1.08 5.92 2.55A20.9 20.9 0 0 1 13.25 6c1.47 0 2.95.16 4.38.5C19.48 5.05 21.05 4 23.5 4a7.63 7.63 0 0 1 .8 3.4c0 .9-.14 1.79-.43 2.63A9.38 9.38 0 0 1 26 16.25z"/></svg>