<svg xmlns="http://www.w3.org/2000/svg" viewBox="0 0 24 28"><path d="M11.63 4.77c0-.83-.08-1.55-1.08-1.55-.43 0-.85.14-1.22.36C6.97 4.88 6 8.23 6 10.77c0 1.68.58 3.93 2.64 3.93.47 0 1.06.13 1.19-.42l1.5-7.23c.16-.75.3-1.52.3-2.28zM23.4 15.02c0 .15-.2.3-.36.3h-.1c-1.06-.16-2-.44-3.08-.44-1.95 0-3.75.57-5.48 1.45-.22.1-.27.2-.33.42-.28 1.06-.47 2.16-.73 3.22C12.39 23.6 9.35 28 5.17 28c-2.84 0-4.6-1.94-4.6-4.73 0-1.52 1-4.47 2.82-4.47.64 0 3.16.82 3.17 1.48-.03.13-2.45 1.38-2.45 3.48 0 .65.31 1.15 1.02 1.15 2.48 0 3.62-4.54 3.87-6.44v-.14c0-.13-.5-.07-.6-.07-4.7 0-7.45-2.62-7.45-7.35C.95 6.44 3.86.98 8.63.15a9.72 9.72 0 0 1 1.65-.14c3.78 0 5.85 1.77 5.85 5.63 0 2.6-.9 5.01-1.27 7.56l.05.05c1.68-.95 3.47-1.86 5.47-1.86.2 0 .64.12.82.2.41.16 2.2 2.99 2.2 3.42z"/></svg>