<svg xmlns="http://www.w3.org/2000/svg" viewBox="0 0 24 28"><path d="M13.53 8.05c0 .5-.1.98-.2 1.47l-.97 4.68c-.05.22-.05.22-.28.24a4.91 4.91 0 0 1-.49.03c-1.34 0-1.71-1.45-1.71-2.55 0-1.62.64-3.8 2.15-4.65.25-.13.52-.22.8-.22.64 0 .7.47.7 1zm7.6 6.62c0-.28-1.16-2.1-1.43-2.22a2.27 2.27 0 0 0-.53-.12c-1.28 0-2.44.58-3.53 1.2l-.03-.03c.25-1.67.81-3.16.81-4.9 0-2.47-1.33-3.63-3.78-3.63-.36 0-.72.05-1.06.1-3.08.54-4.95 4.05-4.95 6.95 0 3.06 1.76 4.75 4.8 4.75.07 0 .4-.04.4.04 0 .03 0 .05-.02.08-.06.6-.25 1.25-.4 1.83-.24.86-1.05 2.34-2.1 2.34-.45 0-.65-.31-.65-.73 0-1.36 1.56-2.17 1.6-2.25 0-.06-.09-.13-.12-.16a3.2 3.2 0 0 0-1.93-.8c-1.2 0-1.83 1.91-1.83 2.88 0 1.81 1.14 3.06 2.97 3.06 2.7 0 4.67-2.84 5.28-5.18.17-.7.3-1.4.47-2.08.03-.14.07-.2.22-.28a7.8 7.8 0 0 1 3.54-.94c.7 0 1.3.12 1.99.28.01.02.04.02.06.02.1 0 .22-.11.22-.2zM24 6.5v15a4.5 4.5 0 0 1-4.5 4.5h-15A4.5 4.5 0 0 1 0 21.5v-15A4.5 4.5 0 0 1 4.5 2h15A4.5 4.5 0 0 1 24 6.5z"/></svg>