<svg xmlns="http://www.w3.org/2000/svg" viewBox="0 0 24 28"><path d="M12 2.06a12 12 0 0 1 8.48 3.52 12 12 0 0 1 0 16.97 12 12 0 0 1-16.96 0 12 12 0 0 1 0-16.97A12 12 0 0 1 12 2.06zm1.48 3.74h-.1c-1.22.01-2.13.3-3.2.45s-2.44.16-3.2.45-.9.61-1.35.9-1.13.48-1.36.92 0 .9 0 1.35-.44 1.15 0 1.38.9-.61 1.36-.9S6.69 9.24 7 9.41s.1.13 0 .45-.84.7-.87 1.36 1.72 1.22 1.14 2.11c-.58.88-3.16-.78-3.9-.28s-.3.9-.46 1.36-.63.9-.45 1.37.85.58 1.35.91 1.36.92 1.38.97l.45 2.27c.1.53.05 1.21.07 1.87.68.56 1.92 1.28 2.75 1.6.32-.65.57-1.68.82-2.18.38-.75 1.2-2.07 1.36-2.72s0-.6 0-.9.13-.5 0-.9-.62-.91-.92-1.37-.58-1.07-.9-1.37-.77-.3-.91-.45-.06-.15-.06-.22-.08-.13.07-.24.57-.14.9 0 .62.61.92.9.42.87.9.91.9-.6 1.36-.9c.45-.31 1.16-.55 1.67.34.13.25.67.55 1.06.55s.35-.66.47-.9.38-.58.75-.65.44.22.7.47.46 1.08.82 1.08.34-.67.47-.92c.23-.53.1-1.02.89-1.82.3-.3.78-.45.89-.89s-.33-.97-.45-1.34-.44-.98-.44-1.38c0-.32.42-.39.98-.68A11.55 11.55 0 0 0 18.3 6.3a9.71 9.71 0 0 1-.86-.06c-1.08-.13-2.75-.46-3.95-.46zm6.07 11.78c-.5-.02-1.1.67-1.64.94-.61.3-1.57.5-1.82.92s0 .6 0 .9-.22.7 0 .91.6 0 .9 0 .59-.14.93 0c.19.08.36.27.52.45.62-.53 1.5-1.53 1.95-2.22-.08-.17-.16-.32-.22-.5-.16-.45.08-1.15-.45-1.37-.07-.03-.11-.03-.17-.03z"/></svg>