<svg xmlns="http://www.w3.org/2000/svg" viewBox="0 0 24 28" id="icon"><path d="M12 2.06a12 12 0 1 1 0 24 12 12 0 0 1 0-24zm2.44 2.6-.11.01-3.25.53c-.85.13-2.44.47-3.14.53s-.72 0-1.08 0l-.33-.03a12.09 12.09 0 0 0-3.01 3.1c0 .06.03.1.09.17.19.19.72 0 1.08 0s.92-.13 1.08 0 .01.1.03.14-.25 1.69-.11 2.25.15 1.38.51 2.02 1.72.98 2.27 1.53 1.66.53 1.75 1.1-.47 1.24-.66 1.6-.62.63-.54 1.08.72.73 1.07 1.1.74.45 1.08 1.07.4 1.95.55 2.7l.1.49.18.01c.9 0 2.28-.23 3.13-.51.09-.64.2-1.3.37-1.61.28-.52.38-.38.56-.56s.36-.28.55-.55.36-.72.53-1.06.6-.6.52-1.05-.74-.73-1.1-1.1-.54-.78-1.08-1.07-1.46-.38-2.03-.52-2.54-.23-2.57-.25 0 .13-.13-.03-.05-.78-.05-1.14.2-.69.47-1.33c.27-.36.11-.19.52-.48.2-.19.86.89 1.14.89s-.06-1.83.1-2c.73-.72 2.56-1.95 2.56-2.72s-.72-.72-1.08-1.08-.94.61-2.24.61 1.52-2.05 1.7-2.23.48-.35.55-.55 0-.36 0-.53.22-.44.14-.5c-.03-.03-.07-.03-.12-.03zm1.83.37c-.1.22-.11.49-.22.7-.19.36-.55.68-.55 1.08s.36.72.55 1.08.01.94.53 1.08 1.08-.72 1.62-1.08c.33-.22.78-.4 1.13-.62a11.7 11.7 0 0 0-3.06-2.24z"/></svg>