<svg xmlns="http://www.w3.org/2000/svg" viewBox="0 0 24 28"><path d="M3.41 2.06A3.4 3.4 0 0 0 0 5.46v13.65a3.4 3.4 0 0 0 3.41 3.4h10.14c-.01 3.87-5.23 5.5-5.23 5.5s8.83-.04 10.08-5.5h1.84a3.4 3.4 0 0 0 3.4-3.4V5.47a3.4 3.4 0 0 0-3.4-3.41H3.4zm4.9 2.73a.27.27 0 0 1 .1 0 .17.17 0 0 1 .08.04c.36.32-.6.64-.52 2.23.03.7-.18 1.24 1.16 1.24.9 0 .52-.8 1.65-.8.67 0 .91.44 1 .79.1-.35.35-.78 1.01-.78 1.13 0 .76.8 1.65.8 1.34 0 1.13-.55 1.16-1.25.08-1.59-.88-1.9-.52-2.23S17 6.4 17.04 7.13c.04.78.06 2-1.09 2.62a5.3 5.3 0 0 1 1.45 2.93l-2.2-.04s-.51-2.28-3.19-2.17C9.34 10.6 9 11.05 9 13.88s1.24 3.8 3.14 3.88c2.99.12 2.71-1.55 2.71-1.55l-1.4.08-.77-2.1h4.77c0 2.29-.97 5.86-5.5 5.62s-5.55-3.8-5.58-6.2c-.03-1.32.19-2.8 1.27-3.86-1.13-.63-1.1-1.84-1.1-2.61 0-.96 1.23-2.26 1.78-2.35z"/></svg>