<svg xmlns="http://www.w3.org/2000/svg" viewBox="0 0 29 28"><path d="M6.05 16.3a.73.73 0 0 0-.61.4c-.14.25-.47.3-.63.25-.25-.07-.56-.14-.87.08s-.66.05-.6-.36.2-.76.6-.98c.84-.49.25-.85.72-1.33.47-.5.37-.64.36-1.31-1.58-.24-2.49-.7-3.49-1.94S.14 8.81.03 7.25s0-2.58.67-3.87S2.1 1.44 3.33.78 5.77-.02 6.89 0s1.86.11 2.5.47c.63.36 1.2.81 1.58.81s.64-.1.81-.23c.05 1.22-1.05 1.33-2.03 1.36S8.17 2 7.27 2.17 4.89 2.74 4.17 4s-.75 1.7-.69 2.75.96 1.8 1.47 1.82.63-.12 1.08-.42 2.72-3.1 3.5-3.75 1.55-.83 2.38-.84 1.04.01 1.72.3 1.07.78 1.6 1.09c.29-.16.46-.4.7-.6.91-.65 1.37-.84 2.45-.73.62.06 1.4.4 1.87.81.83.72 1.52 1.72 2.06 2.49.44.6.94 1.3 1.66 1.51.78.24 1.37-.78 1.47-1.34.05-.33.1-.6.1-.95s-.02-.79-.13-1.16-.27-.73-.46-1.03a3.64 3.64 0 0 0-2.76-1.7c-.53-.02-.94.15-1.44.18-.6.05-1.66.19-2.12-.28-.3-.3-.35-.48-.4-.87a.96.96 0 0 0 .49.2c.37.03.73-.28 1.03-.45.25-.14.6-.43.92-.55a5.85 5.85 0 0 1 2.75-.23c.7.07 1.64.39 2.27.75a6.09 6.09 0 0 1 2.73 3.7 9.3 9.3 0 0 1 .02 3.94c-.25.87-1.06 2.23-1.75 2.89s-1.49.95-2.38 1.12c.03.19.03.35.08.5.06.2.19.46.45.38.11-.03.16-.06.3.06s.08.6-.31.8c-.19.1-.4.12-.72.12s-.78.02-1.13-.04-.54-.33-.92-.38c-.58-.06-1.01-.48-1.48-.78-.19-.13-.27-.13-.38-.19l.19.55c.05.17.03.34.05.48l.08.38c.09.08.12.2.28.25s.4-.03.56-.05.26-.1.39-.08.23.11.34.2.2.1.28.3.16.65.18.93-.03.53-.11.76-.16.35-.4.56-.59.55-.96.79c.06.1.1.2.2.3s.34.24.44.35.14.2.14.33 0 .31-.11.45c-.27.36-.58.4-.95.58.06.4.1.69.01 1.1-.03.15-.1.53-.31.62s-.6.05-.84.08-.38.1-.57.12c-.1.18-.28.35-.34.5s-.05.2 0 .36.22.36.27.55.06.37.01.56-.12.31-.28.47-.44.3-.6.42-.3.14-.26.36c.06.3.48.77.8.88.18.06.44.04.67-.05-.02.25-.23.42-.38.6.4-.12.75-.33 1.02-.62-.08.25-.36.65-.77.99s-.42.26-.62.4c.37.08.72.05 1.02 0-.16.1-.43.22-.77.25s-.56.02-.88-.06-.59-.36-.96-.55c.03.15.06.3.21.44s.41.22.66.35c-.33-.03-.67-.03-.98-.11-.24-.05-.4-.13-.57-.2s-.3-.2-.46-.32c.07.14.09.31.21.42s.35.16.5.24c-.17 0-.34.04-.51 0s-.35-.11-.53-.25-.38-.32-.53-.49-.35-.39-.4-.54.02-.27.04-.41c-.11.08-.25.1-.33.22s-.14.19-.1.37.18.41.3.61c-.36-.28-.54-.4-.62-.75-.08-.32.12-.6.28-.86l.27-.35c-.16-.16-.35-.3-.49-.47s-.19-.41-.33-.58-.34-.28-.5-.42c.14.3.4.68.44.92s-.06.39-.14.51-.23.16-.36.24-.33.01-.4.14-.1.3-.02.4l.3.47c-.11-.06-.3-.21-.4-.32s-.21-.24-.23-.4-.01-.28.08-.42.37-.18.5-.3.19-.17.19-.3-.16-.24-.27-.33c-.36-.27-.81-.5-1.1-.83-.18-.19-.26-.33-.29-.46s0-.23.08-.39.39-.34.42-.51-.12-.2-.25-.27-.37.03-.5-.08.03-.31-.1-.43-.48-.05-.63-.18-.22-.28-.28-.47-.05-.39-.02-.53.16-.15.22-.22.12-.12.03-.23-.4 0-.56-.12-.07-.44-.19-.58-.36-.08-.47-.13-.15.1-.23-.14-.08-.94-.17-1.2-.27-.02-.36-.28 0-.7-.05-1.1l-.19-1.07c-.62.42-1.03.53-1.7.65-.06 1.64-.22 2.61.34 4.42s1.7 2.9 3.2 4.44c-2-1.5-2.96-2.73-3.56-4.3S6 17.8 6.05 16.3zm10.65-.66c.16 0 .33.06.44.13s.23.12.33.22c.25.24.44.56.51.9.05.22.07.5.08.77-.07-.24-.12-.5-.23-.72a1.74 1.74 0 0 0-.8-.81.42.42 0 0 0-.26-.04c.03.05.07.1.07.16s0 .2-.12.27c-.19.1-.42.01-.56-.11a.48.48 0 0 1-.13-.55c.1-.23.47-.23.67-.22zm-1.93-.33c.01-.39.15-.72.51-.9.19-.1.46-.24.72-.27a2.7 2.7 0 0 1 1.22.16c.28.12.45.32.7.47l.66.4c.36.25.56.52.81.69.13.08.3.08.45.13-.12.03-.3.07-.42.03a1.6 1.6 0 0 1-.53-.32c-.23-.18-.34-.3-.6-.43-.13-.1-.38-.2-.54-.3s-.44-.33-.6-.4a2.24 2.24 0 0 0-.77-.16c-.3.01-.75.06-.99.28s-.31.39-.27.67c.1-.1.15-.23.24-.31.19-.16.37-.16.6-.13.26.03.4.17.48.42-.07-.04-.16-.12-.24-.15a.64.64 0 0 0-.53.04c-.22.11-.14.28-.17.47-.02.1-.05.16-.08.24a.43.43 0 0 1-.22-.11c0 .1 0 .17.02.26l.1.33c-.16-.15-.3-.3-.4-.48s-.17-.4-.15-.63zm.25-2.86c.1-.15.15-.4.22-.6-.04.24.01.53-.11.71s-.35.18-.54.22c.15-.1.32-.17.43-.33zm-2.63 3.83c.14-.1.53-.01.81 0l-.62.16c-.02.06 0 .14-.05.2s-.14.08-.2.13c0-.2-.08-.38.06-.49zm2-7.94c.17.1.4.22.55.22s.19-.1.28-.15c.14.45.3.95.53 1.36.1.17.16.09.23.26s.11.53.2.75l.23.56c-.2-.3-.49-.67-.6-.92s-.03-.26-.12-.5-.3-.6-.44-.89c-.11.02-.22.03-.3 0s-.08-.1-.14-.16-.19-.04-.28-.12-.13-.25-.14-.4zm-.9 2.24c.15-.02.34.03.5.01s.26-.03.38-.06c-.03-.22 0-.64-.2-.8-.14-.09-.7-.01-.84.02-.33.08-.7.27-1.03.4.31-.23.56-.43.93-.54.22-.06.74-.16.97-.1.11.04.13.08.2.18.21.3.21.56.27.92.07.1.11.14.16.23s.06.24.08.35c-.07-.08-.02-.19-.18-.25s-.4 0-.62.01c.16.11.25.22.25.46a.51.51 0 0 1-.48.5c-.35.03-.52-.05-.66-.35-.06-.12-.02-.28-.02-.4-.4.03-.4.01-.7.26.16.24.27.38.53.52.16.08.33.17.52.2s.48.06.68.03.32-.07.46-.22.15-.32.22-.48c-.02.14-.03.33-.08.44-.17.33-.45.42-.8.42a3.1 3.1 0 0 1-1.04-.2c-.26-.1-.66-.4-.76-.64-.06-.18-.01-.38-.01-.57.34-.21.4-.17.81-.23.17-.03.3-.1.45-.1zM11.5 9.05c.02-.14.03-.13.05-.19-.32-.08-.43.1-.61.48-.06.15 0 .22-.08.32s-.19.08-.31.17-.24.25-.35.34c-.22.19-.53.3-.8.43.18-.13.54-.33.65-.52.06-.11.04-.3.14-.4s.12-.15.25-.16.08-.18.1-.28.13-.2.21-.3.19-.28.34-.35.41.02.53-.01.05-.14.15-.19.26-.01.39-.08c.2-.1.31-.26.43-.45.02.4.02.67-.12 1.03-.16.4-.31.66-.77.9-.15.1-.3.13-.43.18.07-.11.17-.16.22-.31s0-.47.01-.61zm7.23 1.9c-.21.02-.25-.01-.42.11l.27.42c-.02-.28.01-.32.15-.53zm-.54-.2c.3-.12.55-.23.87-.25.13-.02.33.02.46.02.1-.16.25-.28.3-.47.02-.13.02-.7-.04-.86-.17-.44-.34-.44-.6-.69-.16-.19-.18-.45-.23-.77-.01-.1-.07-.26-.1-.37a5.3 5.3 0 0 0-1.02-.05c.17-.17.34-.33.39-.58s0-.56-.14-.8-.36-.41-.58-.6-.51-.35-.72-.5c.27-.1.53-.24.78-.28.68-.13 1.25.06 1.9.45.37.23.68.45 1.07.86s.88 1.16 1.25 1.6.7.8 1.03 1.07.63.34.94.52l.5.51.4-.48.63.06.13-.7.6-.17-.1-.97.42-.3-.31-.6.31-.67-.42-.75.17-.71-.48-.43-.08-.76-.67-.27-.27-.65-.77-.02-.37-.5-.52.03-.57-.06-.33-.24-.47.32-.56-.3-1.13.44.74-.64.76-.13.58-.15.8.26.68-.17.68.4.71-.06.35.63.7.1.4.68.43.25.13.9.39.37-.18.78.47.58-.43.64.47.39-.61.53.6.64-.73.23.49.68-.6.1.4.74h-.68l.33.55-.74-.1.18.81-.55-.5-.2.99-.38-.7-.22.87-.47-.66.02.93-.53-.83c.1.47.08.98.39 1.42a3.54 3.54 0 0 0 2.3-1.06 7.5 7.5 0 0 0 1.65-2.81c.25-.96.25-2.7.02-3.7a5.68 5.68 0 0 0-1.06-2.15c-.52-.54-1.02-1.12-1.68-1.51A6.29 6.29 0 0 0 22.2.4c-.6.01-1 .14-1.36.26-.62.24-1.14.72-1.78.97-.2.08-.37.1-.54 0 .15.33.34.46.75.58.3.08.96.05 1.45 0 .51-.05.78-.22 1.48-.2a3.76 3.76 0 0 1 3.4 2.9 4.64 4.64 0 0 1 .04 2.25c-.22.8-.69 1.61-1.67 1.49-.61-.08-1.52-1.2-1.82-1.63a15.8 15.8 0 0 0-2.01-2.45 3.18 3.18 0 0 0-1.75-.77c-1.19-.1-1.53.11-2.42.85.18.06.36.1.54.17a4.11 4.11 0 0 1 1.13.73c.34.33.48.54.5 1 .01.32-.24.55-.47.77-.14.14-.34.25-.45.36-.16.14-.33.3-.14.52.07.07.18.15.3.23.16.12.09.58-.13.7a.75.75 0 0 1-.86-.06c.3-.05.48-.1.48-.33 0-.14-.18-.25-.36-.33-.42-.18-.73-.17-1.15-.47s-.42-.46-.53-.93c-.2.01-.4.01-.68.1s-.56.32-.8.36c-.63.15-.74.1-1.09 0-.59-.15-1.39.11-2.15.36-.13.05-.66 0-1 .13-.55.19-1.3.64-1.74 1.01-.65.57-1.51 2.24-2.01 4.16-.05.58.1.97-.27 1.25s-.34 1.02-.47 1.22-.28.12-.54.4-.4.24-.4.79c.24-.16.57-.32.86-.33.27-.02.27.33.94-.35.36-.35 1.05-.35 1.53-.51s1.35-.49 2.2-1.45 1.29-1.99 1.46-3.46c.03.27.06.56-.05 1.28s-.34 1.52.16 2.49l.33.6c-.19-.24-.57-.67-.68-.96l-.25-.7a5.2 5.2 0 0 1-1.5 1.7c-.03.4-.03.82.1 1.2s-.08.83.01 1.08.33.1.41.36-.03.75.08 1 .39.1.53.18.19.18.27.28-.04.36.12.44.38.02.53.1.17.26.14.43-.2.24-.28.41-.06.3.03.45.28.24.47.32.47.03.67.14.38.32.49.48.14.27.14.44-.08.36-.17.51-.28.35.03.66.3.17.47.38c-.02-.35-.18-.61-.07-.88s.41-.31.58-.42.27-.27.4-.4v.5c-.05.26-.13.5.27.54.2.02.36-.1.55-.17-.1.18-.27.33-.3.54s0 .46.16.68.4.37.6.5.3.14.43.2c0 .22-.05.42-.01.62s.09.38.2.55.3.25.47.38c-.1-.22-.28-.43-.28-.66s.06-.4.3-.6.76-.4 1.01-.6.33-.32.42-.52.06-.51.08-.69c.08.25.1.32.12.58s-.14.63-.21.81a1.23 1.23 0 0 0 .6-.62c.07.05.02.16.05.36.11-.11.25-.2.36-.32s.22-.18.28-.32.05-.32 0-.49-.22-.36-.33-.54 0-.36 0-.58c-.2-.03-.37-.14-.6-.11s-.5.3-.74.3-.37-.22-.58-.29-.39-.04-.6-.07c.26-.24 1.24-.36 1.9-.47a12.86 12.86 0 0 1 1.75-.16c.27 0 .6.08.8.03s.14-.17.18-.31c.16-.38.08-.72 0-1.1-.53-.07-1.09-.15-1.62-.1-.52.04-1.13.3-1.67.31-.47.02-1.18-.1-1.58-.34-.49-.3-.86-.96-1-1.16-.22-.34-.5-1-.67-1.3s-.2-.39-.35-.51-.33-.14-.5-.2c.19.01.4-.04.58.06.27.15.56.78.72 1.04.17-.57.12-.8.62-1.12-.4.45-.4.78-.5 1.31.33.55.8 1.42 1.41 1.67.22.1.6.15.83.18.73.09 1.45-.16 2.19-.33.53-.13 1.07-.06 1.72-.03.21.01.73-.13.84-.35.06-.12.05-.26-.03-.39s-.3-.2-.42-.31-.19-.25-.28-.38c-.5.1-.91.13-1.27.15.27-.11.5-.16.78-.27s.6-.3.81-.44.36-.22.52-.39.36-.36.48-.56.14-.44.14-.69 0-.63-.09-.83-.3-.26-.45-.31-.25.08-.4.1-.32.1-.56 0-.5-.34-.73-.66-.4-.86-.64-1.27c-.4-.7-.92-1.37-1.4-2.03a3 3 0 0 1-.13-.6c-.03-.4-.05-.79.08-1.17.09-.28.23-.57.53-.7.12-.05.26-.08.37-.03s.22.16.17.3c-.04.15-.15.15-.23.23a.75.75 0 0 0-.22.4c.13 0 .31-.02.42 0 .14.04.28.15.36.35-.17-.15-.25-.23-.47-.23-.1 0-.22.03-.33.05-.04.12-.06.3-.12.4s-.16.06-.2.19-.03.31-.02.47zm1.48-.19c.07.03.1.03.17.1s.2.12.25.28.08.39.07.48c-.07-.01-.14-.01-.2-.06s-.1-.17-.18-.22-.14-.03-.22-.05c.05.13.07.25.05.36-.05.25-.19.36-.42.4-.1 0-.27-.02-.36-.04l.16.27c.2-.03.34-.03.45-.08s.2-.16.34-.2.27-.07.4-.08l-.3.31c.07.25.18.49.26.74l.58.3c.24.14.5.4.8.54s.46.2.78.27.54.3.86.36.87.03 1.1.01c.27-.03.63-.15.66-.45-.22.06-.58 0-.75-.42-.08-.2-.03-.53-.16-.75s-.26-.3-.46-.57-.54-.7-.7-1.06-.21-.78-.37-1.1-.39-.6-.56-.85a3 3 0 0 0-1.34-1.2c-.31-.14-.66-.2-.99-.27-.14.06-.3.13-.34.28s.03.4.14.52c.19.2.47.4.58.72.08.2.1.86.03 1.04s-.2.3-.33.43zm.06 1.6c-.06.04-.1.09-.2.14s-.23.06-.36.1c.17.27.36.54.53.84l.49.9c0-.17.01-.36-.02-.51s-.1-.3-.17-.55l-.27-.92zm-4.78-6.07c-.03.27.02.7.08.96.06.31.13.48.4.67.46.34.77.3 1.13.5.18.1.4.27.46.44s-.05.34-.18.42c.24.03.49-.22.38-.48-.05-.13-.3-.2-.38-.33s-.07-.25-.04-.4c.06-.23.54-.46.72-.65.26-.3.36-.55.22-.92-.2-.53-1-.97-1.49-1.17-.22-.1-.34-.1-.51-.14.34.2.71.35.89.8.14.38.03.54.03.87 0 .15.2.25.3.34.07.08.06.14 0 .25 0-.1-.05-.17-.13-.23-.14-.1-.28-.08-.36-.27-.1-.3.1-.58-.12-.9-.2-.26-.43-.54-.75-.54-.16 0-.29.02-.44.07l-.2-.27h-.02c-.44-.4-.75-.73-1.38-1.02s-.92-.32-1.64-.3-1.42.07-2.25.79S6.72 8.02 6.2 8.36s-.64.47-1.28.47-1.64-.92-1.68-2.06-.07-1.55.73-2.93 2.23-1.8 3.3-1.93 1.72.23 2.5.23 1.56-.14 1.8-.77c-.12.07-.27.15-.7.13S9.87.98 9.2.66 7.8.3 6.86.28 4.75.33 3.58.95 1.6 2.25.94 3.48.16 5.72.27 7.22s.56 2.6 1.45 3.7 1.78 1.63 3.37 1.83l.33-1.49-.6.86.02-.97-.54.7-.24-.93-.44.73-.21-1.01-.65.51.2-.84-.84.1.4-.6-.79.02.46-.78-.7-.11.56-.7-.83-.26.69-.67-.7-.55.54-.42-.49-.65.54-.63-.2-.83.45-.39.12-.94.52-.25.43-.73.82-.08.39-.65.8.03.78-.4.8.16.9-.26.67.15.86.13.84.67-1.28-.45-.65.31-.54-.33-.37.25-.66.08-.59-.05-.42.53h-.88l-.31.7-.77.29-.07.8-.57.43.2.77-.48.8.36.68-.36.64.49.32-.11 1.01.67.18.14.75.73-.08.46.51.56-.54A6.35 6.35 0 0 0 7.78 7.6c.9-.98 1.44-1.9 2.64-2.56.88-.49 1.58-.66 2.55-.49.92.16 1.22.7 1.89 1.29.08-.13.08-.18.2-.27-.03.17-.1.36-.1.52z"/></svg>