<svg xmlns="http://www.w3.org/2000/svg" viewBox="0 0 18 28" id="icon"><path d="M0 13.58h1.27V9.77a7.78 7.78 0 0 1 15.53 0v3.78c-.02.01-.05.01-.06.03l-.02.01h-.02v.02h-.01v.02h-.02l-.01.01h-.02l-.03.03h-.02l-.01.02h-.02v.01h-.02l-.03.02-.01.02h-.02v.01h-.03v.02h-.02l-.01.01h-.02v.02l-.03.02h-.01l-.02.01-.05.02-.03.03h-.01l-.04.03h-.01l-.06.03-.02.02h-.02v.01h-.03l-.04.03-.02.02-.06.03h-.02l-.03.03h-.03l-.02.02-.06.03h-.02l-.01.02c-.02.01-.05.01-.07.03l-.01.01-.08.03-.1.05-.07.05c-1.55.73-4.02 1.51-8.7 1.86-3.36.23-5.41 1.72-6.74 3.5v-6.1zm4.84 0h8.38V9.77a4.19 4.19 0 0 0-8.38 0v3.8zm10.85.6c-.02.02-.07.02-.08.04zm-3.14-10.3a6.63 6.63 0 0 0-3.4-.94 6.63 6.63 0 0 0-6.6 5.87 7.75 7.75 0 0 1 10-4.94zm5.51 11.17V26H2.61c1.7-.95 2.97-.84 5.08-.78 2.86.1 6.01-1.11 7.58-2.7s-.15-.38-1.91.07-5.16.49-7.44-.1c7.17.09 9.95-2.22 11.55-4.3s-.69-.38-2.16.34-4.03 1.24-6.86.86a13.28 13.28 0 0 0 9.61-4.34z"/></svg>