<svg xmlns="http://www.w3.org/2000/svg" viewBox="0 0 28 28"><path d="M6.9 10.5c.3 0 .62.16.8.4A32.94 32.94 0 0 1 13.36 23H6.39A34.25 34.25 0 0 0 .66 11.3c-.25-.33 0-.8.4-.8H6.9zm8.72 5.58a47.77 47.77 0 0 1-1.95 6.14 32.4 32.4 0 0 0-4-9.28c.4-2.27.64-4.6.69-7.02a67.51 67.51 0 0 1 5.27 10.16zM17.18 5c4.67 6.44 8.14 14.38 8.9 23h-7.05c-.52-8.34-4.36-16.25-8.64-23h6.8zM28 14c0 4.34-.6 8.9-1.58 12.69a45.86 45.86 0 0 0-5.6-16.92A48.08 48.08 0 0 0 19.15.64a.51.51 0 0 1 .48-.64h5.61c.44 0 .84.3.95.72A49 49 0 0 1 28 14z"/></svg>