<svg xmlns="http://www.w3.org/2000/svg" viewBox="0 0 36 28" id="icon"><path d="M27.72 13.06 28 18c.13 2.2-4.48 4-10 4S7.87 20.2 8 18l.28-4.94 8.97 2.83a2.5 2.5 0 0 0 1.5 0zM36 8a.52.52 0 0 1-.34.48l-17.5 5.5c-.07.02-.11.02-.16.02l-.16-.02-10.18-3.21c-.9.7-1.52 2.42-1.64 4.53.59.34.98.96.98 1.7a1.99 1.99 0 0 1-.9 1.67l.9 6.77a.51.51 0 0 1-.5.56h-3a.51.51 0 0 1-.5-.56l.9-6.77A1.99 1.99 0 0 1 3 17a2 2 0 0 1 1.02-1.74c.09-1.82.56-3.8 1.53-5.15L.35 8.48C.14 8.41 0 8.22 0 8s.14-.4.34-.48l17.5-5.5C17.91 2 17.95 2 18 2l.16.02 17.5 5.5A.52.52 0 0 1 36 8z"/></svg>