<svg xmlns="http://www.w3.org/2000/svg" viewBox="0 0 28 28" id="icon"><path d="M20.17 7.44c-.5-.56-1.31.39-.87.9.42.52 1.81.14.87-.9zm-6.19 3.84a.4.4 0 0 1-.59 0 .39.39 0 0 1 0-.58.4.4 0 0 1 .6 0 .41.41 0 0 1 0 .58zm2.58 1.16-.54.54a.65.65 0 0 1-.94 0l-.6-.59a.68.68 0 0 1 0-.94l.55-.54a.68.68 0 0 1 .94 0l.6.6a.66.66 0 0 1 0 .93zm-1.7-2.03a.43.43 0 0 1-.6 0 .43.43 0 0 1 0-.6.4.4 0 0 1 .6 0 .4.4 0 0 1 0 .6zm6.3-1.54c-.7 1.33-2.55 1.88-3.68 1.08-1.12-.8-1.9-2.44-.67-3.84 1.22-1.4 2.3-.97 3.38.05.67.64 1.65 1.4.97 2.71zm3.14 7.54c.14-.91-1.16-.94-1.44-1.46-.77-1.36-1.56-2.07-3.08-1.72.66-.45 1.33-.34 1.33-.34.02-.36 0-.73-.53-1.4.22-.7.02-1.27.02-1.27a3.22 3.22 0 0 0 1.64-2.44 3.2 3.2 0 0 0-2.82-3.55 3.14 3.14 0 0 0-3.06 1.46c-1.31 2.26.08 4 1.27 4.59a2.64 2.64 0 0 1-2.27-1.94 5.02 5.02 0 0 1 .5-3.47s-.25-.32-.45-.5c0 0-.78 0-1.4.3.68-.86 1.43-.81 1.43-.81 0-.36-.03-.84-.2-1.22-.32-.64-1.41-.73-1.83.23a.25.25 0 0 1 .06-.1c-.28.67-.06 3.15.95 4.92a4.38 4.38 0 0 0-.73.56c-1.22.55-3.17 3.4-3.17 3.4-1.6.61-4.38 2.88-4 4.5a.74.74 0 0 0 .17.43 3.3 3.3 0 0 0-.47.47c-.67.78-.3 1.98 1 1.37.9-.4 1.69-1.14 2.06-1.72 0 0-.32-.28-.93-.25 1.56-.37 1.95-.53 2.62-.51.45.22.45-1.94.45-1.94 0-.83-.12-1.75-.62-2.34a4.6 4.6 0 0 1 1.58 3.42c-.05 1.03-.86 1.3-.86 1.3-.52.93-2.44 3.71-1.72 5.98 0 0-.55-.85-.58-1.25-.98 1.1-2.64 2.95-1.4 3.64 1.5.83 6.15-5 7.14-8.03a9.45 9.45 0 0 0 3.6-3.67c1.26 2.48 5.41 5.36 5.74 3.36zM28.03 14a14.01 14.01 0 1 1-28.02-.02 14.01 14.01 0 0 1 28.02.02z"/></svg>