<svg xmlns="http://www.w3.org/2000/svg" viewBox="0 0 24 28"><path d="M12 26a12 12 0 1 1 0-24 12 12 0 0 1 0 24zM8.08 10.14c-.16.05-.27.2-.27.36s.13.28.28.28h1.77a.49.49 0 0 0 .48-.48v-.14l-.01-.13a.5.5 0 0 0-.6-.34zm2.25 2.31v-1c-.03-.14-.19-.2-.33-.17l-5.08 1.38c-.08.01-.14.1-.14.18s.06.14.14.14h2.36c.27 0 .48.22.48.49v1.34c0 .14.13.27.27.27h5.06c.27 0 .49.2.49.47v1c.03.14.18.2.33.17l5.07-1.38c.08-.01.14-.1.14-.18s-.06-.14-.14-.14h-2.37a.47.47 0 0 1-.47-.49V13.2a.27.27 0 0 0-.27-.26h-5.06a.49.49 0 0 1-.48-.49zm3.6-3.9a.5.5 0 0 0-.37.47v2.75c0 .26.22.48.49.48h1.57a.47.47 0 0 0 .47-.48V8.59l-.01-.12a.48.48 0 0 0-.58-.35zm1.9 9.42c.15-.05.26-.2.26-.36s-.12-.3-.28-.3h-1.76a.49.49 0 0 0-.49.49v.14c0 .04 0 .08.02.12a.5.5 0 0 0 .6.35zm-5.85 1.58a.5.5 0 0 0 .36-.47v-2.75a.47.47 0 0 0-.48-.47H8.28a.46.46 0 0 0-.47.47v3.19a.47.47 0 0 0 .6.45z"/></svg>