<svg xmlns="http://www.w3.org/2000/svg" viewBox="0 0 26 28"><path d="M3.36 2a3.36 3.36 0 0 1 3.36 3.33v.03c0 .17-.02.33-.05.48L9.3 8.17a7.22 7.22 0 0 0-2.22 2.78l-2.7-2.4a3.16 3.16 0 0 1-1.02.17A3.35 3.35 0 0 1 0 5.36c0-.22.02-.44.06-.66l2.16 1.9L4.56 4l-2.1-1.88c.29-.07.59-.12.9-.12zm16.12 15.19 2.54 2.23c.26-.08.7-.14.96-.14a3.36 3.36 0 0 1 3.36 3.33v.03c0 .2-.03.4-.06.6l-2.17-1.91-2.35 2.59 2.2 1.94a3.38 3.38 0 0 1-.98.14 3.35 3.35 0 0 1-3.3-3.9l-2.2-1.95a7.45 7.45 0 0 0 2-2.96zM22.98 2c.32 0 .61.05.9.13L21.77 4l2.34 2.6 2.16-1.9a3.35 3.35 0 0 1-4.31 3.84l-2.72 2.41a7.2 7.2 0 0 0-2.2-2.78l2.6-2.33c-.02-.15-.02-.31-.02-.48v-.03A3.36 3.36 0 0 1 22.98 2zM6.86 17.19a7.42 7.42 0 0 0 1.98 2.97l-2.17 1.93A3.35 3.35 0 0 1 3.36 26a3.5 3.5 0 0 1-.97-.13l2.19-1.94-2.35-2.6-2.17 1.93c-.03-.2-.06-.4-.06-.61v-.03a3.36 3.36 0 0 1 3.36-3.33c.26 0 .7.06.97.14zm6.31-9.78c3.47 0 6.27 3.1 6.27 6.95 0 2.39-1.08 4.5-2.74 5.75a1.17 1.17 0 0 1-.98 1.83c-.66 0-1.19-.53-1.19-1.19 0-.06 0-.13.02-.19h-.2v.19a1.18 1.18 0 1 1-2.36 0l.01-.19h-.16v.14c0 .68-.54 1.24-1.2 1.24a1.23 1.23 0 0 1-1.03-1.86 7.15 7.15 0 0 1-2.7-5.72c0-3.84 2.8-6.95 6.26-6.95zm-2.7 5.18c-.13 0-.23.02-.34.05-.44.06-.82.36-1.08.7-.24.29-.4.63-.4 1-.04.32 0 .61.07.91.08.36.33.64.6.84.13.11.32.25.5.13.1-.14 0-.36.1-.52a.54.54 0 0 1 .28-.36c.28-.14.58-.28.9-.39.24-.07.45-.23.67-.37.28-.22.46-.63.32-.97a2.1 2.1 0 0 0-.6-.72 1.93 1.93 0 0 0-1.02-.3zm5.39 0a1.87 1.87 0 0 0-1 .3c-.27.19-.45.44-.61.72-.14.34.05.75.33.97.22.14.42.3.67.37.31.11.6.25.88.4.14.07.26.2.3.35.09.16 0 .38.1.52.17.13.36-.02.49-.13.28-.2.53-.48.6-.84.07-.3.11-.6.08-.9 0-.38-.17-.72-.4-1a1.74 1.74 0 0 0-1.08-.7 1.34 1.34 0 0 0-.36-.06zm-2.67 3.57c-.31-.02-.69 1.37-.63 1.97.19.8.25-.57.63-.57.36.02.3 1.38.58.55.07-.55-.25-1.94-.58-1.95z"/></svg>