<svg xmlns="http://www.w3.org/2000/svg" viewBox="0 0 27 28"><path d="M12.6 0a14 14 0 0 1 13.63 17.25H23.2V8.44c0-.6-.8-.88-1.31-.88-.52 0-1.3.4-1.31.88a585.2 585.2 0 0 0 0 10.43c.03.93.22 1.2 1.42 1.2.67 0 2.06.02 3.23 0A13.82 13.82 0 0 1 12.54 28C4.18 28 .45 21.16 0 20.06c.4.1 1.54-.2 1.54-.8 0-.92.02-2.64 0-4.01 1.36 0 2.96.02 4.41 0v3.6s.72 1.21 1.31 1.21 1.3-.55 1.32-1.2c.04-2.72 0-9.33 0-10.42 0-.57-.78-.88-1.3-.88-.53 0-1.31.24-1.33.88v4.4h-4.4c0-1.03-.02-3.28 0-4.4 0-.64-.83-1-1.38-.88C1.34 4.84 5.78 0 12.6 0zm1.95 7.56c-.83 0-1.27.52-1.46.88s-3.92 8.81-3.92 10.01.69 1.61 1.35 1.61 1.59-.72 1.59-1.44h4.8c0 .58.76 1.44 1.48 1.44S20 19.53 20 18.63c0-.97-1.6-4.18-1.6-4.18-.42-.95-2.23-5.6-2.42-6.01s-.6-.88-1.43-.88zm3.84 6.9-2 2h-3.6l1.59-4.02s2.6 1.22 4.01 2.01z"/></svg>