<svg xmlns="http://www.w3.org/2000/svg" viewBox="0 0 24 28"><path d="M20 25c0-.55-.45-1-1-1s-1 .45-1 1 .45 1 1 1 1-.45 1-1zm2-11.94c0-1.76-.72-2.95-2.6-2.95-.3 0-.6.03-.88.08-.36-.66-1.25-1.02-1.97-1.02-.38 0-.75.1-1.08.28a2.49 2.49 0 0 0-1.86-.83c-.5 0-1.23.22-1.6.55V4c0-1.08-.93-2-2-2-1.07 0-2 .95-2 2v9c-1 0-2-1.5-4-1.5-1.5 0-2 1.17-2 2.5 0 .44 1.8 1.23 2.16 1.4.35.2.7.38 1.02.58a16.2 16.2 0 0 1 2.26 1.75c1.15 1 2.55 2.11 2.55 3.77v.5h10v-.5c0-2.73 2-5.4 2-8.44zm2-.08c0 1.75-.48 3.41-1.08 5.03-.34.96-.92 2.5-.92 3.49V26a2 2 0 0 1-2 2H10a2 2 0 0 1-2-2v-4.5c0-.75-1.34-1.81-1.86-2.27a16.1 16.1 0 0 0-2.01-1.56C2.67 16.77 0 16.09 0 14c0-2.49 1.36-4.5 4-4.5.69 0 1.36.1 2 .34V4c0-2.16 1.83-4 3.98-4A4.04 4.04 0 0 1 14 4v2.64a4.4 4.4 0 0 1 1.86.58 4.55 4.55 0 0 1 3.45.9c2.95-.04 4.69 1.97 4.69 4.86z"/></svg>