<svg xmlns="http://www.w3.org/2000/svg" viewBox="0 0 26 28" id="icon"><path d="M13.75 2C12.78 2 12 2.78 12 3.75V14h-.5V5.75a1.75 1.75 0 1 0-3.5 0V18l-2.4-3.2a2 2 0 0 0-3.19 2.4l6 8A2 2 0 0 0 10 26h10.75a1.52 1.52 0 0 0 1.48-1.22l1.2-6.33c.04-.3.07-.6.07-.92V9.75a1.75 1.75 0 1 0-3.5 0V14h-.5V5.75a1.75 1.75 0 1 0-3.5 0V14h-.5V3.75c0-.97-.78-1.75-1.75-1.75zm0-2c1.4 0 2.7.8 3.34 2.06a3.11 3.11 0 0 1 .66-.06 3.76 3.76 0 0 1 3.75 3.75v.27c2.17-.13 4 1.54 4 3.73v7.78c0 .44-.05.88-.13 1.3l-1.18 6.31A3.49 3.49 0 0 1 20.75 28H10a4.07 4.07 0 0 1-3.2-1.6l-6-8A4 4 0 0 1 4 12c.66 0 1.45.16 2 .53V5.75A3.76 3.76 0 0 1 9.75 2c.22 0 .44.01.66.06A3.75 3.75 0 0 1 13.75 0z"/></svg>