<svg xmlns="http://www.w3.org/2000/svg" viewBox="0 0 32 28" id="icon"><path d="M17.98 0a4 4 0 0 1 3.24 1.64l8.94 12.2A9.39 9.39 0 0 1 32 19.45V25a3 3 0 0 1-3 3h-6a3 3 0 0 1-3-3v-2.77L15.53 20H7a3 3 0 0 1-3-3v-.5A4.5 4.5 0 0 1 8.5 12h6.56l.66-2H5a4 4 0 0 1-3.98-3.66A4.5 4.5 0 0 1 0 3.5V3a3 3 0 0 1 3-3h14.98zM30 25v-5.55a7.58 7.58 0 0 0-1.45-4.43l-8.96-12.2A2.02 2.02 0 0 0 18 2H3a1 1 0 0 0-1 1c0 .83.02 1.4.56 2.08A1.52 1.52 0 0 1 4 4h13v.5H4a1 1 0 0 0-1 1c0 .3-.02.6.05.9A2 2 0 0 0 5 8h11.42a1.5 1.5 0 0 1 1.5 1.5c0 .16-.03.33-.08.47l-1 3A1.51 1.51 0 0 1 15.42 14H8.5A2.5 2.5 0 0 0 6 16.5v.5a1 1 0 0 0 1 1h8.77c.15 0 .3.03.45.1l4.95 2.48c.5.26.83.78.83 1.34V25a1 1 0 0 0 1 1h6a1 1 0 0 0 1-1z"/></svg>