<svg xmlns="http://www.w3.org/2000/svg" viewBox="0 0 26 28" id="icon"><path d="M10 2a2 2 0 0 0-2 2v14l-2.36-3.16A2.13 2.13 0 0 0 3.97 14a2 2 0 0 0-1.56 3.2l6 8A2 2 0 0 0 10 26h11.22a1 1 0 0 0 .97-.75l1.44-5.75c.25-1 .37-2.02.37-3.03v-3.4c0-.82-.64-1.57-1.5-1.57A1.5 1.5 0 0 0 21 13h-.5v-.95A1.75 1.75 0 1 0 17 12v1h-.5v-1.4c0-1.13-.86-2.1-2-2.1a2 2 0 0 0-2 2V13H12V4.1c0-1.13-.86-2.1-2-2.1zm0-2c2.23 0 4 1.88 4 4.1v3.43c.17-.01.33-.03.5-.03a3.94 3.94 0 0 1 2.7 1.08 3.7 3.7 0 0 1 4.42 1.03A3.54 3.54 0 0 1 26 13.08v3.39c0 1.17-.14 2.36-.44 3.52l-1.43 5.75A3 3 0 0 1 21.21 28H10a4.07 4.07 0 0 1-3.2-1.6l-6-8A4 4 0 0 1 3.97 12a3.99 3.99 0 0 1 2.03.55V4a4 4 0 0 1 4-4zm2 22v-6h-.5v6h.5zm4 0v-6h-.5v6h.5zm4 0v-6h-.5v6h.5z"/></svg>