<svg xmlns="http://www.w3.org/2000/svg" viewBox="0 0 24 28"><path d="M22 15c0-3.1-2-5.77-2-8.5V6H10v.5c0 1.66-1.4 2.77-2.55 3.77-.72.64-1.43 1.23-2.26 1.75-.35.22-.7.4-1.07.59S2 13.58 2 14.01c0 1.32.5 2.5 2 2.5 2 0 3.02-1.5 4-1.5v9c0 1.04.94 2 2 2 1.08 0 2-.93 2-2v-5.18a3 3 0 0 0 1.6.55c.74 0 1.37-.3 1.87-.83.33.18.7.28 1.08.28.71 0 1.6-.36 1.96-1.02.29.05.58.07.88.07 1.84 0 2.6-1.15 2.6-2.88zM20 3c0-.55-.45-1-1-1s-1 .45-1 1 .45 1 1 1 1-.45 1-1zm4 11.94c0 2.87-1.63 4.97-4.6 4.95l-.09-.01a4.47 4.47 0 0 1-3.45.9 5.15 5.15 0 0 1-1.86.58V24c0 2.19-1.83 4-4.02 4A4.06 4.06 0 0 1 6 24v-5.84a5.4 5.4 0 0 1-2 .34c-2.62 0-4-2.02-4-4.5 0-2.1 2.67-2.77 4.13-3.67.73-.47 1.37-1 2.01-1.57C6.66 8.31 8 7.25 8 6.5V2a2 2 0 0 1 2-2h10a2 2 0 0 1 2 2v4.5c0 .98.58 2.53.92 3.48A14.6 14.6 0 0 1 24 14.94z"/></svg>