<svg xmlns="http://www.w3.org/2000/svg" viewBox="0 0 28 28" id="icon"><path d="M16.77 26H14c-1.63 0-2.86-.7-3.53-2.2a3.77 3.77 0 0 1-.36-1.6v-.07a3.76 3.76 0 0 1-2.1-3.38c0-.17 0-.6.07-.75H4a4 4 0 0 1 0-8h1.77l-.7-.27a4 4 0 0 1 2.84-7.47L17.74 6H24a4 4 0 0 1 4 4v10.44a3.98 3.98 0 0 1-3.03 3.87l-5.3 1.33c-.94.23-1.92.36-2.9.36zM16 14.9 13.58 16l-2.55 1.16a1.75 1.75 0 0 0 .72 3.34c.25 0 .5-.05.72-.16l5.28-2.4A2.24 2.24 0 0 1 16 15.75v-.86zm5 4.85a1.75 1.75 0 0 0-2.47-1.6L14 20.23c-.94.42-1.9.8-1.9 1.98a1.7 1.7 0 0 0 1.78 1.78c.18 0 .43-.06.59-.14l5.5-2.5a1.75 1.75 0 0 0 1.03-1.6zM17.37 8 7.22 4.12A2.25 2.25 0 0 0 6.5 4a2 2 0 0 0-.72 3.88L14 11v1H4a2 2 0 0 0 0 4h8.36L16 14.34v-3.09c0-.63.27-1.23.72-1.66L18.45 8h-1.07zm-.6 16c.8 0 1.64-.1 2.42-.3l5.3-1.32A1.99 1.99 0 0 0 26 20.43V10a2 2 0 0 0-2-2h-4.8l-2.13 1.97a1.74 1.74 0 0 0-.56 1.28v4.63c0 .97.8 1.68 1.75 1.68.97 0 1.75-.86 1.75-1.81V12.5h.5v3.25c0 .7-.34 1.36-.89 1.78a2.25 2.25 0 0 1 .58 4.27L15.34 24h1.43z"/></svg>