<svg xmlns="http://www.w3.org/2000/svg" viewBox="0 0 28 28" id="icon"><path d="M4 21c0-.55-.45-1-1-1s-1 .45-1 1 .45 1 1 1 1-.45 1-1zm22-9c0-1.06-.95-2-2-2h-9c0-.98 1.5-2 1.5-4 0-1.5-1.17-2-2.5-2-.44 0-1.23 1.81-1.4 2.17-.2.35-.38.69-.58 1.02a16.2 16.2 0 0 1-1.75 2.26C9.27 10.6 8.16 12 6.5 12H6v10h.5c2.73 0 5.4 2 8.44 2 1.75 0 2.95-.73 2.95-2.6 0-.3-.03-.6-.08-.88.66-.36 1.02-1.25 1.02-1.97 0-.38-.1-.75-.28-1.08.53-.5.83-1.12.83-1.86 0-.5-.22-1.23-.55-1.6H24c1.08 0 2-.93 2-2zm2-.02A4.04 4.04 0 0 1 24 16h-2.64a4.39 4.39 0 0 1-.58 1.86 4.55 4.55 0 0 1-.9 3.45c.04 2.95-1.97 4.69-4.86 4.69-1.75 0-3.41-.48-5.04-1.08-.95-.34-2.5-.92-3.48-.92H2a2 2 0 0 1-2-2V12c0-1.1.9-2 2-2h4.5c.75 0 1.81-1.34 2.27-1.86.56-.64 1.09-1.28 1.56-2.02C11.23 4.67 11.9 2 14 2c2.48 0 4.5 1.36 4.5 4 0 .69-.1 1.36-.34 2H24c2.16 0 4 1.83 4 3.98z"/></svg>