<svg xmlns="http://www.w3.org/2000/svg" viewBox="0 0 24 28"><path d="M20.13 10.1c.57 0 1.15.12 1.67.37 1.5.67 2.2 1.9 2.2 3.53v2.77c0 .98-.13 1.96-.36 2.9l-1.33 5.3A3.98 3.98 0 0 1 18.44 28H8a4 4 0 0 1-4-4v-6.27L.27 7.93A4 4 0 0 1 4 2.5a4 4 0 0 1 3.73 2.57l.27.68V4a4 4 0 0 1 8 0v4.08a3.77 3.77 0 0 1 4.13 2.03zm-3.38-.1a1.75 1.75 0 0 0-1.6 1.03L14 13.58 12.9 16h.85c1.05 0 1.97.73 2.19 1.75l2.4-5.28a1.75 1.75 0 0 0-1.6-2.47zm3.45 2.1c-1.18 0-1.56.96-1.98 1.9l-2.06 4.53a1.62 1.62 0 0 0-.16.72 1.75 1.75 0 0 0 3.34.72l2.5-5.5c.08-.16.15-.4.15-.6a1.7 1.7 0 0 0-1.79-1.76zM2 6.5c0 .25.05.48.13.72L6 17.37v1.08l1.6-1.73A2.28 2.28 0 0 1 9.24 16h3.1L14 12.36V4a2 2 0 0 0-4 0v10H9L5.87 5.78A2 2 0 0 0 2 6.5zM18.44 26c.92 0 1.72-.63 1.93-1.52l1.33-5.3a9.7 9.7 0 0 0 .3-2.41v-1.43l-2.2 4.85a2.25 2.25 0 0 1-4.27-.58 2.27 2.27 0 0 1-1.78.89H10.5V20h3.25c.95 0 1.81-.78 1.81-1.75a1.7 1.7 0 0 0-1.68-1.75H9.25a1.74 1.74 0 0 0-1.28.56L6 19.2V24c0 1.1.9 2 2 2h10.44z"/></svg>