<svg xmlns="http://www.w3.org/2000/svg" viewBox="0 0 30 28" id="icon"><path d="M7.17 28c-1.6 0-3-1.1-3.39-2.66L2.2 19.08a7.67 7.67 0 0 1-.2-1.69c0-.36 0-.7-.08-1.05L.11 8.9a3.76 3.76 0 0 1 3.28-4.63 3.7 3.7 0 0 1 3.67-3.01 3.75 3.75 0 0 1 3.64 2.88L12 9.55l1.61-6.68a3.73 3.73 0 0 1 7.33.28 3.75 3.75 0 0 1 3.2 4.68l-1.92 8c1.25-.93 2.16-1.84 3.8-1.84A3.98 3.98 0 0 1 30 17.95a4.2 4.2 0 0 1-1.67 3.32L20.4 27.2a4 4 0 0 1-2.4.8H7.18zM17.25 2c-.8 0-1.5.56-1.69 1.34L13 14h-1.98L8.75 4.6a1.74 1.74 0 0 0-3.44.42 2 2 0 0 0 .05.43L7.42 14h-.4L5.47 7.63a1.8 1.8 0 0 0-1.7-1.38 1.76 1.76 0 0 0-1.72 2.16l1.81 7.47c.22.9.06 1.8.3 2.72l1.56 6.26A1.5 1.5 0 0 0 7.17 26h10.85a2 2 0 0 0 1.19-.4l7.92-5.93c.53-.4.87-1.04.87-1.71 0-1.1-.9-1.96-1.98-1.96-.44 0-.86.14-1.2.4l-4.8 3.6v-3.54c0-.13 2.02-8.41 2.17-9.08.03-.14.06-.3.06-.46 0-.96-.73-1.8-1.73-1.8-.81 0-1.52.57-1.7 1.35L17 14h-.4l2.34-9.75c.03-.14.05-.3.05-.44 0-.98-.72-1.8-1.73-1.8z"/></svg>