<svg xmlns="http://www.w3.org/2000/svg" viewBox="0 0 28 28" id="icon"><path d="M21.5 22h.5V12h-.5c-1.66 0-2.77-1.4-3.77-2.55a16.47 16.47 0 0 1-1.75-2.26c-.21-.35-.4-.7-.59-1.07S14.42 4 13.99 4c-1.32 0-2.5.5-2.5 2 0 2 1.5 3.02 1.5 4H4c-1.04 0-2 .94-2 2 0 1.08.93 2 2 2h5.18c-.33.38-.55 1.1-.55 1.6 0 .74.3 1.37.83 1.87a2.18 2.18 0 0 0-.28 1.08c0 .71.36 1.6 1.02 1.96a5.35 5.35 0 0 0-.07.88c0 1.84 1.14 2.6 2.88 2.6 3.1 0 5.76-2 8.5-2zm4.5-1c0-.55-.45-1-1-1s-1 .45-1 1 .45 1 1 1 1-.45 1-1zm2-9v10a2 2 0 0 1-2 2h-4.5c-.98 0-2.53.58-3.48.92A14.6 14.6 0 0 1 13.06 26c-2.87 0-4.97-1.63-4.95-4.6l.02-.09a4.47 4.47 0 0 1-.91-3.45A4.39 4.39 0 0 1 6.64 16H4c-2.19 0-4-1.83-4-4.02A4.06 4.06 0 0 1 4 8h5.85a5.8 5.8 0 0 1-.35-2c0-2.64 2.02-4 4.5-4 2.1 0 2.77 2.67 3.67 4.13.47.73 1 1.37 1.57 2.01.45.52 1.51 1.86 2.26 1.86H26a2 2 0 0 1 2 2z"/></svg>