<svg xmlns="http://www.w3.org/2000/svg" viewBox="0 0 24 28"><path d="M12 6a2 2 0 0 0-2 2v2h-.5V8.55A1.75 1.75 0 1 0 6 8.5v6.7l-.5-.47v-2.68A1.75 1.75 0 1 0 2 12v3.5c0 .48.2.94.55 1.28l4.84 4.62c.45.46.61.97.61 1.6a1 1 0 0 0 1 1h10a1 1 0 0 0 1-1v-.4c0-.4.05-.8.16-1.2l1.68-6.8c.11-.4.16-.8.16-1.21V9.54a1.75 1.75 0 1 0-3.5-.05v.5H18V8.05c0-.82-.56-1.59-1.4-1.76A1.75 1.75 0 0 0 14.5 8v2H14V8.1c0-1.05-.75-1.98-1.8-2.09L12 6zm0-2c.84 0 1.66.27 2.33.78a3.73 3.73 0 0 1 5 1.08A3.77 3.77 0 0 1 24 9.55v3.84a7.66 7.66 0 0 1-.2 1.69l-1.7 6.81c-.1.38-.1.73-.1 1.11a3 3 0 0 1-3 3H9c-1.78 0-3-1.42-3-3.14l-4.81-4.63a3.84 3.84 0 0 1-1.2-2.73V12a3.76 3.76 0 0 1 3.76-3.75c.1 0 .17 0 .25.02a3.76 3.76 0 0 1 3.75-3.52 3.69 3.69 0 0 1 1.53.33A3.9 3.9 0 0 1 12 4z"/></svg>