<svg xmlns="http://www.w3.org/2000/svg" viewBox="0 0 36 28" id="icon"><path d="M3 18c1.31 0 1.31-2 0-2s-1.31 2 0 2zm23.02-.9c-1.24-1.62-2.44-3.26-3.85-4.73l-1.95 2.2a4.27 4.27 0 0 1-6.47-.1 3.8 3.8 0 0 1 .03-4.92l2.77-3.22c-.97-.5-2.14-.33-3.19-.33a3.5 3.5 0 0 0-2.47 1.03L8.42 9.5H6V18c.69 0 1.31-.1 1.86.44L12.5 23c.95.92 2.19 1.73 3.55 1.73.7 0 1.45-.23 1.95-.73a2.3 2.3 0 0 0 2.9-1.45 2.51 2.51 0 0 0 1.97-.7c.36-.32.83-.97.79-1.5.14.15.48.17.67.17a2.08 2.08 0 0 0 1.69-3.43zm2.48.9H30v-8h-1.45l-2.46-2.81A3.54 3.54 0 0 0 23.45 6h-2.6c-.88 0-1.73.4-2.29 1.05l-3.26 3.8a1.82 1.82 0 0 0-.02 2.34 2.3 2.3 0 0 0 3.45.04l3.02-3.4c.72-.8 2.03-.05 1.7.97.6.69 1.24 1.36 1.82 2.04.78.97 1.53 1.99 2.3 2.97.48.63.84 1.38.93 2.2zm4.5 0c1.31 0 1.31-2 0-2s-1.31 2 0 2zm3-9v10a1 1 0 0 1-1 1h-6.78a4.08 4.08 0 0 1-3.23 2.47 4.76 4.76 0 0 1-2.86 1.98 4.34 4.34 0 0 1-3.65 1.66c-2.57 1.45-5.48.19-7.4-1.7L6.59 20H1a1 1 0 0 1-1-1V8.5a1 1 0 0 1 1-1h6.58C9.39 5.69 10.64 4 13.36 4h1.83c1.01 0 2 .31 2.83.88A5.04 5.04 0 0 1 20.84 4h2.61c2.97 0 4.2 1.94 6 4H35a1 1 0 0 1 1 1z"/></svg>