<svg xmlns="http://www.w3.org/2000/svg" viewBox="0 0 28 28" id="icon"><path d="m15.48 16 1-4h-3.96l-1 4h3.96zm12-7.88-.87 3.5a.5.5 0 0 1-.48.38h-5.11l-1 4h4.85c.16 0 .3.08.4.19.09.12.14.28.09.43l-.88 3.5a.49.49 0 0 1-.48.38h-5.1l-1.27 5.13a.52.52 0 0 1-.49.37h-3.5a.56.56 0 0 1-.4-.19.54.54 0 0 1-.1-.43l1.22-4.88H10.4l-1.26 5.13a.52.52 0 0 1-.49.37H5.13a.55.55 0 0 1-.4-.19.54.54 0 0 1-.09-.43l1.22-4.88H1a.52.52 0 0 1-.39-.19.54.54 0 0 1-.1-.43l.88-3.5a.5.5 0 0 1 .49-.38h5.1l1-4H3.12a.52.52 0 0 1-.39-.19c-.09-.12-.14-.28-.09-.43l.88-3.5A.49.49 0 0 1 4 7.5h5.1l1.27-5.13a.52.52 0 0 1 .5-.37h3.5a.55.55 0 0 1 .4.19.54.54 0 0 1 .09.43L13.64 7.5h3.97l1.27-5.13a.52.52 0 0 1 .5-.37h3.5a.55.55 0 0 1 .39.19.54.54 0 0 1 .09.43L22.14 7.5H27c.16 0 .3.08.4.19a.54.54 0 0 1 .08.43z"/></svg>