<svg xmlns="http://www.w3.org/2000/svg" viewBox="0 0 24 28" id="icon"><path d="M3.84 2h16.32A3.84 3.84 0 0 1 24 5.84v16.32A3.84 3.84 0 0 1 20.16 26H3.84A3.84 3.84 0 0 1 0 22.16V5.84A3.84 3.84 0 0 1 3.84 2zm14.18 21.64a2.58 2.58 0 0 0 .2-5.14L13.3 9.81c-.72-1.3-2.11-1.22-2.61.61-.44 1.74-.31 3.38-.44 5.35l-.03.03-.03-.02-4.4-8.75c.32-.25.58-.78.58-1.17 0-.81-.64-1.45-1.45-1.45a1.46 1.46 0 1 0 0 2.9l.17-.01C6.94 12.05 9 17.6 9.73 18.87c.5 1.22 2.2.83 2.25-.48l.2-6.94c0-.04.04-.04.05-.01l3.54 8.39c-.18.31-.33.86-.33 1.22v.01a2.58 2.58 0 0 0 2.58 2.58z"/></svg>