<svg xmlns="http://www.w3.org/2000/svg" viewBox="0 0 24 28"><path d="M16.25 19a1.25 1.25 0 0 1-2.5 0 1.25 1.25 0 0 1 2.5 0zm4 0a1.25 1.25 0 0 1-2.5 0 1.25 1.25 0 0 1 2.5 0zM22 21.5v-5a.5.5 0 0 0-.5-.5h-19a.5.5 0 0 0-.5.5v5c0 .27.23.5.5.5h19a.5.5 0 0 0 .5-.5zM2.78 14h18.44l-2.45-7.53c-.08-.27-.38-.47-.66-.47H5.89c-.28 0-.58.2-.65.47zM24 16.5v5a2.5 2.5 0 0 1-2.5 2.5h-19A2.5 2.5 0 0 1 0 21.5v-5c0-.42.13-.78.25-1.17l3.08-9.47A2.72 2.72 0 0 1 5.89 4h12.22c1.15 0 2.2.77 2.56 1.86l3.08 9.47c.12.39.25.75.25 1.17z"/></svg>