<svg xmlns="http://www.w3.org/2000/svg" viewBox="0 0 26 28" id="icon"><path d="M26 13.84a13.05 13.05 0 0 1-.94 4.91l-.31.77-2.9.51A4 4 0 0 1 18 23v.5a.5.5 0 0 1-.5.5h-1a.5.5 0 0 1-.5-.5v-9c0-.28.22-.5.5-.5h1c.28 0 .5.22.5.5v.5a4 4 0 0 1 3.48 2.05l1.07-.19c.3-.97.45-1.97.45-3.02C23 9.13 18.33 5 13 5S3 9.13 3 13.84c0 1.05.15 2.05.45 3.02l1.06.19A4 4 0 0 1 8 15v-.5c0-.28.22-.5.5-.5h1c.28 0 .5.22.5.5v9a.5.5 0 0 1-.5.5h-1a.5.5 0 0 1-.5-.5V23a4 4 0 0 1-3.86-2.97l-2.9-.51-.3-.77a13.05 13.05 0 0 1-.94-4.9C0 7.41 5.95 2 13 2s13 5.42 13 11.84z"/></svg>