<svg xmlns="http://www.w3.org/2000/svg" viewBox="0 0 28 28"><path d="M26.28 26c-1.37 0-2.77-.1-4.16-.1-1.37 0-2.75.1-4.12.1-.53 0-.78-.58-.78-1.03 0-1.4 1.56-.8 2.37-1.33.52-.33.52-1.64.52-2.19l-.02-6.1-.01-.49c-.25-.08-.53-.06-.78-.06H8.75c-.27 0-.55-.02-.8.06l-.01.48-.02 5.8c0 .6 0 2.22.58 2.56.81.5 2.66-.2 2.66 1.2 0 .48-.22 1.1-.77 1.1-1.45 0-2.9-.1-4.34-.1-1.33 0-2.66.1-3.99.1-.51 0-.75-.6-.75-1.03 0-1.36 1.44-.8 2.2-1.33.5-.34.52-1.69.52-2.23l-.02-.9V7.82c0-.75.11-3.15-.59-3.58C2.64 3.75.97 4.5.97 3.1c0-.45.2-1.09.75-1.09 1.43 0 2.89.1 4.33.1C7.35 2.1 8.69 2 10 2c.56 0 .78.63.78 1.1 0 1.34-1.55.68-2.31 1.17-.55.32-.55 1.93-.55 2.5l.02 5 .01.5c.2.04.4.04.61.04h10.92c.19 0 .4 0 .6-.04l.01-.5.02-5c0-.58 0-2.18-.55-2.5-.78-.47-2.34.15-2.34-1.18 0-.46.22-1.09.78-1.09 1.37 0 2.75.1 4.12.1 1.35 0 2.7-.1 4.03-.1.57 0 .79.63.79 1.1 0 1.35-1.61.67-2.4 1.15-.53.34-.54 1.95-.54 2.52V21.5c0 .52.03 1.88.53 2.19.8.5 2.49-.14 2.49 1.22 0 .45-.2 1.1-.75 1.1z"/></svg>