<svg xmlns="http://www.w3.org/2000/svg" viewBox="0 0 28 28"><path d="M20 16h4.77l-.35.34-9.73 9.38c-.19.19-.44.28-.69.28s-.5-.1-.69-.28l-9.75-9.4a2.2 2.2 0 0 1-.33-.32H9a1 1 0 0 0 .97-.75l1.1-4.4 2.96 10.43a1 1 0 0 0 1.92 0l2.28-7.58.88 1.75c.17.33.52.55.9.55zm8-6.69A8.7 8.7 0 0 1 26.4 14h-5.78l-1.73-3.45a1 1 0 0 0-.97-.55.99.99 0 0 0-.87.72l-2.02 6.72-3.06-10.72a1.01 1.01 0 0 0-.99-.72.99.99 0 0 0-.95.75L8.22 14H1.6A8.7 8.7 0 0 1 0 9.31C0 4.73 2.8 2 7.47 2c2.73 0 5.3 2.15 6.53 3.37C15.23 4.15 17.8 2 20.53 2 25.2 2 28 4.73 28 9.3z"/></svg>