<svg xmlns="http://www.w3.org/2000/svg" viewBox="0 0 25 28" id="icon"><path d="M2.38 27.88a2.46 2.46 0 0 1-1.65-.7 2.53 2.53 0 0 1-.71-1.44L0 25.57v-23c0-.13.03-.23.05-.34A2.48 2.48 0 0 1 .92.78 2.43 2.43 0 0 1 2.25.25L2.3.24h20.16a2.47 2.47 0 0 1 1.45.56 2.67 2.67 0 0 1 .84 1.44c.04.14.05.26.05.4V25.5a2.38 2.38 0 0 1-.34 1.17 2.52 2.52 0 0 1-1.78 1.19c-.08.02-.16.02-.24.02H2.38zm20.1-1.38c.1-.02.15-.02.22-.05a1.07 1.07 0 0 0 .73-.9l.02-.13v-.02l-.01-.01V2.56a1.15 1.15 0 0 0-.19-.47 1.06 1.06 0 0 0-.5-.4 1.36 1.36 0 0 0-.26-.07l-10.05-.01-10.05.01a1.1 1.1 0 0 0-.95.7c-.03.08-.03.16-.05.26 0 .03-.02.68-.02 11.45V25.5c.02.2.1.4.22.58a.93.93 0 0 0 .18.18c.17.14.39.22.6.24h20.11zm-6.7-6.95V15.3a1.33 1.33 0 0 0-.14-.53 1.11 1.11 0 0 0-.08-.14 1.2 1.2 0 0 0-.28-.29 1.7 1.7 0 0 0-.95-.32 4.23 4.23 0 0 0-.64 0 15 15 0 0 0-4.11.86c-.47.15-.95.35-1.35.53-.1.04-.12.04-1.1.5l-.97.45V4.39h2.76v7.88l.05-.02.72-.25a17.14 17.14 0 0 1 4.22-.7c.33-.02.48-.02.67 0a4.54 4.54 0 0 1 2.44.89 3.84 3.84 0 0 1 1.55 2.92v8.64h-2.79v-4.2zm-9.55 1.4v-2.78l3.11 2.78-3.1 2.78v-2.78zm7.57-12.1.23-.32a10.35 10.35 0 0 0 1.75-3.87l.05-.27s.62-.02 1.39-.02h1.39v.02l-.05.3a8.14 8.14 0 0 1-1.14 3.01 7.23 7.23 0 0 1-.81 1.11l-.05.07h-2.78z"/></svg>