<svg xmlns="http://www.w3.org/2000/svg" viewBox="0 0 24 28"><path d="M24 14c0 6.6-5.4 12-12 12a11.97 11.97 0 0 1-9.23-4.33.52.52 0 0 1 .03-.67l2.14-2.16a.6.6 0 0 1 .39-.14.51.51 0 0 1 .36.19 7.91 7.91 0 0 0 6.31 3.1 8 8 0 0 0 0-16 7.95 7.95 0 0 0-5.44 2.15L8.7 10.3a.96.96 0 0 1 .22 1.07A1 1 0 0 1 8 12H1a1 1 0 0 1-1-1V4a1 1 0 0 1 .63-.92.96.96 0 0 1 1.07.22l2.03 2A12.15 12.15 0 0 1 12 2c6.61 0 12 5.39 12 12zM14 9.5v7a.5.5 0 0 1-.5.5h-5a.5.5 0 0 1-.5-.5v-1c0-.28.22-.5.5-.5H12V9.5c0-.28.22-.5.5-.5h1c.28 0 .5.22.5.5z"/></svg>