<svg xmlns="http://www.w3.org/2000/svg" viewBox="0 0 28 28" id="icon"><path d="M1.84 27.83A2.12 2.12 0 0 1 .1 26.34l-.09-.3V14.1C0 2.86.02 2.13.08 1.88.25 1.25.63.76 1.12.5 1.7.2.65.23 13.78.23c8.26 0 11.9.02 12.07.05.61.11 1.18.53 1.47 1.1s.27-.43.27 12.68c0 8.27-.02 11.9-.05 12.08a2.14 2.14 0 0 1-1.8 1.69c-.35.05-23.57.05-23.89 0zm11.68-4.61a6.8 6.8 0 0 0-.72-.78l-.75-.75h-.83c-.45 0-.84.03-.84.05s-.07.09-.16.18a.77.77 0 0 1-1.03.1.81.81 0 0 1-.28-.8.78.78 0 0 1 1.39-.27l.12.18h.49c.36 0 .47-.04.45-.07 0-.03-.42-.44-.9-.92l-.9-.87-.17.03c-.84.12-1.28-.94-.58-1.43a.8.8 0 0 1 1.06.22c.1.14.13.22.13.47v.3l.87.89c.49.48.9.88.93.88s.06-.11.06-.46v-.47l-.19-.15c-.31-.27-.39-.6-.22-.96.16-.3.5-.46.88-.4.3.06.6.42.6.75 0 .2-.15.48-.33.62l-.18.13v1.6l.58.59c.31.3.58.54.6.53s.01-.93.01-2.02v-1.98l-.56-.58c-.31-.31-.85-.85-1.2-1.17l-.64-.61h-1.5l-.19.2c-.21.23-.34.28-.6.28a.68.68 0 0 1-.58-.26c-.11-.13-.22-.36-.22-.49s.1-.37.22-.5c.15-.19.34-.26.6-.26s.43.09.6.3l.16.18h.42c.28 0 .42-.02.44-.05s-.28-.36-.77-.84l-.81-.8v-.87c0-.49-.02-.9-.03-.94s-.08-.08-.16-.13c-.19-.12-.3-.37-.3-.64a.76.76 0 0 1 1.2-.62c.41.28.43 1 0 1.26-.07.05-.15.13-.16.18s0 .4 0 .8l.01.68.75.74c.42.4.78.73.8.71s.03-.21.03-.46v-.47l-.19-.16c-.31-.25-.4-.6-.23-.95.3-.63 1.25-.52 1.44.15.07.3-.07.7-.33.85l-.13.08v1.64l.93.9c.5.5.92.9.95.9.05 0 .05-.57.05-2.8v-2.82l-.55-.54-.56-.53h-.27c-.22 0-.3 0-.45-.1a.77.77 0 0 1-.05-1.3.83.83 0 0 1 .83-.01c.3.19.42.48.36.8l-.03.17.48.5c.28.28.52.5.55.5s.26-.22.53-.49l.48-.48-.03-.19a.8.8 0 0 1 .77-.92c.18 0 .44.11.58.27.5.53 0 1.37-.74 1.26l-.19-.03-1.09 1.1v4c0 2.2.02 4 .03 4l.66-.63.62-.62v-1.65l-.18-.15c-.22-.19-.32-.35-.32-.61 0-.25.08-.44.27-.6a.78.78 0 0 1 .98 0c.4.35.4.83-.01 1.2l-.2.18v.47c0 .25 0 .5.02.53.04.05.2-.08.77-.65l.72-.72v-1.35l-1.13-1.12-.2.01c-.28.03-.45-.01-.62-.15-.35-.32-.4-.74-.1-1.08a.79.79 0 0 1 1.22.05c.11.14.11.18.11.47v.32l.3.33c.15.19.33.31.34.3s.03-.52.03-1.17v-1.15l-.17-.17c-.3-.26-.37-.58-.23-.9.12-.27.4-.47.68-.47s.58.2.7.47a.75.75 0 0 1-.21.9l-.16.13.03 2.4.33-.32.35-.33-.04-.22c-.07-.67.65-1.13 1.2-.77.68.47.27 1.5-.55 1.4l-.22-.02-.55.55-.55.53v1.56l-.75.75c-.42.42-.76.78-.76.81s.28.06 1.1.06h1.1l.16-.2c.18-.22.34-.3.6-.3.33 0 .66.24.75.54a.78.78 0 0 1-1.09.92.97.97 0 0 1-.25-.22l-.14-.17h-2.9l-.9.89-.89.9v.8c0 .55.02.81.05.83s.31-.24.69-.61l.64-.64h1.84l.14-.17c.38-.47 1.06-.41 1.32.1a.77.77 0 0 1-.6 1.11.79.79 0 0 1-.72-.3l-.14-.16h-1.6l-.73.73c-.5.5-.73.73-.68.75.03.02 1.8.02 3.9.02h3.85l.1-.13.11-.1.02-3.92.03-3.89 1.19-.01c1.28-.02 1.33-.03 1.44-.25.12-.25.09-.3-1.35-1.75l-1.34-1.35V10c0-1.95 0-2-.2-2.1a6.3 6.3 0 0 0-1.11-.06c-1.15 0-1.2.02-1.27.27-.03.06-.05.33-.05.58s-.01.47-.03.47-1.28-1.25-2.81-2.78L14.1 3.59h-.38l-5.5 5.5c-5.34 5.35-5.5 5.5-5.5 5.65a.39.39 0 0 0 .13.3l.12.12 1.2.01c.87.02 1.21.03 1.23.07s.03 1.78.03 3.89c0 2.55.01 3.87.04 3.92.11.2-.01.2 4.14.2 2.13 0 3.9-.01 3.91-.03zm-3.66-1.56c.03-.05.08-.11.1-.18 0-.09 0-.15-.1-.25-.14-.14-.25-.14-.4-.03-.21.18-.07.53.21.53.08 0 .16-.03.19-.07zm8.5-.03c.1-.08.12-.15.12-.22 0-.27-.3-.38-.5-.2-.15.17-.12.4.07.48.14.06.17.05.31-.06zm-6.03-2.44a.27.27 0 0 0 .1-.2c0-.15-.16-.33-.3-.33-.13 0-.32.15-.32.26 0 .1.08.24.16.3.1.08.25.06.36-.03zm7.5-.33a.35.35 0 0 0 .1-.22c0-.27-.34-.4-.52-.17-.13.14-.13.23-.02.37s.3.14.44.02zm-10.4-.08c.07-.06.13-.15.13-.2 0-.11-.22-.33-.32-.33-.05 0-.15.06-.2.13s-.13.15-.13.2.06.14.12.2.16.13.2.13.15-.07.2-.13zm6.54-2.33a.25.25 0 0 0 .1-.22c0-.3-.35-.42-.52-.2-.11.14-.11.24.03.38s.25.15.39.04zm-6.9-.4c.12-.07.17-.28.1-.42a.3.3 0 0 0-.48-.08c-.22.25.08.65.37.5zm7.18-2.4a.38.38 0 0 0 .19-.3.43.43 0 0 0-.08-.15c-.11-.14-.33-.15-.45-.03s-.11.35.03.46c.12.09.17.09.31.03zm3.58-.04c.28-.28-.13-.7-.42-.42a.27.27 0 0 0-.1.2c0 .14.16.31.3.31a.34.34 0 0 0 .22-.1zm-8.28-.06c.14-.11.17-.24.1-.38-.13-.23-.45-.23-.56.02a.3.3 0 0 0 .15.39c.14.06.18.06.3-.03zm6.54-2.03c.05-.05.07-.14.07-.24a.3.3 0 0 0-.52-.22c-.08.08-.08.33.02.43.1.1.32.12.43.03zm-8.65-.05c.2-.14.05-.55-.22-.55-.06 0-.14.03-.2.1s-.11.15-.11.22c0 .23.33.37.53.23zm2.94-1.25a.27.27 0 0 0 .09-.2c0-.14-.17-.33-.31-.33-.07 0-.15.05-.2.1-.29.29.12.71.41.43zm3.48 0c.19-.17.05-.53-.2-.53-.2 0-.32.15-.28.39.01.22.3.3.48.14z"/></svg>