<svg xmlns="http://www.w3.org/2000/svg" viewBox="0 0 25 28"><path d="M21.08 2.71a7.36 7.36 0 0 1 3.23 3.32c.26.62.53 1.23.47 2.66a5.67 5.67 0 0 1-.54 2.66 6.68 6.68 0 0 1-5.56 3.95l-1.3.1-.45 1.8c-.38 1.5-.42 2-.42 2 .44.46 1.42.74 1.83 1.8.56 1.09.5 2.63-.22 3.52-1.17 1.45-2.92 1.89-4.46 1.08a3.68 3.68 0 0 1-1.7-4.14c.1-.4-.01-.53-1.7-1.63l-1.81-1.2-.67.54A4.78 4.78 0 0 1 0 15.39a4.63 4.63 0 0 1 4.76-4.65c1.34 0 2.15.3 3.14 1.2l.74.67 1.63-.82 1.64-.8-.17-.59c-.25-.85-.2-2.76.1-3.72a7.16 7.16 0 0 1 2.35-3.3 6.76 6.76 0 0 1 6.89-.67zM9.06 17.54l3.64 2.5s1.11-.93 2.61-1.06l.93-3.96s-2.88-.94-3.7-2.96l-3.38 1.6s.8 2-.1 3.88z"/></svg>