<svg xmlns="http://www.w3.org/2000/svg" viewBox="0 0 24 28" id="icon"><path d="M14.4 12.45v2.85c0 .56.12 1.07-.59 1.06v-4.83c.69 0 .6.36.6.92zm4.94 1.5v1.9c0 .3.1.82-.35.82a.24.24 0 0 1-.22-.14c-.13-.3-.07-2.55-.07-2.58 0-.22-.06-.73.28-.73.43 0 .36.42.36.73zm-16.53 3.7h1.9v-7.38h-1.9v7.37zm6.78 0h1.66v-7.38H8.77l-.44 3.45a123.6 123.6 0 0 0-.5-3.45H5.36v7.37h1.67v-4.87l.7 4.87h1.2l.66-4.98v4.98zm6.64-4.78c0-.46.02-.96-.07-1.4-.25-1.3-1.82-1.2-2.83-1.2H11.9v7.37c4.97 0 4.32.34 4.32-4.77zm4.96 3.08v-2.08c0-1-.05-1.73-1.28-1.73-.52 0-.86.16-1.2.53v-2.4h-1.83v7.37h1.71l.11-.47c.33.4.7.56 1.2.56 1.15 0 1.29-.87 1.29-1.78zM24 4.5v19a2.5 2.5 0 0 1-2.5 2.5h-19A2.5 2.5 0 0 1 0 23.5v-19A2.5 2.5 0 0 1 2.5 2h19A2.5 2.5 0 0 1 24 4.5z"/></svg>