<svg xmlns="http://www.w3.org/2000/svg" viewBox="0 0 28 28"><path d="M5.5 13a.52.52 0 0 1-.14.36l-4.5 4.5A.52.52 0 0 1 .5 18a.51.51 0 0 1-.5-.5v-9a.5.5 0 0 1 .86-.36l4.5 4.5a.52.52 0 0 1 .14.36zM28 20.5v3a.5.5 0 0 1-.5.5H.5a.51.51 0 0 1-.5-.5v-3c0-.27.23-.5.5-.5h27c.27 0 .5.23.5.5zm0-6v3a.5.5 0 0 1-.5.5h-17a.51.51 0 0 1-.5-.5v-3c0-.27.23-.5.5-.5h17c.27 0 .5.23.5.5zm0-6v3a.5.5 0 0 1-.5.5h-17a.51.51 0 0 1-.5-.5v-3c0-.27.23-.5.5-.5h17c.27 0 .5.23.5.5zm0-6v3a.5.5 0 0 1-.5.5H.5a.51.51 0 0 1-.5-.5v-3c0-.27.23-.5.5-.5h27c.27 0 .5.23.5.5z"/></svg>