<svg xmlns="http://www.w3.org/2000/svg" viewBox="0 0 24 28" id="icon"><path d="M11.8 2.16a2.94 2.94 0 0 1 2.04.8l9.2 9.4c3.65 3.66-4.05 4.5-6.27 5.8-.78.8 2.39 1.32 2.06 2.3-.66 1.96-2.45.7-4.38 2.66-.78.8 1.49.72.7 1.52-1.45 1.06-4.45 1.8-4.68.5-.33-1.83-2.11-1.06-2.9-1.86s1.59-1.62.8-2.42-4.67-1.52-5.45-2.31 2.99-1.38 2.2-2.17c-2.15-1.07-7.2-.65-4.2-4.35l8.86-9.06a2.8 2.8 0 0 1 2.02-.81zm.07.86c-.53 0-1.06.2-1.45.59-.76.78-2.19 2.16-3.42 3.48-.7.7-.63 1.7.16 1.7h1.92l1.25-2.16.76 3.1 2.33-1.48 1.45.77.35-2.05 1.73 1.39c.19-.19.19-.84-.14-1.19l-3.5-3.56a2 2 0 0 0-1.44-.6zm-4.2 13.86c-1.15 0 3.42 1.85 4.36 1.6.42-.21.63-.53.33-.59-.88-.14-4.45-.88-4.69-1.02zm14.05 2.48c.67.02 1.34.34 1.56.98 0 .85-3.31.57-3.31.11.2-.73.98-1.1 1.75-1.1zM6.39 21.3c.4 0 .78.13 1 .4-.36.96-1.58 1.8-2.36 1.13-.89-.78.33-1.54 1.36-1.53zm13.16.07c1.1.21 1.32 1.01 1.1 1.23-1 .6-2.12-.33-1.1-1.23z"/></svg>