<svg xmlns="http://www.w3.org/2000/svg" viewBox="0 0 14 28"><path d="M14.03 7.34v1.6a.5.5 0 0 1-.5.5h-2.62c-.49 3-2.78 4.95-6.33 5.37 2.33 2.49 4.81 5.49 7.17 8.38a.47.47 0 0 1 .06.53.49.49 0 0 1-.45.28H8.31a.48.48 0 0 1-.39-.19A188.92 188.92 0 0 0 .14 14.9a.48.48 0 0 1-.14-.34v-1.99c0-.26.22-.5.5-.5h1.75c2.75 0 4.47-.92 4.92-2.62H.5a.5.5 0 0 1-.5-.5v-1.6c0-.28.22-.5.5-.5h6.45c-.6-1.17-2-1.76-4.18-1.76H.5a.5.5 0 0 1-.5-.5V2.5c0-.28.22-.5.5-.5h13c.28 0 .5.22.5.5v1.6a.5.5 0 0 1-.5.5H9.86c.5.64.83 1.39 1 2.24h2.67c.28 0 .5.22.5.5z"/></svg>