<svg xmlns="http://www.w3.org/2000/svg" viewBox="0 0 24 28" id="icon"><path d="M16 14a4 4 0 0 0-8 0 4 4 0 0 0 8 0zm2.16 0a6.15 6.15 0 1 1-12.3.02 6.15 6.15 0 0 1 12.3-.02zm1.68-6.4c0 .8-.64 1.43-1.43 1.43a1.44 1.44 0 1 1 1.43-1.44zM12 4.15c-1.75 0-5.5-.15-7.08.48-.55.22-.95.48-1.37.9s-.7.83-.9 1.38c-.63 1.58-.5 5.33-.5 7.08s-.13 5.5.5 7.08c.21.54.47.95.9 1.37s.82.69 1.37.9c1.58.63 5.33.5 7.08.5s5.5.13 7.08-.5c.55-.21.95-.48 1.37-.9s.7-.83.9-1.37c.63-1.58.5-5.33.5-7.08s.13-5.5-.5-7.08c-.21-.55-.48-.95-.9-1.37s-.83-.7-1.37-.91C17.5 4 13.75 4.15 12 4.15zM24 14c0 1.66.02 3.3-.08 4.95-.1 1.93-.53 3.63-1.94 5.03s-3.1 1.85-5.03 1.94c-1.65.1-3.3.08-4.95.08s-3.3.01-4.95-.08c-1.92-.1-3.63-.53-5.03-1.94S.17 20.88.08 18.95C-.02 17.3 0 15.65 0 14s0-3.3.08-4.95c.1-1.93.53-3.63 1.94-5.03s3.1-1.85 5.03-1.94C8.7 1.98 10.35 2 12 2s3.3-.01 4.95.08c1.93.1 3.63.53 5.04 1.94s1.84 3.1 1.93 5.03c.1 1.65.08 3.3.08 4.95z"/></svg>