<svg xmlns="http://www.w3.org/2000/svg" viewBox="0 0 28 28"><path d="M28 14.64c0 .55-.03 1.1-.1 1.63h-18c0 3.1 2.74 5.35 5.74 5.35 2.03 0 3.98-1 5.03-2.76h6.61a12.6 12.6 0 0 1-11.86 8.37 12.7 12.7 0 0 1-5.56-1.3c-1.75.9-4.2 1.82-6.16 1.82-2.62 0-3.7-1.6-3.7-4.1 0-1.46.31-2.92.7-4.3.25-.91 1.25-2.76 1.7-3.58A36.15 36.15 0 0 1 9.84 6.3c-2.4 1.03-4.99 3.62-6.67 5.53a12.59 12.59 0 0 1 12.26-9.77c.24 0 .47 0 .7.02 1.94-.9 4.65-1.83 6.77-1.83 2.53 0 4.7.97 4.7 3.83 0 1.5-.57 3.12-1.17 4.47a12.6 12.6 0 0 1 1.58 6.1zm-1.1-10c0-1.75-1.24-2.83-2.96-2.83a9.7 9.7 0 0 0-3.97 1.1A12.69 12.69 0 0 1 26.1 8c.39-1.02.8-2.27.8-3.37zM2 23.97c0 1.81 1.08 2.8 2.86 2.8 1.39 0 2.94-.63 4.15-1.3a12.59 12.59 0 0 1-5.48-6.69C2.81 20.28 2 22.28 2 23.97zm7.88-11.14h11.37c-.1-3.02-2.77-5.19-5.69-5.19-2.94 0-5.58 2.17-5.69 5.19z"/></svg>