<svg xmlns="http://www.w3.org/2000/svg" viewBox="0 0 32 28"><path d="M22.86 13c0 .73-.6 1.34-1.34 1.34H10.54a1.34 1.34 0 1 1 0-2.68H21.5c.75 0 1.35.6 1.35 1.34zm3.34 0a10 10 0 0 0-.36-2.66H10.5a1.33 1.33 0 1 1 0-2.67h14.19a10.2 10.2 0 0 0-18.52 7.98h15.34a1.33 1.33 0 1 1 0 2.67H7.34A10.2 10.2 0 0 0 26.2 13zM32 9.02a1.33 1.33 0 0 1-1.34 1.32H28.6A12.88 12.88 0 0 1 16 25.87c-5.2 0-9.68-3.09-11.71-7.54H1.34c-.75 0-1.34-.6-1.34-1.35a1.33 1.33 0 0 1 1.34-1.32h2.07A12.89 12.89 0 0 1 16 .13c5.2 0 9.68 3.09 11.7 7.54h2.95c.75 0 1.34.6 1.34 1.35z"/></svg>