<svg xmlns="http://www.w3.org/2000/svg" viewBox="0 0 16 28"><path d="m0 25.97.27-1.33c1-.31 2.07-.44 3.01-.92.36-.45.53-1.03.64-1.58.2-1.06 3.61-16.39 3.57-17.64v-.4c-.86-.46-1.91-.33-2.85-.5l.3-1.6c2.01.1 4.06.25 6.1.25 1.65 0 3.3-.16 4.96-.25a9.7 9.7 0 0 1-.3 1.4c-1.07.37-2.21.54-3.28.96-.34.84-.42 1.77-.57 2.66-.75 4.04-1.75 8.09-2.58 12.1-.16.75-.92 3.86-.86 4.52l.02.28c.95.22 1.92.33 2.89.49a8.84 8.84 0 0 1-.25 1.54c-.35 0-.68.05-1.02.05-.9 0-1.81-.3-2.7-.31a217.87 217.87 0 0 0-3.22-.03c-1.4 0-2.75.23-4.13.3z"/></svg>