<svg xmlns="http://www.w3.org/2000/svg" viewBox="0 0 20 28" id="icon"><path d="M6.55 21.45s-1.05.61.75.82c2.18.25 3.3.21 5.7-.24 0 0 .63.4 1.52.73-5.4 2.32-12.2-.12-7.97-1.3zm-.66-3.01s-1.17.87.63 1.06c2.32.23 4.17.25 7.36-.36 0 0 .43.44 1.12.69-6.52 1.9-13.78.15-9.1-1.4zm5.55-5.13c-4.5-5.19 4.93-7.55 4.93-7.55-6.01 3.49-4.9 4.5-3.45 6.54 1.55 2.18-1.83 3.92-1.83 3.92s1.68-1.38.35-2.9zm7.14 10.38c2.86 1.28-6.2 3.86-17.2 2.08-4.04-.66 1.95-2.93 3.04-2.16 0 0-.34-.02-.95.1-.58.13-2.42.73-1.44 1.15 2.74 1.19 12.58.9 15.69-.05 1.64-.5.86-1.12.86-1.12zM7.05 15.3s-5 1.18-1.77 1.61c1.36.19 4.1.16 6.63-.06 2.07-.17 4.15-.55 4.15-.55s-.73.32-1.26.67c-5.1 1.35-14.91.72-12.08-.65 2.39-1.16 4.33-1.02 4.33-1.02zm8.98 5.02c5.17-2.69 2.78-5.27 1.11-4.92-.4.07-.6.15-.6.15s.16-.22.46-.33c3.3-1.15 5.84 3.43-1.06 5.24l.1-.14zM12.93.14S15.77 3 10.2 7.41c-4.47 3.53-1.01 5.54 0 7.84-2.6-2.36-4.53-4.42-3.25-6.36 1.9-2.83 7.13-4.2 5.97-8.75zM7.55 27.61c-3.26-.2-3.9-.74-3.9-.74 3.09.52 8.32.61 12.56-.18 3.75-.7 4.1-1.61 4.1-1.61-.18 2.34-7.79 2.84-12.76 2.53z"/></svg>