<svg xmlns="http://www.w3.org/2000/svg" viewBox="0 0 25 28"><path d="M22.8 2c.67 0 1.2.53 1.2 1.2v21.6c0 .67-.53 1.2-1.2 1.2H8.37c.29-1.7.43-2.1.79-3.28.48-1.61 1.43-1.69 1.43-1.69.77-.17 1.16-.48 3.5.56s4.22 1.13 4.22 1.13c.24.3 1.11 1.25 2.14 1.33 1.4.1 2-.3 2-.3s.49-1.42-.6-2.75-5.24-5.88-5.35-6.3c0 0-.63-.73-1.08-.9s-1.86-.99-2.1-2.03-.66-2.63-.52-3.36.34-2.38-.5-2.03-.49 1.15-.63 2.14-.81 2.97-1.75 2.97c0 0-1.36-2.35-2.26-2.07s-1.7 2.83-.99 4.3c0 0-3.28 4.6-6.14 12.06A1.21 1.21 0 0 1 0 24.8V3.2C0 2.53.53 2 1.2 2h21.6z"/></svg>