<svg xmlns="http://www.w3.org/2000/svg" viewBox="0 0 24 28"><path d="m16.72 16.77-2.5 2.5-2.36 2.37-.47.47a5.33 5.33 0 0 1-5.05 1.4A3.22 3.22 0 0 1 3.2 26 3.21 3.21 0 0 1 0 22.77a3.2 3.2 0 0 1 2.47-3.12 5.3 5.3 0 0 1 1.39-5.08l.19-.19 2.36 2.38-.18.17a1.98 1.98 0 0 0 0 2.8 1.97 1.97 0 0 0 2.78 0l.47-.47 2.36-2.38 2.52-2.5zM11.39 6.1l.19.19L9.2 8.67l-.18-.19a1.97 1.97 0 1 0-2.79 2.8l5.33 5.33-2.36 2.37-2.51-2.5-2.36-2.37-.47-.47a5.3 5.3 0 0 1-1.33-5.3 3.19 3.19 0 0 1-2.5-3.12A3.21 3.21 0 0 1 3.23 2a3.21 3.21 0 0 1 3.18 2.69 5.35 5.35 0 0 1 4.98 1.42zM24 22.78a3.21 3.21 0 0 1-6.36.64 5.32 5.32 0 0 1-5.33-1.31l-.17-.19 2.36-2.37.19.18a1.97 1.97 0 0 0 2.78-2.78l-5.35-5.34 2.38-2.38 4.87 4.88.46.47a5.3 5.3 0 0 1 1.4 5.03A3.2 3.2 0 0 1 24 22.78zm-.03-17.56a3.23 3.23 0 0 1-2.78 3.19 5.32 5.32 0 0 1-1.36 5.23l-.19.19-2.36-2.38.19-.19a1.97 1.97 0 0 0-2.78-2.78l-5.34 5.35-2.38-2.38 2.52-2.5 2.37-2.37.45-.47a5.32 5.32 0 0 1 5.27-1.35 3.21 3.21 0 0 1 6.39.46z"/></svg>