<svg xmlns="http://www.w3.org/2000/svg" viewBox="0 0 24 28"><path d="M5.84 2h12.32A5.86 5.86 0 0 1 24 7.84v12.32A5.86 5.86 0 0 1 18.16 26H5.84A5.86 5.86 0 0 1 0 20.16V7.84A5.86 5.86 0 0 1 5.84 2zm6.2 3.2c-.06 0-.1.07-.1.13v2.06c0 .06.06.13.12.13h.9a.7.7 0 0 1 .68.64v10.03l-.01.03c0 .05 0 .08-.02.12l-.02.08-.03.1a1.69 1.69 0 0 1-.28.51l-.01.02-.13.14a2.06 2.06 0 0 1-1.55.44c-.7-.07-1.39-.38-1.95-.9s-.9-1.14-.98-1.78a1.6 1.6 0 0 1 .48-1.42l.05-.03a1.8 1.8 0 0 1 1.01-.4h.47l.02.01h.02c.35.03.73.14 1.07.31h.02c.1.07.14 0 .14-.04v-3.11a.18.18 0 0 0-.16-.19c-1.84-.4-3.65 0-4.93 1.17a4.66 4.66 0 0 0-1.5 4.03 6.03 6.03 0 0 0 2 3.72 6.84 6.84 0 0 0 3.92 1.77l.6.03c1.37 0 2.65-.47 3.59-1.33a4.61 4.61 0 0 0 1.5-3.14l.01-7.97V8.21a.7.7 0 0 1 .7-.7h.9c.06 0 .12-.05.12-.12V5.33c0-.06-.06-.13-.12-.13h-6.52z"/></svg>