<svg xmlns="http://www.w3.org/2000/svg" viewBox="0 0 32 28"><path d="M28.13 12.06A6.23 6.23 0 0 1 32 17.8c0 3.42-2.83 6.2-6.3 6.2l-.34-.02H6.34C2.84 23.78 0 21.11 0 17.64a6.34 6.34 0 0 1 3.15-5.47 4.35 4.35 0 0 1 4.2-5.6c1 0 1.95.34 2.7.9a9.5 9.5 0 0 1 8.57-5.35c5.27 0 9.52 4.2 9.52 9.38l-.02.56zM7.3 16.22c0 2.64 2.08 4.12 4.56 4.12 1.54 0 2.65-.48 3.76-1.54-.46-.57-.96-1.11-1.43-1.68a3.12 3.12 0 0 1-2.25 1.02c-1.1 0-2.06-.73-2.06-1.89 0-1.14.95-1.9 2.03-1.9 3.44 0 4.17 6 9.17 6 2.44 0 4.5-1.52 4.5-4.08 0-2.6-2.07-4.11-4.54-4.11-1.54 0-2.68.43-3.77 1.51.5.55.97 1.13 1.45 1.69a3.1 3.1 0 0 1 2.22-1c1.03 0 2.07.73 2.07 1.83 0 1.2-.88 1.97-2.05 1.97-3.33 0-4.22-6-9.1-6-2.42 0-4.56 1.48-4.56 4.06z"/></svg>