<svg xmlns="http://www.w3.org/2000/svg" viewBox="0 0 36 28" id="icon"><path d="M27.5 0c1.17 0 2.1.94 2.1 2.1a2.12 2.12 0 1 1-4.23 0c0-1.16.96-2.1 2.13-2.1zM5.4 4.34a2.1 2.1 0 0 1 2.11 2.11 2.1 2.1 0 0 1-2.1 2.11 2.1 2.1 0 1 1 0-4.22zm19.57 0c1.17 0 2.1.94 2.1 2.11s-.93 2.11-2.1 2.11a2.11 2.11 0 1 1 0-4.22zm5.06 0c1.17 0 2.11.94 2.11 2.11s-.94 2.11-2.1 2.11-2.13-.94-2.13-2.1.95-2.12 2.12-2.12zm-8.08.13v15.25h-3.1V5.34zM7 9.16v10.56c0 .9-.1 1.64-.3 2.2s-.5.99-.87 1.3-.83.52-1.36.62S3.34 24 2.7 24c-.87 0-1.53-.14-2-.4s-.7-.62-.7-.99c0-.31.13-.6.4-.81s.6-.33 1.04-.33c.33 0 .58.1.78.27s.36.35.48.53c.14.18.28.31.38.37s.18.11.26.11c.18 0 .3-.1.4-.31s.14-.61.14-1.2V10.01zm19.31 0v10.56H23.2v-9.7zm5.46.06c.73 0 1.37.06 1.9.19s.97.32 1.31.57.61.53.77.88.25.75.25 1.17v7.69h-3.12v-.83l-.5.4a2.8 2.8 0 0 1-1.25.54 5 5 0 0 1-.91.08c-.47 0-.9-.07-1.27-.2s-.7-.34-.96-.57-.47-.52-.61-.84-.2-.7-.2-1.07c0-.39.06-.75.21-1.06s.35-.6.61-.86.56-.47.9-.67.74-.39 1.13-.56.81-.33 1.24-.47l1.26-.39.35-.1v-1c0-.65-.13-1.12-.38-1.39s-.58-.42-1-.42c-.48 0-.84.13-1.03.36s-.28.52-.28.86c0 .19-.02.38-.06.56s-.13.35-.22.49-.24.25-.43.32-.42.11-.7.11c-.44 0-.8-.12-1.06-.37s-.42-.56-.42-.94c0-.36.14-.69.37-1s.56-.56.97-.78.9-.4 1.42-.52 1.11-.18 1.7-.18zm-23.54.23h3.11v7.24c0 .2.05.39.13.56s.17.33.31.45.3.24.48.32.38.1.58.1c.24 0 .53-.12.85-.35s.6-.55.82-.91v-7.4h3.11v10.26h-3.1v-.97c-.41.34-.85.64-1.32.84s-.9.32-1.34.32a3.83 3.83 0 0 1-2.58-.94c-.33-.3-.58-.64-.77-1.03s-.28-.8-.28-1.25V9.45zm24.64 4.97a9.43 9.43 0 0 0-1.74.99c-.25.2-.44.4-.6.64s-.23.47-.23.72c0 .18.03.37.07.54s.11.35.2.47.2.22.3.3.24.13.36.13c.25 0 .5-.08.77-.24s.56-.36.87-.6v-2.95z"/></svg>