<svg xmlns="http://www.w3.org/2000/svg" viewBox="0 0 23 28" id="icon"><path d="M19.31 0a1.68 1.68 0 0 1 1.18.38c.15.12.28.26.37.43s.14.36.16.55c.01.28-.07.58-.22.83s-.4.44-.7.56-.63.19-.94.14-.63-.17-.86-.36-.4-.45-.49-.73-.06-.58.05-.85.3-.5.56-.67.56-.26.9-.28zm-7.8 2.02c2.2 0 4.35.59 6.15 1.72s3.17 2.7 3.93 4.53c-1.96-2.03-5.76-3.43-10.07-3.43-4.35 0-8.11 1.38-10.08 3.43.76-1.83 2.14-3.41 3.94-4.53s3.93-1.72 6.14-1.72zm-9.54.26a1.2 1.2 0 0 1 .9.42 1 1 0 0 1 .2.58c.02.28-.1.56-.32.77s-.5.31-.81.33c-.24 0-.47-.05-.67-.16s-.35-.28-.44-.47-.13-.4-.1-.6.15-.38.3-.54.36-.27.6-.31c.07-.02.2-.02.28-.02h.06zm13.78 6.77v.89h.92v.44h-.92v1.68c0 .4.1.6.47.6.12 0 .25 0 .37-.03l.04.42a1.83 1.83 0 0 1-.58.08c-.13 0-.25 0-.38-.05s-.22-.11-.31-.19a1.06 1.06 0 0 1-.25-.81v-1.7h-.55v-.44h.56v-.75zm7.08.82.1-.01.09.02v.53l-.11-.02-.11.02c-.22 0-.44.07-.6.22s-.25.3-.26.5a1.5 1.5 0 0 0-.03.26v1.67h-.64v-2.14h.03c0-.37 0-.69-.03-.98h.57v.6h.03c.07-.18.18-.34.35-.46s.39-.19.6-.2zm-14.03 0c.86 0 1.48.63 1.48 1.58 0 1.13-.78 1.69-1.6 1.69-.23.02-.43-.03-.62-.13s-.34-.21-.47-.37v1.7h-.64v-3.37c0-.4 0-.72-.03-1.02h.58l.03.53c.13-.18.31-.36.53-.47s.49-.15.74-.14zm10.07.02c1.16 0 1.44.9 1.44 1.47v.27h-2.47a.9.9 0 0 0 .08.4c.06.14.14.25.25.36s.25.19.4.23.33.08.5.07c.32 0 .65-.05.94-.16l.13.42a3.04 3.04 0 0 1-1.19.2c-.23 0-.47-.03-.69-.1s-.4-.18-.57-.33-.3-.33-.38-.53-.1-.42-.1-.63c0-.93.63-1.67 1.66-1.67zM.95 9.92h.64v2.83c.03.23.01.45-.06.67s-.2.44-.36.61a1.77 1.77 0 0 1-1.1.36L0 13.95c.27 0 .52-.08.7-.23.17-.17.24-.42.24-1.17V9.92zm4.17 0h.64v2.27l-.02.03c0 .33 0 .6.03.84H5.2l-.04-.5a1.4 1.4 0 0 1-1.17.58c-.57 0-1.23-.28-1.23-1.37V9.95h.66v1.7c0 .6.2.99.78.99.13 0 .24 0 .35-.05s.21-.1.3-.18.15-.16.2-.25.06-.2.06-.32V9.92zm5.6.02h.73l.76 1.84.24.64c.06-.18.12-.43.22-.65l.7-1.83h.67l-.95 2.23c-.49 1.07-.78 1.63-1.22 1.96a1.71 1.71 0 0 1-.78.35l-.16-.48a1.75 1.75 0 0 0 1.1-.9c.01-.04.06-.1.06-.15s-.03-.1-.05-.14zm8.13.31c-.26.02-.51.13-.7.3s-.28.39-.28.62h1.88a.78.78 0 0 0-.22-.64c-.08-.1-.17-.15-.3-.2s-.25-.08-.37-.08zm-10.23.08c-.27.01-.53.12-.72.3s-.28.4-.3.64v.53l.03.23c.05.19.18.35.35.47s.39.19.6.19c.68 0 1.09-.49 1.09-1.2 0-.63-.38-1.16-1.05-1.16zm-7.17 4.34C3.4 16.7 7.2 18.1 11.52 18.1c4.34 0 8.12-1.39 10.07-3.42-.76 1.83-2.14 3.4-3.94 4.53s-3.93 1.72-6.14 1.72-4.34-.6-6.14-1.72-3.17-2.7-3.93-4.53zm2 5.69a2.18 2.18 0 0 1 1.47.45 1.78 1.78 0 0 1 .67 1.25c.03.36-.08.72-.28 1.03s-.52.57-.88.72-.78.22-1.19.17-.78-.2-1.07-.45-.52-.56-.61-.9-.1-.72.04-1.07.4-.64.72-.86.72-.32 1.13-.34z"/></svg>