<svg xmlns="http://www.w3.org/2000/svg" viewBox="0 0 26 28"><path d="M13 8a3 3 0 0 0-6 0c0 .45.1.9.3 1.3A3.1 3.1 0 0 0 6 9a3 3 0 0 0 0 6 3 3 0 0 0 2.7-4.3A3 3 0 0 0 13 8zm13.3 11c0 .36-1.44 1.8-1.8 1.8-.4 0-1.67-1.47-2-1.8L21 20.5l3.44 3.44c.28.28.43.67.43 1.06 0 .87-1 1.87-1.87 1.87a1.51 1.51 0 0 1-1.06-.43L11.45 15.95A9.73 9.73 0 0 1 5.75 18 5.49 5.49 0 0 1 0 12.25C0 7.12 5.13 2 10.25 2 13.65 2 16 4.34 16 7.75c0 2.06-.83 4.06-2.05 5.7L19.5 19l1.5-1.5c-.33-.33-1.8-1.6-1.8-2 0-.36 1.44-1.8 1.8-1.8a.54.54 0 0 1 .36.16c.58.58 4.94 4.69 4.94 5.14z"/></svg>