<svg xmlns="http://www.w3.org/2000/svg" viewBox="0 0 30 28"><path d="M6 18.25v1.5c0 .14-.1.25-.25.25h-1.5a.25.25 0 0 1-.25-.25v-1.5c0-.14.1-.25.25-.25h1.5c.14 0 .25.1.25.25zm2-4v1.5c0 .14-.1.25-.25.25h-3.5a.25.25 0 0 1-.25-.25v-1.5c0-.14.1-.25.25-.25h3.5c.14 0 .25.1.25.25zm-2-4v1.5c0 .14-.1.25-.25.25h-1.5a.25.25 0 0 1-.25-.25v-1.5c0-.14.1-.25.25-.25h1.5c.14 0 .25.1.25.25zm16 8v1.5c0 .14-.1.25-.25.25H8.25a.25.25 0 0 1-.25-.25v-1.5c0-.14.1-.25.25-.25h13.5c.14 0 .25.1.25.25zm-10-4v1.5c0 .14-.1.25-.25.25h-1.5a.25.25 0 0 1-.25-.25v-1.5c0-.14.1-.25.25-.25h1.5c.14 0 .25.1.25.25zm-2-4v1.5c0 .14-.1.25-.25.25h-1.5a.25.25 0 0 1-.25-.25v-1.5c0-.14.1-.25.25-.25h1.5c.14 0 .25.1.25.25zm6 4v1.5c0 .14-.1.25-.25.25h-1.5a.25.25 0 0 1-.25-.25v-1.5c0-.14.1-.25.25-.25h1.5c.14 0 .25.1.25.25zm-2-4v1.5c0 .14-.1.25-.25.25h-1.5a.25.25 0 0 1-.25-.25v-1.5c0-.14.1-.25.25-.25h1.5c.14 0 .25.1.25.25zm6 4v1.5c0 .14-.1.25-.25.25h-1.5a.25.25 0 0 1-.25-.25v-1.5c0-.14.1-.25.25-.25h1.5c.14 0 .25.1.25.25zm6 4v1.5c0 .14-.1.25-.25.25h-1.5a.25.25 0 0 1-.25-.25v-1.5c0-.14.1-.25.25-.25h1.5c.14 0 .25.1.25.25zm-8-8v1.5c0 .14-.1.25-.25.25h-1.5a.25.25 0 0 1-.25-.25v-1.5c0-.14.1-.25.25-.25h1.5c.14 0 .25.1.25.25zm4 0v1.5c0 .14-.1.25-.25.25h-1.5a.25.25 0 0 1-.25-.25v-1.5c0-.14.1-.25.25-.25h1.5c.14 0 .25.1.25.25zm4 0v5.5c0 .14-.1.25-.25.25h-3.5a.25.25 0 0 1-.25-.25v-1.5c0-.14.1-.25.25-.25H24v-3.75c0-.14.1-.25.25-.25h1.5c.14 0 .25.1.25.25zM28 22V8H2v14h26zm2-14v14a2 2 0 0 1-2 2H2a2 2 0 0 1-2-2V8c0-1.1.9-2 2-2h26a2 2 0 0 1 2 2z"/></svg>