<svg xmlns="http://www.w3.org/2000/svg" viewBox="0 0 24 28" id="icon"><path d="m2.28 25.25-.6-1.36-.21-.6-.69.77-.69.75-.06-1.43a22 22 0 0 1 .4-5.68 12.41 12.41 0 0 1 6.43-7.98l.7-.33-.15-.51a5.33 5.33 0 0 1-.25-1.24l-.07-.72-.72-.06c-1.1-.1-1.67-.4-2.04-1.19-.2-.4-.2-.48-.14-1.58.06-1.43.18-1.73.62-2.22.55-.6.92-.7 2.28-.64.99.07 1.2.1 1.64.3.27.14.52.28.55.28s.34-.37.72-.89l.64-.92.4.23c.24.14.52.32.66.38l.24.14-.2.51c-.12.27-.26.75-.29.99l-.06.48.58.07a4.74 4.74 0 0 1 4.23 3.37c.17.61.17 1.81 0 2.4-.17.54-.17.57-.03.57.23 0 1.84.8 2.48 1.2 1.27.81 2.74 2.24 3.55 3.47a11.17 11.17 0 0 1 1.92 7.52 12.88 12.88 0 0 1-1 4.19l-.2.48h-1.7l.4-.81c.44-.9.78-2.13.96-3.22.1-.75.15-2.8.04-3.17l-.08-.24-.43.49c-1.1 1.18-2.7 1.53-4.85.95a13.9 13.9 0 0 0-4.34-.58 9.1 9.1 0 0 0-2.49.2 12.92 12.92 0 0 0-5.32 2.49c-.72.51-1.3.92-1.33.92s.06-.34.2-.78.38-1.16.52-1.64l.26-.86-.3.31c-.17.17-.65.66-1.06 1.1l-.71.78.17.65c.2.86.69 1.91 1.2 2.7.2.34.38.62.38.65s-.41.03-.9.03h-.89zm3-8.27a134.9 134.9 0 0 1 3-3.12c.03.03-.12.55-.3 1.12-1.12 3.55-1.35 4.24-1.32 4.27l.84-.31c2.9-1.27 6.28-1.44 9.86-.49 1.6.4 2.22.4 3 0 .44-.23.62-.36.83-.7.37-.58.4-1.4.17-2.16-.58-1.64-2.84-3.75-4.95-4.67-1.1-.48-1.16-.47-1.4-.23l-.21.2.89 1.08c.48.58 1 1.23 1.06 1.4.2.41.23 1.07.03 1.47-.27.58-1.1 1-1.73.86-.27-.06-.4-.04-.66.16-.75.55-1.56.4-2.25-.4-.55-.62-.69-.93-.72-1.54 0-.31-.1-.67-.17-.81-.11-.2-.13-.44-.13-.75l.04-.48-.46-.11c-.6-.17-1.33-.5-1.73-.81-.2-.15-.38-.27-.44-.27s-.52.2-1 .44a10.64 10.64 0 0 0-5.8 8.45c-.03.34-.06.8-.1.97l-.04.3.38-.38L5.28 17zm8.84-2.51c.32-.23.58-.44.65-.44.03 0 .14.1.25.24.17.26.47.26.6.03.11-.18.11-.2-1.9-2.66-1.19-1.47-1.44-1.72-1.61-1.72-.4.03-.3.36.34 1.14l.61.75-.34.27c-.38.34-.4.4-.17.6.17.18.2.15.54-.09l.38-.23.25.2a.56.56 0 0 1 .2.3c0 .06-.26.31-.58.58-.3.23-.54.53-.54.6 0 .1.15.37.47.74.1.2.28.13.85-.31zm-3.51-4.84c.2-.61.87-1.1 1.56-1.1.38 0 .92.31 1.3.72l.34.4.32-.37c.86-.95.95-2.3.26-3.45-.51-.86-1.47-1.36-2.8-1.5-.71-.06-.89-.13-1.26-.5l-.27-.28-.14.2c-.26.4-.84 1.73-1.01 2.25-.24.78-.14 2.02.17 2.63.31.57 1.12 1.37 1.36 1.26.03.03.1-.1.17-.27zM7.56 4.97c.07-.17.25-.6.42-.95s.3-.69.3-.8c0-.3-.33-.43-1.25-.5-.81-.06-.89-.04-1.06.13a.72.72 0 0 0-.2.55c0 .2-.05.57-.08.89-.07.72.03.84.75.95 1.06.06 1.01.08 1.12-.27zm-1.04-.82c0-.58.06-.65.54-.65h.44v.96h-.95v-.31h-.03zm2.14 19.9c-.2-.2-.27-.34-.27-.68 0-.65.38-1.04.98-1.04.58 0 1 .43 1 1 0 .61-.39.96-1.03.99-.34 0-.48-.06-.68-.27zm6.59.1a1 1 0 0 1 .6-1.82c.62 0 .96.4 1 1.03 0 .38-.04.49-.27.7s-.35.26-.7.26c-.3 0-.5-.07-.63-.17z"/></svg>