<svg xmlns="http://www.w3.org/2000/svg" viewBox="0 0 28 28" id="icon"><path d="M8.03 18.67 9.3 14H6.8L8 18.69l.03.1.01-.12zM9.84 12l.55-2H5.83l.5 2h3.51zm3 0h2.18l-.55-2h-1.1zm7.02 6.69L21.08 14h-2.53l1.26 4.67.03.11.02-.1zM21.59 12l.52-2h-4.64l.53 2h3.6zm6.41.5v1a.5.5 0 0 1-.5.5h-3.33l-2.56 9.63a.52.52 0 0 1-.48.37h-2.49a.51.51 0 0 1-.48-.38L15.56 14H12.3l-2.61 9.63a.5.5 0 0 1-.48.37h-2.5a.48.48 0 0 1-.47-.38L3.75 14H.5a.5.5 0 0 1-.5-.5v-1c0-.28.22-.5.5-.5h2.74l-.52-2H.5a.5.5 0 0 1-.5-.5v-1c0-.28.22-.5.5-.5h1.7L.81 2.62A.48.48 0 0 1 .9 2.2a.56.56 0 0 1 .4-.2h2.15c.23 0 .44.16.48.38L5.32 8h5.62l1.51-5.63a.52.52 0 0 1 .49-.37h1.97a.5.5 0 0 1 .48.38L16.92 8h5.7l1.46-5.63a.49.49 0 0 1 .48-.37h2.14c.16 0 .31.08.4.19a.5.5 0 0 1 .09.43L25.76 8h1.74c.28 0 .5.22.5.5v1a.5.5 0 0 1-.5.5h-2.27l-.53 2h2.8c.28 0 .5.22.5.5z"/></svg>