<svg xmlns="http://www.w3.org/2000/svg" viewBox="0 0 24 28" id="icon"><path d="M10.22 16.84c-.03.11-.8-.25-1-.32-.2-.1-1.13-.61-1.36-.77s-1.13-.9-1.23-.94a28.27 28.27 0 0 1-2.1 2.83c-.28.33-1.12 1.4-1.64 1.72-.08.05-.53.1-.6.06.26-.19.98-1.08 1.29-1.44.39-.45 2.25-3.04 2.56-3.64.33-.59 1.31-2.56 1.36-2.75-.16-.01-1.4.41-1.72.52-.31.1-1.17.3-1.23.34-.07.07-.02.25-.05.32s-.31.2-.48.23a1.65 1.65 0 0 1-.74 0 .85.85 0 0 1-.44-.33s-.06-.1-.07-.36c.18-.06.5-.07.84-.17s1.19-.34 1.64-.5 1.33-.48 1.6-.55c.28-.04.98-.51 1.35-.64s.64-.28.66-.2 0 .42-.02.52c-.01.07-.76 1.54-.87 1.78a27 27 0 0 1-1.2 2.04c.25.11.78.33 1 .44.26.13 2.12.9 2.21.94s.27.75.24.88zm-3.2-7.59c.04.27-.03.38-.07.44-.15.3-.54.5-.78.6s-.62.18-.94.18a1.23 1.23 0 0 1-.76-.4c-.19-.21-.33-.76-.27-.7s.52.13.72.08l.9-.25c.24-.08.71-.2.87-.22.15 0 .28.07.32.27zm10.9 2.02.99 3.54-2.18-.65zM.61 23.77l10.84-3.63V4.02L.61 7.66v16.1zM20 18.8l1.6.49-2.83-10.27-1.57-.48-3.37 8.37 1.6.49.7-1.72 3.3 1.01zM12.14 3.78l8.95 2.88V.72zM17 24.45l2.47.2-.84 2.5-.63-1.02a11.97 11.97 0 0 1-4.31 1.68c-.46.1-.97.19-1.42.19h-1.32c-1.65 0-4.67-.98-5.98-1.94-.1-.08-.13-.14-.13-.25 0-.17.13-.3.28-.3.15 0 .88.46 1.08.55 1.4.7 3.38 1.35 4.96 1.35 1.95 0 3.28-.25 5.06-1.02.51-.23.97-.53 1.45-.8zM24 7.6v16.86l-12.1-3.84C11.67 20.7.46 24.5.3 24.5a.3.3 0 0 1-.28-.2L0 24.25V7.41c.02-.05.03-.13.06-.16.1-.1.22-.14.32-.17L2.7 6.3v-6l8.72 3.1c.11-.04 9.83-3.4 9.97-3.4.17 0 .31.13.31.33v6.53z"/></svg>