<svg xmlns="http://www.w3.org/2000/svg" viewBox="0 0 29 28" id="icon"><path d="M29.1 13.34c.21.22.17.4-.2.49-.3.1-3.17.84-3.98 1.06 1.19 1.58 3.42 4.6 3.61 4.87.27.4.03.5-.36.66s-8.92 3.23-9.5 3.4c-.75.23-1.08.33-1.56-.34a181.3 181.3 0 0 1-3.3-5.8c-1.83.47-5.15 1.35-6.12 1.58-.94.22-1.35-.34-1.5-.68S.49 6.3.14 5.47c-.36-.83.03-.97.37-1S5.75 4.03 6.4 4s.69.12.97.53l7.03 11.76 8.84-2.12-2.92-4.14c-.23-.35 0-.5.4-.56l4.07-.7c.3-.05.52-.13.99.43s3.14 3.92 3.34 4.14zm-16.07 3.28c.11-.01.16-.07.05-.28S6.48 4.95 6.48 4.95c-.06-.1-.04-.14-.2-.14s-4.77.42-4.84.42-.08.13 0 .28S7.37 17.75 7.4 17.84s.03.13.3.07l5.32-1.29zM27 19.25c-.08-.13-2.78-3.81-2.92-4.03s-.2-.16-.42-.1l-8.63 2.24s2.64 4.58 2.84 4.87.33.27.49.2 8.3-2.79 8.55-2.88.17-.18.09-.3zm.55-6.13c.2-.04.34-.1.25-.21l-2.49-3.18c-.16-.22-.28-.18-.42-.15l-3.25.6c-.19.03-.12.12-.05.23l2.6 3.54 3.36-.82z"/></svg>