<svg xmlns="http://www.w3.org/2000/svg" viewBox="0 0 24 28"><path d="M22.38 16.44c0-2.2-1.79-3.2-3.66-3.74-.86-.23-1.56-.43-1.88-1.37-.01-.08-.09-.38-.09-.44 0-.75.6-1.3 1.33-1.3.34 0 .83-.01 1.1.24.29.22.43.47.6.8l1.45-1.11c-.23-.33-.47-.72-.76-1-.74-.66-1.43-.77-2.4-.77-1.63 0-3.18 1.34-3.18 3.05l.03.36c.34 2.12 1.42 2.78 3.33 3.32.94.27 2.26.7 2.28 1.85v.08c.01 1.25-1.03 2-2.2 2-1.28 0-2.11-1.22-2.61-2.25-1.82-3.74-2.1-8.41-7.47-8.41a6.24 6.24 0 0 0-6.03 6.19v.01c.1 3.35 2.4 6.3 5.94 6.3 1.67 0 3.23-.39 4.35-1.72.2-.25.36-.51.49-.8l-.94-1.7c-.88 1.66-1.95 2.38-3.83 2.38-2.47 0-4.17-2.2-4.17-4.55 0-2.17 2-4.27 4.19-4.27 2.5 0 3.4 1.3 4.28 3.53 1.05 2.7 2.17 7.13 5.8 7.13 2.17 0 4.04-1.58 4.04-3.81zM24 6.5v15a4.5 4.5 0 0 1-4.5 4.5h-15A4.5 4.5 0 0 1 0 21.5v-15A4.5 4.5 0 0 1 4.5 2h15A4.5 4.5 0 0 1 24 6.5z"/></svg>