<svg xmlns="http://www.w3.org/2000/svg" viewBox="0 0 28 28"><path d="M20.19 11c0 .1.12.53.15.64.43 1.28 1.41 1.55 2.58 1.88 2.61.73 5.08 2.12 5.08 5.18 0 3.11-2.6 5.3-5.63 5.3-5.03 0-6.59-6.16-8.04-9.9-1.2-3.1-2.47-4.91-5.96-4.91-3.09 0-5.8 2.97-5.8 6.01 0 3.24 2.42 6.24 5.77 6.24 1.49 0 3.03-.31 4.03-1.49a8.6 8.6 0 0 0 1.3-1.8L15 20.51a4.94 4.94 0 0 1-.7 1.09l.02.02C12.74 23.45 10.58 24 8.25 24 3.53 24 0 19.83 0 15.24c0-4.46 3.88-8.6 8.38-8.6 7.47 0 7.84 6.47 10.37 11.67.69 1.44 1.86 3.13 3.64 3.13 1.63 0 3.07-1.05 3.07-2.77 0-3.72-6.83-1.19-7.8-7.3a2.9 2.9 0 0 1-.05-.51c0-2.31 2.17-4.3 4.47-4.22 1.38.05 2.2.1 3.3 1.06h-.02c.42.4.74.92 1.06 1.38l-2.01 1.54c-.24-.43-.46-.8-.85-1.09v-.02c-.37-.34-1.04-.32-1.51-.32a1.8 1.8 0 0 0-1.86 1.8z"/></svg>