<svg xmlns="http://www.w3.org/2000/svg" viewBox="0 0 32 28" id="icon"><path d="M29.58 6.13 32 26c-1.45 0-2.7-.3-4.02-.9a14.66 14.66 0 0 0-6.14-1.41c-2.22 0-4.26.73-5.84 2.3a8.05 8.05 0 0 0-5.84-2.3c-2.16 0-4.2.53-6.15 1.42A9.52 9.52 0 0 1 .08 26H0L2.42 6.12a15.66 15.66 0 0 1 7.53-1.98c2.11 0 4.28.44 6.05 1.66a10.58 10.58 0 0 1 6.05-1.66c2.57 0 5.3.72 7.53 1.99zm-7.74 15.42c2.97 0 5 .8 7.7 1.9L27.58 7.5a14.28 14.28 0 0 0-5.75-1.22c-2.18 0-4.23.69-5.84 2.2a8.32 8.32 0 0 0-5.84-2.2c-1.93 0-4 .42-5.75 1.22L2.47 23.45c2.69-1.1 4.72-1.9 7.69-1.9 2.14 0 4.03.54 5.84 1.68a10.61 10.61 0 0 1 5.85-1.68zm.63-.53L21.6 6.84A7.63 7.63 0 0 0 16 9.27a7.7 7.7 0 0 0-5.85-2.43c-1.75 0-3.63.36-5.25 1.04l-1.78 14.7A17.55 17.55 0 0 1 10.16 21 11 11 0 0 1 16 22.6a10.6 10.6 0 0 1 5.84-1.6z"/></svg>