<svg xmlns="http://www.w3.org/2000/svg" viewBox="0 0 24 28"><path d="M21.98 12.9c0-.73-.14-2.65-.39-3.27-.3-.76-.47-1.18-.47-2.02 0-.72.16-1.42.16-2.13 0-.3-.02-.6-.16-.86l-.2-.01c-.6 0-1.22.14-1.83.14-1.86 0-3.62-.75-5.48-.75-1.45 0-2.86.55-4.2 1.08a14 14 0 0 0-3.16 1.6C3.09 9.09 2 13.46 2 17.23c0 1.26.4 2.5.4 3.76 0 .72-.35 1.38-.35 2.07 0 .43.25.8.72.8.76 0 1.5-.35 2.28-.35 1.78 0 3.51.48 5.3.48 1.39 0 3.14-.1 4.43-.56 4.11-1.45 7.2-6.2 7.2-10.51zm2-.02c0 5.2-3.6 10.68-8.54 12.43-1.55.55-3.47.69-5.1.69-1.78 0-3.53-.45-5.3-.45-.74 0-1.5.45-2.27.45-1.55 0-2.72-1.4-2.72-2.88 0-.73.34-1.39.34-2.1 0-1.27-.4-2.5-.4-3.79C0 12.8 1.37 7.9 5.06 5.1c1.04-.8 2.38-1.4 3.61-1.88 1.6-.64 3.2-1.22 4.94-1.22 1.86 0 3.62.75 5.45.75.6 0 1.19-.16 1.8-.16 1.78 0 2.42 1.27 2.42 2.9 0 .7-.16 1.42-.16 2.12 0 .56.15.78.33 1.28.36.9.53 2.98.53 3.98z"/></svg>