<svg xmlns="http://www.w3.org/2000/svg" viewBox="0 0 19 28"><path d="m7.31 2.06-3.86.6L.3 15.89c-.2.78-.3 1.51-.3 2.2s.13 1.3.42 1.83c.3.54.78.95 1.45 1.26s1.6.46 2.78.46l.74-3.06c-.43-.04-.76-.11-1-.23s-.42-.27-.51-.46c-.1-.19-.15-.41-.14-.66s.04-.52.11-.82L7.31 2.06zm5.96 5.93c-1 0-1.92.08-2.78.24s-1.61.33-2.28.53L4.08 26h3.68l1.12-4.5c.57.1 1.13.14 1.7.14 1.16 0 2.24-.2 3.23-.6s1.83-.98 2.54-1.71a7.92 7.92 0 0 0 1.65-2.6 8.97 8.97 0 0 0 .3-5.43 4.5 4.5 0 0 0-2.62-2.88 6.18 6.18 0 0 0-2.4-.43zm-.47 3.11c.78 0 1.33.26 1.64.75s.48 1.1.48 1.82c0 .73-.1 1.4-.31 2s-.5 1.13-.88 1.56c-.37.44-.82.77-1.35 1.01s-1.12.37-1.77.37a4.68 4.68 0 0 1-1.05-.1l1.75-7.26a7.1 7.1 0 0 1 1.49-.15z"/></svg>