<svg xmlns="http://www.w3.org/2000/svg" viewBox="0 0 24 28"><path d="M2.31 2.06A2.32 2.32 0 0 0 0 4.37V23.7A2.32 2.32 0 0 0 2.31 26h19.32a2.32 2.32 0 0 0 2.32-2.31V4.37a2.31 2.31 0 0 0-2.32-2.31zm9.2 3.97L9.23 15.4c-.05.2-.07.38-.08.54s.03.3.1.43.17.23.33.3.37.13.66.15l-.5 2a4.4 4.4 0 0 1-1.8-.3 1.99 1.99 0 0 1-1.23-2.02c.01-.45.07-.93.19-1.44l2.07-8.65 2.52-.4zm3.88 3.88c.61 0 1.14.1 1.58.27s.8.44 1.08.76.5.7.63 1.13.2.88.2 1.37a5.68 5.68 0 0 1-1.48 3.88c-.46.48-1.01.85-1.66 1.11a5.62 5.62 0 0 1-3.21.3l-.74 2.95H9.4l2.7-11.27a10.28 10.28 0 0 1 3.3-.5zm-.3 2.03a5 5 0 0 0-.98.1l-1.14 4.74a3.07 3.07 0 0 0 1.84-.17c.34-.16.64-.37.88-.66.25-.28.44-.62.57-1.01s.2-.84.2-1.32c0-.46-.1-.86-.3-1.19s-.57-.48-1.08-.48z"/></svg>