<svg xmlns="http://www.w3.org/2000/svg" viewBox="0 0 28 28"><path d="M14 0a14 14 0 1 1 0 28 14 14 0 0 1 0-28zm0 2c-2.03 0-3.95.52-5.64 1.4l3.03 3.04a8 8 0 0 1 5.22 0l3.03-3.03A12.06 12.06 0 0 0 14 2zM3.4 19.64l3.04-3.03a8 8 0 0 1 0-5.22L3.4 8.36a12.06 12.06 0 0 0 0 11.28zM14 26c2.03 0 3.95-.52 5.64-1.4l-3.03-3.04a8.02 8.02 0 0 1-2.6.44 8.07 8.07 0 0 1-2.62-.44L8.36 24.6A12.06 12.06 0 0 0 14 26zm0-6a6 6 0 1 0 0-12 6 6 0 0 0 0 12zm7.56-3.4 3.03 3.04a12.06 12.06 0 0 0 0-11.28l-3.03 3.03a8.1 8.1 0 0 1 0 5.22z"/></svg>