<svg xmlns="http://www.w3.org/2000/svg" viewBox="0 0 16 28"><path d="M11.5 9c0 .27-.23.5-.5.5s-.5-.23-.5-.5c0-1.08-1.67-1.5-2.5-1.5-.27 0-.5-.23-.5-.5s.23-.5.5-.5c1.45 0 3.5.77 3.5 2.5zM14 9c0-3.13-3.17-5-6-5S2 5.88 2 9c0 1 .4 2.05 1.06 2.81.3.35.64.67.96 1.03 1.1 1.33 2.04 2.9 2.2 4.66h3.56c.16-1.77 1.1-3.33 2.2-4.66.32-.36.66-.68.96-1.03A4.46 4.46 0 0 0 14 9zm2 0c0 1.6-.53 3-1.6 4.19s-2.5 2.86-2.63 4.53c.45.26.73.76.73 1.28 0 .37-.14.73-.4 1 .26.27.4.62.4 1 0 .52-.27.98-.7 1.27.12.21.2.48.2.73 0 1.02-.8 1.5-1.7 1.5-.4.9-1.32 1.5-2.3 1.5s-1.9-.6-2.3-1.5c-.9 0-1.7-.48-1.7-1.5 0-.25.08-.52.2-.73A1.5 1.5 0 0 1 3.5 21c0-.38.14-.73.4-1a1.46 1.46 0 0 1-.4-1 1.5 1.5 0 0 1 .73-1.28c-.12-1.67-1.54-3.34-2.62-4.53S0 10.6 0 9c0-4.25 4.05-7 8-7s8 2.75 8 7z"/></svg>