<svg xmlns="http://www.w3.org/2000/svg" viewBox="0 0 24 28"><path d="M3.7 22.1h3.61V11.24h-3.6v10.84zM7.55 7.9c-.02-1.06-.78-1.87-2.02-1.87s-2.05.81-2.05 1.88c0 1.03.78 1.87 2 1.87h.02c1.27 0 2.05-.84 2.05-1.87zm9.14 14.2h3.6v-6.23c0-3.32-1.77-4.87-4.15-4.87a3.56 3.56 0 0 0-3.27 1.83h.04v-1.58H9.3s.04 1.02 0 10.84h3.6v-6.06c0-.31.02-.64.12-.87.26-.64.85-1.32 1.85-1.32 1.3 0 1.82.99 1.82 2.46v5.8zM24 6.5v15a4.5 4.5 0 0 1-4.5 4.5h-15A4.5 4.5 0 0 1 0 21.5v-15A4.5 4.5 0 0 1 4.5 2h15A4.5 4.5 0 0 1 24 6.5z"/></svg>