<svg xmlns="http://www.w3.org/2000/svg" viewBox="0 0 24 28"><path d="m5.16 23.98 3.15 3.35-.53-3.69-3.37-3.33zm3.53 3.54 4.28-3.41-.17-3.83-4.7 3.36zm-4.86-9.97 3.54 3.33-.75-5.11-3.82-3.2zm3.9 3.5 4.96-3.35-.22-5.06-5.5 3.13zm5.44.17 1.49 1.25-.03-3.73-1.61-1.24c0 .13.06.35-.07.44l-1.22.81 1.33 1.1c.16.12.11 1.18.11 1.37zM2.16 9.47l4 3.12-1.07-7.26-4.35-2.7zm16.17 10.36.23-3.66-3.6 2.56.04 3.75zM6.52 12.72l5.82-3.03-.3-6.9-6.6 2.55zm13.32 5.7.32-3.64-3.53-2.22-.03 1.64 2.25 1.49c.04.03.07.1.06.14l-.11 1.86zm2.99-2.17.47-3.47-2.8 2-.31 3.56zm-2.94 2.6-1.1-.76-.13 1.83a.14.14 0 0 1-.07.13l-3.65 2.92a.19.19 0 0 1-.22 0l-1.53-1.3.1 2.52a.14.14 0 0 1-.06.12l-4.57 3.66a.22.22 0 0 1-.1.03c-.04-.02-.1-.02-.12-.05l-3.57-3.78c-.07-.08-.84-3.94-.92-4.33a.19.19 0 0 1 .08-.17l.95-.58c-.18-.17-1.45-1.28-1.48-1.43l-1.13-5.49a.18.18 0 0 1 .1-.18l1.47-.7c-.25-.2-2.07-1.5-2.11-1.7L.33 2.32a.18.18 0 0 1 .1-.2L7.2.01a.38.38 0 0 1 .13 0l4.95 2.4c.05.03.1.1.1.14l.3 7.23a.17.17 0 0 1-.09.16l-1.84.95 1.97 1.33c.05.02.08.08.08.13l.07 1.92 1.9-1.16a.17.17 0 0 1 .17 0l1.31.88.05-1.72c0-.05.03-.11.08-.14l3.22-1.97c.06-.03.12-.03.17 0l3.83 2.1a.28.28 0 0 1 .07.12c.03.1-.48 3.62-.53 3.98 0 .05-.03.1-.06.1l-2.98 2.4a.16.16 0 0 1-.2 0z"/></svg>