<svg xmlns="http://www.w3.org/2000/svg" viewBox="0 0 25 28"><path d="M10.36 6.42c-.31.03-.2.31-.38.31-.15.02-.12-.34.38-.3zm1.36.22c-.16.05-.17-.25-.45-.17.45-.2.6.1.45.17zm-5.49 6.67c-.14-.04-.1.24-.25.46-.1.2-.39.35-.17.39.08.01.3-.18.4-.4.07-.26.15-.4.02-.45zm13.36 5.61c0-.28-.6-.55-.86-.65.43-1.41.24-1.97-.04-3.3a5.2 5.2 0 0 0-1.86-2.78c.19.15.53.6.89 1.3.63 1.17 1.25 2.9.84 4.34-.15.56-.53.64-.78.66-1.1.12-.45-1.32-.9-3.27-.52-2.19-1.05-2.35-1.17-2.52-.65-2.84-1.35-2.56-1.55-3.62-.17-.96.83-1.74-.53-2-.43-.08-1.02-.5-1.25-.53s-.36-1.58.51-1.63c.86-.06 1.02.97.86 1.38-.25.4.02.56.44.42.34-.11.13-1.02.2-1.14-.22-1.32-.76-1.5-1.32-1.61-2.16.17-1.2 2.55-1.41 2.33-.31-.33-1.22-.03-1.22-.24.02-1.22-.4-1.92-.95-1.93-.63-.02-.88.85-.9 1.35-.06.47.26 1.46.5 1.38.15-.05.41-.36.13-.34-.14 0-.36-.35-.39-.75-.01-.41.14-.82.67-.8.61.01.61 1.23.55 1.28a2.87 2.87 0 0 0-.48.45c-.2.33-.6.42-.75.56-.27.29-.33.6-.13.7.72.41.49.88 1.49.91.65.03 1.14-.09 1.59-.23.34-.1 1.45-.34 1.69-.75.1-.17.23-.17.3-.13.17.08.2.38-.2.47-.54.16-1.09.46-1.59.64-.48.2-.64.29-1.1.36-1.02.2-1.79-.37-1.1.3.23.22.45.36 1.05.34 1.3-.04 2.76-1.62 2.9-.92.03.16-.4.35-.75.52-1.22.6-2.08 1.78-2.86 1.37-.7-.37-1.4-2.1-1.39-1.32.02 1.2-1.58 2.26-.84 3.64-.49.12-1.56 2.42-1.72 3.6-.1.7.06 1.54-.11 2-.23.7-1.3-.65-.95-2.3.06-.27 0-.34-.08-.2-.42.77-.19 1.85.16 2.6.14.33.5.47.76.75.55.63 2.7 2.22 3.08 2.6a.96.96 0 0 1-.66 1.63c.52.97 1.02 1.07 1 2.65.6-.32.36-1 .11-1.44-.17-.32-.39-.46-.34-.53.03-.05.34-.32.51-.11.54.6 1.54.7 2.6.56 1.08-.13 2.23-.5 2.76-1.36.25-.4.43-.55.54-.47.12.06.17.35.15.81-.01.5-.22 1.02-.36 1.44-.14.48-.18.81.28.83.13-.88.38-1.74.44-2.61.08-1-.64-2.84.14-3.77.2-.25.46-.28.8-.28.05-1.25 1.97-1.15 2.6-.64zM9.8 6c.05-.4-.13-.67-.23-.7-.18-.05-.15.23-.06.2.06 0 .14.1.1.23-.02.2 0 .32.13.32.02 0 .05 0 .05-.05zm6.54 3.08c-.06-.3-.28-.19-.53-.35-.3-.18-.36-.5-.47-.39-.33.36.4 1.11.72 1.18.18.03.32-.22.28-.44zm-2.78-3.33c.01-.38-.32-.56-.4-.55-.2.02-.13.11-.04.14.12.04.25.25.28.49 0 .03.16-.03.16-.08zm.84-3.64c.02-.08-.19-.17-.33-.28-.12-.13-.25-.24-.37-.24-.31.03-.16.36-.2.52-.07.17-.3.31-.15.44.15.1.24-.17.54-.28.07-.03.43.01.51-.16zm8.83 20.95c1.92 1.2-.72 2.18-1.86 2.75-.9.46-2.08 1.46-2.52 1.88-.32.31-1.68.47-2.45.08-.89-.46-.42-1.18-1.8-1.22-.68-.02-1.35-.02-2.03-.02-.6.02-1.18.05-1.8.06-2.06.05-2.26 1.38-3.59 1.33-.9-.03-2.04-.75-4.01-1.15-1.38-.28-2.7-.36-2.99-.97s.35-1.3.4-1.9c.04-.8-.6-1.87-.13-2.27.4-.36 1.26-.1 1.83-.41.59-.34.84-.61.84-1.34.22.75-.02 1.35-.5 1.65-.3.19-.84.28-1.3.23-.36-.03-.57.02-.67.16-.14.17-.1.48.08.9s.37.66.34 1.16c-.01.5-.57 1.1-.48 1.52.03.16.19.3.58.4.62.18 1.76.35 2.87.62 1.24.3 2.52.87 3.31.76 2.38-.33 1.02-2.87.65-3.48-2.02-3.16-3.35-5.22-4.41-4.4-.27.21-.28-.54-.27-.84.05-1.03.57-1.4.88-2.2.6-1.52 1.05-3.25 1.95-4.14.67-.88 1.74-2.3 1.94-3.05a58.36 58.36 0 0 1-.25-4.84c-.03-1.61.22-3.02 2.03-4A3.52 3.52 0 0 1 11.49 0a5.3 5.3 0 0 1 3.04.86 5.36 5.36 0 0 1 1.9 4.2 9.76 9.76 0 0 0 .46 3.35 8.02 8.02 0 0 0 2.08 3.4c1.23 1.32 2.2 3.9 2.48 5.53.25 1.53-.09 2.49-.42 2.53-.5.08-.81 1.66-2.37 1.6-1-.05-1.1-.64-1.38-1.16-.45-.8-.9-.54-1.08.3-.09.42-.03 1.05.11 1.52.28.98.19 1.9.02 3.04-.33 2.16 1.52 2.56 2.75 1.53A7.05 7.05 0 0 1 22.1 25c2.32-.8 1.54-1.5.3-1.92-1.13-.38-1.18-2.27-.77-2.63.09 2.03 1.15 2.33 1.59 2.61z"/></svg>