<svg xmlns="http://www.w3.org/2000/svg" viewBox="0 0 28 28"><path d="M5.95 25.31c0 1.72-1.34 2.69-2.97 2.69A3.8 3.8 0 0 1 .3 26.97l.89-1.38c.42.4 1.06.7 1.65.7.55 0 1.13-.26 1.13-.88 0-.88-1-.93-1.64-.88l-.4-.87c.55-.72 1.07-1.52 1.74-2.13v-.02c-.5 0-1.02.04-1.52.04v.82H.5V20h5.2v1.37l-1.48 1.8a2.15 2.15 0 0 1 1.73 2.14zm.03-9.8V18H.33a5.14 5.14 0 0 1-.1-.84c0-2.9 3.54-3.33 3.54-4.65 0-.53-.33-.8-.85-.8-.55 0-1 .46-1.26.9l-1.33-.92A3 3 0 0 1 3.09 10c1.46 0 2.7.86 2.7 2.4 0 2.32-3.39 2.83-3.43 4.05h1.98v-.93h1.64zM28 20.5v3a.5.5 0 0 1-.5.5h-19a.5.5 0 0 1-.5-.5v-3c0-.28.22-.5.5-.5h19c.27 0 .5.22.5.5zM6 6.45V8H.77V6.45h1.67l.01-3.8v-.18h-.03c-.17.34-.48.58-.78.84L.54 2.12 2.65.15H4.3v6.31H6zm22 6.05v3a.5.5 0 0 1-.5.5h-19a.5.5 0 0 1-.5-.5v-3c0-.28.22-.5.5-.5h19c.27 0 .5.22.5.5zm0-8v3a.5.5 0 0 1-.5.5h-19a.5.5 0 0 1-.5-.5v-3c0-.27.22-.5.5-.5h19c.27 0 .5.23.5.5z"/></svg>