<svg xmlns="http://www.w3.org/2000/svg" viewBox="0 0 28 28"><path d="M4 20.5v3a.5.5 0 0 1-.5.5h-3a.51.51 0 0 1-.5-.5v-3c0-.27.23-.5.5-.5h3c.27 0 .5.23.5.5zm0-6v3a.5.5 0 0 1-.5.5h-3a.51.51 0 0 1-.5-.5v-3c0-.27.23-.5.5-.5h3c.27 0 .5.23.5.5zm0-6v3a.5.5 0 0 1-.5.5h-3a.51.51 0 0 1-.5-.5v-3c0-.27.23-.5.5-.5h3c.27 0 .5.23.5.5zm24 12v3a.5.5 0 0 1-.5.5h-21a.51.51 0 0 1-.5-.5v-3c0-.27.23-.5.5-.5h21c.27 0 .5.23.5.5zM4 2.5v3a.5.5 0 0 1-.5.5h-3a.51.51 0 0 1-.5-.5v-3c0-.27.23-.5.5-.5h3c.27 0 .5.23.5.5zm24 12v3a.5.5 0 0 1-.5.5h-21a.51.51 0 0 1-.5-.5v-3c0-.27.23-.5.5-.5h21c.27 0 .5.23.5.5zm0-6v3a.5.5 0 0 1-.5.5h-21a.51.51 0 0 1-.5-.5v-3c0-.27.23-.5.5-.5h21c.27 0 .5.23.5.5zm0-6v3a.5.5 0 0 1-.5.5h-21a.51.51 0 0 1-.5-.5v-3c0-.27.23-.5.5-.5h21c.27 0 .5.23.5.5z"/></svg>