<svg xmlns="http://www.w3.org/2000/svg" viewBox="0 0 28 28" id="icon"><path d="M6 18.5v1a.5.5 0 0 1-.5.5h-1a.51.51 0 0 1-.5-.5v-1c0-.27.23-.5.5-.5h1c.27 0 .5.23.5.5zm0-4v1a.5.5 0 0 1-.5.5h-1a.51.51 0 0 1-.5-.5v-1c0-.27.23-.5.5-.5h1c.27 0 .5.23.5.5zm0-4v1a.5.5 0 0 1-.5.5h-1a.51.51 0 0 1-.5-.5v-1c0-.27.23-.5.5-.5h1c.27 0 .5.23.5.5zm18 8v1a.5.5 0 0 1-.5.5h-15a.51.51 0 0 1-.5-.5v-1c0-.27.23-.5.5-.5h15c.27 0 .5.23.5.5zm0-4v1a.5.5 0 0 1-.5.5h-15a.51.51 0 0 1-.5-.5v-1c0-.27.23-.5.5-.5h15c.27 0 .5.23.5.5zm0-4v1a.5.5 0 0 1-.5.5h-15a.51.51 0 0 1-.5-.5v-1c0-.27.23-.5.5-.5h15c.27 0 .5.23.5.5zm2 11v-13a.5.5 0 0 0-.5-.5h-23a.5.5 0 0 0-.5.5v13c0 .27.23.5.5.5h23a.5.5 0 0 0 .5-.5zm2-17v17a2.5 2.5 0 0 1-2.5 2.5h-23A2.5 2.5 0 0 1 0 21.5v-17A2.5 2.5 0 0 1 2.5 2h23A2.5 2.5 0 0 1 28 4.5z"/></svg>