<svg xmlns="http://www.w3.org/2000/svg" viewBox="0 0 28 28"><path d="m5.23 21.19-.09-.03a17.77 17.77 0 0 1-4.81-5.08A1.87 1.87 0 0 1 0 15c0-.81.56-1.47 1.02-2.08a17.23 17.23 0 0 1 7.06-5.7c-.24-.42-1.72-3.02-1.72-3.3 0-.18.1-.36.26-.45.32-.17 1.72-1 2-1a.52.52 0 0 1 .44.25L11 6.3c.98-.2 2-.3 3-.3 5.66 0 10.69 3.2 13.69 7.92a2.03 2.03 0 0 1 0 2.16 17.48 17.48 0 0 1-7.77 6.7c.23.42 1.72 3.02 1.72 3.3a.5.5 0 0 1-.27.45c-.3.17-1.71 1-1.98 1a.53.53 0 0 1-.45-.25L17 23.7l-1-1.86-6.94-12.8.11-.12c-.53.22-1.04.46-1.54.74.18.36 7.64 14.04 7.64 14.15 0 .08-.07.13-.14.14-.35.08-.79.05-1.13.05-.17 0-.87.03-.94-.1L5.94 10.74c-.46.33-.88.69-1.28 1.06.34.61 6.3 11.6 6.3 11.7 0 .12-.07.15-.16.15-.27 0-2.35-.64-2.43-.78L6.72 19.8l-3.5-6.46A17.95 17.95 0 0 0 2 15c.2.3.47.61.64.92.22.4 2.75 5.02 2.75 5.11a.17.17 0 0 1-.16.16zm12.97-1.6.77 1.43A15.4 15.4 0 0 0 26 15a15.62 15.62 0 0 0-7.17-6.08A7 7 0 0 1 21 14a6.96 6.96 0 0 1-2.8 5.6zM13.25 10c0 .4.34.75.75.75A3.26 3.26 0 0 1 17.25 14c0 .4.34.75.75.75s.75-.34.75-.75A4.75 4.75 0 0 0 14 9.25a.76.76 0 0 0-.75.75zm5.72-1.02-.14-.06.1.11z"/></svg>