<svg xmlns="http://www.w3.org/2000/svg" viewBox="0 0 26 28"><path d="m18.6 9.08 4.57-4.58-1.67-1.67-4.58 4.58zm6.98-4.58a.98.98 0 0 1-.28.7L5.2 25.3c-.18.18-.44.28-.7.28s-.52-.1-.7-.28L.7 22.2c-.18-.18-.28-.43-.28-.7s.1-.52.28-.7L20.8.7c.18-.18.43-.28.7-.28s.52.1.7.28l3.1 3.1a.98.98 0 0 1 .28.7zM4.47 1.53 6 2l-1.53.47L4 4l-.47-1.53L2 2l1.53-.47L4 0zm5.47 2.53L13 5l-3.06.94L9 9l-.94-3.06L5 5l3.06-.94L9 1zm14.53 7.47L26 12l-1.53.47L24 14l-.47-1.53L22 12l1.53-.47L24 10zm-10-10L16 2l-1.53.47L14 4l-.47-1.53L12 2l1.53-.47L14 0z"/></svg>