<svg xmlns="http://www.w3.org/2000/svg" viewBox="0 0 28 28"><path d="M10 16.9V18c0 .4-.25.77-.6.92A1.16 1.16 0 0 1 9 19a.93.93 0 0 1-.7-.3l-8-8a.99.99 0 0 1 0-1.4l8-8a.98.98 0 0 1 1.1-.22A1 1 0 0 1 10 2v1.08L3.8 9.3a.99.99 0 0 0 0 1.4zm18 .6c0 3.25-2.45 8.03-2.56 8.23A.47.47 0 0 1 25 26c-.05 0-.1 0-.14-.02a.52.52 0 0 1-.36-.53c.45-4.26-.08-7.07-1.66-8.82-1.32-1.49-3.48-2.29-6.84-2.55V18c0 .4-.25.77-.6.92a1.16 1.16 0 0 1-.4.08.93.93 0 0 1-.7-.3l-8-8a.99.99 0 0 1 0-1.4l8-8a.98.98 0 0 1 1.1-.22A1 1 0 0 1 16 2v4.1c4.31.3 7.4 1.43 9.36 3.45 2.36 2.42 2.64 5.7 2.64 7.95z"/></svg>