<svg xmlns="http://www.w3.org/2000/svg" viewBox="0 0 36 28"><path d="M35.4 2.83c.13.1.24.34.1 1.28v.03c-.19 1.25-1.02 1.94-1.84 2.52l-.27.18c-.66.46-1.33.93-1.78 1.63-.28.44-.55 1.6-.83 2.92-.23 1.1-.51 2.38-.89 3.64-.9 3.05-2.08 5-3.6 5.97l-.65.34.13-1.14v-.15l.01-.24c.02-.25-.16-.17-.17-.12a21.14 21.14 0 0 1-.75 1.72 7.7 7.7 0 0 1-4.75 4.14c-.56.22-1.56.22-1.56.22l.71-.77c1.07-1.47 2.11-3.12 2.24-5.73v-.02l-.03-.01h-.03l-.03.04c-.2.25-.33.63-.49 1.05-.23.67-.47 1.36-1 1.69l-.1.03c-.27.03-.73.04-1 .04h-.04l-.81-.01c-.75-.05-1.5-.16-2.23-.25-.99-.13-2.02-.25-2.99-.25h-.12c-.63 0-1.61.14-2.2.33-.93.3-1.87.89-2.79 1.48-.69.44-1.34.86-1.95 1.13-.36.15-.67.3-.97.45a6.7 6.7 0 0 1-3.37.89H1.3a.91.91 0 0 1-.34-.08c-.23-.31.17-.89.88-1.81.12-.17.26-.31.34-.44a1.04 1.04 0 0 0-.28-.17 4.97 4.97 0 0 1-.88-.63 4.5 4.5 0 0 0-.82-.6l-.2-.1c.2-.36.66-.62.66-.62.29-.16.66-.25 1.16-.25.6 0 1.33.14 2 .25s1.28.21 1.8.21c.44 0 .73-.09.9-.25.43-.42 1.05-1.15 1.38-1.65a10.74 10.74 0 0 1 2.47-2.34c.78-.55 1.33-.72 2.08-.97l.95-.33c.81-.31 1.72-.6 2.65-.9 1.04-.32 2.1-.65 3.08-1.02a14.2 14.2 0 0 0 3.36-1.7c.19-.15.5-.4.67-.57 1-.98 1.74-2.25 2.44-3.47 1.3-2.25 2.66-4.56 5.69-4.87.51-.05.9-.08 1.36-.1.37-.01.95-.17 1.28-.32l.1-.05a2.6 2.6 0 0 1 1.02-.36h.02c.1 0 .25.05.33.1z"/></svg>