<svg xmlns="http://www.w3.org/2000/svg" viewBox="0 0 30 28" id="icon"><path d="M24 6.5c0-.28.22-.5.5-.5H29a1 1 0 0 1 1 1v4.5a.5.5 0 0 1-.5.5h-1a.5.5 0 0 1-.5-.5V9.4l-3.97 3.99a9 9 0 0 1-5.73 14.52 9 9 0 0 1-9.78-5.94 9 9 0 1 1 6.09-16L18.59 2H16.5a.5.5 0 0 1-.5-.5v-1c0-.28.22-.5.5-.5H21a1 1 0 0 1 1 1v4.5a.5.5 0 0 1-.5.5h-1a.5.5 0 0 1-.5-.5V3.4l-3.97 4a9.05 9.05 0 0 1 1.45 2.64 8.94 8.94 0 0 1 5.13 1.94L26.59 8h-2.1a.5.5 0 0 1-.5-.5v-1zM16 13c0-.31-.03-.6-.06-.9a7 7 0 0 0-5.88 7.8A7 7 0 0 0 16 13zM2 13a7 7 0 0 0 6.05 6.92 9 9 0 0 1 7.34-9.77A7 7 0 0 0 2 13zm15 13a7 7 0 0 0 7-7 7 7 0 0 0-6.05-6.92 9 9 0 0 1-7.34 9.77A7 7 0 0 0 17 26z"/></svg>