<svg xmlns="http://www.w3.org/2000/svg" viewBox="0 0 24 28" id="icon"><path d="M11.97 2h.08c3.3.03 6.45.4 8.3 1.23 0 0 3.65 1.65 3.65 7.22 0 0 .05 4.11-.52 6.97-.35 1.81-3.15 3.8-6.37 4.19-1.69.2-3.34.4-5.11.31-2.9-.12-5.16-.7-5.16-.7 0 .28.02.56.05.81.38 2.85 2.83 3.02 5.14 3.1 2.35.07 4.44-.58 4.44-.58l.1 2.1s-1.65.9-4.57 1.05c-1.6.1-3.6-.04-5.92-.65C1.03 25.72.14 20.33.02 14.88-.03 13.25 0 11.73 0 10.45c0-5.57 3.67-7.21 3.67-7.21 1.85-.85 5-1.2 8.3-1.24zm-6.5 8.9c-1 0-1.8.8-1.8 1.8s.8 1.8 1.8 1.8a1.8 1.8 0 1 0 0-3.6zm6.53 0a1.8 1.8 0 1 0 0 3.61 1.81 1.81 0 0 0 0-3.62zm6.53 0a1.8 1.8 0 1 0 0 3.61 1.81 1.81 0 0 0 0-3.62z"/></svg>