<svg xmlns="http://www.w3.org/2000/svg" viewBox="0 0 24 28" id="icon"><path d="M23.48 17.36c-.35 1.81-3.15 3.8-6.37 4.19-1.69.2-3.34.39-5.11.31-2.9-.13-5.16-.69-5.16-.69 0 .28.02.55.05.8.38 2.84 2.83 3.02 5.14 3.1 2.35.07 4.44-.58 4.44-.58l.1 2.12s-1.65.88-4.57 1.03c-1.6.1-3.6-.05-5.92-.65C1.03 25.66.16 20.27.02 14.8-.03 13.2 0 11.67 0 10.4c0-5.58 3.67-7.22 3.67-7.22 1.85-.84 5-1.2 8.3-1.23h.08c3.3.03 6.45.39 8.3 1.23 0 0 3.65 1.64 3.65 7.22 0 0 .05 4.11-.51 6.97zm-3.8-6.53c0-1.38-.34-2.5-1.05-3.3a3.67 3.67 0 0 0-2.86-1.23c-1.38 0-2.4.53-3.1 1.58L12 9l-.67-1.13a3.46 3.46 0 0 0-3.1-1.57c-1.18 0-2.12.42-2.85 1.23a4.89 4.89 0 0 0-1.07 3.3v6.75H7v-6.56c0-1.38.59-2.08 1.75-2.08 1.28 0 1.93.84 1.93 2.48V15h2.66v-3.58c0-1.64.65-2.48 1.94-2.48 1.15 0 1.75.7 1.75 2.08v6.56h2.67v-6.75z"/></svg>