<svg xmlns="http://www.w3.org/2000/svg" viewBox="0 0 24 28" id="icon"><path d="M4.5 2h15A4.5 4.5 0 0 1 24 6.5v15a4.5 4.5 0 0 1-4.5 4.5h-15A4.5 4.5 0 0 1 0 21.5v-15A4.5 4.5 0 0 1 4.5 2zm7.47 3.42c-2.19.02-4.3.27-5.53.83 0 0-2.44 1.1-2.44 4.81 0 .86-.02 1.86.02 2.94.09 3.64.67 7.24 4.03 8.13 1.54.4 2.87.5 3.95.43 1.94-.1 3.05-.7 3.05-.7l-.08-1.4s-1.38.43-2.94.39c-1.55-.05-3.19-.18-3.44-2.08a5.6 5.6 0 0 1-.03-.53s1.52.37 3.44.47c1.17.04 2.28-.07 3.4-.2 2.16-.26 4.02-1.6 4.26-2.8.37-1.91.34-4.64.34-4.64 0-3.72-2.44-4.82-2.44-4.82-1.23-.56-3.34-.81-5.53-.83h-.06zM9.5 8.32c.9 0 1.6.37 2.06 1.07l.44.73.44-.73a2.31 2.31 0 0 1 2.06-1.06c.8 0 1.44.28 1.92.83.49.53.7 1.26.7 2.18v4.5h-1.77v-4.37c0-.92-.4-1.38-1.18-1.38-.85 0-1.28.55-1.28 1.64v2.4h-1.78v-2.4c0-1.09-.42-1.64-1.28-1.64-.78 0-1.17.46-1.17 1.38v4.37H6.88v-4.5c0-.92.23-1.64.7-2.18a2.45 2.45 0 0 1 1.92-.83z"/></svg>