<svg xmlns="http://www.w3.org/2000/svg" viewBox="0 0 24 28"><path d="M.63 2.55v22.9h1.65V26H0V2h2.28v.55H.63zM7.67 9.8v1.16h.03c.32-.44.7-.8 1.13-1.03a3.54 3.54 0 0 1 2.98-.05c.45.2.78.58 1.02 1.11.25-.38.6-.72 1.03-1s.95-.42 1.55-.42c.45 0 .87.06 1.26.17s.7.28.99.53.48.55.64.94.23.87.23 1.42v5.74H16.2v-4.86c0-.28-.02-.57-.03-.82s-.1-.46-.2-.65-.24-.35-.43-.46-.45-.15-.78-.15-.6.06-.8.19-.37.3-.48.5-.2.42-.24.68-.06.53-.06.8v4.77h-2.34v-4.8c0-.25 0-.52-.02-.77s-.06-.47-.14-.68c-.08-.2-.23-.38-.42-.5a1.65 1.65 0 0 0-1.3-.11c-.19.04-.36.14-.53.28s-.31.33-.44.6-.17.59-.17 1v4.98H5.45V9.8h2.22zm15.7 15.64V2.55h-1.65V2H24v24h-2.28v-.55h1.66z"/></svg>