<svg xmlns="http://www.w3.org/2000/svg" viewBox="0 0 24 28" id="icon"><path d="M20.48 13.16v1.78c0 .5-.3.8-.8.8h-3.15c-.5 0-.81-.3-.81-.8v-1.78c0-.5.31-.82.81-.82h3.16c.5 0 .8.32.8.82zm-7.65 3.59v-3.9c0-1.12-.74-1.85-1.85-1.85H8.91c-.7 0-1.22.3-1.5.81-.28-.51-.8-.81-1.5-.81H3.87c-1.09 0-1.84.73-1.84 1.84v3.91c0 .23.11.34.33.34h.86c.23 0 .34-.1.34-.34v-3.6c0-.5.3-.8.81-.8h1.47c.5 0 .82.3.82.8v3.6c0 .23.09.34.32.34h.85c.23 0 .34-.1.34-.34v-3.6c0-.5.31-.8.81-.8h1.52c.5 0 .8.3.8.8v3.6c0 .23.1.34.34.34h.86c.22 0 .33-.1.33-.34zm9.2-1.5v-2.4c0-1.12-.75-1.85-1.86-1.85h-4.12c-1.11 0-1.86.73-1.86 1.84v6.41c0 .23.12.33.34.33h.86c.24 0 .33-.1.33-.33v-2.81c.3.4.77.65 1.47.65h2.98c1.11 0 1.86-.75 1.86-1.84zM24 5.62v16.75c0 2-1.63 3.63-3.63 3.63H3.63C1.63 26 0 24.37 0 22.37V5.63C0 3.63 1.63 2 3.63 2h16.75c2 0 3.62 1.63 3.62 3.63z"/></svg>