<svg xmlns="http://www.w3.org/2000/svg" viewBox="0 0 30 28" id="icon"><path d="M20.84 19.28c-.17-1.12-2.23-.25-2.35-1.48-.18-1.75 2.39-5.53 2.18-7-.18-1.32-1.06-1.6-1.83-1.61-.73-.02-.92.1-1.17.25-.15.1-.36.26-.64-.02-.34-.33-.6-.64-1.06-.7-.67-.11-.97.1-1.45.53-.19.16-.66.7-1.1.5a30.2 30.2 0 0 0-1.31-.63c-.9-.39-2.19.25-2.66 1.1-.7 1.25-2.07 6.19-2.28 6.84-.47 1.46.6 2.66 2.02 2.58.6-.03 1-.25 1.39-.95.22-.4 2.28-5.9 2.44-6.16.1-.18.48-.44.8-.28.3.17.37.52.32.83-.06.53-1.53 3.87-1.58 4.25-.18 1.25 1.47 1.45 2.11.22.2-.4 2.5-5.06 2.7-5.38.24-.34.41-.45.65-.43.17 0 .45.04.39.59-.08.52-1.92 3.95-2.13 4.8a2.53 2.53 0 0 0 1.36 2.76c.63.32 3.43.86 3.2-.6zM5.98 22.66a.56.56 0 0 1-.43.67.55.55 0 0 1-.66-.44c-.06-.3.13-.6.42-.67s.61.12.67.44zm8.91 4.1a.8.8 0 0 1-.19 1.1.78.78 0 0 1-1.09-.2.81.81 0 0 1 .2-1.1.76.76 0 0 1 1.08.2zM2.77 14.09a1.18 1.18 0 0 1-1.68.31 1.22 1.22 0 0 1-.3-1.69 1.2 1.2 0 0 1 1.66-.32c.55.39.7 1.14.32 1.7zm20.15 10.58c.4.57.25 1.37-.33 1.78-.57.39-1.36.25-1.75-.33s-.25-1.38.32-1.78c.57-.4 1.36-.25 1.76.33zm1.75-9.44a5.29 5.29 0 0 1-1.44 7.06 5.09 5.09 0 0 1-3.1.94A3.52 3.52 0 0 1 14.38 25c-.07.05-.15.1-.2.16a4.66 4.66 0 0 1-6.54-1.22 4.84 4.84 0 0 1-.83-2.56c-3.57-.6-4.92-5.15-2.25-7.65A4.17 4.17 0 0 1 7.5 7.45c1.37-3.62 5.89-5.34 8.95-2.97a5.41 5.41 0 0 1 7.15 5.54 3.04 3.04 0 0 1 1.08 5.2zM7.11 4.9c.28.42.19 1-.23 1.3-.41.27-.99.18-1.27-.24s-.19-1 .23-1.3a.9.9 0 0 1 1.27.24zM9.59.5c.08.35-.14.7-.48.77s-.69-.14-.77-.5c-.06-.34.16-.69.5-.76s.7.14.75.5zm18.53 14.82a.75.75 0 0 1-.57.9.74.74 0 0 1-.9-.57.77.77 0 0 1 .58-.93.76.76 0 0 1 .9.6zM17.76 1.37a1.22 1.22 0 0 1-.42 1.66 1.18 1.18 0 0 1-1.63-.4c-.34-.58-.15-1.33.4-1.68s1.3-.15 1.65.42zm11.66 10.25a.57.57 0 0 1-.43.7.58.58 0 0 1-.23-1.13.55.55 0 0 1 .66.44zm-2.99-3.76a1.06 1.06 0 0 1-.25 1.44c-.47.3-1.1.2-1.42-.27s-.2-1.1.27-1.44a1 1 0 0 1 1.4.27z"/></svg>