<svg xmlns="http://www.w3.org/2000/svg" viewBox="0 0 24 28"><path d="M3 20v2H1.25a.25.25 0 0 1-.25-.25v-.25H.25a.25.25 0 0 1-.25-.25v-.5c0-.14.1-.25.25-.25H1v-.25c0-.14.1-.25.25-.25H3zm0-4v2H1.25a.25.25 0 0 1-.25-.25v-.25H.25a.25.25 0 0 1-.25-.25v-.5c0-.14.1-.25.25-.25H1v-.25c0-.14.1-.25.25-.25H3zm0-4v2H1.25a.25.25 0 0 1-.25-.25v-.25H.25a.25.25 0 0 1-.25-.25v-.5c0-.14.1-.25.25-.25H1v-.25c0-.14.1-.25.25-.25H3zm0-4v2H1.25A.25.25 0 0 1 1 9.75V9.5H.25A.25.25 0 0 1 0 9.25v-.5c0-.14.1-.25.25-.25H1v-.25c0-.14.1-.25.25-.25H3zm0-4v2H1.25A.25.25 0 0 1 1 5.75V5.5H.25A.25.25 0 0 1 0 5.25v-.5c0-.14.1-.25.25-.25H1v-.25c0-.14.1-.25.25-.25H3zm17-2.5v23a1.5 1.5 0 0 1-1.5 1.5h-13A1.5 1.5 0 0 1 4 24.5v-23A1.5 1.5 0 0 1 5.5 0h13A1.5 1.5 0 0 1 20 1.5zm4 19.25v.5c0 .14-.1.25-.25.25H23v.25c0 .14-.1.25-.25.25H21v-2h1.75c.14 0 .25.1.25.25v.25h.75c.14 0 .25.1.25.25zm0-4v.5c0 .14-.1.25-.25.25H23v.25c0 .14-.1.25-.25.25H21v-2h1.75c.14 0 .25.1.25.25v.25h.75c.14 0 .25.1.25.25zm0-4v.5c0 .14-.1.25-.25.25H23v.25c0 .14-.1.25-.25.25H21v-2h1.75c.14 0 .25.1.25.25v.25h.75c.14 0 .25.1.25.25zm0-4v.5c0 .14-.1.25-.25.25H23v.25c0 .14-.1.25-.25.25H21V8h1.75c.14 0 .25.1.25.25v.25h.75c.14 0 .25.1.25.25zm0-4v.5c0 .14-.1.25-.25.25H23v.25c0 .14-.1.25-.25.25H21V4h1.75c.14 0 .25.1.25.25v.25h.75c.14 0 .25.1.25.25z"/></svg>