<svg xmlns="http://www.w3.org/2000/svg" viewBox="0 0 22 28"><path d="m4.23 14.77-1.57 1.57A8.8 8.8 0 0 1 2 13v-2c0-.55.45-1 1-1s1 .45 1 1v2c0 .6.1 1.2.23 1.77zm17.41-9.41L16 11v2c0 2.75-2.25 5-5 5a5.12 5.12 0 0 1-1.7-.3l-1.5 1.5c.95.5 2.04.8 3.2.8a7 7 0 0 0 7-7v-2c0-.55.45-1 1-1s1 .45 1 1v2a9 9 0 0 1-8 8.94V24h4c.55 0 1 .45 1 1s-.45 1-1 1H6c-.55 0-1-.45-1-1s.45-1 1-1h4v-2.06a8.8 8.8 0 0 1-3.67-1.27l-3.97 3.97a.5.5 0 0 1-.72 0L.36 23.36a.5.5 0 0 1 0-.72L19.64 3.36a.5.5 0 0 1 .72 0l1.28 1.28a.5.5 0 0 1 0 .72zM15.7 3.3 6 13V5a5.01 5.01 0 0 1 9.7-1.7z"/></svg>