<svg xmlns="http://www.w3.org/2000/svg" viewBox="0 0 36 28" id="icon"><path d="M25.7 17.16c0-1.25-.8-2.32-1.89-2.74a9.2 9.2 0 0 1-.36 1.44c-.15.5-.62.81-1.12.81-.13 0-.25-.02-.38-.05a1.2 1.2 0 0 1-.76-1.51 7.11 7.11 0 0 0-6.75-9.33 7.12 7.12 0 0 0-6.47 4.17 6.5 6.5 0 0 1 2.94 1.66 1.2 1.2 0 0 1-1.7 1.7 4 4 0 0 0-6.81 2.81 4 4 0 0 0 4 3.99h16.34a2.96 2.96 0 0 0 2.96-2.96zm2.4 0a5.36 5.36 0 0 1-5.37 5.34H6.4a6.38 6.38 0 0 1-.94-12.67 9.51 9.51 0 0 1 8.99-6.44 9.51 9.51 0 0 1 9.45 8.56c2.4.52 4.2 2.66 4.2 5.2zm3.9 0c0 1.78-.52 3.5-1.52 4.98a1.19 1.19 0 0 1-1 .52c-.23 0-.46-.07-.67-.2a1.18 1.18 0 0 1-.31-1.66 6.41 6.41 0 0 0 1.1-3.64 6.45 6.45 0 0 0-1.1-3.65c-.38-.54-.23-1.28.31-1.65s1.3-.22 1.67.33A8.78 8.78 0 0 1 32 17.16zm4 0c0 2.48-.72 4.87-2.1 6.92a1.2 1.2 0 0 1-1 .53 1.19 1.19 0 0 1-.98-1.86 10.14 10.14 0 0 0 0-11.17 1.19 1.19 0 0 1 .33-1.66 1.18 1.18 0 0 1 1.66.33 12.27 12.27 0 0 1 2.09 6.9z"/></svg>