<svg xmlns="http://www.w3.org/2000/svg" viewBox="0 0 36 28" id="icon"><path d="M35.95 16.19a7 7 0 1 1-13.9 1.56 6.97 6.97 0 0 1 2.28-5.95l-1.11-1.67A8.88 8.88 0 0 0 20 16.97c0 .56-.44 1.03-1 1.03h-5.08A7 7 0 1 1 7 10a7.09 7.09 0 0 1 2.37.42l.38-.7A6.9 6.9 0 0 0 5 8H4c-.55 0-1-.45-1-1s.45-1 1-1h2c3.5 0 5.28 1.44 6 2h9.8l-1.33-2H17a1 1 0 0 1-.98-1.17c.07-.49.54-.83 1.03-.83H21c.33 0 .64.17.83.44l1.1 1.64L24.7 4.3c.19-.19.45-.3.72-.3H27a1 1 0 0 1 1 1v2a1 1 0 0 1-1 1h-2.8l1.8 2.7a7.02 7.02 0 0 1 9.95 5.5zM7 22a5.01 5.01 0 0 0 4.9-4H7c-.34 0-.67-.19-.86-.48a1 1 0 0 1-.01-.99l2.3-4.33A5.01 5.01 0 0 0 2 17a5 5 0 0 0 4.99 5zm22 0c2.75 0 5-2.25 5-5a5.01 5.01 0 0 0-6.9-4.63l2.73 4.07a1 1 0 0 1-.27 1.39.95.95 0 0 1-.56.17.97.97 0 0 1-.83-.45l-2.72-4.07A5.01 5.01 0 0 0 29 22z"/></svg>