<svg xmlns="http://www.w3.org/2000/svg" viewBox="0 0 28 28" id="icon"><path d="M25.42 21.5c-.06-.38-1-.84-1.3-1.06a26 26 0 0 0-1.87-1.28c-.34-.2-.92-.36-1.3-.53-.5-.2-1.62-.41-1.9-.8-.57-.73-.96-1.64-1.35-2.52-.39-.9-.87-1.84-1.26-2.76-.2-.46-.32-.85-.53-1.28a16.83 16.83 0 0 0-5.86-6.43c-.82-.5-1.7-.98-2.7-1.3-.57-.16-1.26-.07-1.85-.2h-.4c-.34-.09-.6-.45-.87-.64a9.9 9.9 0 0 0-1.86-.93c-.25-.11-.93-.38-1.18-.18-.16.03-.24.1-.27.25-.16.22-.02.57.08.77.28.6.67.97 1.03 1.47.31.45.72.97.94 1.45.48 1.05.72 2.22 1.17 3.27.17.39.42.84.67 1.2.2.28.58.48.69.84.22.38-.34 1.61-.47 2a8.16 8.16 0 0 0 .17 5.02c.22.53.44 1.14 1.03 1.3.03-.03 0-.03.08-.05.13-1.03.17-2.02.53-2.83.2-.5.61-.87.9-1.28.18.11.2.47.3.69.26.58.5 1.22.8 1.8.63 1.2 1.33 2.37 2.11 3.42.27.37.63.78.97 1.12.16.13.33.2.44.38h.03v.05c-.56-.2-.9-.79-1.36-1.13-.84-.64-1.87-1.6-2.45-2.52-.25-.53-.5-1.01-.77-1.54v-.05c-.1.16-.06.31-.12.53-.25.94-.07 2-.9 2.34-.96.4-1.68-.64-1.98-1.1-.95-1.57-1.22-4.2-.54-6.32.15-.47.17-1.03.43-1.4-.06-.35-.3-.44-.47-.64a8.74 8.74 0 0 1-.7-1.16c-.39-.77-.67-1.69-.97-2.52-.12-.34-.17-.68-.3-1-.21-.48-.65-.96-.96-1.4C.86 3.92-.38 2.72.12 1.5c.79-1.94 3.55-.45 4.61.22.27.17.57.53.86.66l1.43.06c.87.2 1.7.4 2.39.78a18.9 18.9 0 0 1 7.26 7.02c.4.67.63 1.4.97 2.14.47 1.1.98 2.23 1.53 3.26.25.49.42 1.05.77 1.46.12.18.51.25.73.36.63.3 1.38.56 1.95.93a23.84 23.84 0 0 1 3.11 2.3c.36.31.6.77.94 1.11v.17l-.9.27c-.66.17-1.24.12-1.88.3-.39.1-.89.26-1.3.3.02 0 .03.04.03.04.25.69 1.57 1.27 2.16 1.67a8.96 8.96 0 0 1 1.95 1.9l.57.54c.12.19.18.42.3.6v.06c-.26-.1-.4-.33-.6-.49-.4-.28-.83-.62-1.23-.89-.72-.45-1.54-.7-2.27-1.15a21.46 21.46 0 0 1-1.2-.86 4.35 4.35 0 0 1-.99-1.16c-.12-.2-.14-.44-.3-.6.04-.35.49-.35.77-.46a9 9 0 0 1 3.64-.53zM6.28 5.19c.16.15.4.25.5.44.1.12.13.26.23.39 0 .45-.14.75-.4.93L6.58 7c-.16-.3-.28-.6-.44-.9-.19-.26-.44-.48-.6-.78H5.5v-.03c.22-.06.47-.1.78-.1z"/></svg>