<svg xmlns="http://www.w3.org/2000/svg" viewBox="0 0 24 28" id="icon"><path d="M4.02 2h15.96A4.01 4.01 0 0 1 24 6.02v15.96A4.01 4.01 0 0 1 19.98 26H4.02A4.01 4.01 0 0 1 0 21.98V6.02A4.01 4.01 0 0 1 4.02 2zm8.04 6.86a5.02 5.02 0 0 0-4.8 3.6 3.28 3.28 0 0 0-2.92-1.85 3.27 3.27 0 0 0-3.25 3.25 3.25 3.25 0 0 0 6.18 1.4 5 5 0 0 0 9.58 0 3.25 3.25 0 0 0 6.17-1.4 3.27 3.27 0 0 0-3.25-3.25 3.3 3.3 0 0 0-2.93 1.84 5 5 0 0 0-4.78-3.6zm0 1.92c1.66 0 3.07 1.38 3.07 3.08s-1.36 3.06-3.07 3.06S9 15.56 9 13.86s1.37-3.08 3.07-3.08zm-7.72 1.77c.74 0 1.32.57 1.32 1.31s-.58 1.31-1.32 1.31-1.3-.58-1.3-1.31.57-1.31 1.3-1.31zm15.43 0c.73 0 1.3.57 1.3 1.31s-.57 1.31-1.3 1.31a1.31 1.31 0 1 1 0-2.62z"/></svg>