<svg xmlns="http://www.w3.org/2000/svg" viewBox="0 0 24 28" id="icon"><path d="M12 27.52c-.38 0-.72-.1-1.05-.27l-3.3-1.97c-.5-.27-.26-.37-.1-.42.67-.22.8-.28 1.5-.67.07-.05.17-.02.25.03l2.53 1.51a.33.33 0 0 0 .3 0l9.9-5.73a.3.3 0 0 0 .16-.28V8.27a.29.29 0 0 0-.16-.27l-9.9-5.72a.33.33 0 0 0-.3 0L1.9 8c-.1.05-.14.17-.14.27v11.45c0 .1.04.23.14.28l2.72 1.56c1.46.75 2.37-.12 2.37-1V9.26c0-.15.13-.3.3-.3h1.28c.15 0 .3.13.3.3v11.3c0 1.97-1.08 3.11-2.94 3.11-.58 0-1.02 0-2.28-.62l-2.61-1.49A2.1 2.1 0 0 1 0 19.75V8.3c0-.75.4-1.44 1.05-1.82l9.9-5.75a2.25 2.25 0 0 1 2.1 0l9.9 5.75A2.1 2.1 0 0 1 24 8.3v11.45c0 .75-.4 1.44-1.05 1.81l-9.9 5.74a2.47 2.47 0 0 1-1.05.22zm3.06-7.88c-4.34 0-5.25-1.98-5.25-3.67 0-.16.13-.3.3-.3h1.3c.15 0 .26.1.26.25.2 1.31.77 1.95 3.4 1.95 2.1 0 3-.45 3-1.57 0-.64-.26-1.13-3.5-1.46-2.71-.26-4.41-.87-4.41-3.03 0-2.01 1.7-3.2 4.53-3.2 3.18 0 4.73 1.1 4.93 3.48a.41.41 0 0 1-.07.22c-.05.05-.11.11-.2.11h-1.29a.3.3 0 0 1-.28-.23c-.3-1.36-1.06-1.82-3.1-1.82-2.27 0-2.55.8-2.55 1.4 0 .71.32.95 3.4 1.34 3.06.4 4.5.97 4.5 3.1-.03 2.2-1.81 3.43-4.97 3.43z"/></svg>