<svg xmlns="http://www.w3.org/2000/svg" viewBox="0 0 36 28" id="icon"><path d="M30.23 22.75c-.5 0-.93-.05-1.39-.1a9.66 9.66 0 0 1-3.4-1.02 7.65 7.65 0 0 1-2.03-1.57A7.63 7.63 0 0 1 22 17.9a9.5 9.5 0 0 1-.72-3.52v-.78l-.03-.07c-.03-.1-.02-.04-.25-.6l-.28-.67-.1-.2-.1-.2c-.13-.24-.11-.23-.22-.46l-.19-.36-.16-.28-.06-.1-.1-.15-.12-.14v-.02l-.01.03a2 2 0 0 0-.11.15l-.1.12-.06.1-.16.3-.18.38-.22.42-.11.2-.08.2-.3.71c-.1.27-.21.52-.23.55l-.1.25-.1.2-.11.3-.22.5-.08.23-.12.27-.32.73c-.1.27-.22.5-.22.52-.03.1-.21.48-.23.52l-.12.25a5.59 5.59 0 0 0-.22.43l-.22.44-.13.23-.23.43c-.01.03-.06.06-.08.1-.02 0-.06.09-.12.16l-.22.32-.16.2-.27.3-.2.18-.23.2-.22.16c-.13.08-.16.11-.24.14-.04.02-.06.05-.2.11a1 1 0 0 1-.23.1c-.08.03-.11.04-.28.07-.16.04-.2.04-.27.05-.1.02-.1.02-.33.02h-.22a1.96 1.96 0 0 1-.5-.1l-.23-.07-.28-.15a1.49 1.49 0 0 1-.22-.1l-.25-.2c-.03-.02-.1-.05-.13-.09l-.3-.28a3.56 3.56 0 0 1-.18-.2l-.3-.36-.22-.3a1.3 1.3 0 0 1-.18-.26l-.25-.42a1.94 1.94 0 0 1-.13-.24c-.1-.17-.12-.26-.22-.44a5.59 5.59 0 0 0-.22-.43l-.12-.25-.13-.28-.3-.74-.34-.75-.12-.28c0-.02-.1-.23-.2-.52l-.2-.5-.12-.26c-.1-.25-.12-.25-.32-.74l-.3-.7-.08-.2-.1-.22-.23-.4-.18-.38-.16-.3-.06-.1-.1-.13-.1-.14-.02-.02-.11.14-.11.14-.06.11-.16.3-.19.37-.22.43-.1.2-.1.2c-.06.16-.1.28-.22.53l-.15.36-.68 1.7-.67 1.68L0 14.77l.22-.58.24-.56v-.03a.88.88 0 0 1 .1-.36 18.7 18.7 0 0 0 .33-.86c.11-.25.13-.27.33-.75l.28-.64c.1-.2.08-.2.11-.28.02-.02.02-.08.03-.1l.02.02s-.02-.02 0-.03l.12-.24c.1-.17.14-.26.22-.44l.16-.3.1-.23c.04-.06.09-.12.09-.14l.25-.42c.03-.06.04-.08.2-.28l.22-.3.15-.2.27-.3a.84.84 0 0 1 .2-.2c.14-.14.16-.14.2-.17l.18-.13c.2-.14.23-.15.33-.2.03-.02.25-.13.3-.14.07-.03.18-.08.27-.1l.25-.04a.91.91 0 0 1 .22-.03c.03 0 .05-.02.2-.02.2 0 .22.02.29.02l.18.01.28.06c.08.02.18.07.25.1.05.01.29.12.32.14l.28.17.23.17.19.18.22.21.25.27.15.2.22.3.13.17.06.11.25.42.13.24c.1.17.12.25.22.44.07.17.14.26.23.43l.12.25.13.28.31.74c.2.48.2.5.32.75l.12.28.22.53.19.5.12.25a45.5 45.5 0 0 1 .61 1.44l.1.2.5 1 .15.3.08.1.1.13a2.91 2.91 0 0 0 .12.17s.03-.07.1-.15l.1-.14.08-.11.16-.3.18-.37.32-.63.09-.2.3-.7.2-.5.12-.26.11-.25.13-.32.2-.52.08-.19.12-.26.32-.75.42-.97.16-.32.21-.42.22-.44.13-.23.23-.42c.03-.06.07-.08.2-.27.07-.08.15-.2.2-.28.16-.22.15-.19.32-.39l.19-.2.3-.27.1-.1c.04 0 .04 0 .16-.1.2-.14.22-.16.44-.25.15-.08.19-.08.25-.11.08-.03.1-.05.28-.08.17-.05.22-.03.31-.05l.28-.01.3.01c.1.02.13 0 .3.05l.31.1c.05.01.08.03.2.09l.28.14c.04.02.07.03.2.13.13.09.15.09.2.14l.21.18.2.18c.03.04.22.28.26.3s.04.07.15.23l.24.3c.07.07.1.15.12.17l.06.09.02-.02.06-.07a7.66 7.66 0 0 1 1.11-1.25 8.73 8.73 0 0 1 4.42-2.06 14.1 14.1 0 0 1 1.9-.16 11.35 11.35 0 0 1 4.98 1.05l.28.14.14.06V10a3.3 3.3 0 0 0-.25-.15A9.2 9.2 0 0 0 34 9.1a7.54 7.54 0 0 0-2.94-.67h-.6c-.75.03-1.4.17-1.98.45a4.07 4.07 0 0 0-1.03.69l-.31.3a4.72 4.72 0 0 0-.9 1.46 6.45 6.45 0 0 0-.45 2.08l-.01.6.01.5c.02.42.08.82.16 1.2a5.17 5.17 0 0 0 1.5 2.75c.25.23.55.42.84.57l.19.1c.56.27 1.2.4 1.9.45l.33.02c.52 0 1.03-.03 1.52-.13a6.92 6.92 0 0 0 1.56-.47 9.9 9.9 0 0 0 1.74-.93l.1-.07v3.5l-.15.07-.28.14a10.83 10.83 0 0 1-4.5 1.03l-.45.01z"/></svg>