<svg xmlns="http://www.w3.org/2000/svg" viewBox="0 0 24 28"><path d="M14.48 9.06a2.48 2.48 0 1 1-4.96.01 2.48 2.48 0 0 1 4.96 0zm3.35 5.67c-.28-.56-1.08-1.04-2.13-.21 0 0-1.42 1.12-3.7 1.12s-3.7-1.12-3.7-1.12c-1.05-.83-1.85-.35-2.13.21-.5 1 .07 1.49 1.33 2.32a8.6 8.6 0 0 0 3.53 1.04l-.8.82a491.42 491.42 0 0 1-2.98 2.96 1.16 1.16 0 0 0 0 1.65l.14.14a1.16 1.16 0 0 0 1.64 0l2.99-2.99A268.4 268.4 0 0 0 15 23.66a1.16 1.16 0 0 0 1.64 0l.14-.15a1.16 1.16 0 0 0 0-1.64l-2.98-2.96-.81-.82c.96-.1 2.43-.36 3.51-1.04 1.27-.83 1.83-1.32 1.33-2.32zm-.77-5.67a5.06 5.06 0 1 0-10.12 0 5.06 5.06 0 0 0 10.12 0zM24 6.5v15a4.5 4.5 0 0 1-4.5 4.5h-15A4.5 4.5 0 0 1 0 21.5v-15A4.5 4.5 0 0 1 4.5 2h15A4.5 4.5 0 0 1 24 6.5z"/></svg>