<svg xmlns="http://www.w3.org/2000/svg" viewBox="0 0 20 28" id="icon"><path d="M10 14.17A7.1 7.1 0 1 1 10-.02a7.1 7.1 0 0 1 0 14.2zM10 3.6a3.49 3.49 0 1 0 0 7 3.49 3.49 0 0 0 0-7zm8.17 11.44c.69 1.4-.1 2.08-1.87 3.24-1.5.95-3.57 1.32-4.92 1.46l1.14 1.13 4.17 4.17c.62.64.62 1.67 0 2.3l-.19.2a1.66 1.66 0 0 1-2.31 0 956.28 956.28 0 0 0-4.17-4.19l-4.17 4.2c-.65.62-1.68.62-2.3 0l-.19-.21a1.61 1.61 0 0 1 0-2.3c1.06-1.06 2.58-2.6 4.17-4.17l1.13-1.13c-1.35-.14-3.44-.5-4.96-1.46-1.78-1.16-2.56-1.83-1.87-3.24.4-.8 1.52-1.47 2.98-.31 0 0 1.99 1.58 5.2 1.58s5.18-1.58 5.18-1.58c1.47-1.16 2.58-.49 2.98.31z"/></svg>