<svg xmlns="http://www.w3.org/2000/svg" viewBox="0 0 28 28"><path d="M23.33 3.56a10.07 10.07 0 0 0-5.61-1.72c-3.33 0-6.27 1.7-8.33 4.27a12.68 12.68 0 0 0-2.62 7.56v.66a12.68 12.68 0 0 0 2.62 7.56c2.06 2.56 5 4.27 8.33 4.27 2.05 0 3.97-.63 5.6-1.72A13.92 13.92 0 0 1 14 28c-.22 0-.45 0-.67-.02A13.99 13.99 0 0 1 14 0h.05a13.98 13.98 0 0 1 9.28 3.56zM28 14c0 4.08-1.75 7.73-4.53 10.3a6.65 6.65 0 0 1-3.47.98c-1.44 0-2.8-.47-3.98-1.31 3.17-1.16 5.51-5.17 5.51-9.97 0-4.78-2.33-8.8-5.5-9.97a6.71 6.71 0 0 1 7.5-.28A13.96 13.96 0 0 1 28 14z"/></svg>