<svg xmlns="http://www.w3.org/2000/svg" viewBox="0 0 36 28"><path d="M7.47 26.17c-.16.33-.61.78-1 .94-.55.19-1.22-.17-1.25-.55-.03-.48 1.17-1.36 1.69-1.45.5-.1.73.66.56 1.06zm20.95 0c.14.33.6.78 1 .94.53.19 1.22-.17 1.24-.55.04-.48-1.18-1.36-1.7-1.45-.48-.1-.71.66-.54 1.06zm.75-1.7a4.3 4.3 0 0 0 2.1 1.58c.95.26 1.86-.19 1.86-.86 0-1.03-1.96-2.4-2.86-2.5-.86-.11-1.43 1.1-1.1 1.78zm-22.48 0a4.2 4.2 0 0 1-2.08 1.58c-.95.26-1.86-.19-1.86-.86 0-1.03 1.95-2.4 2.86-2.5.86-.11 1.42 1.1 1.08 1.78zM18.09 6.9h.02a3 3 0 0 0-1.19.23c.55.17.95.67.95 1.25 0 .73-.64 1.33-1.43 1.33-.53 0-1-.28-1.25-.67a3.01 3.01 0 0 0-.08.65c0 1.55 1.33 2.8 2.98 2.8s3-1.25 3-2.8-1.34-2.8-3-2.8zm4.75-3.41c-2.06-2.27-4.7-2.77-7.28-1.36 1.46-3.25 7.07-2.81 7.28 1.36zm11.72 19.36c.08.1-.01.39-.17.66.06.2.11.4.11.62.05 1.83-2.56 3.7-4.25 3.77-1 .04-2-.49-2.47-1.36-6.56.23-13.12.28-19.67 0a2.76 2.76 0 0 1-2.48 1.36c-1.68-.07-4.29-1.94-4.25-3.77a2.8 2.8 0 0 1 .1-.63c-.15-.26-.25-.54-.17-.65.07-.1.27-.1.49-.02.18-.3.4-.54.64-.8-.07-.26-.07-.5.03-.59.1-.1.36-.06.6.07a5.74 5.74 0 0 1 .93-.54c0-.28.08-.5.2-.57.19-.1.52-.03.8.25.33-.05.66-.05.95.03.2.04.4.15.6.3v-1.15c-.1 0-.18 0-.28-.03-1.02-.18-2.13-.89-2.38-2.06a2.87 2.87 0 0 1 0-1.27c.19-.78.86-1.23 1.45-1.48.05-.34.47-.81.86-.92.44-.11.72.26.81.6h.2c.29.02.74.09.95.35a.46.46 0 0 1 .07.1c.32-.02.64-.07.96-.1a1.76 1.76 0 0 0-.47-.27c-.3-.51-.8-.64-1.42-.67l.01-.15c-1.14-.03-2.55-.33-3.17-1.03-.72-.8-.84-2.16-.7-3.2.12-1 .54-2.18 1.4-2.79.49-.33 1.25-.05 1.32.56.03.27.07 1.18.32 1.32.28.14.74.2 1.2.18A7.31 7.31 0 0 1 9.2 7.83c-.86-.08-1.67.1-2.53.22l.74-.72a12.76 12.76 0 0 1 6.94-3.08c-1.07-.45-2.3-.69-3.44-.95C15.33 2.36 21 2.02 25.03 5.47a9.38 9.38 0 0 1 2.47 3.47c.64.08 1.45.1 1.89-.14h.02c.25-.14.3-1.03.32-1.32.07-.6.83-.89 1.32-.54.86.6 1.28 1.78 1.42 2.78.12 1.03.02 2.39-.72 3.18-.63.7-1.98 1.02-3.1 1.05v.16c-.65.01-1.18.14-1.5.67a2.09 2.09 0 0 0-.48.27l.97.1a.34.34 0 0 1 .08-.12c.22-.25.67-.33.94-.36h.2c.1-.31.4-.69.81-.6s.81.58.86.93c.63.25 1.28.7 1.45 1.48.11.47.1.88.02 1.27-.27 1.17-1.37 1.89-2.39 2.06a1.5 1.5 0 0 1-.27.03l-.01 1.14c.19-.14.37-.25.6-.3.29-.07.62-.07.95-.02.28-.29.62-.35.8-.25.12.07.21.3.21.57.33.16.66.35.92.53.25-.12.49-.15.6-.06.1.1.1.33.03.6.23.25.47.51.64.8.22-.09.4-.09.48 0zm-4.3-14.88c0 .36-.07.68-.14.85 1 .39 1.52 1.28 1.75 2.06.07-.6-.15-2.28-.8-2.95-.41-.42-.8-.3-.8.05zm-1.21 1.57c.75.9.98 2.4.73 3.64a2.92 2.92 0 0 0 1.52-.7c.1-.13.22-.29.28-.44-.07-1.24-.6-2.47-1.72-2.83-.19.19-.53.28-.81.33zm-.58.06c-.22 0-.47 0-.69-.02.44 1.2.72 2.47.83 3.74.2 0 .44-.02.67-.05.34-1.4-.02-2.98-.81-3.67zM4.03 10.89c.23-.78.75-1.67 1.75-2.06a2.58 2.58 0 0 1-.14-.85c0-.34-.4-.47-.81-.04-.66.67-.86 2.34-.8 2.95zm.56 1.6c.33.35.9.57 1.52.7a4.6 4.6 0 0 1 .73-3.64 1.6 1.6 0 0 1-.8-.33c-1.13.36-1.65 1.6-1.73 2.83.08.15.17.3.28.43zm2.77.84A10.16 10.16 0 0 1 8.5 9.66c-.3.06-.58.17-.86.28l-.7.3v-.02a4.57 4.57 0 0 0-.32 3.06c.27.03.5.05.74.05zm15.05.6c.2 1.04.28 2.07.43 3.1.07.36.18.44.52.27.92-.47 1.31-2.27 1.33-3.3-.75-.05-1.52-.05-2.28-.06zM18 3.94a4.4 4.4 0 1 0 0 8.8 4.4 4.4 0 0 0 0-8.8zm3.56 9.98a113.24 113.24 0 0 0-3.3 0v-.02c-.01.3.02 2.2.25 2.38.65.3 2.29.26 2.96.06.31-.1.14-2.14.1-2.42zM17.38 17c.26-.13.14-2.62.07-3.1v-.02c-1.12.02-2.23.02-3.34.05-.11.53-.27 2.83.1 2.98.76.33 2.41.3 3.16.1zm-6.16-2.95c-.31 1.14.02 2.61 1.28 3.18.31.14.5.14.56-.25.11-.5.14-2.13.28-3.02-.7.02-1.42.05-2.12.1zm-1.99 1.97c.04.28-.21.45-.53.56 2.53 2.72 5.36 4.96 9.02 6.16 3.9-1.11 6.69-3.47 9.44-6.19-.28-.1-.5-.3-.47-.53.01-.06.03-.1.05-.14l-1.54-.16c-.54 1.9-2.07 3.07-2.7 1.83-.15-.3-.2-.67-.26-.97-.22.49-.77.47-1.43.52-.76.06-1.82.08-2.54-.17-.18.75-.64.75-1.55.82-.81.08-2.81.24-3.17-.62-.07 1.66-2.03.58-2.61-.4a4.04 4.04 0 0 1-.4-1.02c-.46.04-.91.1-1.37.15l.07.16zm-1.3 9.81c.02-.14.04-.3.04-.46-.33-1.35-1.08-2.88-1.94-3.13-1.3-.4-3.98 1.36-3.83 3.16a5.03 5.03 0 0 0 3.43 2.1c1.03.05 2.07-.64 2.3-1.67zm.04-2.67c.19.52.37 1.2.42 1.86 1.94-1.12 4-2.06 6.13-2.72a23.61 23.61 0 0 1-5.63-4.45c-.12.08-.3.14-.45.2l-.03.14c.26.16.45.35.34.58-.12.23-.5.44-.87.53a1.72 1.72 0 0 1-.46.38h-.01c-.02.78-.02 1.56.01 2.34.22.4.4.8.55 1.14zm1.08 2.6c5.97.23 11.93.2 17.89 0a28.83 28.83 0 0 0-6.69-3.07c-.8.36-1.6.66-2.44.9-.12.04-.12.04-.25 0a19.74 19.74 0 0 1-2.01-.77 26.22 26.22 0 0 0-6.5 2.94h-.02v.01l.02-.01zm18.5-.72a7.33 7.33 0 0 1 .95-2.99l-.02.02c.04-.8.05-1.6.05-2.4a1.83 1.83 0 0 1-.47-.38c-.37-.08-.75-.3-.87-.52-.11-.23.08-.44.34-.6a.37.37 0 0 1-.03-.13 1.61 1.61 0 0 1-.44-.2 28.07 28.07 0 0 1-5.98 4.45 34.1 34.1 0 0 1 6.47 2.75zm6.12.36c.17-1.8-2.51-3.55-3.83-3.16-.84.25-1.6 1.78-1.93 3.13 0 .17.01.32.04.46.22 1.04 1.27 1.72 2.3 1.68a5.03 5.03 0 0 0 3.42-2.11z"/></svg>