<svg xmlns="http://www.w3.org/2000/svg" viewBox="0 0 22 28"><path d="M21.9 17.23c-3.13 7.8-10.67 3.08-10.67 3.08C8.93 24.98 5.11 27.98.7 28a.7.7 0 0 1-.7-.7c0-.4.31-.7.7-.7 3.68 0 6.88-2.43 8.97-6.27-2.34.9-6.76 1.6-9.22-4.69 6.22-2.56 9.08.64 10.18 2.6.56-1.4.96-2.91 1.23-4.55 0 0-7.97 1.25-8.53-5.6 6.8-2.73 8.7 4.38 8.7 4.38.1-.95.19-3 .19-3.05 0 0-6.06-4.2-2.17-9.42 7.1 2.45 3.5 9.27 3.5 9.27.03.09.03 1.35 0 1.9 0 0 2.57-5.08 7.78-3.28-.24 7.64-8.1 6.06-8.1 6.06a24.1 24.1 0 0 1-1.14 4.42s4.74-5.23 9.81-1.14z"/></svg>