<svg xmlns="http://www.w3.org/2000/svg" viewBox="0 0 22 28" id="icon"><path d="M21.94 21.64c0 2.44-1.86 4.3-4.3 4.3-1.37 0-2.7-.6-3.67-1.57L1.83 12.26A6.08 6.08 0 0 1 .06 8.02a5.9 5.9 0 0 1 5.92-5.96c1.6 0 3.13.64 4.27 1.77l9.45 9.47a.5.5 0 0 1 .16.34c0 .33-.88 1.2-1.2 1.2a.5.5 0 0 1-.36-.15L8.83 5.2A4.1 4.1 0 0 0 6 4a3.95 3.95 0 0 0-3.94 4c0 1.05.44 2.07 1.19 2.82l12.13 12.14c.59.6 1.42.98 2.26.98 1.33 0 2.31-.98 2.31-2.3 0-.87-.39-1.68-.98-2.27L9.89 10.3a1.4 1.4 0 0 0-.94-.38c-.6 0-1.04.44-1.04 1.05 0 .34.15.67.39.92l6.4 6.4a.5.5 0 0 1 .16.35c0 .33-.9 1.22-1.22 1.22a.5.5 0 0 1-.34-.15L6.89 13.3a3.29 3.29 0 0 1-.98-2.33 3.03 3.03 0 0 1 3.06-3.06c.87 0 1.72.36 2.33.98l9.07 9.08c.99.97 1.57 2.3 1.57 3.67z"/></svg>