<svg xmlns="http://www.w3.org/2000/svg" viewBox="0 0 26 28" id="icon"><path d="M12.19 7.38c0 1.75-.9 3.82-2.93 3.82-2.53 0-4.06-3.18-4.06-5.37C5.2 4.08 6.1 2 8.12 2c2.55 0 4.07 3.19 4.07 5.38zm-5.35 7.54c0 1.52-.8 3.1-2.51 3.1-2.5 0-4.33-3.07-4.33-5.33 0-1.52.81-3.11 2.52-3.11 2.5 0 4.32 3.08 4.32 5.34zM13 14.5c3.83 0 9 5.52 9 9.2 0 1.99-1.63 2.3-3.22 2.3-2.1 0-3.78-1.4-5.78-1.4-2.1 0-3.88 1.38-6.14 1.38-1.52 0-2.86-.51-2.86-2.28 0-3.7 5.17-9.2 9-9.2zm3.73-3.3c-2.01 0-2.92-2.07-2.92-3.82 0-2.2 1.52-5.38 4.06-5.38 2.02 0 2.93 2.08 2.93 3.83 0 2.19-1.54 5.37-4.07 5.37zm6.75-1.62c1.7 0 2.52 1.6 2.52 3.1 0 2.27-1.83 5.33-4.33 5.33-1.72 0-2.51-1.57-2.51-3.09 0-2.26 1.82-5.34 4.32-5.34z"/></svg>