<svg xmlns="http://www.w3.org/2000/svg" viewBox="0 0 24 28"><path d="M23.73 10.1c.2.93.16 2.01-.06 3.18-1.01 5.16-4.44 6.94-8.83 6.94h-.68c-.54 0-.97.39-1.07.92l-.06.3-.86 5.4-.03.24c-.1.53-.55.92-1.08.92H7.14c-.44 0-.72-.36-.66-.8l.83-5.25.85-5.23c.04-.38.3-.58.67-.58.62 0 1.25-.02 2.05 0 1.12.02 2.42-.05 3.68-.33a9.33 9.33 0 0 0 4.49-2.25 9.37 9.37 0 0 0 2.42-3.84 14.11 14.11 0 0 0 .55-2.08c.03-.19.07-.16.18-.08a3.9 3.9 0 0 1 1.53 2.53zm-2.68-4.41c0 1.28-.3 2.5-.72 3.68a7.6 7.6 0 0 1-4.72 4.93c-1.27.45-2.6.64-3.94.65-.94.02-1.87 0-2.81 0-1.02 0-1.66.5-1.85 1.5-.21 1.2-1.07 6.72-1.32 8.28-.02.11-.07.16-.19.16H.9a.75.75 0 0 1-.76-.86L3.77 1.05A1.26 1.26 0 0 1 5 0h9.34c.68 0 2.22.3 3.27.7a5.05 5.05 0 0 1 3.44 4.99z"/></svg>