<svg xmlns="http://www.w3.org/2000/svg" viewBox="0 0 24 28"><path d="M20 18.64c0-.08 0-.17-.03-.25-.1-.28-2.38-1.44-2.81-1.69-.3-.17-.66-.51-1.02-.51-.69 0-1.7 2.04-2.31 2.04-.31 0-.7-.28-.99-.43a11.44 11.44 0 0 1-4.64-4.64c-.15-.29-.43-.68-.43-.99 0-.6 2.04-1.62 2.04-2.31 0-.36-.34-.72-.51-1.02-.25-.43-1.4-2.72-1.69-2.8C7.53 6 7.44 6 7.36 6c-.4 0-1.2.19-1.58.34C4.75 6.81 4 8.78 4 9.86c0 1.05.42 2 .78 2.97 1.25 3.42 4.97 7.14 8.4 8.4.96.35 1.91.77 2.96.77 1.08 0 3.05-.75 3.52-1.78a5.5 5.5 0 0 0 .34-1.58zM24 6.5v15a4.5 4.5 0 0 1-4.5 4.5h-15A4.5 4.5 0 0 1 0 21.5v-15A4.5 4.5 0 0 1 4.5 2h15A4.5 4.5 0 0 1 24 6.5z"/></svg>