<svg xmlns="http://www.w3.org/2000/svg" viewBox="0 0 22 28" id="icon"><path d="M9.64 26.4c0-.38-.83-3.04-1-3.67-.1-.39-.12-1.03-.42-1.3-.2-.2-.53-.23-.8-.23-.73 0-1.47.18-2.2.18-.22 0-.55-.02-.74-.18-.25-.2-.37-.9-.46-1.22a14.29 14.29 0 0 1 0-7.96c.09-.32.21-1.02.46-1.22.2-.16.52-.18.74-.18.73 0 1.47.18 2.2.18.27 0 .6-.03.8-.22.3-.28.33-.92.42-1.32.17-.62 1-3.28 1-3.65 0-.53-1.4-1.31-1.86-1.49a1.85 1.85 0 0 0-.7-.12c-.52 0-1.03.14-1.53.28-2.56.77-3.17 2.33-4.19 4.53C.26 11.17 0 13.42 0 16s.27 4.83 1.36 7.19c1.02 2.2 1.62 3.76 4.19 4.53.5.14 1.01.28 1.53.28.23 0 .47-.03.7-.13.45-.17 1.86-.95 1.86-1.48zm2.48-14.28a.99.99 0 0 1-.7-.3 1 1 0 0 1 0-1.41 2.01 2.01 0 0 0 0-2.83c-.4-.4-.39-1.02 0-1.4s1.02-.4 1.4 0a4 4 0 0 1 0 5.65 1.05 1.05 0 0 1-.7.3zm2.83 2.83a.93.93 0 0 1-.7-.3.99.99 0 0 1 0-1.4 6 6 0 0 0 0-8.5c-.4-.4-.4-1.02 0-1.4s1.02-.4 1.4 0C17.18 4.85 18 6.85 18 9s-.83 4.14-2.34 5.66a.96.96 0 0 1-.7.3zm2.83 2.83a.93.93 0 0 1-.7-.3.99.99 0 0 1 0-1.4 10 10 0 0 0 0-14.16c-.4-.39-.4-1.01 0-1.4s1.01-.4 1.4 0C20.75 2.78 22 5.8 22 9s-1.25 6.22-3.52 8.48a.96.96 0 0 1-.7.3z"/></svg>