<svg xmlns="http://www.w3.org/2000/svg" viewBox="0 0 22 28"><path d="M22 19.38a7.1 7.1 0 0 1-.48 2.17c-.33.76-1.2 1.26-1.91 1.65-.92.5-1.86.8-2.9.8-1.46 0-2.77-.6-4.1-1.08a14.63 14.63 0 0 1-2.73-1.3 26.4 26.4 0 0 1-7.5-7.5 14.63 14.63 0 0 1-1.3-2.73C.59 10.06 0 8.75 0 7.3c0-1.04.3-1.98.8-2.9.39-.7.89-1.58 1.65-1.9A6.6 6.6 0 0 1 4.63 2c.1 0 .21 0 .32.05.33.1.68.87.83 1.19.5.89.99 1.8 1.5 2.67.25.4.72.9.72 1.39 0 .95-2.83 2.34-2.83 3.19 0 .42.4.97.61 1.34a15.54 15.54 0 0 0 6.4 6.4c.37.21.92.6 1.34.6.84 0 2.23-2.83 3.18-2.83.49 0 .99.47 1.4.72.87.52 1.78 1 2.67 1.5.31.16 1.07.5 1.18.83.05.1.05.22.05.33z"/></svg>