<svg xmlns="http://www.w3.org/2000/svg" viewBox="0 0 36 28"><path d="M17.95 4.55c9.93 0 17.97 4.23 17.97 9.45s-8.05 9.45-17.97 9.45S0 19.22 0 14s8.03-9.45 17.95-9.45zM16.4 7.1l-2.03 9.8h1.95l1.16-5.61 1.56.01c.5 0 .81.1.97.28s.19.52.1.97l-.91 4.35h1.97l.95-4.55c.2-1.02.06-1.7-.42-2.06a3.67 3.67 0 0 0-2.16-.58H17.8l.55-2.61h-1.96zM7.47 9.7l-2.02 9.77h1.97l.53-2.57h1.69c.58 0 1.14-.08 1.67-.2s1.03-.43 1.5-.9c.4-.37.69-.78.9-1.25s.38-.93.45-1.42c.17-1.05.01-1.89-.49-2.5s-1.31-.9-2.42-.92H7.47zm16.73 0-2.03 9.77h1.97l.53-2.57h1.7c.58 0 1.13-.08 1.66-.2s1.05-.43 1.52-.9a4.81 4.81 0 0 0 1.33-2.67c.17-1.05.01-1.89-.49-2.5s-1.31-.9-2.42-.92H24.2zM9.73 11.28c.75-.02 1.38.06 1.88.2s.67.7.5 1.65c-.2 1.15-.6 1.8-1.2 1.99s-1.36.28-2.27.27h-.19l-.17-.02.85-4.08h.28c.1 0 .22 0 .32-.02zm16.72 0c.75-.02 1.38.06 1.88.2s.69.7.51 1.65c-.2 1.15-.6 1.8-1.21 1.99s-1.36.28-2.27.27h-.19l-.17-.02.84-4.08h.29c.1 0 .21 0 .32-.02z"/></svg>