<svg xmlns="http://www.w3.org/2000/svg" viewBox="0 0 24 28"><path d="M16.34 15.94c0 1.32-.9 2.4-2.01 2.4-.45 0-.81-.07-1.1-.23v-4.33c.29-.17.65-.27 1.1-.27 1.1 0 2.01 1.08 2.01 2.43zm-5.36-6.69c0 1.34-.9 2.42-2.01 2.42-.45 0-.81-.08-1.1-.23V7.1c.29-.17.65-.27 1.1-.27 1.1 0 2.01 1.08 2.01 2.41zm8.79 6.73c0-2.8-2.11-5.06-4.7-5.06a4.03 4.03 0 0 0-.62.05 5.18 5.18 0 0 1-1.21 2.12 4.8 4.8 0 0 1-3.3 1.58v9.94l3.3-.64v-3.22c.54.2 1.15.3 1.82.3 2.6 0 4.7-2.27 4.7-5.07zM14.4 9.31c0-2.8-2.11-5.06-4.72-5.06-.77 0-1.53.2-2.2.56H4.57v13.13l3.3-.65v-3.21a5.6 5.6 0 0 0 1.8.3c2.62 0 4.73-2.27 4.73-5.07zM24 6.5v15a4.5 4.5 0 0 1-4.5 4.5h-15A4.5 4.5 0 0 1 0 21.5v-15A4.5 4.5 0 0 1 4.5 2h15A4.5 4.5 0 0 1 24 6.5z"/></svg>