<svg xmlns="http://www.w3.org/2000/svg" viewBox="0 0 32 28"><path d="M19.1 14.52c4.06-.16 6.3 3.18 8.15 6.28 1.1 1.86 2.38 2.95 3.95 4.34-1.68 1.05-3.82 1.75-5.64 2.56-3-2.51-1.25-12.5-6.06-12.5l-.16.03-.09.07.2.22c1.3 1.09 1.82 1.32 1.9 3.18l.01.52c.05 1.17-.3 2.31-.53 3.45-1.05-.03-2.06.31-3.11.31-.4 0-.77-.04-1.13-.15-.03-.25-.03-.5-.03-.73 0-.49-.01-1.04.05-1.5.08-.52 1.83-1.63 1.8-2.38-.3-.03-.5.14-.67.38-.72 1.06-2.57 2.28-3.88 2.28-.9 0-3.06-3.9-4.16-4.68-.17-.12-.28-.3-.42-.47-.87.2-7.58 1.75-8.01 1.75-.33 0-.63-.26-.63-.59 0-.3.19-.58.49-.64l7.59-1.66c-.52-.93.67-.95 1.17-1.09.17-.05.35-.22.52-.22.34 0 .64.49.75.77.34-.08 2.48-.58 2.69-.58.34 0 .65.25.65.6a.62.62 0 0 1-.5.63l-2.84.63-.02.25c-.01.55 2.47 3.26 2.9 3.26 1 0 3-2.26 3-3.26 0-1.67-2.34-.69-2.34-1.83 0-.19.07-.36.16-.53l-1.06-.3c.48-.5.67-1.14.67-1.83 0-.3-.03-.6-.08-.9.8-.16 1.45-.25 2.25-.25 3.1 0 2.49.47 3.56 2.95l.79-.39c-.13 1.86-1.97.95-1.91 1.69zm.93-3.68c-.6-.7-.87-1.04-1.23-1.2-.38-.17-.86-.12-1.99-.12a7.9 7.9 0 0 0-3.39.67c.35-.64.72-.92 1.4-1.19 1.5-.56 2.2-1.66 3.21-2.78.53.37.77 1.31 1.53 1.26l.19-.01v1.19l.34.01a22.86 22.86 0 0 0 5.8-2.97c2.63-2 2.88-2.71 4.42-5.43l.11-.14a5.67 5.67 0 0 1-.67 2.17c-1.66 3.47-4.28 5.45-7.98 6.34-.68.16-1.44.17-2.05.49.08.53.72.98.72 1.25 0 .18-.3.39-.4.47zm-3.45 14.4c.86-.57 3.31-1.08 4.34-1.08.52 0 1.53 2.45 1.8 3a10.92 10.92 0 0 1-3.81.7 11.67 11.67 0 0 1-1.96-.17zm-3.74-10.11.75-.2 1.7 2.77-1.13.75zm7.83 8.07c.02.08.05.18.05.25 0 .4-2.69.7-3.17.77l-.11-.67c.97-.11 2.05-.36 3.01-.35h.22zm-7.14-9.8-1.5.3-.1-.26c.37-.03.7-.2 1.05-.2.2 0 .38.04.55.15zm3.05 9.9h.48l.16 1.3-.64.18V23.3zM30.47.02zm0 0-.02.07-.03.03.02-.04zm0 0 .02-.02z"/></svg>