<svg xmlns="http://www.w3.org/2000/svg" viewBox="0 0 36 28"><path d="M36 0c-4.55 3.02-5.03 5.2-5.42 5.88-.38.68-.66 3.39-1.31 4.7-.66 1.33-3.05 2.37-3.72 2.81-.66.44-1.6 2.14-2.36 3.6a17.82 17.82 0 0 0-9.85 2.48s-1.43.83-4.73 2.8c1.65-.55 2.44-.94 2.44-.94 4.12-1.58 5.22-2.33 8.54-2.88 2.57-.42 5.88-.08 7.27.11.06 0 .1.03.16.05a.44.44 0 0 1 .17.6l-3.03 5.4a.67.67 0 0 1-.74.34c-.75-.14-2.47-.37-5.53-.37-4.44 0-8.04 1.36-12.4 1.42-3.68.05-5.11-1.45-5.47-1.94L0 24.02c0-.07.03-.1.1-.1 0 0 2.15 0 5.8-.86 4.13-7.89 7.82-10.65 11.84-10.65 0 0 4.03 0 5.09 3.48l1.6-2.77c.3-.53 1.96-4.34 4.85-7.95C32.18 1.57 34.38.67 36 0z"/></svg>