<svg xmlns="http://www.w3.org/2000/svg" viewBox="0 0 24 28" id="icon"><path d="M24 14A12 12 0 0 1 8.6 25.5c.45-.72.96-1.64 1.21-2.56l.85-3.3c.4.8 1.62 1.5 2.92 1.5 3.86 0 6.48-3.52 6.48-8.23 0-3.55-3.01-6.88-7.6-6.88-5.7 0-8.57 4.1-8.57 7.5 0 2.06.78 3.9 2.45 4.6.27.1.52 0 .6-.32.06-.2.18-.73.25-.95.08-.31.04-.4-.17-.67a3.49 3.49 0 0 1-.8-2.36 5.68 5.68 0 0 1 5.9-5.75c3.22 0 5 1.97 5 4.6 0 3.46-1.53 6.38-3.8 6.38-1.26 0-2.2-1.03-1.9-2.3.36-1.53 1.06-3.17 1.06-4.26 0-.98-.53-1.81-1.62-1.81-1.28 0-2.31 1.33-2.31 3.1 0 0 0 1.15.39 1.91l-1.55 6.53c-.22.91-.23 1.93-.2 2.77A12 12 0 1 1 24 14z"/></svg>