<svg xmlns="http://www.w3.org/2000/svg" viewBox="0 0 24 28"><path d="M19.5 2A4.5 4.5 0 0 1 24 6.5v15a4.5 4.5 0 0 1-4.5 4.5H8.17c.52-.73 1.36-2 1.69-3.28l.83-3.27c.42.8 1.62 1.49 2.9 1.49 3.82 0 6.4-3.49 6.4-8.14C20 9.28 17.03 6 12.5 6 6.85 6 4 10.05 4 13.42c0 2.03.79 3.85 2.45 4.53.26.11.51 0 .6-.3l.22-.95c.08-.3.05-.4-.17-.65a3.52 3.52 0 0 1-.78-2.35c0-3 2.25-5.67 5.85-5.67 3.18 0 4.93 1.94 4.93 4.55 0 3.42-1.51 6.3-3.76 6.3-1.24 0-2.18-1.02-1.88-2.29.36-1.5 1.05-3.12 1.05-4.2 0-.97-.52-1.78-1.6-1.78-1.26 0-2.28 1.31-2.28 3.06 0 0 0 1.13.38 1.9l-1.53 6.46c-.35 1.44-.2 3.11-.11 3.97H4.5A4.5 4.5 0 0 1 0 21.5v-15A4.5 4.5 0 0 1 4.5 2h15z"/></svg>