<svg xmlns="http://www.w3.org/2000/svg" viewBox="0 0 20 28"><path d="M0 9.33C0 3.56 5.28 0 10.63 0 15.53 0 20 3.38 20 8.55c0 4.86-2.48 10.25-8.02 10.25-1.3 0-2.97-.66-3.6-1.88-1.2 4.7-1.1 5.4-3.72 9l-.22.08-.14-.16c-.1-.98-.24-1.95-.24-2.93 0-3.2 1.47-7.8 2.19-10.9-.4-.8-.5-1.76-.5-2.64 0-1.57 1.1-3.57 2.88-3.57 1.3 0 2.01 1 2.01 2.23 0 2.03-1.37 3.94-1.37 5.9 0 1.35 1.1 2.29 2.4 2.29 3.6 0 4.7-5.19 4.7-7.96 0-3.7-2.62-5.71-6.17-5.71-4.12 0-7.3 2.95-7.3 7.15 0 2.02 1.23 3.05 1.23 3.53 0 .4-.3 1.85-.8 1.85-.09 0-.2-.03-.27-.05C.8 14.36 0 11.37 0 9.33z"/></svg>