<svg xmlns="http://www.w3.org/2000/svg" viewBox="0 0 22 28" id="icon"><path d="M21.5 2.5c1 1 0 3.5-1.5 5l-2.52 2.52 2.5 10.87a.51.51 0 0 1-.18.52l-2 1.5a.48.48 0 0 1-.3.1c-.03 0-.06 0-.1-.03a.44.44 0 0 1-.34-.25L12.7 14.8l-4.04 4.04.82 3.04a.51.51 0 0 1-.12.48l-1.5 1.5a.52.52 0 0 1-.36.14h-.03a.5.5 0 0 1-.38-.2l-2.95-3.94L.2 16.9c-.12-.08-.18-.22-.2-.36s.05-.28.14-.4l1.5-1.51A.52.52 0 0 1 2 14.5c.05 0 .1 0 .13.02l3.03.82L9.2 11.3 1.27 6.94A.55.55 0 0 1 1 6.56a.53.53 0 0 1 .14-.42l2-2c.13-.1.31-.17.47-.12l10.4 2.48L16.5 4c1.5-1.5 4-2.5 5-1.5z"/></svg>