<svg xmlns="http://www.w3.org/2000/svg" viewBox="0 0 28 28" id="icon"><path d="M.19 27.47c-.17-.17-.19-.22-.19-.53 0-.38.13-.9.36-1.47.12-.31 1.9-3.45 2.48-4.38.08-.14.33-.72.55-1.3a39.3 39.3 0 0 1 4.17-8.74c1.85-2.82 4-5.08 6.35-6.66.39-.27.62-.28.8-.1a.4.4 0 0 1 .12.2c0 .12.1.04.62-.48 1.31-1.3 3.1-2.12 6.17-2.87 1.61-.4 4.9-1 5.43-1 .28 0 .46.16.46.44 0 .17-.04.25-.35.54-.7.66-.97 1.16-1.8 3.22a17.62 17.62 0 0 1-1.6 3.24l-.34.53.17.14c.16.12.17.19.17.42a6.52 6.52 0 0 1-.67 1.94c-1.31 2.45-4.17 5.26-7.76 7.67-2.99 1.98-6 3.36-8.53 3.86l-.47.1-1.96 2.1c-2.04 2.2-2.28 2.44-2.78 2.85-.42.34-.69.47-.98.47-.22 0-.27-.03-.42-.2zm1.22-1.34c.14-.13 1.2-1.24 2.34-2.47s2.1-2.25 2.16-2.27l.65-.14c2.86-.56 6.49-2.33 9.75-4.78a29.73 29.73 0 0 0 4.47-4.14c.63-.74 1.4-1.9 1.4-2.05 0-.1 0-.08-.21.05a15.2 15.2 0 0 1-5.1 1.9c-.22 0-.43-.2-.43-.42 0-.25.17-.44.57-.56a14.19 14.19 0 0 0 4.2-2.2c.96-.8 1.9-2 2.5-3.22.16-.35.55-1.24.85-1.99.53-1.32.75-1.82 1.03-2.3.08-.13.13-.23.1-.24s-.47.04-.99.14c-3.72.67-6.1 1.43-7.6 2.44-1.34.89-2.12 2.01-2.87 4.15-.25.72-.36.86-.65.86-.11 0-.22-.06-.36-.2-.38-.38-.47-1.03-.27-1.88.13-.54.14-.62.03-.56-.04.03-.4.33-.78.67a27.02 27.02 0 0 0-5.67 7.78 42.59 42.59 0 0 0-2.27 5.35c-.25.7-.53 1.36-.59 1.47a89.8 89.8 0 0 0-2.48 4.39c-.11.3-.14.45-.08.45.01 0 .15-.1.3-.23z"/></svg>