<svg xmlns="http://www.w3.org/2000/svg" viewBox="0 0 24 28"><path d="M15.53 18.63c0 1.03-.1 2.06-.26 3.07-.24 1.63-.47 3.3-.86 4.9-.29 1.13-1.35 1.4-2.38 1.4s-2.1-.27-2.37-1.4c-.4-1.6-.63-3.27-.86-4.9a20.33 20.33 0 0 1-.27-3.07c0-2.11 1.7-2.63 3.5-2.63s3.5.52 3.5 2.63zM24 12a12 12 0 0 1-7.56 11.16c-.17.06-.36-.1-.33-.29l.16-1.03.09-.73c.02-.1.06-.16.14-.19a10 10 0 0 0-5.05-18.9A10.08 10.08 0 0 0 2 12.08a10 10 0 0 0 5.56 8.87c.08.04.13.11.14.2l.1.7c.06.37.1.71.17 1.06.03.18-.17.34-.34.26A11.98 11.98 0 0 1 11.23.03 12 12 0 0 1 24 12zm-8.47-.5a3.5 3.5 0 1 1-6.99.01 3.5 3.5 0 0 1 7-.01zm4.5.5a8 8 0 0 1-3.12 6.34c-.16.13-.38.02-.41-.18a3.64 3.64 0 0 0-.45-1.44c-.07-.1-.05-.22.04-.31a5.96 5.96 0 0 0 1.94-4.4 6.03 6.03 0 0 0-6.69-5.98 6.05 6.05 0 0 0-5.28 5.38 5.94 5.94 0 0 0 1.9 5c.1.1.12.22.06.31-.28.48-.41 1-.46 1.45-.03.19-.25.3-.4.17a8.03 8.03 0 0 1-3.13-6.51 8 8 0 0 1 16 .17z"/></svg>