<svg xmlns="http://www.w3.org/2000/svg" viewBox="0 0 27 28"><path d="M15.6 27.86a2.8 2.8 0 0 1-1.21-.4 3.1 3.1 0 0 1-1.2-1.48 5.09 5.09 0 0 1-.24-.6l-.07-.25c-.2-.58-.33-1.4-.4-2.65l-.04-1.32-.02-.36-.03.01a5.03 5.03 0 0 1-2.92.25 9.05 9.05 0 0 1-.44-.1 2.96 2.96 0 0 1-.92-.44 1.96 1.96 0 0 1-.38-.33l-.01-.02-.05.03a2.6 2.6 0 0 1-1.31.58c-.1.02-.14.02-.28.02l-.25-.02a2.77 2.77 0 0 1-1.47-.69 5.65 5.65 0 0 1-.44-.43c-.67-.77-1.3-1.94-1.9-3.57a39.18 39.18 0 0 1-2-8.12 12.22 12.22 0 0 1 0-1.32c.07-1.86.57-3.3 1.52-4.37l.33-.34A4.94 4.94 0 0 1 3.34.98 6.79 6.79 0 0 1 5.67.45l.6-.01.5.01c1.2.06 2.5.31 3.8.75l.07.02.05-.02c.25-.14.53-.3.8-.4a6.66 6.66 0 0 1 2.13-.43 13.9 13.9 0 0 1 2.47.16l.05.02.05-.02c.25-.08.56-.16.85-.22 1.1-.22 2.2-.3 3.24-.22A8.45 8.45 0 0 1 25 1.94c.17.14.3.28.48.45a6.97 6.97 0 0 1 .97 1.22c.05.08.05.1.08.18.26.68.36 1.57.28 2.68-.1 1.14-.36 2.48-.8 3.9-.03.1-.05.1-.1.3a23.63 23.63 0 0 1-.85 2.27 29.2 29.2 0 0 1-1.55 3.04l-.05.07.43-.04a8.94 8.94 0 0 0 .92-.14c.2-.04.3-.04.42-.06.48-.05.9.03 1.2.27a.95.95 0 0 1 .24.2c.17.2.26.47.3.75 0 .06.01.22 0 .28a1.67 1.67 0 0 1-.13.45c-.17.38-.5.75-1 1.11a6.14 6.14 0 0 1-.9.55 3.64 3.64 0 0 1-.62.27 7.68 7.68 0 0 1-2.07.37c-.25.02-.55 0-.72-.01h-.16l-.03.18-.02.25-.01.42a12.1 12.1 0 0 1-.77 4.22l-.12.28a4.33 4.33 0 0 1-.68.99c-.06.06-.21.23-.28.28a3.62 3.62 0 0 1-.86.58c-.35.18-.76.33-1.3.45-.37.1-.62.13-.87.16l-.42.01-.4-.01zm.7-.7c.26-.02.51-.05.82-.11 1.1-.25 1.8-.63 2.29-1.24.3-.36.51-.8.65-1.4.08-.3.13-.58.22-1.24.14-.95.36-2.7.5-3.9l.02-.16s.01.02.04.02c.22.06.5.1.83.12l.56-.01a6.63 6.63 0 0 0 1.99-.4 5.08 5.08 0 0 0 .81-.42c.3-.18.53-.36.72-.54.14-.13.23-.25.3-.36a.75.75 0 0 0 .14-.4.48.48 0 0 0-.05-.21.58.58 0 0 0-.53-.36h-.3l-.34.05-.56.1a8.1 8.1 0 0 1-1.18.08 2.27 2.27 0 0 1-.93-.17c-.04-.01-.1-.06-.1-.06l.05-.08a25.7 25.7 0 0 0 2.9-6.1 17.1 17.1 0 0 0 .9-5.07 3.07 3.07 0 0 0-.49-1.66 6.65 6.65 0 0 0-.23-.3 6.44 6.44 0 0 0-.74-.73 6.82 6.82 0 0 0-2.42-1.39 8.84 8.84 0 0 0-2.28-.4c-.16-.02-.23 0-.47 0l-.62.01a11.28 11.28 0 0 0-2.33.4l-.4.12-.09-.02a8.8 8.8 0 0 0-1.57-.22h-.88a5.45 5.45 0 0 0-2.72.88l-.06.03-.08-.02a16.7 16.7 0 0 0-1.84-.53c-1.14-.25-2.2-.34-3.16-.28-1.28.1-2.33.45-3.12 1.12-.57.47-1 1.1-1.3 1.85A7.6 7.6 0 0 0 .76 6.6v.98l.04.5c.1.97.43 2.6.8 4.1a24.6 24.6 0 0 0 2.12 5.8 6.3 6.3 0 0 0 1.23 1.58c.42.33.88.47 1.33.41.27-.05.53-.16.78-.34.11-.08.2-.16.31-.27l.32-.34c.56-.66 1.12-1.33 1.73-2 .17-.2.33-.35.33-.35l.06.03a3.45 3.45 0 0 0 1.28.38l.17.01h.04v.04l-.04.04-.23.28c-.19.24-.25.32-.33.38-.2.17-.51.3-1.28.45-.25.05-.36.08-.51.13a1.4 1.4 0 0 0-.6.32.61.61 0 0 0-.19.38v.15a.76.76 0 0 0 .07.2c.1.21.3.38.6.54.18.1.37.15.57.2a5.42 5.42 0 0 0 1.48.14 3.59 3.59 0 0 0 1.9-.67l.28-.22.01-.01v.53c0 .73.02 1.2.03 1.78l.07 1.33c.06.93.14 1.53.25 1.89l.15.39c.22.48.47.86.78 1.14.43.39.97.6 1.6.65h.39zm-.27-.78c-.81-.04-1.37-.44-1.77-1.3a2.35 2.35 0 0 1-.14-.36c-.09-.3-.18-.97-.23-1.88-.03-.59-.06-1.14-.08-1.98v-1.75c0-.4.03-.78.03-.98l-.01-.27v-.05l-.08-.28a1.65 1.65 0 0 0-.75-.9c-.1-.05-.25-.1-.34-.13s-.2-.03-.29-.03c-.07 0-.12 0-.2.02l-.03.01.03-.17c.05-.17.13-.38.25-.7.17-.46.17-.47.33-.83.1-.22.1-.24.16-.33.15-.36.25-.66.34-.97.28-1.03.31-2.22.08-3.65-.07-.33-.14-.75-.19-.91-.22-.8-.73-1.3-1.48-1.47-.44-.1-.96-.08-1.53.06a6.53 6.53 0 0 0-1.47.58l-.02.02.02-.22c.12-1.28.45-2.45.93-3.38s1.13-1.62 1.91-2.06c.28-.16.58-.28.9-.37.09-.04.12-.04.2-.05a4.96 4.96 0 0 1 1.73-.16 7.34 7.34 0 0 1 5.01 2.2l.43.46a9.26 9.26 0 0 1 1.53 2.47l.1.3h-.07a5.4 5.4 0 0 0-1.24 0c-.46.06-.84.18-1.15.39a2.07 2.07 0 0 0-.83 1.48 3.12 3.12 0 0 0 0 .55c.06.87.45 2 1.16 3.36l.59 1.1c.27.46.28.52.34.65.18.39.35.68.61 1.04l.24.3.2.27-.05.01-.34.14a1.35 1.35 0 0 0-.5.44c-.14.2-.22.45-.25.77-.02.12-.02.23-.02.4v.14l-.01.1c-.08.78-.32 2.78-.49 4.06a26.09 26.09 0 0 1-.2 1.28c-.1.56-.23.99-.44 1.31-.15.25-.36.47-.6.65a3.07 3.07 0 0 1-.5.26 5.2 5.2 0 0 1-.94.28 3.84 3.84 0 0 1-.58.08h-.3zm-5.58-6.8a6.62 6.62 0 0 1-.75-.1l-.25-.06a1.87 1.87 0 0 1-.36-.14l-.1-.06.01-.02c.08-.03.23-.1.38-.12l.23-.05c.55-.11.9-.22 1.14-.33.22-.1.4-.22.56-.37.08-.08.16-.16.28-.33l.46-.55c.1-.1.2-.19.28-.2.04-.02.1-.02.14 0l.19.08a.78.78 0 0 1 .3.32c.09.2.12.4.07.55-.02.05-.03.1-.08.16a2.8 2.8 0 0 1-2.5 1.22zm-4.42-.38a.74.74 0 0 1-.34-.1 2.1 2.1 0 0 1-.64-.54c-.93-1.06-1.86-3.4-2.68-6.57a36.85 36.85 0 0 1-.8-3.97l-.02-.4a10.08 10.08 0 0 1 0-.98c.03-.76.15-1.44.35-2.01.27-.74.65-1.32 1.2-1.75.6-.49 1.41-.79 2.38-.9.28-.03.53-.04.86-.04l.38.01a12.8 12.8 0 0 1 3.33.66l-.05.03c-.13.13-.22.25-.33.38A7.1 7.1 0 0 0 8.5 5.08a11.5 11.5 0 0 0-.64 2.98c-.02.17-.02.32-.03.52v.56c.03.53.03.75.04 1.08v.87c-.01.57-.04.97-.1 1.46l-.05.36v.26c0 .2.03.52.06.72a3.98 3.98 0 0 0 .92 1.95c.1.11.25.24.35.33l.04.06-.07.1a45.68 45.68 0 0 0-1.94 2.19l-.13.15a1.84 1.84 0 0 1-.51.44.76.76 0 0 1-.36.1h-.05zm15.67-.73a2.47 2.47 0 0 1-.68-.11l-.13-.05-.02-.01-.01-.08.01-.27a1.06 1.06 0 0 1 .13-.43c.06-.1.1-.18.22-.22.06-.03.14-.07.3-.11l.14-.05h.03l.01.02c.13.1.32.2.52.26a6.1 6.1 0 0 0 2.9-.06c.04 0 .07-.02.07-.02l-.13.11c-.23.2-.53.38-.87.55l-.35.16c-.28.1-.64.17-1.03.23l-.67.08h-.44zM11.33 16.3c-.32 0-.64-.08-.94-.2a2.93 2.93 0 0 1-1.17-.88 3.26 3.26 0 0 1-.7-1.75c-.02-.1-.02-.14-.02-.26 0-.2 0-.35.03-.6.13-.9.16-1.8.1-2.87 0-.11 0-.28-.02-.52v-.15l.01-.02c.1-.08.28-.2.47-.3a5.46 5.46 0 0 1 1.38-.5l.42-.06.33-.01c.51.03.84.25 1.04.64.08.14.13.26.18.51.15.77.25 1.44.26 2.08v.56l-.04.52c-.07.5-.18.94-.38 1.43l-.28.65c-.1.25-.16.35-.27.65a9.49 9.49 0 0 0-.36 1.08h-.04zm.1-6.75a.8.8 0 0 0 .5-.23c.12-.11.15-.24.12-.35-.07-.18-.35-.3-.74-.35h-.28a.81.81 0 0 0-.25.07l-.1.07v.01h-.02c-.02 0-.02-.01-.04.08l-.01.1c.01.1.1.23.2.34.19.18.4.28.63.26zm10.24 6.17-.06-.07.03-.07a4.54 4.54 0 0 0 .58-1.92 5.86 5.86 0 0 0 0-.75l-.11-1.06-.05-.44a6.46 6.46 0 0 1 .08-2.05l.1-.62c.03-.28.03-.53.03-.78l.01-.16v-.17c-.03-.34-.26-1-.58-1.6a10.9 10.9 0 0 0-2.11-2.78 8.47 8.47 0 0 0-2.15-1.43l-.07-.03.29-.07a9.65 9.65 0 0 1 2.82-.09 6.48 6.48 0 0 1 4.47 2.48c.14.2.24.5.28.9.03.23.03.45.03.73l-.01.47c-.05.8-.22 1.75-.49 2.73a25.2 25.2 0 0 1-2.84 6.58l-.17.28s-.03-.01-.08-.08zm-.58-.82-.12-.25-.05-.13c-.06-.15-.1-.23-.39-.75-.33-.6-.5-.87-.69-1.26a8.6 8.6 0 0 1-.95-2.75 2.77 2.77 0 0 1 0-.52c.03-.27.1-.47.22-.64.22-.31.64-.49 1.25-.53.1-.02.14-.02.28-.02.2 0 .36 0 .6.02l.24.03h.02v.03l-.03.34a8.38 8.38 0 0 1-.1.74c-.09.6-.12.8-.14 1.19v.43l.11 1.2a11.3 11.3 0 0 1 .1 1.59c-.03.46-.13.9-.32 1.3h-.01l-.02-.02zm-.95-5.68a.8.8 0 0 0 .52-.3c.07-.12.12-.23.1-.29s-.04-.1-.12-.14a1.37 1.37 0 0 0-.97.06c-.12.06-.2.13-.22.2v.08a.52.52 0 0 0 .14.2.73.73 0 0 0 .55.2z"/></svg>