<svg xmlns="http://www.w3.org/2000/svg" viewBox="0 0 26 28" id="icon"><path d="M26 17.16c0 1.6-.92 2.95-2.63 2.95-1.9 0-2.4-1.74-4.12-1.74-1.25 0-1.72.79-1.72 1.94 0 1.22.5 2.4.48 3.6v.07c-.17 0-.34 0-.51.02-1.61.16-3.23.47-4.86.47-1.1 0-2.27-.44-2.27-1.72 0-1.72 1.74-2.22 1.74-4.13 0-1.7-1.35-2.62-2.95-2.62C7.5 16 6 16.9 6 18.7c0 1.99 1.52 2.85 1.52 3.93 0 .54-.35 1.03-.72 1.39-.49.45-1.18.54-1.83.54a24.7 24.7 0 0 1-3.83-.37l-.86-.13-.2-.03C.05 24.02 0 24.02 0 24V8c.06.05.98.16 1.14.19 1.27.2 2.55.37 3.83.37.65 0 1.34-.1 1.83-.54.37-.36.72-.85.72-1.4C7.52 5.55 6 4.7 6 2.7 6 .9 7.52 0 9.17 0c1.6 0 2.94.92 2.94 2.63 0 1.9-1.73 2.4-1.73 4.12 0 1.28 1.15 1.72 2.26 1.72 1.8 0 3.58-.4 5.36-.5V8c-.05.06-.15.98-.19 1.14a24.7 24.7 0 0 0-.37 3.83c0 .65.1 1.34.55 1.83.36.37.84.72 1.39.72 1.08 0 1.93-1.52 3.92-1.52 1.8 0 2.7 1.52 2.7 3.16z"/></svg>