<svg xmlns="http://www.w3.org/2000/svg" viewBox="0 0 24 28"><path d="M11.86 1.88c.98 0 2.02.06 3.02.23 1.57.27 2.89 1.44 2.89 3v5.51a2.92 2.92 0 0 1-2.9 2.94H9.1a3.68 3.68 0 0 0-3.62 3.6v2.65H3.49C1.78 19.81.8 18.6.4 16.87c-.56-2.3-.53-3.68 0-5.89a3.62 3.62 0 0 1 3.62-2.93H12V7.3H6.2V5.1c0-1.67.44-2.56 2.9-3a16.71 16.71 0 0 1 2.76-.23zM8.72 3.63c-.6 0-1.08.5-1.08 1.11s.48 1.1 1.08 1.1 1.1-.49 1.1-1.1-.5-1.1-1.1-1.1zm9.76 4.4h2.18c1.68 0 2.48 1.27 2.9 2.95.58 2.32.61 4.07 0 5.89-.58 1.76-1.22 2.93-2.9 2.93h-8.68v.74h5.79v2.2c0 1.67-1.44 2.52-2.9 2.94a9.7 9.7 0 0 1-5.78 0c-1.53-.45-2.89-1.38-2.89-2.94v-5.51c0-1.6 1.31-2.94 2.9-2.94h5.77a3.7 3.7 0 0 0 3.61-3.68V8.05zm-3.25 13.98c-.59 0-1.07.48-1.07 1.09s.48 1.1 1.07 1.1 1.1-.5 1.1-1.1-.5-1.1-1.1-1.1zm6.47-3.74c0 .27-1.1.47-2.43.47s-2.44-.2-2.44-.47c0-.27 1.1-.47 2.44-.47s2.43.2 2.43.47z"/></svg>