<svg xmlns="http://www.w3.org/2000/svg" viewBox="0 0 28 28" id="icon"><path d="M4.22 12.6a2.1 2.1 0 0 1-.13-.82c0-.44.29-1.14.55-1.47-.01-.4.16-1.23.47-1.5 0-2.89 2.23-6.53 4.84-7.78a11.63 11.63 0 0 1 9.22-.17c3.67 1.55 4.5 4.42 5.28 8.1l.02.07c.45.69.86 1.5.86 2.35 0 .42-.28.84-.28 1.21 0 .04.1.16.1.2 1.35 1.98 2.57 4.13 2.57 6.6 0 .55-.3 2.45-1.17 2.45-.61 0-1.28-1.48-1.5-1.89l-.05-.01-.08.06a9.05 9.05 0 0 1-2.06 3.48c.89.86 2.33.78 2.6 2.27-.09.17-.05.36-.18.53-.89 1.34-3.28 1.52-4.72 1.52-1.9 0-3.45-.5-5.25-1.03-.37-.11-.94-.05-1.34-.1C13 27.72 10.69 28 9.34 28c-1.18 0-5.78-.08-5.78-2.1 0-.88.19-1.13.8-1.7.48-.09.84-.36 1.4-.39.08 0 .15-.01.22-.03.02-.01.03-.01.03-.06l-.03-.05c-1.07-.25-2.59-2.97-2.82-4.1l-.08-.04c-.11 0-.16.23-.19.31-.34.8-1.15 1.66-2.06 1.75H.8c-.12 0-.08-.12-.17-.15a3.81 3.81 0 0 1-.36-1.57c0-3.12 1.5-5.43 3.94-7.28z"/></svg>