<svg xmlns="http://www.w3.org/2000/svg" viewBox="0 0 24 28"><path d="M13.75 18.75v2.5a.5.5 0 0 1-.5.5h-2.5a.5.5 0 0 1-.5-.5v-2.5c0-.28.22-.5.5-.5h2.5c.28 0 .5.22.5.5zm4-7.75c0 2.22-1.55 3.1-2.69 3.73-.81.47-1.31.77-1.31 1.27v.5a.5.5 0 0 1-.5.5h-2.5a.5.5 0 0 1-.5-.5v-1.06c0-1.92 1.37-2.53 2.48-3.03.94-.44 1.52-.74 1.52-1.44 0-.9-1.14-1.58-2.17-1.58-.55 0-1.13.17-1.49.42-.34.24-.67.58-1.25 1.3a.47.47 0 0 1-.39.19.48.48 0 0 1-.3-.1L6.97 9.92a.5.5 0 0 1-.11-.67 6.06 6.06 0 0 1 5.45-3c2.56 0 5.44 2.03 5.44 4.75zM12 4a10 10 0 1 0 .02 20.02A10 10 0 0 0 12 4zm12 10a12 12 0 1 1-24 0 12 12 0 0 1 24 0z"/></svg>