<svg xmlns="http://www.w3.org/2000/svg" viewBox="0 0 24 28" id="icon"><path d="M14 21.5v-3a.5.5 0 0 0-.5-.5h-3a.5.5 0 0 0-.5.5v3c0 .28.22.5.5.5h3a.5.5 0 0 0 .5-.5zM18 11c0-2.86-3-5-5.69-5a6.35 6.35 0 0 0-5.8 3.33.49.49 0 0 0 .13.65l2.06 1.57a.48.48 0 0 0 .3.1.5.5 0 0 0 .4-.2 6.78 6.78 0 0 1 1.34-1.43 2.5 2.5 0 0 1 1.34-.38c1 0 1.92.64 1.92 1.33 0 .81-.42 1.22-1.37 1.66-1.11.5-2.63 1.8-2.63 3.3v.57c0 .28.22.5.5.5h3a.5.5 0 0 0 .5-.5c0-.36.45-1.12 1.19-1.55C16.38 14.28 18 13.38 18 11zm6 3a12 12 0 1 1-24 0 12 12 0 0 1 24 0z"/></svg>