<svg xmlns="http://www.w3.org/2000/svg" viewBox="0 0 17 28" id="icon"><path d="M11 19.63v3.75a.63.63 0 0 1-.63.62H6.63a.63.63 0 0 1-.63-.63v-3.75c0-.34.28-.62.63-.62h3.75c.34 0 .62.28.62.63zm4.94-9.38c0 2.97-2.02 4.1-3.5 4.94-.92.53-1.5 1.6-1.5 2.06 0 .34-.27.75-.63.75H6.56c-.34 0-.56-.53-.56-.88v-.7c0-1.89 1.88-3.51 3.25-4.14 1.2-.55 1.7-1.06 1.7-2.06 0-.88-1.14-1.66-2.4-1.66-.7 0-1.35.22-1.69.45-.38.27-.75.65-1.67 1.8a.65.65 0 0 1-.49.25.72.72 0 0 1-.39-.12L1.75 8.98a.61.61 0 0 1-.16-.82A7.93 7.93 0 0 1 8.86 4c3.34 0 7.09 2.67 7.09 6.25z"/></svg>