<svg xmlns="http://www.w3.org/2000/svg" viewBox="0 0 28 28"><path d="M19.6 12.3c0-6.52-2.02-9.86-6.79-9.86-4.69 0-6.72 3.34-6.72 9.86 0 6.48 2.03 9.8 6.72 9.8.75 0 1.42-.08 2.05-.27-.97-1.9-2.11-3.83-4.33-3.83-.42 0-.84.06-1.23.25l-.77-1.52c.92-.8 2.4-1.42 4.31-1.42 2.99 0 4.5 1.44 5.72 3.27.7-1.56 1.05-3.67 1.05-6.28zm6.1 9.87h1.83c.11 1.13-.45 5.83-5.56 5.83-3.1 0-4.72-1.8-5.95-3.9a12.1 12.1 0 0 1-3.2.43C6.55 24.53.44 19.55.44 12.3.45 4.98 6.58 0 12.81 0c6.36 0 12.4 4.95 12.4 12.3 0 4.1-1.9 7.42-4.66 9.56.89 1.34 1.8 2.23 3.09 2.23 1.4 0 1.97-1.07 2.06-1.92z"/></svg>