<svg xmlns="http://www.w3.org/2000/svg" viewBox="0 0 28 28" id="icon"><path d="M.3 13.66c.15-4.47 2.43-8.6 6.58-11.32.01 0 .1-.03.06.05-.33.31-6.28 7.33-.8 12.78 2.81 2.8 5.08.14 5.08.14 2.17-2.82-.03-7.1-.03-7.1C10.63 6.8 8.6 5.93 8.6 5.93l1.63-1.8a6.83 6.83 0 0 1 2.43 2.19c.05-1.67-1.23-3.47-1.23-3.47L13.96 0l2.5 2.83c-1.16 1.62-1.24 3.53-1.24 3.53.78-1.3 2.45-2.22 2.45-2.22l1.61 1.8c-1.54.5-2.56 2.25-2.56 2.25-.89 1.6-1.53 5.04.03 7.18 1.83 2.52 4.95-.15 4.95-.15 5.8-5.19-.59-12.7-.59-12.7-.34-.32.05-.16.05-.16 2.83 2.06 6.47 4.77 6.56 11.56C27.83 22.14 22.08 28 14.03 28A13.81 13.81 0 0 1 .3 13.66z"/></svg>