<svg xmlns="http://www.w3.org/2000/svg" viewBox="0 0 28 28"><path d="M10.4 7.52a27.22 27.22 0 0 0-2.13 4.26C7.36 9.9 6.36 8 4 8H.5a.5.5 0 0 1-.5-.5v-3c0-.28.22-.5.5-.5H4c2.78 0 4.83 1.3 6.4 3.52zM28 20a.52.52 0 0 1-.14.36l-5 5a.52.52 0 0 1-.36.14.51.51 0 0 1-.5-.5v-3c-4.64 0-7.5.55-10.4-3.52a28.6 28.6 0 0 0 2.13-4.26C14.64 16.1 15.64 18 18 18h4v-3c0-.28.22-.5.5-.5.14 0 .27.06.38.16l4.98 4.98A.52.52 0 0 1 28 20zm0-14a.52.52 0 0 1-.14.36l-5 5a.52.52 0 0 1-.36.14.5.5 0 0 1-.5-.5V8h-4c-2.08 0-3.06 1.42-3.94 3.1a42.6 42.6 0 0 0-1.22 2.68C11.11 17.81 9.08 22 4 22H.5a.5.5 0 0 1-.5-.5v-3c0-.28.22-.5.5-.5H4c2.08 0 3.06-1.42 3.94-3.1.45-.88.84-1.79 1.22-2.68C10.89 8.19 12.92 4 18 4h4V1c0-.28.22-.5.5-.5.14 0 .27.06.38.16l4.98 4.98A.52.52 0 0 1 28 6z"/></svg>