<svg xmlns="http://www.w3.org/2000/svg" viewBox="0 0 34 28" id="icon"><path d="M17.86 27.08a.75.75 0 0 1-.17-.06s-5.14-3.02-6.88-7.9c-.58-.09-1.8-.37-2.73-.57a12.3 12.3 0 0 0 9.78 8.53zM7.84 17.6l2.63.44c-.9-2.68-1-5.72-1-5.72a7.54 7.54 0 0 0-1.9 3.5c.06.6.13 1.2.27 1.78zm1.72-9.52c-.48.72-.87 1.5-1.2 2.32.52-.55.94-.91 1.16-1.07-.04-.46.04-1.25.04-1.25zm22.46 6.79c0-6.82-5.5-12.35-12.25-12.35-3.13 0-5.97 1.19-8.14 3.14a8.13 8.13 0 0 0-.7 2.5c3.32-2.83 9.26-2.12 9.26-2.12 1.48.06 1.31 1.37 1.3 1.78-5.41-.45-8.07 1.1-10.7 3.33 0 0 .52 5 1.71 7.03 6.85.31 12.05-3.4 12.05-3.4.65-.48 1.23-.52 1.36.29.1.65.14 1.55-.61 1.89a26.27 26.27 0 0 1-7.3 2.1 25.4 25.4 0 0 1-4.95.24c2.31 5.38 8.1 6.85 8.1 6.85 1.8.3 3.18.06 4.1-.24a12.4 12.4 0 0 0 6.77-11.04zm1.15-.58c-.1 1.06-.28 2.3-.62 3.31-1.4 4.17-3.36 6.9-7.81 9.38a5.13 5.13 0 0 1-3.83.93 13 13 0 0 1-13.64-9.56l-.14-.02c-.36 2.82 1.71 6.61 1.71 6.61l.85 1.29c-3.99-2.11-4.1-8.33-4.1-8.33-.95-.36-4.26-1.49-4.84-2.4 0 0 2.6 1.41 4.83 1.7a10.26 10.26 0 0 1 1.5-5.03 13.04 13.04 0 0 1 2.75-5.71c.23-.97.6-2.12 1.26-3.34.29-.53.55-.88 1.27-1.2C17.11-.3 21.8-.87 26.61 1.63c4.6 2.4 7.1 7.44 6.56 12.66z"/></svg>