<svg xmlns="http://www.w3.org/2000/svg" viewBox="0 0 27 28" id="icon"><path d="M22.4 9.78c2.93 1 5.02 2.58 5.02 4.2 0 1.7-2.23 3.36-5.33 4.38l-.5.16.16.71c.6 3.08.16 5.63-1.3 6.46-1.39.8-3.67.01-5.97-1.96-.25-.21-.48-.43-.72-.67-.18.19-.37.35-.56.52-2.37 2.08-4.8 2.92-6.25 2.1-1.4-.82-1.84-3.18-1.28-6.15.06-.33.14-.62.22-.95-.25-.06-.5-.16-.73-.24C2.19 17.33 0 15.66 0 13.98c0-1.62 2.05-3.2 4.9-4.18l1-.32a17.85 17.85 0 0 1-.2-.89c-.59-3.01-.17-5.43 1.24-6.25 1.47-.86 3.9.05 6.34 2.22l.46.42c.21-.2.43-.42.67-.62 2.32-2.03 4.62-2.88 6.03-2.06 1.47.84 1.89 3.42 1.23 6.6l-.14.6.88.28zm-7.24-4.55c-.22.2-.43.36-.63.57a26.77 26.77 0 0 1 2.28 2.84 28.47 28.47 0 0 1 3.61.58c.05-.17.08-.36.11-.55.56-2.77.23-4.86-.67-5.37-.85-.49-2.7.2-4.7 1.93zM8.19 15.36a24.7 24.7 0 0 0-.88 2.39 30 30 0 0 0 2.49.4 25.36 25.36 0 0 1-.85-1.4c-.26-.45-.51-.92-.76-1.4zm0-2.7a34.18 34.18 0 0 1 1.6-2.77c-.87.11-1.7.25-2.46.42.23.75.52 1.55.86 2.35zm.6 1.34a36.19 36.19 0 0 0 2.47 4.27 40.99 40.99 0 0 0 4.93-.02c.45-.69.89-1.36 1.3-2.08a41.64 41.64 0 0 0 1.15-2.19 36.21 36.21 0 0 0-1.17-2.17c-.34-.58-.92-1.5-1.3-2.06a31.33 31.33 0 0 0-4.92 0A35.55 35.55 0 0 0 8.8 14zm9.68 2.75c-.27.45-.53.92-.83 1.38a22.86 22.86 0 0 0 2.52-.44 25.57 25.57 0 0 0-.9-2.38c-.24.49-.52.97-.8 1.44zm.78-4.1c.33-.76.6-1.53.86-2.32a26.75 26.75 0 0 0-2.45-.44 60.82 60.82 0 0 1 1.59 2.76zm-5.53-6.03a29.92 29.92 0 0 0-1.6 1.93c.44-.02 1.16-.05 1.6-.05s1.16.03 1.6.05a23.45 23.45 0 0 0-1.6-1.93zm-6.2-3.28c-.85.49-1.2 2.44-.7 5.04l.2.82a28.27 28.27 0 0 1 3.6-.56c.7-1 1.47-1.95 2.3-2.84l-.4-.38c-2.11-1.86-4.1-2.6-5-2.08zM6.2 17.45A30.76 30.76 0 0 1 7.53 14a27.37 27.37 0 0 1-1.31-3.4c-.31.09-.63.18-.94.3-2.44.85-4.13 2.1-4.13 3.08a2.4 2.4 0 0 0 1 1.6 10.9 10.9 0 0 0 3.38 1.67c.22.08.45.14.67.2zm6.24 5.25.51-.47a28.86 28.86 0 0 1-2.3-2.86A28.44 28.44 0 0 1 7 18.84c-.08.3-.13.6-.19.9-.48 2.54-.14 4.43.72 4.93a2.41 2.41 0 0 0 1.9-.08 9.82 9.82 0 0 0 3-1.89zm1.31-1.3a24.3 24.3 0 0 0 1.6-1.95c-.54.03-1.08.05-1.63.05-.53 0-1.06-.02-1.58-.03a25.6 25.6 0 0 0 1.61 1.94zm7 1.62a9.65 9.65 0 0 0-.13-3.55 7.99 7.99 0 0 0-.14-.66c-1 .22-2.64.49-3.65.57a28.6 28.6 0 0 1-2.27 2.87l.69.6c1.95 1.7 3.77 2.34 4.63 1.84a2.33 2.33 0 0 0 .87-1.68zm.98-5.77c2.68-.9 4.55-2.23 4.55-3.28 0-.97-1.75-2.25-4.25-3.11l-.81-.25a25.93 25.93 0 0 1-1.31 3.38c.53 1.1 1 2.23 1.37 3.4l.45-.14zm-8.01-5.7a2.45 2.45 0 1 1 0 4.9 2.45 2.45 0 1 1 0-4.9z"/></svg>