<svg xmlns="http://www.w3.org/2000/svg" viewBox="0 0 28 28"><path d="m13.06 18.27-.23 5.75-.03.34-6.57-.45c-.8-.07-1.48-.83-1.78-1.52-.62-1.45.19-3.17.66-4.56 0 0 1.2.19 7.95.44zM7.02 9.1l2.8 5.92-2.29-1.44c-3.52 4.02-3.84 7-3.84 7L.72 15.02c-.61-.91-.07-1.9-.07-1.9s.55-.98 1.79-2.93L.24 8.84zm19.23 8.08-2.94 5.6c-.4 1.02-1.53 1.12-1.53 1.12s-1.1.1-3.42.18l.12 2.56-3.59-5.73 3.3-5.66.1 2.7c5.3.65 7.96-.77 7.96-.77zM13.98 2.75s-.73.97-4.14 6.8L4.9 6.62l-.3-.18L8.11.87C8.55.2 9.53-.06 10.3.03c1.56.14 2.69 1.65 3.68 2.73zm10.24 4.8 3.31 5.67c.42.7.17 1.69-.23 2.34-.85 1.32-2.72 1.63-4.13 2.02 0 0-.53-1.11-4.14-6.81l4.9-3.05zm-2.24-3.53 2.22-1.3-3.43 5.83-6.55-.32 2.36-1.34C14.7 1.91 12.22.19 12.22.19l6.33.01c1.1-.1 1.68.85 1.68.85s.61.95 1.75 2.97z"/></svg>