<svg xmlns="http://www.w3.org/2000/svg" viewBox="0 0 28 28" id="icon"><path d="M17.1 18.23c.15.15.15.36 0 .49-.88.89-2.6.97-3.1.97s-2.22-.08-3.1-.97c-.15-.13-.15-.35 0-.49a.34.34 0 0 1 .46 0c.56.58 1.78.77 2.64.77s2.06-.19 2.64-.77a.34.34 0 0 1 .47 0zm-4.79-2.82a1.4 1.4 0 0 1-1.39 1.39 1.4 1.4 0 0 1-1.4-1.4 1.4 1.4 0 1 1 2.8 0zm6.17 0a1.4 1.4 0 0 1-1.4 1.39 1.4 1.4 0 0 1 0-2.8 1.4 1.4 0 0 1 1.4 1.4zm3.93-1.88a1.87 1.87 0 0 0-1.88-1.86c-.53 0-1 .22-1.34.56a9.14 9.14 0 0 0-4.86-1.5l.98-4.42 3.13.7c0 .77.62 1.4 1.39 1.4a1.4 1.4 0 0 0 0-2.81 1.42 1.42 0 0 0-1.25.78l-3.45-.77c-.18-.05-.35.08-.4.25l-1.07 4.87a9.2 9.2 0 0 0-4.83 1.52 1.88 1.88 0 0 0-1.36-.58 1.87 1.87 0 0 0-1.88 1.86c0 .75.44 1.38 1.07 1.69a4.02 4.02 0 0 0-.1.87c0 2.97 3.35 5.38 7.46 5.38 4.12 0 7.46-2.4 7.46-5.38 0-.3-.03-.6-.1-.89a1.88 1.88 0 0 0 1.03-1.67zM28 14a14 14 0 1 1-28 0 14 14 0 0 1 28 0z"/></svg>