<svg xmlns="http://www.w3.org/2000/svg" viewBox="0 0 24 28" id="icon"><path d="M14.67 17.64a.3.3 0 0 1 0 .4c-.76.77-2.23.83-2.67.83s-1.9-.06-2.67-.82a.3.3 0 0 1 0-.4.27.27 0 0 1 .4 0c.49.47 1.53.65 2.27.65s1.78-.18 2.27-.66a.27.27 0 0 1 .4 0zm-4.1-2.44a1.2 1.2 0 0 1-2.41 0 1.2 1.2 0 0 1 2.4 0zm5.27 0c0 .66-.54 1.2-1.2 1.2s-1.2-.54-1.2-1.2a1.2 1.2 0 0 1 2.4 0zm3.36-1.6c0-.88-.72-1.6-1.6-1.6a1.62 1.62 0 0 0-1.15.48 7.85 7.85 0 0 0-4.17-1.28l.85-3.8 2.67.61c.01.66.54 1.2 1.2 1.2s1.2-.55 1.2-1.21-.54-1.2-1.2-1.2a1.2 1.2 0 0 0-1.08.67l-2.95-.66a.27.27 0 0 0-.33.2l-.94 4.2c-1.6.06-3.06.54-4.14 1.3A1.6 1.6 0 0 0 4.8 13.6c0 .64.37 1.18.9 1.45-.04.23-.07.5-.07.75 0 2.54 2.85 4.6 6.39 4.6s6.4-2.06 6.4-4.6a3.09 3.09 0 0 0-.1-.77c.52-.26.88-.81.88-1.43zM24 6.5v15a4.5 4.5 0 0 1-4.5 4.5h-15A4.5 4.5 0 0 1 0 21.5v-15A4.5 4.5 0 0 1 4.5 2h15A4.5 4.5 0 0 1 24 6.5z"/></svg>