<svg xmlns="http://www.w3.org/2000/svg" viewBox="0 0 28 28" id="icon"><path d="M28 13.22A3.1 3.1 0 0 1 26.3 16c.12.48.18.98.18 1.5 0 4.94-5.57 8.94-12.45 8.94-6.86 0-12.44-4-12.44-8.94 0-.5.07-1 .18-1.47A3.13 3.13 0 0 1 0 13.22a3.1 3.1 0 0 1 5.38-2.13 15.07 15.07 0 0 1 8.04-2.53L15.23.42a.55.55 0 0 1 .65-.4l5.76 1.26a2.34 2.34 0 0 1 4.42 1.05 2.34 2.34 0 0 1-2.34 2.34 2.33 2.33 0 0 1-2.33-2.32l-5.22-1.16-1.62 7.37c3.14.1 5.98 1.03 8.1 2.5a3.06 3.06 0 0 1 2.24-.95A3.1 3.1 0 0 1 28 13.22zm-21.47 3.1a2.34 2.34 0 0 0 2.33 2.35 2.34 2.34 0 0 0 2.34-2.34A2.34 2.34 0 0 0 8.86 14a2.33 2.33 0 0 0-2.33 2.33zm12.66 5.55a.56.56 0 0 0 0-.8.57.57 0 0 0-.8 0c-.94.95-2.95 1.27-4.4 1.27s-3.44-.32-4.38-1.28a.57.57 0 0 0-.8 0 .56.56 0 0 0 0 .82c1.48 1.48 4.34 1.59 5.19 1.59s3.7-.11 5.18-1.6zm-.05-3.2a2.34 2.34 0 0 0 2.33-2.34A2.33 2.33 0 0 0 19.14 14a2.34 2.34 0 0 0-2.34 2.33 2.34 2.34 0 0 0 2.34 2.34z"/></svg>