<svg xmlns="http://www.w3.org/2000/svg" viewBox="0 0 24 28"><path d="M23.6 16.5v.1c-1.34 5.54-5.9 9.4-11.66 9.4-3.05 0-6-1.2-8.22-3.31L1.7 24.7a1 1 0 0 1-.7.3 1 1 0 0 1-1-1v-7a1 1 0 0 1 1-1h7a1 1 0 0 1 1 1 .99.99 0 0 1-.3.7l-2.14 2.14A7.99 7.99 0 0 0 12 22a7.98 7.98 0 0 0 6.81-3.81c.38-.61.56-1.2.83-1.83.08-.22.23-.36.47-.36h3c.28 0 .5.23.5.5zM24 4v7a1 1 0 0 1-1 1h-7a1 1 0 0 1-1-1 .99.99 0 0 1 .3-.7l2.15-2.16A8.04 8.04 0 0 0 12 6a7.98 7.98 0 0 0-6.81 3.81c-.38.61-.57 1.2-.83 1.83-.08.22-.24.36-.47.36H.79a.5.5 0 0 1-.5-.5v-.1C1.61 5.83 6.22 2 12 2c3.06 0 6.05 1.22 8.27 3.31L22.3 3.3A1 1 0 0 1 23 3a1 1 0 0 1 1 1z"/></svg>