<svg xmlns="http://www.w3.org/2000/svg" viewBox="0 0 28 28"><path d="M16.28 10.98c0-.9-.31-1.54-.94-1.89-.31-.17-.75-.28-1.83-.28H11.6v4.4h2.53c1.38 0 2.16-.82 2.16-2.23zm.81 4.46 3.2 5.83a.49.49 0 0 1 0 .48.47.47 0 0 1-.43.25h-2.38a.47.47 0 0 1-.43-.27L14 16.03h-2.4v5.47a.5.5 0 0 1-.5.5H9a.5.5 0 0 1-.5-.5v-15c0-.28.23-.5.5-.5h4.6c1.64 0 2.36.14 2.97.37 1.77.66 2.86 2.4 2.86 4.52 0 1.92-.95 3.55-2.47 4.3.05.08.1.15.14.25zM14 2.5a11.5 11.5 0 0 0 0 23 11.5 11.5 0 0 0 0-23zM28 14a14 14 0 1 1-28 0 14 14 0 0 1 28 0z"/></svg>