<svg xmlns="http://www.w3.org/2000/svg" viewBox="0 0 26 28" id="icon"><path d="M16.5 27.95c-2.02-.22-3.19-1.07-5.1-3.75a72.36 72.36 0 0 1-3.12-4.9l-.5-.88H5.36v3.24c0 2 .05 3.42.12 3.68.2.72.55.97 1.43 1.11 1.64.25 1.46.17 1.46.74v.51H0v-.51c0-.29.02-.52.05-.52.33 0 1.72-.36 1.92-.48.14-.1.36-.4.47-.68.18-.47.18-1.03.18-8.22 0-6.1-.03-7.8-.14-8.12-.2-.56-.64-.9-1.37-1.05C-.1 7.9 0 7.95 0 7.36v-.53h4.98c5.28 0 5.74.03 7.03.53a5.1 5.1 0 0 1 3 3.1c.32 1 .33 2.5.02 3.47-.3.94-1.15 2.2-1.92 2.83a6.88 6.88 0 0 1-2.3 1.22c-.15 0-.12.11.2.67a43.5 43.5 0 0 0 4.94 6.65 5.46 5.46 0 0 0 2.35 1.39l.57.12v.47c0 .4-.03.48-.23.56-.4.14-1.36.19-2.14.11zM8.81 16.7a5.06 5.06 0 0 0 2.35-1.18c1.43-1.44 1.6-4.27.31-5.72-.95-1.1-1.8-1.36-4.31-1.36h-1.8v8.25l.25.04c.48.1 2.64.08 3.2-.03zm11.9-5.15c-1.65-.35-2.73-1.53-3-3.32a27.6 27.6 0 0 1 0-4.82A3.85 3.85 0 0 1 20 .3a5.08 5.08 0 0 1 3.75.12c.75.38 1.77 1.53 1.77 2 0 .11-1.47.72-1.53.64l-.38-.53c-.43-.65-1.04-.95-1.92-.95-.89 0-1.51.4-1.93 1.26-.3.6-.3.66-.33 2.72-.03 1.7 0 2.25.14 2.72.33 1.16 1.17 1.74 2.4 1.64 1.25-.09 2.05-1.03 2.05-2.47v-.62H21.9v-1.5h3.97v1.16c0 2.18-.34 3.28-1.3 4.14-.3.26-.8.6-1.14.72-.69.26-2.01.35-2.72.2z"/></svg>