<svg xmlns="http://www.w3.org/2000/svg" viewBox="0 0 30 28" id="icon"><path d="M20 23.5a.5.5 0 0 1-.5.5h-15c-.58 0-.5-.6-.5-1v-9H1a1 1 0 0 1-1-1c0-.23.08-.47.23-.64l5-6C5.43 6.14 5.7 6 6 6s.58.13.77.35l5 6A.95.95 0 0 1 12 13a1 1 0 0 1-1 1H8v6h9c.14 0 .3.06.4.17l2.5 3a.63.63 0 0 1 .1.33zM30 17a.96.96 0 0 1-.23.64l-5 6c-.2.22-.47.36-.77.36s-.58-.14-.77-.36l-5-6A.95.95 0 0 1 18 17a1 1 0 0 1 1-1h3v-6h-9a.5.5 0 0 1-.4-.19l-2.5-3a.54.54 0 0 1-.1-.31c0-.27.23-.5.5-.5h15c.58 0 .5.6.5 1v9h3a1 1 0 0 1 1 1z"/></svg>