<svg xmlns="http://www.w3.org/2000/svg" viewBox="0 0 26 28" id="icon"><path d="M22.5 7a1.5 1.5 0 1 0-3 0 1.5 1.5 0 0 0 3 0zM26 2.5c0 5.19-1.44 8.64-5.14 12.36a54.73 54.73 0 0 1-3.05 2.75l-.31 5.92a.57.57 0 0 1-.25.4l-6 3.5a.46.46 0 0 1-.25.07.55.55 0 0 1-.36-.14l-1-1a.54.54 0 0 1-.12-.5l1.32-4.31-4.39-4.4-4.31 1.33c-.05.02-.1.02-.14.02a.52.52 0 0 1-.36-.14l-1-1a.52.52 0 0 1-.08-.61l3.5-6a.57.57 0 0 1 .4-.25l5.93-.31a55.5 55.5 0 0 1 2.75-3.05C17.04 3.24 20.04 2 25.47 2c.28 0 .53.22.53.5z"/></svg>