<svg xmlns="http://www.w3.org/2000/svg" viewBox="0 0 24 28" id="icon"><path d="M8 20a2 2 0 1 0-4 0 2 2 0 0 0 4 0zm5.48 1.47a9.47 9.47 0 0 0-8.95-8.95c-.14-.02-.28.04-.37.14s-.16.22-.16.36v2c0 .26.2.48.47.5a6.53 6.53 0 0 1 6.02 6.01.5.5 0 0 0 .5.47h2c.14 0 .26-.06.35-.15s.16-.24.14-.38zm6 .01A15.52 15.52 0 0 0 4.52 6.52a.38.38 0 0 0-.36.14.5.5 0 0 0-.16.36v2c0 .26.22.48.48.5a12.52 12.52 0 0 1 12 12 .51.51 0 0 0 .5.48h2a.5.5 0 0 0 .36-.16.4.4 0 0 0 .14-.36zM24 6.5v15a4.5 4.5 0 0 1-4.5 4.5h-15A4.5 4.5 0 0 1 0 21.5v-15A4.5 4.5 0 0 1 4.5 2h15A4.5 4.5 0 0 1 24 6.5z"/></svg>