<svg xmlns="http://www.w3.org/2000/svg" viewBox="0 0 28 28"><path d="M14.83 13.95c0 .52-.36 1-.9 1-.52 0-1-.37-1-.9 0-.52.37-1 .91-1 .5 0 .99.36.99.9zm.23.9 5.47-9.07c-.73.69-7.58 6.99-7.77 7.31l-5.45 9.07c.72-.67 7.58-7 7.75-7.3zM25.17 14c0 2.05-.56 4.06-1.62 5.8-.16-.08-.82-.55-.94-.55a.2.2 0 0 0-.2.2c0 .2.73.58.92.7a11.23 11.23 0 0 1-6.66 4.7l-.25-1.05c-.01-.14-.1-.16-.23-.16-.11 0-.17.16-.16.23l.25 1.07a11.21 11.21 0 0 1-8.1-1.41c.1-.16.7-1.02.7-1.14a.2.2 0 0 0-.2-.2c-.22 0-.7.93-.83 1.12a11.24 11.24 0 0 1-4.72-6.75l1.08-.23c.12-.03.15-.13.15-.24s-.15-.17-.25-.15l-1.06.23a11.16 11.16 0 0 1 1.48-8.1c.16.1.9.62 1.03.62a.2.2 0 0 0 .2-.2c0-.21-.82-.63-1-.76 1.59-2.33 4-4 6.76-4.62l.23 1.04c.03.13.13.16.24.16s.17-.16.15-.25l-.23-1.03a11.74 11.74 0 0 1 2.1-.2 11.2 11.2 0 0 1 5.91 1.7c-.1.16-.6.9-.6 1.02 0 .1.07.2.18.2.22 0 .64-.81.75-1a11.16 11.16 0 0 1 4.61 6.67l-.88.19c-.14.03-.15.12-.15.25 0 .1.16.17.23.15l.9-.2c.13.72.21 1.45.21 2.19zm1.33 0a12.5 12.5 0 1 0-25 0 12.5 12.5 0 0 0 25 0zm1.5 0a14 14 0 1 1-28 0 14 14 0 0 1 28 0z"/></svg>