<svg xmlns="http://www.w3.org/2000/svg" viewBox="0 0 36 28" id="icon"><path d="M25.45 20.9c-.1-.07-.1-.35.28-1.17.14-.32.49-.86 1.07-1.37.06.22.1.42.1.6 0 1.27-.9 1.74-1.45 1.94zm-4.8 1.1c-.17.08-.3.13-.37.1-.05-.04.06-.15.06-.15s.79-.84 1.1-1.22c.17-.21.39-.48.6-.78v.08c0 1-.96 1.7-1.4 1.97zm-6.24-2.98c-.36.87-1.13 3.14-1.58 3.01-.4-.1-.64-1.81-.08-3.5.28-.84.88-1.87 1.23-2.26.57-.65 1.18-.83 1.33-.58.19.33-.69 2.78-.9 3.33zm-7.57 5.14c-1.03 1.12-2.48 1.56-3.1 1.2-.68-.4-.4-2.06.87-3.27.78-.73 1.77-1.39 2.44-1.81l.64-.4.08-.04.15-.1a4.47 4.47 0 0 1-1.08 4.41zm24.14-8.14a7.25 7.25 0 0 0-3.26.76c-.33-.67-.67-1.25-.74-1.69-.06-.51-.14-.8-.06-1.42s.44-1.47.44-1.53-.1-.37-.81-.37-1.35.14-1.43.32-.2.61-.3 1.07c-.12.65-1.45 3-2.2 4.23-.25-.48-.43-.9-.48-1.23-.06-.52-.16-.82-.08-1.43s.44-1.46.44-1.53-.1-.37-.81-.37-1.35.14-1.42.33-.14.64-.3 1.07-1.9 4.35-2.36 5.36a37.77 37.77 0 0 1-.58 1.22h-.01l-.02.05-.2.37v.02c-.1.17-.2.33-.25.33-.03 0-.11-.47.01-1.11.27-1.36.9-3.47.9-3.55 0-.03.1-.42-.43-.6-.51-.2-.69.12-.73.12s-.08.1-.08.1.56-2.37-1.1-2.37c-1.02 0-2.46 1.13-3.17 2.16l-2.42 1.33-1.17.64-.08-.08c-2.01-2.14-5.72-3.67-5.56-6.56.06-1.05.42-3.82 7.14-7.16 5.5-2.75 9.92-1.98 10.69-.31 1.1 2.39-2.36 6.83-8.08 7.47-2.17.25-3.33-.6-3.6-.9-.3-.34-.37-.35-.48-.29-.19.1-.06.4 0 .56.17.44.9 1.24 2.08 1.63 1.05.34 3.6.54 6.7-.66 3.47-1.34 6.17-5.08 5.38-8.19C21.74.64 16.47-.4 11.5 1.36c-2.95 1.05-6.17 2.7-8.47 4.86-2.73 2.56-3.18 4.8-3 5.73.64 3.32 5.2 5.47 7.03 7.07-.1.04-.17.09-.25.14-.92.45-4.39 2.28-5.26 4.2-.99 2.19.17 3.75.92 3.95 2.34.66 4.75-.51 6.05-2.45s1.14-4.45.54-5.6l-.03-.04.72-.42c.47-.28.94-.52 1.33-.74a8.8 8.8 0 0 0-.47 2.4c-.1 1.23.4 2.84 1.06 3.46.3.28.66.28.88.28.76 0 1.12-.64 1.51-1.4.47-.94.9-2.02.9-2.02s-.54 2.94.92 2.94c.53 0 1.04-.69 1.28-1.03h.01l.03-.06c.07-.08.1-.15.1-.15v-.01a57.33 57.33 0 0 0 3.17-6.61s.08.55.34 1.45c.16.53.49 1.13.75 1.69-.21.3-.34.45-.34.45v.02c-.17.22-.34.47-.55.7-.72.86-1.58 1.83-1.68 2.11-.15.33-.11.56.15.77.19.14.52.17.88.14a4.28 4.28 0 0 0 1.32-.3 4.46 4.46 0 0 0 1.15-.6 2.5 2.5 0 0 0 1.07-2.23 4.37 4.37 0 0 0-.4-1.6l.18-.27c1.11-1.63 1.97-3.4 1.97-3.4s.1.54.36 1.44c.14.46.4.97.64 1.46a6.15 6.15 0 0 0-1.92 2.48c-.42 1.2-.1 1.73.52 1.86.28.06.67-.08.97-.2a4.77 4.77 0 0 0 1.22-.63c.7-.51 1.37-1.23 1.32-2.22a3.83 3.83 0 0 0-.3-1.31c.9-.38 2.04-.58 3.5-.4 3.12.35 3.74 2.32 3.62 3.14s-.77 1.26-.99 1.4-.28.19-.26.28c.03.14.12.14.3.11.26-.05 1.65-.65 1.71-2.17.08-1.93-1.76-4.03-5-4.03z"/></svg>