<svg xmlns="http://www.w3.org/2000/svg" viewBox="0 0 28 28"><path d="M14 0a14 14 0 1 1 0 28 14 14 0 0 1 0-28zm3.9 3.4c-1.2 0-2.5.23-3.77.68a19.7 19.7 0 0 0-6.65 3.81c-2.15 2.02-2.5 3.75-2.36 4.49.5 2.57 4.04 4.26 5.49 5.51v.02c-.42.2-3.56 1.8-4.3 3.42-.78 1.72.13 2.92.72 3.1a4.4 4.4 0 0 0 4.75-1.93 4.8 4.8 0 0 0 .47-4.28c.6-.16 1.27-.23 2.14-.13 2.45.29 2.94 1.82 2.84 2.46s-.59 1-.76 1.1-.23.15-.22.23c.02.1.1.12.25.09.2-.03 1.28-.53 1.33-1.72.06-1.5-1.38-3.19-3.92-3.14-1.05.02-1.7.13-2.2.3l-.1-.11c-1.58-1.69-4.5-2.88-4.38-5.14.05-.83.33-3 5.61-5.63 4.31-2.15 7.78-1.55 8.38-.23.86 1.87-1.86 5.36-6.35 5.86-1.7.18-2.6-.47-2.82-.72-.24-.27-.27-.27-.36-.22-.14.08-.05.3 0 .44.14.34.68.97 1.62 1.28.83.26 2.83.4 5.25-.53 2.72-1.05 4.85-3.99 4.22-6.42-.42-1.68-2.42-2.58-4.87-2.58zm-6.68 15.26c.2.75.17 1.45-.03 2.09-.03.13-.13.31-.17.42-.16.35-.38.64-.65.94-.8.9-1.95 1.22-2.43.94-.53-.32-.25-1.55.68-2.55a9.51 9.51 0 0 1 2.47-1.77l.13-.07z"/></svg>