<svg xmlns="http://www.w3.org/2000/svg" viewBox="0 0 24 28"><path d="M23.44 24.2a3.38 3.38 0 1 1-3.38-3.4 3.37 3.37 0 0 1 3.38 3.4zm-3.64-4.39a4.86 4.86 0 0 0-4.22 4.81c0 .77.18 1.52.51 2.16-1.4.75-3.3 1.22-5.92 1.22-8.31 0-9.6-5.88-9.6-6.66 0-.8.46-3.4 3.4-3.4s3.34 2.51 3.34 3.03c0 0 0 .53-.36 1.26 1 .94 3.36.94 3.36.94 2.36 0 4.14-1.15 4.14-2.87 0-1.74-2-2.58-6.56-4.72-4.56-2.16-6.28-3.74-6.28-7.66C1.61 3.98 4.23 0 10.78 0s9.02 3.67 9.02 6.2a3 3 0 0 1-2.94 3.14c-.78 0-3.67.27-3.67-4.08-.52-.58-2.77-.58-2.77-.58-2.26 0-3.26 1.72-3.26 2.77 0 1.06.42 2.37 5.14 3.94 7.23 2.4 7.5 5.54 7.5 8.43z"/></svg>