<svg xmlns="http://www.w3.org/2000/svg" viewBox="0 0 32 28"><path d="M23.44 21.42V9.97a.8.8 0 0 0-.78-.8H21.2a.8.8 0 0 0-.78.8v11.45c0 .42.36.78.78.78h1.46a.8.8 0 0 0 .78-.78zm-4.44 0v-8.3a.8.8 0 0 0-.78-.78h-1.58a.8.8 0 0 0-.78.78v8.3c0 .42.36.78.78.78h1.58a.8.8 0 0 0 .78-.78zm-4.56 0v-6.7a.8.8 0 0 0-.78-.78h-1.58a.8.8 0 0 0-.78.78v6.7c0 .42.36.78.78.78h1.58a.8.8 0 0 0 .78-.78zm-4.57 0v-5.65a.8.8 0 0 0-.78-.78H7.52a.8.8 0 0 0-.78.78v5.65c0 .42.35.78.78.78h1.57a.8.8 0 0 0 .78-.78zM32 19.14a6.3 6.3 0 0 1-6.28 6.28H6.28A6.3 6.3 0 0 1 0 19.14a6.3 6.3 0 0 1 3.61-5.67 4.11 4.11 0 0 1-.16-1.14 4.29 4.29 0 0 1 4.29-4.28 4.32 4.32 0 0 1 2.8 1.04 8.58 8.58 0 0 1 16.66 3.95 6.3 6.3 0 0 1 4.8 6.1z"/></svg>