<svg xmlns="http://www.w3.org/2000/svg" viewBox="0 0 26 28"><path d="M13.72 2c2.51 0 3.97 2.5 4.34 7.48h1.03c4.49.7 6.7 2.11 6.66 4.27.37 2.55-1.25 3.72-4.88 3.53 2.79 2.44 3.77 4.72 2.99 6.83-.61 1.69-2.08 2.23-4.4 1.67-2.57-1.28-4.4-2.75-5.46-4.4h-.67c-1 2.93-2.94 4.4-5.81 4.4h-1c-2.4-.73-3.27-2.19-2.6-4.34l1.25-3.46h-.36c-3.51-.5-5.1-2.04-4.76-4.65.1-2.4 2.5-3.61 7.22-3.64 1.3-.14 1.85-.57 1.64-1.25C8.9 4.14 10.5 2 13.72 2zm-.75 3.53c-.88-.06-1.3 1.13-1.28 3.55l-.08 2c-.08 1-.4 1.5-.95 1.5l-5.63.31c-.87.03-1.33.4-1.33 1.08 0 .67.49 1.02 1.44 1.06 3.3-.17 4.85.06 4.63.67l-1 2.14c-1.7 2.55-2.11 4.04-1.25 4.49 1.14.69 2.75-1.1 4.84-5.35.5-.45.92-.45 1.25 0 1.47 1.57 2.67 2.85 3.63 3.85s1.76 1.3 2.35.89c.72-.77.52-1.58-.57-2.45a37.57 37.57 0 0 1-3.66-3.7c-.14-.52-.12-.79.1-.79 4.65.32 6.88.02 6.7-.89.14-1-1.9-1.5-6.07-1.5a1.6 1.6 0 0 1-1.56-.45v-3.5c0-1.95-.47-2.9-1.39-2.88a.65.65 0 0 0-.17-.03z"/></svg>