<svg xmlns="http://www.w3.org/2000/svg" viewBox="0 0 25 28"><path d="M13.42 2a4.95 4.95 0 0 1 4.13 2.5c.62 1.08.95 2.44 1.17 3.94 1.8.31 3.31.73 4.5 1.5a4.75 4.75 0 0 1 2.19 3.58l.04.3c.11 1.43-.39 3-1.56 3.84a4.2 4.2 0 0 1-.86.47c.17.3.4.56.53.87.58 1.31.68 2.83.19 4.17v.02h-.02c-.4 1.1-1.28 2.08-2.4 2.5s-2.3.37-3.5.08c-.14-.05-.27-.08-.4-.16a15.61 15.61 0 0 1-3.73-2.53 6.7 6.7 0 0 1-1.34 1.42 6.79 6.79 0 0 1-4.16 1.32c-.48 0-.97.06-1.4-.08-1.28-.4-2.42-1.06-3.11-2.2s-.69-2.57-.31-3.8l.03-.1.32-.9a6 6 0 0 1-2.35-1.35 5.03 5.03 0 0 1-1.35-4.04H.02l.01-.05v-.11h.02a4.71 4.71 0 0 1 2.57-3.72c1.36-.67 3-.89 4.96-.94.1-1.7.42-3.22 1.31-4.42a5.6 5.6 0 0 1 4.53-2.1zm0 1.88c-2.7 0-4.06 1.8-4.06 5.43.19.58-.27.92-1.38 1.05-3.98.02-6.03 1.03-6.1 3.06-.29 2.2 1.06 3.53 4.03 3.96h.3l-1.05 2.9c-.57 1.83.17 3.05 2.2 3.67h.83c2.42 0 4.06-1.25 4.9-3.73h.58c.9 1.4 2.42 2.66 4.6 3.73 1.96.49 3.21.02 3.73-1.4.66-1.78-.19-3.72-2.53-5.78 3.06.15 4.45-.83 4.12-2.97.05-1.83-1.84-3.03-5.62-3.61h-.88c-.32-4.2-1.54-6.31-3.67-6.31zm-.62 2.98.14.01c.78-.01 1.19.8 1.19 2.44v2.94c.34.36.76.49 1.3.4 3.54 0 5.24.41 5.12 1.26.15.76-1.72 1.01-5.64.75-.19 0-.22.23-.1.67a29.36 29.36 0 0 0 3.1 3.13c.92.73 1.08 1.43.48 2.07-.5.35-1.15.08-1.98-.76-.8-.85-1.83-1.9-3.08-3.24-.28-.37-.63-.37-1.05 0-1.76 3.6-3.12 5.08-4.1 4.5-.71-.37-.35-1.64 1.07-3.78l.84-1.81c.2-.52-1.12-.7-3.9-.56-.8-.05-1.2-.35-1.2-.9 0-.59.37-.9 1.1-.91l4.75-.27c.49 0 .75-.42.82-1.27l.06-1.67c-.02-2.05.34-3.05 1.08-3z"/></svg>