<svg xmlns="http://www.w3.org/2000/svg" viewBox="0 0 26 28" id="icon"><path d="M22 15.45v4.05a4.5 4.5 0 0 1-4.5 4.5h-13A4.5 4.5 0 0 1 0 19.5v-13A4.5 4.5 0 0 1 4.5 2h3.98a.5.5 0 0 1 .1 1c-.78.27-1.49.58-2.08.94a.7.7 0 0 1-.25.06H4.5A2.5 2.5 0 0 0 2 6.5v13A2.5 2.5 0 0 0 4.5 22h13a2.5 2.5 0 0 0 2.5-2.5v-3.34c0-.19.1-.36.28-.46.31-.14.6-.34.84-.57.15-.15.36-.2.55-.13s.33.25.33.45zm3.7-7.75-6 6a.93.93 0 0 1-.7.3c-.13 0-.27-.03-.4-.08A1.01 1.01 0 0 1 18 13v-3h-2.5c-3.44 0-5.63.66-6.84 2.05C7.39 13.5 7 15.85 7.5 19.44c.03.22-.1.44-.31.53a.52.52 0 0 1-.6-.17C6.5 19.64 4 16.12 4 13c0-4.19 1.31-9 11.5-9H18V1c0-.4.25-.77.6-.92.13-.05.27-.08.4-.08a.99.99 0 0 1 .7.3l6 6a.99.99 0 0 1 0 1.4z"/></svg>