<svg xmlns="http://www.w3.org/2000/svg" viewBox="0 0 32 28"><path d="M28.3 24.3a.99.99 0 0 1 1.4 0l2 2-1.4 1.4-1.3-1.3-1.3 1.3c-.18.2-.45.3-.7.3s-.52-.1-.7-.3L25 26.4l-1.3 1.3a.99.99 0 0 1-1.4 0L21 26.4l-1.3 1.3a.99.99 0 0 1-1.4 0L17 26.4l-1.3 1.3a.99.99 0 0 1-1.4 0L13 26.4l-1.3 1.3a.99.99 0 0 1-1.4 0L9 26.4l-1.3 1.3a.99.99 0 0 1-1.4 0L5 26.4l-1.3 1.3a.99.99 0 0 1-1.4 0l-2-2 1.4-1.4L3 25.6l1.3-1.3a.99.99 0 0 1 1.4 0L7 25.6l1.3-1.3a.99.99 0 0 1 1.4 0l1.3 1.3 1.3-1.3a.99.99 0 0 1 1.4 0l1.3 1.3 1.3-1.3a.99.99 0 0 1 1.4 0l1.3 1.3 1.3-1.3a.99.99 0 0 1 1.4 0l1.3 1.3 1.3-1.3a.99.99 0 0 1 1.4 0l1.3 1.3zm-24.6-.6a.99.99 0 0 1-1.4 0l-2-2 1.4-1.4L3 21.58l1.3-1.28a.99.99 0 0 1 1.4 0L7 21.58l1-1V16l-3.28-4.9a1.02 1.02 0 0 1 .51-1.52L8 8.68V4h2V2h4V0h4v2h4v2h2v4.67l2.77.9c.62.23.87.98.51 1.52L24 16v4.58l.3-.28a.99.99 0 0 1 1.4 0l1.3 1.28 1.3-1.28a.99.99 0 0 1 1.4 0l2 2-1.4 1.4-1.3-1.3-1.3 1.3a.97.97 0 0 1-1.4 0L25 22.4l-1.3 1.3a.99.99 0 0 1-1.4 0L21 22.4l-1.3 1.3a.99.99 0 0 1-1.4 0L17 22.4l-1.3 1.3a.99.99 0 0 1-1.4 0L13 22.4l-1.3 1.3a.99.99 0 0 1-1.4 0L9 22.4l-1.3 1.3a.99.99 0 0 1-1.4 0L5 22.4zM10 6v2l6-2 6 2V6h-2V4h-8v2h-2z"/></svg>