<svg xmlns="http://www.w3.org/2000/svg" viewBox="0 0 24 28" id="icon"><path d="M0 0h24v21.75l-12.13 5.28L0 21.75V0zm22.44 20.73V6.27H1.56v14.46l10.33 4.6zm0-16.03V1.56H1.56V4.7h20.88zM2.83 9.36v1.8h-.58v-1.8h.58zm0 2.31v1.8h-.58v-1.8h.58zm0 2.31v1.8h-.58v-1.8h.58zm0 2.32v1.8h-.58v-1.8h.58zm0 2.3v1.8h-.58v-1.8h.58zm.4 2.24.24-.53 1.64.74-.24.51zm2.13.94.23-.53 1.64.72-.23.53zm2.1.94.24-.53 1.64.72-.23.53zm2.13.92.24-.51 1.62.71-.23.54zm2.86.2 1.64-.71.24.51-1.64.73zm2.11-.93 1.64-.72.24.53-1.64.72zm2.13-.94 1.64-.72.23.53-1.64.72zm2.1-.92 1.65-.74.23.53-1.64.72zM4.06 2.3v.56H2.27V2.3h1.78zm2.53 0v.56h-1.8V2.3h1.8zm2.53 0v.56H7.3V2.3h1.8zm2.52 0v.56h-1.8V2.3h1.78zm2.53 0v.56h-1.78V2.3h1.78zm2.53 0v.56h-1.8V2.3h1.8zm2.53 0v.56h-1.8V2.3h1.8zm2.51 0v.56h-1.78V2.3h1.78zM2.83 7.6v1.24h-.58v-1.8h1.8v.57H2.83zm3.75-.55v.56h-1.8v-.56h1.8zm2.53 0v.56H7.3v-.56h1.8zm2.52 0v.56H9.84v-.56h1.78zm2.53 0v.56h-1.78v-.56h1.78zm2.53 0v.56h-1.8v-.56h1.8zm2.53 0v.56h-1.8v-.56h1.8zm1.95 1.8V7.6h-1.22v-.56h1.8v1.8h-.58zm0 2.3v-1.8h.58v1.8h-.58zm0 2.32v-1.8h.58v1.8h-.58zm0 2.31v-1.8h.58v1.8h-.58zm0 2.31v-1.8h.58v1.8h-.58zm0 2.32v-1.8h.58v1.8h-.58zm-9.3-.55a4.9 4.9 0 0 1-4.89-4.9 4.9 4.9 0 0 1 4.9-4.88 4.9 4.9 0 0 1 4.89 4.89 4.89 4.89 0 0 1-4.9 4.89zM9.3 13.9c0 2.37 4.15.64 4.15 2.03 0 .7-1.28.76-1.75.76-.65 0-1.6-.14-1.92-.8h-.05l-.48.99c.8.5 1.56.66 2.53.66 1.05 0 2.73-.32 2.73-1.68 0-2.57-4.2-.87-4.2-2.03 0-.7 1.11-.8 1.6-.8.57 0 1.56.18 1.9.7h.05l.47-.9c-.81-.33-1.47-.64-2.38-.64-1.08 0-2.65.35-2.65 1.7z"/></svg>