<svg xmlns="http://www.w3.org/2000/svg" viewBox="0 0 32 28"><path d="M30 12a2 2 0 0 1 0 4h-.23l-1.8 10.34A2 2 0 0 1 26 28H6a2 2 0 0 1-1.97-1.66L2.23 16H2a2 2 0 0 1 0-4h28zM7.58 24.5a1.01 1.01 0 0 0 .92-1.08l-.5-6.5a1 1 0 0 0-2 .16l.5 6.5c.05.51.48.92 1 .92h.08zm6.42-1V17c0-.55-.45-1-1-1s-1 .45-1 1v6.5c0 .55.45 1 1 1s1-.45 1-1zm6 0V17c0-.55-.45-1-1-1s-1 .45-1 1v6.5c0 .55.45 1 1 1s1-.45 1-1zm5.5.08.5-6.5c.05-.55-.38-1.03-.92-1.08s-1.03.38-1.08.92l-.5 6.5a1.01 1.01 0 0 0 .92 1.08h.08c.52 0 .95-.4 1-.92zM7.44 4.56 5.98 11H3.93L5.5 4.1A3.97 3.97 0 0 1 9.4 1H12a1 1 0 0 1 1-1h6a1 1 0 0 1 1 1h2.6a3.97 3.97 0 0 1 3.9 3.1l1.58 6.9h-2.06l-1.46-6.44A2 2 0 0 0 22.61 3H20a1 1 0 0 1-1 1h-6a1 1 0 0 1-1-1H9.4a2 2 0 0 0-1.96 1.56z"/></svg>