<svg xmlns="http://www.w3.org/2000/svg" viewBox="0 0 30 28"><path d="M22.4 3.9a.5.5 0 0 1 0 .71l-9.79 9.78a.5.5 0 0 1-.72 0l-1.28-1.28a.5.5 0 0 1 0-.72l.69-.69a5.95 5.95 0 0 1-.55-6.6A4 4 0 0 0 4 8v20H0V8c0-4.4 3.6-8 8-8 2.25 0 4.28.94 5.73 2.44a6 6 0 0 1 5.97.86l.7-.7a.5.5 0 0 1 .71 0zM21 8c.55 0 1 .45 1 1s-.45 1-1 1-1-.45-1-1 .45-1 1-1zm4 2c-.55 0-1-.45-1-1s.45-1 1-1 1 .45 1 1-.45 1-1 1zm4-2c.55 0 1 .45 1 1s-.45 1-1 1-1-.45-1-1 .45-1 1-1zm-10 2c.55 0 1 .45 1 1s-.45 1-1 1-1-.45-1-1 .45-1 1-1zm3 1c0-.55.45-1 1-1s1 .45 1 1-.45 1-1 1-1-.45-1-1zm5-1c.55 0 1 .45 1 1s-.45 1-1 1-1-.45-1-1 .45-1 1-1zm-10 2c.55 0 1 .45 1 1s-.45 1-1 1-1-.45-1-1 .45-1 1-1zm4 2c-.55 0-1-.45-1-1s.45-1 1-1 1 .45 1 1-.45 1-1 1zm4-2c.55 0 1 .45 1 1s-.45 1-1 1-1-.45-1-1 .45-1 1-1zm-6 4c-.55 0-1-.45-1-1s.45-1 1-1 1 .45 1 1-.45 1-1 1zm4-2c.55 0 1 .45 1 1s-.45 1-1 1-1-.45-1-1 .45-1 1-1zm-6 2c.55 0 1 .45 1 1s-.45 1-1 1-1-.45-1-1 .45-1 1-1zm4 0c.55 0 1 .45 1 1s-.45 1-1 1-1-.45-1-1 .45-1 1-1zm-2 2c.55 0 1 .45 1 1s-.45 1-1 1-1-.45-1-1 .45-1 1-1zm-2 2c.55 0 1 .45 1 1s-.45 1-1 1-1-.45-1-1 .45-1 1-1z"/></svg>