<svg xmlns="http://www.w3.org/2000/svg" viewBox="0 0 28 28" id="icon"><path d="M4 22.5v3a.5.5 0 0 1-.5.5h-3a.5.5 0 0 1-.5-.5v-3c0-.28.22-.5.5-.5h3c.28 0 .5.22.5.5zm6-2v5a.5.5 0 0 1-.5.5h-3a.5.5 0 0 1-.5-.5v-5c0-.28.22-.5.5-.5h3c.28 0 .5.22.5.5zm6-4v9a.5.5 0 0 1-.5.5h-3a.5.5 0 0 1-.5-.5v-9c0-.28.22-.5.5-.5h3c.28 0 .5.22.5.5zm6-6v15a.5.5 0 0 1-.5.5h-3a.5.5 0 0 1-.5-.5v-15c0-.28.22-.5.5-.5h3c.28 0 .5.22.5.5zm6-8v23a.5.5 0 0 1-.5.5h-3a.5.5 0 0 1-.5-.5v-23c0-.28.22-.5.5-.5h3c.28 0 .5.22.5.5z"/></svg>