<svg xmlns="http://www.w3.org/2000/svg" viewBox="0 0 26 28"><path d="M12.98 10.52c.33 0 .64.09.93.28l3.47 2.3a8.37 8.37 0 0 1 1.71 1.53l2.29 2.65c.39.45.56 1.06.45 1.66l-1.13 6.45a1.53 1.53 0 0 1-1.32 1.23l-8.24.88-5.5.5H5.5A1.5 1.5 0 0 1 4 26.5c0-.78.66-1.4 1.44-1.5l4.06-.5h-7A1.5 1.5 0 0 1 1 22.92c.05-.81.77-1.42 1.58-1.42l6.9-.02-8.14-1a1.5 1.5 0 0 1-1.33-1.72c.13-.75.82-1.25 1.57-1.25h.15l7.52.94-5.48-1.47c-.79-.2-1.38-.92-1.25-1.72A1.5 1.5 0 0 1 4 14l.31.03 7 1.5 3.4.58.09.01c.47 0 .7-.64.28-.92l-2.9-1.95a1.5 1.5 0 0 1-.38-2.14 1.46 1.46 0 0 1 1.18-.6zm-1.09 3.15 2.9 1.96-3.4-.58-.08-.03-.56-.6-3.72-4.1c-.03-.02-.04-.07-.08-.1a1.5 1.5 0 0 1 .3-2.1c.63-.48 1.52-.32 2.06.26l2.22 2.3c-.04.04-.1.07-.14.12a2.03 2.03 0 0 0 .5 2.87zm13.86-7.1.23 4.16a8.72 8.72 0 0 1-.17 2.3l-.75 3.42a1.97 1.97 0 0 1-1.04 1.36l-1.66.85a2.46 2.46 0 0 0-.61-1.7l-2.28-2.66a9.02 9.02 0 0 0-1.83-1.61l-3.47-2.31a2.09 2.09 0 0 0-1.19-.36 1.94 1.94 0 0 0-1.37.57L7.94 5.72a1.49 1.49 0 0 1 .36-2.14c.67-.47 1.59-.25 2.09.4l4.16 5.5-4.1-7.1a1.5 1.5 0 0 1 .58-2.1 1.55 1.55 0 0 1 2.03.63l3.77 6.56L14.7 2.2c-.3-.75-.1-1.65.63-2.03a1.5 1.5 0 0 1 2.06.7l3.02 6.49 1.57 3.06c.25.49.99.28.96-.25l-.19-3.5a1.51 1.51 0 0 1 1.48-1.6c.82 0 1.47.7 1.52 1.5z"/></svg>