<svg xmlns="http://www.w3.org/2000/svg" viewBox="0 0 26 28"><path d="M11.1 2.13c.5-.07 1.3-.13 1.8-.13.43 0 .83.03 1.26.06l-.05.66a16.01 16.01 0 0 0-2.94.06zm4.17.76.12-.67c.84.15 2.16.56 2.94.9l-.27.61c-.75-.32-2-.7-2.8-.84zm-8.3.47a15.9 15.9 0 0 1 2.9-1.03l.16.65c-.8.18-2.03.61-2.77.97zm12.14.89.33-.58c.75.42 1.87 1.22 2.5 1.8l-.46.5a13.92 13.92 0 0 0-2.37-1.72zM3.47 5.85c.6-.6 1.69-1.44 2.42-1.9l.35.57a14.95 14.95 0 0 0-2.3 1.8l-.47-.46zm18.83.95.5-.44a14.2 14.2 0 0 1 1.75 2.55l-.6.3A14.1 14.1 0 0 0 22.3 6.8zM1.02 9.4c.35-.77 1.07-1.95 1.62-2.62l.52.42a13.1 13.1 0 0 0-1.53 2.5zm23.42.88.6-.23c.32.8.65 2.15.73 3.01l-.68.07c-.07-.82-.36-2.08-.65-2.85zM0 13.63c.05-.86.3-2.24.56-3.07l.64.22c-.25.77-.5 2.06-.53 2.88zm24.72 3.56c.22-.78.4-2.08.42-2.9h.67a14.7 14.7 0 0 1-.45 3.08zM0 14.86l.67-.03c.03 1.1.16 2.04.36 2.92l-.65.17A14.9 14.9 0 0 1 0 14.86zm22.88 5.97a13.1 13.1 0 0 0 1.45-2.53l.62.25c-.32.8-1.03 2-1.54 2.69zM.73 19.1l.63-.23a8.1 8.1 0 0 0 1.44 2.5l-.52.43a8.89 8.89 0 0 1-1.55-2.7zm19.16 4.48c.69-.43 1.67-1.28 2.24-1.87l.48.45a15.1 15.1 0 0 1-2.36 1.99zm-16.73-.87.43-.5.74.6a.29.29 0 0 1 .1.17l.63 1.95-.64.2-.58-1.84c-.2-.16-.5-.4-.68-.58zm12.98 2.53a16 16 0 0 0 2.74-1.06l.3.6c-.74.4-2.04.88-2.87 1.1zm-6.08.1a.37.37 0 0 1 .14-.04l.08.02c.27.08.49.12.66.17l-.14.66a7.74 7.74 0 0 1-.58-.16l-2 .9-.28-.63 2.12-.92zm2.85.3c.7 0 1.4-.06 2.09-.17l.1.66c-.6.1-1.58.19-2.2.19-.34 0-.62 0-.85-.02l.03-.67c.23.02.48.02.83.02zM5.58 28a.33.33 0 0 1-.31-.23L4.8 26.3l.64-.2.36 1.1 1.04-.46.27.61-1.4.6a.44.44 0 0 1-.13.04zm1.33-2.98a.35.35 0 0 1-.35-.3l-.25-3.33A8.15 8.15 0 0 1 3.8 18.2a10 10 0 0 1-.88-4.18c0-5.2 4.56-9.41 10.17-9.41s10.18 4.22 10.18 9.4-4.57 9.41-10.18 9.41c-.93 0-1.86-.12-2.75-.36l-3.26 1.92c-.05.04-.11.04-.18.04z"/></svg>