<svg xmlns="http://www.w3.org/2000/svg" viewBox="0 0 19 28" id="icon"><path d="M6.64 28a.8.8 0 0 1-.8-.81.8.8 0 1 1 1.61 0 .8.8 0 0 1-.8.81zm6.5-.02a.81.81 0 0 1-.8-.82.8.8 0 1 1 1.61 0c0 .45-.36.82-.8.82zm-8.1-2.4s-.46-.03-.46-.52v-.04c0-.49.47-.52.47-.52h9.65s.47.05.47.52v.04c0 .47-.47.52-.47.52H5.05zM11.78 4.3a2.16 2.16 0 0 1 0-4.31c1.17 0 2.12.97 2.12 2.16s-.95 2.15-2.12 2.15zM.16 23.21l5.17-8.82 1.94 1.95-4.68 8.11a1.36 1.36 0 0 1-1.22.78 1.38 1.38 0 0 1-1.21-2.01zm9.37-.37c-.2.46-.64.79-1.14.79-.69 0-1.25-.61-1.25-1.38 0-.23.05-.45.14-.64L9.16 18 5.5 14.02c-1.4-1.55-.4-3.22-.4-3.22l1.96-3.82-5.2.02C1.28 7 .83 6.48.83 5.86s.45-1.13 1.03-1.13h15.78c.56 0 1.02.52 1.02 1.14S18.2 7 17.64 7h-6.03l-2.86 5.52 2.92 3.17c1.02 1.08.36 2.3.36 2.3z"/></svg>