<svg xmlns="http://www.w3.org/2000/svg" viewBox="0 0 32 28"><path d="M22.34 9.1s-.01 0 0 0zm4.07 3.2c3.03 0 5.59 2.26 5.59 5.36a5.7 5.7 0 0 1-5.88 5.71c-8.3 0-9.82-12.48-17.98-12.48-3.16 0-5.45 2.02-5.45 5.25 0 3.34 2.5 5.36 5.73 5.36 2.13 0 4.55-.9 6.27-2.13.28-.2.84-.8 1.14-.8s.55.24.55.54c0 .4-.66.95-.94 1.2a12.48 12.48 0 0 1-7.74 3.07c-4.17 0-7.7-2.96-7.7-7.25s3.38-7.46 7.64-7.46c9.27 0 11.13 12.3 18.1 12.3 2.09 0 3.67-1.36 3.67-3.5a3.43 3.43 0 0 0-3.5-3.48c-.88 0-1.75.57-2.35.57a.8.8 0 0 1-.8-.78c0-.58.27-1.19.27-1.81a5.65 5.65 0 0 0-5.84-5.73c-2.66 0-4 1.84-4.44 1.84a.56.56 0 0 1-.56-.56c0-.28.2-.52.39-.72a6.9 6.9 0 0 1 5.14-2.19 6.74 6.74 0 0 1 6.95 6.9c0 .34-.01.68-.06 1.02a7.1 7.1 0 0 1 1.8-.23z"/></svg>