<svg xmlns="http://www.w3.org/2000/svg" viewBox="0 0 24 28" id="icon"><path d="M18.33 16.6c0-2.71-2.64-3.65-4.86-4.15l-1.63-.37c-1.18-.28-2.07-.49-2.07-1.4 0-.82.87-1.2 2.25-1.2 2.45 0 2.5 1.8 4.01 1.8 1.02 0 1.63-.8 1.63-1.7 0-1.8-2.99-2.97-5.94-2.97-2.7 0-5.84 1.17-5.84 4.34 0 2.63 1.75 3.57 4.03 4.11l2.28.56c1.39.35 2.25.5 2.25 1.5 0 .8-.9 1.41-2.27 1.41-2.89 0-3.05-2.4-4.72-2.4-1.1 0-1.58.78-1.58 1.64 0 1.92 2.94 3.48 6.46 3.48 2.94 0 6-1.47 6-4.64zM24 20a6 6 0 0 1-6 6 5.98 5.98 0 0 1-3.66-1.25 11 11 0 0 1-13.1-13.1 6 6 0 0 1 8.4-8.4 11 11 0 0 1 13.1 13.1A5.98 5.98 0 0 1 24.01 20z"/></svg>