<svg xmlns="http://www.w3.org/2000/svg" viewBox="0 0 26 28"><path d="M23.73 12.13A2.2 2.2 0 0 1 26 14.34c0 1-.52 1.7-1.45 2.03l-2.7.93.88 2.6c.08.24.11.49.11.74 0 1.23-1 2.27-2.23 2.27a2.27 2.27 0 0 1-2.17-1.55l-.86-2.58-4.85 1.66.86 2.56a2.24 2.24 0 0 1-2.12 3 2.25 2.25 0 0 1-2.16-1.55l-.86-2.55-2.39.83c-.25.08-.51.14-.78.14a2.16 2.16 0 0 1-2.22-2.2c0-.97.63-1.84 1.55-2.16l2.44-.82-1.64-4.9-2.44.85c-.25.08-.5.12-.75.12A2.18 2.18 0 0 1 0 11.56c0-.97.62-1.84 1.55-2.15L4 8.58l-.83-2.49a2.26 2.26 0 0 1 2.13-3 2.25 2.25 0 0 1 2.15 1.55l.85 2.5 4.84-1.64L12.3 3a2.27 2.27 0 0 1 4.3-1.45l.82 2.51 2.53-.86c.22-.06.44-.09.67-.09 1.22 0 2.27.9 2.27 2.16 0 .97-.75 1.78-1.63 2.07l-2.45.85 1.64 4.93 2.57-.87a2.32 2.32 0 0 1 .71-.13zm-12.4 4.09 4.84-1.64-1.64-4.92-4.84 1.67z"/></svg>