<svg xmlns="http://www.w3.org/2000/svg" viewBox="0 0 28 28" id="icon"><path d="M13.64 11.56c0 1.74-1.52 3.16-3.37 3.16s-3.38-1.42-3.38-3.16c0-1.75 1.52-3.15 3.38-3.15s3.37 1.4 3.37 3.15zm7.84 0c0 1.74-1.5 3.16-3.37 3.16-1.86 0-3.38-1.42-3.38-3.16 0-1.75 1.52-3.15 3.38-3.15 1.87 0 3.37 1.4 3.37 3.15zM25 14.37V3.96c0-1.8-.58-2.5-2.23-2.5H5.39c-1.73 0-2.22.6-2.22 2.5v10.52c3.7 1.94 6.88 1.6 8.61 1.53.73-.02 1.2.13 1.48.42l.16.14c.33.32.64.57.95.8.07-.86.55-1.4 1.85-1.36 1.76.08 5.01.42 8.78-1.62zm2.55-.07c-1 1.23-2.9 2.75-5.82 3.94 3.08 10.48-7.51 12.15-7.34 6.78l-.02-5.11-.75-.18-.01 5.29c.17 5.37-10.42 3.7-7.35-6.79-2.9-1.18-4.8-2.7-5.8-3.93-.5-.75.04-1.55.87-.97.1.08.23.15.34.23V2.72C1.67 1.22 2.8 0 4.2 0h19.64c1.39 0 2.51 1.22 2.51 2.72v10.84l.33-.23c.83-.58 1.38.22.88.97z"/></svg>