<svg xmlns="http://www.w3.org/2000/svg" viewBox="0 0 24 28" id="icon"><path d="M19.98 17.94a.4.4 0 0 0-.34-.42 4.45 4.45 0 0 1-3.1-2.61c-.04-.13-.1-.25-.1-.4 0-.7 1.95-.56 1.95-1.56 0-.42-.52-.69-.9-.69-.35 0-.63.25-.98.25l-.18-.03c.03-.59.08-1.18.08-1.78 0-.54-.04-1.3-.27-1.78a4.26 4.26 0 0 0-3.98-2.58c-1.96 0-3.44.72-4.3 2.58a4.53 4.53 0 0 0-.27 1.78c0 .6.05 1.2.08 1.78-.06.03-.14.03-.22.03-.36 0-.64-.23-.97-.23-.39 0-.87.25-.87.69 0 .97 1.95.84 1.95 1.55 0 .14-.06.26-.1.39a4.44 4.44 0 0 1-3.1 2.6.4.4 0 0 0-.35.43c0 .72 1.66.98 2.14 1.06.15.38.08 1.03.65 1.03.39 0 .78-.14 1.2-.14 1.64 0 2.08 1.48 3.98 1.48 1.99 0 2.36-1.48 4.02-1.48.42 0 .81.13 1.22.13.54 0 .48-.66.62-1.02.49-.08 2.14-.34 2.14-1.06zM24 14a12 12 0 1 1-24 0 12 12 0 0 1 24 0z"/></svg>