<svg xmlns="http://www.w3.org/2000/svg" viewBox="0 0 24 28" id="icon"><path d="M20 17.94a.4.4 0 0 0-.34-.42 4.41 4.41 0 0 1-3.1-2.61.86.86 0 0 1-.1-.4c0-.7 1.93-.56 1.93-1.56 0-.42-.52-.69-.9-.69-.34 0-.62.25-.98.25l-.18-.03c.04-.59.08-1.2.08-1.8a4.6 4.6 0 0 0-.27-1.77 4.25 4.25 0 0 0-3.98-2.58c-1.96 0-3.44.73-4.3 2.58-.24.5-.28 1.25-.28 1.8 0 .59.04 1.18.1 1.77a1.17 1.17 0 0 1-.24.03c-.35 0-.64-.25-.97-.25-.4 0-.86.27-.86.7 0 .98 1.94.85 1.94 1.55a.87.87 0 0 1-.11.4 4.44 4.44 0 0 1-3.1 2.6.4.4 0 0 0-.34.43c0 .73 1.66 1 2.16 1.07.14.38.07 1.04.62 1.04.4 0 .8-.16 1.2-.16 1.66 0 2.1 1.48 4 1.48 1.99 0 2.36-1.48 4.03-1.48.41 0 .82.14 1.22.14.53 0 .49-.66.61-1.02.5-.07 2.16-.34 2.16-1.07zM24 6.5v15a4.5 4.5 0 0 1-4.5 4.5h-15A4.5 4.5 0 0 1 0 21.5v-15A4.5 4.5 0 0 1 4.5 2h15A4.5 4.5 0 0 1 24 6.5z"/></svg>