<svg xmlns="http://www.w3.org/2000/svg" viewBox="0 0 26 28"><path d="M13.25 2a6.76 6.76 0 0 1 6.31 4.08c.36.76.42 1.95.42 2.8 0 1-.07 1.98-.14 2.98.13.06.3.1.44.1.56 0 1.03-.41 1.6-.41.53 0 1.3.37 1.3 1 0 1.5-3.15 1.21-3.15 2.53 0 .23.1.45.19.67a7.86 7.86 0 0 0 3.86 3.92c.4.17.8.27 1.25.36a.53.53 0 0 1 .44.55c0 1.06-2.7 1.5-3.43 1.6-.31.49-.07 1.63-.9 1.63-.64 0-1.28-.2-1.97-.2-.33 0-.66.01-.97.08-1.86.3-2.48 2.3-5.53 2.3-2.94 0-3.64-2-5.45-2.3a5.18 5.18 0 0 0-.99-.08c-.7 0-1.37.23-1.94.23-.87 0-.6-1.15-.93-1.65-.72-.11-3.43-.55-3.43-1.61 0-.28.16-.49.44-.55.44-.1.85-.19 1.25-.36a7.8 7.8 0 0 0 3.86-3.92c.1-.22.19-.44.19-.67 0-1.32-3.16-1.06-3.16-2.52 0-.6.72-1 1.27-1 .48 0 .97.4 1.58.4.17 0 .34-.02.5-.1-.07-.99-.14-1.97-.14-2.97 0-.84.06-2.05.42-2.81C7.8 3.1 10.14 2.03 13.25 2z"/></svg>