<svg xmlns="http://www.w3.org/2000/svg" viewBox="0 0 26 28" id="icon"><path d="m24.47 17.45-2.61.52 2.9 1.67a1 1 0 1 1-1 1.72l-2.9-1.66.86 2.5c.44 1.25-1.47 1.9-1.9.66l-1.59-4.69L14 15.73v4.9l3.25 3.71c.88.99-.64 2.32-1.5 1.32l-1.75-2V27c0 .55-.45 1-1 1s-1-.45-1-1v-3.34l-1.75 2c-.86 1-2.38-.33-1.5-1.32L12 20.62v-4.89l-4.23 2.44-1.6 4.69c-.42 1.23-2.33.6-1.89-.66l.86-2.5-2.9 1.66c-.48.28-1.08.1-1.37-.36s-.1-1.1.36-1.36l2.91-1.67-2.6-.52c-1.3-.26-.92-2.22.38-1.97l4.85.97L11 14l-4.23-2.45-4.85.97-.2.01c-1.19 0-1.36-1.75-.19-1.98l2.61-.52-2.9-1.67A1 1 0 0 1 .88 7a.98.98 0 0 1 1.36-.36l2.9 1.66-.86-2.5c-.44-1.25 1.47-1.9 1.9-.66l1.59 4.69L12 12.27v-4.9l-3.25-3.7c-.87-.99.64-2.31 1.5-1.32l1.75 2V1c0-.55.45-1 1-1s1 .45 1 1v3.34l1.75-2c.86-1 2.38.33 1.5 1.32L14 7.38v4.89l4.24-2.44 1.59-4.69c.42-1.23 2.33-.6 1.89.66l-.86 2.5 2.9-1.66c.48-.28 1.08-.1 1.37.36s.1 1.1-.36 1.36l-2.9 1.67 2.6.52c1.17.23 1 1.98-.19 1.98l-.2-.01-4.84-.97L15 14l4.24 2.45 4.84-.97c1.3-.25 1.69 1.7.4 1.97z"/></svg>