<svg xmlns="http://www.w3.org/2000/svg" viewBox="0 0 24 28"><path d="M21.03 20.52c0-1.29-1.05-2.65-2.3-2.65-1.09 0-1.78.9-1.78 2.05 0 1.13.72 2.08 2.2 2.08 1.02 0 1.88-.6 1.88-1.48zM11.5 22.5a.58.58 0 0 1-.16.38l-4.98 4.98c-.1.1-.23.14-.36.14s-.25-.05-.36-.14l-5-5A.51.51 0 0 1 1 22h3V.5c0-.28.22-.5.5-.5h3c.28 0 .5.22.5.5V22h3c.28 0 .5.22.5.5zm11.72-1.08c0 3.16-1.72 6.58-5.44 6.58-.7 0-1.28-.1-1.69-.25a7.61 7.61 0 0 1-.65-.23l.6-1.77c.15.06.32.13.5.17.3.11.71.2 1.16.2 1.88 0 2.85-1.56 3.14-3.18h-.03c-.43.47-1.35.8-2.28.8a3.7 3.7 0 0 1-3.75-3.82A3.87 3.87 0 0 1 18.74 16c2.48 0 4.48 2.03 4.48 5.42zm-.47-11.2V12h-7.33v-1.78h2.61V3.47l.02-.56v-.25h-.03l-.11.18a2.84 2.84 0 0 1-.4.49l-.98.9-1.28-1.34 3-2.9h1.92v10.23h2.58z"/></svg>