<svg xmlns="http://www.w3.org/2000/svg" viewBox="0 0 26 28"><path d="M18.6 6.38h2.78l-1.13-3.41-.19-.74-.03-.3h-.06l-.05.3c-.05.2-.06.43-.17.74zM11.5 22.5a.58.58 0 0 1-.16.38l-4.98 4.98c-.1.1-.23.14-.36.14s-.25-.05-.36-.14l-5-5A.51.51 0 0 1 1 22h3V.5c0-.28.22-.5.5-.5h3c.28 0 .5.22.5.5V22h3c.28 0 .5.22.5.5zm13.06 1.86V28h-9.12v-1.4l5.76-8.27a3.12 3.12 0 0 1 .33-.42l.17-.14v-.05l-.21.01a1.98 1.98 0 0 1-.47.05h-3.63v1.8h-1.87V16h8.85v1.4l-5.76 8.27c-.1.14-.22.28-.33.4l-.17.18v.03l.22-.03c.14-.03.28-.03.47-.03h3.87v-1.86h1.9zm1.4-14.02V12h-4.5v-1.66h1.17l-.74-2.25h-3.8l-.73 2.25h1.17V12h-4.48v-1.66h1.1L18.73 0h2.53l3.6 10.34h1.08z"/></svg>