<svg xmlns="http://www.w3.org/2000/svg" viewBox="0 0 28 28"><path d="M19 24.5v3a.5.5 0 0 1-.5.5h-4a.5.5 0 0 1-.5-.5v-3c0-.28.22-.5.5-.5h4c.28 0 .5.22.5.5zm-7.5-2a.58.58 0 0 1-.16.38l-4.98 4.98c-.1.1-.23.14-.36.14s-.25-.05-.36-.14l-5-5A.51.51 0 0 1 1 22h3V.5c0-.28.22-.5.5-.5h3c.28 0 .5.22.5.5V22h3c.28 0 .5.22.5.5zm10.5-6v3a.5.5 0 0 1-.5.5h-7a.5.5 0 0 1-.5-.5v-3c0-.28.22-.5.5-.5h7c.28 0 .5.22.5.5zm3-8v3a.5.5 0 0 1-.5.5h-10a.5.5 0 0 1-.5-.5v-3c0-.28.22-.5.5-.5h10c.28 0 .5.22.5.5zm3-8v3a.5.5 0 0 1-.5.5h-13a.5.5 0 0 1-.5-.5v-3c0-.28.22-.5.5-.5h13c.28 0 .5.22.5.5z"/></svg>