<svg xmlns="http://www.w3.org/2000/svg" viewBox="0 0 26 28"><path d="M18.6 22.38h2.78l-1.13-3.41-.19-.73-.03-.32h-.06l-.05.31c-.05.2-.06.43-.17.74zm-7.1.12a.58.58 0 0 1-.16.38l-4.98 4.98c-.1.1-.23.14-.36.14s-.25-.05-.36-.14l-5-5A.51.51 0 0 1 1 22h3V.5c0-.28.22-.5.5-.5h3c.28 0 .5.22.5.5V22h3c.28 0 .5.22.5.5zm14.45 3.84V28h-4.5v-1.66h1.18l-.74-2.25h-3.8l-.73 2.25h1.17V28h-4.48v-1.66h1.1L18.73 16h2.53l3.6 10.34h1.08zM24.56 8.36V12h-9.12v-1.4l5.76-8.27a3.12 3.12 0 0 1 .33-.42l.17-.15v-.04l-.21.01a1.98 1.98 0 0 1-.47.05h-3.63v1.8h-1.87V0h8.85v1.4l-5.76 8.27c-.1.14-.22.28-.33.4l-.17.16v.05l.22-.05.47-.01h3.87V8.36h1.9z"/></svg>