<svg xmlns="http://www.w3.org/2000/svg" viewBox="0 0 36 28" id="icon"><path d="m12.25 21.44.25-3.77-.25-8.17c-.02-.2-.17-.38-.38-.38-.18 0-.35.18-.35.38l-.22 8.17.22 3.77c.01.2.17.36.36.36a.38.38 0 0 0 .37-.36zm4.63-.46.17-3.3-.19-9.15a.44.44 0 0 0-.2-.37c-.08-.05-.16-.08-.25-.08s-.18.03-.25.08a.44.44 0 0 0-.2.37l-.02.1-.16 9.04.17 3.69v.01c0 .1.04.2.1.27a.47.47 0 0 0 .36.17.45.45 0 0 0 .31-.14.4.4 0 0 0 .14-.31zM.55 15.68l.31 2-.31 1.96c-.02.08-.07.14-.14.14s-.13-.06-.14-.14L0 17.67l.27-2c.01-.08.06-.14.14-.14s.12.06.14.14zm1.34-1.24.4 3.23-.4 3.17c-.01.08-.08.15-.15.15s-.15-.07-.15-.16l-.35-3.16.35-3.23c0-.08.07-.14.15-.14s.14.06.15.14zm4.38 7.08zm-2.94-7.68.39 3.83-.4 3.7c0 .1-.07.18-.16.18s-.18-.08-.2-.18l-.32-3.7.33-3.83c.02-.1.1-.18.19-.18s.17.08.17.18zm1.47-.1.36 3.93-.36 3.81c-.02.13-.11.2-.22.2s-.2-.07-.2-.2l-.33-3.8.32-3.95c0-.12.1-.2.2-.2s.21.08.23.2zm1.47.28.32 3.65-.32 3.85c-.02.14-.13.25-.25.25s-.24-.11-.24-.25l-.31-3.85.31-3.65c0-.13.11-.24.24-.24s.23.11.25.24zm5.98 7.42zm-4.52-9.7.33 5.93-.33 3.85c0 .15-.12.28-.26.28-.16 0-.27-.13-.28-.28l-.28-3.85.28-5.94c.01-.15.12-.28.28-.28.14 0 .26.13.26.28zm1.47-1.35.3 7.31-.3 3.82a.3.3 0 0 1-.3.3.3.3 0 0 1-.3-.3l-.26-3.82.25-7.3c.02-.18.14-.3.32-.3.15 0 .3.12.3.3zm1.53-.62.28 7.9-.28 3.78a.34.34 0 0 1-.34.33c-.17 0-.31-.14-.33-.33l-.25-3.78.25-7.9c0-.2.16-.35.33-.35.19 0 .33.16.34.35zm6.13 11.59zM13.76 9.7l.24 7.97-.23 3.74c0 .21-.18.39-.4.39s-.37-.18-.39-.4l-.22-3.73.22-7.97c0-.22.18-.39.4-.39s.39.17.39.4zm1.55.3.22 7.69-.22 3.68c0 .24-.18.43-.42.43s-.42-.19-.44-.43l-.18-3.68.18-7.69c.02-.25.2-.44.44-.44s.4.19.42.44zm3.31 7.69-.21 3.6c0 .27-.22.49-.49.49s-.48-.22-.5-.48l-.1-1.79-.09-1.82.2-9.94V7.7a.58.58 0 0 1 .18-.37.5.5 0 0 1 .31-.11c.08 0 .17.03.23.08a.52.52 0 0 1 .25.4zm17.38-.3a4.4 4.4 0 0 1-4.42 4.4H19.3a.51.51 0 0 1-.49-.5V7.22c0-.26.1-.39.44-.51a7.82 7.82 0 0 1 10.6 6.58A4.43 4.43 0 0 1 36 17.38z"/></svg>