<svg xmlns="http://www.w3.org/2000/svg" viewBox="0 0 34 28" id="icon"><path d="M9.69 17.5c-1.08.63-2.55 1-4.19 1h-2v-1h-1c-.28 0-.5-.56-.5-1.25 0-.28.05-.55.1-.77C.9 15.45 0 15.25 0 15s.9-.45 2.1-.48a2.8 2.8 0 0 1-.1-.77c0-.69.22-1.25.5-1.25h1v-1h2c1.64 0 3.1.38 4.19 1h17.39L30 13c3 .5 4 1.5 4 2s-1 1.5-4 2l-2.92.5H9.68zm17.48-3.94c.5.35.83.86.83 1.44s-.33 1.1-.83 1.44l1.27.47c.64-.46 1.06-1.14 1.06-1.91s-.42-1.45-1.06-1.9zm-17.4 4.19h15.85L18.5 19c-2 0-3.5 1.5-3.5 1.5L10.5 25S8.98 26 8 26H6.5l-1.45-7.25h.45a9 9 0 0 0 4.27-1zm-4.27-6.5h-.45L6.5 4H8c1.02 0 2 .5 2.5 1L15 9.5s1.5 1.5 3.5 1.5l7.13 1.25H9.77a8.95 8.95 0 0 0-4.27-1z"/></svg>