<svg xmlns="http://www.w3.org/2000/svg" viewBox="0 0 32 28"><path d="M32.02 13.06c0 .4-.16.78-.44 1.06L18.14 27.56a1.52 1.52 0 0 1-2.12 0l-7.79-7.78a1.52 1.52 0 0 1 0-2.12l2.13-2.13a1.52 1.52 0 0 1 2.12 0l4.6 4.61L27.33 9.87a1.52 1.52 0 0 1 2.12 0L31.58 12c.28.28.44.67.44 1.06zM0 10.25V9.11h.75L3.22 2h1.73l2.47 7.1h.77v1.14H5.08V9.11h.81l-.5-1.53H2.8l-.5 1.53h.8v1.14H0zm3.13-3.86h1.9l-.77-2.33-.09-.36-.05-.28-.01-.07h-.03a3.8 3.8 0 0 1-.16.71zm5.76 3.86V9.11h.98V3.16H8.9V2h3.78c.63 0 1.13.08 1.49.22.37.14.68.4.9.74a2.16 2.16 0 0 1 .08 2.22c-.17.32-.44.54-.75.72v.01c.44.13.78.38 1 .74s.34.76.34 1.21c0 .55-.15 1.02-.47 1.43s-.7.67-1.17.8c-.32.1-.73.15-1.23.15H8.89zm2.52-4.88h1.43a1 1 0 0 0 .75-.28c.18-.2.27-.46.27-.8 0-.45-.16-.76-.47-.93a1.8 1.8 0 0 0-.72-.13h-1.26v2.15zm0 3.66h1.53c.23 0 .42-.03.58-.1a.97.97 0 0 0 .5-.43 1.58 1.58 0 0 0 .17-.72 1.15 1.15 0 0 0-1.2-1.2H11.4v2.45zm6.26.13c-.81-.83-1.22-1.85-1.22-3.07s.4-2.22 1.22-3.01 1.81-1.2 3.02-1.2a6.89 6.89 0 0 1 1.98.32c.36.11.64.28.88.52s.36.5.36.8v1.12h-1.38V4c0-.19-.1-.36-.31-.49s-.45-.21-.7-.26-.5-.08-.75-.08c-.8 0-1.47.27-1.99.8-.51.51-.76 1.2-.76 2.06 0 .92.26 1.66.8 2.22s1.21.84 2.02.84c.22 0 .46-.03.7-.06s.5-.12.73-.25.36-.3.36-.5v-.64h1.39v1.13a1 1 0 0 1-.35.76 2.11 2.11 0 0 1-.87.52 6.42 6.42 0 0 1-1.05.25 5.64 5.64 0 0 1-1 .1 4.2 4.2 0 0 1-3.08-1.24z"/></svg>