<svg xmlns="http://www.w3.org/2000/svg" viewBox="0 0 24 28" id="icon"><path d="M17.6 18.9c0-.43-.16-.6-.46-.8a13.4 13.4 0 0 0-6.98-1.79c-1.53 0-3 .2-4.49.53-.36.08-.65.32-.65.81 0 .4.3.77.76.77.14 0 .4-.08.58-.12 1.22-.25 2.5-.43 3.8-.43 2.3 0 4.47.57 6.2 1.61.19.11.31.17.52.17a.74.74 0 0 0 .73-.75zm1.5-3.35c0-.43-.15-.72-.54-.96A16.94 16.94 0 0 0 10 12.4c-2.02 0-3.4.28-4.73.66-.5.14-.75.48-.75 1s.42.93.93.93c.22 0 .35-.06.58-.12a14.91 14.91 0 0 1 3.92-.52c2.97 0 5.68.79 7.63 1.94.17.1.34.2.6.2a.93.93 0 0 0 .93-.93zm1.7-3.88c0-.58-.25-.87-.63-1.1-2.7-1.57-6.4-2.3-9.94-2.3-2.07 0-3.98.23-5.68.73-.44.13-.85.5-.85 1.16 0 .64.49 1.14 1.13 1.14.23 0 .45-.08.62-.13 1.52-.42 3.16-.58 4.8-.58 3.25 0 6.62.72 8.8 2.02.21.13.37.19.62.19a1.12 1.12 0 0 0 1.13-1.13zM24 14a12 12 0 1 1-24 0 12 12 0 0 1 24 0z"/></svg>