<svg xmlns="http://www.w3.org/2000/svg" viewBox="0 0 26 28"><path d="m17.77 15.69 4.78-4.64-6.6-.97L13 4.1l-2.95 5.97-6.6.97 4.78 4.64-1.14 6.58 5.9-3.11 5.9 3.1zM26 10.1c0 .28-.2.55-.4.75l-5.68 5.53 1.35 7.81.01.32c0 .42-.19.78-.64.78a1.27 1.27 0 0 1-.62-.2L13 21.43l-7.02 3.69c-.2.1-.4.19-.62.19-.45 0-.66-.38-.66-.78 0-.11.02-.2.03-.32l1.35-7.81-5.69-5.53c-.19-.2-.4-.47-.4-.75 0-.47.5-.66.88-.72l7.85-1.14 3.51-7.11c.14-.3.41-.64.77-.64s.63.34.77.64l3.51 7.1 7.85 1.15c.37.06.87.25.87.72z"/></svg>