<svg xmlns="http://www.w3.org/2000/svg" viewBox="0 0 28 28" id="icon"><path d="M24.72 9.1a3.8 3.8 0 1 1-3.81-3.81 3.82 3.82 0 0 1 3.8 3.8zM12.69 20.68a3.89 3.89 0 0 0-3.9-3.9c-.29 0-.57.02-.85.09l1.62.65a3.1 3.1 0 1 1-2.31 5.75l-1.92-.76a3.9 3.9 0 0 0 3.45 2.07 3.89 3.89 0 0 0 3.9-3.9zM25.66 9.1a4.78 4.78 0 0 0-9.55 0 4.77 4.77 0 0 0 4.78 4.77 4.76 4.76 0 0 0 4.77-4.77zm2.34 0a7.1 7.1 0 0 1-7.1 7.1l-6.84 5a5.31 5.31 0 0 1-10.47.6L0 20.37v-6.7l6.08 2.45a5.17 5.17 0 0 1 3.25-.72l4.44-6.35A7.13 7.13 0 0 1 20.89 2 7.11 7.11 0 0 1 28 9.1z"/></svg>