<svg xmlns="http://www.w3.org/2000/svg" viewBox="0 0 24 28" id="icon"><path d="M19.4 10.1a3.03 3.03 0 0 0-3.02-3 3.03 3.03 0 0 0-3.02 3 3.02 3.02 0 0 0 3.02 3.03 3.02 3.02 0 0 0 3.03-3.02zm-9.53 9.2a3.08 3.08 0 0 1-3.09 3.1 3.08 3.08 0 0 1-2.73-1.66 60 60 0 0 1 1.53.62c1.25.5 2.69-.1 3.2-1.37a2.45 2.45 0 0 0-1.37-3.2l-1.29-.5c.2-.05.44-.09.66-.09a3.08 3.08 0 0 1 3.1 3.1zM24 6.5v15a4.5 4.5 0 0 1-4.5 4.5h-15A4.5 4.5 0 0 1 0 21.5v-2.4l2.69 1.09a4.2 4.2 0 0 0 4.1 3.31 4.21 4.21 0 0 0 4.18-3.8l5.4-3.94A5.63 5.63 0 0 0 22 10.14a5.64 5.64 0 0 0-11.27-.06l-3.5 5.02c-.14-.02-.28-.02-.44-.02-.78 0-1.51.2-2.14.58L0 13.81V6.5A4.5 4.5 0 0 1 4.5 2h15A4.5 4.5 0 0 1 24 6.5zm-3.86 3.64a3.77 3.77 0 0 1-3.78 3.77 3.77 3.77 0 0 1-3.77-3.77 3.77 3.77 0 0 1 3.77-3.78 3.77 3.77 0 0 1 3.78 3.78z"/></svg>