<svg xmlns="http://www.w3.org/2000/svg" viewBox="0 0 22 28"><path d="M22 24c0 2.75-5.7 4-11 4S0 26.75 0 24c0-2.13 3.17-3.13 5.83-3.58.55-.1 1.06.27 1.15.81s-.26 1.07-.8 1.16c-3.23.56-4.13 1.44-4.18 1.63.16.53 3.16 1.98 9 1.98s8.84-1.45 9-2.02c-.05-.15-.95-1.03-4.17-1.6-.55-.08-.9-.6-.81-1.15s.6-.9 1.15-.8C18.83 20.86 22 21.86 22 24zm-6-14v6a1 1 0 0 1-1 1h-1v6a1 1 0 0 1-1 1H9a1 1 0 0 1-1-1v-6H7a1 1 0 0 1-1-1v-6c0-1.1.9-2 2-2h6a2 2 0 0 1 2 2zm-1.5-6a3.5 3.5 0 1 1-6.99.01A3.5 3.5 0 0 1 14.5 4z"/></svg>