<svg xmlns="http://www.w3.org/2000/svg" viewBox="0 0 28 28"><path d="M27.5 14c.28 0 .5.22.5.5v1a.5.5 0 0 1-.5.5H.5a.5.5 0 0 1-.5-.5v-1c0-.28.22-.5.5-.5h27zM7.55 13a7.8 7.8 0 0 1-.8-1.25 6.41 6.41 0 0 1 1.34-7.77C9.5 2.66 11.53 2 14.23 2a18.16 18.16 0 0 1 5.38 1.05c.1.4.22 1.03.33 1.84.14 1.24.22 2.19.22 2.86 0 .22-.03.45-.08.7l-.19.05-1.31-.1-.22-.02a9.14 9.14 0 0 0-1.6-3.2 4.43 4.43 0 0 0-3.29-1.43c-1.19 0-2.14.31-2.84.92S9.58 6.05 9.58 6.95c0 .77.34 1.49 1.03 2.2s2.14 1.37 4.36 2c.75.23 1.64.57 2.7 1.04.56.26 1.06.53 1.49.81H7.55zm7.92 4h6.42c.08.44.11.92.11 1.44a8.73 8.73 0 0 1-.64 3.31c-.23.58-.6 1.1-1.11 1.63-.38.35-.94.78-1.7 1.26-.78.47-1.57.83-2.4 1.03-.82.22-1.87.33-3.17.33-.86 0-1.89-.03-3.04-.36l-2.2-.62c-.6-.18-.96-.32-1.12-.44a.47.47 0 0 1-.12-.35v-.2c0-.12.03-.94-.03-2.44-.03-.78.03-1.32.03-1.64v-.69l1.6-.03c.57 1.33.84 2.13 1 2.4A5.14 5.14 0 0 0 12 24a5.9 5.9 0 0 0 4.23-.07c.8-.26 1.44-.72 1.91-1.34.48-.63.73-1.3.73-2.02 0-.87-.42-1.69-1.26-2.45A8.66 8.66 0 0 0 15.47 17z"/></svg>