<svg xmlns="http://www.w3.org/2000/svg" viewBox="0 0 24 28"><path d="M14.02 21.4V24h-3.88l-2.48-3.94-.38-.65a.83.83 0 0 1-.17-.33h-.05c-.03.1-.1.22-.14.33a8.77 8.77 0 0 1-.39.68L4.11 24H.08v-2.6h2l3.08-4.56-2.9-4.25H.13V9.97h4.32l2.17 3.56c.14.22.25.46.36.66a.83.83 0 0 1 .17.33h.05c.03-.11.09-.22.17-.33l.39-.66 2.19-3.56h4.01v2.62H12l-2.88 4.18 3.2 4.62h1.7zM24 24.77V28h-8.03l-.06-.42c-.02-.24-.05-.52-.05-.72 0-4.27 5.47-4.63 5.47-6.9 0-.8-.74-1.35-1.56-1.35-.61 0-1.13.28-1.52.6a5.01 5.01 0 0 0-.56.6l-1.64-1.44a5.1 5.1 0 0 1 .98-1.03 4.55 4.55 0 0 1 2.94-1.01c2.26 0 3.84 1.33 3.84 3.4 0 3.74-5.18 4.05-5.4 6.3h3.62v-1.25H24z"/></svg>