<svg xmlns="http://www.w3.org/2000/svg" viewBox="0 0 28 28" id="icon"><path d="M23 14a9 9 0 1 0-18 0 9 9 0 0 0 18 0zm4.31 4.33a.48.48 0 0 1-.31.31l-4.56 1.5v4.78a.52.52 0 0 1-.2.4.47.47 0 0 1-.46.07l-4.56-1.47-2.81 3.88c-.1.12-.25.2-.4.2s-.32-.08-.41-.2l-2.82-3.88-4.56 1.47a.47.47 0 0 1-.45-.06.52.52 0 0 1-.2-.4v-4.79L1 18.64a.5.5 0 0 1-.25-.77L3.56 14l-2.8-3.88c-.1-.14-.12-.3-.07-.45s.17-.26.31-.31l4.57-1.5V3.08c0-.16.07-.32.2-.4a.47.47 0 0 1 .45-.07l4.56 1.47L13.6.2c.18-.25.62-.25.8 0l2.82 3.88 4.56-1.47a.47.47 0 0 1 .45.06c.13.1.2.25.2.4v4.79L27 9.36c.14.05.27.15.31.31s.03.31-.06.45L24.44 14l2.8 3.88a.51.51 0 0 1 .07.45z"/></svg>