<svg xmlns="http://www.w3.org/2000/svg" viewBox="0 0 27 28"><path d="M26.66 18.33a.48.48 0 0 1-.32.31l-4.56 1.5v4.78a.52.52 0 0 1-.2.4.47.47 0 0 1-.45.07l-4.57-1.47-2.8 3.88c-.1.12-.26.2-.42.2s-.3-.08-.4-.2l-2.81-3.88-4.57 1.47a.47.47 0 0 1-.45-.06.52.52 0 0 1-.2-.4v-4.79l-4.56-1.5c-.14-.05-.27-.16-.32-.31S0 18 .1 17.88L2.9 14 .1 10.12c-.1-.14-.11-.3-.07-.45s.18-.26.32-.31l4.56-1.5V3.08a.5.5 0 0 1 .2-.4.47.47 0 0 1 .46-.07l4.56 1.47L12.93.2c.2-.25.63-.25.82 0l2.81 3.88 4.57-1.47a.47.47 0 0 1 .45.06c.12.1.2.25.2.4v4.79l4.56 1.5c.14.05.27.15.32.31s.03.31-.07.45L23.8 14l2.8 3.88a.51.51 0 0 1 .07.45z"/></svg>