<svg xmlns="http://www.w3.org/2000/svg" viewBox="0 0 24 28"><path d="M12 2a12 12 0 1 1 0 24 12 12 0 0 1 0-24zm.1 2.4a9.56 9.56 0 0 0-9.54 10.15 1.71 1.71 0 0 0-.65.64 1.84 1.84 0 0 0 1.51 2.76 9.54 9.54 0 0 0 8.67 5.55 9.4 9.4 0 0 0 4.66-1.22c.25.17.55.3.88.33a1.88 1.88 0 0 0 2.01-1.67v-.16a2.18 2.18 0 0 0-.17-.76 9.5 9.5 0 0 0 1.81-8.63 1.84 1.84 0 0 0-.64-3.1 2.25 2.25 0 0 0-.92-.08 9.55 9.55 0 0 0-7.63-3.8zm0 1.24a8.27 8.27 0 0 1 6.56 3.19 1.9 1.9 0 0 0-.33 1.86l-3.5 2.9a1.8 1.8 0 0 0-.94-.25 1.78 1.78 0 0 0-1.77 1.38l-6.98.64a1.9 1.9 0 0 0-.72-.81 1.66 1.66 0 0 0-.64-.22l-.01-.38a8.3 8.3 0 0 1 8.32-8.31zm7.02 5.99.33.14c.24.07.46.12.7.1a8.32 8.32 0 0 1-1.52 7.26 1.98 1.98 0 0 0-.68-.2 1.82 1.82 0 0 0-.65.06l-1.9-2.74a1.83 1.83 0 0 0 .23-1.72zm-6.89 4.3c.03.07.08.18.13.24a1.84 1.84 0 0 0 2.02.78l1.9 2.74a1.82 1.82 0 0 0-.33.92v.14c0 .15.03.4.08.55a8.36 8.36 0 0 1-3.94.98 8.33 8.33 0 0 1-7.5-4.7c.16-.13.38-.35.47-.52.08-.12.17-.34.2-.48z"/></svg>