<svg xmlns="http://www.w3.org/2000/svg" viewBox="0 0 26 28"><path d="M8 21.5v-3a.5.5 0 0 0-.5-.5h-5a.5.5 0 0 0-.5.5v3c0 .28.22.5.5.5h5a.5.5 0 0 0 .5-.5zm0-6v-3a.5.5 0 0 0-.5-.5h-5a.5.5 0 0 0-.5.5v3c0 .28.22.5.5.5h5a.5.5 0 0 0 .5-.5zm8 6v-3a.5.5 0 0 0-.5-.5h-5a.5.5 0 0 0-.5.5v3c0 .28.22.5.5.5h5a.5.5 0 0 0 .5-.5zm-8-12v-3a.5.5 0 0 0-.5-.5h-5a.5.5 0 0 0-.5.5v3c0 .28.22.5.5.5h5a.5.5 0 0 0 .5-.5zm8 6v-3a.5.5 0 0 0-.5-.5h-5a.5.5 0 0 0-.5.5v3c0 .28.22.5.5.5h5a.5.5 0 0 0 .5-.5zm8 6v-3a.5.5 0 0 0-.5-.5h-5a.5.5 0 0 0-.5.5v3c0 .28.22.5.5.5h5a.5.5 0 0 0 .5-.5zm-8-12v-3a.5.5 0 0 0-.5-.5h-5a.5.5 0 0 0-.5.5v3c0 .28.22.5.5.5h5a.5.5 0 0 0 .5-.5zm8 6v-3a.5.5 0 0 0-.5-.5h-5a.5.5 0 0 0-.5.5v3c0 .28.22.5.5.5h5a.5.5 0 0 0 .5-.5zm0-6v-3a.5.5 0 0 0-.5-.5h-5a.5.5 0 0 0-.5.5v3c0 .28.22.5.5.5h5a.5.5 0 0 0 .5-.5zm2-5v17a2.5 2.5 0 0 1-2.5 2.5h-21A2.5 2.5 0 0 1 0 21.5v-17A2.5 2.5 0 0 1 2.5 2h21A2.5 2.5 0 0 1 26 4.5z"/></svg>