<svg xmlns="http://www.w3.org/2000/svg" viewBox="0 0 20 28" id="icon"><path d="M13.16 8.94a3.03 3.03 0 0 1-3.02 3.01 3.04 3.04 0 0 1-1.73-.54 19.08 19.08 0 0 0-1.8 2.28C4.06 17.5 2.98 22.03 3.45 27.1a.83.83 0 0 1-.73.89h-.08a.82.82 0 0 1-.81-.73c-.61-6.85 1.56-11.7 3.48-14.55a19.17 19.17 0 0 1 2.07-2.58 2.86 2.86 0 0 1-.25-1.2 3 3 0 0 1 3.01-3.02 3.02 3.02 0 0 1 3.02 3.02zm5.95.17A9.1 9.1 0 0 1 10 18.2a9.98 9.98 0 0 1-2.05-.23.83.83 0 0 1-.6-.98.83.83 0 0 1 .96-.6A7.5 7.5 0 1 0 10 1.63 7.5 7.5 0 0 0 3.33 12.5a.82.82 0 0 1-.35 1.09.8.8 0 0 1-1.09-.36A9.12 9.12 0 0 1 9.99 0a9.1 9.1 0 0 1 9.12 9.11z"/></svg>