<svg xmlns="http://www.w3.org/2000/svg" viewBox="0 0 36 28"><path d="M12.73 4.4H.36L0 9.11h.4c.27-3.54.57-4.17 3.9-4.17h1.17c.4.07.42.33.42.83v11.66c0 .78-.06 1.01-1.87 1.01H3.4v.52a163.84 163.84 0 0 1 6.29 0v-.52H9.1c-1.78 0-1.84-.23-1.84-1.01V5.78c0-.47 0-.73.39-.83h1.17c3.28 0 3.6.63 3.87 4.17h.4zM23.5 18.21h-.4c-.46 3.17-.74 4.9-4.5 4.9h-3c-.85 0-.88-.1-.88-.84V16.3h2.03c2.02 0 2.2.73 2.2 2.54h.35v-5.57h-.35c0 1.78-.18 2.5-2.2 2.5h-2.03v-5.3c0-.72.03-.85.89-.85h2.94c3.31 0 3.7 1.33 4 4.16h.39l-.52-4.73H11.56v.57c1.52 0 1.77 0 1.77.97v11.57c0 .96-.25.96-1.77.96v.52h11.16zm5.77-7.36 3.17-4.58c.31-.45.97-1.39 2.73-1.4v-.52c-.48.05-1.31.05-1.83.05-.7 0-1.57 0-2.1-.05v.52c.68.06.84.5.84.84 0 .25-.1.42-.25.64L29 10.46l-3.17-4.65c-.16-.23-.17-.3-.17-.36 0-.18.23-.56.93-.57v-.52c-.68.05-1.73.05-2.43.05-.57 0-1.63 0-2.14-.05v.52c1.17 0 1.56.04 2.03.72l4.14 6.06-3.74 5.45a3.2 3.2 0 0 1-2.72 1.36v.52c.49-.05 1.3-.05 1.82-.05.58 0 1.6 0 2.12.04v-.51c-.65-.06-.86-.5-.86-.84 0-.29.11-.43.22-.58l3.42-5.02 3.74 5.49c.17.23.17.3.17.37 0 .17-.2.53-.95.58v.51c.69-.04 1.75-.04 2.45-.04.56 0 1.63 0 2.14.04v-.51c-1.37 0-1.6-.11-2.01-.72z"/></svg>