<svg xmlns="http://www.w3.org/2000/svg" viewBox="0 0 28 28" id="icon"><path d="M24.48 27.94c-.12-.03-.28-.18-.9-.86a155.38 155.38 0 0 0-5.77-5.95 86.1 86.1 0 0 0-3.6-3.35c-.02 0-1.9 1.86-4.18 4.14a103.17 103.17 0 0 0-4.3 4.4 3.14 3.14 0 0 0-.28.57c-.1.25-.18.36-.48.67-.2.2-.38.36-.4.36-.09 0-.8-.55-1.32-.98a8.37 8.37 0 0 1-1.77-2.1c-.01-.07.02-.15.33-.47.2-.2.42-.37.49-.39s.26-.1.45-.2l.36-.17 4.19-4.17c2.3-2.3 4.18-4.2 4.18-4.22s-.37-.44-.85-.94c-.97-1-2.05-2.17-3.02-3.25l-.75-.81-.1-.1-1.26 1.25-1.27 1.27h-.65l-.36-.3a21.8 21.8 0 0 1-3.07-3.1C.01 9.07 0 9.04 0 8.75v-.29l3.37-3.39A570.41 570.41 0 0 0 7.51.89L8.3.1h.67l.34.28c.9.73 2.25 2.08 3 3.01l.22.29v.64l-1.25 1.26c-.69.7-1.26 1.28-1.26 1.3s.39.37.87.81a127.58 127.58 0 0 1 3.38 3.16c.42.4.78.73.8.73.07 0 2.35-2.28 3.62-3.6.75-.77 1.35-1.65 1.95-2.85l.2-.4 1.35-1.37c.92-.93 1.45-1.42 1.7-1.6.19-.13.36-.24.39-.24s.83.78 1.78 1.73a15.88 15.88 0 0 1 1.7 1.8c-.09.27-.53.75-1.78 2-1.39 1.4-1.4 1.4-1.8 1.6a13 13 0 0 0-2.6 1.7c-.43.37-3.96 3.93-3.96 3.98s1.7 1.84 2.97 3.2a145.9 145.9 0 0 0 6.11 5.97c.75.69 1.05 1 1.08 1.1.16.5-.5 1.62-1.44 2.43-.75.66-1.43.99-1.86.9zm-20.4-.88c-.1-.1-.08-.14.12-.34.11-.1.27-.33.38-.52s.28-.45.39-.6 3.73-3.79 8.06-8.13c5.64-5.64 7.95-7.92 8.16-8.06A10.4 10.4 0 0 1 23.8 8.3c.27-.08.53-.16.61-.2.14-.05 2.61-2.57 2.78-2.82.07-.08.11-.17.11-.2s-.67-.74-1.51-1.58l-1.54-1.53-.15.08c-.1.04-.78.7-1.53 1.45l-1.36 1.36-.27.47c-.37.72-.92 1.62-1.3 2.12-.26.36-1.76 1.9-8.32 8.46l-8.02 8-.39.2c-.22.1-.4.19-.44.19-.08 0-.56.45-.56.53 0 .1.69 1 1.08 1.39.19.2.53.48.72.64.34.26.5.36.36.2zm22.22-.43c.22-.2.23-.27.12-.36a31.35 31.35 0 0 1-2.6-2.52c-.24-.27-.24-.28-.07-.13.1.1.55.5.95.9a52.63 52.63 0 0 0 1.75 1.6l.16.15.12-.11c.07-.07.18-.19.24-.28l.1-.16-.76-.8c-.42-.44-.78-.8-.8-.84s.05-.02.11.05c.61.54 1.53 1.34 1.57 1.34.07 0 .26-.45.25-.63-.02-.15-.08-.2-1.11-1.17a142.1 142.1 0 0 1-8.27-8.31l-.17-.19-.19.07c-.36.1-1.04.62-1.04.8 0 .04.1.2.23.32l.22.23-.25-.23c-.2-.19-.25-.22-.31-.19-.16.1-.11.22.3.66.35.4.29.37-.23-.1-.22-.21-.22-.21-.28-.13-.1.14-.06.2.25.48.38.33 1.47 1.5 1.42 1.5-.01 0-.39-.34-.82-.77-.6-.57-.8-.75-.82-.68-.03.12.15.32.75.87 1.49 1.38 2.27 2.11 5.46 5.31 1.89 1.91 3.43 3.46 3.48 3.46s.16-.07.24-.14zM25 24.5c-.73-.64-6.25-6.1-7.06-7-.07-.08-.1-.14-.08-.14.08 0 .83.73 2 1.95a74.25 74.25 0 0 0 2.23 2.22c1.05.99 3.44 3.35 3.38 3.35-.02 0-.24-.18-.47-.38zm-1.7-1.28c-.05-.06-.05-.06.01-.02s.1.1.07.1c-.02 0-.05-.03-.08-.08zm.82-.45a6.6 6.6 0 0 1-.92-.88l-.07-.1.14.07c.17.1.82.72 1.09 1.03l.19.23-.43-.35zm-1.57-.22a13.5 13.5 0 0 1-1.43-1.46c-.04-.06.36.33.93.86s1 .97 1 .99c0 .03-.03.01-.5-.4zm-3.99-3.86a22.8 22.8 0 0 1-1.22-1.31c-.03-.05.3.3.74.73.68.7 1.01 1.05.95 1.05-.02 0-.22-.2-.47-.47zm1.6.1c-.2-.24-.2-.27.03-.06.1.1.15.18.14.2s-.1-.06-.17-.15zm-7.38-4.84c.03-.06-.15-.28-1.26-1.36-2.36-2.3-2.68-2.59-2.7-2.57s.02.09.05.17c.08.15 3.74 3.83 3.82 3.83.03 0 .08-.02.1-.07zm.2-.25c0-.03-.21-.28-.5-.54s-.85-.86-1.28-1.32a36.8 36.8 0 0 0-2.39-2.32c-.04 0-.06.15-.01.21.1.16 4.07 4.04 4.12 4.04.03 0 .06-.04.06-.07zm.2-.15c.1-.1.06-.19-.35-.6-.44-.45-.4-.42.14.07.19.17.36.3.4.3.05 0 .21-.13.21-.2 0-.01-.34-.38-.78-.82s-.88-.9-.98-1.03c-.27-.33.8.67 1.32 1.23.22.24.44.47.49.49.06.03.1 0 .26-.15.11-.09.19-.2.19-.23s-.06-.14-.13-.22c-.15-.19-.12-.22.05-.05.08.08.17.13.2.13.08 0 .58-.5.58-.56 0-.1-3.7-3.63-4.26-4.06l-.13-.1-.25.14c-.14.08-.26.17-.3.22-.03.06.15.25 1.2 1.3.67.67 1.21 1.23 1.2 1.25a21.9 21.9 0 0 1-1.99-1.9c-.28-.29-.51-.54-.55-.54-.07 0-.39.28-.39.36 0 .03.38.44.82.87.73.72 1.12 1.15 1.04 1.15l-.97-.93c-.56-.56-.97-.9-1.01-.9s-.1.01-.11.06c-.02.06.2.31.94 1.05.95.95 1.25 1.28 1.06 1.19-.08-.05-.77-.7-1.74-1.63-.3-.3-.35-.36-.42-.31a.23.23 0 0 0-.06.14 101 101 0 0 0 4.23 4.34c.03 0 .07-.03.1-.06zm-9.15-1.28c.06-.1-.06-.28-.28-.41-.64-.4-1.52-1.14-2.1-1.81a5 5 0 0 1-.93-1.36c.03-.14 3.25-3.5 5.05-5.25A66.3 66.3 0 0 1 8.57.78c.07 0 .7.46 1.1.8a14.38 14.38 0 0 1 1.77 1.87c.22.29.39.54.4.57.02.06.25.15.28.12.02-.01.04-.1.04-.2 0-.16-.04-.22-.35-.6C11.17 2.56 9.21.7 8.86.5A.55.55 0 0 0 8.6.45c-.16 0-.24.08-4.19 4.07L.37 8.57v.2c0 .2 0 .22.43.7.7.83 2.32 2.4 2.82 2.75.11.08.36.1.4.03z"/></svg>