<svg xmlns="http://www.w3.org/2000/svg" viewBox="0 0 28 28"><path d="M27.25 22c.69 0 .9.44.48.98l-1.96 2.54c-.43.54-1.11.54-1.54 0l-1.96-2.54c-.43-.54-.2-.98.48-.98H24V6h-1.25c-.69 0-.9-.44-.48-.98l1.96-2.53c.43-.55 1.11-.55 1.54 0l1.96 2.53c.43.54.2.98-.48.98H26v16h1.25zM1.27 2.02l.84.42c.1.04 2.97.08 3.3.08 1.37 0 2.75-.07 4.12-.07l3.36.02h4.58c.62 0 .98.14 1.4-.45l.66-.02.44.02c.03 1.75.03 3.5.03 5.25 0 .54.02 1.15-.08 1.7a5.1 5.1 0 0 1-1.06.28c-.36-.63-.6-1.31-.84-2-.11-.31-.49-2.42-.52-2.45-.33-.4-.69-.33-1.17-.33-1.42 0-2.9-.06-4.31.1-.08.7-.15 1.43-.13 2.13.02 4.4.06 8.78.06 13.18 0 1.2-.18 2.46.16 3.62 1.19.6 2.6.7 3.81 1.25.03.25.08.52.08.78 0 .14-.02.3-.05.45l-.53.02c-2.22.06-4.4-.28-6.64-.28-1.58 0-3.15.28-4.73.28-.02-.27-.05-.55-.05-.81v-.14c.6-.96 2.73-.97 3.72-1.55.34-.77.3-5 .3-5.98 0-3.16-.1-6.32-.1-9.47V6.22c0-.28.07-1.4-.12-1.63-.22-.23-2.27-.18-2.53-.18-.58 0-2.25.26-2.7.6-.76.5-.76 3.63-1.7 3.7A3.4 3.4 0 0 1 0 8V2.04z"/></svg>