<svg xmlns="http://www.w3.org/2000/svg" viewBox="0 0 24 28" id="icon"><path d="m1.27 2.02.84.42c.1.05 2.97.08 3.3.08 1.37 0 2.75-.07 4.12-.07 4.14 0 8.33-.1 12.47.05.34.02.67-.2.88-.48l.65-.02.44.02c.03 1.75.03 3.5.03 5.25 0 .56.02 1.15-.08 1.7a5.1 5.1 0 0 1-1.06.28c-.36-.63-.6-1.31-.84-2-.11-.31-.5-2.42-.52-2.45a.9.9 0 0 0-.42-.3c-.13-.05-.88-.03-1.03-.03-1.92 0-4.14-.11-6.03.1-.08.7-.14 1.43-.13 2.13l.02 2.38v-.81c.01 2.54.04 5.07.04 7.6 0 1.2-.18 2.47.16 3.63 1.19.6 2.6.7 3.81 1.25.03.25.08.52.08.78 0 .14-.01.3-.05.45l-.53.02c-2.22.06-4.4-.28-6.64-.28-1.57 0-3.15.28-4.73.28-.02-.27-.05-.55-.05-.81v-.14c.6-.96 2.74-.97 3.72-1.55.4-.88.28-8.27.28-9.64 0-.22-.08-.45-.08-.69 0-.64.11-4.31-.12-4.58-.22-.23-2.27-.18-2.53-.18-.66 0-4.33.34-4.7.59-.74.48-.75 3.62-1.7 3.7A3.4 3.4 0 0 1 0 8.01V2.03zm19.2 20.03c.55 0 2.62 1.86 3.05 2.18.23.2.4.46.4.77s-.17.58-.4.77c-.43.32-2.5 2.18-3.05 2.18-.72 0-.47-1.67-.47-1.95H4c0 .28.25 1.95-.47 1.95-.55 0-2.62-1.85-3.05-2.18-.23-.19-.4-.46-.4-.77s.17-.58.4-.77c.43-.32 2.5-2.18 3.05-2.18.72 0 .47 1.67.47 1.95h16c0-.28-.25-1.95.47-1.95z"/></svg>