<svg xmlns="http://www.w3.org/2000/svg" viewBox="0 0 28 28" id="icon"><path d="M8 19.5v3A1.5 1.5 0 0 1 6.5 24h-5A1.5 1.5 0 0 1 0 22.5v-3A1.5 1.5 0 0 1 1.5 18h5A1.5 1.5 0 0 1 8 19.5zm0-8v3A1.5 1.5 0 0 1 6.5 16h-5A1.5 1.5 0 0 1 0 14.5v-3A1.5 1.5 0 0 1 1.5 10h5A1.5 1.5 0 0 1 8 11.5zm10 8v3a1.5 1.5 0 0 1-1.5 1.5h-5a1.5 1.5 0 0 1-1.5-1.5v-3a1.5 1.5 0 0 1 1.5-1.5h5a1.5 1.5 0 0 1 1.5 1.5zM8 3.5v3A1.5 1.5 0 0 1 6.5 8h-5A1.5 1.5 0 0 1 0 6.5v-3A1.5 1.5 0 0 1 1.5 2h5A1.5 1.5 0 0 1 8 3.5zm10 8v3a1.5 1.5 0 0 1-1.5 1.5h-5a1.5 1.5 0 0 1-1.5-1.5v-3a1.5 1.5 0 0 1 1.5-1.5h5a1.5 1.5 0 0 1 1.5 1.5zm10 8v3a1.5 1.5 0 0 1-1.5 1.5h-5a1.5 1.5 0 0 1-1.5-1.5v-3a1.5 1.5 0 0 1 1.5-1.5h5a1.5 1.5 0 0 1 1.5 1.5zm-10-16v3A1.5 1.5 0 0 1 16.5 8h-5A1.5 1.5 0 0 1 10 6.5v-3A1.5 1.5 0 0 1 11.5 2h5A1.5 1.5 0 0 1 18 3.5zm10 8v3a1.5 1.5 0 0 1-1.5 1.5h-5a1.5 1.5 0 0 1-1.5-1.5v-3a1.5 1.5 0 0 1 1.5-1.5h5a1.5 1.5 0 0 1 1.5 1.5zm0-8v3A1.5 1.5 0 0 1 26.5 8h-5A1.5 1.5 0 0 1 20 6.5v-3A1.5 1.5 0 0 1 21.5 2h5A1.5 1.5 0 0 1 28 3.5z"/></svg>