<svg xmlns="http://www.w3.org/2000/svg" viewBox="0 0 28 28" id="icon"><path d="M13.31 4.83c0 .56-.36 1.19-.97 1.19-.62 0-.97-.63-.97-1.2 0-.54.35-1.18.97-1.18.61 0 .97.64.97 1.19zm-2.56 21.5v-1.78c0-.61-.48-1.14-1.1-1.14s-1.1.53-1.1 1.14v1.78c0 .6.47 1.15 1.1 1.15s1.1-.53 1.1-1.15zm2.69 0v-1.78c0-.61-.47-1.14-1.1-1.14s-1.1.53-1.1 1.14v1.78c0 .6.48 1.15 1.1 1.15s1.1-.54 1.1-1.15zm2.72 0v-1.78c0-.61-.49-1.14-1.11-1.14s-1.11.53-1.11 1.14v1.78c0 .6.48 1.15 1.1 1.15s1.12-.53 1.12-1.15zm2.71 0v-1.78c0-.61-.48-1.14-1.1-1.14s-1.11.53-1.11 1.14v1.78c0 .6.48 1.15 1.1 1.15s1.11-.54 1.11-1.15zm4.2-10.69c-1.7 3.23-4.94 5.61-8.68 5.61-5.28 0-8.78-4.63-8.78-9.66 0-.92.1-1.82.33-2.72a11.95 11.95 0 0 0-1.63 6.1c0 3.3 1.36 6.66 3.9 8.8.29-.53.82-.9 1.43-.9.55 0 1.06.32 1.34.79.3-.47.8-.79 1.36-.79.55 0 1.07.32 1.35.79.3-.47.81-.79 1.36-.79s1.06.32 1.36.79a1.6 1.6 0 0 1 1.34-.79c.6 0 1.14.36 1.4.88a11.38 11.38 0 0 0 3.91-8.1zm-2.35-.45c0-.78-.35-1.17-1.13-1.17-.25 0-.5.04-.73.09-.78.16-1.55.3-2.33.3-2.47 0-3.53-1.44-3.53-3.8 0-1.08.2-2.14.47-3.19a7.93 7.93 0 0 0-1.3 4.3c0 2.95 1.88 5.8 5.07 5.8 1.17 0 2.32-.43 3.28-1.1.1-.4.2-.8.2-1.23zm-6.9-10.3c0-.98-.7-2.01-1.77-2.01s-1.77 1.03-1.77 2.01c0 1 .69 2.03 1.77 2.03S13.8 5.9 13.8 4.9zm9.82 5.3c0-2.94-1.89-5.78-5.06-5.78a6 6 0 0 0-4.31 2.01 15.2 15.2 0 0 0-.75 4.19c0 2.08.82 3.28 3.01 3.28.75 0 1.49-.14 2.22-.3.28-.04.55-.09.83-.09 1.08 0 1.62.63 1.62 1.69 0 .23-.01.48-.06.72a7.84 7.84 0 0 0 2.5-5.72zM28 13.58c0 1.97-.63 5.6-1.98 7.1-1.25 1.35-4.79 3.34-6.61 3.85l-.07.02v1.78c0 .89-.68 1.67-1.59 1.67a1.6 1.6 0 0 1-1.34-.78c-.3.47-.82.78-1.36.78s-1.07-.31-1.36-.78a1.6 1.6 0 0 1-1.35.78c-.56 0-1.06-.31-1.36-.78a1.6 1.6 0 0 1-1.34.78c-1.03 0-1.6-.86-1.6-1.8a5.11 5.11 0 0 1-3.1 1.07 5.06 5.06 0 0 1-3.3-1.25 5.45 5.45 0 0 0 1.66-.32 5.26 5.26 0 0 1-2.85-1.98 5.24 5.24 0 0 0 3.67-.61c-1.2-1.2-3.09-3.22-3.75-4.78a6.79 6.79 0 0 1-.37-2.5c0-2.72 1.1-8.75 4.72-8.75.58 0 1.03.26 1.26.8.2-.29.43-.57.66-.83.1-.15.31-.3.4-.46.43-.69.63-1.15 1.18-1.86a9.57 9.57 0 0 1 7.37-3.8c.33 0 .66.02.97.07a3.11 3.11 0 0 1 4.47-.11.29.29 0 0 1 .08.19c0 .2-.56.73-.7.89.23.08.86.37.86.65 0 .16-.16.29-.25.4a9.99 9.99 0 0 1 3.07 5.9c.24-.28.57-.47.94-.47.58 0 1.14.4 1.56.77 1.15 1.01 1.41 2.9 1.41 4.36z"/></svg>