<svg xmlns="http://www.w3.org/2000/svg" viewBox="0 0 25 28"><path d="M4 9a1 1 0 0 1-1 1 1 1 0 0 1-1-1c0-.56.44-1 1-1a1 1 0 0 1 1 1zm2.5 8V7a1 1 0 0 0-1-1H1a1 1 0 0 0-1 1v10a1 1 0 0 0 1 1h4.5a1 1 0 0 0 1-1zm17.64-2.33c.53.6.86 1.5.86 2.33a3.05 3.05 0 0 1-3 3h-4.33c.13.5.28.66.45 1 .41.81.88 1.72.88 3 0 1.2 0 4-3.5 4a.99.99 0 0 1-.7-.3c-.68-.65-.86-1.62-1.03-2.54-.2-.91-.36-1.85-.97-2.46a21.75 21.75 0 0 1-1.58-1.87c-.69-.9-2.19-2.77-2.77-2.81a1.04 1.04 0 0 1-.95-1V7c0-.55.47-.98 1-1 .55-.02 1.48-.34 2.47-.69C12.66 4.73 14.77 4 17 4h2.02c1.37.02 2.4.42 3.07 1.22.6.7.86 1.65.77 2.83.4.37.69.89.84 1.47a3.3 3.3 0 0 1 0 1.82c.47.63.7 1.36.68 2.14 0 .22-.07.7-.24 1.2z"/></svg>