<svg xmlns="http://www.w3.org/2000/svg" viewBox="0 0 25 28" id="icon"><path d="M4 21a1 1 0 0 0-1-1 1 1 0 0 0-1 1c0 .56.44 1 1 1a1 1 0 0 0 1-1zm2.5-8v10a1 1 0 0 1-1 1H1a1 1 0 0 1-1-1V13a1 1 0 0 1 1-1h4.5a1 1 0 0 1 1 1zM25 13a3.7 3.7 0 0 1-.86 2.33c.17.5.23.97.23 1.19a3.3 3.3 0 0 1-.67 2.14 3.3 3.3 0 0 1 0 1.82 3.2 3.2 0 0 1-.84 1.47 3.77 3.77 0 0 1-.77 2.83c-.67.8-1.7 1.2-3.08 1.22H17c-2.24 0-4.35-.73-6.03-1.31-.99-.35-1.92-.67-2.47-.69-.53-.02-1-.45-1-1V12.98c0-.51.44-.95.95-1 .58-.04 2.08-1.9 2.77-2.8.56-.73 1.1-1.4 1.58-1.88.6-.61.78-1.55.96-2.46.18-.92.36-1.89 1.04-2.54a1 1 0 0 1 .7-.3C19 2 19 4.8 19 6c0 1.28-.45 2.19-.88 3-.17.34-.32.5-.45 1H22c1.62 0 3 1.38 3 3z"/></svg>