<svg xmlns="http://www.w3.org/2000/svg" viewBox="0 0 24 28"><path d="M4 21c0-.55-.45-1-1-1s-1 .45-1 1 .45 1 1 1 1-.45 1-1zm18-9c0-1.06-.95-2-2-2h-5.5c0-1.83 1.5-3.16 1.5-5 0-1.83-.36-3-2.5-3-1 1.02-.48 3.4-2 5-.44.45-.81.94-1.2 1.42-.7.9-2.57 3.58-3.8 3.58H6v10h.5c.88 0 2.31.56 3.16.86 1.71.6 3.5 1.14 5.34 1.14h1.9c1.76 0 3-.7 3-2.6 0-.3-.04-.6-.09-.88.66-.36 1.02-1.25 1.02-1.97 0-.38-.1-.75-.28-1.08.53-.5.83-1.13.83-1.86 0-.5-.22-1.23-.55-1.6.73-.03 1.17-1.43 1.17-2zm2-.02a4.6 4.6 0 0 1-.77 2.55 4.57 4.57 0 0 1-.45 3.33 4.55 4.55 0 0 1-.9 3.45c.04 2.95-1.97 4.69-4.86 4.69H15c-2.22 0-4.28-.66-6.34-1.38C8.2 24.48 6.94 24 6.5 24H2a2 2 0 0 1-2-2V12a2 2 0 0 1 2-2h4.28c.6-.4 1.67-1.81 2.14-2.42a28.88 28.88 0 0 1 1.67-2c.94-1 .44-3.47 2-5A2.04 2.04 0 0 1 13.5 0c1.63 0 3.2.58 3.96 2.1A6 6 0 0 1 18 5c0 1.1-.28 2.03-.75 3H20c2.16 0 4 1.83 4 3.98z"/></svg>