<svg xmlns="http://www.w3.org/2000/svg" viewBox="0 0 24 28"><path d="M4 7c0-.55-.45-1-1-1s-1 .45-1 1 .45 1 1 1 1-.45 1-1zm18 9c0-.58-.44-1.98-1.17-2 .33-.38.55-1.1.55-1.6 0-.74-.3-1.37-.83-1.87.18-.33.28-.7.28-1.08 0-.71-.36-1.6-1.02-1.96.05-.29.08-.58.08-.88 0-1.83-1.16-2.6-2.9-2.6h-2c-1.84 0-3.62.54-5.34 1.13-.84.3-2.28.86-3.15.86H6v10h.5c1.23 0 3.1 2.67 3.8 3.58.39.48.76.97 1.2 1.42 1.51 1.6 1 3.99 2 5 2.14 0 2.5-1.17 2.5-3 0-1.84-1.5-3.17-1.5-5H20c1.05 0 2-.94 2-2zm2 .02A4.06 4.06 0 0 1 20 20h-2.75c.47.97.75 1.9.75 3a6 6 0 0 1-.55 2.9c-.76 1.52-2.32 2.1-3.95 2.1a2.04 2.04 0 0 1-1.4-.58c-1.57-1.53-1.08-4-2-5.01a25.48 25.48 0 0 1-1.68-1.99c-.47-.6-1.53-2.01-2.14-2.42H2a2 2 0 0 1-2-2V6c0-1.1.9-2 2-2h4.5c.44 0 1.7-.47 2.16-.63C10.9 2.6 12.86 2 15.26 2h1.76c2.84 0 4.89 1.69 4.87 4.6v.09a4.56 4.56 0 0 1 .9 3.45 4.57 4.57 0 0 1 .44 3.33A4.6 4.6 0 0 1 24 16z"/></svg>