<svg xmlns="http://www.w3.org/2000/svg" viewBox="0 0 36 28" id="icon"><path d="M1.81 4.33H34.2c1 0 1.81.81 1.81 1.81v15.72c0 1-.81 1.81-1.81 1.81H1.8c-1 0-1.81-.8-1.81-1.81V6.14c0-1 .81-1.81 1.81-1.81zm10 3.95c-.92 0-1.4.74-1.4 1.33 0 .62.57 1.31 1.4 1.31.93 0 1.44-.6 1.44-1.31 0-.6-.53-1.33-1.44-1.33zm14.31.63v2.48l.7 3.3h1.73l.7-3.3V8.91h-3.13zm-17.78.64-2.4.76v1.2h-.7v1.7h.7v2.32c.05 1.67.1 2.75 2.06 2.75.3 0 1.2-.1 1.6-.25v-1.67c-.25.1-.66.22-.83.22-.52 0-.42-.61-.42-1.05v-2.31H9.6v-1.7H8.35V9.55zm10.6 1.86a2.6 2.6 0 0 0-1.58.56l-.22-.46h-3v1.74h.55V19h-.55v1.7h3.9V19h-.7v-1.33c.1.08.63.52 1.7.52 1.7 0 2.98-1.28 2.98-3.36 0-1.86-1.05-3.42-3.08-3.42zm-8.9.1v1.7h.55v3.12h-.54v1.72h3.65v-1.72h-.62v-4.81h-3.03zm8.23 1.74c.57 0 .95.83.95 1.6 0 1-.4 1.63-.94 1.63-.5 0-.94-.67-.94-1.56-.04-1.03.4-1.67.93-1.67zm9.3 2.08c-.95 0-1.5.73-1.5 1.39 0 .67.65 1.34 1.5 1.34.95 0 1.54-.6 1.54-1.34 0-.75-.62-1.4-1.55-1.4z"/></svg>