<svg xmlns="http://www.w3.org/2000/svg" viewBox="0 0 17 28"><path d="M14.5 13.22a7.44 7.44 0 0 1 2.42 5.51 7.1 7.1 0 0 1-2.56 5.46A8.78 8.78 0 0 1 8.72 26c-1.27 0-2.4-.05-3.63-.45C2.31 24.6.2 22.19.03 19.3a6.68 6.68 0 0 1 2.08-5.73c.92-.94 2.73-2.03 4-2.88.62-.4 1.28-1.6.01-3.85l.25-.2 1.43.59c.26-1.77.95-3.53 1.92-5.28l-.69 2.72A13 13 0 0 1 13.34 0a21.39 21.39 0 0 0-3.22 4.55 9.14 9.14 0 0 1 4.75-3.31A32.46 32.46 0 0 0 9.2 7.8l.92.4c-.51 1.63.97 2.79 1.46 3.05 1.06.61 2.1 1.22 2.92 1.97zM4.52 24.67a6.36 6.36 0 0 0 1.39.5 3.47 3.47 0 0 1-1.38-.94l-.14-.14a10.1 10.1 0 0 1-2.15-3.9 3.18 3.18 0 0 1-.1-1.63c.66-2.34 2.08-3.26 3.5-4.23.31-.22.7-.42 1.02-.66.6-.44.95-1.78 1.26-2.87-.17.89-.36 2.47-1.14 3.08a27.95 27.95 0 0 1-.98.7c-1.38.94-2.77 1.81-3.4 4.1-.13.48-.02.98.1 1.46a9.91 9.91 0 0 0 2.08 3.75c0 .03.15.13.15.17.58.68.8.93 2.52 1.33-.45-.17-.9-.37-1.22-.6a4.72 4.72 0 0 1-2.17-3.85c-.08-1.36.75-2.75 2.34-3.63 1.11-.56 1.46-1.48 1.8-2.54-.23 1.23-.52 2-1.67 2.67-1.38.78-2.35 2.31-2.25 3.37a6.07 6.07 0 0 0 2.03 3.66c.4.34 1.06.58 1.69.75a1.83 1.83 0 0 1-.5-.53c-.19-.3-.35-.67-.49-1.06-.12-.36-.26-.75-.26-1.1 0-.83.1-1.83.7-2.53.53-.62.7-.7.94-1.45-.17.84-.27.9-.78 1.62a3.26 3.26 0 0 0-.6 2.4c.08.35.19.7.32 1 .14.38.3.71.53 1.02.18.24.28.41.57.54.3-.58.5-1.77.54-2.44.03-.58.07-1.24-.02-1.9-.13-.88-.4-1.74-.42-2.42.14.61.47 1.47.65 2.35.14.7.18 1.36.13 1.87-.05.61-.08 1.08-.17 1.6a2.52 2.52 0 0 1-.49 1.01 3.44 3.44 0 0 0 1.2-2.1c.26-1.16.29-2.24.29-2.82.03-.51-.2-1.33-.42-2.08-.14-.56-.68-1.14-.82-1.54-.23-.7-.14-1.2-.17-2.2.1.92.1 1.71.33 2.07.22.36.53.9.75 1.4.36.95.58 2 .6 2.48a11 11 0 0 1-.38 3.15 4.24 4.24 0 0 1-.58 1.28c.44-.56.78-1.3.9-1.92.4-1.75.66-3.58.43-4.67-.08-.23-.14-1.08-.49-2-.51-1.33-1.2-2.44-1.28-2.67-.26-.72-.32-2.6-.36-3.61.04 1.19.27 2.94.44 3.34.1.27.86 1.49 1.38 2.77.36.84.47 1.62.51 1.86.3 2.37.03 3.36-.57 5.51a3.84 3.84 0 0 1-.35.83c.4-.48.7-1.01.8-1.45.6-2.66.83-6.08-.02-8.69-.44-1.37-1.5-2.56-1.72-3.39a9.12 9.12 0 0 1-.12-2.6l-2.16-.93a9 9 0 0 1 .58 1.3c.19.72.1 1.4-.05 1.72-.78 1.42-2.12 1.82-3.1 2.62-1.74 1.42-3.6 2.56-3.41 6.45.1 1.91 1.6 4.27 3.86 5.36z"/></svg>