<svg xmlns="http://www.w3.org/2000/svg" viewBox="0 0 31 28" id="icon"><path d="M13.4 8.5v1.83a.5.5 0 0 1-.5.48H8.22V23.5a.49.49 0 0 1-.48.5h-2.1a.5.5 0 0 1-.5-.5V10.81H.5a.49.49 0 0 1-.5-.48V8.5c0-.28.22-.5.5-.5h12.4c.26 0 .5.22.5.5zm16.2-.05 1.21 15.02a.48.48 0 0 1-.12.37.5.5 0 0 1-.36.16h-2.1a.5.5 0 0 1-.48-.45l-.72-9.2L24.08 21a.48.48 0 0 1-.45.3h-1.88a.5.5 0 0 1-.45-.3l-2.94-6.67-.7 9.22a.5.5 0 0 1-.49.45h-2.1a.5.5 0 0 1-.37-.16.56.56 0 0 1-.14-.37l1.22-15.02a.5.5 0 0 1 .49-.45h2.21a.5.5 0 0 1 .46.3l3.43 8.12.32.8c.1-.27.2-.55.31-.8l3.45-8.12a.5.5 0 0 1 .46-.3h2.2c.27 0 .48.2.5.45z"/></svg>