<svg xmlns="http://www.w3.org/2000/svg" viewBox="0 0 26 28" id="icon"><path d="M20 .5c0-.28.22-.5.5-.5H25a1 1 0 0 1 1 1v4.5a.5.5 0 0 1-.5.5h-1a.5.5 0 0 1-.5-.5V3.4l-3.97 4A9 9 0 0 1 14 21.94V24h1.5c.28 0 .5.22.5.5v1a.5.5 0 0 1-.5.5H14v1.5a.5.5 0 0 1-.5.5h-1a.5.5 0 0 1-.5-.5V26h-1.5a.5.5 0 0 1-.5-.5v-1c0-.28.22-.5.5-.5H12v-2.06A9 9 0 0 1 5.97 7.39l-.81-.83L3.58 8.3a.51.51 0 0 1-.7.04l-.75-.68a.5.5 0 0 1-.04-.7l1.65-1.8L2 3.4v2.1a.5.5 0 0 1-.5.5h-1a.5.5 0 0 1-.5-.5V1a1 1 0 0 1 1-1h4.5c.28 0 .5.22.5.5v1a.5.5 0 0 1-.5.5H3.42l1.66 1.67L6.42 2.2a.51.51 0 0 1 .7-.05l.76.7c.2.16.22.5.03.7L6.5 5.09l.88.88a9 9 0 0 1 11.22 0l4-3.97h-2.1a.5.5 0 0 1-.5-.5v-1zM13 20a7 7 0 0 0 0-14 7 7 0 0 0 0 14z"/></svg>