<svg xmlns="http://www.w3.org/2000/svg" viewBox="0 0 22 28" id="icon"><path d="M8 11.5v9a.5.5 0 0 1-.5.5h-1a.5.5 0 0 1-.5-.5v-9c0-.28.22-.5.5-.5h1c.28 0 .5.22.5.5zm4 0v9a.5.5 0 0 1-.5.5h-1a.5.5 0 0 1-.5-.5v-9c0-.28.22-.5.5-.5h1c.28 0 .5.22.5.5zm4 0v9a.5.5 0 0 1-.5.5h-1a.5.5 0 0 1-.5-.5v-9c0-.28.22-.5.5-.5h1c.28 0 .5.22.5.5zm2 11.31V8.01H4v14.8c0 .75.42 1.2.5 1.2h13c.08 0 .5-.45.5-1.2zM7.5 6h7l-.75-1.83a.6.6 0 0 0-.27-.17H8.53a.53.53 0 0 0-.26.17zm14.5.5v1a.5.5 0 0 1-.5.5H20v14.81c0 1.72-1.13 3.19-2.5 3.19h-13C3.12 26 2 24.6 2 22.87V8H.5a.5.5 0 0 1-.5-.5v-1c0-.28.22-.5.5-.5h4.83l1.1-2.61a2.43 2.43 0 0 1 2.07-1.4h5c.83 0 1.77.63 2.08 1.4l1.1 2.6h4.82c.28 0 .5.23.5.5z"/></svg>