<svg xmlns="http://www.w3.org/2000/svg" viewBox="0 0 36 28"><path d="M10.17 15.58c0 .81-.65 1.47-1.45 1.47a1.47 1.47 0 0 1-1.47-1.47 1.46 1.46 0 0 1 2.92 0zm18.03-.02a1.47 1.47 0 1 1-2.94 0c0-.81.66-1.45 1.47-1.45s1.47.64 1.47 1.45zm-16.25.02a3.03 3.03 0 0 0-3.01-3.02 3.02 3.02 0 0 0-3.02 3.02 3 3 0 0 0 3.02 3.01 3.02 3.02 0 0 0 3.01-3.01zm18.02-.02a3.02 3.02 0 0 0-3.02-3.01 3.03 3.03 0 0 0-3.01 3.01 3.02 3.02 0 0 0 3.01 3.02 3 3 0 0 0 3.02-3.02zm-16.69.02a4.35 4.35 0 1 1-8.7.02 4.35 4.35 0 0 1 8.7-.02zm18.03-.02a4.35 4.35 0 0 1-4.36 4.35 4.34 4.34 0 0 1 0-8.7 4.35 4.35 0 0 1 4.36 4.35zm-15.06.05a7.22 7.22 0 1 0-7.22 7.22 7.22 7.22 0 0 0 7.22-7.22zm10.44-8.95C24.1 5.53 21.2 4.92 18 4.92s-6.39.61-8.95 1.72A8.97 8.97 0 0 1 18 15.61a8.95 8.95 0 0 1 8.69-8.95zm7.48 8.95a7.2 7.2 0 1 0-14.42-.02 7.2 7.2 0 0 0 14.42.02zm-4.15-8.84H36a8.3 8.3 0 0 0-1.8 3.57 8.95 8.95 0 0 1-7.23 14.22 8.93 8.93 0 0 1-6.95-3.3s-.74.88-2.02 2.8a21.9 21.9 0 0 0-2-2.8 8.95 8.95 0 0 1-14.2-10.9A8.3 8.3 0 0 0 0 6.74h5.7C8.77 4.73 13.22 3.45 18 3.45s8.95 1.28 12.02 3.33z"/></svg>