<svg xmlns="http://www.w3.org/2000/svg" viewBox="0 0 18 28"><path d="M18 13c0 6.06-4.94 11-11 11H4.5a.5.5 0 0 1-.5-.5v-9.55L.64 14.98C.6 15 .54 15 .5 15a.51.51 0 0 1-.3-.1.52.52 0 0 1-.2-.4v-2c0-.22.14-.4.36-.48L4 10.9V9.45L.64 10.5l-.14.01a.51.51 0 0 1-.3-.1.52.52 0 0 1-.2-.4V8c0-.22.14-.4.36-.48L4 6.4V2.5c0-.29.22-.5.5-.5H7c.28 0 .5.21.5.5v2.82l5.86-1.81c.14-.05.31-.02.44.08s.2.25.2.4v2a.52.52 0 0 1-.36.49L7.5 8.38v1.45l5.86-1.81c.14-.05.31-.02.44.07s.2.25.2.41v2a.52.52 0 0 1-.36.48l-6.14 1.9v7.6a7.5 7.5 0 0 0 7-7.48c0-.28.22-.5.5-.5h2.5c.28 0 .5.22.5.5z"/></svg>