<svg xmlns="http://www.w3.org/2000/svg" viewBox="0 0 28 28" id="icon"><path d="M7 20.5v3a.5.5 0 0 1-.5.5h-3a.5.5 0 0 1-.5-.5v-3c0-.28.22-.5.5-.5h3c.28 0 .5.22.5.5zm-3-6v3a.5.5 0 0 1-.5.5h-3a.5.5 0 0 1-.5-.5v-3c0-.28.22-.5.5-.5h3c.28 0 .5.22.5.5zm9 6v3a.5.5 0 0 1-.5.5h-3a.5.5 0 0 1-.5-.5v-3c0-.28.22-.5.5-.5h3c.28 0 .5.22.5.5zm-3-6v3a.5.5 0 0 1-.5.5h-3a.5.5 0 0 1-.5-.5v-3c0-.28.22-.5.5-.5h3c.28 0 .5.22.5.5zM1.03 12A1.02 1.02 0 0 1 0 10.98V8.97h8.03v2.01A1 1 0 0 1 7.02 12H1.03zM19 20.5v3a.5.5 0 0 1-.5.5h-3a.5.5 0 0 1-.5-.5v-3c0-.28.22-.5.5-.5h3c.28 0 .5.22.5.5zm-3-6v3a.5.5 0 0 1-.5.5h-3a.5.5 0 0 1-.5-.5v-3c0-.28.22-.5.5-.5h3c.28 0 .5.22.5.5zm9 6v3a.5.5 0 0 1-.5.5h-3a.5.5 0 0 1-.5-.5v-3c0-.28.22-.5.5-.5h3c.28 0 .5.22.5.5zm-3-6v3a.5.5 0 0 1-.5.5h-3a.5.5 0 0 1-.5-.5v-3c0-.28.22-.5.5-.5h3c.28 0 .5.22.5.5zm6-6.38v.2h-8.03v-.15c0-.58-.5-1.62-5.97-1.6-5.47.02-5.97 1.02-5.97 1.6v.16H0v-.2C0 7.08 1.88 2 14 2c12.1 0 14 5.08 14 6.13zm0 6.38v3a.5.5 0 0 1-.5.5h-3a.5.5 0 0 1-.5-.5v-3c0-.28.22-.5.5-.5h3c.28 0 .5.22.5.5zm0-5.53v2.02A1 1 0 0 1 26.98 12h-6a1.01 1.01 0 0 1-1.01-1V8.97H28z"/></svg>