<svg xmlns="http://www.w3.org/2000/svg" viewBox="0 0 24 28"><path d="M20 9.53a6.89 6.89 0 0 1-1.9.53 3.31 3.31 0 0 0 1.46-1.83 6.55 6.55 0 0 1-2.1.8A3.25 3.25 0 0 0 15.09 8a3.28 3.28 0 0 0-3.28 3.28 3 3 0 0 0 .07.75A9.32 9.32 0 0 1 5.1 8.6a3.33 3.33 0 0 0-.45 1.66c0 1.14.53 2.14 1.42 2.73a3.95 3.95 0 0 1-1.56-.4v.03c0 1.6 1.2 2.92 2.7 3.22a2.74 2.74 0 0 1-1.4.06 3.3 3.3 0 0 0 3.06 2.28A6.6 6.6 0 0 1 4 19.53 9.35 9.35 0 0 0 9.03 21c6.03 0 9.34-5 9.34-9.34l-.01-.43A6.31 6.31 0 0 0 20 9.53zm4-3.03v15a4.5 4.5 0 0 1-4.5 4.5h-15A4.5 4.5 0 0 1 0 21.5v-15A4.5 4.5 0 0 1 4.5 2h15A4.5 4.5 0 0 1 24 6.5z"/></svg>