<svg xmlns="http://www.w3.org/2000/svg" viewBox="0 0 26 28" id="icon"><path d="M25.31 6.38a10.85 10.85 0 0 1-2.53 2.6c.02.22.02.44.02.66C22.8 16.31 17.72 24 8.44 24c-2.86 0-5.52-.83-7.75-2.27a10.4 10.4 0 0 0 7.48-2.09 5.06 5.06 0 0 1-4.72-3.5 5.35 5.35 0 0 0 2.28-.1A5.05 5.05 0 0 1 1.7 11.1v-.06a5.1 5.1 0 0 0 2.28.64 5.04 5.04 0 0 1-2.25-4.2 5 5 0 0 1 .69-2.55 14.34 14.34 0 0 0 10.4 5.28 5.7 5.7 0 0 1-.12-1.15A5.04 5.04 0 0 1 17.74 4a5.03 5.03 0 0 1 3.68 1.6 9.94 9.94 0 0 0 3.2-1.23 5.03 5.03 0 0 1-2.21 2.79c1.01-.11 2-.4 2.9-.79z"/></svg>