<svg xmlns="http://www.w3.org/2000/svg" viewBox="0 0 26 28" id="icon"><path d="M14 12.94V22c0 2.17-1.83 4-4 4s-4-1.83-4-4c0-.55.45-1 1-1s1 .45 1 1c0 1.05.95 2 2 2s2-.95 2-2v-9.06a3.14 3.14 0 0 1 2 0zm12 .42a.5.5 0 0 1-.5.5.52.52 0 0 1-.36-.16c-.9-.84-1.75-1.43-3.05-1.43-1.48 0-2.76.92-3.6 2.09-.2.27-.33.55-.5.81-.11.17-.24.27-.44.27-.22 0-.35-.1-.46-.27-.17-.26-.3-.55-.5-.81-.84-1.17-2.1-2.1-3.59-2.1s-2.75.93-3.6 2.1c-.18.27-.32.55-.5.81-.1.17-.23.27-.45.27-.2 0-.32-.1-.43-.27-.18-.26-.32-.55-.5-.81-.85-1.17-2.13-2.1-3.61-2.1-1.3 0-2.14.6-3.05 1.44a.52.52 0 0 1-.36.16.51.51 0 0 1-.5-.5c0-.05 0-.08.02-.11C1.45 7.35 7.16 4 13 4c5.81 0 11.58 3.34 12.98 9.25.02.03.02.06.02.1zM14 2v1.53a16.7 16.7 0 0 0-1-.03l-1 .03V2c0-.55.45-1 1-1s1 .45 1 1z"/></svg>