<svg xmlns="http://www.w3.org/2000/svg" viewBox="0 0 24 28" id="icon"><path d="M.75 3.48c-.28-.01-.52-.01-.7-.06L0 2.05c.2-.02.4-.02.63-.02.54 0 1.14.02 1.75.06 1.46.08 2.34.11 2.59.11.89 0 1.76-.01 2.62-.05.85-.03 1.61-.06 2.28-.07.66 0 1.11-.02 1.35-.03l-.02.21.03 1v.15c-.62.09-1.26.14-1.93.14-.63 0-1.03.12-1.24.39-.14.15-.2.84-.2 2.06l.02.9.01 3.58.22 4.38c.06 1.27.31 2.31.8 3.16a3.79 3.79 0 0 0 1.5 1.43c.94.5 1.86.74 2.76.74a9.7 9.7 0 0 0 2.99-.44 4.87 4.87 0 0 0 1.55-.8c.48-.36.82-.69 1.01-1a6.64 6.64 0 0 0 .83-1.78c.22-.77.33-1.95.33-3.58 0-2.8-.2-2.87-.44-6.4l-.06-.93c-.05-.67-.16-1.14-.38-1.37a1.56 1.56 0 0 0-1.2-.53l-1.56.03-.22-.05.03-1.34h1.31l3.2.16c1.07.04 2.08-.05 3.07-.16l.28.03c.06.4.1.66.1.8s-.04.3-.07.48a6.1 6.1 0 0 1-1.31.2c-.74.11-1.16.2-1.24.27a.86.86 0 0 0-.23.64l.04.9s.13.29.35 6.2c.08 2.35-.08 3.95-.24 4.75s-.37 1.43-.64 1.9c-.4.69-1 1.33-1.75 1.92-.76.58-1.7 1.05-2.84 1.4S13.6 22 12.1 22c-1.72 0-3.2-.23-4.44-.72s-2.17-1.12-2.8-1.9-1.06-1.8-1.3-3.05c-.17-.86-.25-2.1-.25-3.7v-5.2c0-1.98-.1-3.09-.26-3.34-.25-.36-1.02-.57-2.3-.6zM24 25.5v-1a.5.5 0 0 0-.5-.5H.5a.5.5 0 0 0-.5.5v1c0 .28.22.5.5.5h23a.5.5 0 0 0 .5-.5z"/></svg>