<svg xmlns="http://www.w3.org/2000/svg" viewBox="0 0 28 28"><path d="M21.47 10.27a1 1 0 0 0-1.2-.74c-2.24.53-4.27.97-6.27.97s-4.03-.44-6.27-.97a1 1 0 0 0-1.2.74 1 1 0 0 0 .74 1.2c1.65.39 3.2.73 4.73.9-.06 5.29-.64 6.76-1.3 8.44l-.14.33a1 1 0 0 0 .58 1.3.91.91 0 0 0 .36.06 1 1 0 0 0 .94-.64l.12-.31c.44-1.13.85-2.18 1.11-4.05h.66a16 16 0 0 0 1.1 4.05l.13.3a1 1 0 0 0 .94.65c.12 0 .25-.02.36-.06a1 1 0 0 0 .57-1.3l-.14-.33c-.65-1.69-1.23-3.15-1.3-8.44 1.54-.17 3.08-.51 4.74-.9a1 1 0 0 0 .74-1.2zM16 8a2 2 0 1 0-4 0 2 2 0 0 0 4 0zm9 6a11 11 0 1 1-22 0 11 11 0 0 1 22 0zM14 2C7.4 2 2 7.4 2 14s5.4 12 12 12 12-5.4 12-12S20.6 2 14 2zm14 12a14 14 0 1 1-28 0 14 14 0 0 1 28 0z"/></svg>