<svg xmlns="http://www.w3.org/2000/svg" viewBox="0 0 26 28"><path d="M20 23c0-.55-.45-1-1-1s-1 .45-1 1 .45 1 1 1 1-.45 1-1zm4 0c0-.55-.45-1-1-1s-1 .45-1 1 .45 1 1 1 1-.45 1-1zm2-3.5v5a1.5 1.5 0 0 1-1.5 1.5h-23A1.5 1.5 0 0 1 0 24.5v-5A1.5 1.5 0 0 1 1.5 18h6.67c.42 1.16 1.53 2 2.83 2h4c1.3 0 2.4-.84 2.83-2h6.67a1.5 1.5 0 0 1 1.5 1.5zM20.92 9.37A1 1 0 0 1 20 10h-4v7a1 1 0 0 1-1 1h-4a1 1 0 0 1-1-1v-7H6a1 1 0 0 1-.92-.63.96.96 0 0 1 .22-1.07l7-7c.18-.2.45-.3.7-.3s.52.1.7.3l7 7a.96.96 0 0 1 .22 1.07z"/></svg>