<svg xmlns="http://www.w3.org/2000/svg" viewBox="0 0 36 28" id="icon"><path d="M35.75 12.58c.16.08.25.25.25.42s-.1.34-.25.42l-5 3a.47.47 0 0 1-.25.08.5.5 0 0 1-.25-.06A.5.5 0 0 1 30 16v-2H16.6c.5.78.92 1.7 1.3 2.58.74 1.68 1.5 3.42 2.6 3.42H22v-1.5c0-.28.22-.5.5-.5h5c.28 0 .5.22.5.5v5a.5.5 0 0 1-.5.5h-5a.5.5 0 0 1-.5-.5V22h-1.5c-2.4 0-3.47-2.45-4.44-4.61-.73-1.67-1.5-3.4-2.56-3.4H7.87A4 4 0 1 1 4 9a4.02 4.02 0 0 1 3.88 3H9.5c1.06 0 1.83-1.71 2.56-3.38C13.03 6.45 14.11 4 16.5 4h1.67A3 3 0 0 1 21 2a3 3 0 0 1 0 6 3 3 0 0 1-2.83-2H16.5c-1.1 0-1.86 1.73-2.6 3.42-.38.88-.8 1.8-1.3 2.58H30v-2c0-.19.1-.34.25-.44s.36-.08.5.02z"/></svg>