<svg xmlns="http://www.w3.org/2000/svg" viewBox="0 0 22 28" id="icon"><path d="m9 24 1.5-7L9 15l-2-1zm4 0 2-10-2 1-1.5 2zm2.5-15.78-.06-.1a6.5 6.5 0 0 0-1.5-.12c-.9 0-1.74.13-2.61.3-.11.03-.22.03-.33.03s-.22 0-.33-.03C9.8 8.12 8.95 8 8.07 8a6.5 6.5 0 0 0-1.5.13c-.04.03-.05.06-.07.09l.06.42c.1.13.18.08.24.27.4 1.1.6 1.97 2 1.97 2.01 0 1.45-1.86 2.1-1.86h.2c.65 0 .09 1.86 2.1 1.86 1.4 0 1.6-.86 2-1.97.07-.19.14-.14.24-.27l.06-.42zM22 21.95C22 24.5 20.33 26 17.83 26H4.17C1.67 26 0 24.5 0 21.95c0-2.82.5-7.1 3.4-8.51L2 10h3.34a5.24 5.24 0 0 1-.31-2.5C4.43 7.37 2 6.87 2 6c0-.92 2.66-1.42 3.28-1.55A11.8 11.8 0 0 1 7.18.58C7.5.22 7.9 0 8.39 0c.93 0 1.68.97 2.62.97S12.69 0 13.63 0c.48 0 .87.22 1.18.58.8.92 1.58 2.7 1.9 3.87.63.13 3.29.63 3.29 1.55 0 .88-2.42 1.38-3.03 1.5a5.93 5.93 0 0 1-.31 2.5H20l-1.28 3.52c2.8 1.45 3.28 5.65 3.28 8.43z"/></svg>