<svg xmlns="http://www.w3.org/2000/svg" viewBox="0 0 32 28"><path d="M11 14a6 6 0 1 1 0-12 6 6 0 0 1 0 12zm15 2h5.5c.27 0 .5.23.5.5v3a.5.5 0 0 1-.5.5H26v5.5a.5.5 0 0 1-.5.5h-3a.51.51 0 0 1-.5-.5V20h-5.5a.51.51 0 0 1-.5-.5v-3c0-.27.23-.5.5-.5H22v-5.5c0-.27.23-.5.5-.5h3c.27 0 .5.23.5.5V16zm-11.5 3.5c0 1.1.9 2 2 2h4v3.72a4.5 4.5 0 0 1-2.67.78H4.17C1.67 26 0 24.5 0 21.95 0 18.42.83 13 5.4 13c.26 0 .43.1.61.27 1.54 1.17 3.02 1.9 4.99 1.9s3.45-.73 4.98-1.9c.19-.16.36-.27.61-.27 1.33 0 2.5.5 3.4 1.5h-3.5c-1.09 0-2 .9-2 2v3z"/></svg>