<svg xmlns="http://www.w3.org/2000/svg" viewBox="0 0 22 28" id="icon"><path d="M6 21c0 .55-.45 1-1 1s-1-.45-1-1 .45-1 1-1 1 .45 1 1zm16 .95C22 24.5 20.33 26 17.83 26H4.17C1.67 26 0 24.5 0 21.95c0-3.1.63-8.01 4.34-8.82A4.92 4.92 0 0 0 4 15v3.17A3 3 0 1 0 8 21a3.02 3.02 0 0 0-2-2.83V15c0-.52.05-1.03.4-1.45 1.3 1.03 2.93 1.62 4.6 1.62s3.3-.6 4.6-1.62c.35.42.4.93.4 1.45v1a4 4 0 0 0-4 4v1.4c-.31.27-.5.68-.5 1.1a1.5 1.5 0 0 0 3 0c0-.42-.19-.83-.5-1.1V20c0-1.1.9-2 2-2s2 .9 2 2v1.4c-.31.27-.5.68-.5 1.1a1.5 1.5 0 0 0 3 0c0-.42-.19-.83-.5-1.1V20c0-1.42-.77-2.75-2-3.45 0-1.14.1-2.36-.34-3.43 3.71.82 4.34 5.72 4.34 8.83zM17 8A6 6 0 1 1 5 8a6 6 0 0 1 12 0z"/></svg>