<svg xmlns="http://www.w3.org/2000/svg" viewBox="0 0 32 28" id="icon"><path d="M11 14a6 6 0 1 1 0-12 6 6 0 0 1 0 12zm16.83 5 3.89 3.9a.5.5 0 0 1 .14.35c0 .13-.05.25-.14.34l-2.13 2.13a.48.48 0 0 1-.34.14.5.5 0 0 1-.36-.14L25 21.82l-3.9 3.9a.5.5 0 0 1-.35.14.48.48 0 0 1-.34-.14l-2.13-2.13a.48.48 0 0 1-.14-.34.5.5 0 0 1 .14-.36l3.9-3.89-3.9-3.9a.5.5 0 0 1-.14-.35c0-.13.05-.25.14-.34l2.13-2.13a.48.48 0 0 1 .34-.14.5.5 0 0 1 .36.14l3.89 3.9 3.9-3.9a.5.5 0 0 1 .35-.14c.13 0 .25.05.34.14l2.13 2.13a.48.48 0 0 1 .14.34.5.5 0 0 1-.14.36zm-7.78 0-2.83 2.83a2.01 2.01 0 0 0-.58 1.42 2 2 0 0 0 .58 1.4l1.3 1.3a4.96 4.96 0 0 1-.7.05H4.18C1.67 26 0 24.5 0 21.95 0 18.42.83 13 5.4 13c.26 0 .43.1.61.27 1.5 1.18 3.04 1.9 4.99 1.9s3.48-.72 4.98-1.9c.19-.16.36-.27.61-.27.3 0 .6.03.9.1-.52.5-.85.9-.85 1.65 0 .53.2 1.05.58 1.42z"/></svg>