<svg xmlns="http://www.w3.org/2000/svg" viewBox="0 0 31 28" id="icon"><path d="M26 .5c0-.28.22-.5.5-.5H31a1 1 0 0 1 1 1v4.5a.5.5 0 0 1-.5.5h-1a.5.5 0 0 1-.5-.5V3.4l-3.97 4a9 9 0 0 1-5.64 14.5 9.02 9.02 0 0 1-6.4-1.4 8.9 8.9 0 0 1-4 1.45V24h1.5c.29 0 .5.22.5.5v1a.5.5 0 0 1-.5.5H10v1.5a.5.5 0 0 1-.5.5h-1a.5.5 0 0 1-.5-.5V26H6.5a.5.5 0 0 1-.5-.5v-1c0-.28.23-.5.5-.5H8v-2.06A9 9 0 1 1 14 5.5a9 9 0 0 1 10.6.45l4-3.96h-2.1a.5.5 0 0 1-.5-.5v-1zM14 17.9a6.98 6.98 0 0 0 0-9.8 6.98 6.98 0 0 0 0 9.8zM2 13a7 7 0 0 0 7 7 6.95 6.95 0 0 0 3.4-.9 8.99 8.99 0 0 1 0-12.2A7 7 0 0 0 2 13zm17 7a7 7 0 0 0 0-14 6.95 6.95 0 0 0-3.4.9 8.99 8.99 0 0 1 0 12.2c1 .57 2.17.9 3.4.9z"/></svg>