<svg xmlns="http://www.w3.org/2000/svg" viewBox="0 0 28 28"><path d="M27.97 8.27A9 9 0 0 1 20 17.94V22h3.5c.28 0 .5.22.5.5v1a.5.5 0 0 1-.5.5H20v3.5a.5.5 0 0 1-.5.5h-1a.5.5 0 0 1-.5-.5V24h-8v3.5a.5.5 0 0 1-.5.5h-1a.5.5 0 0 1-.5-.5V24H4.5a.5.5 0 0 1-.5-.5v-1c0-.28.22-.5.5-.5H8v-4.06A9 9 0 0 1 8.1.04 8.93 8.93 0 0 1 14 1.53a9.04 9.04 0 0 1 13.97 6.75zM14 13.89a6.98 6.98 0 0 0 0-9.78 6.98 6.98 0 0 0 0 9.78zM9 16a7 7 0 0 0 3.4-.9 8.91 8.91 0 0 1 0-12.2A7 7 0 1 0 9 16zm9 6v-4.06a8.91 8.91 0 0 1-4-1.47 8.91 8.91 0 0 1-4 1.47V22h8zm1-6a7 7 0 0 0 0-14 7 7 0 0 0-3.4.9 8.99 8.99 0 0 1 0 12.2 7.01 7.01 0 0 0 3.4.9z"/></svg>