<svg xmlns="http://www.w3.org/2000/svg" viewBox="0 0 24 28" id="icon"><path d="M16.4 16.27a6.12 6.12 0 0 0-.43-2.3c-.4.25-.86.44-1.33.53.25.56.34 1.17.34 1.78 0 2.4-1.78 4.38-4.22 4.38a4.24 4.24 0 0 1-4.23-4.38c0-2.36 1.8-4.44 4.23-4.44.54 0 1.05.1 1.54.3.04-.47.2-.94.42-1.36a5.66 5.66 0 0 0-7.6 5.48c0 3.2 2.43 5.74 5.64 5.74s5.65-2.55 5.65-5.73zm-2.77-5.55c.03.37.03.75.03 1.1 0 2.9-.57 7.6-3.68 8.79.22.03.44.05.66.05h.16a7.23 7.23 0 0 0 3.42-6.43 10.71 10.71 0 0 0-.6-3.51zm0 0C13.54 9.2 12.68 6.86 11.4 6a26.03 26.03 0 0 1 2.22 4.72zm5.23-1.64a4.7 4.7 0 0 0-.8-2.72 3.13 3.13 0 0 1-1.94 1.7c-1.23.35-2.32.92-2.32 2.4 0 .41.14.84.37 1.2a5.54 5.54 0 0 0 3.69-2.85c-.1 1.25-2.42 2.77-3.33 3.27a2.5 2.5 0 0 0 1.72.81c1.14 0 1.95-1.02 2.34-1.98.2-.47.27-1.35.27-1.83zM24 6.5v15a4.5 4.5 0 0 1-4.5 4.5h-15A4.5 4.5 0 0 1 0 21.5v-15A4.5 4.5 0 0 1 4.5 2h15A4.5 4.5 0 0 1 24 6.5z"/></svg>