<svg xmlns="http://www.w3.org/2000/svg" viewBox="0 0 20 28"><path d="M16.4 17.28c0 2.23-.77 4.2-2.3 5.84a7.68 7.68 0 0 1-5.9 2.52 7.65 7.65 0 0 1-5.9-2.52A8.38 8.38 0 0 1 0 17.29c0-4.64 3.5-8.44 8.2-8.44.97 0 1.94.16 2.85.49a5.76 5.76 0 0 0-.61 1.97 5.75 5.75 0 0 0-2.24-.44c-3.54 0-6.15 3.03-6.15 6.47 0 3.5 2.6 6.36 6.15 6.36s6.14-2.86 6.14-6.36c0-.9-.15-1.77-.5-2.6a5.89 5.89 0 0 0 1.93-.76 8.62 8.62 0 0 1 .64 3.31zm-3.18-2.95c0 3.94-1.6 7.22-4.97 9.34l-.22.02c-.33 0-.65-.03-.97-.08 4.52-1.72 5.35-8.58 5.35-12.77 0-.53 0-1.07-.05-1.6.56 1.64.86 3.35.86 5.09zm-.86-5.13v.03a37.07 37.07 0 0 0-3.22-6.87c1.97 1.33 3.05 4.55 3.22 6.84zm3.81 3.18c-.97 0-1.83-.52-2.5-1.18 1.6-.87 3.61-2.23 4.53-3.86.11-.22.3-.62.33-.87-.9 2.03-3.22 3.62-5.37 4.12a3.22 3.22 0 0 1-.55-1.76c0-.75.37-1.75.94-2.3.64-.6 1.6-.92 2.45-1.16a4.52 4.52 0 0 0 2.81-2.48 6.85 6.85 0 0 1 1.16 3.95 9 9 0 0 1-.38 2.66c-.58 1.4-1.75 2.88-3.42 2.88z"/></svg>