<svg xmlns="http://www.w3.org/2000/svg" viewBox="0 0 24 28"><path d="M20.19 9.97c.1-2.27-.74-3.4-2.52-3.47-2.4-.08-4.03 1.28-4.87 4.08.43-.19.86-.3 1.28-.3.87 0 1.26.5 1.15 1.5-.04.6-.43 1.47-1.15 2.61-.74 1.16-1.28 1.72-1.64 1.72-.47 0-.88-.88-1.28-2.64-.13-.53-.36-1.85-.7-3.99-.32-1.97-1.15-2.89-2.5-2.76-.57.06-1.44.56-2.57 1.56-.84.73-1.67 1.5-2.53 2.25l.81 1.05a5.93 5.93 0 0 1 1.36-.81c.6 0 1.16.93 1.67 2.8l1.4 5.13c.71 1.86 1.56 2.8 2.57 2.8 1.63 0 3.63-1.53 5.98-4.6 2.29-2.93 3.47-5.24 3.54-6.93zM24 6.5v15a4.5 4.5 0 0 1-4.5 4.5h-15A4.5 4.5 0 0 1 0 21.5v-15A4.5 4.5 0 0 1 4.5 2h15A4.5 4.5 0 0 1 24 6.5z"/></svg>