<svg xmlns="http://www.w3.org/2000/svg" viewBox="0 0 28 28" id="icon"><path d="M26.7 8.1c-.1 2.46-1.84 5.85-5.18 10.17-3.47 4.48-6.38 6.73-8.79 6.73-1.48 0-2.73-1.38-3.75-4.1l-2.06-7.54c-.75-2.73-1.58-4.1-2.45-4.1-.19 0-.85.4-1.99 1.2l-1.2-1.54L5 5.61c1.66-1.47 2.92-2.2 3.77-2.28 1.98-.19 3.18 1.15 3.65 4.05.49 3.12.85 5.07 1.03 5.82.58 2.6 1.2 3.9 1.88 3.9.53 0 1.33-.83 2.4-2.52 1.07-1.69 1.63-2.97 1.7-3.85.15-1.45-.41-2.17-1.7-2.17-.6 0-1.23.14-1.89.4C17.1 4.88 19.48 2.9 23.02 3c2.6.08 3.84 1.78 3.68 5.1z"/></svg>