<svg xmlns="http://www.w3.org/2000/svg" viewBox="0 0 24 28" id="icon"><path d="M23.4 12.92v3.1c-1.1.25-2.2.36-3.1.36-2.2 4.59-6.11 8.53-7.43 9.26-.82.47-1.6.5-2.53-.05-1.6-.96-7.7-5.96-9.73-21.68h4.42c1.11 9.43 3.83 14.28 6.81 17.9a24.55 24.55 0 0 0 4.49-6.34c-2.95-1.5-4.75-4.8-4.75-8.64 0-3.9 2.23-6.83 6.06-6.83 3.72 0 5.75 2.31 5.75 6.3 0 1.48-.31 3.17-.9 4.46 0 0-2.75.55-3.77-1.21.2-.68.48-1.83.48-2.88 0-1.86-.67-2.77-1.68-2.77-1.08 0-1.83 1.02-1.83 2.97 0 3.99 2.53 6.27 5.81 6.27a8.3 8.3 0 0 0 1.9-.22z"/></svg>