<svg xmlns="http://www.w3.org/2000/svg" viewBox="0 0 31 28"><path d="M29.95 8.13c.24.64-.5 2.14-2.34 4.59-3.03 4.03-3.36 3.66-.86 5.98 2.4 2.24 2.9 3.32 2.98 3.46 0 0 1 1.75-1.1 1.76l-4 .07c-.86.17-2-.61-2-.61-1.5-1.03-2.91-3.7-4-3.36 0 0-1.13.36-1.1 2.76.02.52-.23.8-.23.8s-.28.3-.83.34h-1.8c-3.95.25-7.44-3.39-7.44-3.39S3.43 16.6.08 8.73c-.22-.51.01-.76.01-.76s.24-.3.9-.3l4.28-.03c.4.07.68.28.68.28s.25.18.38.5c.7 1.75 1.6 3.35 1.6 3.35 1.57 3.22 2.63 3.76 3.24 3.43 0 0 .8-.48.63-4.37-.07-1.4-.46-2.05-.46-2.05-.35-.48-1.03-.62-1.32-.67-.24-.03.15-.6.67-.84.76-.38 2.12-.4 3.73-.38a8.3 8.3 0 0 1 2.11.2c1.49.36.99 1.74.99 5.05 0 1.06-.2 2.55.56 3.03.33.22 1.14.03 3.14-3.37 0 0 .94-1.63 1.67-3.52.13-.34.4-.48.4-.48s.24-.14.59-.1l4.5-.03c1.35-.17 1.57.45 1.57.45z"/></svg>