<svg xmlns="http://www.w3.org/2000/svg" viewBox="0 0 26 28"><path d="M12 5.5v17a1 1 0 0 1-1 1 .99.99 0 0 1-.7-.3L5.1 18H1a1 1 0 0 1-1-1v-6a1 1 0 0 1 1-1h4.1l5.2-5.2a1 1 0 0 1 .7-.3 1 1 0 0 1 1 1zm6 8.5a4 4 0 0 1-2.42 3.67.87.87 0 0 1-.4.08 1 1 0 0 1-1-1c0-1.19 1.82-.86 1.82-2.75s-1.81-1.56-1.81-2.75a1 1 0 0 1 1-1c.12 0 .26.02.39.08A3.98 3.98 0 0 1 18 14zm4 0a8 8 0 0 1-4.84 7.36 1.16 1.16 0 0 1-.4.08 1.01 1.01 0 0 1-1.01-1c0-.44.25-.74.6-.93.43-.21.82-.4 1.2-.68a5.97 5.97 0 0 0 0-9.66c-.38-.28-.77-.47-1.2-.69-.35-.18-.6-.48-.6-.92a1 1 0 0 1 1.4-.92A8.01 8.01 0 0 1 22 14zm4 0a12 12 0 0 1-7.27 11.03 1 1 0 0 1-1.4-.92c0-.45.23-.7.6-.92.23-.13.48-.2.71-.33a10.01 10.01 0 0 0 1.28-16.92 11 11 0 0 0-1.28-.8c-.23-.12-.48-.2-.7-.33-.38-.22-.61-.47-.61-.92a1 1 0 0 1 1.4-.92A12 12 0 0 1 26 14z"/></svg>