<svg xmlns="http://www.w3.org/2000/svg" viewBox="0 0 32 28"><path d="M9.06 7.2c0-.86-.56-1.42-1.42-1.42-.84 0-1.7.56-1.7 1.42 0 .85.86 1.4 1.7 1.4.86 0 1.42-.55 1.42-1.4zm11.61 7.92c0-.56-.56-1.12-1.42-1.12-.56 0-1.13.56-1.13 1.13 0 .57.57 1.14 1.13 1.14.86 0 1.42-.57 1.42-1.15zM16.98 7.2c0-.86-.56-1.42-1.4-1.42-.86 0-1.7.56-1.7 1.42 0 .85.84 1.4 1.7 1.4.84 0 1.4-.55 1.4-1.4zm9.93 7.92c0-.56-.58-1.12-1.43-1.12-.56 0-1.12.56-1.12 1.13 0 .57.56 1.14 1.12 1.14.85 0 1.43-.57 1.43-1.15zm-4.16-6.2a8.38 8.38 0 0 0-1.1-.06c-5.37 0-9.62 4.02-9.62 8.95 0 .83.13 1.63.36 2.38-.36.03-.7.04-1.06.04-1.42 0-2.55-.28-3.97-.56L3.4 21.66l1.12-3.41C1.7 16.27 0 13.7 0 10.59 0 5.2 5.1.97 11.33.97c5.56 0 10.45 3.39 11.42 7.95zM32 17.7c0 2.54-1.69 4.81-3.97 6.51l.86 2.83-3.1-1.7c-1.15.28-2.29.58-3.42.58-5.39 0-9.62-3.7-9.62-8.22s4.23-8.22 9.63-8.22c5.09 0 9.62 3.69 9.62 8.22z"/></svg>