<svg xmlns="http://www.w3.org/2000/svg" viewBox="0 0 28 28"><path d="M10.55 20.06c.43-.72.2-1.54-.53-1.86-.7-.3-1.64.02-2.08.7-.45.7-.24 1.54.47 1.87.72.32 1.68.01 2.14-.7zm1.47-1.89c.15-.28.06-.6-.22-.7a.68.68 0 0 0-.78.3c-.16.28-.08.57.2.7a.67.67 0 0 0 .8-.3zm2.71 1.67a5 5 0 0 1-5.97 2.54c-2.23-.72-3.17-2.93-2.2-4.91A5.08 5.08 0 0 1 12.22 15c2.3.6 3.45 2.75 2.51 4.84zm4.88-2.5c-.3-3.04-4.3-5.14-8.94-4.68-4.64.47-8.14 3.3-7.84 6.34s4.3 5.14 8.94 4.69c4.64-.47 8.14-3.3 7.84-6.35zm4.81.07c0 3.51-5.06 7.93-12.67 7.93C5.94 25.34 0 22.54 0 17.9c0-2.42 1.53-5.22 4.17-7.86 3.53-3.53 7.64-5.12 9.19-3.58.69.68.75 1.86.31 3.27-.22.72.68.31.68.33 2.84-1.2 5.32-1.27 6.23.03.48.69.44 1.65 0 2.78-.2.52.06.6.45.72 1.61.5 3.4 1.7 3.4 3.83zm-1.15-9.75a3.6 3.6 0 0 1 .75 3.53.92.92 0 1 1-1.75-.56 1.77 1.77 0 0 0-2.05-2.29c-.5.11-1-.2-1.1-.7a.92.92 0 0 1 .7-1.1 3.57 3.57 0 0 1 3.44 1.12zm2.82-2.55a7.4 7.4 0 0 1 1.55 7.25 1.07 1.07 0 0 1-2.04-.66 5.24 5.24 0 0 0-1.1-5.15 5.27 5.27 0 0 0-5.02-1.63c-.57.13-1.15-.25-1.28-.83s.25-1.14.83-1.26A7.4 7.4 0 0 1 26.1 5.1z"/></svg>