<svg xmlns="http://www.w3.org/2000/svg" viewBox="0 0 24 28" id="icon"><path d="M15.4 15.22c.26 0 2.8 1.33 2.91 1.51.03.08.03.18.03.24 0 .39-.12.83-.26 1.19-.36.87-1.82 1.43-2.7 1.43-.76 0-2.3-.65-2.97-.96-2.24-1.02-3.63-2.75-4.97-4.74a5.52 5.52 0 0 1-1.11-3.03v-.13c.03-1.03.4-1.76 1.15-2.46.24-.22.49-.35.82-.35.18 0 .37.05.57.05.43 0 .5.12.66.53.1.27.9 2.4.9 2.55 0 .6-1.07 1.26-1.07 1.62 0 .08.03.16.08.24a7.9 7.9 0 0 0 3.95 3.71.68.68 0 0 0 .34.11c.47 0 1.25-1.51 1.66-1.51zm-3.18 8.28a9.82 9.82 0 0 0 0-19.62 9.83 9.83 0 0 0-7.94 15.56l-1.23 3.64 3.78-1.2a9.88 9.88 0 0 0 5.39 1.62zm0-21.6A11.79 11.79 0 1 1 6.52 24L0 26.1l2.13-6.34A11.79 11.79 0 0 1 12.22 1.9z"/></svg>