<svg xmlns="http://www.w3.org/2000/svg" viewBox="0 0 24 28" id="icon"><path d="M22.47 12.7c.33.35.5.82.45 1.28l-.69 8.61a1.67 1.67 0 0 1-1.65 1.53l-.14-.01a1.66 1.66 0 0 1-1.53-1.78l.54-6.7-2.23.12a8.58 8.58 0 0 1 .86 3.75c0 2.25-.88 4.3-2.31 5.81l-2.14-2.14a5.48 5.48 0 0 0-4.05-9.16 5.46 5.46 0 0 0-3.69 1.44L3.75 13.3a8.43 8.43 0 0 1 4.44-2.2l4.12-4.7-2.33-1.35-2.82 2.51c-.7.63-1.74.56-2.35-.12s-.54-1.74.13-2.35l3.73-3.33a1.62 1.62 0 0 1 1.94-.18C18.2 6 18.23 6 18.23 6c.41.23.65.64.75 1.06a2.02 2.02 0 0 1-.4 1.83l-3.2 3.62 5.8-.3c.48-.04.95.13 1.29.5zm-3.1-7.14a2.78 2.78 0 0 1-2.78-2.78A2.79 2.79 0 0 1 19.38 0a2.79 2.79 0 0 1 2.8 2.78 2.78 2.78 0 0 1-2.8 2.78zm-9.8 19.4a5.47 5.47 0 0 0 3.07-.94l2.17 2.17A8.51 8.51 0 0 1 2.87 14.25l2.18 2.17a5.46 5.46 0 0 0-.94 3.08 5.47 5.47 0 0 0 5.47 5.47z"/></svg>