<svg xmlns="http://www.w3.org/2000/svg" viewBox="0 0 32 28" id="icon"><path d="M16 23.8c-.4 0-2.6-2.2-2.6-2.61 0-.77 2-1.19 2.6-1.19s2.6.42 2.6 1.19c0 .42-2.2 2.6-2.6 2.6zm4.22-4.24C20 19.56 18.3 18 16 18c-2.31 0-3.98 1.56-4.22 1.56-.37 0-2.64-2.25-2.64-2.62a.5.5 0 0 1 .16-.36 10.02 10.02 0 0 1 13.4 0 .5.5 0 0 1 .16.36c0 .37-2.27 2.62-2.64 2.62zm4.26-4.25a.71.71 0 0 1-.35-.12C21.55 13.19 19.38 12 16 12c-4.72 0-8.31 3.31-8.48 3.31-.36 0-2.61-2.25-2.61-2.62a.5.5 0 0 1 .15-.34C7.86 9.55 12.08 8 16 8s8.14 1.55 10.94 4.35a.5.5 0 0 1 .15.34c0 .37-2.25 2.62-2.6 2.62zm4.24-4.23a.56.56 0 0 1-.34-.14C24.77 7.77 20.88 6 16 6S7.23 7.77 3.62 10.94a.56.56 0 0 1-.34.14c-.36 0-2.62-2.25-2.62-2.63A.5.5 0 0 1 .8 8.1C4.76 4.17 10.47 2 16 2s11.23 2.17 15.19 6.1a.5.5 0 0 1 .15.35c0 .38-2.26 2.63-2.62 2.63z"/></svg>