<svg xmlns="http://www.w3.org/2000/svg" viewBox="0 0 36 28"><path d="m23.34 25.6-4.6-10.85c-1.83 3.58-3.85 7.31-5.58 10.86-.02.02-.85 0-.85-.02-2.64-6.17-5.4-12.3-8.04-18.48C3.63 5.6 1.49 3.17.02 3.19L0 2.39h9.1v.78c-1.07.06-2.96.75-2.43 1.92 1.23 2.8 5.83 13.52 7.06 16.24.85-1.67 3.25-6.14 4.24-8.03-.78-1.6-3.3-7.53-4.1-9-.54-1-2.03-1.1-3.14-1.11V2.4l8.02.01v.74c-1.1.03-2.14.43-1.66 1.47 1.06 2.25 1.72 3.82 2.7 5.89.32-.61 1.96-3.91 2.7-5.68.5-1.15-.21-1.6-2.16-1.65l.01-.77c2.5-.01 6.25-.01 6.92-.03v.77A4.17 4.17 0 0 0 24 4.94l-3.33 6.9c.36.91 3.56 8.04 3.9 8.82l6.88-15.9c-.48-1.3-2.04-1.57-2.65-1.59V2.4l7.18.06.02.04-.02.68c-1.57.05-2.53.9-3.14 2.27-1.4 3.25-5.8 13.5-8.73 20.17h-.77z"/></svg>