<svg xmlns="http://www.w3.org/2000/svg" viewBox="0 0 28 28" id="icon"><path d="M1.98 14c0-1.73.38-3.4 1.05-4.9l5.73 15.71A12.02 12.02 0 0 1 1.99 14zm20.13-.6c0 1.02-.42 2.21-.92 3.88l-1.2 4-4.33-12.9s.71-.05 1.37-.13c.64-.08.56-1.03-.08-.98-1.95.14-3.2.15-3.2.15s-1.17-.01-3.16-.15c-.65-.05-.73.93-.07.98l1.25.13 1.87 5.12-2.62 7.88-4.38-13s.72-.05 1.38-.13c.64-.08.56-1.03-.08-.98-1.94.14-3.2.15-3.2.15l-.77-.01A12 12 0 0 1 22.1 5.14h-.16c-1.17 0-2.01 1.02-2.01 2.13 0 .98.57 1.8 1.18 2.8.47.8.99 1.84.99 3.32zm-7.9 1.65 3.7 10.1a.59.59 0 0 0 .07.18 11.98 11.98 0 0 1-7.37.19zm10.32-6.82a11.98 11.98 0 0 1-4.5 16.14l3.67-10.59c.61-1.75.93-3.1.93-4.31 0-.44-.04-.84-.1-1.23zM14 0c7.72 0 14 6.28 14 14s-6.28 14-14 14S0 21.72 0 14 6.28 0 14 0zm0 27.36c7.36 0 13.36-6 13.36-13.36S21.36.64 14 .64.64 6.64.64 14s6 13.36 13.36 13.36z"/></svg>