<svg xmlns="http://www.w3.org/2000/svg" viewBox="0 0 28 28"><path d="M6 13h2.5V9.5H6V13zm13.08 5.19v-1.44c-1.35.47-2.45.58-3.8.6a12.38 12.38 0 0 1-7.5-2.65l.02 1.5a11.1 11.1 0 0 0 7.56 2.75c1.36 0 2.64-.28 3.72-.76zM10 13h10V9.5H10V13zm18-.5c0 1.98-.56 3.86-1.55 5.5a5.4 5.4 0 0 1 1.4 3.58c0 3.26-3.1 5.92-6.93 5.92a7.18 7.18 0 0 1-6.03-3.02c-.3.02-.6.02-.89.02s-.6 0-.9-.02a7.18 7.18 0 0 1-6.02 3.02c-3.83 0-6.92-2.66-6.92-5.92A5.4 5.4 0 0 1 1.55 18 10.66 10.66 0 0 1 0 12.5C0 5.87 6.27.5 14 .5s14 5.38 14 12z"/></svg>