<svg xmlns="http://www.w3.org/2000/svg" viewBox="0 0 24 28" id="icon"><path d="M8.05 14.23v2H4.1v-2h3.94zm0-3.98v1.98H4.1v-1.98h3.94zm11.84 7.98v2h-5.33v-2h5.33zm0-4v2H9.4v-2h10.5zm0-3.98v1.98H9.4v-1.98h10.5zM22 23.69V4.3a.31.31 0 0 0-.31-.31h-.5l-5.9 4L12 5.33 8.72 8l-5.9-4h-.5a.31.31 0 0 0-.32.31V23.7c0 .17.14.31.31.31H21.7a.31.31 0 0 0 .31-.31zM8.64 6.34 11.54 4H5.18zm6.72 0L18.8 4h-6.34zM24 4.31V23.7a2.3 2.3 0 0 1-2.31 2.3H2.3A2.3 2.3 0 0 1 0 23.7V4.3A2.3 2.3 0 0 1 2.3 2h19.4A2.3 2.3 0 0 1 24 4.31z"/></svg>