<svg xmlns="http://www.w3.org/2000/svg" viewBox="0 0 24 28" id="icon"><path d="M10.7 11.95 8.73 8.48c-.15-.25-.37-.53-.8-.53H5.04c-.19 0-.33.07-.4.18-.09.12-.07.3 0 .45l1.96 3.37v.02l-3.06 5.4c-.1.16-.08.32 0 .44s.2.2.37.2h2.9c.42 0 .63-.3.77-.56l3.11-5.5zm9.75-7.76c-.07-.13-.2-.19-.37-.19h-2.92c-.43 0-.61.27-.77.55L9.97 15.94l4.1 7.52c.13.24.35.54.8.54h2.88c.17 0 .31-.06.39-.19s.08-.28-.02-.43l-4.06-7.44v-.02l6.4-11.3a.47.47 0 0 0 0-.43zM24 6.5v15a4.5 4.5 0 0 1-4.5 4.5h-15A4.5 4.5 0 0 1 0 21.5v-15A4.5 4.5 0 0 1 4.5 2h15A4.5 4.5 0 0 1 24 6.5z"/></svg>