<svg xmlns="http://www.w3.org/2000/svg" viewBox="0 0 24 28"><path d="M12.08 20.6v2c-.02 4.4-.02 4.56-.1 4.76-.12.33-.4.55-.8.62-1.12.2-4.63-1.1-5.37-1.98a1.1 1.1 0 0 1-.26-.56.88.88 0 0 1 .06-.4c.08-.23.22-.4 3.36-4.12l.94-1.1c.3-.38.87-.5 1.39-.32.51.2.8.64.78 1.11zm-2.33-3.9c-.03.54-.34.95-.81 1.1l-1.88.6c-4.2 1.34-4.34 1.38-4.56 1.38a1.02 1.02 0 0 1-.84-.57 3.62 3.62 0 0 1-.27-1.17c-.17-1.53.03-3.83.49-4.55a.98.98 0 0 1 .87-.5c.23 0 .42.1 4.95 1.94 0 0-.01.02 1.32.53.47.19.76.67.73 1.24zm12.9 4.64c-.15 1.12-2.48 4.08-3.54 4.5a.99.99 0 0 1-.99-.11c-.18-.14-.37-.42-2.87-4.49l-.73-1.2a1.2 1.2 0 0 1 .12-1.44c.34-.42.84-.56 1.3-.4l1.86.62c4.2 1.38 4.34 1.43 4.51 1.57.28.22.4.54.35.95zm-10.5-9.88c.08 1.63-.6 1.83-.84 1.9-.22.07-.9.28-1.78-1.1-5.75-9.08-5.9-9.34-5.9-9.34a1 1 0 0 1 .3-.97c.85-.9 5.52-2.2 6.74-1.9.4.1.67.35.77.7.06.4.62 8.82.72 10.71zm10.35 1.7c.03.38-.1.71-.4.91-.2.13-.38.19-5.15 1.35-.76.17-1.18.28-1.42.36l.02-.03c-.47.12-1-.1-1.3-.57s-.28-.98 0-1.36c0 0 .02-.01 1.17-1.59 2.56-3.5 2.69-3.67 2.88-3.8.3-.2.65-.2 1.01-.03 1.02.49 3.07 3.53 3.19 4.7v.05z"/></svg>