<svg xmlns="http://www.w3.org/2000/svg" viewBox="0 0 28 28" id="icon"><path d="m11.1 17.63 7.57-3.91-7.56-3.95v7.86zM14 4.15c5.9 0 9.8.28 9.8.28.54.06 1.75.06 2.8 1.18 0 0 .87.85 1.12 2.79.3 2.26.28 4.53.28 4.53v2.12s.02 2.27-.28 4.53c-.25 1.92-1.11 2.78-1.11 2.78-1.06 1.11-2.27 1.11-2.81 1.18 0 0-3.9.3-9.8.3a133.9 133.9 0 0 1-9.52-.29c-.62-.1-2.03-.08-3.09-1.19 0 0-.86-.86-1.1-2.78-.3-2.26-.29-4.53-.29-4.53v-2.12s-.02-2.27.28-4.53C.53 6.47 1.4 5.62 1.4 5.62 2.45 4.5 3.66 4.5 4.2 4.45c0 0 3.9-.28 9.8-.28z"/></svg>