<svg xmlns="http://www.w3.org/2000/svg" viewBox="0 0 24 28"><path d="M14.36 20.36V17.9c0-.52-.16-.78-.45-.78a.7.7 0 0 0-.52.25v3.5c.17.17.34.25.52.25.3 0 .45-.25.45-.77zm2.87-1.9h1.04v-.54c0-.53-.18-.8-.52-.8s-.52.27-.52.8v.53zM8.31 14.3v1.1H7.06V22H5.91v-6.6H4.69v-1.1H8.3zm3.14 1.97V22h-1.04v-.63c-.41.47-.8.7-1.2.7-.32 0-.55-.13-.65-.43-.06-.17-.1-.44-.1-.84v-4.54H9.5v4.22c0 .24 0 .38.02.41.01.16.09.23.23.23.22 0 .42-.15.66-.48v-4.38h1.04zM15.4 18v2.28c0 .52-.03.9-.1 1.14-.13.44-.41.66-.84.66-.35 0-.71-.22-1.06-.64V22h-1.04v-7.7h1.04v2.51c.33-.4.69-.62 1.06-.62.43 0 .7.22.83.65.08.24.11.61.11 1.16zm3.92 2.02v.14c0 .34-.01.56-.03.67a1.42 1.42 0 0 1-1.48 1.25c-.55 0-.97-.2-1.27-.6-.22-.28-.33-.73-.33-1.34v-2.02c0-.6.1-1.04.32-1.34.3-.39.72-.6 1.25-.6.51 0 .93.21 1.22.6.21.3.32.73.32 1.34v1.2h-2.07v1c0 .54.17.8.53.8.25 0 .4-.14.47-.4l.01-.7h1.06zM12.27 7.14v2.44c0 .53-.18.8-.5.8-.35 0-.5-.27-.5-.8V7.14c0-.53.15-.81.5-.81.32 0 .5.28.5.81zm8.32 11.14c0-1.34 0-2.77-.3-4.06a2.17 2.17 0 0 0-1.85-1.69c-2.13-.23-4.28-.23-6.44-.23-2.14 0-4.3 0-6.42.23a2.14 2.14 0 0 0-1.86 1.69c-.3 1.3-.31 2.72-.31 4.06 0 1.33 0 2.75.3 4.06a2.18 2.18 0 0 0 1.85 1.69c2.14.23 4.3.23 6.44.23s4.3 0 6.44-.23a2.18 2.18 0 0 0 1.84-1.69c.32-1.31.32-2.73.32-4.06zM8.8 8.11l1.41-4.63H9.03l-.8 3.05-.82-3.05H6.19c.23.72.5 1.44.73 2.16.38 1.1.61 1.9.72 2.47v3.14H8.8V8.11zm4.52 1.27V7.33c0-.6-.1-1.06-.33-1.35-.3-.4-.7-.6-1.21-.6-.54 0-.94.2-1.22.6-.22.3-.33.75-.33 1.35v2.04c0 .6.1 1.06.33 1.35.28.4.68.6 1.22.6.51 0 .92-.2 1.21-.6.22-.28.33-.75.33-1.36zm2.83 1.87h1.05V5.47h-1.05v4.42c-.23.33-.45.48-.65.48-.15 0-.24-.07-.25-.24-.02-.04-.02-.16-.02-.41V5.47h-1.05v4.58c0 .4.03.67.1.86.1.28.34.42.67.42.39 0 .78-.24 1.2-.7v.62zM24 6.5v15a4.5 4.5 0 0 1-4.5 4.5h-15A4.5 4.5 0 0 1 0 21.5v-15A4.5 4.5 0 0 1 4.5 2h15A4.5 4.5 0 0 1 24 6.5z"/></svg>