<svg xmlns="http://www.w3.org/2000/svg" viewBox="0 0 24 28"><path d="M15.17 19.44v3.3c0 .7-.2 1.04-.6 1.04a.97.97 0 0 1-.71-.34v-4.7c.23-.24.47-.35.7-.35.4 0 .61.36.61 1.05zm5.28.01v.72h-1.4v-.72c0-.7.23-1.06.7-1.06s.7.36.7 1.06zm-15.1-3.4h1.68v-1.47H2.16v1.47H3.8v8.89h1.56v-8.9zm4.5 8.89h1.4v-7.72h-1.4v5.9c-.3.44-.6.66-.88.66-.19 0-.3-.1-.33-.33-.02-.04-.02-.22-.02-.54v-5.7H7.23v6.12c0 .54.05.9.13 1.14.12.39.45.58.9.58.5 0 1.03-.32 1.6-.96v.85zm6.71-2.31v-3.08c0-.72-.03-1.24-.14-1.55-.17-.58-.56-.87-1.1-.87-.52 0-1 .28-1.46.84v-3.4h-1.4v10.37h1.4v-.75c.47.58.95.86 1.45.86.55 0 .94-.3 1.11-.86.11-.33.14-.85.14-1.57zm5.28-.16v-.2h-1.42c0 .56-.01.87-.03.95-.08.37-.28.56-.62.56-.49 0-.72-.36-.72-1.08v-1.36h2.8v-1.6c0-.83-.15-1.43-.43-1.82-.4-.53-.95-.8-1.65-.8a2 2 0 0 0-1.68.8c-.3.4-.43.99-.43 1.82v2.7c0 .83.15 1.44.45 1.81.4.53.95.8 1.69.8s1.3-.28 1.68-.83a1.8 1.8 0 0 0 .33-.84c.03-.14.03-.46.03-.91zM12.34 8.2V4.92c0-.72-.2-1.08-.67-1.08-.45 0-.67.36-.67 1.08V8.2c0 .72.22 1.1.67 1.1.47 0 .67-.38.67-1.1zm11.24 11.74c0 1.8-.02 3.72-.4 5.47a2.92 2.92 0 0 1-2.5 2.26C17.8 28 14.88 28 12 28s-5.8 0-8.67-.33a2.9 2.9 0 0 1-2.5-2.26c-.4-1.75-.4-3.67-.4-5.47 0-1.81 0-3.72.4-5.47a2.96 2.96 0 0 1 2.51-2.28c2.86-.31 5.77-.31 8.66-.31s5.8 0 8.67.3a2.94 2.94 0 0 1 2.5 2.29c.4 1.75.4 3.66.4 5.47zM7.98 0h1.6l-1.9 6.23v4.24H6.13V6.23c-.14-.76-.45-1.86-.95-3.3L4.15 0h1.66l1.11 4.1zm5.79 5.2v2.74c0 .82-.14 1.45-.44 1.84-.4.53-.94.8-1.66.8-.7 0-1.25-.27-1.64-.8-.3-.4-.44-1.01-.44-1.84V5.2c0-.82.14-1.43.44-1.82.4-.54.94-.8 1.64-.8.72 0 1.27.26 1.66.8.3.39.44 1 .44 1.82zM19 2.67v7.8h-1.42V9.6c-.56.66-1.1.97-1.61.97-.45 0-.78-.19-.92-.58a3.8 3.8 0 0 1-.13-1.17V2.67h1.42v5.74c0 .32 0 .51.02.54.03.22.14.35.33.35.28 0 .58-.22.89-.67V2.67H19z"/></svg>